<?xml version="1.0" encoding="utf-8"?>
<svg xmlns="http://www.w3.org/2000/svg" xmlns:xlink="http://www.w3.org/1999/xlink" width="600" height="400" viewBox="0 0 2400 1600">
<defs>
  <clipPath id="clip650">
    <rect x="0" y="0" width="2400" height="1600"/>
  </clipPath>
</defs>
<path clip-path="url(#clip650)" d="
M0 1600 L2400 1600 L2400 0 L0 0  Z
  " fill="#ffffff" fill-rule="evenodd" fill-opacity="1"/>
<defs>
  <clipPath id="clip651">
    <rect x="480" y="0" width="1681" height="1600"/>
  </clipPath>
</defs>
<path clip-path="url(#clip650)" d="
M249.704 1423.18 L2352.76 1423.18 L2352.76 123.472 L249.704 123.472  Z
  " fill="#ffffff" fill-rule="evenodd" fill-opacity="1"/>
<defs>
  <clipPath id="clip652">
    <rect x="249" y="123" width="2104" height="1301"/>
  </clipPath>
</defs>
<polyline clip-path="url(#clip652)" style="stroke:#000000; stroke-linecap:butt; stroke-linejoin:round; stroke-width:2; stroke-opacity:0.1; fill:none" points="
  582.881,1423.18 582.881,123.472 
  "/>
<polyline clip-path="url(#clip652)" style="stroke:#000000; stroke-linecap:butt; stroke-linejoin:round; stroke-width:2; stroke-opacity:0.1; fill:none" points="
  924.952,1423.18 924.952,123.472 
  "/>
<polyline clip-path="url(#clip652)" style="stroke:#000000; stroke-linecap:butt; stroke-linejoin:round; stroke-width:2; stroke-opacity:0.1; fill:none" points="
  1267.02,1423.18 1267.02,123.472 
  "/>
<polyline clip-path="url(#clip652)" style="stroke:#000000; stroke-linecap:butt; stroke-linejoin:round; stroke-width:2; stroke-opacity:0.1; fill:none" points="
  1609.09,1423.18 1609.09,123.472 
  "/>
<polyline clip-path="url(#clip652)" style="stroke:#000000; stroke-linecap:butt; stroke-linejoin:round; stroke-width:2; stroke-opacity:0.1; fill:none" points="
  1951.16,1423.18 1951.16,123.472 
  "/>
<polyline clip-path="url(#clip652)" style="stroke:#000000; stroke-linecap:butt; stroke-linejoin:round; stroke-width:2; stroke-opacity:0.1; fill:none" points="
  2293.24,1423.18 2293.24,123.472 
  "/>
<polyline clip-path="url(#clip650)" style="stroke:#000000; stroke-linecap:butt; stroke-linejoin:round; stroke-width:4; stroke-opacity:1; fill:none" points="
  249.704,1423.18 2352.76,1423.18 
  "/>
<polyline clip-path="url(#clip650)" style="stroke:#000000; stroke-linecap:butt; stroke-linejoin:round; stroke-width:4; stroke-opacity:1; fill:none" points="
  582.881,1423.18 582.881,1404.28 
  "/>
<polyline clip-path="url(#clip650)" style="stroke:#000000; stroke-linecap:butt; stroke-linejoin:round; stroke-width:4; stroke-opacity:1; fill:none" points="
  924.952,1423.18 924.952,1404.28 
  "/>
<polyline clip-path="url(#clip650)" style="stroke:#000000; stroke-linecap:butt; stroke-linejoin:round; stroke-width:4; stroke-opacity:1; fill:none" points="
  1267.02,1423.18 1267.02,1404.28 
  "/>
<polyline clip-path="url(#clip650)" style="stroke:#000000; stroke-linecap:butt; stroke-linejoin:round; stroke-width:4; stroke-opacity:1; fill:none" points="
  1609.09,1423.18 1609.09,1404.28 
  "/>
<polyline clip-path="url(#clip650)" style="stroke:#000000; stroke-linecap:butt; stroke-linejoin:round; stroke-width:4; stroke-opacity:1; fill:none" points="
  1951.16,1423.18 1951.16,1404.28 
  "/>
<polyline clip-path="url(#clip650)" style="stroke:#000000; stroke-linecap:butt; stroke-linejoin:round; stroke-width:4; stroke-opacity:1; fill:none" points="
  2293.24,1423.18 2293.24,1404.28 
  "/>
<path clip-path="url(#clip650)" d="M542.488 1481.64 L550.127 1481.64 L550.127 1455.28 L541.817 1456.95 L541.817 1452.69 L550.08 1451.02 L554.756 1451.02 L554.756 1481.64 L562.395 1481.64 L562.395 1485.58 L542.488 1485.58 L542.488 1481.64 Z" fill="#000000" fill-rule="evenodd" fill-opacity="1" /><path clip-path="url(#clip650)" d="M581.839 1454.1 Q578.228 1454.1 576.4 1457.66 Q574.594 1461.2 574.594 1468.33 Q574.594 1475.44 576.4 1479.01 Q578.228 1482.55 581.839 1482.55 Q585.474 1482.55 587.279 1479.01 Q589.108 1475.44 589.108 1468.33 Q589.108 1461.2 587.279 1457.66 Q585.474 1454.1 581.839 1454.1 M581.839 1450.39 Q587.65 1450.39 590.705 1455 Q593.784 1459.58 593.784 1468.33 Q593.784 1477.06 590.705 1481.67 Q587.65 1486.25 581.839 1486.25 Q576.029 1486.25 572.951 1481.67 Q569.895 1477.06 569.895 1468.33 Q569.895 1459.58 572.951 1455 Q576.029 1450.39 581.839 1450.39 Z" fill="#000000" fill-rule="evenodd" fill-opacity="1" /><path clip-path="url(#clip650)" d="M612.001 1454.1 Q608.39 1454.1 606.562 1457.66 Q604.756 1461.2 604.756 1468.33 Q604.756 1475.44 606.562 1479.01 Q608.39 1482.55 612.001 1482.55 Q615.636 1482.55 617.441 1479.01 Q619.27 1475.44 619.27 1468.33 Q619.27 1461.2 617.441 1457.66 Q615.636 1454.1 612.001 1454.1 M612.001 1450.39 Q617.811 1450.39 620.867 1455 Q623.946 1459.58 623.946 1468.33 Q623.946 1477.06 620.867 1481.67 Q617.811 1486.25 612.001 1486.25 Q606.191 1486.25 603.112 1481.67 Q600.057 1477.06 600.057 1468.33 Q600.057 1459.58 603.112 1455 Q606.191 1450.39 612.001 1450.39 Z" fill="#000000" fill-rule="evenodd" fill-opacity="1" /><path clip-path="url(#clip650)" d="M888.644 1481.64 L904.964 1481.64 L904.964 1485.58 L883.019 1485.58 L883.019 1481.64 Q885.681 1478.89 890.265 1474.26 Q894.871 1469.61 896.052 1468.27 Q898.297 1465.74 899.177 1464.01 Q900.079 1462.25 900.079 1460.56 Q900.079 1457.8 898.135 1456.07 Q896.214 1454.33 893.112 1454.33 Q890.913 1454.33 888.459 1455.09 Q886.029 1455.86 883.251 1457.41 L883.251 1452.69 Q886.075 1451.55 888.529 1450.97 Q890.982 1450.39 893.019 1450.39 Q898.39 1450.39 901.584 1453.08 Q904.779 1455.77 904.779 1460.26 Q904.779 1462.39 903.968 1464.31 Q903.181 1466.2 901.075 1468.8 Q900.496 1469.47 897.394 1472.69 Q894.292 1475.88 888.644 1481.64 Z" fill="#000000" fill-rule="evenodd" fill-opacity="1" /><path clip-path="url(#clip650)" d="M924.778 1454.1 Q921.167 1454.1 919.339 1457.66 Q917.533 1461.2 917.533 1468.33 Q917.533 1475.44 919.339 1479.01 Q921.167 1482.55 924.778 1482.55 Q928.413 1482.55 930.218 1479.01 Q932.047 1475.44 932.047 1468.33 Q932.047 1461.2 930.218 1457.66 Q928.413 1454.1 924.778 1454.1 M924.778 1450.39 Q930.589 1450.39 933.644 1455 Q936.723 1459.58 936.723 1468.33 Q936.723 1477.06 933.644 1481.67 Q930.589 1486.25 924.778 1486.25 Q918.968 1486.25 915.89 1481.67 Q912.834 1477.06 912.834 1468.33 Q912.834 1459.58 915.89 1455 Q918.968 1450.39 924.778 1450.39 Z" fill="#000000" fill-rule="evenodd" fill-opacity="1" /><path clip-path="url(#clip650)" d="M954.94 1454.1 Q951.329 1454.1 949.5 1457.66 Q947.695 1461.2 947.695 1468.33 Q947.695 1475.44 949.5 1479.01 Q951.329 1482.55 954.94 1482.55 Q958.575 1482.55 960.38 1479.01 Q962.209 1475.44 962.209 1468.33 Q962.209 1461.2 960.38 1457.66 Q958.575 1454.1 954.94 1454.1 M954.94 1450.39 Q960.75 1450.39 963.806 1455 Q966.885 1459.58 966.885 1468.33 Q966.885 1477.06 963.806 1481.67 Q960.75 1486.25 954.94 1486.25 Q949.13 1486.25 946.051 1481.67 Q942.996 1477.06 942.996 1468.33 Q942.996 1459.58 946.051 1455 Q949.13 1450.39 954.94 1450.39 Z" fill="#000000" fill-rule="evenodd" fill-opacity="1" /><path clip-path="url(#clip650)" d="M1240.78 1466.95 Q1244.14 1467.66 1246.02 1469.93 Q1247.91 1472.2 1247.91 1475.53 Q1247.91 1480.65 1244.4 1483.45 Q1240.88 1486.25 1234.4 1486.25 Q1232.22 1486.25 1229.91 1485.81 Q1227.61 1485.39 1225.16 1484.54 L1225.16 1480.02 Q1227.1 1481.16 1229.42 1481.74 Q1231.73 1482.32 1234.26 1482.32 Q1238.65 1482.32 1240.95 1480.58 Q1243.26 1478.84 1243.26 1475.53 Q1243.26 1472.48 1241.11 1470.77 Q1238.98 1469.03 1235.16 1469.03 L1231.13 1469.03 L1231.13 1465.19 L1235.34 1465.19 Q1238.79 1465.19 1240.62 1463.82 Q1242.45 1462.43 1242.45 1459.84 Q1242.45 1457.18 1240.55 1455.77 Q1238.68 1454.33 1235.16 1454.33 Q1233.24 1454.33 1231.04 1454.75 Q1228.84 1455.16 1226.2 1456.04 L1226.2 1451.88 Q1228.86 1451.14 1231.18 1450.77 Q1233.52 1450.39 1235.58 1450.39 Q1240.9 1450.39 1244 1452.83 Q1247.1 1455.23 1247.1 1459.35 Q1247.1 1462.22 1245.46 1464.21 Q1243.82 1466.18 1240.78 1466.95 Z" fill="#000000" fill-rule="evenodd" fill-opacity="1" /><path clip-path="url(#clip650)" d="M1266.78 1454.1 Q1263.17 1454.1 1261.34 1457.66 Q1259.53 1461.2 1259.53 1468.33 Q1259.53 1475.44 1261.34 1479.01 Q1263.17 1482.55 1266.78 1482.55 Q1270.41 1482.55 1272.22 1479.01 Q1274.05 1475.44 1274.05 1468.33 Q1274.05 1461.2 1272.22 1457.66 Q1270.41 1454.1 1266.78 1454.1 M1266.78 1450.39 Q1272.59 1450.39 1275.65 1455 Q1278.72 1459.58 1278.72 1468.33 Q1278.72 1477.06 1275.65 1481.67 Q1272.59 1486.25 1266.78 1486.25 Q1260.97 1486.25 1257.89 1481.67 Q1254.84 1477.06 1254.84 1468.33 Q1254.84 1459.58 1257.89 1455 Q1260.97 1450.39 1266.78 1450.39 Z" fill="#000000" fill-rule="evenodd" fill-opacity="1" /><path clip-path="url(#clip650)" d="M1296.94 1454.1 Q1293.33 1454.1 1291.5 1457.66 Q1289.7 1461.2 1289.7 1468.33 Q1289.7 1475.44 1291.5 1479.01 Q1293.33 1482.55 1296.94 1482.55 Q1300.58 1482.55 1302.38 1479.01 Q1304.21 1475.44 1304.21 1468.33 Q1304.21 1461.2 1302.38 1457.66 Q1300.58 1454.1 1296.94 1454.1 M1296.94 1450.39 Q1302.75 1450.39 1305.81 1455 Q1308.89 1459.58 1308.89 1468.33 Q1308.89 1477.06 1305.81 1481.67 Q1302.75 1486.25 1296.94 1486.25 Q1291.13 1486.25 1288.05 1481.67 Q1285 1477.06 1285 1468.33 Q1285 1459.58 1288.05 1455 Q1291.13 1450.39 1296.94 1450.39 Z" fill="#000000" fill-rule="evenodd" fill-opacity="1" /><path clip-path="url(#clip650)" d="M1582.18 1455.09 L1570.38 1473.54 L1582.18 1473.54 L1582.18 1455.09 M1580.96 1451.02 L1586.84 1451.02 L1586.84 1473.54 L1591.77 1473.54 L1591.77 1477.43 L1586.84 1477.43 L1586.84 1485.58 L1582.18 1485.58 L1582.18 1477.43 L1566.58 1477.43 L1566.58 1472.92 L1580.96 1451.02 Z" fill="#000000" fill-rule="evenodd" fill-opacity="1" /><path clip-path="url(#clip650)" d="M1609.5 1454.1 Q1605.89 1454.1 1604.06 1457.66 Q1602.25 1461.2 1602.25 1468.33 Q1602.25 1475.44 1604.06 1479.01 Q1605.89 1482.55 1609.5 1482.55 Q1613.13 1482.55 1614.94 1479.01 Q1616.77 1475.44 1616.77 1468.33 Q1616.77 1461.2 1614.94 1457.66 Q1613.13 1454.1 1609.5 1454.1 M1609.5 1450.39 Q1615.31 1450.39 1618.36 1455 Q1621.44 1459.58 1621.44 1468.33 Q1621.44 1477.06 1618.36 1481.67 Q1615.31 1486.25 1609.5 1486.25 Q1603.69 1486.25 1600.61 1481.67 Q1597.55 1477.06 1597.55 1468.33 Q1597.55 1459.58 1600.61 1455 Q1603.69 1450.39 1609.5 1450.39 Z" fill="#000000" fill-rule="evenodd" fill-opacity="1" /><path clip-path="url(#clip650)" d="M1639.66 1454.1 Q1636.05 1454.1 1634.22 1457.66 Q1632.42 1461.2 1632.42 1468.33 Q1632.42 1475.44 1634.22 1479.01 Q1636.05 1482.55 1639.66 1482.55 Q1643.29 1482.55 1645.1 1479.01 Q1646.93 1475.44 1646.93 1468.33 Q1646.93 1461.2 1645.1 1457.66 Q1643.29 1454.1 1639.66 1454.1 M1639.66 1450.39 Q1645.47 1450.39 1648.53 1455 Q1651.61 1459.58 1651.61 1468.33 Q1651.61 1477.06 1648.53 1481.67 Q1645.47 1486.25 1639.66 1486.25 Q1633.85 1486.25 1630.77 1481.67 Q1627.72 1477.06 1627.72 1468.33 Q1627.72 1459.58 1630.77 1455 Q1633.85 1450.39 1639.66 1450.39 Z" fill="#000000" fill-rule="evenodd" fill-opacity="1" /><path clip-path="url(#clip650)" d="M1910.78 1451.02 L1929.14 1451.02 L1929.14 1454.96 L1915.07 1454.96 L1915.07 1463.43 Q1916.08 1463.08 1917.1 1462.92 Q1918.12 1462.73 1919.14 1462.73 Q1924.93 1462.73 1928.31 1465.9 Q1931.69 1469.08 1931.69 1474.49 Q1931.69 1480.07 1928.21 1483.17 Q1924.74 1486.25 1918.42 1486.25 Q1916.25 1486.25 1913.98 1485.88 Q1911.73 1485.51 1909.32 1484.77 L1909.32 1480.07 Q1911.41 1481.2 1913.63 1481.76 Q1915.85 1482.32 1918.33 1482.32 Q1922.33 1482.32 1924.67 1480.21 Q1927.01 1478.1 1927.01 1474.49 Q1927.01 1470.88 1924.67 1468.77 Q1922.33 1466.67 1918.33 1466.67 Q1916.45 1466.67 1914.58 1467.08 Q1912.73 1467.5 1910.78 1468.38 L1910.78 1451.02 Z" fill="#000000" fill-rule="evenodd" fill-opacity="1" /><path clip-path="url(#clip650)" d="M1950.9 1454.1 Q1947.29 1454.1 1945.46 1457.66 Q1943.65 1461.2 1943.65 1468.33 Q1943.65 1475.44 1945.46 1479.01 Q1947.29 1482.55 1950.9 1482.55 Q1954.53 1482.55 1956.34 1479.01 Q1958.17 1475.44 1958.17 1468.33 Q1958.17 1461.2 1956.34 1457.66 Q1954.53 1454.1 1950.9 1454.1 M1950.9 1450.39 Q1956.71 1450.39 1959.76 1455 Q1962.84 1459.58 1962.84 1468.33 Q1962.84 1477.06 1959.76 1481.67 Q1956.71 1486.25 1950.9 1486.25 Q1945.09 1486.25 1942.01 1481.67 Q1938.95 1477.06 1938.95 1468.33 Q1938.95 1459.58 1942.01 1455 Q1945.09 1450.39 1950.9 1450.39 Z" fill="#000000" fill-rule="evenodd" fill-opacity="1" /><path clip-path="url(#clip650)" d="M1981.06 1454.1 Q1977.45 1454.1 1975.62 1457.66 Q1973.82 1461.2 1973.82 1468.33 Q1973.82 1475.44 1975.62 1479.01 Q1977.45 1482.55 1981.06 1482.55 Q1984.69 1482.55 1986.5 1479.01 Q1988.33 1475.44 1988.33 1468.33 Q1988.33 1461.2 1986.5 1457.66 Q1984.69 1454.1 1981.06 1454.1 M1981.06 1450.39 Q1986.87 1450.39 1989.93 1455 Q1993 1459.58 1993 1468.33 Q1993 1477.06 1989.93 1481.67 Q1986.87 1486.25 1981.06 1486.25 Q1975.25 1486.25 1972.17 1481.67 Q1969.12 1477.06 1969.12 1468.33 Q1969.12 1459.58 1972.17 1455 Q1975.25 1450.39 1981.06 1450.39 Z" fill="#000000" fill-rule="evenodd" fill-opacity="1" /><path clip-path="url(#clip650)" d="M2263.56 1466.44 Q2260.41 1466.44 2258.56 1468.59 Q2256.73 1470.74 2256.73 1474.49 Q2256.73 1478.22 2258.56 1480.39 Q2260.41 1482.55 2263.56 1482.55 Q2266.71 1482.55 2268.54 1480.39 Q2270.39 1478.22 2270.39 1474.49 Q2270.39 1470.74 2268.54 1468.59 Q2266.71 1466.44 2263.56 1466.44 M2272.84 1451.78 L2272.84 1456.04 Q2271.08 1455.21 2269.28 1454.77 Q2267.49 1454.33 2265.74 1454.33 Q2261.11 1454.33 2258.65 1457.45 Q2256.22 1460.58 2255.87 1466.9 Q2257.24 1464.89 2259.3 1463.82 Q2261.36 1462.73 2263.84 1462.73 Q2269.05 1462.73 2272.06 1465.9 Q2275.09 1469.05 2275.09 1474.49 Q2275.09 1479.82 2271.94 1483.03 Q2268.79 1486.25 2263.56 1486.25 Q2257.56 1486.25 2254.39 1481.67 Q2251.22 1477.06 2251.22 1468.33 Q2251.22 1460.14 2255.11 1455.28 Q2259 1450.39 2265.55 1450.39 Q2267.31 1450.39 2269.09 1450.74 Q2270.9 1451.09 2272.84 1451.78 Z" fill="#000000" fill-rule="evenodd" fill-opacity="1" /><path clip-path="url(#clip650)" d="M2293.14 1454.1 Q2289.53 1454.1 2287.7 1457.66 Q2285.9 1461.2 2285.9 1468.33 Q2285.9 1475.44 2287.7 1479.01 Q2289.53 1482.55 2293.14 1482.55 Q2296.78 1482.55 2298.58 1479.01 Q2300.41 1475.44 2300.41 1468.33 Q2300.41 1461.2 2298.58 1457.66 Q2296.78 1454.1 2293.14 1454.1 M2293.14 1450.39 Q2298.95 1450.39 2302.01 1455 Q2305.09 1459.58 2305.09 1468.33 Q2305.09 1477.06 2302.01 1481.67 Q2298.95 1486.25 2293.14 1486.25 Q2287.33 1486.25 2284.25 1481.67 Q2281.2 1477.06 2281.2 1468.33 Q2281.2 1459.58 2284.25 1455 Q2287.33 1450.39 2293.14 1450.39 Z" fill="#000000" fill-rule="evenodd" fill-opacity="1" /><path clip-path="url(#clip650)" d="M2323.3 1454.1 Q2319.69 1454.1 2317.87 1457.66 Q2316.06 1461.2 2316.06 1468.33 Q2316.06 1475.44 2317.87 1479.01 Q2319.69 1482.55 2323.3 1482.55 Q2326.94 1482.55 2328.74 1479.01 Q2330.57 1475.44 2330.57 1468.33 Q2330.57 1461.2 2328.74 1457.66 Q2326.94 1454.1 2323.3 1454.1 M2323.3 1450.39 Q2329.12 1450.39 2332.17 1455 Q2335.25 1459.58 2335.25 1468.33 Q2335.25 1477.06 2332.17 1481.67 Q2329.12 1486.25 2323.3 1486.25 Q2317.49 1486.25 2314.42 1481.67 Q2311.36 1477.06 2311.36 1468.33 Q2311.36 1459.58 2314.42 1455 Q2317.49 1450.39 2323.3 1450.39 Z" fill="#000000" fill-rule="evenodd" fill-opacity="1" /><path clip-path="url(#clip650)" d="M1316.16 1546.53 L1316.16 1568.04 L1310.3 1568.04 L1310.3 1546.72 Q1310.3 1541.66 1308.33 1539.14 Q1306.35 1536.63 1302.41 1536.63 Q1297.67 1536.63 1294.93 1539.65 Q1292.19 1542.68 1292.19 1547.9 L1292.19 1568.04 L1286.3 1568.04 L1286.3 1532.4 L1292.19 1532.4 L1292.19 1537.93 Q1294.29 1534.72 1297.12 1533.13 Q1299.99 1531.54 1303.71 1531.54 Q1309.86 1531.54 1313.01 1535.36 Q1316.16 1539.14 1316.16 1546.53 Z" fill="#000000" fill-rule="evenodd" fill-opacity="1" /><polyline clip-path="url(#clip652)" style="stroke:#000000; stroke-linecap:butt; stroke-linejoin:round; stroke-width:2; stroke-opacity:0.1; fill:none" points="
  249.704,1423.18 2352.76,1423.18 
  "/>
<polyline clip-path="url(#clip652)" style="stroke:#000000; stroke-linecap:butt; stroke-linejoin:round; stroke-width:2; stroke-opacity:0.1; fill:none" points="
  249.704,1163.24 2352.76,1163.24 
  "/>
<polyline clip-path="url(#clip652)" style="stroke:#000000; stroke-linecap:butt; stroke-linejoin:round; stroke-width:2; stroke-opacity:0.1; fill:none" points="
  249.704,903.297 2352.76,903.297 
  "/>
<polyline clip-path="url(#clip652)" style="stroke:#000000; stroke-linecap:butt; stroke-linejoin:round; stroke-width:2; stroke-opacity:0.1; fill:none" points="
  249.704,643.355 2352.76,643.355 
  "/>
<polyline clip-path="url(#clip652)" style="stroke:#000000; stroke-linecap:butt; stroke-linejoin:round; stroke-width:2; stroke-opacity:0.1; fill:none" points="
  249.704,383.414 2352.76,383.414 
  "/>
<polyline clip-path="url(#clip652)" style="stroke:#000000; stroke-linecap:butt; stroke-linejoin:round; stroke-width:2; stroke-opacity:0.1; fill:none" points="
  249.704,123.472 2352.76,123.472 
  "/>
<polyline clip-path="url(#clip650)" style="stroke:#000000; stroke-linecap:butt; stroke-linejoin:round; stroke-width:4; stroke-opacity:1; fill:none" points="
  249.704,1423.18 249.704,123.472 
  "/>
<polyline clip-path="url(#clip650)" style="stroke:#000000; stroke-linecap:butt; stroke-linejoin:round; stroke-width:4; stroke-opacity:1; fill:none" points="
  249.704,1423.18 268.602,1423.18 
  "/>
<polyline clip-path="url(#clip650)" style="stroke:#000000; stroke-linecap:butt; stroke-linejoin:round; stroke-width:4; stroke-opacity:1; fill:none" points="
  249.704,1163.24 268.602,1163.24 
  "/>
<polyline clip-path="url(#clip650)" style="stroke:#000000; stroke-linecap:butt; stroke-linejoin:round; stroke-width:4; stroke-opacity:1; fill:none" points="
  249.704,903.297 268.602,903.297 
  "/>
<polyline clip-path="url(#clip650)" style="stroke:#000000; stroke-linecap:butt; stroke-linejoin:round; stroke-width:4; stroke-opacity:1; fill:none" points="
  249.704,643.355 268.602,643.355 
  "/>
<polyline clip-path="url(#clip650)" style="stroke:#000000; stroke-linecap:butt; stroke-linejoin:round; stroke-width:4; stroke-opacity:1; fill:none" points="
  249.704,383.414 268.602,383.414 
  "/>
<polyline clip-path="url(#clip650)" style="stroke:#000000; stroke-linecap:butt; stroke-linejoin:round; stroke-width:4; stroke-opacity:1; fill:none" points="
  249.704,123.472 268.602,123.472 
  "/>
<path clip-path="url(#clip650)" d="M126.367 1408.98 Q122.755 1408.98 120.927 1412.54 Q119.121 1416.08 119.121 1423.21 Q119.121 1430.32 120.927 1433.89 Q122.755 1437.43 126.367 1437.43 Q130.001 1437.43 131.806 1433.89 Q133.635 1430.32 133.635 1423.21 Q133.635 1416.08 131.806 1412.54 Q130.001 1408.98 126.367 1408.98 M126.367 1405.27 Q132.177 1405.27 135.232 1409.88 Q138.311 1414.46 138.311 1423.21 Q138.311 1431.94 135.232 1436.55 Q132.177 1441.13 126.367 1441.13 Q120.556 1441.13 117.478 1436.55 Q114.422 1431.94 114.422 1423.21 Q114.422 1414.46 117.478 1409.88 Q120.556 1405.27 126.367 1405.27 Z" fill="#000000" fill-rule="evenodd" fill-opacity="1" /><path clip-path="url(#clip650)" d="M146.529 1434.58 L151.413 1434.58 L151.413 1440.46 L146.529 1440.46 L146.529 1434.58 Z" fill="#000000" fill-rule="evenodd" fill-opacity="1" /><path clip-path="url(#clip650)" d="M171.598 1408.98 Q167.987 1408.98 166.158 1412.54 Q164.352 1416.08 164.352 1423.21 Q164.352 1430.32 166.158 1433.89 Q167.987 1437.43 171.598 1437.43 Q175.232 1437.43 177.038 1433.89 Q178.866 1430.32 178.866 1423.21 Q178.866 1416.08 177.038 1412.54 Q175.232 1408.98 171.598 1408.98 M171.598 1405.27 Q177.408 1405.27 180.464 1409.88 Q183.542 1414.46 183.542 1423.21 Q183.542 1431.94 180.464 1436.55 Q177.408 1441.13 171.598 1441.13 Q165.788 1441.13 162.709 1436.55 Q159.653 1431.94 159.653 1423.21 Q159.653 1414.46 162.709 1409.88 Q165.788 1405.27 171.598 1405.27 Z" fill="#000000" fill-rule="evenodd" fill-opacity="1" /><path clip-path="url(#clip650)" d="M201.76 1408.98 Q198.149 1408.98 196.32 1412.54 Q194.514 1416.08 194.514 1423.21 Q194.514 1430.32 196.32 1433.89 Q198.149 1437.43 201.76 1437.43 Q205.394 1437.43 207.199 1433.89 Q209.028 1430.32 209.028 1423.21 Q209.028 1416.08 207.199 1412.54 Q205.394 1408.98 201.76 1408.98 M201.76 1405.27 Q207.57 1405.27 210.625 1409.88 Q213.704 1414.46 213.704 1423.21 Q213.704 1431.94 210.625 1436.55 Q207.57 1441.13 201.76 1441.13 Q195.95 1441.13 192.871 1436.55 Q189.815 1431.94 189.815 1423.21 Q189.815 1414.46 192.871 1409.88 Q195.95 1405.27 201.76 1405.27 Z" fill="#000000" fill-rule="evenodd" fill-opacity="1" /><path clip-path="url(#clip650)" d="M127.015 1149.04 Q123.404 1149.04 121.575 1152.6 Q119.769 1156.14 119.769 1163.27 Q119.769 1170.38 121.575 1173.94 Q123.404 1177.49 127.015 1177.49 Q130.649 1177.49 132.455 1173.94 Q134.283 1170.38 134.283 1163.27 Q134.283 1156.14 132.455 1152.6 Q130.649 1149.04 127.015 1149.04 M127.015 1145.33 Q132.825 1145.33 135.88 1149.94 Q138.959 1154.52 138.959 1163.27 Q138.959 1172 135.88 1176.61 Q132.825 1181.19 127.015 1181.19 Q121.205 1181.19 118.126 1176.61 Q115.07 1172 115.07 1163.27 Q115.07 1154.52 118.126 1149.94 Q121.205 1145.33 127.015 1145.33 Z" fill="#000000" fill-rule="evenodd" fill-opacity="1" /><path clip-path="url(#clip650)" d="M147.177 1174.64 L152.061 1174.64 L152.061 1180.52 L147.177 1180.52 L147.177 1174.64 Z" fill="#000000" fill-rule="evenodd" fill-opacity="1" /><path clip-path="url(#clip650)" d="M172.246 1149.04 Q168.635 1149.04 166.806 1152.6 Q165.001 1156.14 165.001 1163.27 Q165.001 1170.38 166.806 1173.94 Q168.635 1177.49 172.246 1177.49 Q175.88 1177.49 177.686 1173.94 Q179.514 1170.38 179.514 1163.27 Q179.514 1156.14 177.686 1152.6 Q175.88 1149.04 172.246 1149.04 M172.246 1145.33 Q178.056 1145.33 181.112 1149.94 Q184.19 1154.52 184.19 1163.27 Q184.19 1172 181.112 1176.61 Q178.056 1181.19 172.246 1181.19 Q166.436 1181.19 163.357 1176.61 Q160.302 1172 160.302 1163.27 Q160.302 1154.52 163.357 1149.94 Q166.436 1145.33 172.246 1145.33 Z" fill="#000000" fill-rule="evenodd" fill-opacity="1" /><path clip-path="url(#clip650)" d="M206.574 1161.88 Q209.931 1162.6 211.806 1164.87 Q213.704 1167.14 213.704 1170.47 Q213.704 1175.59 210.186 1178.39 Q206.667 1181.19 200.186 1181.19 Q198.01 1181.19 195.695 1180.75 Q193.403 1180.33 190.95 1179.48 L190.95 1174.96 Q192.894 1176.1 195.209 1176.68 Q197.524 1177.25 200.047 1177.25 Q204.445 1177.25 206.737 1175.52 Q209.051 1173.78 209.051 1170.47 Q209.051 1167.42 206.899 1165.7 Q204.769 1163.97 200.95 1163.97 L196.922 1163.97 L196.922 1160.12 L201.135 1160.12 Q204.584 1160.12 206.412 1158.76 Q208.241 1157.37 208.241 1154.78 Q208.241 1152.12 206.343 1150.7 Q204.468 1149.27 200.95 1149.27 Q199.028 1149.27 196.829 1149.69 Q194.63 1150.1 191.991 1150.98 L191.991 1146.81 Q194.653 1146.07 196.968 1145.7 Q199.306 1145.33 201.366 1145.33 Q206.69 1145.33 209.792 1147.76 Q212.894 1150.17 212.894 1154.29 Q212.894 1157.16 211.25 1159.15 Q209.607 1161.12 206.574 1161.88 Z" fill="#000000" fill-rule="evenodd" fill-opacity="1" /><path clip-path="url(#clip650)" d="M126.205 889.095 Q122.593 889.095 120.765 892.66 Q118.959 896.202 118.959 903.331 Q118.959 910.438 120.765 914.003 Q122.593 917.544 126.205 917.544 Q129.839 917.544 131.644 914.003 Q133.473 910.438 133.473 903.331 Q133.473 896.202 131.644 892.66 Q129.839 889.095 126.205 889.095 M126.205 885.392 Q132.015 885.392 135.07 889.998 Q138.149 894.582 138.149 903.331 Q138.149 912.058 135.07 916.665 Q132.015 921.248 126.205 921.248 Q120.394 921.248 117.316 916.665 Q114.26 912.058 114.26 903.331 Q114.26 894.582 117.316 889.998 Q120.394 885.392 126.205 885.392 Z" fill="#000000" fill-rule="evenodd" fill-opacity="1" /><path clip-path="url(#clip650)" d="M146.366 914.697 L151.251 914.697 L151.251 920.577 L146.366 920.577 L146.366 914.697 Z" fill="#000000" fill-rule="evenodd" fill-opacity="1" /><path clip-path="url(#clip650)" d="M171.436 889.095 Q167.825 889.095 165.996 892.66 Q164.19 896.202 164.19 903.331 Q164.19 910.438 165.996 914.003 Q167.825 917.544 171.436 917.544 Q175.07 917.544 176.876 914.003 Q178.704 910.438 178.704 903.331 Q178.704 896.202 176.876 892.66 Q175.07 889.095 171.436 889.095 M171.436 885.392 Q177.246 885.392 180.301 889.998 Q183.38 894.582 183.38 903.331 Q183.38 912.058 180.301 916.665 Q177.246 921.248 171.436 921.248 Q165.626 921.248 162.547 916.665 Q159.491 912.058 159.491 903.331 Q159.491 894.582 162.547 889.998 Q165.626 885.392 171.436 885.392 Z" fill="#000000" fill-rule="evenodd" fill-opacity="1" /><path clip-path="url(#clip650)" d="M202.176 901.433 Q199.028 901.433 197.176 903.586 Q195.348 905.739 195.348 909.489 Q195.348 913.216 197.176 915.392 Q199.028 917.544 202.176 917.544 Q205.324 917.544 207.153 915.392 Q209.005 913.216 209.005 909.489 Q209.005 905.739 207.153 903.586 Q205.324 901.433 202.176 901.433 M211.459 886.781 L211.459 891.04 Q209.699 890.207 207.894 889.767 Q206.112 889.327 204.352 889.327 Q199.723 889.327 197.269 892.452 Q194.838 895.577 194.491 901.896 Q195.857 899.882 197.917 898.818 Q199.977 897.73 202.454 897.73 Q207.662 897.73 210.672 900.901 Q213.704 904.049 213.704 909.489 Q213.704 914.813 210.556 918.03 Q207.408 921.248 202.176 921.248 Q196.181 921.248 193.01 916.665 Q189.838 912.058 189.838 903.331 Q189.838 895.137 193.727 890.276 Q197.616 885.392 204.167 885.392 Q205.926 885.392 207.709 885.739 Q209.514 886.086 211.459 886.781 Z" fill="#000000" fill-rule="evenodd" fill-opacity="1" /><path clip-path="url(#clip650)" d="M126.552 629.154 Q122.941 629.154 121.112 632.719 Q119.306 636.26 119.306 643.39 Q119.306 650.496 121.112 654.061 Q122.941 657.603 126.552 657.603 Q130.186 657.603 131.992 654.061 Q133.82 650.496 133.82 643.39 Q133.82 636.26 131.992 632.719 Q130.186 629.154 126.552 629.154 M126.552 625.45 Q132.362 625.45 135.417 630.057 Q138.496 634.64 138.496 643.39 Q138.496 652.117 135.417 656.723 Q132.362 661.307 126.552 661.307 Q120.742 661.307 117.663 656.723 Q114.607 652.117 114.607 643.39 Q114.607 634.64 117.663 630.057 Q120.742 625.45 126.552 625.45 Z" fill="#000000" fill-rule="evenodd" fill-opacity="1" /><path clip-path="url(#clip650)" d="M146.714 654.756 L151.598 654.756 L151.598 660.635 L146.714 660.635 L146.714 654.756 Z" fill="#000000" fill-rule="evenodd" fill-opacity="1" /><path clip-path="url(#clip650)" d="M171.783 629.154 Q168.172 629.154 166.343 632.719 Q164.538 636.26 164.538 643.39 Q164.538 650.496 166.343 654.061 Q168.172 657.603 171.783 657.603 Q175.417 657.603 177.223 654.061 Q179.051 650.496 179.051 643.39 Q179.051 636.26 177.223 632.719 Q175.417 629.154 171.783 629.154 M171.783 625.45 Q177.593 625.45 180.649 630.057 Q183.727 634.64 183.727 643.39 Q183.727 652.117 180.649 656.723 Q177.593 661.307 171.783 661.307 Q165.973 661.307 162.894 656.723 Q159.839 652.117 159.839 643.39 Q159.839 634.64 162.894 630.057 Q165.973 625.45 171.783 625.45 Z" fill="#000000" fill-rule="evenodd" fill-opacity="1" /><path clip-path="url(#clip650)" d="M192.084 659.918 L192.084 655.658 Q193.843 656.492 195.649 656.932 Q197.454 657.371 199.19 657.371 Q203.82 657.371 206.25 654.27 Q208.704 651.145 209.051 644.802 Q207.709 646.793 205.649 647.858 Q203.588 648.922 201.088 648.922 Q195.903 648.922 192.871 645.797 Q189.862 642.649 189.862 637.209 Q189.862 631.885 193.01 628.668 Q196.158 625.45 201.389 625.45 Q207.385 625.45 210.533 630.057 Q213.704 634.64 213.704 643.39 Q213.704 651.561 209.815 656.445 Q205.949 661.307 199.399 661.307 Q197.639 661.307 195.834 660.959 Q194.028 660.612 192.084 659.918 M201.389 645.265 Q204.537 645.265 206.366 643.112 Q208.218 640.959 208.218 637.209 Q208.218 633.483 206.366 631.33 Q204.537 629.154 201.389 629.154 Q198.241 629.154 196.389 631.33 Q194.561 633.483 194.561 637.209 Q194.561 640.959 196.389 643.112 Q198.241 645.265 201.389 645.265 Z" fill="#000000" fill-rule="evenodd" fill-opacity="1" /><path clip-path="url(#clip650)" d="M127.964 369.212 Q124.353 369.212 122.524 372.777 Q120.718 376.319 120.718 383.448 Q120.718 390.555 122.524 394.12 Q124.353 397.661 127.964 397.661 Q131.598 397.661 133.404 394.12 Q135.232 390.555 135.232 383.448 Q135.232 376.319 133.404 372.777 Q131.598 369.212 127.964 369.212 M127.964 365.509 Q133.774 365.509 136.829 370.115 Q139.908 374.698 139.908 383.448 Q139.908 392.175 136.829 396.782 Q133.774 401.365 127.964 401.365 Q122.154 401.365 119.075 396.782 Q116.019 392.175 116.019 383.448 Q116.019 374.698 119.075 370.115 Q122.154 365.509 127.964 365.509 Z" fill="#000000" fill-rule="evenodd" fill-opacity="1" /><path clip-path="url(#clip650)" d="M148.126 394.814 L153.01 394.814 L153.01 400.694 L148.126 400.694 L148.126 394.814 Z" fill="#000000" fill-rule="evenodd" fill-opacity="1" /><path clip-path="url(#clip650)" d="M164.005 396.759 L171.644 396.759 L171.644 370.393 L163.334 372.06 L163.334 367.8 L171.598 366.134 L176.274 366.134 L176.274 396.759 L183.913 396.759 L183.913 400.694 L164.005 400.694 L164.005 396.759 Z" fill="#000000" fill-rule="evenodd" fill-opacity="1" /><path clip-path="url(#clip650)" d="M197.385 396.759 L213.704 396.759 L213.704 400.694 L191.76 400.694 L191.76 396.759 Q194.422 394.004 199.005 389.374 Q203.612 384.722 204.792 383.379 Q207.037 380.856 207.917 379.12 Q208.82 377.36 208.82 375.671 Q208.82 372.916 206.875 371.18 Q204.954 369.444 201.852 369.444 Q199.653 369.444 197.2 370.208 Q194.769 370.972 191.991 372.523 L191.991 367.8 Q194.815 366.666 197.269 366.087 Q199.723 365.509 201.76 365.509 Q207.13 365.509 210.324 368.194 Q213.519 370.879 213.519 375.37 Q213.519 377.499 212.709 379.421 Q211.922 381.319 209.815 383.911 Q209.237 384.583 206.135 387.8 Q203.033 390.995 197.385 396.759 Z" fill="#000000" fill-rule="evenodd" fill-opacity="1" /><path clip-path="url(#clip650)" d="M127.362 109.271 Q123.751 109.271 121.922 112.836 Q120.117 116.377 120.117 123.507 Q120.117 130.613 121.922 134.178 Q123.751 137.72 127.362 137.72 Q130.996 137.72 132.802 134.178 Q134.63 130.613 134.63 123.507 Q134.63 116.377 132.802 112.836 Q130.996 109.271 127.362 109.271 M127.362 105.567 Q133.172 105.567 136.228 110.174 Q139.306 114.757 139.306 123.507 Q139.306 132.234 136.228 136.84 Q133.172 141.423 127.362 141.423 Q121.552 141.423 118.473 136.84 Q115.418 132.234 115.418 123.507 Q115.418 114.757 118.473 110.174 Q121.552 105.567 127.362 105.567 Z" fill="#000000" fill-rule="evenodd" fill-opacity="1" /><path clip-path="url(#clip650)" d="M147.524 134.873 L152.408 134.873 L152.408 140.752 L147.524 140.752 L147.524 134.873 Z" fill="#000000" fill-rule="evenodd" fill-opacity="1" /><path clip-path="url(#clip650)" d="M163.403 136.817 L171.042 136.817 L171.042 110.451 L162.732 112.118 L162.732 107.859 L170.996 106.192 L175.672 106.192 L175.672 136.817 L183.311 136.817 L183.311 140.752 L163.403 140.752 L163.403 136.817 Z" fill="#000000" fill-rule="evenodd" fill-opacity="1" /><path clip-path="url(#clip650)" d="M192.801 106.192 L211.158 106.192 L211.158 110.127 L197.084 110.127 L197.084 118.599 Q198.102 118.252 199.121 118.09 Q200.139 117.905 201.158 117.905 Q206.945 117.905 210.324 121.076 Q213.704 124.248 213.704 129.664 Q213.704 135.243 210.232 138.345 Q206.76 141.423 200.44 141.423 Q198.264 141.423 195.996 141.053 Q193.75 140.683 191.343 139.942 L191.343 135.243 Q193.426 136.377 195.649 136.933 Q197.871 137.488 200.348 137.488 Q204.352 137.488 206.69 135.382 Q209.028 133.275 209.028 129.664 Q209.028 126.053 206.69 123.947 Q204.352 121.84 200.348 121.84 Q198.473 121.84 196.598 122.257 Q194.746 122.674 192.801 123.553 L192.801 106.192 Z" fill="#000000" fill-rule="evenodd" fill-opacity="1" /><path clip-path="url(#clip650)" d="M41.3104 1089.3 L58.7206 1089.3 L58.7206 1078.99 Q58.7206 1073.8 56.5881 1071.32 Q54.4238 1068.81 49.9996 1068.81 Q45.5436 1068.81 43.4429 1071.32 Q41.3104 1073.8 41.3104 1078.99 L41.3104 1089.3 M21.7677 1089.3 L36.0905 1089.3 L36.0905 1079.79 Q36.0905 1075.08 34.34 1072.78 Q32.5576 1070.46 28.9291 1070.46 Q25.3325 1070.46 23.5501 1072.78 Q21.7677 1075.08 21.7677 1079.79 L21.7677 1089.3 M16.4842 1095.73 L16.4842 1079.31 Q16.4842 1071.96 19.5397 1067.98 Q22.5952 1064 28.2289 1064 Q32.5894 1064 35.1675 1066.04 Q37.7456 1068.07 38.3822 1072.02 Q39.4007 1067.28 42.6472 1064.67 Q45.8619 1062.03 50.6998 1062.03 Q57.0655 1062.03 60.5348 1066.36 Q64.0042 1070.68 64.0042 1078.67 L64.0042 1095.73 L16.4842 1095.73 Z" fill="#000000" fill-rule="evenodd" fill-opacity="1" /><path clip-path="url(#clip650)" d="M32.4621 1037.46 Q32.4621 1042.17 36.1542 1044.9 Q39.8145 1047.64 46.212 1047.64 Q52.6095 1047.64 56.3017 1044.93 Q59.9619 1042.2 59.9619 1037.46 Q59.9619 1032.78 56.2698 1030.04 Q52.5777 1027.3 46.212 1027.3 Q39.8781 1027.3 36.186 1030.04 Q32.4621 1032.78 32.4621 1037.46 M27.4968 1037.46 Q27.4968 1029.82 32.4621 1025.46 Q37.4273 1021.1 46.212 1021.1 Q54.9649 1021.1 59.9619 1025.46 Q64.9272 1029.82 64.9272 1037.46 Q64.9272 1045.13 59.9619 1049.49 Q54.9649 1053.81 46.212 1053.81 Q37.4273 1053.81 32.4621 1049.49 Q27.4968 1045.13 27.4968 1037.46 Z" fill="#000000" fill-rule="evenodd" fill-opacity="1" /><path clip-path="url(#clip650)" d="M18.2347 1005.59 L28.3562 1005.59 L28.3562 993.532 L32.9077 993.532 L32.9077 1005.59 L52.2594 1005.59 Q56.6199 1005.59 57.8613 1004.42 Q59.1026 1003.21 59.1026 999.547 L59.1026 993.532 L64.0042 993.532 L64.0042 999.547 Q64.0042 1006.33 61.4897 1008.9 Q58.9434 1011.48 52.2594 1011.48 L32.9077 1011.48 L32.9077 1015.78 L28.3562 1015.78 L28.3562 1011.48 L18.2347 1011.48 L18.2347 1005.59 Z" fill="#000000" fill-rule="evenodd" fill-opacity="1" /><path clip-path="url(#clip650)" d="M18.2347 980.036 L28.3562 980.036 L28.3562 967.973 L32.9077 967.973 L32.9077 980.036 L52.2594 980.036 Q56.6199 980.036 57.8613 978.859 Q59.1026 977.649 59.1026 973.989 L59.1026 967.973 L64.0042 967.973 L64.0042 973.989 Q64.0042 980.768 61.4897 983.347 Q58.9434 985.925 52.2594 985.925 L32.9077 985.925 L32.9077 990.222 L28.3562 990.222 L28.3562 985.925 L18.2347 985.925 L18.2347 980.036 Z" fill="#000000" fill-rule="evenodd" fill-opacity="1" /><path clip-path="url(#clip650)" d="M14.479 960.271 L14.479 954.414 L64.0042 954.414 L64.0042 960.271 L14.479 960.271 Z" fill="#000000" fill-rule="evenodd" fill-opacity="1" /><path clip-path="url(#clip650)" d="M44.7161 911.669 L47.5806 911.669 L47.5806 938.596 Q53.6281 938.214 56.8109 934.967 Q59.9619 931.689 59.9619 925.864 Q59.9619 922.49 59.1344 919.339 Q58.3069 916.157 56.6518 913.037 L62.1899 913.037 Q63.5267 916.188 64.227 919.499 Q64.9272 922.809 64.9272 926.214 Q64.9272 934.744 59.9619 939.741 Q54.9967 944.707 46.5303 944.707 Q37.7774 944.707 32.6531 939.996 Q27.4968 935.254 27.4968 927.233 Q27.4968 920.04 32.1438 915.87 Q36.7589 911.669 44.7161 911.669 M42.9973 917.525 Q38.1912 917.589 35.3266 920.231 Q32.4621 922.841 32.4621 927.169 Q32.4621 932.071 35.2312 935.031 Q38.0002 937.959 43.0292 938.405 L42.9973 917.525 Z" fill="#000000" fill-rule="evenodd" fill-opacity="1" /><path clip-path="url(#clip650)" d="M42.4881 872.424 L64.0042 872.424 L64.0042 878.281 L42.679 878.281 Q37.6183 878.281 35.1038 880.254 Q32.5894 882.227 32.5894 886.174 Q32.5894 890.916 35.6131 893.654 Q38.6368 896.391 43.8567 896.391 L64.0042 896.391 L64.0042 902.279 L28.3562 902.279 L28.3562 896.391 L33.8944 896.391 Q30.6797 894.29 29.0883 891.458 Q27.4968 888.593 27.4968 884.869 Q27.4968 878.726 31.3163 875.575 Q35.1038 872.424 42.4881 872.424 Z" fill="#000000" fill-rule="evenodd" fill-opacity="1" /><path clip-path="url(#clip650)" d="M44.7161 830.251 L47.5806 830.251 L47.5806 857.178 Q53.6281 856.796 56.8109 853.55 Q59.9619 850.271 59.9619 844.447 Q59.9619 841.073 59.1344 837.922 Q58.3069 834.739 56.6518 831.62 L62.1899 831.62 Q63.5267 834.771 64.227 838.081 Q64.9272 841.391 64.9272 844.797 Q64.9272 853.327 59.9619 858.324 Q54.9967 863.289 46.5303 863.289 Q37.7774 863.289 32.6531 858.579 Q27.4968 853.836 27.4968 845.815 Q27.4968 838.622 32.1438 834.453 Q36.7589 830.251 44.7161 830.251 M42.9973 836.108 Q38.1912 836.171 35.3266 838.813 Q32.4621 841.423 32.4621 845.752 Q32.4621 850.653 35.2312 853.613 Q38.0002 856.542 43.0292 856.987 L42.9973 836.108 Z" fill="#000000" fill-rule="evenodd" fill-opacity="1" /><path clip-path="url(#clip650)" d="M29.7248 794.985 L35.1993 794.985 Q33.8307 797.468 33.1623 799.982 Q32.4621 802.465 32.4621 805.011 Q32.4621 810.709 36.0905 813.86 Q39.6872 817.011 46.212 817.011 Q52.7369 817.011 56.3653 813.86 Q59.9619 810.709 59.9619 805.011 Q59.9619 802.465 59.2935 799.982 Q58.5933 797.468 57.2247 794.985 L62.6355 794.985 Q63.7814 797.436 64.3543 800.078 Q64.9272 802.688 64.9272 805.648 Q64.9272 813.7 59.8664 818.443 Q54.8057 823.185 46.212 823.185 Q37.491 823.185 32.4939 818.411 Q27.4968 813.605 27.4968 805.266 Q27.4968 802.56 28.0697 799.982 Q28.6108 797.404 29.7248 794.985 Z" fill="#000000" fill-rule="evenodd" fill-opacity="1" /><path clip-path="url(#clip650)" d="M14.479 785.023 L14.479 779.135 L43.7294 779.135 L28.3562 761.661 L28.3562 754.181 L45.0344 773.087 L64.0042 753.385 L64.0042 761.024 L46.5939 779.135 L64.0042 779.135 L64.0042 785.023 L14.479 785.023 Z" fill="#000000" fill-rule="evenodd" fill-opacity="1" /><path clip-path="url(#clip650)" d="M21.7677 719.647 L58.7206 719.647 L58.7206 711.881 Q58.7206 702.046 54.2646 697.495 Q49.8086 692.911 40.1964 692.911 Q30.6479 692.911 26.2237 697.495 Q21.7677 702.046 21.7677 711.881 L21.7677 719.647 M16.4842 726.077 L16.4842 712.868 Q16.4842 699.054 22.2451 692.593 Q27.9743 686.132 40.1964 686.132 Q52.4822 686.132 58.2432 692.625 Q64.0042 699.118 64.0042 712.868 L64.0042 726.077 L16.4842 726.077 Z" fill="#000000" fill-rule="evenodd" fill-opacity="1" /><path clip-path="url(#clip650)" d="M28.3562 676.138 L28.3562 670.281 L64.0042 670.281 L64.0042 676.138 L28.3562 676.138 M14.479 676.138 L14.479 670.281 L21.895 670.281 L21.895 676.138 L14.479 676.138 Z" fill="#000000" fill-rule="evenodd" fill-opacity="1" /><path clip-path="url(#clip650)" d="M29.4065 635.302 L34.9447 635.302 Q33.6716 637.784 33.035 640.458 Q32.3984 643.131 32.3984 645.996 Q32.3984 650.356 33.7352 652.553 Q35.072 654.717 37.7456 654.717 Q39.7826 654.717 40.9603 653.157 Q42.1061 651.598 43.1565 646.887 L43.6021 644.882 Q44.9389 638.644 47.3897 636.034 Q49.8086 633.392 54.1691 633.392 Q59.1344 633.392 62.0308 637.339 Q64.9272 641.253 64.9272 648.128 Q64.9272 650.993 64.3543 654.112 Q63.8132 657.2 62.6992 660.637 L56.6518 660.637 Q58.3387 657.391 59.198 654.24 Q60.0256 651.089 60.0256 648.001 Q60.0256 643.863 58.6251 641.635 Q57.1929 639.407 54.6147 639.407 Q52.2276 639.407 50.9545 641.031 Q49.6813 642.622 48.5037 648.065 L48.0262 650.102 Q46.8804 655.544 44.5251 657.963 Q42.138 660.382 38.0002 660.382 Q32.9713 660.382 30.2341 656.818 Q27.4968 653.253 27.4968 646.696 Q27.4968 643.45 27.9743 640.585 Q28.4517 637.721 29.4065 635.302 Z" fill="#000000" fill-rule="evenodd" fill-opacity="1" /><path clip-path="url(#clip650)" d="M18.2347 618.273 L28.3562 618.273 L28.3562 606.21 L32.9077 606.21 L32.9077 618.273 L52.2594 618.273 Q56.6199 618.273 57.8613 617.096 Q59.1026 615.886 59.1026 612.226 L59.1026 606.21 L64.0042 606.21 L64.0042 612.226 Q64.0042 619.005 61.4897 621.583 Q58.9434 624.162 52.2594 624.162 L32.9077 624.162 L32.9077 628.458 L28.3562 628.458 L28.3562 624.162 L18.2347 624.162 L18.2347 618.273 Z" fill="#000000" fill-rule="evenodd" fill-opacity="1" /><path clip-path="url(#clip650)" d="M46.0847 582.307 Q46.0847 589.405 47.7079 592.142 Q49.3312 594.879 53.2461 594.879 Q56.3653 594.879 58.2114 592.842 Q60.0256 590.773 60.0256 587.24 Q60.0256 582.371 56.5881 579.442 Q53.1188 576.482 47.3897 576.482 L46.0847 576.482 L46.0847 582.307 M43.6657 570.626 L64.0042 570.626 L64.0042 576.482 L58.5933 576.482 Q61.8398 578.488 63.3994 581.48 Q64.9272 584.471 64.9272 588.8 Q64.9272 594.275 61.8716 597.521 Q58.7843 600.736 53.6281 600.736 Q47.6125 600.736 44.5569 596.725 Q41.5014 592.683 41.5014 584.694 L41.5014 576.482 L40.9285 576.482 Q36.8862 576.482 34.6901 579.156 Q32.4621 581.798 32.4621 586.604 Q32.4621 589.659 33.1941 592.556 Q33.9262 595.452 35.3903 598.126 L29.9795 598.126 Q28.7381 594.911 28.1334 591.887 Q27.4968 588.864 27.4968 585.999 Q27.4968 578.265 31.5072 574.445 Q35.5176 570.626 43.6657 570.626 Z" fill="#000000" fill-rule="evenodd" fill-opacity="1" /><path clip-path="url(#clip650)" d="M42.4881 528.931 L64.0042 528.931 L64.0042 534.787 L42.679 534.787 Q37.6183 534.787 35.1038 536.76 Q32.5894 538.734 32.5894 542.681 Q32.5894 547.423 35.6131 550.16 Q38.6368 552.897 43.8567 552.897 L64.0042 552.897 L64.0042 558.786 L28.3562 558.786 L28.3562 552.897 L33.8944 552.897 Q30.6797 550.797 29.0883 547.964 Q27.4968 545.099 27.4968 541.376 Q27.4968 535.233 31.3163 532.082 Q35.1038 528.931 42.4881 528.931 Z" fill="#000000" fill-rule="evenodd" fill-opacity="1" /><path clip-path="url(#clip650)" d="M29.7248 491.596 L35.1993 491.596 Q33.8307 494.078 33.1623 496.593 Q32.4621 499.075 32.4621 501.622 Q32.4621 507.319 36.0905 510.47 Q39.6872 513.621 46.212 513.621 Q52.7369 513.621 56.3653 510.47 Q59.9619 507.319 59.9619 501.622 Q59.9619 499.075 59.2935 496.593 Q58.5933 494.078 57.2247 491.596 L62.6355 491.596 Q63.7814 494.047 64.3543 496.688 Q64.9272 499.298 64.9272 502.258 Q64.9272 510.311 59.8664 515.053 Q54.8057 519.796 46.212 519.796 Q37.491 519.796 32.4939 515.022 Q27.4968 510.215 27.4968 501.876 Q27.4968 499.171 28.0697 496.593 Q28.6108 494.015 29.7248 491.596 Z" fill="#000000" fill-rule="evenodd" fill-opacity="1" /><path clip-path="url(#clip650)" d="M44.7161 450.919 L47.5806 450.919 L47.5806 477.846 Q53.6281 477.464 56.8109 474.217 Q59.9619 470.939 59.9619 465.114 Q59.9619 461.741 59.1344 458.59 Q58.3069 455.407 56.6518 452.287 L62.1899 452.287 Q63.5267 455.439 64.227 458.749 Q64.9272 462.059 64.9272 465.464 Q64.9272 473.995 59.9619 478.992 Q54.9967 483.957 46.5303 483.957 Q37.7774 483.957 32.6531 479.246 Q27.4968 474.504 27.4968 466.483 Q27.4968 459.29 32.1438 455.12 Q36.7589 450.919 44.7161 450.919 M42.9973 456.775 Q38.1912 456.839 35.3266 459.481 Q32.4621 462.091 32.4621 466.419 Q32.4621 471.321 35.2312 474.281 Q38.0002 477.209 43.0292 477.655 L42.9973 456.775 Z" fill="#000000" fill-rule="evenodd" fill-opacity="1" /><path clip-path="url(#clip650)" d="M941.003 34.4165 Q939.504 33.8899 938.006 33.4848 Q933.995 32.4315 929.701 32.4315 Q922.288 32.4315 918.156 36.4419 Q914.308 40.1688 913.579 47.0148 L941.003 47.0148 L941.003 52.8481 L913.579 52.8481 Q914.308 59.6941 918.156 63.421 Q922.288 67.4314 929.701 67.4314 Q934.886 67.4314 938.006 66.3781 L941.003 65.3654 L941.003 72.1304 L937.803 72.8596 Q933.59 73.7508 929.256 73.7508 Q918.399 73.7508 912.08 67.4314 Q905.72 61.1119 905.72 49.9314 Q905.72 38.7509 912.08 32.4315 Q918.399 26.1121 929.256 26.1121 Q933.347 26.1121 937.803 27.0033 Q939.423 27.3274 941.003 27.8135 L941.003 34.4165 Z" fill="#000000" fill-rule="evenodd" fill-opacity="1" /><path clip-path="url(#clip650)" d="M993.584 65.7705 L993.584 89.8329 L986.09 89.8329 L986.09 27.2059 L993.584 27.2059 L993.584 34.0924 Q995.934 30.0415 999.498 28.0971 Q1003.1 26.1121 1008.09 26.1121 Q1016.35 26.1121 1021.49 32.6746 Q1026.68 39.2371 1026.68 49.9314 Q1026.68 60.6258 1021.49 67.1883 Q1016.35 73.7508 1008.09 73.7508 Q1003.1 73.7508 999.498 71.8063 Q995.934 69.8214 993.584 65.7705 M1018.94 49.9314 Q1018.94 41.7081 1015.54 37.0496 Q1012.18 32.3505 1006.26 32.3505 Q1000.35 32.3505 996.946 37.0496 Q993.584 41.7081 993.584 49.9314 Q993.584 58.1548 996.946 62.8538 Q1000.35 67.5124 1006.26 67.5124 Q1012.18 67.5124 1015.54 62.8538 Q1018.94 58.1548 1018.94 49.9314 Z" fill="#000000" fill-rule="evenodd" fill-opacity="1" /><path clip-path="url(#clip650)" d="M1038.27 54.671 L1038.27 27.2059 L1045.72 27.2059 L1045.72 54.3874 Q1045.72 60.8284 1048.23 64.0691 Q1050.74 67.2693 1055.77 67.2693 Q1061.8 67.2693 1065.29 63.421 Q1068.81 59.5726 1068.81 52.9291 L1068.81 27.2059 L1076.26 27.2059 L1076.26 72.576 L1068.81 72.576 L1068.81 65.6084 Q1066.1 69.7404 1062.49 71.7658 Q1058.93 73.7508 1054.19 73.7508 Q1046.37 73.7508 1042.32 68.8897 Q1038.27 64.0286 1038.27 54.671 M1057.02 26.1121 L1057.02 26.1121 Z" fill="#000000" fill-rule="evenodd" fill-opacity="1" /><path clip-path="url(#clip650)" d="M1124.19 49.9314 Q1124.19 41.7081 1120.78 37.0496 Q1117.42 32.3505 1111.51 32.3505 Q1105.59 32.3505 1102.19 37.0496 Q1098.83 41.7081 1098.83 49.9314 Q1098.83 58.1548 1102.19 62.8538 Q1105.59 67.5124 1111.51 67.5124 Q1117.42 67.5124 1120.78 62.8538 Q1124.19 58.1548 1124.19 49.9314 M1098.83 34.0924 Q1101.18 30.0415 1104.74 28.0971 Q1108.35 26.1121 1113.33 26.1121 Q1121.59 26.1121 1126.74 32.6746 Q1131.92 39.2371 1131.92 49.9314 Q1131.92 60.6258 1126.74 67.1883 Q1121.59 73.7508 1113.33 73.7508 Q1108.35 73.7508 1104.74 71.8063 Q1101.18 69.8214 1098.83 65.7705 L1098.83 72.576 L1091.33 72.576 L1091.33 9.54393 L1098.83 9.54393 L1098.83 34.0924 Z" fill="#000000" fill-rule="evenodd" fill-opacity="1" /><path clip-path="url(#clip650)" d="M1144.28 9.54393 L1151.73 9.54393 L1151.73 72.576 L1144.28 72.576 L1144.28 9.54393 Z" fill="#000000" fill-rule="evenodd" fill-opacity="1" /><path clip-path="url(#clip650)" d="M1167.33 27.2059 L1174.78 27.2059 L1174.78 72.576 L1167.33 72.576 L1167.33 27.2059 M1167.33 9.54393 L1174.78 9.54393 L1174.78 18.9825 L1167.33 18.9825 L1167.33 9.54393 Z" fill="#000000" fill-rule="evenodd" fill-opacity="1" /><path clip-path="url(#clip650)" d="M1223.03 28.9478 L1223.03 35.9153 Q1219.87 34.1734 1216.67 33.3227 Q1213.51 32.4315 1210.27 32.4315 Q1203.02 32.4315 1199.01 37.0496 Q1195 41.6271 1195 49.9314 Q1195 58.2358 1199.01 62.8538 Q1203.02 67.4314 1210.27 67.4314 Q1213.51 67.4314 1216.67 66.5807 Q1219.87 65.6895 1223.03 63.9476 L1223.03 70.8341 Q1219.91 72.2924 1216.55 73.0216 Q1213.22 73.7508 1209.46 73.7508 Q1199.21 73.7508 1193.17 67.3098 Q1187.14 60.8689 1187.14 49.9314 Q1187.14 38.832 1193.21 32.472 Q1199.33 26.1121 1209.94 26.1121 Q1213.39 26.1121 1216.67 26.8413 Q1219.95 27.5299 1223.03 28.9478 Z" fill="#000000" fill-rule="evenodd" fill-opacity="1" /><path clip-path="url(#clip650)" d="M1235.99 9.54393 L1243.44 9.54393 L1243.44 72.576 L1235.99 72.576 L1235.99 9.54393 Z" fill="#000000" fill-rule="evenodd" fill-opacity="1" /><path clip-path="url(#clip650)" d="M1277.92 76.7889 Q1274.76 84.8907 1271.76 87.3618 Q1268.76 89.8329 1263.74 89.8329 L1257.78 89.8329 L1257.78 83.5945 L1262.16 83.5945 Q1265.24 83.5945 1266.94 82.1361 Q1268.64 80.6778 1270.71 75.2496 L1272.04 71.8468 L1253.69 27.2059 L1261.59 27.2059 L1275.77 62.6918 L1289.95 27.2059 L1297.85 27.2059 L1277.92 76.7889 Z" fill="#000000" fill-rule="evenodd" fill-opacity="1" /><path clip-path="url(#clip650)" d="M1355.13 49.7694 Q1346.09 49.7694 1342.61 51.8354 Q1339.13 53.9013 1339.13 58.8839 Q1339.13 62.8538 1341.72 65.2034 Q1344.35 67.5124 1348.85 67.5124 Q1355.05 67.5124 1358.77 63.1374 Q1362.54 58.7219 1362.54 51.4303 L1362.54 49.7694 L1355.13 49.7694 M1369.99 46.6907 L1369.99 72.576 L1362.54 72.576 L1362.54 65.6895 Q1359.99 69.8214 1356.18 71.8063 Q1352.37 73.7508 1346.86 73.7508 Q1339.9 73.7508 1335.76 69.8619 Q1331.67 65.9325 1331.67 59.3701 Q1331.67 51.7138 1336.78 47.825 Q1341.92 43.9361 1352.09 43.9361 L1362.54 43.9361 L1362.54 43.2069 Q1362.54 38.0623 1359.14 35.2672 Q1355.78 32.4315 1349.66 32.4315 Q1345.77 32.4315 1342.08 33.3632 Q1338.4 34.295 1334.99 36.1584 L1334.99 29.2718 Q1339.09 27.692 1342.93 26.9223 Q1346.78 26.1121 1350.43 26.1121 Q1360.27 26.1121 1365.13 31.2163 Q1369.99 36.3204 1369.99 46.6907 Z" fill="#000000" fill-rule="evenodd" fill-opacity="1" /><path clip-path="url(#clip650)" d="M1380 27.2059 L1387.9 27.2059 L1402.08 65.2844 L1416.26 27.2059 L1424.15 27.2059 L1407.14 72.576 L1397.01 72.576 L1380 27.2059 Z" fill="#000000" fill-rule="evenodd" fill-opacity="1" /><path clip-path="url(#clip650)" d="M1455.06 49.7694 Q1446.03 49.7694 1442.55 51.8354 Q1439.06 53.9013 1439.06 58.8839 Q1439.06 62.8538 1441.65 65.2034 Q1444.29 67.5124 1448.78 67.5124 Q1454.98 67.5124 1458.71 63.1374 Q1462.48 58.7219 1462.48 51.4303 L1462.48 49.7694 L1455.06 49.7694 M1469.93 46.6907 L1469.93 72.576 L1462.48 72.576 L1462.48 65.6895 Q1459.92 69.8214 1456.12 71.8063 Q1452.31 73.7508 1446.8 73.7508 Q1439.83 73.7508 1435.7 69.8619 Q1431.61 65.9325 1431.61 59.3701 Q1431.61 51.7138 1436.71 47.825 Q1441.86 43.9361 1452.02 43.9361 L1462.48 43.9361 L1462.48 43.2069 Q1462.48 38.0623 1459.07 35.2672 Q1455.71 32.4315 1449.59 32.4315 Q1445.71 32.4315 1442.02 33.3632 Q1438.33 34.295 1434.93 36.1584 L1434.93 29.2718 Q1439.02 27.692 1442.87 26.9223 Q1446.72 26.1121 1450.36 26.1121 Q1460.21 26.1121 1465.07 31.2163 Q1469.93 36.3204 1469.93 46.6907 Z" fill="#000000" fill-rule="evenodd" fill-opacity="1" /><path clip-path="url(#clip650)" d="M1485.28 27.2059 L1492.74 27.2059 L1492.74 72.576 L1485.28 72.576 L1485.28 27.2059 M1485.28 9.54393 L1492.74 9.54393 L1492.74 18.9825 L1485.28 18.9825 L1485.28 9.54393 Z" fill="#000000" fill-rule="evenodd" fill-opacity="1" /><path clip-path="url(#clip650)" d="M1508.33 9.54393 L1515.79 9.54393 L1515.79 72.576 L1508.33 72.576 L1508.33 9.54393 Z" fill="#000000" fill-rule="evenodd" fill-opacity="1" /><path clip-path="url(#clip650)" d="M1552 49.7694 Q1542.97 49.7694 1539.48 51.8354 Q1536 53.9013 1536 58.8839 Q1536 62.8538 1538.59 65.2034 Q1541.23 67.5124 1545.72 67.5124 Q1551.92 67.5124 1555.65 63.1374 Q1559.41 58.7219 1559.41 51.4303 L1559.41 49.7694 L1552 49.7694 M1566.87 46.6907 L1566.87 72.576 L1559.41 72.576 L1559.41 65.6895 Q1556.86 69.8214 1553.05 71.8063 Q1549.25 73.7508 1543.74 73.7508 Q1536.77 73.7508 1532.64 69.8619 Q1528.55 65.9325 1528.55 59.3701 Q1528.55 51.7138 1533.65 47.825 Q1538.8 43.9361 1548.96 43.9361 L1559.41 43.9361 L1559.41 43.2069 Q1559.41 38.0623 1556.01 35.2672 Q1552.65 32.4315 1546.53 32.4315 Q1542.64 32.4315 1538.96 33.3632 Q1535.27 34.295 1531.87 36.1584 L1531.87 29.2718 Q1535.96 27.692 1539.81 26.9223 Q1543.66 26.1121 1547.3 26.1121 Q1557.15 26.1121 1562.01 31.2163 Q1566.87 36.3204 1566.87 46.6907 Z" fill="#000000" fill-rule="evenodd" fill-opacity="1" /><path clip-path="url(#clip650)" d="M1614.79 49.9314 Q1614.79 41.7081 1611.39 37.0496 Q1608.03 32.3505 1602.11 32.3505 Q1596.2 32.3505 1592.79 37.0496 Q1589.43 41.7081 1589.43 49.9314 Q1589.43 58.1548 1592.79 62.8538 Q1596.2 67.5124 1602.11 67.5124 Q1608.03 67.5124 1611.39 62.8538 Q1614.79 58.1548 1614.79 49.9314 M1589.43 34.0924 Q1591.78 30.0415 1595.35 28.0971 Q1598.95 26.1121 1603.93 26.1121 Q1612.2 26.1121 1617.34 32.6746 Q1622.53 39.2371 1622.53 49.9314 Q1622.53 60.6258 1617.34 67.1883 Q1612.2 73.7508 1603.93 73.7508 Q1598.95 73.7508 1595.35 71.8063 Q1591.78 69.8214 1589.43 65.7705 L1589.43 72.576 L1581.94 72.576 L1581.94 9.54393 L1589.43 9.54393 L1589.43 34.0924 Z" fill="#000000" fill-rule="evenodd" fill-opacity="1" /><path clip-path="url(#clip650)" d="M1634.88 9.54393 L1642.34 9.54393 L1642.34 72.576 L1634.88 72.576 L1634.88 9.54393 Z" fill="#000000" fill-rule="evenodd" fill-opacity="1" /><path clip-path="url(#clip650)" d="M1696.74 48.0275 L1696.74 51.6733 L1662.47 51.6733 Q1662.96 59.3701 1667.09 63.421 Q1671.26 67.4314 1678.67 67.4314 Q1682.97 67.4314 1686.98 66.3781 Q1691.03 65.3249 1695 63.2184 L1695 70.267 Q1690.99 71.9684 1686.77 72.8596 Q1682.56 73.7508 1678.23 73.7508 Q1667.37 73.7508 1661.01 67.4314 Q1654.69 61.1119 1654.69 50.3365 Q1654.69 39.1965 1660.69 32.6746 Q1666.72 26.1121 1676.93 26.1121 Q1686.09 26.1121 1691.39 32.0264 Q1696.74 37.9003 1696.74 48.0275 M1689.29 45.84 Q1689.21 39.7232 1685.84 36.0774 Q1682.52 32.4315 1677.01 32.4315 Q1670.77 32.4315 1667.01 35.9558 Q1663.28 39.4801 1662.71 45.8805 L1689.29 45.84 Z" fill="#000000" fill-rule="evenodd" fill-opacity="1" /><polyline clip-path="url(#clip652)" style="stroke:#009af9; stroke-linecap:butt; stroke-linejoin:round; stroke-width:12; stroke-opacity:1; fill:none" points="
  309.224,-4479.42 377.639,-5895.41 446.053,-4514.61 514.467,-4827.6 582.881,-3122.28 924.952,-1605.14 1609.09,-926.709 2293.24,-514.549 
  "/>
<polyline clip-path="url(#clip652)" style="stroke:#e26f46; stroke-linecap:butt; stroke-linejoin:round; stroke-width:12; stroke-opacity:1; fill:none" points="
  309.224,-2482.67 377.639,-1684.81 446.053,-903.138 514.467,-863.094 582.881,-317.518 924.952,-398.229 1609.09,139.596 2293.24,466.591 
  "/>
<polyline clip-path="url(#clip652)" style="stroke:#3da44d; stroke-linecap:butt; stroke-linejoin:round; stroke-width:12; stroke-opacity:1; fill:none" points="
  309.224,-832.412 377.639,287.271 446.053,545.515 514.467,579.016 582.881,592.366 924.952,503.136 1609.09,988.746 2293.24,1137.72 
  "/>
<polyline clip-path="url(#clip652)" style="stroke:#c271d2; stroke-linecap:butt; stroke-linejoin:round; stroke-width:12; stroke-opacity:1; fill:none" points="
  309.224,757.422 377.639,524.644 446.053,1087.31 514.467,1137.17 582.881,903.25 924.952,1111.72 1609.09,1312.72 2293.24,1353.73 
  "/>
<path clip-path="url(#clip650)" d="
M1883.7 425.996 L2282.65 425.996 L2282.65 166.796 L1883.7 166.796  Z
  " fill="#ffffff" fill-rule="evenodd" fill-opacity="1"/>
<polyline clip-path="url(#clip650)" style="stroke:#000000; stroke-linecap:butt; stroke-linejoin:round; stroke-width:4; stroke-opacity:1; fill:none" points="
  1883.7,425.996 2282.65,425.996 2282.65,166.796 1883.7,166.796 1883.7,425.996 
  "/>
<polyline clip-path="url(#clip650)" style="stroke:#009af9; stroke-linecap:butt; stroke-linejoin:round; stroke-width:4; stroke-opacity:1; fill:none" points="
  1907.07,218.636 2047.28,218.636 
  "/>
<path clip-path="url(#clip650)" d="M2070.64 199.897 L2074.93 199.897 L2074.93 221.17 L2087.63 209.99 L2093.07 209.99 L2079.32 222.119 L2093.65 235.916 L2088.1 235.916 L2074.93 223.254 L2074.93 235.916 L2070.64 235.916 L2070.64 199.897 Z" fill="#000000" fill-rule="evenodd" fill-opacity="1" /><path clip-path="url(#clip650)" d="M2098.81 214.388 L2128.49 214.388 L2128.49 218.277 L2098.81 218.277 L2098.81 214.388 M2098.81 223.832 L2128.49 223.832 L2128.49 227.768 L2098.81 227.768 L2098.81 223.832 Z" fill="#000000" fill-rule="evenodd" fill-opacity="1" /><path clip-path="url(#clip650)" d="M2148.58 204.434 Q2144.97 204.434 2143.14 207.999 Q2141.34 211.541 2141.34 218.67 Q2141.34 225.777 2143.14 229.342 Q2144.97 232.883 2148.58 232.883 Q2152.22 232.883 2154.02 229.342 Q2155.85 225.777 2155.85 218.67 Q2155.85 211.541 2154.02 207.999 Q2152.22 204.434 2148.58 204.434 M2148.58 200.731 Q2154.39 200.731 2157.45 205.337 Q2160.53 209.92 2160.53 218.67 Q2160.53 227.397 2157.45 232.004 Q2154.39 236.587 2148.58 236.587 Q2142.77 236.587 2139.69 232.004 Q2136.64 227.397 2136.64 218.67 Q2136.64 209.92 2139.69 205.337 Q2142.77 200.731 2148.58 200.731 Z" fill="#000000" fill-rule="evenodd" fill-opacity="1" /><path clip-path="url(#clip650)" d="M2168.74 230.036 L2173.63 230.036 L2173.63 235.916 L2168.74 235.916 L2168.74 230.036 Z" fill="#000000" fill-rule="evenodd" fill-opacity="1" /><path clip-path="url(#clip650)" d="M2183.86 201.356 L2202.22 201.356 L2202.22 205.291 L2188.14 205.291 L2188.14 213.763 Q2189.16 213.416 2190.18 213.254 Q2191.2 213.069 2192.22 213.069 Q2198 213.069 2201.38 216.24 Q2204.76 219.411 2204.76 224.828 Q2204.76 230.406 2201.29 233.508 Q2197.82 236.587 2191.5 236.587 Q2189.32 236.587 2187.05 236.217 Q2184.81 235.846 2182.4 235.106 L2182.4 230.406 Q2184.48 231.541 2186.71 232.096 Q2188.93 232.652 2191.41 232.652 Q2195.41 232.652 2197.75 230.545 Q2200.09 228.439 2200.09 224.828 Q2200.09 221.217 2197.75 219.11 Q2195.41 217.004 2191.41 217.004 Q2189.53 217.004 2187.66 217.42 Q2185.8 217.837 2183.86 218.717 L2183.86 201.356 Z" fill="#000000" fill-rule="evenodd" fill-opacity="1" /><path clip-path="url(#clip650)" d="M2223.98 204.434 Q2220.36 204.434 2218.54 207.999 Q2216.73 211.541 2216.73 218.67 Q2216.73 225.777 2218.54 229.342 Q2220.36 232.883 2223.98 232.883 Q2227.61 232.883 2229.42 229.342 Q2231.24 225.777 2231.24 218.67 Q2231.24 211.541 2229.42 207.999 Q2227.61 204.434 2223.98 204.434 M2223.98 200.731 Q2229.79 200.731 2232.84 205.337 Q2235.92 209.92 2235.92 218.67 Q2235.92 227.397 2232.84 232.004 Q2229.79 236.587 2223.98 236.587 Q2218.17 236.587 2215.09 232.004 Q2212.03 227.397 2212.03 218.67 Q2212.03 209.92 2215.09 205.337 Q2218.17 200.731 2223.98 200.731 Z" fill="#000000" fill-rule="evenodd" fill-opacity="1" /><polyline clip-path="url(#clip650)" style="stroke:#e26f46; stroke-linecap:butt; stroke-linejoin:round; stroke-width:4; stroke-opacity:1; fill:none" points="
  1907.07,270.476 2047.28,270.476 
  "/>
<path clip-path="url(#clip650)" d="M2070.64 251.737 L2074.93 251.737 L2074.93 273.01 L2087.63 261.83 L2093.07 261.83 L2079.32 273.959 L2093.65 287.756 L2088.1 287.756 L2074.93 275.094 L2074.93 287.756 L2070.64 287.756 L2070.64 251.737 Z" fill="#000000" fill-rule="evenodd" fill-opacity="1" /><path clip-path="url(#clip650)" d="M2098.81 266.228 L2128.49 266.228 L2128.49 270.117 L2098.81 270.117 L2098.81 266.228 M2098.81 275.672 L2128.49 275.672 L2128.49 279.608 L2098.81 279.608 L2098.81 275.672 Z" fill="#000000" fill-rule="evenodd" fill-opacity="1" /><path clip-path="url(#clip650)" d="M2139.39 283.821 L2147.03 283.821 L2147.03 257.455 L2138.72 259.122 L2138.72 254.862 L2146.98 253.196 L2151.66 253.196 L2151.66 283.821 L2159.3 283.821 L2159.3 287.756 L2139.39 287.756 L2139.39 283.821 Z" fill="#000000" fill-rule="evenodd" fill-opacity="1" /><path clip-path="url(#clip650)" d="M2168.74 281.876 L2173.63 281.876 L2173.63 287.756 L2168.74 287.756 L2168.74 281.876 Z" fill="#000000" fill-rule="evenodd" fill-opacity="1" /><path clip-path="url(#clip650)" d="M2193.81 256.274 Q2190.2 256.274 2188.37 259.839 Q2186.57 263.381 2186.57 270.51 Q2186.57 277.617 2188.37 281.182 Q2190.2 284.723 2193.81 284.723 Q2197.45 284.723 2199.25 281.182 Q2201.08 277.617 2201.08 270.51 Q2201.08 263.381 2199.25 259.839 Q2197.45 256.274 2193.81 256.274 M2193.81 252.571 Q2199.62 252.571 2202.68 257.177 Q2205.76 261.76 2205.76 270.51 Q2205.76 279.237 2202.68 283.844 Q2199.62 288.427 2193.81 288.427 Q2188 288.427 2184.92 283.844 Q2181.87 279.237 2181.87 270.51 Q2181.87 261.76 2184.92 257.177 Q2188 252.571 2193.81 252.571 Z" fill="#000000" fill-rule="evenodd" fill-opacity="1" /><path clip-path="url(#clip650)" d="M2223.98 256.274 Q2220.36 256.274 2218.54 259.839 Q2216.73 263.381 2216.73 270.51 Q2216.73 277.617 2218.54 281.182 Q2220.36 284.723 2223.98 284.723 Q2227.61 284.723 2229.42 281.182 Q2231.24 277.617 2231.24 270.51 Q2231.24 263.381 2229.42 259.839 Q2227.61 256.274 2223.98 256.274 M2223.98 252.571 Q2229.79 252.571 2232.84 257.177 Q2235.92 261.76 2235.92 270.51 Q2235.92 279.237 2232.84 283.844 Q2229.79 288.427 2223.98 288.427 Q2218.17 288.427 2215.09 283.844 Q2212.03 279.237 2212.03 270.51 Q2212.03 261.76 2215.09 257.177 Q2218.17 252.571 2223.98 252.571 Z" fill="#000000" fill-rule="evenodd" fill-opacity="1" /><polyline clip-path="url(#clip650)" style="stroke:#3da44d; stroke-linecap:butt; stroke-linejoin:round; stroke-width:4; stroke-opacity:1; fill:none" points="
  1907.07,322.316 2047.28,322.316 
  "/>
<path clip-path="url(#clip650)" d="M2070.64 303.577 L2074.93 303.577 L2074.93 324.85 L2087.63 313.67 L2093.07 313.67 L2079.32 325.799 L2093.65 339.596 L2088.1 339.596 L2074.93 326.934 L2074.93 339.596 L2070.64 339.596 L2070.64 303.577 Z" fill="#000000" fill-rule="evenodd" fill-opacity="1" /><path clip-path="url(#clip650)" d="M2098.81 318.068 L2128.49 318.068 L2128.49 321.957 L2098.81 321.957 L2098.81 318.068 M2098.81 327.512 L2128.49 327.512 L2128.49 331.448 L2098.81 331.448 L2098.81 327.512 Z" fill="#000000" fill-rule="evenodd" fill-opacity="1" /><path clip-path="url(#clip650)" d="M2142.61 335.661 L2158.93 335.661 L2158.93 339.596 L2136.99 339.596 L2136.99 335.661 Q2139.65 332.906 2144.23 328.276 Q2148.84 323.624 2150.02 322.281 Q2152.26 319.758 2153.14 318.022 Q2154.05 316.263 2154.05 314.573 Q2154.05 311.818 2152.1 310.082 Q2150.18 308.346 2147.08 308.346 Q2144.88 308.346 2142.42 309.11 Q2139.99 309.874 2137.22 311.425 L2137.22 306.702 Q2140.04 305.568 2142.49 304.989 Q2144.95 304.411 2146.98 304.411 Q2152.36 304.411 2155.55 307.096 Q2158.74 309.781 2158.74 314.272 Q2158.74 316.401 2157.93 318.323 Q2157.15 320.221 2155.04 322.813 Q2154.46 323.485 2151.36 326.702 Q2148.26 329.897 2142.61 335.661 Z" fill="#000000" fill-rule="evenodd" fill-opacity="1" /><path clip-path="url(#clip650)" d="M2168.74 333.716 L2173.63 333.716 L2173.63 339.596 L2168.74 339.596 L2168.74 333.716 Z" fill="#000000" fill-rule="evenodd" fill-opacity="1" /><path clip-path="url(#clip650)" d="M2193.81 308.114 Q2190.2 308.114 2188.37 311.679 Q2186.57 315.221 2186.57 322.35 Q2186.57 329.457 2188.37 333.022 Q2190.2 336.563 2193.81 336.563 Q2197.45 336.563 2199.25 333.022 Q2201.08 329.457 2201.08 322.35 Q2201.08 315.221 2199.25 311.679 Q2197.45 308.114 2193.81 308.114 M2193.81 304.411 Q2199.62 304.411 2202.68 309.017 Q2205.76 313.6 2205.76 322.35 Q2205.76 331.077 2202.68 335.684 Q2199.62 340.267 2193.81 340.267 Q2188 340.267 2184.92 335.684 Q2181.87 331.077 2181.87 322.35 Q2181.87 313.6 2184.92 309.017 Q2188 304.411 2193.81 304.411 Z" fill="#000000" fill-rule="evenodd" fill-opacity="1" /><path clip-path="url(#clip650)" d="M2223.98 308.114 Q2220.36 308.114 2218.54 311.679 Q2216.73 315.221 2216.73 322.35 Q2216.73 329.457 2218.54 333.022 Q2220.36 336.563 2223.98 336.563 Q2227.61 336.563 2229.42 333.022 Q2231.24 329.457 2231.24 322.35 Q2231.24 315.221 2229.42 311.679 Q2227.61 308.114 2223.98 308.114 M2223.98 304.411 Q2229.79 304.411 2232.84 309.017 Q2235.92 313.6 2235.92 322.35 Q2235.92 331.077 2232.84 335.684 Q2229.79 340.267 2223.98 340.267 Q2218.17 340.267 2215.09 335.684 Q2212.03 331.077 2212.03 322.35 Q2212.03 313.6 2215.09 309.017 Q2218.17 304.411 2223.98 304.411 Z" fill="#000000" fill-rule="evenodd" fill-opacity="1" /><polyline clip-path="url(#clip650)" style="stroke:#c271d2; stroke-linecap:butt; stroke-linejoin:round; stroke-width:4; stroke-opacity:1; fill:none" points="
  1907.07,374.156 2047.28,374.156 
  "/>
<path clip-path="url(#clip650)" d="M2070.64 355.417 L2074.93 355.417 L2074.93 376.69 L2087.63 365.51 L2093.07 365.51 L2079.32 377.639 L2093.65 391.436 L2088.1 391.436 L2074.93 378.774 L2074.93 391.436 L2070.64 391.436 L2070.64 355.417 Z" fill="#000000" fill-rule="evenodd" fill-opacity="1" /><path clip-path="url(#clip650)" d="M2098.81 369.908 L2128.49 369.908 L2128.49 373.797 L2098.81 373.797 L2098.81 369.908 M2098.81 379.352 L2128.49 379.352 L2128.49 383.288 L2098.81 383.288 L2098.81 379.352 Z" fill="#000000" fill-rule="evenodd" fill-opacity="1" /><path clip-path="url(#clip650)" d="M2151.43 360.95 L2139.62 379.399 L2151.43 379.399 L2151.43 360.95 M2150.2 356.876 L2156.08 356.876 L2156.08 379.399 L2161.01 379.399 L2161.01 383.288 L2156.08 383.288 L2156.08 391.436 L2151.43 391.436 L2151.43 383.288 L2135.83 383.288 L2135.83 378.774 L2150.2 356.876 Z" fill="#000000" fill-rule="evenodd" fill-opacity="1" /><path clip-path="url(#clip650)" d="M2168.74 385.556 L2173.63 385.556 L2173.63 391.436 L2168.74 391.436 L2168.74 385.556 Z" fill="#000000" fill-rule="evenodd" fill-opacity="1" /><path clip-path="url(#clip650)" d="M2193.81 359.954 Q2190.2 359.954 2188.37 363.519 Q2186.57 367.061 2186.57 374.19 Q2186.57 381.297 2188.37 384.862 Q2190.2 388.403 2193.81 388.403 Q2197.45 388.403 2199.25 384.862 Q2201.08 381.297 2201.08 374.19 Q2201.08 367.061 2199.25 363.519 Q2197.45 359.954 2193.81 359.954 M2193.81 356.251 Q2199.62 356.251 2202.68 360.857 Q2205.76 365.44 2205.76 374.19 Q2205.76 382.917 2202.68 387.524 Q2199.62 392.107 2193.81 392.107 Q2188 392.107 2184.92 387.524 Q2181.87 382.917 2181.87 374.19 Q2181.87 365.44 2184.92 360.857 Q2188 356.251 2193.81 356.251 Z" fill="#000000" fill-rule="evenodd" fill-opacity="1" /><path clip-path="url(#clip650)" d="M2223.98 359.954 Q2220.36 359.954 2218.54 363.519 Q2216.73 367.061 2216.73 374.19 Q2216.73 381.297 2218.54 384.862 Q2220.36 388.403 2223.98 388.403 Q2227.61 388.403 2229.42 384.862 Q2231.24 381.297 2231.24 374.19 Q2231.24 367.061 2229.42 363.519 Q2227.61 359.954 2223.98 359.954 M2223.98 356.251 Q2229.79 356.251 2232.84 360.857 Q2235.92 365.44 2235.92 374.19 Q2235.92 382.917 2232.84 387.524 Q2229.79 392.107 2223.98 392.107 Q2218.17 392.107 2215.09 387.524 Q2212.03 382.917 2212.03 374.19 Q2212.03 365.44 2215.09 360.857 Q2218.17 356.251 2223.98 356.251 Z" fill="#000000" fill-rule="evenodd" fill-opacity="1" /></svg>
