<?xml version="1.0" encoding="utf-8"?>
<svg xmlns="http://www.w3.org/2000/svg" xmlns:xlink="http://www.w3.org/1999/xlink" width="600" height="400" viewBox="0 0 2400 1600">
<defs>
  <clipPath id="clip090">
    <rect x="0" y="0" width="2400" height="1600"/>
  </clipPath>
</defs>
<path clip-path="url(#clip090)" d="
M0 1600 L2400 1600 L2400 0 L0 0  Z
  " fill="#ffffff" fill-rule="evenodd" fill-opacity="1"/>
<defs>
  <clipPath id="clip091">
    <rect x="480" y="0" width="1681" height="1600"/>
  </clipPath>
</defs>
<path clip-path="url(#clip090)" d="
M310.352 1423.18 L2352.76 1423.18 L2352.76 123.472 L310.352 123.472  Z
  " fill="#ffffff" fill-rule="evenodd" fill-opacity="1"/>
<defs>
  <clipPath id="clip092">
    <rect x="310" y="123" width="2043" height="1301"/>
  </clipPath>
</defs>
<polyline clip-path="url(#clip092)" style="stroke:#000000; stroke-linecap:butt; stroke-linejoin:round; stroke-width:2; stroke-opacity:0.1; fill:none" points="
  633.921,1423.18 633.921,123.472 
  "/>
<polyline clip-path="url(#clip092)" style="stroke:#000000; stroke-linecap:butt; stroke-linejoin:round; stroke-width:2; stroke-opacity:0.1; fill:none" points="
  966.127,1423.18 966.127,123.472 
  "/>
<polyline clip-path="url(#clip092)" style="stroke:#000000; stroke-linecap:butt; stroke-linejoin:round; stroke-width:2; stroke-opacity:0.1; fill:none" points="
  1298.33,1423.18 1298.33,123.472 
  "/>
<polyline clip-path="url(#clip092)" style="stroke:#000000; stroke-linecap:butt; stroke-linejoin:round; stroke-width:2; stroke-opacity:0.1; fill:none" points="
  1630.54,1423.18 1630.54,123.472 
  "/>
<polyline clip-path="url(#clip092)" style="stroke:#000000; stroke-linecap:butt; stroke-linejoin:round; stroke-width:2; stroke-opacity:0.1; fill:none" points="
  1962.75,1423.18 1962.75,123.472 
  "/>
<polyline clip-path="url(#clip092)" style="stroke:#000000; stroke-linecap:butt; stroke-linejoin:round; stroke-width:2; stroke-opacity:0.1; fill:none" points="
  2294.95,1423.18 2294.95,123.472 
  "/>
<polyline clip-path="url(#clip090)" style="stroke:#000000; stroke-linecap:butt; stroke-linejoin:round; stroke-width:4; stroke-opacity:1; fill:none" points="
  310.352,1423.18 2352.76,1423.18 
  "/>
<polyline clip-path="url(#clip090)" style="stroke:#000000; stroke-linecap:butt; stroke-linejoin:round; stroke-width:4; stroke-opacity:1; fill:none" points="
  633.921,1423.18 633.921,1404.28 
  "/>
<polyline clip-path="url(#clip090)" style="stroke:#000000; stroke-linecap:butt; stroke-linejoin:round; stroke-width:4; stroke-opacity:1; fill:none" points="
  966.127,1423.18 966.127,1404.28 
  "/>
<polyline clip-path="url(#clip090)" style="stroke:#000000; stroke-linecap:butt; stroke-linejoin:round; stroke-width:4; stroke-opacity:1; fill:none" points="
  1298.33,1423.18 1298.33,1404.28 
  "/>
<polyline clip-path="url(#clip090)" style="stroke:#000000; stroke-linecap:butt; stroke-linejoin:round; stroke-width:4; stroke-opacity:1; fill:none" points="
  1630.54,1423.18 1630.54,1404.28 
  "/>
<polyline clip-path="url(#clip090)" style="stroke:#000000; stroke-linecap:butt; stroke-linejoin:round; stroke-width:4; stroke-opacity:1; fill:none" points="
  1962.75,1423.18 1962.75,1404.28 
  "/>
<polyline clip-path="url(#clip090)" style="stroke:#000000; stroke-linecap:butt; stroke-linejoin:round; stroke-width:4; stroke-opacity:1; fill:none" points="
  2294.95,1423.18 2294.95,1404.28 
  "/>
<path clip-path="url(#clip090)" d="M593.539 1451.02 L611.895 1451.02 L611.895 1454.96 L597.821 1454.96 L597.821 1463.43 Q598.84 1463.08 599.858 1462.92 Q600.877 1462.73 601.895 1462.73 Q607.682 1462.73 611.062 1465.9 Q614.442 1469.08 614.442 1474.49 Q614.442 1480.07 610.97 1483.17 Q607.497 1486.25 601.178 1486.25 Q599.002 1486.25 596.733 1485.88 Q594.488 1485.51 592.081 1484.77 L592.081 1480.07 Q594.164 1481.2 596.386 1481.76 Q598.608 1482.32 601.085 1482.32 Q605.09 1482.32 607.428 1480.21 Q609.766 1478.1 609.766 1474.49 Q609.766 1470.88 607.428 1468.77 Q605.09 1466.67 601.085 1466.67 Q599.21 1466.67 597.335 1467.08 Q595.483 1467.5 593.539 1468.38 L593.539 1451.02 Z" fill="#000000" fill-rule="evenodd" fill-opacity="1" /><path clip-path="url(#clip090)" d="M633.655 1454.1 Q630.043 1454.1 628.215 1457.66 Q626.409 1461.2 626.409 1468.33 Q626.409 1475.44 628.215 1479.01 Q630.043 1482.55 633.655 1482.55 Q637.289 1482.55 639.094 1479.01 Q640.923 1475.44 640.923 1468.33 Q640.923 1461.2 639.094 1457.66 Q637.289 1454.1 633.655 1454.1 M633.655 1450.39 Q639.465 1450.39 642.52 1455 Q645.599 1459.58 645.599 1468.33 Q645.599 1477.06 642.52 1481.67 Q639.465 1486.25 633.655 1486.25 Q627.844 1486.25 624.766 1481.67 Q621.71 1477.06 621.71 1468.33 Q621.71 1459.58 624.766 1455 Q627.844 1450.39 633.655 1450.39 Z" fill="#000000" fill-rule="evenodd" fill-opacity="1" /><path clip-path="url(#clip090)" d="M663.816 1454.1 Q660.205 1454.1 658.377 1457.66 Q656.571 1461.2 656.571 1468.33 Q656.571 1475.44 658.377 1479.01 Q660.205 1482.55 663.816 1482.55 Q667.451 1482.55 669.256 1479.01 Q671.085 1475.44 671.085 1468.33 Q671.085 1461.2 669.256 1457.66 Q667.451 1454.1 663.816 1454.1 M663.816 1450.39 Q669.627 1450.39 672.682 1455 Q675.761 1459.58 675.761 1468.33 Q675.761 1477.06 672.682 1481.67 Q669.627 1486.25 663.816 1486.25 Q658.006 1486.25 654.928 1481.67 Q651.872 1477.06 651.872 1468.33 Q651.872 1459.58 654.928 1455 Q658.006 1450.39 663.816 1450.39 Z" fill="#000000" fill-rule="evenodd" fill-opacity="1" /><path clip-path="url(#clip090)" d="M910.653 1481.64 L918.292 1481.64 L918.292 1455.28 L909.981 1456.95 L909.981 1452.69 L918.245 1451.02 L922.921 1451.02 L922.921 1481.64 L930.56 1481.64 L930.56 1485.58 L910.653 1485.58 L910.653 1481.64 Z" fill="#000000" fill-rule="evenodd" fill-opacity="1" /><path clip-path="url(#clip090)" d="M950.004 1454.1 Q946.393 1454.1 944.565 1457.66 Q942.759 1461.2 942.759 1468.33 Q942.759 1475.44 944.565 1479.01 Q946.393 1482.55 950.004 1482.55 Q953.639 1482.55 955.444 1479.01 Q957.273 1475.44 957.273 1468.33 Q957.273 1461.2 955.444 1457.66 Q953.639 1454.1 950.004 1454.1 M950.004 1450.39 Q955.815 1450.39 958.87 1455 Q961.949 1459.58 961.949 1468.33 Q961.949 1477.06 958.87 1481.67 Q955.815 1486.25 950.004 1486.25 Q944.194 1486.25 941.116 1481.67 Q938.06 1477.06 938.06 1468.33 Q938.06 1459.58 941.116 1455 Q944.194 1450.39 950.004 1450.39 Z" fill="#000000" fill-rule="evenodd" fill-opacity="1" /><path clip-path="url(#clip090)" d="M980.166 1454.1 Q976.555 1454.1 974.727 1457.66 Q972.921 1461.2 972.921 1468.33 Q972.921 1475.44 974.727 1479.01 Q976.555 1482.55 980.166 1482.55 Q983.801 1482.55 985.606 1479.01 Q987.435 1475.44 987.435 1468.33 Q987.435 1461.2 985.606 1457.66 Q983.801 1454.1 980.166 1454.1 M980.166 1450.39 Q985.976 1450.39 989.032 1455 Q992.111 1459.58 992.111 1468.33 Q992.111 1477.06 989.032 1481.67 Q985.976 1486.25 980.166 1486.25 Q974.356 1486.25 971.277 1481.67 Q968.222 1477.06 968.222 1468.33 Q968.222 1459.58 971.277 1455 Q974.356 1450.39 980.166 1450.39 Z" fill="#000000" fill-rule="evenodd" fill-opacity="1" /><path clip-path="url(#clip090)" d="M1010.33 1454.1 Q1006.72 1454.1 1004.89 1457.66 Q1003.08 1461.2 1003.08 1468.33 Q1003.08 1475.44 1004.89 1479.01 Q1006.72 1482.55 1010.33 1482.55 Q1013.96 1482.55 1015.77 1479.01 Q1017.6 1475.44 1017.6 1468.33 Q1017.6 1461.2 1015.77 1457.66 Q1013.96 1454.1 1010.33 1454.1 M1010.33 1450.39 Q1016.14 1450.39 1019.19 1455 Q1022.27 1459.58 1022.27 1468.33 Q1022.27 1477.06 1019.19 1481.67 Q1016.14 1486.25 1010.33 1486.25 Q1004.52 1486.25 1001.44 1481.67 Q998.384 1477.06 998.384 1468.33 Q998.384 1459.58 1001.44 1455 Q1004.52 1450.39 1010.33 1450.39 Z" fill="#000000" fill-rule="evenodd" fill-opacity="1" /><path clip-path="url(#clip090)" d="M1242.86 1481.64 L1250.5 1481.64 L1250.5 1455.28 L1242.19 1456.95 L1242.19 1452.69 L1250.45 1451.02 L1255.13 1451.02 L1255.13 1481.64 L1262.77 1481.64 L1262.77 1485.58 L1242.86 1485.58 L1242.86 1481.64 Z" fill="#000000" fill-rule="evenodd" fill-opacity="1" /><path clip-path="url(#clip090)" d="M1272.26 1451.02 L1290.61 1451.02 L1290.61 1454.96 L1276.54 1454.96 L1276.54 1463.43 Q1277.56 1463.08 1278.58 1462.92 Q1279.59 1462.73 1280.61 1462.73 Q1286.4 1462.73 1289.78 1465.9 Q1293.16 1469.08 1293.16 1474.49 Q1293.16 1480.07 1289.69 1483.17 Q1286.22 1486.25 1279.9 1486.25 Q1277.72 1486.25 1275.45 1485.88 Q1273.21 1485.51 1270.8 1484.77 L1270.8 1480.07 Q1272.88 1481.2 1275.1 1481.76 Q1277.33 1482.32 1279.8 1482.32 Q1283.81 1482.32 1286.15 1480.21 Q1288.48 1478.1 1288.48 1474.49 Q1288.48 1470.88 1286.15 1468.77 Q1283.81 1466.67 1279.8 1466.67 Q1277.93 1466.67 1276.05 1467.08 Q1274.2 1467.5 1272.26 1468.38 L1272.26 1451.02 Z" fill="#000000" fill-rule="evenodd" fill-opacity="1" /><path clip-path="url(#clip090)" d="M1312.37 1454.1 Q1308.76 1454.1 1306.93 1457.66 Q1305.13 1461.2 1305.13 1468.33 Q1305.13 1475.44 1306.93 1479.01 Q1308.76 1482.55 1312.37 1482.55 Q1316.01 1482.55 1317.81 1479.01 Q1319.64 1475.44 1319.64 1468.33 Q1319.64 1461.2 1317.81 1457.66 Q1316.01 1454.1 1312.37 1454.1 M1312.37 1450.39 Q1318.18 1450.39 1321.24 1455 Q1324.32 1459.58 1324.32 1468.33 Q1324.32 1477.06 1321.24 1481.67 Q1318.18 1486.25 1312.37 1486.25 Q1306.56 1486.25 1303.48 1481.67 Q1300.43 1477.06 1300.43 1468.33 Q1300.43 1459.58 1303.48 1455 Q1306.56 1450.39 1312.37 1450.39 Z" fill="#000000" fill-rule="evenodd" fill-opacity="1" /><path clip-path="url(#clip090)" d="M1342.53 1454.1 Q1338.92 1454.1 1337.09 1457.66 Q1335.29 1461.2 1335.29 1468.33 Q1335.29 1475.44 1337.09 1479.01 Q1338.92 1482.55 1342.53 1482.55 Q1346.17 1482.55 1347.97 1479.01 Q1349.8 1475.44 1349.8 1468.33 Q1349.8 1461.2 1347.97 1457.66 Q1346.17 1454.1 1342.53 1454.1 M1342.53 1450.39 Q1348.34 1450.39 1351.4 1455 Q1354.48 1459.58 1354.48 1468.33 Q1354.48 1477.06 1351.4 1481.67 Q1348.34 1486.25 1342.53 1486.25 Q1336.72 1486.25 1333.65 1481.67 Q1330.59 1477.06 1330.59 1468.33 Q1330.59 1459.58 1333.65 1455 Q1336.72 1450.39 1342.53 1450.39 Z" fill="#000000" fill-rule="evenodd" fill-opacity="1" /><path clip-path="url(#clip090)" d="M1579.15 1481.64 L1595.47 1481.64 L1595.47 1485.58 L1573.53 1485.58 L1573.53 1481.64 Q1576.19 1478.89 1580.77 1474.26 Q1585.38 1469.61 1586.56 1468.27 Q1588.8 1465.74 1589.68 1464.01 Q1590.59 1462.25 1590.59 1460.56 Q1590.59 1457.8 1588.64 1456.07 Q1586.72 1454.33 1583.62 1454.33 Q1581.42 1454.33 1578.97 1455.09 Q1576.54 1455.86 1573.76 1457.41 L1573.76 1452.69 Q1576.58 1451.55 1579.04 1450.97 Q1581.49 1450.39 1583.53 1450.39 Q1588.9 1450.39 1592.09 1453.08 Q1595.29 1455.77 1595.29 1460.26 Q1595.29 1462.39 1594.47 1464.31 Q1593.69 1466.2 1591.58 1468.8 Q1591 1469.47 1587.9 1472.69 Q1584.8 1475.88 1579.15 1481.64 Z" fill="#000000" fill-rule="evenodd" fill-opacity="1" /><path clip-path="url(#clip090)" d="M1615.28 1454.1 Q1611.67 1454.1 1609.85 1457.66 Q1608.04 1461.2 1608.04 1468.33 Q1608.04 1475.44 1609.85 1479.01 Q1611.67 1482.55 1615.28 1482.55 Q1618.92 1482.55 1620.72 1479.01 Q1622.55 1475.44 1622.55 1468.33 Q1622.55 1461.2 1620.72 1457.66 Q1618.92 1454.1 1615.28 1454.1 M1615.28 1450.39 Q1621.1 1450.39 1624.15 1455 Q1627.23 1459.58 1627.23 1468.33 Q1627.23 1477.06 1624.15 1481.67 Q1621.1 1486.25 1615.28 1486.25 Q1609.47 1486.25 1606.4 1481.67 Q1603.34 1477.06 1603.34 1468.33 Q1603.34 1459.58 1606.4 1455 Q1609.47 1450.39 1615.28 1450.39 Z" fill="#000000" fill-rule="evenodd" fill-opacity="1" /><path clip-path="url(#clip090)" d="M1645.45 1454.1 Q1641.84 1454.1 1640.01 1457.66 Q1638.2 1461.2 1638.2 1468.33 Q1638.2 1475.44 1640.01 1479.01 Q1641.84 1482.55 1645.45 1482.55 Q1649.08 1482.55 1650.89 1479.01 Q1652.72 1475.44 1652.72 1468.33 Q1652.72 1461.2 1650.89 1457.66 Q1649.08 1454.1 1645.45 1454.1 M1645.45 1450.39 Q1651.26 1450.39 1654.31 1455 Q1657.39 1459.58 1657.39 1468.33 Q1657.39 1477.06 1654.31 1481.67 Q1651.26 1486.25 1645.45 1486.25 Q1639.64 1486.25 1636.56 1481.67 Q1633.5 1477.06 1633.5 1468.33 Q1633.5 1459.58 1636.56 1455 Q1639.64 1450.39 1645.45 1450.39 Z" fill="#000000" fill-rule="evenodd" fill-opacity="1" /><path clip-path="url(#clip090)" d="M1675.61 1454.1 Q1672 1454.1 1670.17 1457.66 Q1668.36 1461.2 1668.36 1468.33 Q1668.36 1475.44 1670.17 1479.01 Q1672 1482.55 1675.61 1482.55 Q1679.24 1482.55 1681.05 1479.01 Q1682.88 1475.44 1682.88 1468.33 Q1682.88 1461.2 1681.05 1457.66 Q1679.24 1454.1 1675.61 1454.1 M1675.61 1450.39 Q1681.42 1450.39 1684.47 1455 Q1687.55 1459.58 1687.55 1468.33 Q1687.55 1477.06 1684.47 1481.67 Q1681.42 1486.25 1675.61 1486.25 Q1669.8 1486.25 1666.72 1481.67 Q1663.66 1477.06 1663.66 1468.33 Q1663.66 1459.58 1666.72 1455 Q1669.8 1450.39 1675.61 1450.39 Z" fill="#000000" fill-rule="evenodd" fill-opacity="1" /><path clip-path="url(#clip090)" d="M1911.36 1481.64 L1927.68 1481.64 L1927.68 1485.58 L1905.73 1485.58 L1905.73 1481.64 Q1908.39 1478.89 1912.98 1474.26 Q1917.58 1469.61 1918.76 1468.27 Q1921.01 1465.74 1921.89 1464.01 Q1922.79 1462.25 1922.79 1460.56 Q1922.79 1457.8 1920.85 1456.07 Q1918.93 1454.33 1915.82 1454.33 Q1913.63 1454.33 1911.17 1455.09 Q1908.74 1455.86 1905.96 1457.41 L1905.96 1452.69 Q1908.79 1451.55 1911.24 1450.97 Q1913.7 1450.39 1915.73 1450.39 Q1921.1 1450.39 1924.3 1453.08 Q1927.49 1455.77 1927.49 1460.26 Q1927.49 1462.39 1926.68 1464.31 Q1925.89 1466.2 1923.79 1468.8 Q1923.21 1469.47 1920.11 1472.69 Q1917.01 1475.88 1911.36 1481.64 Z" fill="#000000" fill-rule="evenodd" fill-opacity="1" /><path clip-path="url(#clip090)" d="M1937.54 1451.02 L1955.89 1451.02 L1955.89 1454.96 L1941.82 1454.96 L1941.82 1463.43 Q1942.84 1463.08 1943.86 1462.92 Q1944.88 1462.73 1945.89 1462.73 Q1951.68 1462.73 1955.06 1465.9 Q1958.44 1469.08 1958.44 1474.49 Q1958.44 1480.07 1954.97 1483.17 Q1951.5 1486.25 1945.18 1486.25 Q1943 1486.25 1940.73 1485.88 Q1938.49 1485.51 1936.08 1484.77 L1936.08 1480.07 Q1938.16 1481.2 1940.38 1481.76 Q1942.61 1482.32 1945.08 1482.32 Q1949.09 1482.32 1951.43 1480.21 Q1953.76 1478.1 1953.76 1474.49 Q1953.76 1470.88 1951.43 1468.77 Q1949.09 1466.67 1945.08 1466.67 Q1943.21 1466.67 1941.33 1467.08 Q1939.48 1467.5 1937.54 1468.38 L1937.54 1451.02 Z" fill="#000000" fill-rule="evenodd" fill-opacity="1" /><path clip-path="url(#clip090)" d="M1977.65 1454.1 Q1974.04 1454.1 1972.21 1457.66 Q1970.41 1461.2 1970.41 1468.33 Q1970.41 1475.44 1972.21 1479.01 Q1974.04 1482.55 1977.65 1482.55 Q1981.29 1482.55 1983.09 1479.01 Q1984.92 1475.44 1984.92 1468.33 Q1984.92 1461.2 1983.09 1457.66 Q1981.29 1454.1 1977.65 1454.1 M1977.65 1450.39 Q1983.46 1450.39 1986.52 1455 Q1989.6 1459.58 1989.6 1468.33 Q1989.6 1477.06 1986.52 1481.67 Q1983.46 1486.25 1977.65 1486.25 Q1971.84 1486.25 1968.76 1481.67 Q1965.71 1477.06 1965.71 1468.33 Q1965.71 1459.58 1968.76 1455 Q1971.84 1450.39 1977.65 1450.39 Z" fill="#000000" fill-rule="evenodd" fill-opacity="1" /><path clip-path="url(#clip090)" d="M2007.81 1454.1 Q2004.2 1454.1 2002.38 1457.66 Q2000.57 1461.2 2000.57 1468.33 Q2000.57 1475.44 2002.38 1479.01 Q2004.2 1482.55 2007.81 1482.55 Q2011.45 1482.55 2013.25 1479.01 Q2015.08 1475.44 2015.08 1468.33 Q2015.08 1461.2 2013.25 1457.66 Q2011.45 1454.1 2007.81 1454.1 M2007.81 1450.39 Q2013.63 1450.39 2016.68 1455 Q2019.76 1459.58 2019.76 1468.33 Q2019.76 1477.06 2016.68 1481.67 Q2013.63 1486.25 2007.81 1486.25 Q2002 1486.25 1998.93 1481.67 Q1995.87 1477.06 1995.87 1468.33 Q1995.87 1459.58 1998.93 1455 Q2002 1450.39 2007.81 1450.39 Z" fill="#000000" fill-rule="evenodd" fill-opacity="1" /><path clip-path="url(#clip090)" d="M2253.63 1466.95 Q2256.99 1467.66 2258.86 1469.93 Q2260.76 1472.2 2260.76 1475.53 Q2260.76 1480.65 2257.24 1483.45 Q2253.73 1486.25 2247.24 1486.25 Q2245.07 1486.25 2242.75 1485.81 Q2240.46 1485.39 2238.01 1484.54 L2238.01 1480.02 Q2239.95 1481.16 2242.27 1481.74 Q2244.58 1482.32 2247.11 1482.32 Q2251.5 1482.32 2253.79 1480.58 Q2256.11 1478.84 2256.11 1475.53 Q2256.11 1472.48 2253.96 1470.77 Q2251.83 1469.03 2248.01 1469.03 L2243.98 1469.03 L2243.98 1465.19 L2248.19 1465.19 Q2251.64 1465.19 2253.47 1463.82 Q2255.3 1462.43 2255.3 1459.84 Q2255.3 1457.18 2253.4 1455.77 Q2251.53 1454.33 2248.01 1454.33 Q2246.09 1454.33 2243.89 1454.75 Q2241.69 1455.16 2239.05 1456.04 L2239.05 1451.88 Q2241.71 1451.14 2244.03 1450.77 Q2246.36 1450.39 2248.42 1450.39 Q2253.75 1450.39 2256.85 1452.83 Q2259.95 1455.23 2259.95 1459.35 Q2259.95 1462.22 2258.31 1464.21 Q2256.67 1466.18 2253.63 1466.95 Z" fill="#000000" fill-rule="evenodd" fill-opacity="1" /><path clip-path="url(#clip090)" d="M2279.63 1454.1 Q2276.02 1454.1 2274.19 1457.66 Q2272.38 1461.2 2272.38 1468.33 Q2272.38 1475.44 2274.19 1479.01 Q2276.02 1482.55 2279.63 1482.55 Q2283.26 1482.55 2285.07 1479.01 Q2286.9 1475.44 2286.9 1468.33 Q2286.9 1461.2 2285.07 1457.66 Q2283.26 1454.1 2279.63 1454.1 M2279.63 1450.39 Q2285.44 1450.39 2288.49 1455 Q2291.57 1459.58 2291.57 1468.33 Q2291.57 1477.06 2288.49 1481.67 Q2285.44 1486.25 2279.63 1486.25 Q2273.82 1486.25 2270.74 1481.67 Q2267.68 1477.06 2267.68 1468.33 Q2267.68 1459.58 2270.74 1455 Q2273.82 1450.39 2279.63 1450.39 Z" fill="#000000" fill-rule="evenodd" fill-opacity="1" /><path clip-path="url(#clip090)" d="M2309.79 1454.1 Q2306.18 1454.1 2304.35 1457.66 Q2302.54 1461.2 2302.54 1468.33 Q2302.54 1475.44 2304.35 1479.01 Q2306.18 1482.55 2309.79 1482.55 Q2313.42 1482.55 2315.23 1479.01 Q2317.06 1475.44 2317.06 1468.33 Q2317.06 1461.2 2315.23 1457.66 Q2313.42 1454.1 2309.79 1454.1 M2309.79 1450.39 Q2315.6 1450.39 2318.66 1455 Q2321.73 1459.58 2321.73 1468.33 Q2321.73 1477.06 2318.66 1481.67 Q2315.6 1486.25 2309.79 1486.25 Q2303.98 1486.25 2300.9 1481.67 Q2297.85 1477.06 2297.85 1468.33 Q2297.85 1459.58 2300.9 1455 Q2303.98 1450.39 2309.79 1450.39 Z" fill="#000000" fill-rule="evenodd" fill-opacity="1" /><path clip-path="url(#clip090)" d="M2339.95 1454.1 Q2336.34 1454.1 2334.51 1457.66 Q2332.71 1461.2 2332.71 1468.33 Q2332.71 1475.44 2334.51 1479.01 Q2336.34 1482.55 2339.95 1482.55 Q2343.59 1482.55 2345.39 1479.01 Q2347.22 1475.44 2347.22 1468.33 Q2347.22 1461.2 2345.39 1457.66 Q2343.59 1454.1 2339.95 1454.1 M2339.95 1450.39 Q2345.76 1450.39 2348.82 1455 Q2351.9 1459.58 2351.9 1468.33 Q2351.9 1477.06 2348.82 1481.67 Q2345.76 1486.25 2339.95 1486.25 Q2334.14 1486.25 2331.06 1481.67 Q2328.01 1477.06 2328.01 1468.33 Q2328.01 1459.58 2331.06 1455 Q2334.14 1450.39 2339.95 1450.39 Z" fill="#000000" fill-rule="evenodd" fill-opacity="1" /><path clip-path="url(#clip090)" d="M1346.48 1546.53 L1346.48 1568.04 L1340.63 1568.04 L1340.63 1546.72 Q1340.63 1541.66 1338.65 1539.14 Q1336.68 1536.63 1332.73 1536.63 Q1327.99 1536.63 1325.25 1539.65 Q1322.51 1542.68 1322.51 1547.9 L1322.51 1568.04 L1316.63 1568.04 L1316.63 1532.4 L1322.51 1532.4 L1322.51 1537.93 Q1324.62 1534.72 1327.45 1533.13 Q1330.31 1531.54 1334.04 1531.54 Q1340.18 1531.54 1343.33 1535.36 Q1346.48 1539.14 1346.48 1546.53 Z" fill="#000000" fill-rule="evenodd" fill-opacity="1" /><polyline clip-path="url(#clip092)" style="stroke:#000000; stroke-linecap:butt; stroke-linejoin:round; stroke-width:2; stroke-opacity:0.1; fill:none" points="
  310.352,1386.4 2352.76,1386.4 
  "/>
<polyline clip-path="url(#clip092)" style="stroke:#000000; stroke-linecap:butt; stroke-linejoin:round; stroke-width:2; stroke-opacity:0.1; fill:none" points="
  310.352,1196.62 2352.76,1196.62 
  "/>
<polyline clip-path="url(#clip092)" style="stroke:#000000; stroke-linecap:butt; stroke-linejoin:round; stroke-width:2; stroke-opacity:0.1; fill:none" points="
  310.352,1006.84 2352.76,1006.84 
  "/>
<polyline clip-path="url(#clip092)" style="stroke:#000000; stroke-linecap:butt; stroke-linejoin:round; stroke-width:2; stroke-opacity:0.1; fill:none" points="
  310.352,817.056 2352.76,817.056 
  "/>
<polyline clip-path="url(#clip092)" style="stroke:#000000; stroke-linecap:butt; stroke-linejoin:round; stroke-width:2; stroke-opacity:0.1; fill:none" points="
  310.352,627.276 2352.76,627.276 
  "/>
<polyline clip-path="url(#clip092)" style="stroke:#000000; stroke-linecap:butt; stroke-linejoin:round; stroke-width:2; stroke-opacity:0.1; fill:none" points="
  310.352,437.496 2352.76,437.496 
  "/>
<polyline clip-path="url(#clip092)" style="stroke:#000000; stroke-linecap:butt; stroke-linejoin:round; stroke-width:2; stroke-opacity:0.1; fill:none" points="
  310.352,247.716 2352.76,247.716 
  "/>
<polyline clip-path="url(#clip090)" style="stroke:#000000; stroke-linecap:butt; stroke-linejoin:round; stroke-width:4; stroke-opacity:1; fill:none" points="
  310.352,1423.18 310.352,123.472 
  "/>
<polyline clip-path="url(#clip090)" style="stroke:#000000; stroke-linecap:butt; stroke-linejoin:round; stroke-width:4; stroke-opacity:1; fill:none" points="
  310.352,1386.4 329.25,1386.4 
  "/>
<polyline clip-path="url(#clip090)" style="stroke:#000000; stroke-linecap:butt; stroke-linejoin:round; stroke-width:4; stroke-opacity:1; fill:none" points="
  310.352,1196.62 329.25,1196.62 
  "/>
<polyline clip-path="url(#clip090)" style="stroke:#000000; stroke-linecap:butt; stroke-linejoin:round; stroke-width:4; stroke-opacity:1; fill:none" points="
  310.352,1006.84 329.25,1006.84 
  "/>
<polyline clip-path="url(#clip090)" style="stroke:#000000; stroke-linecap:butt; stroke-linejoin:round; stroke-width:4; stroke-opacity:1; fill:none" points="
  310.352,817.056 329.25,817.056 
  "/>
<polyline clip-path="url(#clip090)" style="stroke:#000000; stroke-linecap:butt; stroke-linejoin:round; stroke-width:4; stroke-opacity:1; fill:none" points="
  310.352,627.276 329.25,627.276 
  "/>
<polyline clip-path="url(#clip090)" style="stroke:#000000; stroke-linecap:butt; stroke-linejoin:round; stroke-width:4; stroke-opacity:1; fill:none" points="
  310.352,437.496 329.25,437.496 
  "/>
<polyline clip-path="url(#clip090)" style="stroke:#000000; stroke-linecap:butt; stroke-linejoin:round; stroke-width:4; stroke-opacity:1; fill:none" points="
  310.352,247.716 329.25,247.716 
  "/>
<path clip-path="url(#clip090)" d="M126.691 1372.19 Q123.08 1372.19 121.251 1375.76 Q119.445 1379.3 119.445 1386.43 Q119.445 1393.54 121.251 1397.1 Q123.08 1400.64 126.691 1400.64 Q130.325 1400.64 132.13 1397.1 Q133.959 1393.54 133.959 1386.43 Q133.959 1379.3 132.13 1375.76 Q130.325 1372.19 126.691 1372.19 M126.691 1368.49 Q132.501 1368.49 135.556 1373.1 Q138.635 1377.68 138.635 1386.43 Q138.635 1395.16 135.556 1399.76 Q132.501 1404.35 126.691 1404.35 Q120.88 1404.35 117.802 1399.76 Q114.746 1395.16 114.746 1386.43 Q114.746 1377.68 117.802 1373.1 Q120.88 1368.49 126.691 1368.49 Z" fill="#000000" fill-rule="evenodd" fill-opacity="1" /><path clip-path="url(#clip090)" d="M146.853 1397.8 L151.737 1397.8 L151.737 1403.68 L146.853 1403.68 L146.853 1397.8 Z" fill="#000000" fill-rule="evenodd" fill-opacity="1" /><path clip-path="url(#clip090)" d="M171.922 1372.19 Q168.311 1372.19 166.482 1375.76 Q164.677 1379.3 164.677 1386.43 Q164.677 1393.54 166.482 1397.1 Q168.311 1400.64 171.922 1400.64 Q175.556 1400.64 177.362 1397.1 Q179.19 1393.54 179.19 1386.43 Q179.19 1379.3 177.362 1375.76 Q175.556 1372.19 171.922 1372.19 M171.922 1368.49 Q177.732 1368.49 180.788 1373.1 Q183.866 1377.68 183.866 1386.43 Q183.866 1395.16 180.788 1399.76 Q177.732 1404.35 171.922 1404.35 Q166.112 1404.35 163.033 1399.76 Q159.978 1395.16 159.978 1386.43 Q159.978 1377.68 163.033 1373.1 Q166.112 1368.49 171.922 1368.49 Z" fill="#000000" fill-rule="evenodd" fill-opacity="1" /><path clip-path="url(#clip090)" d="M202.084 1372.19 Q198.473 1372.19 196.644 1375.76 Q194.838 1379.3 194.838 1386.43 Q194.838 1393.54 196.644 1397.1 Q198.473 1400.64 202.084 1400.64 Q205.718 1400.64 207.524 1397.1 Q209.352 1393.54 209.352 1386.43 Q209.352 1379.3 207.524 1375.76 Q205.718 1372.19 202.084 1372.19 M202.084 1368.49 Q207.894 1368.49 210.949 1373.1 Q214.028 1377.68 214.028 1386.43 Q214.028 1395.16 210.949 1399.76 Q207.894 1404.35 202.084 1404.35 Q196.274 1404.35 193.195 1399.76 Q190.139 1395.16 190.139 1386.43 Q190.139 1377.68 193.195 1373.1 Q196.274 1368.49 202.084 1368.49 Z" fill="#000000" fill-rule="evenodd" fill-opacity="1" /><path clip-path="url(#clip090)" d="M232.246 1372.19 Q228.635 1372.19 226.806 1375.76 Q225 1379.3 225 1386.43 Q225 1393.54 226.806 1397.1 Q228.635 1400.64 232.246 1400.64 Q235.88 1400.64 237.685 1397.1 Q239.514 1393.54 239.514 1386.43 Q239.514 1379.3 237.685 1375.76 Q235.88 1372.19 232.246 1372.19 M232.246 1368.49 Q238.056 1368.49 241.111 1373.1 Q244.19 1377.68 244.19 1386.43 Q244.19 1395.16 241.111 1399.76 Q238.056 1404.35 232.246 1404.35 Q226.435 1404.35 223.357 1399.76 Q220.301 1395.16 220.301 1386.43 Q220.301 1377.68 223.357 1373.1 Q226.435 1368.49 232.246 1368.49 Z" fill="#000000" fill-rule="evenodd" fill-opacity="1" /><path clip-path="url(#clip090)" d="M262.408 1372.19 Q258.796 1372.19 256.968 1375.76 Q255.162 1379.3 255.162 1386.43 Q255.162 1393.54 256.968 1397.1 Q258.796 1400.64 262.408 1400.64 Q266.042 1400.64 267.847 1397.1 Q269.676 1393.54 269.676 1386.43 Q269.676 1379.3 267.847 1375.76 Q266.042 1372.19 262.408 1372.19 M262.408 1368.49 Q268.218 1368.49 271.273 1373.1 Q274.352 1377.68 274.352 1386.43 Q274.352 1395.16 271.273 1399.76 Q268.218 1404.35 262.408 1404.35 Q256.597 1404.35 253.519 1399.76 Q250.463 1395.16 250.463 1386.43 Q250.463 1377.68 253.519 1373.1 Q256.597 1368.49 262.408 1368.49 Z" fill="#000000" fill-rule="evenodd" fill-opacity="1" /><path clip-path="url(#clip090)" d="M127.917 1182.41 Q124.306 1182.41 122.478 1185.98 Q120.672 1189.52 120.672 1196.65 Q120.672 1203.76 122.478 1207.32 Q124.306 1210.86 127.917 1210.86 Q131.552 1210.86 133.357 1207.32 Q135.186 1203.76 135.186 1196.65 Q135.186 1189.52 133.357 1185.98 Q131.552 1182.41 127.917 1182.41 M127.917 1178.71 Q133.728 1178.71 136.783 1183.32 Q139.862 1187.9 139.862 1196.65 Q139.862 1205.38 136.783 1209.98 Q133.728 1214.57 127.917 1214.57 Q122.107 1214.57 119.029 1209.98 Q115.973 1205.38 115.973 1196.65 Q115.973 1187.9 119.029 1183.32 Q122.107 1178.71 127.917 1178.71 Z" fill="#000000" fill-rule="evenodd" fill-opacity="1" /><path clip-path="url(#clip090)" d="M148.079 1208.02 L152.964 1208.02 L152.964 1213.9 L148.079 1213.9 L148.079 1208.02 Z" fill="#000000" fill-rule="evenodd" fill-opacity="1" /><path clip-path="url(#clip090)" d="M173.149 1182.41 Q169.538 1182.41 167.709 1185.98 Q165.903 1189.52 165.903 1196.65 Q165.903 1203.76 167.709 1207.32 Q169.538 1210.86 173.149 1210.86 Q176.783 1210.86 178.589 1207.32 Q180.417 1203.76 180.417 1196.65 Q180.417 1189.52 178.589 1185.98 Q176.783 1182.41 173.149 1182.41 M173.149 1178.71 Q178.959 1178.71 182.014 1183.32 Q185.093 1187.9 185.093 1196.65 Q185.093 1205.38 182.014 1209.98 Q178.959 1214.57 173.149 1214.57 Q167.339 1214.57 164.26 1209.98 Q161.204 1205.38 161.204 1196.65 Q161.204 1187.9 164.26 1183.32 Q167.339 1178.71 173.149 1178.71 Z" fill="#000000" fill-rule="evenodd" fill-opacity="1" /><path clip-path="url(#clip090)" d="M203.311 1182.41 Q199.7 1182.41 197.871 1185.98 Q196.065 1189.52 196.065 1196.65 Q196.065 1203.76 197.871 1207.32 Q199.7 1210.86 203.311 1210.86 Q206.945 1210.86 208.75 1207.32 Q210.579 1203.76 210.579 1196.65 Q210.579 1189.52 208.75 1185.98 Q206.945 1182.41 203.311 1182.41 M203.311 1178.71 Q209.121 1178.71 212.176 1183.32 Q215.255 1187.9 215.255 1196.65 Q215.255 1205.38 212.176 1209.98 Q209.121 1214.57 203.311 1214.57 Q197.5 1214.57 194.422 1209.98 Q191.366 1205.38 191.366 1196.65 Q191.366 1187.9 194.422 1183.32 Q197.5 1178.71 203.311 1178.71 Z" fill="#000000" fill-rule="evenodd" fill-opacity="1" /><path clip-path="url(#clip090)" d="M233.472 1182.41 Q229.861 1182.41 228.033 1185.98 Q226.227 1189.52 226.227 1196.65 Q226.227 1203.76 228.033 1207.32 Q229.861 1210.86 233.472 1210.86 Q237.107 1210.86 238.912 1207.32 Q240.741 1203.76 240.741 1196.65 Q240.741 1189.52 238.912 1185.98 Q237.107 1182.41 233.472 1182.41 M233.472 1178.71 Q239.283 1178.71 242.338 1183.32 Q245.417 1187.9 245.417 1196.65 Q245.417 1205.38 242.338 1209.98 Q239.283 1214.57 233.472 1214.57 Q227.662 1214.57 224.584 1209.98 Q221.528 1205.38 221.528 1196.65 Q221.528 1187.9 224.584 1183.32 Q227.662 1178.71 233.472 1178.71 Z" fill="#000000" fill-rule="evenodd" fill-opacity="1" /><path clip-path="url(#clip090)" d="M254.445 1209.96 L262.083 1209.96 L262.083 1183.6 L253.773 1185.26 L253.773 1181 L262.037 1179.34 L266.713 1179.34 L266.713 1209.96 L274.352 1209.96 L274.352 1213.9 L254.445 1213.9 L254.445 1209.96 Z" fill="#000000" fill-rule="evenodd" fill-opacity="1" /><path clip-path="url(#clip090)" d="M128.288 992.635 Q124.677 992.635 122.848 996.199 Q121.043 999.741 121.043 1006.87 Q121.043 1013.98 122.848 1017.54 Q124.677 1021.08 128.288 1021.08 Q131.922 1021.08 133.728 1017.54 Q135.556 1013.98 135.556 1006.87 Q135.556 999.741 133.728 996.199 Q131.922 992.635 128.288 992.635 M128.288 988.931 Q134.098 988.931 137.154 993.537 Q140.232 998.121 140.232 1006.87 Q140.232 1015.6 137.154 1020.2 Q134.098 1024.79 128.288 1024.79 Q122.478 1024.79 119.399 1020.2 Q116.343 1015.6 116.343 1006.87 Q116.343 998.121 119.399 993.537 Q122.478 988.931 128.288 988.931 Z" fill="#000000" fill-rule="evenodd" fill-opacity="1" /><path clip-path="url(#clip090)" d="M148.45 1018.24 L153.334 1018.24 L153.334 1024.12 L148.45 1024.12 L148.45 1018.24 Z" fill="#000000" fill-rule="evenodd" fill-opacity="1" /><path clip-path="url(#clip090)" d="M173.519 992.635 Q169.908 992.635 168.079 996.199 Q166.274 999.741 166.274 1006.87 Q166.274 1013.98 168.079 1017.54 Q169.908 1021.08 173.519 1021.08 Q177.153 1021.08 178.959 1017.54 Q180.788 1013.98 180.788 1006.87 Q180.788 999.741 178.959 996.199 Q177.153 992.635 173.519 992.635 M173.519 988.931 Q179.329 988.931 182.385 993.537 Q185.463 998.121 185.463 1006.87 Q185.463 1015.6 182.385 1020.2 Q179.329 1024.79 173.519 1024.79 Q167.709 1024.79 164.63 1020.2 Q161.575 1015.6 161.575 1006.87 Q161.575 998.121 164.63 993.537 Q167.709 988.931 173.519 988.931 Z" fill="#000000" fill-rule="evenodd" fill-opacity="1" /><path clip-path="url(#clip090)" d="M203.681 992.635 Q200.07 992.635 198.241 996.199 Q196.436 999.741 196.436 1006.87 Q196.436 1013.98 198.241 1017.54 Q200.07 1021.08 203.681 1021.08 Q207.315 1021.08 209.121 1017.54 Q210.949 1013.98 210.949 1006.87 Q210.949 999.741 209.121 996.199 Q207.315 992.635 203.681 992.635 M203.681 988.931 Q209.491 988.931 212.547 993.537 Q215.625 998.121 215.625 1006.87 Q215.625 1015.6 212.547 1020.2 Q209.491 1024.79 203.681 1024.79 Q197.871 1024.79 194.792 1020.2 Q191.737 1015.6 191.737 1006.87 Q191.737 998.121 194.792 993.537 Q197.871 988.931 203.681 988.931 Z" fill="#000000" fill-rule="evenodd" fill-opacity="1" /><path clip-path="url(#clip090)" d="M233.843 992.635 Q230.232 992.635 228.403 996.199 Q226.598 999.741 226.598 1006.87 Q226.598 1013.98 228.403 1017.54 Q230.232 1021.08 233.843 1021.08 Q237.477 1021.08 239.283 1017.54 Q241.111 1013.98 241.111 1006.87 Q241.111 999.741 239.283 996.199 Q237.477 992.635 233.843 992.635 M233.843 988.931 Q239.653 988.931 242.709 993.537 Q245.787 998.121 245.787 1006.87 Q245.787 1015.6 242.709 1020.2 Q239.653 1024.79 233.843 1024.79 Q228.033 1024.79 224.954 1020.2 Q221.898 1015.6 221.898 1006.87 Q221.898 998.121 224.954 993.537 Q228.033 988.931 233.843 988.931 Z" fill="#000000" fill-rule="evenodd" fill-opacity="1" /><path clip-path="url(#clip090)" d="M258.033 1020.18 L274.352 1020.18 L274.352 1024.12 L252.408 1024.12 L252.408 1020.18 Q255.07 1017.43 259.653 1012.8 Q264.259 1008.14 265.44 1006.8 Q267.685 1004.28 268.565 1002.54 Q269.468 1000.78 269.468 999.093 Q269.468 996.338 267.523 994.602 Q265.602 992.866 262.5 992.866 Q260.301 992.866 257.847 993.63 Q255.417 994.394 252.639 995.945 L252.639 991.223 Q255.463 990.088 257.917 989.51 Q260.37 988.931 262.408 988.931 Q267.778 988.931 270.972 991.616 Q274.167 994.301 274.167 998.792 Q274.167 1000.92 273.357 1002.84 Q272.569 1004.74 270.463 1007.33 Q269.884 1008 266.782 1011.22 Q263.681 1014.42 258.033 1020.18 Z" fill="#000000" fill-rule="evenodd" fill-opacity="1" /><path clip-path="url(#clip090)" d="M127.339 802.855 Q123.728 802.855 121.899 806.419 Q120.093 809.961 120.093 817.091 Q120.093 824.197 121.899 827.762 Q123.728 831.304 127.339 831.304 Q130.973 831.304 132.779 827.762 Q134.607 824.197 134.607 817.091 Q134.607 809.961 132.779 806.419 Q130.973 802.855 127.339 802.855 M127.339 799.151 Q133.149 799.151 136.204 803.757 Q139.283 808.341 139.283 817.091 Q139.283 825.818 136.204 830.424 Q133.149 835.007 127.339 835.007 Q121.529 835.007 118.45 830.424 Q115.394 825.818 115.394 817.091 Q115.394 808.341 118.45 803.757 Q121.529 799.151 127.339 799.151 Z" fill="#000000" fill-rule="evenodd" fill-opacity="1" /><path clip-path="url(#clip090)" d="M147.501 828.456 L152.385 828.456 L152.385 834.336 L147.501 834.336 L147.501 828.456 Z" fill="#000000" fill-rule="evenodd" fill-opacity="1" /><path clip-path="url(#clip090)" d="M172.57 802.855 Q168.959 802.855 167.13 806.419 Q165.325 809.961 165.325 817.091 Q165.325 824.197 167.13 827.762 Q168.959 831.304 172.57 831.304 Q176.204 831.304 178.01 827.762 Q179.839 824.197 179.839 817.091 Q179.839 809.961 178.01 806.419 Q176.204 802.855 172.57 802.855 M172.57 799.151 Q178.38 799.151 181.436 803.757 Q184.514 808.341 184.514 817.091 Q184.514 825.818 181.436 830.424 Q178.38 835.007 172.57 835.007 Q166.76 835.007 163.681 830.424 Q160.626 825.818 160.626 817.091 Q160.626 808.341 163.681 803.757 Q166.76 799.151 172.57 799.151 Z" fill="#000000" fill-rule="evenodd" fill-opacity="1" /><path clip-path="url(#clip090)" d="M202.732 802.855 Q199.121 802.855 197.292 806.419 Q195.487 809.961 195.487 817.091 Q195.487 824.197 197.292 827.762 Q199.121 831.304 202.732 831.304 Q206.366 831.304 208.172 827.762 Q210 824.197 210 817.091 Q210 809.961 208.172 806.419 Q206.366 802.855 202.732 802.855 M202.732 799.151 Q208.542 799.151 211.598 803.757 Q214.676 808.341 214.676 817.091 Q214.676 825.818 211.598 830.424 Q208.542 835.007 202.732 835.007 Q196.922 835.007 193.843 830.424 Q190.788 825.818 190.788 817.091 Q190.788 808.341 193.843 803.757 Q196.922 799.151 202.732 799.151 Z" fill="#000000" fill-rule="evenodd" fill-opacity="1" /><path clip-path="url(#clip090)" d="M232.894 802.855 Q229.283 802.855 227.454 806.419 Q225.648 809.961 225.648 817.091 Q225.648 824.197 227.454 827.762 Q229.283 831.304 232.894 831.304 Q236.528 831.304 238.334 827.762 Q240.162 824.197 240.162 817.091 Q240.162 809.961 238.334 806.419 Q236.528 802.855 232.894 802.855 M232.894 799.151 Q238.704 799.151 241.759 803.757 Q244.838 808.341 244.838 817.091 Q244.838 825.818 241.759 830.424 Q238.704 835.007 232.894 835.007 Q227.084 835.007 224.005 830.424 Q220.949 825.818 220.949 817.091 Q220.949 808.341 224.005 803.757 Q227.084 799.151 232.894 799.151 Z" fill="#000000" fill-rule="evenodd" fill-opacity="1" /><path clip-path="url(#clip090)" d="M267.222 815.702 Q270.579 816.419 272.454 818.688 Q274.352 820.956 274.352 824.29 Q274.352 829.405 270.833 832.206 Q267.315 835.007 260.833 835.007 Q258.658 835.007 256.343 834.567 Q254.051 834.151 251.597 833.294 L251.597 828.78 Q253.542 829.915 255.857 830.493 Q258.171 831.072 260.695 831.072 Q265.093 831.072 267.384 829.336 Q269.699 827.6 269.699 824.29 Q269.699 821.234 267.546 819.521 Q265.417 817.785 261.597 817.785 L257.57 817.785 L257.57 813.943 L261.783 813.943 Q265.232 813.943 267.06 812.577 Q268.889 811.188 268.889 808.595 Q268.889 805.933 266.991 804.521 Q265.116 803.086 261.597 803.086 Q259.676 803.086 257.477 803.503 Q255.278 803.919 252.639 804.799 L252.639 800.632 Q255.301 799.892 257.616 799.521 Q259.954 799.151 262.014 799.151 Q267.338 799.151 270.44 801.582 Q273.542 803.989 273.542 808.109 Q273.542 810.98 271.898 812.97 Q270.255 814.938 267.222 815.702 Z" fill="#000000" fill-rule="evenodd" fill-opacity="1" /><path clip-path="url(#clip090)" d="M126.205 613.075 Q122.593 613.075 120.765 616.64 Q118.959 620.181 118.959 627.311 Q118.959 634.417 120.765 637.982 Q122.593 641.524 126.205 641.524 Q129.839 641.524 131.644 637.982 Q133.473 634.417 133.473 627.311 Q133.473 620.181 131.644 616.64 Q129.839 613.075 126.205 613.075 M126.205 609.371 Q132.015 609.371 135.07 613.978 Q138.149 618.561 138.149 627.311 Q138.149 636.038 135.07 640.644 Q132.015 645.227 126.205 645.227 Q120.394 645.227 117.316 640.644 Q114.26 636.038 114.26 627.311 Q114.26 618.561 117.316 613.978 Q120.394 609.371 126.205 609.371 Z" fill="#000000" fill-rule="evenodd" fill-opacity="1" /><path clip-path="url(#clip090)" d="M146.366 638.676 L151.251 638.676 L151.251 644.556 L146.366 644.556 L146.366 638.676 Z" fill="#000000" fill-rule="evenodd" fill-opacity="1" /><path clip-path="url(#clip090)" d="M171.436 613.075 Q167.825 613.075 165.996 616.64 Q164.19 620.181 164.19 627.311 Q164.19 634.417 165.996 637.982 Q167.825 641.524 171.436 641.524 Q175.07 641.524 176.876 637.982 Q178.704 634.417 178.704 627.311 Q178.704 620.181 176.876 616.64 Q175.07 613.075 171.436 613.075 M171.436 609.371 Q177.246 609.371 180.301 613.978 Q183.38 618.561 183.38 627.311 Q183.38 636.038 180.301 640.644 Q177.246 645.227 171.436 645.227 Q165.626 645.227 162.547 640.644 Q159.491 636.038 159.491 627.311 Q159.491 618.561 162.547 613.978 Q165.626 609.371 171.436 609.371 Z" fill="#000000" fill-rule="evenodd" fill-opacity="1" /><path clip-path="url(#clip090)" d="M201.598 613.075 Q197.987 613.075 196.158 616.64 Q194.352 620.181 194.352 627.311 Q194.352 634.417 196.158 637.982 Q197.987 641.524 201.598 641.524 Q205.232 641.524 207.037 637.982 Q208.866 634.417 208.866 627.311 Q208.866 620.181 207.037 616.64 Q205.232 613.075 201.598 613.075 M201.598 609.371 Q207.408 609.371 210.463 613.978 Q213.542 618.561 213.542 627.311 Q213.542 636.038 210.463 640.644 Q207.408 645.227 201.598 645.227 Q195.787 645.227 192.709 640.644 Q189.653 636.038 189.653 627.311 Q189.653 618.561 192.709 613.978 Q195.787 609.371 201.598 609.371 Z" fill="#000000" fill-rule="evenodd" fill-opacity="1" /><path clip-path="url(#clip090)" d="M231.76 613.075 Q228.148 613.075 226.32 616.64 Q224.514 620.181 224.514 627.311 Q224.514 634.417 226.32 637.982 Q228.148 641.524 231.76 641.524 Q235.394 641.524 237.199 637.982 Q239.028 634.417 239.028 627.311 Q239.028 620.181 237.199 616.64 Q235.394 613.075 231.76 613.075 M231.76 609.371 Q237.57 609.371 240.625 613.978 Q243.704 618.561 243.704 627.311 Q243.704 636.038 240.625 640.644 Q237.57 645.227 231.76 645.227 Q225.949 645.227 222.871 640.644 Q219.815 636.038 219.815 627.311 Q219.815 618.561 222.871 613.978 Q225.949 609.371 231.76 609.371 Z" fill="#000000" fill-rule="evenodd" fill-opacity="1" /><path clip-path="url(#clip090)" d="M264.769 614.07 L252.963 632.519 L264.769 632.519 L264.769 614.07 M263.542 609.996 L269.421 609.996 L269.421 632.519 L274.352 632.519 L274.352 636.408 L269.421 636.408 L269.421 644.556 L264.769 644.556 L264.769 636.408 L249.167 636.408 L249.167 631.894 L263.542 609.996 Z" fill="#000000" fill-rule="evenodd" fill-opacity="1" /><path clip-path="url(#clip090)" d="M127.686 423.295 Q124.075 423.295 122.246 426.86 Q120.441 430.401 120.441 437.531 Q120.441 444.637 122.246 448.202 Q124.075 451.744 127.686 451.744 Q131.32 451.744 133.126 448.202 Q134.954 444.637 134.954 437.531 Q134.954 430.401 133.126 426.86 Q131.32 423.295 127.686 423.295 M127.686 419.591 Q133.496 419.591 136.552 424.198 Q139.63 428.781 139.63 437.531 Q139.63 446.258 136.552 450.864 Q133.496 455.447 127.686 455.447 Q121.876 455.447 118.797 450.864 Q115.742 446.258 115.742 437.531 Q115.742 428.781 118.797 424.198 Q121.876 419.591 127.686 419.591 Z" fill="#000000" fill-rule="evenodd" fill-opacity="1" /><path clip-path="url(#clip090)" d="M147.848 448.897 L152.732 448.897 L152.732 454.776 L147.848 454.776 L147.848 448.897 Z" fill="#000000" fill-rule="evenodd" fill-opacity="1" /><path clip-path="url(#clip090)" d="M172.917 423.295 Q169.306 423.295 167.477 426.86 Q165.672 430.401 165.672 437.531 Q165.672 444.637 167.477 448.202 Q169.306 451.744 172.917 451.744 Q176.551 451.744 178.357 448.202 Q180.186 444.637 180.186 437.531 Q180.186 430.401 178.357 426.86 Q176.551 423.295 172.917 423.295 M172.917 419.591 Q178.727 419.591 181.783 424.198 Q184.862 428.781 184.862 437.531 Q184.862 446.258 181.783 450.864 Q178.727 455.447 172.917 455.447 Q167.107 455.447 164.028 450.864 Q160.973 446.258 160.973 437.531 Q160.973 428.781 164.028 424.198 Q167.107 419.591 172.917 419.591 Z" fill="#000000" fill-rule="evenodd" fill-opacity="1" /><path clip-path="url(#clip090)" d="M203.079 423.295 Q199.468 423.295 197.639 426.86 Q195.834 430.401 195.834 437.531 Q195.834 444.637 197.639 448.202 Q199.468 451.744 203.079 451.744 Q206.713 451.744 208.519 448.202 Q210.348 444.637 210.348 437.531 Q210.348 430.401 208.519 426.86 Q206.713 423.295 203.079 423.295 M203.079 419.591 Q208.889 419.591 211.945 424.198 Q215.024 428.781 215.024 437.531 Q215.024 446.258 211.945 450.864 Q208.889 455.447 203.079 455.447 Q197.269 455.447 194.19 450.864 Q191.135 446.258 191.135 437.531 Q191.135 428.781 194.19 424.198 Q197.269 419.591 203.079 419.591 Z" fill="#000000" fill-rule="evenodd" fill-opacity="1" /><path clip-path="url(#clip090)" d="M233.241 423.295 Q229.63 423.295 227.801 426.86 Q225.996 430.401 225.996 437.531 Q225.996 444.637 227.801 448.202 Q229.63 451.744 233.241 451.744 Q236.875 451.744 238.681 448.202 Q240.509 444.637 240.509 437.531 Q240.509 430.401 238.681 426.86 Q236.875 423.295 233.241 423.295 M233.241 419.591 Q239.051 419.591 242.107 424.198 Q245.185 428.781 245.185 437.531 Q245.185 446.258 242.107 450.864 Q239.051 455.447 233.241 455.447 Q227.431 455.447 224.352 450.864 Q221.297 446.258 221.297 437.531 Q221.297 428.781 224.352 424.198 Q227.431 419.591 233.241 419.591 Z" fill="#000000" fill-rule="evenodd" fill-opacity="1" /><path clip-path="url(#clip090)" d="M253.449 420.216 L271.806 420.216 L271.806 424.151 L257.732 424.151 L257.732 432.624 Q258.75 432.276 259.769 432.114 Q260.787 431.929 261.806 431.929 Q267.593 431.929 270.972 435.1 Q274.352 438.272 274.352 443.688 Q274.352 449.267 270.88 452.369 Q267.407 455.447 261.088 455.447 Q258.912 455.447 256.644 455.077 Q254.398 454.707 251.991 453.966 L251.991 449.267 Q254.074 450.401 256.296 450.957 Q258.519 451.512 260.995 451.512 Q265 451.512 267.338 449.406 Q269.676 447.299 269.676 443.688 Q269.676 440.077 267.338 437.971 Q265 435.864 260.995 435.864 Q259.12 435.864 257.246 436.281 Q255.394 436.698 253.449 437.577 L253.449 420.216 Z" fill="#000000" fill-rule="evenodd" fill-opacity="1" /><path clip-path="url(#clip090)" d="M126.529 233.515 Q122.918 233.515 121.089 237.08 Q119.283 240.621 119.283 247.751 Q119.283 254.857 121.089 258.422 Q122.918 261.964 126.529 261.964 Q130.163 261.964 131.968 258.422 Q133.797 254.857 133.797 247.751 Q133.797 240.621 131.968 237.08 Q130.163 233.515 126.529 233.515 M126.529 229.811 Q132.339 229.811 135.394 234.418 Q138.473 239.001 138.473 247.751 Q138.473 256.478 135.394 261.084 Q132.339 265.668 126.529 265.668 Q120.718 265.668 117.64 261.084 Q114.584 256.478 114.584 247.751 Q114.584 239.001 117.64 234.418 Q120.718 229.811 126.529 229.811 Z" fill="#000000" fill-rule="evenodd" fill-opacity="1" /><path clip-path="url(#clip090)" d="M146.691 259.117 L151.575 259.117 L151.575 264.996 L146.691 264.996 L146.691 259.117 Z" fill="#000000" fill-rule="evenodd" fill-opacity="1" /><path clip-path="url(#clip090)" d="M171.76 233.515 Q168.149 233.515 166.32 237.08 Q164.515 240.621 164.515 247.751 Q164.515 254.857 166.32 258.422 Q168.149 261.964 171.76 261.964 Q175.394 261.964 177.2 258.422 Q179.028 254.857 179.028 247.751 Q179.028 240.621 177.2 237.08 Q175.394 233.515 171.76 233.515 M171.76 229.811 Q177.57 229.811 180.626 234.418 Q183.704 239.001 183.704 247.751 Q183.704 256.478 180.626 261.084 Q177.57 265.668 171.76 265.668 Q165.95 265.668 162.871 261.084 Q159.815 256.478 159.815 247.751 Q159.815 239.001 162.871 234.418 Q165.95 229.811 171.76 229.811 Z" fill="#000000" fill-rule="evenodd" fill-opacity="1" /><path clip-path="url(#clip090)" d="M201.922 233.515 Q198.311 233.515 196.482 237.08 Q194.676 240.621 194.676 247.751 Q194.676 254.857 196.482 258.422 Q198.311 261.964 201.922 261.964 Q205.556 261.964 207.362 258.422 Q209.19 254.857 209.19 247.751 Q209.19 240.621 207.362 237.08 Q205.556 233.515 201.922 233.515 M201.922 229.811 Q207.732 229.811 210.787 234.418 Q213.866 239.001 213.866 247.751 Q213.866 256.478 210.787 261.084 Q207.732 265.668 201.922 265.668 Q196.112 265.668 193.033 261.084 Q189.977 256.478 189.977 247.751 Q189.977 239.001 193.033 234.418 Q196.112 229.811 201.922 229.811 Z" fill="#000000" fill-rule="evenodd" fill-opacity="1" /><path clip-path="url(#clip090)" d="M232.084 233.515 Q228.473 233.515 226.644 237.08 Q224.838 240.621 224.838 247.751 Q224.838 254.857 226.644 258.422 Q228.473 261.964 232.084 261.964 Q235.718 261.964 237.523 258.422 Q239.352 254.857 239.352 247.751 Q239.352 240.621 237.523 237.08 Q235.718 233.515 232.084 233.515 M232.084 229.811 Q237.894 229.811 240.949 234.418 Q244.028 239.001 244.028 247.751 Q244.028 256.478 240.949 261.084 Q237.894 265.668 232.084 265.668 Q226.273 265.668 223.195 261.084 Q220.139 256.478 220.139 247.751 Q220.139 239.001 223.195 234.418 Q226.273 229.811 232.084 229.811 Z" fill="#000000" fill-rule="evenodd" fill-opacity="1" /><path clip-path="url(#clip090)" d="M262.824 245.853 Q259.676 245.853 257.824 248.006 Q255.996 250.158 255.996 253.908 Q255.996 257.635 257.824 259.811 Q259.676 261.964 262.824 261.964 Q265.972 261.964 267.801 259.811 Q269.653 257.635 269.653 253.908 Q269.653 250.158 267.801 248.006 Q265.972 245.853 262.824 245.853 M272.107 231.2 L272.107 235.459 Q270.347 234.626 268.542 234.186 Q266.759 233.746 265 233.746 Q260.37 233.746 257.917 236.871 Q255.486 239.996 255.139 246.316 Q256.505 244.302 258.565 243.237 Q260.625 242.149 263.102 242.149 Q268.31 242.149 271.32 245.32 Q274.352 248.469 274.352 253.908 Q274.352 259.232 271.204 262.45 Q268.056 265.668 262.824 265.668 Q256.829 265.668 253.658 261.084 Q250.486 256.478 250.486 247.751 Q250.486 239.557 254.375 234.696 Q258.264 229.811 264.815 229.811 Q266.574 229.811 268.357 230.159 Q270.162 230.506 272.107 231.2 Z" fill="#000000" fill-rule="evenodd" fill-opacity="1" /><path clip-path="url(#clip090)" d="M41.3104 1089.3 L58.7206 1089.3 L58.7206 1078.99 Q58.7206 1073.8 56.5881 1071.32 Q54.4238 1068.81 49.9996 1068.81 Q45.5436 1068.81 43.4429 1071.32 Q41.3104 1073.8 41.3104 1078.99 L41.3104 1089.3 M21.7677 1089.3 L36.0905 1089.3 L36.0905 1079.79 Q36.0905 1075.08 34.34 1072.78 Q32.5576 1070.46 28.9291 1070.46 Q25.3325 1070.46 23.5501 1072.78 Q21.7677 1075.08 21.7677 1079.79 L21.7677 1089.3 M16.4842 1095.73 L16.4842 1079.31 Q16.4842 1071.96 19.5397 1067.98 Q22.5952 1064 28.2289 1064 Q32.5894 1064 35.1675 1066.04 Q37.7456 1068.07 38.3822 1072.02 Q39.4007 1067.28 42.6472 1064.67 Q45.8619 1062.03 50.6998 1062.03 Q57.0655 1062.03 60.5348 1066.36 Q64.0042 1070.68 64.0042 1078.67 L64.0042 1095.73 L16.4842 1095.73 Z" fill="#000000" fill-rule="evenodd" fill-opacity="1" /><path clip-path="url(#clip090)" d="M32.4621 1037.46 Q32.4621 1042.17 36.1542 1044.9 Q39.8145 1047.64 46.212 1047.64 Q52.6095 1047.64 56.3017 1044.93 Q59.9619 1042.2 59.9619 1037.46 Q59.9619 1032.78 56.2698 1030.04 Q52.5777 1027.3 46.212 1027.3 Q39.8781 1027.3 36.186 1030.04 Q32.4621 1032.78 32.4621 1037.46 M27.4968 1037.46 Q27.4968 1029.82 32.4621 1025.46 Q37.4273 1021.1 46.212 1021.1 Q54.9649 1021.1 59.9619 1025.46 Q64.9272 1029.82 64.9272 1037.46 Q64.9272 1045.13 59.9619 1049.49 Q54.9649 1053.81 46.212 1053.81 Q37.4273 1053.81 32.4621 1049.49 Q27.4968 1045.13 27.4968 1037.46 Z" fill="#000000" fill-rule="evenodd" fill-opacity="1" /><path clip-path="url(#clip090)" d="M18.2347 1005.59 L28.3562 1005.59 L28.3562 993.532 L32.9077 993.532 L32.9077 1005.59 L52.2594 1005.59 Q56.6199 1005.59 57.8613 1004.42 Q59.1026 1003.21 59.1026 999.547 L59.1026 993.532 L64.0042 993.532 L64.0042 999.547 Q64.0042 1006.33 61.4897 1008.9 Q58.9434 1011.48 52.2594 1011.48 L32.9077 1011.48 L32.9077 1015.78 L28.3562 1015.78 L28.3562 1011.48 L18.2347 1011.48 L18.2347 1005.59 Z" fill="#000000" fill-rule="evenodd" fill-opacity="1" /><path clip-path="url(#clip090)" d="M18.2347 980.036 L28.3562 980.036 L28.3562 967.973 L32.9077 967.973 L32.9077 980.036 L52.2594 980.036 Q56.6199 980.036 57.8613 978.859 Q59.1026 977.649 59.1026 973.989 L59.1026 967.973 L64.0042 967.973 L64.0042 973.989 Q64.0042 980.768 61.4897 983.347 Q58.9434 985.925 52.2594 985.925 L32.9077 985.925 L32.9077 990.222 L28.3562 990.222 L28.3562 985.925 L18.2347 985.925 L18.2347 980.036 Z" fill="#000000" fill-rule="evenodd" fill-opacity="1" /><path clip-path="url(#clip090)" d="M14.479 960.271 L14.479 954.414 L64.0042 954.414 L64.0042 960.271 L14.479 960.271 Z" fill="#000000" fill-rule="evenodd" fill-opacity="1" /><path clip-path="url(#clip090)" d="M44.7161 911.669 L47.5806 911.669 L47.5806 938.596 Q53.6281 938.214 56.8109 934.967 Q59.9619 931.689 59.9619 925.864 Q59.9619 922.49 59.1344 919.339 Q58.3069 916.157 56.6518 913.037 L62.1899 913.037 Q63.5267 916.188 64.227 919.499 Q64.9272 922.809 64.9272 926.214 Q64.9272 934.744 59.9619 939.741 Q54.9967 944.707 46.5303 944.707 Q37.7774 944.707 32.6531 939.996 Q27.4968 935.254 27.4968 927.233 Q27.4968 920.04 32.1438 915.87 Q36.7589 911.669 44.7161 911.669 M42.9973 917.525 Q38.1912 917.589 35.3266 920.231 Q32.4621 922.841 32.4621 927.169 Q32.4621 932.071 35.2312 935.031 Q38.0002 937.959 43.0292 938.405 L42.9973 917.525 Z" fill="#000000" fill-rule="evenodd" fill-opacity="1" /><path clip-path="url(#clip090)" d="M42.4881 872.424 L64.0042 872.424 L64.0042 878.281 L42.679 878.281 Q37.6183 878.281 35.1038 880.254 Q32.5894 882.227 32.5894 886.174 Q32.5894 890.916 35.6131 893.654 Q38.6368 896.391 43.8567 896.391 L64.0042 896.391 L64.0042 902.279 L28.3562 902.279 L28.3562 896.391 L33.8944 896.391 Q30.6797 894.29 29.0883 891.458 Q27.4968 888.593 27.4968 884.869 Q27.4968 878.726 31.3163 875.575 Q35.1038 872.424 42.4881 872.424 Z" fill="#000000" fill-rule="evenodd" fill-opacity="1" /><path clip-path="url(#clip090)" d="M44.7161 830.251 L47.5806 830.251 L47.5806 857.178 Q53.6281 856.796 56.8109 853.55 Q59.9619 850.271 59.9619 844.447 Q59.9619 841.073 59.1344 837.922 Q58.3069 834.739 56.6518 831.62 L62.1899 831.62 Q63.5267 834.771 64.227 838.081 Q64.9272 841.391 64.9272 844.797 Q64.9272 853.327 59.9619 858.324 Q54.9967 863.289 46.5303 863.289 Q37.7774 863.289 32.6531 858.579 Q27.4968 853.836 27.4968 845.815 Q27.4968 838.622 32.1438 834.453 Q36.7589 830.251 44.7161 830.251 M42.9973 836.108 Q38.1912 836.171 35.3266 838.813 Q32.4621 841.423 32.4621 845.752 Q32.4621 850.653 35.2312 853.613 Q38.0002 856.542 43.0292 856.987 L42.9973 836.108 Z" fill="#000000" fill-rule="evenodd" fill-opacity="1" /><path clip-path="url(#clip090)" d="M29.7248 794.985 L35.1993 794.985 Q33.8307 797.468 33.1623 799.982 Q32.4621 802.465 32.4621 805.011 Q32.4621 810.709 36.0905 813.86 Q39.6872 817.011 46.212 817.011 Q52.7369 817.011 56.3653 813.86 Q59.9619 810.709 59.9619 805.011 Q59.9619 802.465 59.2935 799.982 Q58.5933 797.468 57.2247 794.985 L62.6355 794.985 Q63.7814 797.436 64.3543 800.078 Q64.9272 802.688 64.9272 805.648 Q64.9272 813.7 59.8664 818.443 Q54.8057 823.185 46.212 823.185 Q37.491 823.185 32.4939 818.411 Q27.4968 813.605 27.4968 805.266 Q27.4968 802.56 28.0697 799.982 Q28.6108 797.404 29.7248 794.985 Z" fill="#000000" fill-rule="evenodd" fill-opacity="1" /><path clip-path="url(#clip090)" d="M14.479 785.023 L14.479 779.135 L43.7294 779.135 L28.3562 761.661 L28.3562 754.181 L45.0344 773.087 L64.0042 753.385 L64.0042 761.024 L46.5939 779.135 L64.0042 779.135 L64.0042 785.023 L14.479 785.023 Z" fill="#000000" fill-rule="evenodd" fill-opacity="1" /><path clip-path="url(#clip090)" d="M21.7677 719.647 L58.7206 719.647 L58.7206 711.881 Q58.7206 702.046 54.2646 697.495 Q49.8086 692.911 40.1964 692.911 Q30.6479 692.911 26.2237 697.495 Q21.7677 702.046 21.7677 711.881 L21.7677 719.647 M16.4842 726.077 L16.4842 712.868 Q16.4842 699.054 22.2451 692.593 Q27.9743 686.132 40.1964 686.132 Q52.4822 686.132 58.2432 692.625 Q64.0042 699.118 64.0042 712.868 L64.0042 726.077 L16.4842 726.077 Z" fill="#000000" fill-rule="evenodd" fill-opacity="1" /><path clip-path="url(#clip090)" d="M28.3562 676.138 L28.3562 670.281 L64.0042 670.281 L64.0042 676.138 L28.3562 676.138 M14.479 676.138 L14.479 670.281 L21.895 670.281 L21.895 676.138 L14.479 676.138 Z" fill="#000000" fill-rule="evenodd" fill-opacity="1" /><path clip-path="url(#clip090)" d="M29.4065 635.302 L34.9447 635.302 Q33.6716 637.784 33.035 640.458 Q32.3984 643.131 32.3984 645.996 Q32.3984 650.356 33.7352 652.553 Q35.072 654.717 37.7456 654.717 Q39.7826 654.717 40.9603 653.157 Q42.1061 651.598 43.1565 646.887 L43.6021 644.882 Q44.9389 638.644 47.3897 636.034 Q49.8086 633.392 54.1691 633.392 Q59.1344 633.392 62.0308 637.339 Q64.9272 641.253 64.9272 648.128 Q64.9272 650.993 64.3543 654.112 Q63.8132 657.2 62.6992 660.637 L56.6518 660.637 Q58.3387 657.391 59.198 654.24 Q60.0256 651.089 60.0256 648.001 Q60.0256 643.863 58.6251 641.635 Q57.1929 639.407 54.6147 639.407 Q52.2276 639.407 50.9545 641.031 Q49.6813 642.622 48.5037 648.065 L48.0262 650.102 Q46.8804 655.544 44.5251 657.963 Q42.138 660.382 38.0002 660.382 Q32.9713 660.382 30.2341 656.818 Q27.4968 653.253 27.4968 646.696 Q27.4968 643.45 27.9743 640.585 Q28.4517 637.721 29.4065 635.302 Z" fill="#000000" fill-rule="evenodd" fill-opacity="1" /><path clip-path="url(#clip090)" d="M18.2347 618.273 L28.3562 618.273 L28.3562 606.21 L32.9077 606.21 L32.9077 618.273 L52.2594 618.273 Q56.6199 618.273 57.8613 617.096 Q59.1026 615.886 59.1026 612.226 L59.1026 606.21 L64.0042 606.21 L64.0042 612.226 Q64.0042 619.005 61.4897 621.583 Q58.9434 624.162 52.2594 624.162 L32.9077 624.162 L32.9077 628.458 L28.3562 628.458 L28.3562 624.162 L18.2347 624.162 L18.2347 618.273 Z" fill="#000000" fill-rule="evenodd" fill-opacity="1" /><path clip-path="url(#clip090)" d="M46.0847 582.307 Q46.0847 589.405 47.7079 592.142 Q49.3312 594.879 53.2461 594.879 Q56.3653 594.879 58.2114 592.842 Q60.0256 590.773 60.0256 587.24 Q60.0256 582.371 56.5881 579.442 Q53.1188 576.482 47.3897 576.482 L46.0847 576.482 L46.0847 582.307 M43.6657 570.626 L64.0042 570.626 L64.0042 576.482 L58.5933 576.482 Q61.8398 578.488 63.3994 581.48 Q64.9272 584.471 64.9272 588.8 Q64.9272 594.275 61.8716 597.521 Q58.7843 600.736 53.6281 600.736 Q47.6125 600.736 44.5569 596.725 Q41.5014 592.683 41.5014 584.694 L41.5014 576.482 L40.9285 576.482 Q36.8862 576.482 34.6901 579.156 Q32.4621 581.798 32.4621 586.604 Q32.4621 589.659 33.1941 592.556 Q33.9262 595.452 35.3903 598.126 L29.9795 598.126 Q28.7381 594.911 28.1334 591.887 Q27.4968 588.864 27.4968 585.999 Q27.4968 578.265 31.5072 574.445 Q35.5176 570.626 43.6657 570.626 Z" fill="#000000" fill-rule="evenodd" fill-opacity="1" /><path clip-path="url(#clip090)" d="M42.4881 528.931 L64.0042 528.931 L64.0042 534.787 L42.679 534.787 Q37.6183 534.787 35.1038 536.76 Q32.5894 538.734 32.5894 542.681 Q32.5894 547.423 35.6131 550.16 Q38.6368 552.897 43.8567 552.897 L64.0042 552.897 L64.0042 558.786 L28.3562 558.786 L28.3562 552.897 L33.8944 552.897 Q30.6797 550.797 29.0883 547.964 Q27.4968 545.099 27.4968 541.376 Q27.4968 535.233 31.3163 532.082 Q35.1038 528.931 42.4881 528.931 Z" fill="#000000" fill-rule="evenodd" fill-opacity="1" /><path clip-path="url(#clip090)" d="M29.7248 491.596 L35.1993 491.596 Q33.8307 494.078 33.1623 496.593 Q32.4621 499.075 32.4621 501.622 Q32.4621 507.319 36.0905 510.47 Q39.6872 513.621 46.212 513.621 Q52.7369 513.621 56.3653 510.47 Q59.9619 507.319 59.9619 501.622 Q59.9619 499.075 59.2935 496.593 Q58.5933 494.078 57.2247 491.596 L62.6355 491.596 Q63.7814 494.047 64.3543 496.688 Q64.9272 499.298 64.9272 502.258 Q64.9272 510.311 59.8664 515.053 Q54.8057 519.796 46.212 519.796 Q37.491 519.796 32.4939 515.022 Q27.4968 510.215 27.4968 501.876 Q27.4968 499.171 28.0697 496.593 Q28.6108 494.015 29.7248 491.596 Z" fill="#000000" fill-rule="evenodd" fill-opacity="1" /><path clip-path="url(#clip090)" d="M44.7161 450.919 L47.5806 450.919 L47.5806 477.846 Q53.6281 477.464 56.8109 474.217 Q59.9619 470.939 59.9619 465.114 Q59.9619 461.741 59.1344 458.59 Q58.3069 455.407 56.6518 452.287 L62.1899 452.287 Q63.5267 455.439 64.227 458.749 Q64.9272 462.059 64.9272 465.464 Q64.9272 473.995 59.9619 478.992 Q54.9967 483.957 46.5303 483.957 Q37.7774 483.957 32.6531 479.246 Q27.4968 474.504 27.4968 466.483 Q27.4968 459.29 32.1438 455.12 Q36.7589 450.919 44.7161 450.919 M42.9973 456.775 Q38.1912 456.839 35.3266 459.481 Q32.4621 462.091 32.4621 466.419 Q32.4621 471.321 35.2312 474.281 Q38.0002 477.209 43.0292 477.655 L42.9973 456.775 Z" fill="#000000" fill-rule="evenodd" fill-opacity="1" /><path clip-path="url(#clip090)" d="M1172.86 34.4165 Q1171.36 33.8899 1169.86 33.4848 Q1165.85 32.4315 1161.56 32.4315 Q1154.14 32.4315 1150.01 36.4419 Q1146.16 40.1688 1145.44 47.0148 L1172.86 47.0148 L1172.86 52.8481 L1145.44 52.8481 Q1146.16 59.6941 1150.01 63.421 Q1154.14 67.4314 1161.56 67.4314 Q1166.74 67.4314 1169.86 66.3781 L1172.86 65.3654 L1172.86 72.1304 L1169.66 72.8596 Q1165.45 73.7508 1161.11 73.7508 Q1150.26 73.7508 1143.94 67.4314 Q1137.58 61.1119 1137.58 49.9314 Q1137.58 38.7509 1143.94 32.4315 Q1150.26 26.1121 1161.11 26.1121 Q1165.2 26.1121 1169.66 27.0033 Q1171.28 27.3274 1172.86 27.8135 L1172.86 34.4165 Z" fill="#000000" fill-rule="evenodd" fill-opacity="1" /><path clip-path="url(#clip090)" d="M1192.83 34.9026 L1244.76 34.9026 L1244.76 41.7081 L1192.83 41.7081 L1192.83 34.9026 M1192.83 51.4303 L1244.76 51.4303 L1244.76 58.3168 L1192.83 58.3168 L1192.83 51.4303 Z" fill="#000000" fill-rule="evenodd" fill-opacity="1" /><path clip-path="url(#clip090)" d="M1261.37 9.54393 L1268.83 9.54393 L1268.83 72.576 L1261.37 72.576 L1261.37 9.54393 Z" fill="#000000" fill-rule="evenodd" fill-opacity="1" /><path clip-path="url(#clip090)" d="M1302 32.4315 Q1296.01 32.4315 1292.52 37.1306 Q1289.04 41.7891 1289.04 49.9314 Q1289.04 58.0738 1292.48 62.7728 Q1295.97 67.4314 1302 67.4314 Q1307.96 67.4314 1311.44 62.7323 Q1314.92 58.0333 1314.92 49.9314 Q1314.92 41.8701 1311.44 37.1711 Q1307.96 32.4315 1302 32.4315 M1302 26.1121 Q1311.72 26.1121 1317.27 32.4315 Q1322.82 38.7509 1322.82 49.9314 Q1322.82 61.0714 1317.27 67.4314 Q1311.72 73.7508 1302 73.7508 Q1292.24 73.7508 1286.69 67.4314 Q1281.18 61.0714 1281.18 49.9314 Q1281.18 38.7509 1286.69 32.4315 Q1292.24 26.1121 1302 26.1121 Z" fill="#000000" fill-rule="evenodd" fill-opacity="1" /><path clip-path="url(#clip090)" d="M1365.03 49.3643 Q1365.03 41.2625 1361.67 36.8065 Q1358.35 32.3505 1352.31 32.3505 Q1346.32 32.3505 1342.96 36.8065 Q1339.64 41.2625 1339.64 49.3643 Q1339.64 57.4256 1342.96 61.8816 Q1346.32 66.3376 1352.31 66.3376 Q1358.35 66.3376 1361.67 61.8816 Q1365.03 57.4256 1365.03 49.3643 M1372.49 66.9452 Q1372.49 78.5308 1367.34 84.1616 Q1362.2 89.8329 1351.59 89.8329 Q1347.66 89.8329 1344.17 89.2252 Q1340.69 88.6581 1337.41 87.4428 L1337.41 80.1917 Q1340.69 81.9741 1343.89 82.8248 Q1347.09 83.6755 1350.41 83.6755 Q1357.74 83.6755 1361.39 79.8271 Q1365.03 76.0193 1365.03 68.282 L1365.03 64.5957 Q1362.73 68.6061 1359.12 70.5911 Q1355.51 72.576 1350.49 72.576 Q1342.15 72.576 1337.04 66.2161 Q1331.94 59.8562 1331.94 49.3643 Q1331.94 38.832 1337.04 32.472 Q1342.15 26.1121 1350.49 26.1121 Q1355.51 26.1121 1359.12 28.0971 Q1362.73 30.082 1365.03 34.0924 L1365.03 27.2059 L1372.49 27.2059 L1372.49 66.9452 Z" fill="#000000" fill-rule="evenodd" fill-opacity="1" /><path clip-path="url(#clip090)" d="M1384.76 10.2326 L1389.5 10.2326 L1389.5 31.0542 L1403.52 20.1168 L1409.51 20.1168 L1394.32 31.9859 L1410.12 45.516 L1404 45.516 L1389.5 33.1202 L1389.5 45.516 L1384.76 45.516 L1384.76 10.2326 Z" fill="#000000" fill-rule="evenodd" fill-opacity="1" /><path clip-path="url(#clip090)" d="M1441.07 9.62495 Q1435.64 18.942 1433.01 28.0566 Q1430.38 37.1711 1430.38 46.5287 Q1430.38 55.8863 1433.01 65.0818 Q1435.68 74.2369 1441.07 83.5134 L1434.59 83.5134 Q1428.51 73.9938 1425.47 64.7983 Q1422.48 55.6027 1422.48 46.5287 Q1422.48 37.4952 1425.47 28.3401 Q1428.47 19.1851 1434.59 9.62495 L1441.07 9.62495 Z" fill="#000000" fill-rule="evenodd" fill-opacity="1" /><path clip-path="url(#clip090)" d="M1493.25 45.1919 L1493.25 72.576 L1485.79 72.576 L1485.79 45.4349 Q1485.79 38.994 1483.28 35.7938 Q1480.77 32.5936 1475.75 32.5936 Q1469.71 32.5936 1466.23 36.4419 Q1462.74 40.2903 1462.74 46.9338 L1462.74 72.576 L1455.25 72.576 L1455.25 27.2059 L1462.74 27.2059 L1462.74 34.2544 Q1465.42 30.163 1469.02 28.1376 Q1472.67 26.1121 1477.41 26.1121 Q1485.22 26.1121 1489.24 30.9732 Q1493.25 35.7938 1493.25 45.1919 Z" fill="#000000" fill-rule="evenodd" fill-opacity="1" /><path clip-path="url(#clip090)" d="M1506.94 9.62495 L1513.42 9.62495 Q1519.5 19.1851 1522.49 28.3401 Q1525.53 37.4952 1525.53 46.5287 Q1525.53 55.6027 1522.49 64.7983 Q1519.5 73.9938 1513.42 83.5134 L1506.94 83.5134 Q1512.33 74.2369 1514.96 65.0818 Q1517.63 55.8863 1517.63 46.5287 Q1517.63 37.1711 1514.96 28.0566 Q1512.33 18.942 1506.94 9.62495 Z" fill="#000000" fill-rule="evenodd" fill-opacity="1" /><polyline clip-path="url(#clip092)" style="stroke:#009af9; stroke-linecap:butt; stroke-linejoin:round; stroke-width:12; stroke-opacity:1; fill:none" points="
  368.156,654.979 434.597,160.256 567.48,757.312 700.362,1081.96 833.245,1089.56 
  "/>
<polyline clip-path="url(#clip092)" style="stroke:#009af9; stroke-linecap:butt; stroke-linejoin:round; stroke-width:12; stroke-opacity:1; fill:none" points="
  1630.54,1164.68 2294.95,1200.91 
  "/>
<path clip-path="url(#clip092)" d="M368.156 670.979 L356.844 666.291 L352.156 654.979 L356.844 643.667 L368.156 638.979 L379.468 643.667 L384.156 654.979 L379.468 666.291 Z" fill="#009af9" fill-rule="evenodd" fill-opacity="1" stroke="#000000" stroke-opacity="1" stroke-width="3.2"/>
<path clip-path="url(#clip092)" d="M434.597 176.256 L423.285 171.568 L418.597 160.256 L423.285 148.944 L434.597 144.256 L445.909 148.944 L450.597 160.256 L445.909 171.568 Z" fill="#009af9" fill-rule="evenodd" fill-opacity="1" stroke="#000000" stroke-opacity="1" stroke-width="3.2"/>
<path clip-path="url(#clip092)" d="M567.48 773.312 L556.168 768.624 L551.48 757.312 L556.168 746 L567.48 741.312 L578.792 746 L583.48 757.312 L578.792 768.624 Z" fill="#009af9" fill-rule="evenodd" fill-opacity="1" stroke="#000000" stroke-opacity="1" stroke-width="3.2"/>
<path clip-path="url(#clip092)" d="M700.362 1097.96 L689.05 1093.28 L684.362 1081.96 L689.05 1070.65 L700.362 1065.96 L711.674 1070.65 L716.362 1081.96 L711.674 1093.28 Z" fill="#009af9" fill-rule="evenodd" fill-opacity="1" stroke="#000000" stroke-opacity="1" stroke-width="3.2"/>
<path clip-path="url(#clip092)" d="M833.245 1105.56 L821.933 1100.87 L817.245 1089.56 L821.933 1078.25 L833.245 1073.56 L844.557 1078.25 L849.245 1089.56 L844.557 1100.87 Z" fill="#009af9" fill-rule="evenodd" fill-opacity="1" stroke="#000000" stroke-opacity="1" stroke-width="3.2"/>
<path clip-path="url(#clip092)" d="M1630.54 1180.68 L1619.23 1176 L1614.54 1164.68 L1619.23 1153.37 L1630.54 1148.68 L1641.85 1153.37 L1646.54 1164.68 L1641.85 1176 Z" fill="#009af9" fill-rule="evenodd" fill-opacity="1" stroke="#000000" stroke-opacity="1" stroke-width="3.2"/>
<path clip-path="url(#clip092)" d="M2294.95 1216.91 L2283.64 1212.22 L2278.95 1200.91 L2283.64 1189.6 L2294.95 1184.91 L2306.26 1189.6 L2310.95 1200.91 L2306.26 1212.22 Z" fill="#009af9" fill-rule="evenodd" fill-opacity="1" stroke="#000000" stroke-opacity="1" stroke-width="3.2"/>
<polyline clip-path="url(#clip092)" style="stroke:#e26f46; stroke-linecap:butt; stroke-linejoin:round; stroke-width:12; stroke-opacity:1; fill:none" points="
  368.156,1386.4 434.597,1386.4 567.48,1386.4 700.362,1386.4 833.245,1386.4 966.127,1386.4 1298.33,1386.4 1630.54,1386.4 2294.95,1386.4 
  "/>
<path clip-path="url(#clip092)" d="M368.156 1402.4 L356.844 1397.71 L352.156 1386.4 L356.844 1375.08 L368.156 1370.4 L379.468 1375.08 L384.156 1386.4 L379.468 1397.71 Z" fill="#e26f46" fill-rule="evenodd" fill-opacity="1" stroke="#000000" stroke-opacity="1" stroke-width="3.2"/>
<path clip-path="url(#clip092)" d="M434.597 1402.4 L423.285 1397.71 L418.597 1386.4 L423.285 1375.08 L434.597 1370.4 L445.909 1375.08 L450.597 1386.4 L445.909 1397.71 Z" fill="#e26f46" fill-rule="evenodd" fill-opacity="1" stroke="#000000" stroke-opacity="1" stroke-width="3.2"/>
<path clip-path="url(#clip092)" d="M567.48 1402.4 L556.168 1397.71 L551.48 1386.4 L556.168 1375.08 L567.48 1370.4 L578.792 1375.08 L583.48 1386.4 L578.792 1397.71 Z" fill="#e26f46" fill-rule="evenodd" fill-opacity="1" stroke="#000000" stroke-opacity="1" stroke-width="3.2"/>
<path clip-path="url(#clip092)" d="M700.362 1402.4 L689.05 1397.71 L684.362 1386.4 L689.05 1375.08 L700.362 1370.4 L711.674 1375.08 L716.362 1386.4 L711.674 1397.71 Z" fill="#e26f46" fill-rule="evenodd" fill-opacity="1" stroke="#000000" stroke-opacity="1" stroke-width="3.2"/>
<path clip-path="url(#clip092)" d="M833.245 1402.4 L821.933 1397.71 L817.245 1386.4 L821.933 1375.08 L833.245 1370.4 L844.557 1375.08 L849.245 1386.4 L844.557 1397.71 Z" fill="#e26f46" fill-rule="evenodd" fill-opacity="1" stroke="#000000" stroke-opacity="1" stroke-width="3.2"/>
<path clip-path="url(#clip092)" d="M966.127 1402.4 L954.815 1397.71 L950.127 1386.4 L954.815 1375.08 L966.127 1370.4 L977.439 1375.08 L982.127 1386.4 L977.439 1397.71 Z" fill="#e26f46" fill-rule="evenodd" fill-opacity="1" stroke="#000000" stroke-opacity="1" stroke-width="3.2"/>
<path clip-path="url(#clip092)" d="M1298.33 1402.4 L1287.02 1397.71 L1282.33 1386.4 L1287.02 1375.08 L1298.33 1370.4 L1309.65 1375.08 L1314.33 1386.4 L1309.65 1397.71 Z" fill="#e26f46" fill-rule="evenodd" fill-opacity="1" stroke="#000000" stroke-opacity="1" stroke-width="3.2"/>
<path clip-path="url(#clip092)" d="M1630.54 1402.4 L1619.23 1397.71 L1614.54 1386.4 L1619.23 1375.08 L1630.54 1370.4 L1641.85 1375.08 L1646.54 1386.4 L1641.85 1397.71 Z" fill="#e26f46" fill-rule="evenodd" fill-opacity="1" stroke="#000000" stroke-opacity="1" stroke-width="3.2"/>
<path clip-path="url(#clip092)" d="M2294.95 1402.4 L2283.64 1397.71 L2278.95 1386.4 L2283.64 1375.08 L2294.95 1370.4 L2306.26 1375.08 L2310.95 1386.4 L2306.26 1397.71 Z" fill="#e26f46" fill-rule="evenodd" fill-opacity="1" stroke="#000000" stroke-opacity="1" stroke-width="3.2"/>
<path clip-path="url(#clip090)" d="
M1892.47 322.316 L2284.68 322.316 L2284.68 166.796 L1892.47 166.796  Z
  " fill="#ffffff" fill-rule="evenodd" fill-opacity="1"/>
<polyline clip-path="url(#clip090)" style="stroke:#000000; stroke-linecap:butt; stroke-linejoin:round; stroke-width:4; stroke-opacity:1; fill:none" points="
  1892.47,322.316 2284.68,322.316 2284.68,166.796 1892.47,166.796 1892.47,322.316 
  "/>
<polyline clip-path="url(#clip090)" style="stroke:#009af9; stroke-linecap:butt; stroke-linejoin:round; stroke-width:4; stroke-opacity:1; fill:none" points="
  1915.16,218.636 2051.32,218.636 
  "/>
<path clip-path="url(#clip090)" d="M1983.24 244.236 L1965.14 236.735 L1957.64 218.636 L1965.14 200.537 L1983.24 193.036 L2001.34 200.537 L2008.84 218.636 L2001.34 236.735 Z" fill="#009af9" fill-rule="evenodd" fill-opacity="1" stroke="#000000" stroke-opacity="1" stroke-width="5.12"/>
<path clip-path="url(#clip090)" d="M2074.01 199.897 L2078.29 199.897 L2078.29 221.17 L2091 209.99 L2096.44 209.99 L2082.69 222.119 L2097.02 235.916 L2091.47 235.916 L2078.29 223.254 L2078.29 235.916 L2074.01 235.916 L2074.01 199.897 Z" fill="#000000" fill-rule="evenodd" fill-opacity="1" /><path clip-path="url(#clip090)" d="M2102.18 214.388 L2131.86 214.388 L2131.86 218.277 L2102.18 218.277 L2102.18 214.388 M2102.18 223.832 L2131.86 223.832 L2131.86 227.768 L2102.18 227.768 L2102.18 223.832 Z" fill="#000000" fill-rule="evenodd" fill-opacity="1" /><path clip-path="url(#clip090)" d="M2151.95 204.434 Q2148.34 204.434 2146.51 207.999 Q2144.71 211.541 2144.71 218.67 Q2144.71 225.777 2146.51 229.342 Q2148.34 232.883 2151.95 232.883 Q2155.59 232.883 2157.39 229.342 Q2159.22 225.777 2159.22 218.67 Q2159.22 211.541 2157.39 207.999 Q2155.59 204.434 2151.95 204.434 M2151.95 200.731 Q2157.76 200.731 2160.82 205.337 Q2163.9 209.92 2163.9 218.67 Q2163.9 227.397 2160.82 232.004 Q2157.76 236.587 2151.95 236.587 Q2146.14 236.587 2143.06 232.004 Q2140.01 227.397 2140.01 218.67 Q2140.01 209.92 2143.06 205.337 Q2146.14 200.731 2151.95 200.731 Z" fill="#000000" fill-rule="evenodd" fill-opacity="1" /><path clip-path="url(#clip090)" d="M2172.11 230.036 L2177 230.036 L2177 235.916 L2172.11 235.916 L2172.11 230.036 Z" fill="#000000" fill-rule="evenodd" fill-opacity="1" /><path clip-path="url(#clip090)" d="M2187.23 201.356 L2205.59 201.356 L2205.59 205.291 L2191.51 205.291 L2191.51 213.763 Q2192.53 213.416 2193.55 213.254 Q2194.57 213.069 2195.59 213.069 Q2201.37 213.069 2204.75 216.24 Q2208.13 219.411 2208.13 224.828 Q2208.13 230.406 2204.66 233.508 Q2201.19 236.587 2194.87 236.587 Q2192.69 236.587 2190.42 236.217 Q2188.18 235.846 2185.77 235.106 L2185.77 230.406 Q2187.85 231.541 2190.08 232.096 Q2192.3 232.652 2194.78 232.652 Q2198.78 232.652 2201.12 230.545 Q2203.46 228.439 2203.46 224.828 Q2203.46 221.217 2201.12 219.11 Q2198.78 217.004 2194.78 217.004 Q2192.9 217.004 2191.03 217.42 Q2189.17 217.837 2187.23 218.717 L2187.23 201.356 Z" fill="#000000" fill-rule="evenodd" fill-opacity="1" /><polyline clip-path="url(#clip090)" style="stroke:#e26f46; stroke-linecap:butt; stroke-linejoin:round; stroke-width:4; stroke-opacity:1; fill:none" points="
  1915.16,270.476 2051.32,270.476 
  "/>
<path clip-path="url(#clip090)" d="M1983.24 296.076 L1965.14 288.575 L1957.64 270.476 L1965.14 252.377 L1983.24 244.876 L2001.34 252.377 L2008.84 270.476 L2001.34 288.575 Z" fill="#e26f46" fill-rule="evenodd" fill-opacity="1" stroke="#000000" stroke-opacity="1" stroke-width="5.12"/>
<path clip-path="url(#clip090)" d="M2074.01 251.737 L2078.29 251.737 L2078.29 273.01 L2091 261.83 L2096.44 261.83 L2082.69 273.959 L2097.02 287.756 L2091.47 287.756 L2078.29 275.094 L2078.29 287.756 L2074.01 287.756 L2074.01 251.737 Z" fill="#000000" fill-rule="evenodd" fill-opacity="1" /><path clip-path="url(#clip090)" d="M2102.18 266.228 L2131.86 266.228 L2131.86 270.117 L2102.18 270.117 L2102.18 266.228 M2102.18 275.672 L2131.86 275.672 L2131.86 279.608 L2102.18 279.608 L2102.18 275.672 Z" fill="#000000" fill-rule="evenodd" fill-opacity="1" /><path clip-path="url(#clip090)" d="M2142.76 283.821 L2150.4 283.821 L2150.4 257.455 L2142.09 259.122 L2142.09 254.862 L2150.35 253.196 L2155.03 253.196 L2155.03 283.821 L2162.67 283.821 L2162.67 287.756 L2142.76 287.756 L2142.76 283.821 Z" fill="#000000" fill-rule="evenodd" fill-opacity="1" /><path clip-path="url(#clip090)" d="M2172.11 281.876 L2177 281.876 L2177 287.756 L2172.11 287.756 L2172.11 281.876 Z" fill="#000000" fill-rule="evenodd" fill-opacity="1" /><path clip-path="url(#clip090)" d="M2197.18 256.274 Q2193.57 256.274 2191.74 259.839 Q2189.94 263.381 2189.94 270.51 Q2189.94 277.617 2191.74 281.182 Q2193.57 284.723 2197.18 284.723 Q2200.82 284.723 2202.62 281.182 Q2204.45 277.617 2204.45 270.51 Q2204.45 263.381 2202.62 259.839 Q2200.82 256.274 2197.18 256.274 M2197.18 252.571 Q2202.99 252.571 2206.05 257.177 Q2209.13 261.76 2209.13 270.51 Q2209.13 279.237 2206.05 283.844 Q2202.99 288.427 2197.18 288.427 Q2191.37 288.427 2188.29 283.844 Q2185.24 279.237 2185.24 270.51 Q2185.24 261.76 2188.29 257.177 Q2191.37 252.571 2197.18 252.571 Z" fill="#000000" fill-rule="evenodd" fill-opacity="1" /><path clip-path="url(#clip090)" d="M2227.34 256.274 Q2223.73 256.274 2221.9 259.839 Q2220.1 263.381 2220.1 270.51 Q2220.1 277.617 2221.9 281.182 Q2223.73 284.723 2227.34 284.723 Q2230.98 284.723 2232.78 281.182 Q2234.61 277.617 2234.61 270.51 Q2234.61 263.381 2232.78 259.839 Q2230.98 256.274 2227.34 256.274 M2227.34 252.571 Q2233.15 252.571 2236.21 257.177 Q2239.29 261.76 2239.29 270.51 Q2239.29 279.237 2236.21 283.844 Q2233.15 288.427 2227.34 288.427 Q2221.53 288.427 2218.46 283.844 Q2215.4 279.237 2215.4 270.51 Q2215.4 261.76 2218.46 257.177 Q2221.53 252.571 2227.34 252.571 Z" fill="#000000" fill-rule="evenodd" fill-opacity="1" /></svg>
