<?xml version="1.0" encoding="utf-8"?>
<svg xmlns="http://www.w3.org/2000/svg" xmlns:xlink="http://www.w3.org/1999/xlink" width="600" height="400" viewBox="0 0 2400 1600">
<defs>
  <clipPath id="clip060">
    <rect x="0" y="0" width="2400" height="1600"/>
  </clipPath>
</defs>
<path clip-path="url(#clip060)" d="
M0 1600 L2400 1600 L2400 0 L0 0  Z
  " fill="#ffffff" fill-rule="evenodd" fill-opacity="1"/>
<defs>
  <clipPath id="clip061">
    <rect x="480" y="0" width="1681" height="1600"/>
  </clipPath>
</defs>
<path clip-path="url(#clip060)" d="
M310.352 1423.18 L2352.76 1423.18 L2352.76 123.472 L310.352 123.472  Z
  " fill="#ffffff" fill-rule="evenodd" fill-opacity="1"/>
<defs>
  <clipPath id="clip062">
    <rect x="310" y="123" width="2043" height="1301"/>
  </clipPath>
</defs>
<polyline clip-path="url(#clip062)" style="stroke:#000000; stroke-linecap:butt; stroke-linejoin:round; stroke-width:2; stroke-opacity:0.1; fill:none" points="
  633.921,1423.18 633.921,123.472 
  "/>
<polyline clip-path="url(#clip062)" style="stroke:#000000; stroke-linecap:butt; stroke-linejoin:round; stroke-width:2; stroke-opacity:0.1; fill:none" points="
  966.127,1423.18 966.127,123.472 
  "/>
<polyline clip-path="url(#clip062)" style="stroke:#000000; stroke-linecap:butt; stroke-linejoin:round; stroke-width:2; stroke-opacity:0.1; fill:none" points="
  1298.33,1423.18 1298.33,123.472 
  "/>
<polyline clip-path="url(#clip062)" style="stroke:#000000; stroke-linecap:butt; stroke-linejoin:round; stroke-width:2; stroke-opacity:0.1; fill:none" points="
  1630.54,1423.18 1630.54,123.472 
  "/>
<polyline clip-path="url(#clip062)" style="stroke:#000000; stroke-linecap:butt; stroke-linejoin:round; stroke-width:2; stroke-opacity:0.1; fill:none" points="
  1962.75,1423.18 1962.75,123.472 
  "/>
<polyline clip-path="url(#clip062)" style="stroke:#000000; stroke-linecap:butt; stroke-linejoin:round; stroke-width:2; stroke-opacity:0.1; fill:none" points="
  2294.95,1423.18 2294.95,123.472 
  "/>
<polyline clip-path="url(#clip060)" style="stroke:#000000; stroke-linecap:butt; stroke-linejoin:round; stroke-width:4; stroke-opacity:1; fill:none" points="
  310.352,1423.18 2352.76,1423.18 
  "/>
<polyline clip-path="url(#clip060)" style="stroke:#000000; stroke-linecap:butt; stroke-linejoin:round; stroke-width:4; stroke-opacity:1; fill:none" points="
  633.921,1423.18 633.921,1404.28 
  "/>
<polyline clip-path="url(#clip060)" style="stroke:#000000; stroke-linecap:butt; stroke-linejoin:round; stroke-width:4; stroke-opacity:1; fill:none" points="
  966.127,1423.18 966.127,1404.28 
  "/>
<polyline clip-path="url(#clip060)" style="stroke:#000000; stroke-linecap:butt; stroke-linejoin:round; stroke-width:4; stroke-opacity:1; fill:none" points="
  1298.33,1423.18 1298.33,1404.28 
  "/>
<polyline clip-path="url(#clip060)" style="stroke:#000000; stroke-linecap:butt; stroke-linejoin:round; stroke-width:4; stroke-opacity:1; fill:none" points="
  1630.54,1423.18 1630.54,1404.28 
  "/>
<polyline clip-path="url(#clip060)" style="stroke:#000000; stroke-linecap:butt; stroke-linejoin:round; stroke-width:4; stroke-opacity:1; fill:none" points="
  1962.75,1423.18 1962.75,1404.28 
  "/>
<polyline clip-path="url(#clip060)" style="stroke:#000000; stroke-linecap:butt; stroke-linejoin:round; stroke-width:4; stroke-opacity:1; fill:none" points="
  2294.95,1423.18 2294.95,1404.28 
  "/>
<path clip-path="url(#clip060)" d="M593.539 1451.02 L611.895 1451.02 L611.895 1454.96 L597.821 1454.96 L597.821 1463.43 Q598.84 1463.08 599.858 1462.92 Q600.877 1462.73 601.895 1462.73 Q607.682 1462.73 611.062 1465.9 Q614.442 1469.08 614.442 1474.49 Q614.442 1480.07 610.97 1483.17 Q607.497 1486.25 601.178 1486.25 Q599.002 1486.25 596.733 1485.88 Q594.488 1485.51 592.081 1484.77 L592.081 1480.07 Q594.164 1481.2 596.386 1481.76 Q598.608 1482.32 601.085 1482.32 Q605.09 1482.32 607.428 1480.21 Q609.766 1478.1 609.766 1474.49 Q609.766 1470.88 607.428 1468.77 Q605.09 1466.67 601.085 1466.67 Q599.21 1466.67 597.335 1467.08 Q595.483 1467.5 593.539 1468.38 L593.539 1451.02 Z" fill="#000000" fill-rule="evenodd" fill-opacity="1" /><path clip-path="url(#clip060)" d="M633.655 1454.1 Q630.043 1454.1 628.215 1457.66 Q626.409 1461.2 626.409 1468.33 Q626.409 1475.44 628.215 1479.01 Q630.043 1482.55 633.655 1482.55 Q637.289 1482.55 639.094 1479.01 Q640.923 1475.44 640.923 1468.33 Q640.923 1461.2 639.094 1457.66 Q637.289 1454.1 633.655 1454.1 M633.655 1450.39 Q639.465 1450.39 642.52 1455 Q645.599 1459.58 645.599 1468.33 Q645.599 1477.06 642.52 1481.67 Q639.465 1486.25 633.655 1486.25 Q627.844 1486.25 624.766 1481.67 Q621.71 1477.06 621.71 1468.33 Q621.71 1459.58 624.766 1455 Q627.844 1450.39 633.655 1450.39 Z" fill="#000000" fill-rule="evenodd" fill-opacity="1" /><path clip-path="url(#clip060)" d="M663.816 1454.1 Q660.205 1454.1 658.377 1457.66 Q656.571 1461.2 656.571 1468.33 Q656.571 1475.44 658.377 1479.01 Q660.205 1482.55 663.816 1482.55 Q667.451 1482.55 669.256 1479.01 Q671.085 1475.44 671.085 1468.33 Q671.085 1461.2 669.256 1457.66 Q667.451 1454.1 663.816 1454.1 M663.816 1450.39 Q669.627 1450.39 672.682 1455 Q675.761 1459.58 675.761 1468.33 Q675.761 1477.06 672.682 1481.67 Q669.627 1486.25 663.816 1486.25 Q658.006 1486.25 654.928 1481.67 Q651.872 1477.06 651.872 1468.33 Q651.872 1459.58 654.928 1455 Q658.006 1450.39 663.816 1450.39 Z" fill="#000000" fill-rule="evenodd" fill-opacity="1" /><path clip-path="url(#clip060)" d="M910.653 1481.64 L918.292 1481.64 L918.292 1455.28 L909.981 1456.95 L909.981 1452.69 L918.245 1451.02 L922.921 1451.02 L922.921 1481.64 L930.56 1481.64 L930.56 1485.58 L910.653 1485.58 L910.653 1481.64 Z" fill="#000000" fill-rule="evenodd" fill-opacity="1" /><path clip-path="url(#clip060)" d="M950.004 1454.1 Q946.393 1454.1 944.565 1457.66 Q942.759 1461.2 942.759 1468.33 Q942.759 1475.44 944.565 1479.01 Q946.393 1482.55 950.004 1482.55 Q953.639 1482.55 955.444 1479.01 Q957.273 1475.44 957.273 1468.33 Q957.273 1461.2 955.444 1457.66 Q953.639 1454.1 950.004 1454.1 M950.004 1450.39 Q955.815 1450.39 958.87 1455 Q961.949 1459.58 961.949 1468.33 Q961.949 1477.06 958.87 1481.67 Q955.815 1486.25 950.004 1486.25 Q944.194 1486.25 941.116 1481.67 Q938.06 1477.06 938.06 1468.33 Q938.06 1459.58 941.116 1455 Q944.194 1450.39 950.004 1450.39 Z" fill="#000000" fill-rule="evenodd" fill-opacity="1" /><path clip-path="url(#clip060)" d="M980.166 1454.1 Q976.555 1454.1 974.727 1457.66 Q972.921 1461.2 972.921 1468.33 Q972.921 1475.44 974.727 1479.01 Q976.555 1482.55 980.166 1482.55 Q983.801 1482.55 985.606 1479.01 Q987.435 1475.44 987.435 1468.33 Q987.435 1461.2 985.606 1457.66 Q983.801 1454.1 980.166 1454.1 M980.166 1450.39 Q985.976 1450.39 989.032 1455 Q992.111 1459.58 992.111 1468.33 Q992.111 1477.06 989.032 1481.67 Q985.976 1486.25 980.166 1486.25 Q974.356 1486.25 971.277 1481.67 Q968.222 1477.06 968.222 1468.33 Q968.222 1459.58 971.277 1455 Q974.356 1450.39 980.166 1450.39 Z" fill="#000000" fill-rule="evenodd" fill-opacity="1" /><path clip-path="url(#clip060)" d="M1010.33 1454.1 Q1006.72 1454.1 1004.89 1457.66 Q1003.08 1461.2 1003.08 1468.33 Q1003.08 1475.44 1004.89 1479.01 Q1006.72 1482.55 1010.33 1482.55 Q1013.96 1482.55 1015.77 1479.01 Q1017.6 1475.44 1017.6 1468.33 Q1017.6 1461.2 1015.77 1457.66 Q1013.96 1454.1 1010.33 1454.1 M1010.33 1450.39 Q1016.14 1450.39 1019.19 1455 Q1022.27 1459.58 1022.27 1468.33 Q1022.27 1477.06 1019.19 1481.67 Q1016.14 1486.25 1010.33 1486.25 Q1004.52 1486.25 1001.44 1481.67 Q998.384 1477.06 998.384 1468.33 Q998.384 1459.58 1001.44 1455 Q1004.52 1450.39 1010.33 1450.39 Z" fill="#000000" fill-rule="evenodd" fill-opacity="1" /><path clip-path="url(#clip060)" d="M1242.86 1481.64 L1250.5 1481.64 L1250.5 1455.28 L1242.19 1456.95 L1242.19 1452.69 L1250.45 1451.02 L1255.13 1451.02 L1255.13 1481.64 L1262.77 1481.64 L1262.77 1485.58 L1242.86 1485.58 L1242.86 1481.64 Z" fill="#000000" fill-rule="evenodd" fill-opacity="1" /><path clip-path="url(#clip060)" d="M1272.26 1451.02 L1290.61 1451.02 L1290.61 1454.96 L1276.54 1454.96 L1276.54 1463.43 Q1277.56 1463.08 1278.58 1462.92 Q1279.59 1462.73 1280.61 1462.73 Q1286.4 1462.73 1289.78 1465.9 Q1293.16 1469.08 1293.16 1474.49 Q1293.16 1480.07 1289.69 1483.17 Q1286.22 1486.25 1279.9 1486.25 Q1277.72 1486.25 1275.45 1485.88 Q1273.21 1485.51 1270.8 1484.77 L1270.8 1480.07 Q1272.88 1481.2 1275.1 1481.76 Q1277.33 1482.32 1279.8 1482.32 Q1283.81 1482.32 1286.15 1480.21 Q1288.48 1478.1 1288.48 1474.49 Q1288.48 1470.88 1286.15 1468.77 Q1283.81 1466.67 1279.8 1466.67 Q1277.93 1466.67 1276.05 1467.08 Q1274.2 1467.5 1272.26 1468.38 L1272.26 1451.02 Z" fill="#000000" fill-rule="evenodd" fill-opacity="1" /><path clip-path="url(#clip060)" d="M1312.37 1454.1 Q1308.76 1454.1 1306.93 1457.66 Q1305.13 1461.2 1305.13 1468.33 Q1305.13 1475.44 1306.93 1479.01 Q1308.76 1482.55 1312.37 1482.55 Q1316.01 1482.55 1317.81 1479.01 Q1319.64 1475.44 1319.64 1468.33 Q1319.64 1461.2 1317.81 1457.66 Q1316.01 1454.1 1312.37 1454.1 M1312.37 1450.39 Q1318.18 1450.39 1321.24 1455 Q1324.32 1459.58 1324.32 1468.33 Q1324.32 1477.06 1321.24 1481.67 Q1318.18 1486.25 1312.37 1486.25 Q1306.56 1486.25 1303.48 1481.67 Q1300.43 1477.06 1300.43 1468.33 Q1300.43 1459.58 1303.48 1455 Q1306.56 1450.39 1312.37 1450.39 Z" fill="#000000" fill-rule="evenodd" fill-opacity="1" /><path clip-path="url(#clip060)" d="M1342.53 1454.1 Q1338.92 1454.1 1337.09 1457.66 Q1335.29 1461.2 1335.29 1468.33 Q1335.29 1475.44 1337.09 1479.01 Q1338.92 1482.55 1342.53 1482.55 Q1346.17 1482.55 1347.97 1479.01 Q1349.8 1475.44 1349.8 1468.33 Q1349.8 1461.2 1347.97 1457.66 Q1346.17 1454.1 1342.53 1454.1 M1342.53 1450.39 Q1348.34 1450.39 1351.4 1455 Q1354.48 1459.58 1354.48 1468.33 Q1354.48 1477.06 1351.4 1481.67 Q1348.34 1486.25 1342.53 1486.25 Q1336.72 1486.25 1333.65 1481.67 Q1330.59 1477.06 1330.59 1468.33 Q1330.59 1459.58 1333.65 1455 Q1336.72 1450.39 1342.53 1450.39 Z" fill="#000000" fill-rule="evenodd" fill-opacity="1" /><path clip-path="url(#clip060)" d="M1579.15 1481.64 L1595.47 1481.64 L1595.47 1485.58 L1573.53 1485.58 L1573.53 1481.64 Q1576.19 1478.89 1580.77 1474.26 Q1585.38 1469.61 1586.56 1468.27 Q1588.8 1465.74 1589.68 1464.01 Q1590.59 1462.25 1590.59 1460.56 Q1590.59 1457.8 1588.64 1456.07 Q1586.72 1454.33 1583.62 1454.33 Q1581.42 1454.33 1578.97 1455.09 Q1576.54 1455.86 1573.76 1457.41 L1573.76 1452.69 Q1576.58 1451.55 1579.04 1450.97 Q1581.49 1450.39 1583.53 1450.39 Q1588.9 1450.39 1592.09 1453.08 Q1595.29 1455.77 1595.29 1460.26 Q1595.29 1462.39 1594.47 1464.31 Q1593.69 1466.2 1591.58 1468.8 Q1591 1469.47 1587.9 1472.69 Q1584.8 1475.88 1579.15 1481.64 Z" fill="#000000" fill-rule="evenodd" fill-opacity="1" /><path clip-path="url(#clip060)" d="M1615.28 1454.1 Q1611.67 1454.1 1609.85 1457.66 Q1608.04 1461.2 1608.04 1468.33 Q1608.04 1475.44 1609.85 1479.01 Q1611.67 1482.55 1615.28 1482.55 Q1618.92 1482.55 1620.72 1479.01 Q1622.55 1475.44 1622.55 1468.33 Q1622.55 1461.2 1620.72 1457.66 Q1618.92 1454.1 1615.28 1454.1 M1615.28 1450.39 Q1621.1 1450.39 1624.15 1455 Q1627.23 1459.58 1627.23 1468.33 Q1627.23 1477.06 1624.15 1481.67 Q1621.1 1486.25 1615.28 1486.25 Q1609.47 1486.25 1606.4 1481.67 Q1603.34 1477.06 1603.34 1468.33 Q1603.34 1459.58 1606.4 1455 Q1609.47 1450.39 1615.28 1450.39 Z" fill="#000000" fill-rule="evenodd" fill-opacity="1" /><path clip-path="url(#clip060)" d="M1645.45 1454.1 Q1641.84 1454.1 1640.01 1457.66 Q1638.2 1461.2 1638.2 1468.33 Q1638.2 1475.44 1640.01 1479.01 Q1641.84 1482.55 1645.45 1482.55 Q1649.08 1482.55 1650.89 1479.01 Q1652.72 1475.44 1652.72 1468.33 Q1652.72 1461.2 1650.89 1457.66 Q1649.08 1454.1 1645.45 1454.1 M1645.45 1450.39 Q1651.26 1450.39 1654.31 1455 Q1657.39 1459.58 1657.39 1468.33 Q1657.39 1477.06 1654.31 1481.67 Q1651.26 1486.25 1645.45 1486.25 Q1639.64 1486.25 1636.56 1481.67 Q1633.5 1477.06 1633.5 1468.33 Q1633.5 1459.58 1636.56 1455 Q1639.64 1450.39 1645.45 1450.39 Z" fill="#000000" fill-rule="evenodd" fill-opacity="1" /><path clip-path="url(#clip060)" d="M1675.61 1454.1 Q1672 1454.1 1670.17 1457.66 Q1668.36 1461.2 1668.36 1468.33 Q1668.36 1475.44 1670.17 1479.01 Q1672 1482.55 1675.61 1482.55 Q1679.24 1482.55 1681.05 1479.01 Q1682.88 1475.44 1682.88 1468.33 Q1682.88 1461.2 1681.05 1457.66 Q1679.24 1454.1 1675.61 1454.1 M1675.61 1450.39 Q1681.42 1450.39 1684.47 1455 Q1687.55 1459.58 1687.55 1468.33 Q1687.55 1477.06 1684.47 1481.67 Q1681.42 1486.25 1675.61 1486.25 Q1669.8 1486.25 1666.72 1481.67 Q1663.66 1477.06 1663.66 1468.33 Q1663.66 1459.58 1666.72 1455 Q1669.8 1450.39 1675.61 1450.39 Z" fill="#000000" fill-rule="evenodd" fill-opacity="1" /><path clip-path="url(#clip060)" d="M1911.36 1481.64 L1927.68 1481.64 L1927.68 1485.58 L1905.73 1485.58 L1905.73 1481.64 Q1908.39 1478.89 1912.98 1474.26 Q1917.58 1469.61 1918.76 1468.27 Q1921.01 1465.74 1921.89 1464.01 Q1922.79 1462.25 1922.79 1460.56 Q1922.79 1457.8 1920.85 1456.07 Q1918.93 1454.33 1915.82 1454.33 Q1913.63 1454.33 1911.17 1455.09 Q1908.74 1455.86 1905.96 1457.41 L1905.96 1452.69 Q1908.79 1451.55 1911.24 1450.97 Q1913.7 1450.39 1915.73 1450.39 Q1921.1 1450.39 1924.3 1453.08 Q1927.49 1455.77 1927.49 1460.26 Q1927.49 1462.39 1926.68 1464.31 Q1925.89 1466.2 1923.79 1468.8 Q1923.21 1469.47 1920.11 1472.69 Q1917.01 1475.88 1911.36 1481.64 Z" fill="#000000" fill-rule="evenodd" fill-opacity="1" /><path clip-path="url(#clip060)" d="M1937.54 1451.02 L1955.89 1451.02 L1955.89 1454.96 L1941.82 1454.96 L1941.82 1463.43 Q1942.84 1463.08 1943.86 1462.92 Q1944.88 1462.73 1945.89 1462.73 Q1951.68 1462.73 1955.06 1465.9 Q1958.44 1469.08 1958.44 1474.49 Q1958.44 1480.07 1954.97 1483.17 Q1951.5 1486.25 1945.18 1486.25 Q1943 1486.25 1940.73 1485.88 Q1938.49 1485.51 1936.08 1484.77 L1936.08 1480.07 Q1938.16 1481.2 1940.38 1481.76 Q1942.61 1482.32 1945.08 1482.32 Q1949.09 1482.32 1951.43 1480.21 Q1953.76 1478.1 1953.76 1474.49 Q1953.76 1470.88 1951.43 1468.77 Q1949.09 1466.67 1945.08 1466.67 Q1943.21 1466.67 1941.33 1467.08 Q1939.48 1467.5 1937.54 1468.38 L1937.54 1451.02 Z" fill="#000000" fill-rule="evenodd" fill-opacity="1" /><path clip-path="url(#clip060)" d="M1977.65 1454.1 Q1974.04 1454.1 1972.21 1457.66 Q1970.41 1461.2 1970.41 1468.33 Q1970.41 1475.44 1972.21 1479.01 Q1974.04 1482.55 1977.65 1482.55 Q1981.29 1482.55 1983.09 1479.01 Q1984.92 1475.44 1984.92 1468.33 Q1984.92 1461.2 1983.09 1457.66 Q1981.29 1454.1 1977.65 1454.1 M1977.65 1450.39 Q1983.46 1450.39 1986.52 1455 Q1989.6 1459.58 1989.6 1468.33 Q1989.6 1477.06 1986.52 1481.67 Q1983.46 1486.25 1977.65 1486.25 Q1971.84 1486.25 1968.76 1481.67 Q1965.71 1477.06 1965.71 1468.33 Q1965.71 1459.58 1968.76 1455 Q1971.84 1450.39 1977.65 1450.39 Z" fill="#000000" fill-rule="evenodd" fill-opacity="1" /><path clip-path="url(#clip060)" d="M2007.81 1454.1 Q2004.2 1454.1 2002.38 1457.66 Q2000.57 1461.2 2000.57 1468.33 Q2000.57 1475.44 2002.38 1479.01 Q2004.2 1482.55 2007.81 1482.55 Q2011.45 1482.55 2013.25 1479.01 Q2015.08 1475.44 2015.08 1468.33 Q2015.08 1461.2 2013.25 1457.66 Q2011.45 1454.1 2007.81 1454.1 M2007.81 1450.39 Q2013.63 1450.39 2016.68 1455 Q2019.76 1459.58 2019.76 1468.33 Q2019.76 1477.06 2016.68 1481.67 Q2013.63 1486.25 2007.81 1486.25 Q2002 1486.25 1998.93 1481.67 Q1995.87 1477.06 1995.87 1468.33 Q1995.87 1459.58 1998.93 1455 Q2002 1450.39 2007.81 1450.39 Z" fill="#000000" fill-rule="evenodd" fill-opacity="1" /><path clip-path="url(#clip060)" d="M2253.63 1466.95 Q2256.99 1467.66 2258.86 1469.93 Q2260.76 1472.2 2260.76 1475.53 Q2260.76 1480.65 2257.24 1483.45 Q2253.73 1486.25 2247.24 1486.25 Q2245.07 1486.25 2242.75 1485.81 Q2240.46 1485.39 2238.01 1484.54 L2238.01 1480.02 Q2239.95 1481.16 2242.27 1481.74 Q2244.58 1482.32 2247.11 1482.32 Q2251.5 1482.32 2253.79 1480.58 Q2256.11 1478.84 2256.11 1475.53 Q2256.11 1472.48 2253.96 1470.77 Q2251.83 1469.03 2248.01 1469.03 L2243.98 1469.03 L2243.98 1465.19 L2248.19 1465.19 Q2251.64 1465.19 2253.47 1463.82 Q2255.3 1462.43 2255.3 1459.84 Q2255.3 1457.18 2253.4 1455.77 Q2251.53 1454.33 2248.01 1454.33 Q2246.09 1454.33 2243.89 1454.75 Q2241.69 1455.16 2239.05 1456.04 L2239.05 1451.88 Q2241.71 1451.14 2244.03 1450.77 Q2246.36 1450.39 2248.42 1450.39 Q2253.75 1450.39 2256.85 1452.83 Q2259.95 1455.23 2259.95 1459.35 Q2259.95 1462.22 2258.31 1464.21 Q2256.67 1466.18 2253.63 1466.95 Z" fill="#000000" fill-rule="evenodd" fill-opacity="1" /><path clip-path="url(#clip060)" d="M2279.63 1454.1 Q2276.02 1454.1 2274.19 1457.66 Q2272.38 1461.2 2272.38 1468.33 Q2272.38 1475.44 2274.19 1479.01 Q2276.02 1482.55 2279.63 1482.55 Q2283.26 1482.55 2285.07 1479.01 Q2286.9 1475.44 2286.9 1468.33 Q2286.9 1461.2 2285.07 1457.66 Q2283.26 1454.1 2279.63 1454.1 M2279.63 1450.39 Q2285.44 1450.39 2288.49 1455 Q2291.57 1459.58 2291.57 1468.33 Q2291.57 1477.06 2288.49 1481.67 Q2285.44 1486.25 2279.63 1486.25 Q2273.82 1486.25 2270.74 1481.67 Q2267.68 1477.06 2267.68 1468.33 Q2267.68 1459.58 2270.74 1455 Q2273.82 1450.39 2279.63 1450.39 Z" fill="#000000" fill-rule="evenodd" fill-opacity="1" /><path clip-path="url(#clip060)" d="M2309.79 1454.1 Q2306.18 1454.1 2304.35 1457.66 Q2302.54 1461.2 2302.54 1468.33 Q2302.54 1475.44 2304.35 1479.01 Q2306.18 1482.55 2309.79 1482.55 Q2313.42 1482.55 2315.23 1479.01 Q2317.06 1475.44 2317.06 1468.33 Q2317.06 1461.2 2315.23 1457.66 Q2313.42 1454.1 2309.79 1454.1 M2309.79 1450.39 Q2315.6 1450.39 2318.66 1455 Q2321.73 1459.58 2321.73 1468.33 Q2321.73 1477.06 2318.66 1481.67 Q2315.6 1486.25 2309.79 1486.25 Q2303.98 1486.25 2300.9 1481.67 Q2297.85 1477.06 2297.85 1468.33 Q2297.85 1459.58 2300.9 1455 Q2303.98 1450.39 2309.79 1450.39 Z" fill="#000000" fill-rule="evenodd" fill-opacity="1" /><path clip-path="url(#clip060)" d="M2339.95 1454.1 Q2336.34 1454.1 2334.51 1457.66 Q2332.71 1461.2 2332.71 1468.33 Q2332.71 1475.44 2334.51 1479.01 Q2336.34 1482.55 2339.95 1482.55 Q2343.59 1482.55 2345.39 1479.01 Q2347.22 1475.44 2347.22 1468.33 Q2347.22 1461.2 2345.39 1457.66 Q2343.59 1454.1 2339.95 1454.1 M2339.95 1450.39 Q2345.76 1450.39 2348.82 1455 Q2351.9 1459.58 2351.9 1468.33 Q2351.9 1477.06 2348.82 1481.67 Q2345.76 1486.25 2339.95 1486.25 Q2334.14 1486.25 2331.06 1481.67 Q2328.01 1477.06 2328.01 1468.33 Q2328.01 1459.58 2331.06 1455 Q2334.14 1450.39 2339.95 1450.39 Z" fill="#000000" fill-rule="evenodd" fill-opacity="1" /><path clip-path="url(#clip060)" d="M1346.48 1546.53 L1346.48 1568.04 L1340.63 1568.04 L1340.63 1546.72 Q1340.63 1541.66 1338.65 1539.14 Q1336.68 1536.63 1332.73 1536.63 Q1327.99 1536.63 1325.25 1539.65 Q1322.51 1542.68 1322.51 1547.9 L1322.51 1568.04 L1316.63 1568.04 L1316.63 1532.4 L1322.51 1532.4 L1322.51 1537.93 Q1324.62 1534.72 1327.45 1533.13 Q1330.31 1531.54 1334.04 1531.54 Q1340.18 1531.54 1343.33 1535.36 Q1346.48 1539.14 1346.48 1546.53 Z" fill="#000000" fill-rule="evenodd" fill-opacity="1" /><polyline clip-path="url(#clip062)" style="stroke:#000000; stroke-linecap:butt; stroke-linejoin:round; stroke-width:2; stroke-opacity:0.1; fill:none" points="
  310.352,1386.4 2352.76,1386.4 
  "/>
<polyline clip-path="url(#clip062)" style="stroke:#000000; stroke-linecap:butt; stroke-linejoin:round; stroke-width:2; stroke-opacity:0.1; fill:none" points="
  310.352,1147.47 2352.76,1147.47 
  "/>
<polyline clip-path="url(#clip062)" style="stroke:#000000; stroke-linecap:butt; stroke-linejoin:round; stroke-width:2; stroke-opacity:0.1; fill:none" points="
  310.352,908.538 2352.76,908.538 
  "/>
<polyline clip-path="url(#clip062)" style="stroke:#000000; stroke-linecap:butt; stroke-linejoin:round; stroke-width:2; stroke-opacity:0.1; fill:none" points="
  310.352,669.609 2352.76,669.609 
  "/>
<polyline clip-path="url(#clip062)" style="stroke:#000000; stroke-linecap:butt; stroke-linejoin:round; stroke-width:2; stroke-opacity:0.1; fill:none" points="
  310.352,430.68 2352.76,430.68 
  "/>
<polyline clip-path="url(#clip062)" style="stroke:#000000; stroke-linecap:butt; stroke-linejoin:round; stroke-width:2; stroke-opacity:0.1; fill:none" points="
  310.352,191.751 2352.76,191.751 
  "/>
<polyline clip-path="url(#clip060)" style="stroke:#000000; stroke-linecap:butt; stroke-linejoin:round; stroke-width:4; stroke-opacity:1; fill:none" points="
  310.352,1423.18 310.352,123.472 
  "/>
<polyline clip-path="url(#clip060)" style="stroke:#000000; stroke-linecap:butt; stroke-linejoin:round; stroke-width:4; stroke-opacity:1; fill:none" points="
  310.352,1386.4 329.25,1386.4 
  "/>
<polyline clip-path="url(#clip060)" style="stroke:#000000; stroke-linecap:butt; stroke-linejoin:round; stroke-width:4; stroke-opacity:1; fill:none" points="
  310.352,1147.47 329.25,1147.47 
  "/>
<polyline clip-path="url(#clip060)" style="stroke:#000000; stroke-linecap:butt; stroke-linejoin:round; stroke-width:4; stroke-opacity:1; fill:none" points="
  310.352,908.538 329.25,908.538 
  "/>
<polyline clip-path="url(#clip060)" style="stroke:#000000; stroke-linecap:butt; stroke-linejoin:round; stroke-width:4; stroke-opacity:1; fill:none" points="
  310.352,669.609 329.25,669.609 
  "/>
<polyline clip-path="url(#clip060)" style="stroke:#000000; stroke-linecap:butt; stroke-linejoin:round; stroke-width:4; stroke-opacity:1; fill:none" points="
  310.352,430.68 329.25,430.68 
  "/>
<polyline clip-path="url(#clip060)" style="stroke:#000000; stroke-linecap:butt; stroke-linejoin:round; stroke-width:4; stroke-opacity:1; fill:none" points="
  310.352,191.751 329.25,191.751 
  "/>
<path clip-path="url(#clip060)" d="M126.691 1372.19 Q123.08 1372.19 121.251 1375.76 Q119.445 1379.3 119.445 1386.43 Q119.445 1393.54 121.251 1397.1 Q123.08 1400.64 126.691 1400.64 Q130.325 1400.64 132.13 1397.1 Q133.959 1393.54 133.959 1386.43 Q133.959 1379.3 132.13 1375.76 Q130.325 1372.19 126.691 1372.19 M126.691 1368.49 Q132.501 1368.49 135.556 1373.1 Q138.635 1377.68 138.635 1386.43 Q138.635 1395.16 135.556 1399.76 Q132.501 1404.35 126.691 1404.35 Q120.88 1404.35 117.802 1399.76 Q114.746 1395.16 114.746 1386.43 Q114.746 1377.68 117.802 1373.1 Q120.88 1368.49 126.691 1368.49 Z" fill="#000000" fill-rule="evenodd" fill-opacity="1" /><path clip-path="url(#clip060)" d="M146.853 1397.8 L151.737 1397.8 L151.737 1403.68 L146.853 1403.68 L146.853 1397.8 Z" fill="#000000" fill-rule="evenodd" fill-opacity="1" /><path clip-path="url(#clip060)" d="M171.922 1372.19 Q168.311 1372.19 166.482 1375.76 Q164.677 1379.3 164.677 1386.43 Q164.677 1393.54 166.482 1397.1 Q168.311 1400.64 171.922 1400.64 Q175.556 1400.64 177.362 1397.1 Q179.19 1393.54 179.19 1386.43 Q179.19 1379.3 177.362 1375.76 Q175.556 1372.19 171.922 1372.19 M171.922 1368.49 Q177.732 1368.49 180.788 1373.1 Q183.866 1377.68 183.866 1386.43 Q183.866 1395.16 180.788 1399.76 Q177.732 1404.35 171.922 1404.35 Q166.112 1404.35 163.033 1399.76 Q159.978 1395.16 159.978 1386.43 Q159.978 1377.68 163.033 1373.1 Q166.112 1368.49 171.922 1368.49 Z" fill="#000000" fill-rule="evenodd" fill-opacity="1" /><path clip-path="url(#clip060)" d="M202.084 1372.19 Q198.473 1372.19 196.644 1375.76 Q194.838 1379.3 194.838 1386.43 Q194.838 1393.54 196.644 1397.1 Q198.473 1400.64 202.084 1400.64 Q205.718 1400.64 207.524 1397.1 Q209.352 1393.54 209.352 1386.43 Q209.352 1379.3 207.524 1375.76 Q205.718 1372.19 202.084 1372.19 M202.084 1368.49 Q207.894 1368.49 210.949 1373.1 Q214.028 1377.68 214.028 1386.43 Q214.028 1395.16 210.949 1399.76 Q207.894 1404.35 202.084 1404.35 Q196.274 1404.35 193.195 1399.76 Q190.139 1395.16 190.139 1386.43 Q190.139 1377.68 193.195 1373.1 Q196.274 1368.49 202.084 1368.49 Z" fill="#000000" fill-rule="evenodd" fill-opacity="1" /><path clip-path="url(#clip060)" d="M232.246 1372.19 Q228.635 1372.19 226.806 1375.76 Q225 1379.3 225 1386.43 Q225 1393.54 226.806 1397.1 Q228.635 1400.64 232.246 1400.64 Q235.88 1400.64 237.685 1397.1 Q239.514 1393.54 239.514 1386.43 Q239.514 1379.3 237.685 1375.76 Q235.88 1372.19 232.246 1372.19 M232.246 1368.49 Q238.056 1368.49 241.111 1373.1 Q244.19 1377.68 244.19 1386.43 Q244.19 1395.16 241.111 1399.76 Q238.056 1404.35 232.246 1404.35 Q226.435 1404.35 223.357 1399.76 Q220.301 1395.16 220.301 1386.43 Q220.301 1377.68 223.357 1373.1 Q226.435 1368.49 232.246 1368.49 Z" fill="#000000" fill-rule="evenodd" fill-opacity="1" /><path clip-path="url(#clip060)" d="M262.408 1372.19 Q258.796 1372.19 256.968 1375.76 Q255.162 1379.3 255.162 1386.43 Q255.162 1393.54 256.968 1397.1 Q258.796 1400.64 262.408 1400.64 Q266.042 1400.64 267.847 1397.1 Q269.676 1393.54 269.676 1386.43 Q269.676 1379.3 267.847 1375.76 Q266.042 1372.19 262.408 1372.19 M262.408 1368.49 Q268.218 1368.49 271.273 1373.1 Q274.352 1377.68 274.352 1386.43 Q274.352 1395.16 271.273 1399.76 Q268.218 1404.35 262.408 1404.35 Q256.597 1404.35 253.519 1399.76 Q250.463 1395.16 250.463 1386.43 Q250.463 1377.68 253.519 1373.1 Q256.597 1368.49 262.408 1368.49 Z" fill="#000000" fill-rule="evenodd" fill-opacity="1" /><path clip-path="url(#clip060)" d="M127.917 1133.27 Q124.306 1133.27 122.478 1136.83 Q120.672 1140.37 120.672 1147.5 Q120.672 1154.61 122.478 1158.17 Q124.306 1161.71 127.917 1161.71 Q131.552 1161.71 133.357 1158.17 Q135.186 1154.61 135.186 1147.5 Q135.186 1140.37 133.357 1136.83 Q131.552 1133.27 127.917 1133.27 M127.917 1129.56 Q133.728 1129.56 136.783 1134.17 Q139.862 1138.75 139.862 1147.5 Q139.862 1156.23 136.783 1160.83 Q133.728 1165.42 127.917 1165.42 Q122.107 1165.42 119.029 1160.83 Q115.973 1156.23 115.973 1147.5 Q115.973 1138.75 119.029 1134.17 Q122.107 1129.56 127.917 1129.56 Z" fill="#000000" fill-rule="evenodd" fill-opacity="1" /><path clip-path="url(#clip060)" d="M148.079 1158.87 L152.964 1158.87 L152.964 1164.75 L148.079 1164.75 L148.079 1158.87 Z" fill="#000000" fill-rule="evenodd" fill-opacity="1" /><path clip-path="url(#clip060)" d="M173.149 1133.27 Q169.538 1133.27 167.709 1136.83 Q165.903 1140.37 165.903 1147.5 Q165.903 1154.61 167.709 1158.17 Q169.538 1161.71 173.149 1161.71 Q176.783 1161.71 178.589 1158.17 Q180.417 1154.61 180.417 1147.5 Q180.417 1140.37 178.589 1136.83 Q176.783 1133.27 173.149 1133.27 M173.149 1129.56 Q178.959 1129.56 182.014 1134.17 Q185.093 1138.75 185.093 1147.5 Q185.093 1156.23 182.014 1160.83 Q178.959 1165.42 173.149 1165.42 Q167.339 1165.42 164.26 1160.83 Q161.204 1156.23 161.204 1147.5 Q161.204 1138.75 164.26 1134.17 Q167.339 1129.56 173.149 1129.56 Z" fill="#000000" fill-rule="evenodd" fill-opacity="1" /><path clip-path="url(#clip060)" d="M203.311 1133.27 Q199.7 1133.27 197.871 1136.83 Q196.065 1140.37 196.065 1147.5 Q196.065 1154.61 197.871 1158.17 Q199.7 1161.71 203.311 1161.71 Q206.945 1161.71 208.75 1158.17 Q210.579 1154.61 210.579 1147.5 Q210.579 1140.37 208.75 1136.83 Q206.945 1133.27 203.311 1133.27 M203.311 1129.56 Q209.121 1129.56 212.176 1134.17 Q215.255 1138.75 215.255 1147.5 Q215.255 1156.23 212.176 1160.83 Q209.121 1165.42 203.311 1165.42 Q197.5 1165.42 194.422 1160.83 Q191.366 1156.23 191.366 1147.5 Q191.366 1138.75 194.422 1134.17 Q197.5 1129.56 203.311 1129.56 Z" fill="#000000" fill-rule="evenodd" fill-opacity="1" /><path clip-path="url(#clip060)" d="M233.472 1133.27 Q229.861 1133.27 228.033 1136.83 Q226.227 1140.37 226.227 1147.5 Q226.227 1154.61 228.033 1158.17 Q229.861 1161.71 233.472 1161.71 Q237.107 1161.71 238.912 1158.17 Q240.741 1154.61 240.741 1147.5 Q240.741 1140.37 238.912 1136.83 Q237.107 1133.27 233.472 1133.27 M233.472 1129.56 Q239.283 1129.56 242.338 1134.17 Q245.417 1138.75 245.417 1147.5 Q245.417 1156.23 242.338 1160.83 Q239.283 1165.42 233.472 1165.42 Q227.662 1165.42 224.584 1160.83 Q221.528 1156.23 221.528 1147.5 Q221.528 1138.75 224.584 1134.17 Q227.662 1129.56 233.472 1129.56 Z" fill="#000000" fill-rule="evenodd" fill-opacity="1" /><path clip-path="url(#clip060)" d="M254.445 1160.81 L262.083 1160.81 L262.083 1134.45 L253.773 1136.11 L253.773 1131.85 L262.037 1130.19 L266.713 1130.19 L266.713 1160.81 L274.352 1160.81 L274.352 1164.75 L254.445 1164.75 L254.445 1160.81 Z" fill="#000000" fill-rule="evenodd" fill-opacity="1" /><path clip-path="url(#clip060)" d="M128.288 894.336 Q124.677 894.336 122.848 897.901 Q121.043 901.443 121.043 908.572 Q121.043 915.679 122.848 919.244 Q124.677 922.785 128.288 922.785 Q131.922 922.785 133.728 919.244 Q135.556 915.679 135.556 908.572 Q135.556 901.443 133.728 897.901 Q131.922 894.336 128.288 894.336 M128.288 890.633 Q134.098 890.633 137.154 895.239 Q140.232 899.822 140.232 908.572 Q140.232 917.299 137.154 921.906 Q134.098 926.489 128.288 926.489 Q122.478 926.489 119.399 921.906 Q116.343 917.299 116.343 908.572 Q116.343 899.822 119.399 895.239 Q122.478 890.633 128.288 890.633 Z" fill="#000000" fill-rule="evenodd" fill-opacity="1" /><path clip-path="url(#clip060)" d="M148.45 919.938 L153.334 919.938 L153.334 925.818 L148.45 925.818 L148.45 919.938 Z" fill="#000000" fill-rule="evenodd" fill-opacity="1" /><path clip-path="url(#clip060)" d="M173.519 894.336 Q169.908 894.336 168.079 897.901 Q166.274 901.443 166.274 908.572 Q166.274 915.679 168.079 919.244 Q169.908 922.785 173.519 922.785 Q177.153 922.785 178.959 919.244 Q180.788 915.679 180.788 908.572 Q180.788 901.443 178.959 897.901 Q177.153 894.336 173.519 894.336 M173.519 890.633 Q179.329 890.633 182.385 895.239 Q185.463 899.822 185.463 908.572 Q185.463 917.299 182.385 921.906 Q179.329 926.489 173.519 926.489 Q167.709 926.489 164.63 921.906 Q161.575 917.299 161.575 908.572 Q161.575 899.822 164.63 895.239 Q167.709 890.633 173.519 890.633 Z" fill="#000000" fill-rule="evenodd" fill-opacity="1" /><path clip-path="url(#clip060)" d="M203.681 894.336 Q200.07 894.336 198.241 897.901 Q196.436 901.443 196.436 908.572 Q196.436 915.679 198.241 919.244 Q200.07 922.785 203.681 922.785 Q207.315 922.785 209.121 919.244 Q210.949 915.679 210.949 908.572 Q210.949 901.443 209.121 897.901 Q207.315 894.336 203.681 894.336 M203.681 890.633 Q209.491 890.633 212.547 895.239 Q215.625 899.822 215.625 908.572 Q215.625 917.299 212.547 921.906 Q209.491 926.489 203.681 926.489 Q197.871 926.489 194.792 921.906 Q191.737 917.299 191.737 908.572 Q191.737 899.822 194.792 895.239 Q197.871 890.633 203.681 890.633 Z" fill="#000000" fill-rule="evenodd" fill-opacity="1" /><path clip-path="url(#clip060)" d="M233.843 894.336 Q230.232 894.336 228.403 897.901 Q226.598 901.443 226.598 908.572 Q226.598 915.679 228.403 919.244 Q230.232 922.785 233.843 922.785 Q237.477 922.785 239.283 919.244 Q241.111 915.679 241.111 908.572 Q241.111 901.443 239.283 897.901 Q237.477 894.336 233.843 894.336 M233.843 890.633 Q239.653 890.633 242.709 895.239 Q245.787 899.822 245.787 908.572 Q245.787 917.299 242.709 921.906 Q239.653 926.489 233.843 926.489 Q228.033 926.489 224.954 921.906 Q221.898 917.299 221.898 908.572 Q221.898 899.822 224.954 895.239 Q228.033 890.633 233.843 890.633 Z" fill="#000000" fill-rule="evenodd" fill-opacity="1" /><path clip-path="url(#clip060)" d="M258.033 921.883 L274.352 921.883 L274.352 925.818 L252.408 925.818 L252.408 921.883 Q255.07 919.128 259.653 914.498 Q264.259 909.846 265.44 908.503 Q267.685 905.98 268.565 904.244 Q269.468 902.484 269.468 900.795 Q269.468 898.04 267.523 896.304 Q265.602 894.568 262.5 894.568 Q260.301 894.568 257.847 895.332 Q255.417 896.096 252.639 897.647 L252.639 892.924 Q255.463 891.79 257.917 891.211 Q260.37 890.633 262.408 890.633 Q267.778 890.633 270.972 893.318 Q274.167 896.003 274.167 900.494 Q274.167 902.623 273.357 904.545 Q272.569 906.443 270.463 909.035 Q269.884 909.707 266.782 912.924 Q263.681 916.119 258.033 921.883 Z" fill="#000000" fill-rule="evenodd" fill-opacity="1" /><path clip-path="url(#clip060)" d="M127.339 655.407 Q123.728 655.407 121.899 658.972 Q120.093 662.514 120.093 669.643 Q120.093 676.75 121.899 680.315 Q123.728 683.856 127.339 683.856 Q130.973 683.856 132.779 680.315 Q134.607 676.75 134.607 669.643 Q134.607 662.514 132.779 658.972 Q130.973 655.407 127.339 655.407 M127.339 651.704 Q133.149 651.704 136.204 656.31 Q139.283 660.893 139.283 669.643 Q139.283 678.37 136.204 682.977 Q133.149 687.56 127.339 687.56 Q121.529 687.56 118.45 682.977 Q115.394 678.37 115.394 669.643 Q115.394 660.893 118.45 656.31 Q121.529 651.704 127.339 651.704 Z" fill="#000000" fill-rule="evenodd" fill-opacity="1" /><path clip-path="url(#clip060)" d="M147.501 681.009 L152.385 681.009 L152.385 686.889 L147.501 686.889 L147.501 681.009 Z" fill="#000000" fill-rule="evenodd" fill-opacity="1" /><path clip-path="url(#clip060)" d="M172.57 655.407 Q168.959 655.407 167.13 658.972 Q165.325 662.514 165.325 669.643 Q165.325 676.75 167.13 680.315 Q168.959 683.856 172.57 683.856 Q176.204 683.856 178.01 680.315 Q179.839 676.75 179.839 669.643 Q179.839 662.514 178.01 658.972 Q176.204 655.407 172.57 655.407 M172.57 651.704 Q178.38 651.704 181.436 656.31 Q184.514 660.893 184.514 669.643 Q184.514 678.37 181.436 682.977 Q178.38 687.56 172.57 687.56 Q166.76 687.56 163.681 682.977 Q160.626 678.37 160.626 669.643 Q160.626 660.893 163.681 656.31 Q166.76 651.704 172.57 651.704 Z" fill="#000000" fill-rule="evenodd" fill-opacity="1" /><path clip-path="url(#clip060)" d="M202.732 655.407 Q199.121 655.407 197.292 658.972 Q195.487 662.514 195.487 669.643 Q195.487 676.75 197.292 680.315 Q199.121 683.856 202.732 683.856 Q206.366 683.856 208.172 680.315 Q210 676.75 210 669.643 Q210 662.514 208.172 658.972 Q206.366 655.407 202.732 655.407 M202.732 651.704 Q208.542 651.704 211.598 656.31 Q214.676 660.893 214.676 669.643 Q214.676 678.37 211.598 682.977 Q208.542 687.56 202.732 687.56 Q196.922 687.56 193.843 682.977 Q190.788 678.37 190.788 669.643 Q190.788 660.893 193.843 656.31 Q196.922 651.704 202.732 651.704 Z" fill="#000000" fill-rule="evenodd" fill-opacity="1" /><path clip-path="url(#clip060)" d="M232.894 655.407 Q229.283 655.407 227.454 658.972 Q225.648 662.514 225.648 669.643 Q225.648 676.75 227.454 680.315 Q229.283 683.856 232.894 683.856 Q236.528 683.856 238.334 680.315 Q240.162 676.75 240.162 669.643 Q240.162 662.514 238.334 658.972 Q236.528 655.407 232.894 655.407 M232.894 651.704 Q238.704 651.704 241.759 656.31 Q244.838 660.893 244.838 669.643 Q244.838 678.37 241.759 682.977 Q238.704 687.56 232.894 687.56 Q227.084 687.56 224.005 682.977 Q220.949 678.37 220.949 669.643 Q220.949 660.893 224.005 656.31 Q227.084 651.704 232.894 651.704 Z" fill="#000000" fill-rule="evenodd" fill-opacity="1" /><path clip-path="url(#clip060)" d="M267.222 668.255 Q270.579 668.972 272.454 671.241 Q274.352 673.509 274.352 676.842 Q274.352 681.958 270.833 684.759 Q267.315 687.56 260.833 687.56 Q258.658 687.56 256.343 687.12 Q254.051 686.704 251.597 685.847 L251.597 681.333 Q253.542 682.467 255.857 683.046 Q258.171 683.625 260.695 683.625 Q265.093 683.625 267.384 681.889 Q269.699 680.153 269.699 676.842 Q269.699 673.787 267.546 672.074 Q265.417 670.338 261.597 670.338 L257.57 670.338 L257.57 666.495 L261.783 666.495 Q265.232 666.495 267.06 665.13 Q268.889 663.741 268.889 661.148 Q268.889 658.486 266.991 657.074 Q265.116 655.639 261.597 655.639 Q259.676 655.639 257.477 656.056 Q255.278 656.472 252.639 657.352 L252.639 653.185 Q255.301 652.444 257.616 652.074 Q259.954 651.704 262.014 651.704 Q267.338 651.704 270.44 654.134 Q273.542 656.542 273.542 660.662 Q273.542 663.532 271.898 665.523 Q270.255 667.491 267.222 668.255 Z" fill="#000000" fill-rule="evenodd" fill-opacity="1" /><path clip-path="url(#clip060)" d="M126.205 416.478 Q122.593 416.478 120.765 420.043 Q118.959 423.585 118.959 430.714 Q118.959 437.821 120.765 441.386 Q122.593 444.927 126.205 444.927 Q129.839 444.927 131.644 441.386 Q133.473 437.821 133.473 430.714 Q133.473 423.585 131.644 420.043 Q129.839 416.478 126.205 416.478 M126.205 412.775 Q132.015 412.775 135.07 417.381 Q138.149 421.965 138.149 430.714 Q138.149 439.441 135.07 444.048 Q132.015 448.631 126.205 448.631 Q120.394 448.631 117.316 444.048 Q114.26 439.441 114.26 430.714 Q114.26 421.965 117.316 417.381 Q120.394 412.775 126.205 412.775 Z" fill="#000000" fill-rule="evenodd" fill-opacity="1" /><path clip-path="url(#clip060)" d="M146.366 442.08 L151.251 442.08 L151.251 447.96 L146.366 447.96 L146.366 442.08 Z" fill="#000000" fill-rule="evenodd" fill-opacity="1" /><path clip-path="url(#clip060)" d="M171.436 416.478 Q167.825 416.478 165.996 420.043 Q164.19 423.585 164.19 430.714 Q164.19 437.821 165.996 441.386 Q167.825 444.927 171.436 444.927 Q175.07 444.927 176.876 441.386 Q178.704 437.821 178.704 430.714 Q178.704 423.585 176.876 420.043 Q175.07 416.478 171.436 416.478 M171.436 412.775 Q177.246 412.775 180.301 417.381 Q183.38 421.965 183.38 430.714 Q183.38 439.441 180.301 444.048 Q177.246 448.631 171.436 448.631 Q165.626 448.631 162.547 444.048 Q159.491 439.441 159.491 430.714 Q159.491 421.965 162.547 417.381 Q165.626 412.775 171.436 412.775 Z" fill="#000000" fill-rule="evenodd" fill-opacity="1" /><path clip-path="url(#clip060)" d="M201.598 416.478 Q197.987 416.478 196.158 420.043 Q194.352 423.585 194.352 430.714 Q194.352 437.821 196.158 441.386 Q197.987 444.927 201.598 444.927 Q205.232 444.927 207.037 441.386 Q208.866 437.821 208.866 430.714 Q208.866 423.585 207.037 420.043 Q205.232 416.478 201.598 416.478 M201.598 412.775 Q207.408 412.775 210.463 417.381 Q213.542 421.965 213.542 430.714 Q213.542 439.441 210.463 444.048 Q207.408 448.631 201.598 448.631 Q195.787 448.631 192.709 444.048 Q189.653 439.441 189.653 430.714 Q189.653 421.965 192.709 417.381 Q195.787 412.775 201.598 412.775 Z" fill="#000000" fill-rule="evenodd" fill-opacity="1" /><path clip-path="url(#clip060)" d="M231.76 416.478 Q228.148 416.478 226.32 420.043 Q224.514 423.585 224.514 430.714 Q224.514 437.821 226.32 441.386 Q228.148 444.927 231.76 444.927 Q235.394 444.927 237.199 441.386 Q239.028 437.821 239.028 430.714 Q239.028 423.585 237.199 420.043 Q235.394 416.478 231.76 416.478 M231.76 412.775 Q237.57 412.775 240.625 417.381 Q243.704 421.965 243.704 430.714 Q243.704 439.441 240.625 444.048 Q237.57 448.631 231.76 448.631 Q225.949 448.631 222.871 444.048 Q219.815 439.441 219.815 430.714 Q219.815 421.965 222.871 417.381 Q225.949 412.775 231.76 412.775 Z" fill="#000000" fill-rule="evenodd" fill-opacity="1" /><path clip-path="url(#clip060)" d="M264.769 417.474 L252.963 435.923 L264.769 435.923 L264.769 417.474 M263.542 413.4 L269.421 413.4 L269.421 435.923 L274.352 435.923 L274.352 439.812 L269.421 439.812 L269.421 447.96 L264.769 447.96 L264.769 439.812 L249.167 439.812 L249.167 435.298 L263.542 413.4 Z" fill="#000000" fill-rule="evenodd" fill-opacity="1" /><path clip-path="url(#clip060)" d="M127.686 177.549 Q124.075 177.549 122.246 181.114 Q120.441 184.656 120.441 191.785 Q120.441 198.892 122.246 202.457 Q124.075 205.998 127.686 205.998 Q131.32 205.998 133.126 202.457 Q134.954 198.892 134.954 191.785 Q134.954 184.656 133.126 181.114 Q131.32 177.549 127.686 177.549 M127.686 173.846 Q133.496 173.846 136.552 178.452 Q139.63 183.036 139.63 191.785 Q139.63 200.512 136.552 205.119 Q133.496 209.702 127.686 209.702 Q121.876 209.702 118.797 205.119 Q115.742 200.512 115.742 191.785 Q115.742 183.036 118.797 178.452 Q121.876 173.846 127.686 173.846 Z" fill="#000000" fill-rule="evenodd" fill-opacity="1" /><path clip-path="url(#clip060)" d="M147.848 203.151 L152.732 203.151 L152.732 209.031 L147.848 209.031 L147.848 203.151 Z" fill="#000000" fill-rule="evenodd" fill-opacity="1" /><path clip-path="url(#clip060)" d="M172.917 177.549 Q169.306 177.549 167.477 181.114 Q165.672 184.656 165.672 191.785 Q165.672 198.892 167.477 202.457 Q169.306 205.998 172.917 205.998 Q176.551 205.998 178.357 202.457 Q180.186 198.892 180.186 191.785 Q180.186 184.656 178.357 181.114 Q176.551 177.549 172.917 177.549 M172.917 173.846 Q178.727 173.846 181.783 178.452 Q184.862 183.036 184.862 191.785 Q184.862 200.512 181.783 205.119 Q178.727 209.702 172.917 209.702 Q167.107 209.702 164.028 205.119 Q160.973 200.512 160.973 191.785 Q160.973 183.036 164.028 178.452 Q167.107 173.846 172.917 173.846 Z" fill="#000000" fill-rule="evenodd" fill-opacity="1" /><path clip-path="url(#clip060)" d="M203.079 177.549 Q199.468 177.549 197.639 181.114 Q195.834 184.656 195.834 191.785 Q195.834 198.892 197.639 202.457 Q199.468 205.998 203.079 205.998 Q206.713 205.998 208.519 202.457 Q210.348 198.892 210.348 191.785 Q210.348 184.656 208.519 181.114 Q206.713 177.549 203.079 177.549 M203.079 173.846 Q208.889 173.846 211.945 178.452 Q215.024 183.036 215.024 191.785 Q215.024 200.512 211.945 205.119 Q208.889 209.702 203.079 209.702 Q197.269 209.702 194.19 205.119 Q191.135 200.512 191.135 191.785 Q191.135 183.036 194.19 178.452 Q197.269 173.846 203.079 173.846 Z" fill="#000000" fill-rule="evenodd" fill-opacity="1" /><path clip-path="url(#clip060)" d="M233.241 177.549 Q229.63 177.549 227.801 181.114 Q225.996 184.656 225.996 191.785 Q225.996 198.892 227.801 202.457 Q229.63 205.998 233.241 205.998 Q236.875 205.998 238.681 202.457 Q240.509 198.892 240.509 191.785 Q240.509 184.656 238.681 181.114 Q236.875 177.549 233.241 177.549 M233.241 173.846 Q239.051 173.846 242.107 178.452 Q245.185 183.036 245.185 191.785 Q245.185 200.512 242.107 205.119 Q239.051 209.702 233.241 209.702 Q227.431 209.702 224.352 205.119 Q221.297 200.512 221.297 191.785 Q221.297 183.036 224.352 178.452 Q227.431 173.846 233.241 173.846 Z" fill="#000000" fill-rule="evenodd" fill-opacity="1" /><path clip-path="url(#clip060)" d="M253.449 174.471 L271.806 174.471 L271.806 178.406 L257.732 178.406 L257.732 186.878 Q258.75 186.531 259.769 186.369 Q260.787 186.184 261.806 186.184 Q267.593 186.184 270.972 189.355 Q274.352 192.526 274.352 197.943 Q274.352 203.522 270.88 206.623 Q267.407 209.702 261.088 209.702 Q258.912 209.702 256.644 209.332 Q254.398 208.961 251.991 208.221 L251.991 203.522 Q254.074 204.656 256.296 205.211 Q258.519 205.767 260.995 205.767 Q265 205.767 267.338 203.66 Q269.676 201.554 269.676 197.943 Q269.676 194.332 267.338 192.225 Q265 190.119 260.995 190.119 Q259.12 190.119 257.246 190.535 Q255.394 190.952 253.449 191.832 L253.449 174.471 Z" fill="#000000" fill-rule="evenodd" fill-opacity="1" /><path clip-path="url(#clip060)" d="M41.3104 1089.3 L58.7206 1089.3 L58.7206 1078.99 Q58.7206 1073.8 56.5881 1071.32 Q54.4238 1068.81 49.9996 1068.81 Q45.5436 1068.81 43.4429 1071.32 Q41.3104 1073.8 41.3104 1078.99 L41.3104 1089.3 M21.7677 1089.3 L36.0905 1089.3 L36.0905 1079.79 Q36.0905 1075.08 34.34 1072.78 Q32.5576 1070.46 28.9291 1070.46 Q25.3325 1070.46 23.5501 1072.78 Q21.7677 1075.08 21.7677 1079.79 L21.7677 1089.3 M16.4842 1095.73 L16.4842 1079.31 Q16.4842 1071.96 19.5397 1067.98 Q22.5952 1064 28.2289 1064 Q32.5894 1064 35.1675 1066.04 Q37.7456 1068.07 38.3822 1072.02 Q39.4007 1067.28 42.6472 1064.67 Q45.8619 1062.03 50.6998 1062.03 Q57.0655 1062.03 60.5348 1066.36 Q64.0042 1070.68 64.0042 1078.67 L64.0042 1095.73 L16.4842 1095.73 Z" fill="#000000" fill-rule="evenodd" fill-opacity="1" /><path clip-path="url(#clip060)" d="M32.4621 1037.46 Q32.4621 1042.17 36.1542 1044.9 Q39.8145 1047.64 46.212 1047.64 Q52.6095 1047.64 56.3017 1044.93 Q59.9619 1042.2 59.9619 1037.46 Q59.9619 1032.78 56.2698 1030.04 Q52.5777 1027.3 46.212 1027.3 Q39.8781 1027.3 36.186 1030.04 Q32.4621 1032.78 32.4621 1037.46 M27.4968 1037.46 Q27.4968 1029.82 32.4621 1025.46 Q37.4273 1021.1 46.212 1021.1 Q54.9649 1021.1 59.9619 1025.46 Q64.9272 1029.82 64.9272 1037.46 Q64.9272 1045.13 59.9619 1049.49 Q54.9649 1053.81 46.212 1053.81 Q37.4273 1053.81 32.4621 1049.49 Q27.4968 1045.13 27.4968 1037.46 Z" fill="#000000" fill-rule="evenodd" fill-opacity="1" /><path clip-path="url(#clip060)" d="M18.2347 1005.59 L28.3562 1005.59 L28.3562 993.532 L32.9077 993.532 L32.9077 1005.59 L52.2594 1005.59 Q56.6199 1005.59 57.8613 1004.42 Q59.1026 1003.21 59.1026 999.547 L59.1026 993.532 L64.0042 993.532 L64.0042 999.547 Q64.0042 1006.33 61.4897 1008.9 Q58.9434 1011.48 52.2594 1011.48 L32.9077 1011.48 L32.9077 1015.78 L28.3562 1015.78 L28.3562 1011.48 L18.2347 1011.48 L18.2347 1005.59 Z" fill="#000000" fill-rule="evenodd" fill-opacity="1" /><path clip-path="url(#clip060)" d="M18.2347 980.036 L28.3562 980.036 L28.3562 967.973 L32.9077 967.973 L32.9077 980.036 L52.2594 980.036 Q56.6199 980.036 57.8613 978.859 Q59.1026 977.649 59.1026 973.989 L59.1026 967.973 L64.0042 967.973 L64.0042 973.989 Q64.0042 980.768 61.4897 983.347 Q58.9434 985.925 52.2594 985.925 L32.9077 985.925 L32.9077 990.222 L28.3562 990.222 L28.3562 985.925 L18.2347 985.925 L18.2347 980.036 Z" fill="#000000" fill-rule="evenodd" fill-opacity="1" /><path clip-path="url(#clip060)" d="M14.479 960.271 L14.479 954.414 L64.0042 954.414 L64.0042 960.271 L14.479 960.271 Z" fill="#000000" fill-rule="evenodd" fill-opacity="1" /><path clip-path="url(#clip060)" d="M44.7161 911.669 L47.5806 911.669 L47.5806 938.596 Q53.6281 938.214 56.8109 934.967 Q59.9619 931.689 59.9619 925.864 Q59.9619 922.49 59.1344 919.339 Q58.3069 916.157 56.6518 913.037 L62.1899 913.037 Q63.5267 916.188 64.227 919.499 Q64.9272 922.809 64.9272 926.214 Q64.9272 934.744 59.9619 939.741 Q54.9967 944.707 46.5303 944.707 Q37.7774 944.707 32.6531 939.996 Q27.4968 935.254 27.4968 927.233 Q27.4968 920.04 32.1438 915.87 Q36.7589 911.669 44.7161 911.669 M42.9973 917.525 Q38.1912 917.589 35.3266 920.231 Q32.4621 922.841 32.4621 927.169 Q32.4621 932.071 35.2312 935.031 Q38.0002 937.959 43.0292 938.405 L42.9973 917.525 Z" fill="#000000" fill-rule="evenodd" fill-opacity="1" /><path clip-path="url(#clip060)" d="M42.4881 872.424 L64.0042 872.424 L64.0042 878.281 L42.679 878.281 Q37.6183 878.281 35.1038 880.254 Q32.5894 882.227 32.5894 886.174 Q32.5894 890.916 35.6131 893.654 Q38.6368 896.391 43.8567 896.391 L64.0042 896.391 L64.0042 902.279 L28.3562 902.279 L28.3562 896.391 L33.8944 896.391 Q30.6797 894.29 29.0883 891.458 Q27.4968 888.593 27.4968 884.869 Q27.4968 878.726 31.3163 875.575 Q35.1038 872.424 42.4881 872.424 Z" fill="#000000" fill-rule="evenodd" fill-opacity="1" /><path clip-path="url(#clip060)" d="M44.7161 830.251 L47.5806 830.251 L47.5806 857.178 Q53.6281 856.796 56.8109 853.55 Q59.9619 850.271 59.9619 844.447 Q59.9619 841.073 59.1344 837.922 Q58.3069 834.739 56.6518 831.62 L62.1899 831.62 Q63.5267 834.771 64.227 838.081 Q64.9272 841.391 64.9272 844.797 Q64.9272 853.327 59.9619 858.324 Q54.9967 863.289 46.5303 863.289 Q37.7774 863.289 32.6531 858.579 Q27.4968 853.836 27.4968 845.815 Q27.4968 838.622 32.1438 834.453 Q36.7589 830.251 44.7161 830.251 M42.9973 836.108 Q38.1912 836.171 35.3266 838.813 Q32.4621 841.423 32.4621 845.752 Q32.4621 850.653 35.2312 853.613 Q38.0002 856.542 43.0292 856.987 L42.9973 836.108 Z" fill="#000000" fill-rule="evenodd" fill-opacity="1" /><path clip-path="url(#clip060)" d="M29.7248 794.985 L35.1993 794.985 Q33.8307 797.468 33.1623 799.982 Q32.4621 802.465 32.4621 805.011 Q32.4621 810.709 36.0905 813.86 Q39.6872 817.011 46.212 817.011 Q52.7369 817.011 56.3653 813.86 Q59.9619 810.709 59.9619 805.011 Q59.9619 802.465 59.2935 799.982 Q58.5933 797.468 57.2247 794.985 L62.6355 794.985 Q63.7814 797.436 64.3543 800.078 Q64.9272 802.688 64.9272 805.648 Q64.9272 813.7 59.8664 818.443 Q54.8057 823.185 46.212 823.185 Q37.491 823.185 32.4939 818.411 Q27.4968 813.605 27.4968 805.266 Q27.4968 802.56 28.0697 799.982 Q28.6108 797.404 29.7248 794.985 Z" fill="#000000" fill-rule="evenodd" fill-opacity="1" /><path clip-path="url(#clip060)" d="M14.479 785.023 L14.479 779.135 L43.7294 779.135 L28.3562 761.661 L28.3562 754.181 L45.0344 773.087 L64.0042 753.385 L64.0042 761.024 L46.5939 779.135 L64.0042 779.135 L64.0042 785.023 L14.479 785.023 Z" fill="#000000" fill-rule="evenodd" fill-opacity="1" /><path clip-path="url(#clip060)" d="M21.7677 719.647 L58.7206 719.647 L58.7206 711.881 Q58.7206 702.046 54.2646 697.495 Q49.8086 692.911 40.1964 692.911 Q30.6479 692.911 26.2237 697.495 Q21.7677 702.046 21.7677 711.881 L21.7677 719.647 M16.4842 726.077 L16.4842 712.868 Q16.4842 699.054 22.2451 692.593 Q27.9743 686.132 40.1964 686.132 Q52.4822 686.132 58.2432 692.625 Q64.0042 699.118 64.0042 712.868 L64.0042 726.077 L16.4842 726.077 Z" fill="#000000" fill-rule="evenodd" fill-opacity="1" /><path clip-path="url(#clip060)" d="M28.3562 676.138 L28.3562 670.281 L64.0042 670.281 L64.0042 676.138 L28.3562 676.138 M14.479 676.138 L14.479 670.281 L21.895 670.281 L21.895 676.138 L14.479 676.138 Z" fill="#000000" fill-rule="evenodd" fill-opacity="1" /><path clip-path="url(#clip060)" d="M29.4065 635.302 L34.9447 635.302 Q33.6716 637.784 33.035 640.458 Q32.3984 643.131 32.3984 645.996 Q32.3984 650.356 33.7352 652.553 Q35.072 654.717 37.7456 654.717 Q39.7826 654.717 40.9603 653.157 Q42.1061 651.598 43.1565 646.887 L43.6021 644.882 Q44.9389 638.644 47.3897 636.034 Q49.8086 633.392 54.1691 633.392 Q59.1344 633.392 62.0308 637.339 Q64.9272 641.253 64.9272 648.128 Q64.9272 650.993 64.3543 654.112 Q63.8132 657.2 62.6992 660.637 L56.6518 660.637 Q58.3387 657.391 59.198 654.24 Q60.0256 651.089 60.0256 648.001 Q60.0256 643.863 58.6251 641.635 Q57.1929 639.407 54.6147 639.407 Q52.2276 639.407 50.9545 641.031 Q49.6813 642.622 48.5037 648.065 L48.0262 650.102 Q46.8804 655.544 44.5251 657.963 Q42.138 660.382 38.0002 660.382 Q32.9713 660.382 30.2341 656.818 Q27.4968 653.253 27.4968 646.696 Q27.4968 643.45 27.9743 640.585 Q28.4517 637.721 29.4065 635.302 Z" fill="#000000" fill-rule="evenodd" fill-opacity="1" /><path clip-path="url(#clip060)" d="M18.2347 618.273 L28.3562 618.273 L28.3562 606.21 L32.9077 606.21 L32.9077 618.273 L52.2594 618.273 Q56.6199 618.273 57.8613 617.096 Q59.1026 615.886 59.1026 612.226 L59.1026 606.21 L64.0042 606.21 L64.0042 612.226 Q64.0042 619.005 61.4897 621.583 Q58.9434 624.162 52.2594 624.162 L32.9077 624.162 L32.9077 628.458 L28.3562 628.458 L28.3562 624.162 L18.2347 624.162 L18.2347 618.273 Z" fill="#000000" fill-rule="evenodd" fill-opacity="1" /><path clip-path="url(#clip060)" d="M46.0847 582.307 Q46.0847 589.405 47.7079 592.142 Q49.3312 594.879 53.2461 594.879 Q56.3653 594.879 58.2114 592.842 Q60.0256 590.773 60.0256 587.24 Q60.0256 582.371 56.5881 579.442 Q53.1188 576.482 47.3897 576.482 L46.0847 576.482 L46.0847 582.307 M43.6657 570.626 L64.0042 570.626 L64.0042 576.482 L58.5933 576.482 Q61.8398 578.488 63.3994 581.48 Q64.9272 584.471 64.9272 588.8 Q64.9272 594.275 61.8716 597.521 Q58.7843 600.736 53.6281 600.736 Q47.6125 600.736 44.5569 596.725 Q41.5014 592.683 41.5014 584.694 L41.5014 576.482 L40.9285 576.482 Q36.8862 576.482 34.6901 579.156 Q32.4621 581.798 32.4621 586.604 Q32.4621 589.659 33.1941 592.556 Q33.9262 595.452 35.3903 598.126 L29.9795 598.126 Q28.7381 594.911 28.1334 591.887 Q27.4968 588.864 27.4968 585.999 Q27.4968 578.265 31.5072 574.445 Q35.5176 570.626 43.6657 570.626 Z" fill="#000000" fill-rule="evenodd" fill-opacity="1" /><path clip-path="url(#clip060)" d="M42.4881 528.931 L64.0042 528.931 L64.0042 534.787 L42.679 534.787 Q37.6183 534.787 35.1038 536.76 Q32.5894 538.734 32.5894 542.681 Q32.5894 547.423 35.6131 550.16 Q38.6368 552.897 43.8567 552.897 L64.0042 552.897 L64.0042 558.786 L28.3562 558.786 L28.3562 552.897 L33.8944 552.897 Q30.6797 550.797 29.0883 547.964 Q27.4968 545.099 27.4968 541.376 Q27.4968 535.233 31.3163 532.082 Q35.1038 528.931 42.4881 528.931 Z" fill="#000000" fill-rule="evenodd" fill-opacity="1" /><path clip-path="url(#clip060)" d="M29.7248 491.596 L35.1993 491.596 Q33.8307 494.078 33.1623 496.593 Q32.4621 499.075 32.4621 501.622 Q32.4621 507.319 36.0905 510.47 Q39.6872 513.621 46.212 513.621 Q52.7369 513.621 56.3653 510.47 Q59.9619 507.319 59.9619 501.622 Q59.9619 499.075 59.2935 496.593 Q58.5933 494.078 57.2247 491.596 L62.6355 491.596 Q63.7814 494.047 64.3543 496.688 Q64.9272 499.298 64.9272 502.258 Q64.9272 510.311 59.8664 515.053 Q54.8057 519.796 46.212 519.796 Q37.491 519.796 32.4939 515.022 Q27.4968 510.215 27.4968 501.876 Q27.4968 499.171 28.0697 496.593 Q28.6108 494.015 29.7248 491.596 Z" fill="#000000" fill-rule="evenodd" fill-opacity="1" /><path clip-path="url(#clip060)" d="M44.7161 450.919 L47.5806 450.919 L47.5806 477.846 Q53.6281 477.464 56.8109 474.217 Q59.9619 470.939 59.9619 465.114 Q59.9619 461.741 59.1344 458.59 Q58.3069 455.407 56.6518 452.287 L62.1899 452.287 Q63.5267 455.439 64.227 458.749 Q64.9272 462.059 64.9272 465.464 Q64.9272 473.995 59.9619 478.992 Q54.9967 483.957 46.5303 483.957 Q37.7774 483.957 32.6531 479.246 Q27.4968 474.504 27.4968 466.483 Q27.4968 459.29 32.1438 455.12 Q36.7589 450.919 44.7161 450.919 M42.9973 456.775 Q38.1912 456.839 35.3266 459.481 Q32.4621 462.091 32.4621 466.419 Q32.4621 471.321 35.2312 474.281 Q38.0002 477.209 43.0292 477.655 L42.9973 456.775 Z" fill="#000000" fill-rule="evenodd" fill-opacity="1" /><path clip-path="url(#clip060)" d="M1172.86 34.4165 Q1171.36 33.8899 1169.86 33.4848 Q1165.85 32.4315 1161.56 32.4315 Q1154.14 32.4315 1150.01 36.4419 Q1146.16 40.1688 1145.44 47.0148 L1172.86 47.0148 L1172.86 52.8481 L1145.44 52.8481 Q1146.16 59.6941 1150.01 63.421 Q1154.14 67.4314 1161.56 67.4314 Q1166.74 67.4314 1169.86 66.3781 L1172.86 65.3654 L1172.86 72.1304 L1169.66 72.8596 Q1165.45 73.7508 1161.11 73.7508 Q1150.26 73.7508 1143.94 67.4314 Q1137.58 61.1119 1137.58 49.9314 Q1137.58 38.7509 1143.94 32.4315 Q1150.26 26.1121 1161.11 26.1121 Q1165.2 26.1121 1169.66 27.0033 Q1171.28 27.3274 1172.86 27.8135 L1172.86 34.4165 Z" fill="#000000" fill-rule="evenodd" fill-opacity="1" /><path clip-path="url(#clip060)" d="M1192.83 34.9026 L1244.76 34.9026 L1244.76 41.7081 L1192.83 41.7081 L1192.83 34.9026 M1192.83 51.4303 L1244.76 51.4303 L1244.76 58.3168 L1192.83 58.3168 L1192.83 51.4303 Z" fill="#000000" fill-rule="evenodd" fill-opacity="1" /><path clip-path="url(#clip060)" d="M1261.37 9.54393 L1268.83 9.54393 L1268.83 72.576 L1261.37 72.576 L1261.37 9.54393 Z" fill="#000000" fill-rule="evenodd" fill-opacity="1" /><path clip-path="url(#clip060)" d="M1302 32.4315 Q1296.01 32.4315 1292.52 37.1306 Q1289.04 41.7891 1289.04 49.9314 Q1289.04 58.0738 1292.48 62.7728 Q1295.97 67.4314 1302 67.4314 Q1307.96 67.4314 1311.44 62.7323 Q1314.92 58.0333 1314.92 49.9314 Q1314.92 41.8701 1311.44 37.1711 Q1307.96 32.4315 1302 32.4315 M1302 26.1121 Q1311.72 26.1121 1317.27 32.4315 Q1322.82 38.7509 1322.82 49.9314 Q1322.82 61.0714 1317.27 67.4314 Q1311.72 73.7508 1302 73.7508 Q1292.24 73.7508 1286.69 67.4314 Q1281.18 61.0714 1281.18 49.9314 Q1281.18 38.7509 1286.69 32.4315 Q1292.24 26.1121 1302 26.1121 Z" fill="#000000" fill-rule="evenodd" fill-opacity="1" /><path clip-path="url(#clip060)" d="M1365.03 49.3643 Q1365.03 41.2625 1361.67 36.8065 Q1358.35 32.3505 1352.31 32.3505 Q1346.32 32.3505 1342.96 36.8065 Q1339.64 41.2625 1339.64 49.3643 Q1339.64 57.4256 1342.96 61.8816 Q1346.32 66.3376 1352.31 66.3376 Q1358.35 66.3376 1361.67 61.8816 Q1365.03 57.4256 1365.03 49.3643 M1372.49 66.9452 Q1372.49 78.5308 1367.34 84.1616 Q1362.2 89.8329 1351.59 89.8329 Q1347.66 89.8329 1344.17 89.2252 Q1340.69 88.6581 1337.41 87.4428 L1337.41 80.1917 Q1340.69 81.9741 1343.89 82.8248 Q1347.09 83.6755 1350.41 83.6755 Q1357.74 83.6755 1361.39 79.8271 Q1365.03 76.0193 1365.03 68.282 L1365.03 64.5957 Q1362.73 68.6061 1359.12 70.5911 Q1355.51 72.576 1350.49 72.576 Q1342.15 72.576 1337.04 66.2161 Q1331.94 59.8562 1331.94 49.3643 Q1331.94 38.832 1337.04 32.472 Q1342.15 26.1121 1350.49 26.1121 Q1355.51 26.1121 1359.12 28.0971 Q1362.73 30.082 1365.03 34.0924 L1365.03 27.2059 L1372.49 27.2059 L1372.49 66.9452 Z" fill="#000000" fill-rule="evenodd" fill-opacity="1" /><path clip-path="url(#clip060)" d="M1384.76 10.2326 L1389.5 10.2326 L1389.5 31.0542 L1403.52 20.1168 L1409.51 20.1168 L1394.32 31.9859 L1410.12 45.516 L1404 45.516 L1389.5 33.1202 L1389.5 45.516 L1384.76 45.516 L1384.76 10.2326 Z" fill="#000000" fill-rule="evenodd" fill-opacity="1" /><path clip-path="url(#clip060)" d="M1441.07 9.62495 Q1435.64 18.942 1433.01 28.0566 Q1430.38 37.1711 1430.38 46.5287 Q1430.38 55.8863 1433.01 65.0818 Q1435.68 74.2369 1441.07 83.5134 L1434.59 83.5134 Q1428.51 73.9938 1425.47 64.7983 Q1422.48 55.6027 1422.48 46.5287 Q1422.48 37.4952 1425.47 28.3401 Q1428.47 19.1851 1434.59 9.62495 L1441.07 9.62495 Z" fill="#000000" fill-rule="evenodd" fill-opacity="1" /><path clip-path="url(#clip060)" d="M1493.25 45.1919 L1493.25 72.576 L1485.79 72.576 L1485.79 45.4349 Q1485.79 38.994 1483.28 35.7938 Q1480.77 32.5936 1475.75 32.5936 Q1469.71 32.5936 1466.23 36.4419 Q1462.74 40.2903 1462.74 46.9338 L1462.74 72.576 L1455.25 72.576 L1455.25 27.2059 L1462.74 27.2059 L1462.74 34.2544 Q1465.42 30.163 1469.02 28.1376 Q1472.67 26.1121 1477.41 26.1121 Q1485.22 26.1121 1489.24 30.9732 Q1493.25 35.7938 1493.25 45.1919 Z" fill="#000000" fill-rule="evenodd" fill-opacity="1" /><path clip-path="url(#clip060)" d="M1506.94 9.62495 L1513.42 9.62495 Q1519.5 19.1851 1522.49 28.3401 Q1525.53 37.4952 1525.53 46.5287 Q1525.53 55.6027 1522.49 64.7983 Q1519.5 73.9938 1513.42 83.5134 L1506.94 83.5134 Q1512.33 74.2369 1514.96 65.0818 Q1517.63 55.8863 1517.63 46.5287 Q1517.63 37.1711 1514.96 28.0566 Q1512.33 18.942 1506.94 9.62495 Z" fill="#000000" fill-rule="evenodd" fill-opacity="1" /><polyline clip-path="url(#clip062)" style="stroke:#009af9; stroke-linecap:butt; stroke-linejoin:round; stroke-width:12; stroke-opacity:1; fill:none" points="
  368.156,160.256 434.597,779.95 567.48,1153.96 700.362,774.582 833.245,1296.17 966.127,1046.43 
  "/>
<path clip-path="url(#clip062)" d="M368.156 176.256 L356.844 171.568 L352.156 160.256 L356.844 148.944 L368.156 144.256 L379.468 148.944 L384.156 160.256 L379.468 171.568 Z" fill="#009af9" fill-rule="evenodd" fill-opacity="1" stroke="#000000" stroke-opacity="1" stroke-width="3.2"/>
<path clip-path="url(#clip062)" d="M434.597 795.95 L423.285 791.262 L418.597 779.95 L423.285 768.638 L434.597 763.95 L445.909 768.638 L450.597 779.95 L445.909 791.262 Z" fill="#009af9" fill-rule="evenodd" fill-opacity="1" stroke="#000000" stroke-opacity="1" stroke-width="3.2"/>
<path clip-path="url(#clip062)" d="M567.48 1169.96 L556.168 1165.27 L551.48 1153.96 L556.168 1142.65 L567.48 1137.96 L578.792 1142.65 L583.48 1153.96 L578.792 1165.27 Z" fill="#009af9" fill-rule="evenodd" fill-opacity="1" stroke="#000000" stroke-opacity="1" stroke-width="3.2"/>
<path clip-path="url(#clip062)" d="M700.362 790.582 L689.05 785.894 L684.362 774.582 L689.05 763.27 L700.362 758.582 L711.674 763.27 L716.362 774.582 L711.674 785.894 Z" fill="#009af9" fill-rule="evenodd" fill-opacity="1" stroke="#000000" stroke-opacity="1" stroke-width="3.2"/>
<path clip-path="url(#clip062)" d="M833.245 1312.17 L821.933 1307.48 L817.245 1296.17 L821.933 1284.86 L833.245 1280.17 L844.557 1284.86 L849.245 1296.17 L844.557 1307.48 Z" fill="#009af9" fill-rule="evenodd" fill-opacity="1" stroke="#000000" stroke-opacity="1" stroke-width="3.2"/>
<path clip-path="url(#clip062)" d="M966.127 1062.43 L954.815 1057.74 L950.127 1046.43 L954.815 1035.11 L966.127 1030.43 L977.439 1035.11 L982.127 1046.43 L977.439 1057.74 Z" fill="#009af9" fill-rule="evenodd" fill-opacity="1" stroke="#000000" stroke-opacity="1" stroke-width="3.2"/>
<polyline clip-path="url(#clip062)" style="stroke:#e26f46; stroke-linecap:butt; stroke-linejoin:round; stroke-width:12; stroke-opacity:1; fill:none" points="
  368.156,1386.39 434.597,1386.4 567.48,1386.4 700.362,1386.4 833.245,1386.4 966.127,1386.4 1298.33,1386.4 1630.54,1386.4 2294.95,1386.4 
  "/>
<path clip-path="url(#clip062)" d="M368.156 1402.39 L356.844 1397.71 L352.156 1386.39 L356.844 1375.08 L368.156 1370.39 L379.468 1375.08 L384.156 1386.39 L379.468 1397.71 Z" fill="#e26f46" fill-rule="evenodd" fill-opacity="1" stroke="#000000" stroke-opacity="1" stroke-width="3.2"/>
<path clip-path="url(#clip062)" d="M434.597 1402.4 L423.285 1397.71 L418.597 1386.4 L423.285 1375.08 L434.597 1370.4 L445.909 1375.08 L450.597 1386.4 L445.909 1397.71 Z" fill="#e26f46" fill-rule="evenodd" fill-opacity="1" stroke="#000000" stroke-opacity="1" stroke-width="3.2"/>
<path clip-path="url(#clip062)" d="M567.48 1402.4 L556.168 1397.71 L551.48 1386.4 L556.168 1375.08 L567.48 1370.4 L578.792 1375.08 L583.48 1386.4 L578.792 1397.71 Z" fill="#e26f46" fill-rule="evenodd" fill-opacity="1" stroke="#000000" stroke-opacity="1" stroke-width="3.2"/>
<path clip-path="url(#clip062)" d="M700.362 1402.4 L689.05 1397.71 L684.362 1386.4 L689.05 1375.08 L700.362 1370.4 L711.674 1375.08 L716.362 1386.4 L711.674 1397.71 Z" fill="#e26f46" fill-rule="evenodd" fill-opacity="1" stroke="#000000" stroke-opacity="1" stroke-width="3.2"/>
<path clip-path="url(#clip062)" d="M833.245 1402.4 L821.933 1397.71 L817.245 1386.4 L821.933 1375.08 L833.245 1370.4 L844.557 1375.08 L849.245 1386.4 L844.557 1397.71 Z" fill="#e26f46" fill-rule="evenodd" fill-opacity="1" stroke="#000000" stroke-opacity="1" stroke-width="3.2"/>
<path clip-path="url(#clip062)" d="M966.127 1402.4 L954.815 1397.71 L950.127 1386.4 L954.815 1375.08 L966.127 1370.4 L977.439 1375.08 L982.127 1386.4 L977.439 1397.71 Z" fill="#e26f46" fill-rule="evenodd" fill-opacity="1" stroke="#000000" stroke-opacity="1" stroke-width="3.2"/>
<path clip-path="url(#clip062)" d="M1298.33 1402.4 L1287.02 1397.71 L1282.33 1386.4 L1287.02 1375.08 L1298.33 1370.4 L1309.65 1375.08 L1314.33 1386.4 L1309.65 1397.71 Z" fill="#e26f46" fill-rule="evenodd" fill-opacity="1" stroke="#000000" stroke-opacity="1" stroke-width="3.2"/>
<path clip-path="url(#clip062)" d="M1630.54 1402.4 L1619.23 1397.71 L1614.54 1386.4 L1619.23 1375.08 L1630.54 1370.4 L1641.85 1375.08 L1646.54 1386.4 L1641.85 1397.71 Z" fill="#e26f46" fill-rule="evenodd" fill-opacity="1" stroke="#000000" stroke-opacity="1" stroke-width="3.2"/>
<path clip-path="url(#clip062)" d="M2294.95 1402.4 L2283.64 1397.71 L2278.95 1386.4 L2283.64 1375.08 L2294.95 1370.4 L2306.26 1375.08 L2310.95 1386.4 L2306.26 1397.71 Z" fill="#e26f46" fill-rule="evenodd" fill-opacity="1" stroke="#000000" stroke-opacity="1" stroke-width="3.2"/>
<path clip-path="url(#clip060)" d="
M1892.47 322.316 L2284.68 322.316 L2284.68 166.796 L1892.47 166.796  Z
  " fill="#ffffff" fill-rule="evenodd" fill-opacity="1"/>
<polyline clip-path="url(#clip060)" style="stroke:#000000; stroke-linecap:butt; stroke-linejoin:round; stroke-width:4; stroke-opacity:1; fill:none" points="
  1892.47,322.316 2284.68,322.316 2284.68,166.796 1892.47,166.796 1892.47,322.316 
  "/>
<polyline clip-path="url(#clip060)" style="stroke:#009af9; stroke-linecap:butt; stroke-linejoin:round; stroke-width:4; stroke-opacity:1; fill:none" points="
  1915.16,218.636 2051.32,218.636 
  "/>
<path clip-path="url(#clip060)" d="M1983.24 244.236 L1965.14 236.735 L1957.64 218.636 L1965.14 200.537 L1983.24 193.036 L2001.34 200.537 L2008.84 218.636 L2001.34 236.735 Z" fill="#009af9" fill-rule="evenodd" fill-opacity="1" stroke="#000000" stroke-opacity="1" stroke-width="5.12"/>
<path clip-path="url(#clip060)" d="M2074.01 199.897 L2078.29 199.897 L2078.29 221.17 L2091 209.99 L2096.44 209.99 L2082.69 222.119 L2097.02 235.916 L2091.47 235.916 L2078.29 223.254 L2078.29 235.916 L2074.01 235.916 L2074.01 199.897 Z" fill="#000000" fill-rule="evenodd" fill-opacity="1" /><path clip-path="url(#clip060)" d="M2102.18 214.388 L2131.86 214.388 L2131.86 218.277 L2102.18 218.277 L2102.18 214.388 M2102.18 223.832 L2131.86 223.832 L2131.86 227.768 L2102.18 227.768 L2102.18 223.832 Z" fill="#000000" fill-rule="evenodd" fill-opacity="1" /><path clip-path="url(#clip060)" d="M2151.95 204.434 Q2148.34 204.434 2146.51 207.999 Q2144.71 211.541 2144.71 218.67 Q2144.71 225.777 2146.51 229.342 Q2148.34 232.883 2151.95 232.883 Q2155.59 232.883 2157.39 229.342 Q2159.22 225.777 2159.22 218.67 Q2159.22 211.541 2157.39 207.999 Q2155.59 204.434 2151.95 204.434 M2151.95 200.731 Q2157.76 200.731 2160.82 205.337 Q2163.9 209.92 2163.9 218.67 Q2163.9 227.397 2160.82 232.004 Q2157.76 236.587 2151.95 236.587 Q2146.14 236.587 2143.06 232.004 Q2140.01 227.397 2140.01 218.67 Q2140.01 209.92 2143.06 205.337 Q2146.14 200.731 2151.95 200.731 Z" fill="#000000" fill-rule="evenodd" fill-opacity="1" /><path clip-path="url(#clip060)" d="M2172.11 230.036 L2177 230.036 L2177 235.916 L2172.11 235.916 L2172.11 230.036 Z" fill="#000000" fill-rule="evenodd" fill-opacity="1" /><path clip-path="url(#clip060)" d="M2187.23 201.356 L2205.59 201.356 L2205.59 205.291 L2191.51 205.291 L2191.51 213.763 Q2192.53 213.416 2193.55 213.254 Q2194.57 213.069 2195.59 213.069 Q2201.37 213.069 2204.75 216.24 Q2208.13 219.411 2208.13 224.828 Q2208.13 230.406 2204.66 233.508 Q2201.19 236.587 2194.87 236.587 Q2192.69 236.587 2190.42 236.217 Q2188.18 235.846 2185.77 235.106 L2185.77 230.406 Q2187.85 231.541 2190.08 232.096 Q2192.3 232.652 2194.78 232.652 Q2198.78 232.652 2201.12 230.545 Q2203.46 228.439 2203.46 224.828 Q2203.46 221.217 2201.12 219.11 Q2198.78 217.004 2194.78 217.004 Q2192.9 217.004 2191.03 217.42 Q2189.17 217.837 2187.23 218.717 L2187.23 201.356 Z" fill="#000000" fill-rule="evenodd" fill-opacity="1" /><polyline clip-path="url(#clip060)" style="stroke:#e26f46; stroke-linecap:butt; stroke-linejoin:round; stroke-width:4; stroke-opacity:1; fill:none" points="
  1915.16,270.476 2051.32,270.476 
  "/>
<path clip-path="url(#clip060)" d="M1983.24 296.076 L1965.14 288.575 L1957.64 270.476 L1965.14 252.377 L1983.24 244.876 L2001.34 252.377 L2008.84 270.476 L2001.34 288.575 Z" fill="#e26f46" fill-rule="evenodd" fill-opacity="1" stroke="#000000" stroke-opacity="1" stroke-width="5.12"/>
<path clip-path="url(#clip060)" d="M2074.01 251.737 L2078.29 251.737 L2078.29 273.01 L2091 261.83 L2096.44 261.83 L2082.69 273.959 L2097.02 287.756 L2091.47 287.756 L2078.29 275.094 L2078.29 287.756 L2074.01 287.756 L2074.01 251.737 Z" fill="#000000" fill-rule="evenodd" fill-opacity="1" /><path clip-path="url(#clip060)" d="M2102.18 266.228 L2131.86 266.228 L2131.86 270.117 L2102.18 270.117 L2102.18 266.228 M2102.18 275.672 L2131.86 275.672 L2131.86 279.608 L2102.18 279.608 L2102.18 275.672 Z" fill="#000000" fill-rule="evenodd" fill-opacity="1" /><path clip-path="url(#clip060)" d="M2142.76 283.821 L2150.4 283.821 L2150.4 257.455 L2142.09 259.122 L2142.09 254.862 L2150.35 253.196 L2155.03 253.196 L2155.03 283.821 L2162.67 283.821 L2162.67 287.756 L2142.76 287.756 L2142.76 283.821 Z" fill="#000000" fill-rule="evenodd" fill-opacity="1" /><path clip-path="url(#clip060)" d="M2172.11 281.876 L2177 281.876 L2177 287.756 L2172.11 287.756 L2172.11 281.876 Z" fill="#000000" fill-rule="evenodd" fill-opacity="1" /><path clip-path="url(#clip060)" d="M2197.18 256.274 Q2193.57 256.274 2191.74 259.839 Q2189.94 263.381 2189.94 270.51 Q2189.94 277.617 2191.74 281.182 Q2193.57 284.723 2197.18 284.723 Q2200.82 284.723 2202.62 281.182 Q2204.45 277.617 2204.45 270.51 Q2204.45 263.381 2202.62 259.839 Q2200.82 256.274 2197.18 256.274 M2197.18 252.571 Q2202.99 252.571 2206.05 257.177 Q2209.13 261.76 2209.13 270.51 Q2209.13 279.237 2206.05 283.844 Q2202.99 288.427 2197.18 288.427 Q2191.37 288.427 2188.29 283.844 Q2185.24 279.237 2185.24 270.51 Q2185.24 261.76 2188.29 257.177 Q2191.37 252.571 2197.18 252.571 Z" fill="#000000" fill-rule="evenodd" fill-opacity="1" /><path clip-path="url(#clip060)" d="M2227.34 256.274 Q2223.73 256.274 2221.9 259.839 Q2220.1 263.381 2220.1 270.51 Q2220.1 277.617 2221.9 281.182 Q2223.73 284.723 2227.34 284.723 Q2230.98 284.723 2232.78 281.182 Q2234.61 277.617 2234.61 270.51 Q2234.61 263.381 2232.78 259.839 Q2230.98 256.274 2227.34 256.274 M2227.34 252.571 Q2233.15 252.571 2236.21 257.177 Q2239.29 261.76 2239.29 270.51 Q2239.29 279.237 2236.21 283.844 Q2233.15 288.427 2227.34 288.427 Q2221.53 288.427 2218.46 283.844 Q2215.4 279.237 2215.4 270.51 Q2215.4 261.76 2218.46 257.177 Q2221.53 252.571 2227.34 252.571 Z" fill="#000000" fill-rule="evenodd" fill-opacity="1" /></svg>
