<?xml version="1.0" encoding="utf-8"?>
<svg xmlns="http://www.w3.org/2000/svg" xmlns:xlink="http://www.w3.org/1999/xlink" width="600" height="400" viewBox="0 0 2400 1600">
<defs>
  <clipPath id="clip970">
    <rect x="0" y="0" width="2400" height="1600"/>
  </clipPath>
</defs>
<path clip-path="url(#clip970)" d="
M0 1600 L2400 1600 L2400 0 L0 0  Z
  " fill="#ffffff" fill-rule="evenodd" fill-opacity="1"/>
<defs>
  <clipPath id="clip971">
    <rect x="480" y="0" width="1681" height="1600"/>
  </clipPath>
</defs>
<path clip-path="url(#clip970)" d="
M279.704 1423.18 L2352.76 1423.18 L2352.76 123.472 L279.704 123.472  Z
  " fill="#ffffff" fill-rule="evenodd" fill-opacity="1"/>
<defs>
  <clipPath id="clip972">
    <rect x="279" y="123" width="2074" height="1301"/>
  </clipPath>
</defs>
<polyline clip-path="url(#clip972)" style="stroke:#000000; stroke-linecap:butt; stroke-linejoin:round; stroke-width:2; stroke-opacity:0.1; fill:none" points="
  608.128,1423.18 608.128,123.472 
  "/>
<polyline clip-path="url(#clip972)" style="stroke:#000000; stroke-linecap:butt; stroke-linejoin:round; stroke-width:2; stroke-opacity:0.1; fill:none" points="
  945.319,1423.18 945.319,123.472 
  "/>
<polyline clip-path="url(#clip972)" style="stroke:#000000; stroke-linecap:butt; stroke-linejoin:round; stroke-width:2; stroke-opacity:0.1; fill:none" points="
  1282.51,1423.18 1282.51,123.472 
  "/>
<polyline clip-path="url(#clip972)" style="stroke:#000000; stroke-linecap:butt; stroke-linejoin:round; stroke-width:2; stroke-opacity:0.1; fill:none" points="
  1619.7,1423.18 1619.7,123.472 
  "/>
<polyline clip-path="url(#clip972)" style="stroke:#000000; stroke-linecap:butt; stroke-linejoin:round; stroke-width:2; stroke-opacity:0.1; fill:none" points="
  1956.89,1423.18 1956.89,123.472 
  "/>
<polyline clip-path="url(#clip972)" style="stroke:#000000; stroke-linecap:butt; stroke-linejoin:round; stroke-width:2; stroke-opacity:0.1; fill:none" points="
  2294.08,1423.18 2294.08,123.472 
  "/>
<polyline clip-path="url(#clip970)" style="stroke:#000000; stroke-linecap:butt; stroke-linejoin:round; stroke-width:4; stroke-opacity:1; fill:none" points="
  279.704,1423.18 2352.76,1423.18 
  "/>
<polyline clip-path="url(#clip970)" style="stroke:#000000; stroke-linecap:butt; stroke-linejoin:round; stroke-width:4; stroke-opacity:1; fill:none" points="
  608.128,1423.18 608.128,1404.28 
  "/>
<polyline clip-path="url(#clip970)" style="stroke:#000000; stroke-linecap:butt; stroke-linejoin:round; stroke-width:4; stroke-opacity:1; fill:none" points="
  945.319,1423.18 945.319,1404.28 
  "/>
<polyline clip-path="url(#clip970)" style="stroke:#000000; stroke-linecap:butt; stroke-linejoin:round; stroke-width:4; stroke-opacity:1; fill:none" points="
  1282.51,1423.18 1282.51,1404.28 
  "/>
<polyline clip-path="url(#clip970)" style="stroke:#000000; stroke-linecap:butt; stroke-linejoin:round; stroke-width:4; stroke-opacity:1; fill:none" points="
  1619.7,1423.18 1619.7,1404.28 
  "/>
<polyline clip-path="url(#clip970)" style="stroke:#000000; stroke-linecap:butt; stroke-linejoin:round; stroke-width:4; stroke-opacity:1; fill:none" points="
  1956.89,1423.18 1956.89,1404.28 
  "/>
<polyline clip-path="url(#clip970)" style="stroke:#000000; stroke-linecap:butt; stroke-linejoin:round; stroke-width:4; stroke-opacity:1; fill:none" points="
  2294.08,1423.18 2294.08,1404.28 
  "/>
<path clip-path="url(#clip970)" d="M567.746 1451.02 L586.103 1451.02 L586.103 1454.96 L572.029 1454.96 L572.029 1463.43 Q573.047 1463.08 574.066 1462.92 Q575.084 1462.73 576.103 1462.73 Q581.89 1462.73 585.27 1465.9 Q588.649 1469.08 588.649 1474.49 Q588.649 1480.07 585.177 1483.17 Q581.705 1486.25 575.385 1486.25 Q573.209 1486.25 570.941 1485.88 Q568.696 1485.51 566.288 1484.77 L566.288 1480.07 Q568.371 1481.2 570.594 1481.76 Q572.816 1482.32 575.293 1482.32 Q579.297 1482.32 581.635 1480.21 Q583.973 1478.1 583.973 1474.49 Q583.973 1470.88 581.635 1468.77 Q579.297 1466.67 575.293 1466.67 Q573.418 1466.67 571.543 1467.08 Q569.691 1467.5 567.746 1468.38 L567.746 1451.02 Z" fill="#000000" fill-rule="evenodd" fill-opacity="1" /><path clip-path="url(#clip970)" d="M607.862 1454.1 Q604.251 1454.1 602.422 1457.66 Q600.617 1461.2 600.617 1468.33 Q600.617 1475.44 602.422 1479.01 Q604.251 1482.55 607.862 1482.55 Q611.496 1482.55 613.302 1479.01 Q615.13 1475.44 615.13 1468.33 Q615.13 1461.2 613.302 1457.66 Q611.496 1454.1 607.862 1454.1 M607.862 1450.39 Q613.672 1450.39 616.728 1455 Q619.806 1459.58 619.806 1468.33 Q619.806 1477.06 616.728 1481.67 Q613.672 1486.25 607.862 1486.25 Q602.052 1486.25 598.973 1481.67 Q595.918 1477.06 595.918 1468.33 Q595.918 1459.58 598.973 1455 Q602.052 1450.39 607.862 1450.39 Z" fill="#000000" fill-rule="evenodd" fill-opacity="1" /><path clip-path="url(#clip970)" d="M638.024 1454.1 Q634.413 1454.1 632.584 1457.66 Q630.779 1461.2 630.779 1468.33 Q630.779 1475.44 632.584 1479.01 Q634.413 1482.55 638.024 1482.55 Q641.658 1482.55 643.464 1479.01 Q645.292 1475.44 645.292 1468.33 Q645.292 1461.2 643.464 1457.66 Q641.658 1454.1 638.024 1454.1 M638.024 1450.39 Q643.834 1450.39 646.89 1455 Q649.968 1459.58 649.968 1468.33 Q649.968 1477.06 646.89 1481.67 Q643.834 1486.25 638.024 1486.25 Q632.214 1486.25 629.135 1481.67 Q626.08 1477.06 626.08 1468.33 Q626.08 1459.58 629.135 1455 Q632.214 1450.39 638.024 1450.39 Z" fill="#000000" fill-rule="evenodd" fill-opacity="1" /><path clip-path="url(#clip970)" d="M889.845 1481.64 L897.484 1481.64 L897.484 1455.28 L889.174 1456.95 L889.174 1452.69 L897.438 1451.02 L902.114 1451.02 L902.114 1481.64 L909.753 1481.64 L909.753 1485.58 L889.845 1485.58 L889.845 1481.64 Z" fill="#000000" fill-rule="evenodd" fill-opacity="1" /><path clip-path="url(#clip970)" d="M929.197 1454.1 Q925.586 1454.1 923.757 1457.66 Q921.952 1461.2 921.952 1468.33 Q921.952 1475.44 923.757 1479.01 Q925.586 1482.55 929.197 1482.55 Q932.831 1482.55 934.637 1479.01 Q936.465 1475.44 936.465 1468.33 Q936.465 1461.2 934.637 1457.66 Q932.831 1454.1 929.197 1454.1 M929.197 1450.39 Q935.007 1450.39 938.063 1455 Q941.141 1459.58 941.141 1468.33 Q941.141 1477.06 938.063 1481.67 Q935.007 1486.25 929.197 1486.25 Q923.387 1486.25 920.308 1481.67 Q917.253 1477.06 917.253 1468.33 Q917.253 1459.58 920.308 1455 Q923.387 1450.39 929.197 1450.39 Z" fill="#000000" fill-rule="evenodd" fill-opacity="1" /><path clip-path="url(#clip970)" d="M959.359 1454.1 Q955.748 1454.1 953.919 1457.66 Q952.113 1461.2 952.113 1468.33 Q952.113 1475.44 953.919 1479.01 Q955.748 1482.55 959.359 1482.55 Q962.993 1482.55 964.799 1479.01 Q966.627 1475.44 966.627 1468.33 Q966.627 1461.2 964.799 1457.66 Q962.993 1454.1 959.359 1454.1 M959.359 1450.39 Q965.169 1450.39 968.224 1455 Q971.303 1459.58 971.303 1468.33 Q971.303 1477.06 968.224 1481.67 Q965.169 1486.25 959.359 1486.25 Q953.549 1486.25 950.47 1481.67 Q947.414 1477.06 947.414 1468.33 Q947.414 1459.58 950.47 1455 Q953.549 1450.39 959.359 1450.39 Z" fill="#000000" fill-rule="evenodd" fill-opacity="1" /><path clip-path="url(#clip970)" d="M989.521 1454.1 Q985.91 1454.1 984.081 1457.66 Q982.275 1461.2 982.275 1468.33 Q982.275 1475.44 984.081 1479.01 Q985.91 1482.55 989.521 1482.55 Q993.155 1482.55 994.96 1479.01 Q996.789 1475.44 996.789 1468.33 Q996.789 1461.2 994.96 1457.66 Q993.155 1454.1 989.521 1454.1 M989.521 1450.39 Q995.331 1450.39 998.386 1455 Q1001.47 1459.58 1001.47 1468.33 Q1001.47 1477.06 998.386 1481.67 Q995.331 1486.25 989.521 1486.25 Q983.71 1486.25 980.632 1481.67 Q977.576 1477.06 977.576 1468.33 Q977.576 1459.58 980.632 1455 Q983.71 1450.39 989.521 1450.39 Z" fill="#000000" fill-rule="evenodd" fill-opacity="1" /><path clip-path="url(#clip970)" d="M1227.04 1481.64 L1234.68 1481.64 L1234.68 1455.28 L1226.37 1456.95 L1226.37 1452.69 L1234.63 1451.02 L1239.3 1451.02 L1239.3 1481.64 L1246.94 1481.64 L1246.94 1485.58 L1227.04 1485.58 L1227.04 1481.64 Z" fill="#000000" fill-rule="evenodd" fill-opacity="1" /><path clip-path="url(#clip970)" d="M1256.43 1451.02 L1274.79 1451.02 L1274.79 1454.96 L1260.72 1454.96 L1260.72 1463.43 Q1261.74 1463.08 1262.75 1462.92 Q1263.77 1462.73 1264.79 1462.73 Q1270.58 1462.73 1273.96 1465.9 Q1277.34 1469.08 1277.34 1474.49 Q1277.34 1480.07 1273.86 1483.17 Q1270.39 1486.25 1264.07 1486.25 Q1261.9 1486.25 1259.63 1485.88 Q1257.38 1485.51 1254.98 1484.77 L1254.98 1480.07 Q1257.06 1481.2 1259.28 1481.76 Q1261.5 1482.32 1263.98 1482.32 Q1267.99 1482.32 1270.32 1480.21 Q1272.66 1478.1 1272.66 1474.49 Q1272.66 1470.88 1270.32 1468.77 Q1267.99 1466.67 1263.98 1466.67 Q1262.11 1466.67 1260.23 1467.08 Q1258.38 1467.5 1256.43 1468.38 L1256.43 1451.02 Z" fill="#000000" fill-rule="evenodd" fill-opacity="1" /><path clip-path="url(#clip970)" d="M1296.55 1454.1 Q1292.94 1454.1 1291.11 1457.66 Q1289.3 1461.2 1289.3 1468.33 Q1289.3 1475.44 1291.11 1479.01 Q1292.94 1482.55 1296.55 1482.55 Q1300.18 1482.55 1301.99 1479.01 Q1303.82 1475.44 1303.82 1468.33 Q1303.82 1461.2 1301.99 1457.66 Q1300.18 1454.1 1296.55 1454.1 M1296.55 1450.39 Q1302.36 1450.39 1305.42 1455 Q1308.49 1459.58 1308.49 1468.33 Q1308.49 1477.06 1305.42 1481.67 Q1302.36 1486.25 1296.55 1486.25 Q1290.74 1486.25 1287.66 1481.67 Q1284.61 1477.06 1284.61 1468.33 Q1284.61 1459.58 1287.66 1455 Q1290.74 1450.39 1296.55 1450.39 Z" fill="#000000" fill-rule="evenodd" fill-opacity="1" /><path clip-path="url(#clip970)" d="M1326.71 1454.1 Q1323.1 1454.1 1321.27 1457.66 Q1319.47 1461.2 1319.47 1468.33 Q1319.47 1475.44 1321.27 1479.01 Q1323.1 1482.55 1326.71 1482.55 Q1330.35 1482.55 1332.15 1479.01 Q1333.98 1475.44 1333.98 1468.33 Q1333.98 1461.2 1332.15 1457.66 Q1330.35 1454.1 1326.71 1454.1 M1326.71 1450.39 Q1332.52 1450.39 1335.58 1455 Q1338.66 1459.58 1338.66 1468.33 Q1338.66 1477.06 1335.58 1481.67 Q1332.52 1486.25 1326.71 1486.25 Q1320.9 1486.25 1317.82 1481.67 Q1314.77 1477.06 1314.77 1468.33 Q1314.77 1459.58 1317.82 1455 Q1320.9 1450.39 1326.71 1450.39 Z" fill="#000000" fill-rule="evenodd" fill-opacity="1" /><path clip-path="url(#clip970)" d="M1568.31 1481.64 L1584.63 1481.64 L1584.63 1485.58 L1562.69 1485.58 L1562.69 1481.64 Q1565.35 1478.89 1569.93 1474.26 Q1574.54 1469.61 1575.72 1468.27 Q1577.97 1465.74 1578.85 1464.01 Q1579.75 1462.25 1579.75 1460.56 Q1579.75 1457.8 1577.8 1456.07 Q1575.88 1454.33 1572.78 1454.33 Q1570.58 1454.33 1568.13 1455.09 Q1565.7 1455.86 1562.92 1457.41 L1562.92 1452.69 Q1565.74 1451.55 1568.2 1450.97 Q1570.65 1450.39 1572.69 1450.39 Q1578.06 1450.39 1581.25 1453.08 Q1584.45 1455.77 1584.45 1460.26 Q1584.45 1462.39 1583.64 1464.31 Q1582.85 1466.2 1580.74 1468.8 Q1580.17 1469.47 1577.06 1472.69 Q1573.96 1475.88 1568.31 1481.64 Z" fill="#000000" fill-rule="evenodd" fill-opacity="1" /><path clip-path="url(#clip970)" d="M1604.45 1454.1 Q1600.84 1454.1 1599.01 1457.66 Q1597.2 1461.2 1597.2 1468.33 Q1597.2 1475.44 1599.01 1479.01 Q1600.84 1482.55 1604.45 1482.55 Q1608.08 1482.55 1609.89 1479.01 Q1611.72 1475.44 1611.72 1468.33 Q1611.72 1461.2 1609.89 1457.66 Q1608.08 1454.1 1604.45 1454.1 M1604.45 1450.39 Q1610.26 1450.39 1613.31 1455 Q1616.39 1459.58 1616.39 1468.33 Q1616.39 1477.06 1613.31 1481.67 Q1610.26 1486.25 1604.45 1486.25 Q1598.64 1486.25 1595.56 1481.67 Q1592.5 1477.06 1592.5 1468.33 Q1592.5 1459.58 1595.56 1455 Q1598.64 1450.39 1604.45 1450.39 Z" fill="#000000" fill-rule="evenodd" fill-opacity="1" /><path clip-path="url(#clip970)" d="M1634.61 1454.1 Q1631 1454.1 1629.17 1457.66 Q1627.36 1461.2 1627.36 1468.33 Q1627.36 1475.44 1629.17 1479.01 Q1631 1482.55 1634.61 1482.55 Q1638.24 1482.55 1640.05 1479.01 Q1641.88 1475.44 1641.88 1468.33 Q1641.88 1461.2 1640.05 1457.66 Q1638.24 1454.1 1634.61 1454.1 M1634.61 1450.39 Q1640.42 1450.39 1643.48 1455 Q1646.55 1459.58 1646.55 1468.33 Q1646.55 1477.06 1643.48 1481.67 Q1640.42 1486.25 1634.61 1486.25 Q1628.8 1486.25 1625.72 1481.67 Q1622.67 1477.06 1622.67 1468.33 Q1622.67 1459.58 1625.72 1455 Q1628.8 1450.39 1634.61 1450.39 Z" fill="#000000" fill-rule="evenodd" fill-opacity="1" /><path clip-path="url(#clip970)" d="M1664.77 1454.1 Q1661.16 1454.1 1659.33 1457.66 Q1657.53 1461.2 1657.53 1468.33 Q1657.53 1475.44 1659.33 1479.01 Q1661.16 1482.55 1664.77 1482.55 Q1668.41 1482.55 1670.21 1479.01 Q1672.04 1475.44 1672.04 1468.33 Q1672.04 1461.2 1670.21 1457.66 Q1668.41 1454.1 1664.77 1454.1 M1664.77 1450.39 Q1670.58 1450.39 1673.64 1455 Q1676.72 1459.58 1676.72 1468.33 Q1676.72 1477.06 1673.64 1481.67 Q1670.58 1486.25 1664.77 1486.25 Q1658.96 1486.25 1655.88 1481.67 Q1652.83 1477.06 1652.83 1468.33 Q1652.83 1459.58 1655.88 1455 Q1658.96 1450.39 1664.77 1450.39 Z" fill="#000000" fill-rule="evenodd" fill-opacity="1" /><path clip-path="url(#clip970)" d="M1905.5 1481.64 L1921.82 1481.64 L1921.82 1485.58 L1899.88 1485.58 L1899.88 1481.64 Q1902.54 1478.89 1907.13 1474.26 Q1911.73 1469.61 1912.91 1468.27 Q1915.16 1465.74 1916.04 1464.01 Q1916.94 1462.25 1916.94 1460.56 Q1916.94 1457.8 1915 1456.07 Q1913.07 1454.33 1909.97 1454.33 Q1907.77 1454.33 1905.32 1455.09 Q1902.89 1455.86 1900.11 1457.41 L1900.11 1452.69 Q1902.94 1451.55 1905.39 1450.97 Q1907.84 1450.39 1909.88 1450.39 Q1915.25 1450.39 1918.44 1453.08 Q1921.64 1455.77 1921.64 1460.26 Q1921.64 1462.39 1920.83 1464.31 Q1920.04 1466.2 1917.94 1468.8 Q1917.36 1469.47 1914.25 1472.69 Q1911.15 1475.88 1905.5 1481.64 Z" fill="#000000" fill-rule="evenodd" fill-opacity="1" /><path clip-path="url(#clip970)" d="M1931.69 1451.02 L1950.04 1451.02 L1950.04 1454.96 L1935.97 1454.96 L1935.97 1463.43 Q1936.99 1463.08 1938 1462.92 Q1939.02 1462.73 1940.04 1462.73 Q1945.83 1462.73 1949.21 1465.9 Q1952.59 1469.08 1952.59 1474.49 Q1952.59 1480.07 1949.12 1483.17 Q1945.64 1486.25 1939.32 1486.25 Q1937.15 1486.25 1934.88 1485.88 Q1932.63 1485.51 1930.23 1484.77 L1930.23 1480.07 Q1932.31 1481.2 1934.53 1481.76 Q1936.75 1482.32 1939.23 1482.32 Q1943.24 1482.32 1945.57 1480.21 Q1947.91 1478.1 1947.91 1474.49 Q1947.91 1470.88 1945.57 1468.77 Q1943.24 1466.67 1939.23 1466.67 Q1937.36 1466.67 1935.48 1467.08 Q1933.63 1467.5 1931.69 1468.38 L1931.69 1451.02 Z" fill="#000000" fill-rule="evenodd" fill-opacity="1" /><path clip-path="url(#clip970)" d="M1971.8 1454.1 Q1968.19 1454.1 1966.36 1457.66 Q1964.56 1461.2 1964.56 1468.33 Q1964.56 1475.44 1966.36 1479.01 Q1968.19 1482.55 1971.8 1482.55 Q1975.43 1482.55 1977.24 1479.01 Q1979.07 1475.44 1979.07 1468.33 Q1979.07 1461.2 1977.24 1457.66 Q1975.43 1454.1 1971.8 1454.1 M1971.8 1450.39 Q1977.61 1450.39 1980.67 1455 Q1983.75 1459.58 1983.75 1468.33 Q1983.75 1477.06 1980.67 1481.67 Q1977.61 1486.25 1971.8 1486.25 Q1965.99 1486.25 1962.91 1481.67 Q1959.86 1477.06 1959.86 1468.33 Q1959.86 1459.58 1962.91 1455 Q1965.99 1450.39 1971.8 1450.39 Z" fill="#000000" fill-rule="evenodd" fill-opacity="1" /><path clip-path="url(#clip970)" d="M2001.96 1454.1 Q1998.35 1454.1 1996.52 1457.66 Q1994.72 1461.2 1994.72 1468.33 Q1994.72 1475.44 1996.52 1479.01 Q1998.35 1482.55 2001.96 1482.55 Q2005.6 1482.55 2007.4 1479.01 Q2009.23 1475.44 2009.23 1468.33 Q2009.23 1461.2 2007.4 1457.66 Q2005.6 1454.1 2001.96 1454.1 M2001.96 1450.39 Q2007.77 1450.39 2010.83 1455 Q2013.91 1459.58 2013.91 1468.33 Q2013.91 1477.06 2010.83 1481.67 Q2007.77 1486.25 2001.96 1486.25 Q1996.15 1486.25 1993.07 1481.67 Q1990.02 1477.06 1990.02 1468.33 Q1990.02 1459.58 1993.07 1455 Q1996.15 1450.39 2001.96 1450.39 Z" fill="#000000" fill-rule="evenodd" fill-opacity="1" /><path clip-path="url(#clip970)" d="M2252.77 1466.95 Q2256.12 1467.66 2258 1469.93 Q2259.89 1472.2 2259.89 1475.53 Q2259.89 1480.65 2256.38 1483.45 Q2252.86 1486.25 2246.38 1486.25 Q2244.2 1486.25 2241.89 1485.81 Q2239.59 1485.39 2237.14 1484.54 L2237.14 1480.02 Q2239.08 1481.16 2241.4 1481.74 Q2243.71 1482.32 2246.24 1482.32 Q2250.64 1482.32 2252.93 1480.58 Q2255.24 1478.84 2255.24 1475.53 Q2255.24 1472.48 2253.09 1470.77 Q2250.96 1469.03 2247.14 1469.03 L2243.11 1469.03 L2243.11 1465.19 L2247.33 1465.19 Q2250.77 1465.19 2252.6 1463.82 Q2254.43 1462.43 2254.43 1459.84 Q2254.43 1457.18 2252.53 1455.77 Q2250.66 1454.33 2247.14 1454.33 Q2245.22 1454.33 2243.02 1454.75 Q2240.82 1455.16 2238.18 1456.04 L2238.18 1451.88 Q2240.84 1451.14 2243.16 1450.77 Q2245.5 1450.39 2247.56 1450.39 Q2252.88 1450.39 2255.98 1452.83 Q2259.08 1455.23 2259.08 1459.35 Q2259.08 1462.22 2257.44 1464.21 Q2255.8 1466.18 2252.77 1466.95 Z" fill="#000000" fill-rule="evenodd" fill-opacity="1" /><path clip-path="url(#clip970)" d="M2278.76 1454.1 Q2275.15 1454.1 2273.32 1457.66 Q2271.52 1461.2 2271.52 1468.33 Q2271.52 1475.44 2273.32 1479.01 Q2275.15 1482.55 2278.76 1482.55 Q2282.39 1482.55 2284.2 1479.01 Q2286.03 1475.44 2286.03 1468.33 Q2286.03 1461.2 2284.2 1457.66 Q2282.39 1454.1 2278.76 1454.1 M2278.76 1450.39 Q2284.57 1450.39 2287.63 1455 Q2290.71 1459.58 2290.71 1468.33 Q2290.71 1477.06 2287.63 1481.67 Q2284.57 1486.25 2278.76 1486.25 Q2272.95 1486.25 2269.87 1481.67 Q2266.82 1477.06 2266.82 1468.33 Q2266.82 1459.58 2269.87 1455 Q2272.95 1450.39 2278.76 1450.39 Z" fill="#000000" fill-rule="evenodd" fill-opacity="1" /><path clip-path="url(#clip970)" d="M2308.92 1454.1 Q2305.31 1454.1 2303.48 1457.66 Q2301.68 1461.2 2301.68 1468.33 Q2301.68 1475.44 2303.48 1479.01 Q2305.31 1482.55 2308.92 1482.55 Q2312.56 1482.55 2314.36 1479.01 Q2316.19 1475.44 2316.19 1468.33 Q2316.19 1461.2 2314.36 1457.66 Q2312.56 1454.1 2308.92 1454.1 M2308.92 1450.39 Q2314.73 1450.39 2317.79 1455 Q2320.87 1459.58 2320.87 1468.33 Q2320.87 1477.06 2317.79 1481.67 Q2314.73 1486.25 2308.92 1486.25 Q2303.11 1486.25 2300.03 1481.67 Q2296.98 1477.06 2296.98 1468.33 Q2296.98 1459.58 2300.03 1455 Q2303.11 1450.39 2308.92 1450.39 Z" fill="#000000" fill-rule="evenodd" fill-opacity="1" /><path clip-path="url(#clip970)" d="M2339.08 1454.1 Q2335.47 1454.1 2333.64 1457.66 Q2331.84 1461.2 2331.84 1468.33 Q2331.84 1475.44 2333.64 1479.01 Q2335.47 1482.55 2339.08 1482.55 Q2342.72 1482.55 2344.52 1479.01 Q2346.35 1475.44 2346.35 1468.33 Q2346.35 1461.2 2344.52 1457.66 Q2342.72 1454.1 2339.08 1454.1 M2339.08 1450.39 Q2344.89 1450.39 2347.95 1455 Q2351.03 1459.58 2351.03 1468.33 Q2351.03 1477.06 2347.95 1481.67 Q2344.89 1486.25 2339.08 1486.25 Q2333.27 1486.25 2330.2 1481.67 Q2327.14 1477.06 2327.14 1468.33 Q2327.14 1459.58 2330.2 1455 Q2333.27 1450.39 2339.08 1450.39 Z" fill="#000000" fill-rule="evenodd" fill-opacity="1" /><path clip-path="url(#clip970)" d="M1331.16 1546.53 L1331.16 1568.04 L1325.3 1568.04 L1325.3 1546.72 Q1325.3 1541.66 1323.33 1539.14 Q1321.35 1536.63 1317.41 1536.63 Q1312.67 1536.63 1309.93 1539.65 Q1307.19 1542.68 1307.19 1547.9 L1307.19 1568.04 L1301.3 1568.04 L1301.3 1532.4 L1307.19 1532.4 L1307.19 1537.93 Q1309.29 1534.72 1312.12 1533.13 Q1314.99 1531.54 1318.71 1531.54 Q1324.86 1531.54 1328.01 1535.36 Q1331.16 1539.14 1331.16 1546.53 Z" fill="#000000" fill-rule="evenodd" fill-opacity="1" /><polyline clip-path="url(#clip972)" style="stroke:#000000; stroke-linecap:butt; stroke-linejoin:round; stroke-width:2; stroke-opacity:0.1; fill:none" points="
  279.704,1388.42 2352.76,1388.42 
  "/>
<polyline clip-path="url(#clip972)" style="stroke:#000000; stroke-linecap:butt; stroke-linejoin:round; stroke-width:2; stroke-opacity:0.1; fill:none" points="
  279.704,1104.28 2352.76,1104.28 
  "/>
<polyline clip-path="url(#clip972)" style="stroke:#000000; stroke-linecap:butt; stroke-linejoin:round; stroke-width:2; stroke-opacity:0.1; fill:none" points="
  279.704,820.128 2352.76,820.128 
  "/>
<polyline clip-path="url(#clip972)" style="stroke:#000000; stroke-linecap:butt; stroke-linejoin:round; stroke-width:2; stroke-opacity:0.1; fill:none" points="
  279.704,535.982 2352.76,535.982 
  "/>
<polyline clip-path="url(#clip972)" style="stroke:#000000; stroke-linecap:butt; stroke-linejoin:round; stroke-width:2; stroke-opacity:0.1; fill:none" points="
  279.704,251.835 2352.76,251.835 
  "/>
<polyline clip-path="url(#clip970)" style="stroke:#000000; stroke-linecap:butt; stroke-linejoin:round; stroke-width:4; stroke-opacity:1; fill:none" points="
  279.704,1423.18 279.704,123.472 
  "/>
<polyline clip-path="url(#clip970)" style="stroke:#000000; stroke-linecap:butt; stroke-linejoin:round; stroke-width:4; stroke-opacity:1; fill:none" points="
  279.704,1388.42 298.602,1388.42 
  "/>
<polyline clip-path="url(#clip970)" style="stroke:#000000; stroke-linecap:butt; stroke-linejoin:round; stroke-width:4; stroke-opacity:1; fill:none" points="
  279.704,1104.28 298.602,1104.28 
  "/>
<polyline clip-path="url(#clip970)" style="stroke:#000000; stroke-linecap:butt; stroke-linejoin:round; stroke-width:4; stroke-opacity:1; fill:none" points="
  279.704,820.128 298.602,820.128 
  "/>
<polyline clip-path="url(#clip970)" style="stroke:#000000; stroke-linecap:butt; stroke-linejoin:round; stroke-width:4; stroke-opacity:1; fill:none" points="
  279.704,535.982 298.602,535.982 
  "/>
<polyline clip-path="url(#clip970)" style="stroke:#000000; stroke-linecap:butt; stroke-linejoin:round; stroke-width:4; stroke-opacity:1; fill:none" points="
  279.704,251.835 298.602,251.835 
  "/>
<path clip-path="url(#clip970)" d="M126.205 1374.22 Q122.593 1374.22 120.765 1377.79 Q118.959 1381.33 118.959 1388.46 Q118.959 1395.56 120.765 1399.13 Q122.593 1402.67 126.205 1402.67 Q129.839 1402.67 131.644 1399.13 Q133.473 1395.56 133.473 1388.46 Q133.473 1381.33 131.644 1377.79 Q129.839 1374.22 126.205 1374.22 M126.205 1370.52 Q132.015 1370.52 135.07 1375.12 Q138.149 1379.71 138.149 1388.46 Q138.149 1397.18 135.07 1401.79 Q132.015 1406.37 126.205 1406.37 Q120.394 1406.37 117.316 1401.79 Q114.26 1397.18 114.26 1388.46 Q114.26 1379.71 117.316 1375.12 Q120.394 1370.52 126.205 1370.52 Z" fill="#000000" fill-rule="evenodd" fill-opacity="1" /><path clip-path="url(#clip970)" d="M146.366 1399.82 L151.251 1399.82 L151.251 1405.7 L146.366 1405.7 L146.366 1399.82 Z" fill="#000000" fill-rule="evenodd" fill-opacity="1" /><path clip-path="url(#clip970)" d="M171.436 1374.22 Q167.825 1374.22 165.996 1377.79 Q164.19 1381.33 164.19 1388.46 Q164.19 1395.56 165.996 1399.13 Q167.825 1402.67 171.436 1402.67 Q175.07 1402.67 176.876 1399.13 Q178.704 1395.56 178.704 1388.46 Q178.704 1381.33 176.876 1377.79 Q175.07 1374.22 171.436 1374.22 M171.436 1370.52 Q177.246 1370.52 180.301 1375.12 Q183.38 1379.71 183.38 1388.46 Q183.38 1397.18 180.301 1401.79 Q177.246 1406.37 171.436 1406.37 Q165.626 1406.37 162.547 1401.79 Q159.491 1397.18 159.491 1388.46 Q159.491 1379.71 162.547 1375.12 Q165.626 1370.52 171.436 1370.52 Z" fill="#000000" fill-rule="evenodd" fill-opacity="1" /><path clip-path="url(#clip970)" d="M201.598 1374.22 Q197.987 1374.22 196.158 1377.79 Q194.352 1381.33 194.352 1388.46 Q194.352 1395.56 196.158 1399.13 Q197.987 1402.67 201.598 1402.67 Q205.232 1402.67 207.037 1399.13 Q208.866 1395.56 208.866 1388.46 Q208.866 1381.33 207.037 1377.79 Q205.232 1374.22 201.598 1374.22 M201.598 1370.52 Q207.408 1370.52 210.463 1375.12 Q213.542 1379.71 213.542 1388.46 Q213.542 1397.18 210.463 1401.79 Q207.408 1406.37 201.598 1406.37 Q195.787 1406.37 192.709 1401.79 Q189.653 1397.18 189.653 1388.46 Q189.653 1379.71 192.709 1375.12 Q195.787 1370.52 201.598 1370.52 Z" fill="#000000" fill-rule="evenodd" fill-opacity="1" /><path clip-path="url(#clip970)" d="M231.76 1374.22 Q228.148 1374.22 226.32 1377.79 Q224.514 1381.33 224.514 1388.46 Q224.514 1395.56 226.32 1399.13 Q228.148 1402.67 231.76 1402.67 Q235.394 1402.67 237.199 1399.13 Q239.028 1395.56 239.028 1388.46 Q239.028 1381.33 237.199 1377.79 Q235.394 1374.22 231.76 1374.22 M231.76 1370.52 Q237.57 1370.52 240.625 1375.12 Q243.704 1379.71 243.704 1388.46 Q243.704 1397.18 240.625 1401.79 Q237.57 1406.37 231.76 1406.37 Q225.949 1406.37 222.871 1401.79 Q219.815 1397.18 219.815 1388.46 Q219.815 1379.71 222.871 1375.12 Q225.949 1370.52 231.76 1370.52 Z" fill="#000000" fill-rule="evenodd" fill-opacity="1" /><path clip-path="url(#clip970)" d="M127.2 1090.07 Q123.589 1090.07 121.76 1093.64 Q119.955 1097.18 119.955 1104.31 Q119.955 1111.42 121.76 1114.98 Q123.589 1118.52 127.2 1118.52 Q130.834 1118.52 132.64 1114.98 Q134.468 1111.42 134.468 1104.31 Q134.468 1097.18 132.64 1093.64 Q130.834 1090.07 127.2 1090.07 M127.2 1086.37 Q133.01 1086.37 136.066 1090.98 Q139.144 1095.56 139.144 1104.31 Q139.144 1113.04 136.066 1117.64 Q133.01 1122.23 127.2 1122.23 Q121.39 1122.23 118.311 1117.64 Q115.256 1113.04 115.256 1104.31 Q115.256 1095.56 118.311 1090.98 Q121.39 1086.37 127.2 1086.37 Z" fill="#000000" fill-rule="evenodd" fill-opacity="1" /><path clip-path="url(#clip970)" d="M147.362 1115.68 L152.246 1115.68 L152.246 1121.56 L147.362 1121.56 L147.362 1115.68 Z" fill="#000000" fill-rule="evenodd" fill-opacity="1" /><path clip-path="url(#clip970)" d="M172.431 1090.07 Q168.82 1090.07 166.991 1093.64 Q165.186 1097.18 165.186 1104.31 Q165.186 1111.42 166.991 1114.98 Q168.82 1118.52 172.431 1118.52 Q176.065 1118.52 177.871 1114.98 Q179.7 1111.42 179.7 1104.31 Q179.7 1097.18 177.871 1093.64 Q176.065 1090.07 172.431 1090.07 M172.431 1086.37 Q178.241 1086.37 181.297 1090.98 Q184.376 1095.56 184.376 1104.31 Q184.376 1113.04 181.297 1117.64 Q178.241 1122.23 172.431 1122.23 Q166.621 1122.23 163.542 1117.64 Q160.487 1113.04 160.487 1104.31 Q160.487 1095.56 163.542 1090.98 Q166.621 1086.37 172.431 1086.37 Z" fill="#000000" fill-rule="evenodd" fill-opacity="1" /><path clip-path="url(#clip970)" d="M202.593 1090.07 Q198.982 1090.07 197.153 1093.64 Q195.348 1097.18 195.348 1104.31 Q195.348 1111.42 197.153 1114.98 Q198.982 1118.52 202.593 1118.52 Q206.227 1118.52 208.033 1114.98 Q209.861 1111.42 209.861 1104.31 Q209.861 1097.18 208.033 1093.64 Q206.227 1090.07 202.593 1090.07 M202.593 1086.37 Q208.403 1086.37 211.459 1090.98 Q214.537 1095.56 214.537 1104.31 Q214.537 1113.04 211.459 1117.64 Q208.403 1122.23 202.593 1122.23 Q196.783 1122.23 193.704 1117.64 Q190.649 1113.04 190.649 1104.31 Q190.649 1095.56 193.704 1090.98 Q196.783 1086.37 202.593 1086.37 Z" fill="#000000" fill-rule="evenodd" fill-opacity="1" /><path clip-path="url(#clip970)" d="M222.801 1087 L241.158 1087 L241.158 1090.93 L227.084 1090.93 L227.084 1099.4 Q228.102 1099.06 229.121 1098.89 Q230.139 1098.71 231.158 1098.71 Q236.945 1098.71 240.324 1101.88 Q243.704 1105.05 243.704 1110.47 Q243.704 1116.05 240.232 1119.15 Q236.76 1122.23 230.44 1122.23 Q228.264 1122.23 225.996 1121.86 Q223.75 1121.49 221.343 1120.75 L221.343 1116.05 Q223.426 1117.18 225.648 1117.74 Q227.871 1118.29 230.347 1118.29 Q234.352 1118.29 236.69 1116.18 Q239.028 1114.08 239.028 1110.47 Q239.028 1106.86 236.69 1104.75 Q234.352 1102.64 230.347 1102.64 Q228.473 1102.64 226.598 1103.06 Q224.746 1103.48 222.801 1104.36 L222.801 1087 Z" fill="#000000" fill-rule="evenodd" fill-opacity="1" /><path clip-path="url(#clip970)" d="M126.205 805.927 Q122.593 805.927 120.765 809.492 Q118.959 813.034 118.959 820.163 Q118.959 827.27 120.765 830.834 Q122.593 834.376 126.205 834.376 Q129.839 834.376 131.644 830.834 Q133.473 827.27 133.473 820.163 Q133.473 813.034 131.644 809.492 Q129.839 805.927 126.205 805.927 M126.205 802.223 Q132.015 802.223 135.07 806.83 Q138.149 811.413 138.149 820.163 Q138.149 828.89 135.07 833.496 Q132.015 838.08 126.205 838.08 Q120.394 838.08 117.316 833.496 Q114.26 828.89 114.26 820.163 Q114.26 811.413 117.316 806.83 Q120.394 802.223 126.205 802.223 Z" fill="#000000" fill-rule="evenodd" fill-opacity="1" /><path clip-path="url(#clip970)" d="M146.366 831.529 L151.251 831.529 L151.251 837.408 L146.366 837.408 L146.366 831.529 Z" fill="#000000" fill-rule="evenodd" fill-opacity="1" /><path clip-path="url(#clip970)" d="M171.436 805.927 Q167.825 805.927 165.996 809.492 Q164.19 813.034 164.19 820.163 Q164.19 827.27 165.996 830.834 Q167.825 834.376 171.436 834.376 Q175.07 834.376 176.876 830.834 Q178.704 827.27 178.704 820.163 Q178.704 813.034 176.876 809.492 Q175.07 805.927 171.436 805.927 M171.436 802.223 Q177.246 802.223 180.301 806.83 Q183.38 811.413 183.38 820.163 Q183.38 828.89 180.301 833.496 Q177.246 838.08 171.436 838.08 Q165.626 838.08 162.547 833.496 Q159.491 828.89 159.491 820.163 Q159.491 811.413 162.547 806.83 Q165.626 802.223 171.436 802.223 Z" fill="#000000" fill-rule="evenodd" fill-opacity="1" /><path clip-path="url(#clip970)" d="M192.408 833.473 L200.047 833.473 L200.047 807.108 L191.737 808.774 L191.737 804.515 L200 802.848 L204.676 802.848 L204.676 833.473 L212.315 833.473 L212.315 837.408 L192.408 837.408 L192.408 833.473 Z" fill="#000000" fill-rule="evenodd" fill-opacity="1" /><path clip-path="url(#clip970)" d="M231.76 805.927 Q228.148 805.927 226.32 809.492 Q224.514 813.034 224.514 820.163 Q224.514 827.27 226.32 830.834 Q228.148 834.376 231.76 834.376 Q235.394 834.376 237.199 830.834 Q239.028 827.27 239.028 820.163 Q239.028 813.034 237.199 809.492 Q235.394 805.927 231.76 805.927 M231.76 802.223 Q237.57 802.223 240.625 806.83 Q243.704 811.413 243.704 820.163 Q243.704 828.89 240.625 833.496 Q237.57 838.08 231.76 838.08 Q225.949 838.08 222.871 833.496 Q219.815 828.89 219.815 820.163 Q219.815 811.413 222.871 806.83 Q225.949 802.223 231.76 802.223 Z" fill="#000000" fill-rule="evenodd" fill-opacity="1" /><path clip-path="url(#clip970)" d="M127.2 521.78 Q123.589 521.78 121.76 525.345 Q119.955 528.887 119.955 536.016 Q119.955 543.123 121.76 546.688 Q123.589 550.229 127.2 550.229 Q130.834 550.229 132.64 546.688 Q134.468 543.123 134.468 536.016 Q134.468 528.887 132.64 525.345 Q130.834 521.78 127.2 521.78 M127.2 518.077 Q133.01 518.077 136.066 522.683 Q139.144 527.266 139.144 536.016 Q139.144 544.743 136.066 549.35 Q133.01 553.933 127.2 553.933 Q121.39 553.933 118.311 549.35 Q115.256 544.743 115.256 536.016 Q115.256 527.266 118.311 522.683 Q121.39 518.077 127.2 518.077 Z" fill="#000000" fill-rule="evenodd" fill-opacity="1" /><path clip-path="url(#clip970)" d="M147.362 547.382 L152.246 547.382 L152.246 553.262 L147.362 553.262 L147.362 547.382 Z" fill="#000000" fill-rule="evenodd" fill-opacity="1" /><path clip-path="url(#clip970)" d="M172.431 521.78 Q168.82 521.78 166.991 525.345 Q165.186 528.887 165.186 536.016 Q165.186 543.123 166.991 546.688 Q168.82 550.229 172.431 550.229 Q176.065 550.229 177.871 546.688 Q179.7 543.123 179.7 536.016 Q179.7 528.887 177.871 525.345 Q176.065 521.78 172.431 521.78 M172.431 518.077 Q178.241 518.077 181.297 522.683 Q184.376 527.266 184.376 536.016 Q184.376 544.743 181.297 549.35 Q178.241 553.933 172.431 553.933 Q166.621 553.933 163.542 549.35 Q160.487 544.743 160.487 536.016 Q160.487 527.266 163.542 522.683 Q166.621 518.077 172.431 518.077 Z" fill="#000000" fill-rule="evenodd" fill-opacity="1" /><path clip-path="url(#clip970)" d="M193.403 549.327 L201.042 549.327 L201.042 522.961 L192.732 524.628 L192.732 520.368 L200.996 518.702 L205.672 518.702 L205.672 549.327 L213.311 549.327 L213.311 553.262 L193.403 553.262 L193.403 549.327 Z" fill="#000000" fill-rule="evenodd" fill-opacity="1" /><path clip-path="url(#clip970)" d="M222.801 518.702 L241.158 518.702 L241.158 522.637 L227.084 522.637 L227.084 531.109 Q228.102 530.762 229.121 530.6 Q230.139 530.415 231.158 530.415 Q236.945 530.415 240.324 533.586 Q243.704 536.757 243.704 542.174 Q243.704 547.752 240.232 550.854 Q236.76 553.933 230.44 553.933 Q228.264 553.933 225.996 553.563 Q223.75 553.192 221.343 552.452 L221.343 547.752 Q223.426 548.887 225.648 549.442 Q227.871 549.998 230.347 549.998 Q234.352 549.998 236.69 547.891 Q239.028 545.785 239.028 542.174 Q239.028 538.563 236.69 536.456 Q234.352 534.35 230.347 534.35 Q228.473 534.35 226.598 534.766 Q224.746 535.183 222.801 536.063 L222.801 518.702 Z" fill="#000000" fill-rule="evenodd" fill-opacity="1" /><path clip-path="url(#clip970)" d="M126.205 237.634 Q122.593 237.634 120.765 241.198 Q118.959 244.74 118.959 251.87 Q118.959 258.976 120.765 262.541 Q122.593 266.083 126.205 266.083 Q129.839 266.083 131.644 262.541 Q133.473 258.976 133.473 251.87 Q133.473 244.74 131.644 241.198 Q129.839 237.634 126.205 237.634 M126.205 233.93 Q132.015 233.93 135.07 238.536 Q138.149 243.12 138.149 251.87 Q138.149 260.596 135.07 265.203 Q132.015 269.786 126.205 269.786 Q120.394 269.786 117.316 265.203 Q114.26 260.596 114.26 251.87 Q114.26 243.12 117.316 238.536 Q120.394 233.93 126.205 233.93 Z" fill="#000000" fill-rule="evenodd" fill-opacity="1" /><path clip-path="url(#clip970)" d="M146.366 263.235 L151.251 263.235 L151.251 269.115 L146.366 269.115 L146.366 263.235 Z" fill="#000000" fill-rule="evenodd" fill-opacity="1" /><path clip-path="url(#clip970)" d="M171.436 237.634 Q167.825 237.634 165.996 241.198 Q164.19 244.74 164.19 251.87 Q164.19 258.976 165.996 262.541 Q167.825 266.083 171.436 266.083 Q175.07 266.083 176.876 262.541 Q178.704 258.976 178.704 251.87 Q178.704 244.74 176.876 241.198 Q175.07 237.634 171.436 237.634 M171.436 233.93 Q177.246 233.93 180.301 238.536 Q183.38 243.12 183.38 251.87 Q183.38 260.596 180.301 265.203 Q177.246 269.786 171.436 269.786 Q165.626 269.786 162.547 265.203 Q159.491 260.596 159.491 251.87 Q159.491 243.12 162.547 238.536 Q165.626 233.93 171.436 233.93 Z" fill="#000000" fill-rule="evenodd" fill-opacity="1" /><path clip-path="url(#clip970)" d="M195.625 265.18 L211.945 265.18 L211.945 269.115 L190 269.115 L190 265.18 Q192.663 262.425 197.246 257.796 Q201.852 253.143 203.033 251.8 Q205.278 249.277 206.158 247.541 Q207.061 245.782 207.061 244.092 Q207.061 241.337 205.116 239.601 Q203.195 237.865 200.093 237.865 Q197.894 237.865 195.44 238.629 Q193.01 239.393 190.232 240.944 L190.232 236.222 Q193.056 235.087 195.51 234.509 Q197.963 233.93 200 233.93 Q205.371 233.93 208.565 236.615 Q211.76 239.3 211.76 243.791 Q211.76 245.921 210.949 247.842 Q210.162 249.74 208.056 252.333 Q207.477 253.004 204.375 256.221 Q201.274 259.416 195.625 265.18 Z" fill="#000000" fill-rule="evenodd" fill-opacity="1" /><path clip-path="url(#clip970)" d="M231.76 237.634 Q228.148 237.634 226.32 241.198 Q224.514 244.74 224.514 251.87 Q224.514 258.976 226.32 262.541 Q228.148 266.083 231.76 266.083 Q235.394 266.083 237.199 262.541 Q239.028 258.976 239.028 251.87 Q239.028 244.74 237.199 241.198 Q235.394 237.634 231.76 237.634 M231.76 233.93 Q237.57 233.93 240.625 238.536 Q243.704 243.12 243.704 251.87 Q243.704 260.596 240.625 265.203 Q237.57 269.786 231.76 269.786 Q225.949 269.786 222.871 265.203 Q219.815 260.596 219.815 251.87 Q219.815 243.12 222.871 238.536 Q225.949 233.93 231.76 233.93 Z" fill="#000000" fill-rule="evenodd" fill-opacity="1" /><path clip-path="url(#clip970)" d="M41.3104 1089.3 L58.7206 1089.3 L58.7206 1078.99 Q58.7206 1073.8 56.5881 1071.32 Q54.4238 1068.81 49.9996 1068.81 Q45.5436 1068.81 43.4429 1071.32 Q41.3104 1073.8 41.3104 1078.99 L41.3104 1089.3 M21.7677 1089.3 L36.0905 1089.3 L36.0905 1079.79 Q36.0905 1075.08 34.34 1072.78 Q32.5576 1070.46 28.9291 1070.46 Q25.3325 1070.46 23.5501 1072.78 Q21.7677 1075.08 21.7677 1079.79 L21.7677 1089.3 M16.4842 1095.73 L16.4842 1079.31 Q16.4842 1071.96 19.5397 1067.98 Q22.5952 1064 28.2289 1064 Q32.5894 1064 35.1675 1066.04 Q37.7456 1068.07 38.3822 1072.02 Q39.4007 1067.28 42.6472 1064.67 Q45.8619 1062.03 50.6998 1062.03 Q57.0655 1062.03 60.5348 1066.36 Q64.0042 1070.68 64.0042 1078.67 L64.0042 1095.73 L16.4842 1095.73 Z" fill="#000000" fill-rule="evenodd" fill-opacity="1" /><path clip-path="url(#clip970)" d="M32.4621 1037.46 Q32.4621 1042.17 36.1542 1044.9 Q39.8145 1047.64 46.212 1047.64 Q52.6095 1047.64 56.3017 1044.93 Q59.9619 1042.2 59.9619 1037.46 Q59.9619 1032.78 56.2698 1030.04 Q52.5777 1027.3 46.212 1027.3 Q39.8781 1027.3 36.186 1030.04 Q32.4621 1032.78 32.4621 1037.46 M27.4968 1037.46 Q27.4968 1029.82 32.4621 1025.46 Q37.4273 1021.1 46.212 1021.1 Q54.9649 1021.1 59.9619 1025.46 Q64.9272 1029.82 64.9272 1037.46 Q64.9272 1045.13 59.9619 1049.49 Q54.9649 1053.81 46.212 1053.81 Q37.4273 1053.81 32.4621 1049.49 Q27.4968 1045.13 27.4968 1037.46 Z" fill="#000000" fill-rule="evenodd" fill-opacity="1" /><path clip-path="url(#clip970)" d="M18.2347 1005.59 L28.3562 1005.59 L28.3562 993.532 L32.9077 993.532 L32.9077 1005.59 L52.2594 1005.59 Q56.6199 1005.59 57.8613 1004.42 Q59.1026 1003.21 59.1026 999.547 L59.1026 993.532 L64.0042 993.532 L64.0042 999.547 Q64.0042 1006.33 61.4897 1008.9 Q58.9434 1011.48 52.2594 1011.48 L32.9077 1011.48 L32.9077 1015.78 L28.3562 1015.78 L28.3562 1011.48 L18.2347 1011.48 L18.2347 1005.59 Z" fill="#000000" fill-rule="evenodd" fill-opacity="1" /><path clip-path="url(#clip970)" d="M18.2347 980.036 L28.3562 980.036 L28.3562 967.973 L32.9077 967.973 L32.9077 980.036 L52.2594 980.036 Q56.6199 980.036 57.8613 978.859 Q59.1026 977.649 59.1026 973.989 L59.1026 967.973 L64.0042 967.973 L64.0042 973.989 Q64.0042 980.768 61.4897 983.347 Q58.9434 985.925 52.2594 985.925 L32.9077 985.925 L32.9077 990.222 L28.3562 990.222 L28.3562 985.925 L18.2347 985.925 L18.2347 980.036 Z" fill="#000000" fill-rule="evenodd" fill-opacity="1" /><path clip-path="url(#clip970)" d="M14.479 960.271 L14.479 954.414 L64.0042 954.414 L64.0042 960.271 L14.479 960.271 Z" fill="#000000" fill-rule="evenodd" fill-opacity="1" /><path clip-path="url(#clip970)" d="M44.7161 911.669 L47.5806 911.669 L47.5806 938.596 Q53.6281 938.214 56.8109 934.967 Q59.9619 931.689 59.9619 925.864 Q59.9619 922.49 59.1344 919.339 Q58.3069 916.157 56.6518 913.037 L62.1899 913.037 Q63.5267 916.188 64.227 919.499 Q64.9272 922.809 64.9272 926.214 Q64.9272 934.744 59.9619 939.741 Q54.9967 944.707 46.5303 944.707 Q37.7774 944.707 32.6531 939.996 Q27.4968 935.254 27.4968 927.233 Q27.4968 920.04 32.1438 915.87 Q36.7589 911.669 44.7161 911.669 M42.9973 917.525 Q38.1912 917.589 35.3266 920.231 Q32.4621 922.841 32.4621 927.169 Q32.4621 932.071 35.2312 935.031 Q38.0002 937.959 43.0292 938.405 L42.9973 917.525 Z" fill="#000000" fill-rule="evenodd" fill-opacity="1" /><path clip-path="url(#clip970)" d="M42.4881 872.424 L64.0042 872.424 L64.0042 878.281 L42.679 878.281 Q37.6183 878.281 35.1038 880.254 Q32.5894 882.227 32.5894 886.174 Q32.5894 890.916 35.6131 893.654 Q38.6368 896.391 43.8567 896.391 L64.0042 896.391 L64.0042 902.279 L28.3562 902.279 L28.3562 896.391 L33.8944 896.391 Q30.6797 894.29 29.0883 891.458 Q27.4968 888.593 27.4968 884.869 Q27.4968 878.726 31.3163 875.575 Q35.1038 872.424 42.4881 872.424 Z" fill="#000000" fill-rule="evenodd" fill-opacity="1" /><path clip-path="url(#clip970)" d="M44.7161 830.251 L47.5806 830.251 L47.5806 857.178 Q53.6281 856.796 56.8109 853.55 Q59.9619 850.271 59.9619 844.447 Q59.9619 841.073 59.1344 837.922 Q58.3069 834.739 56.6518 831.62 L62.1899 831.62 Q63.5267 834.771 64.227 838.081 Q64.9272 841.391 64.9272 844.797 Q64.9272 853.327 59.9619 858.324 Q54.9967 863.289 46.5303 863.289 Q37.7774 863.289 32.6531 858.579 Q27.4968 853.836 27.4968 845.815 Q27.4968 838.622 32.1438 834.453 Q36.7589 830.251 44.7161 830.251 M42.9973 836.108 Q38.1912 836.171 35.3266 838.813 Q32.4621 841.423 32.4621 845.752 Q32.4621 850.653 35.2312 853.613 Q38.0002 856.542 43.0292 856.987 L42.9973 836.108 Z" fill="#000000" fill-rule="evenodd" fill-opacity="1" /><path clip-path="url(#clip970)" d="M29.7248 794.985 L35.1993 794.985 Q33.8307 797.468 33.1623 799.982 Q32.4621 802.465 32.4621 805.011 Q32.4621 810.709 36.0905 813.86 Q39.6872 817.011 46.212 817.011 Q52.7369 817.011 56.3653 813.86 Q59.9619 810.709 59.9619 805.011 Q59.9619 802.465 59.2935 799.982 Q58.5933 797.468 57.2247 794.985 L62.6355 794.985 Q63.7814 797.436 64.3543 800.078 Q64.9272 802.688 64.9272 805.648 Q64.9272 813.7 59.8664 818.443 Q54.8057 823.185 46.212 823.185 Q37.491 823.185 32.4939 818.411 Q27.4968 813.605 27.4968 805.266 Q27.4968 802.56 28.0697 799.982 Q28.6108 797.404 29.7248 794.985 Z" fill="#000000" fill-rule="evenodd" fill-opacity="1" /><path clip-path="url(#clip970)" d="M14.479 785.023 L14.479 779.135 L43.7294 779.135 L28.3562 761.661 L28.3562 754.181 L45.0344 773.087 L64.0042 753.385 L64.0042 761.024 L46.5939 779.135 L64.0042 779.135 L64.0042 785.023 L14.479 785.023 Z" fill="#000000" fill-rule="evenodd" fill-opacity="1" /><path clip-path="url(#clip970)" d="M21.7677 719.647 L58.7206 719.647 L58.7206 711.881 Q58.7206 702.046 54.2646 697.495 Q49.8086 692.911 40.1964 692.911 Q30.6479 692.911 26.2237 697.495 Q21.7677 702.046 21.7677 711.881 L21.7677 719.647 M16.4842 726.077 L16.4842 712.868 Q16.4842 699.054 22.2451 692.593 Q27.9743 686.132 40.1964 686.132 Q52.4822 686.132 58.2432 692.625 Q64.0042 699.118 64.0042 712.868 L64.0042 726.077 L16.4842 726.077 Z" fill="#000000" fill-rule="evenodd" fill-opacity="1" /><path clip-path="url(#clip970)" d="M28.3562 676.138 L28.3562 670.281 L64.0042 670.281 L64.0042 676.138 L28.3562 676.138 M14.479 676.138 L14.479 670.281 L21.895 670.281 L21.895 676.138 L14.479 676.138 Z" fill="#000000" fill-rule="evenodd" fill-opacity="1" /><path clip-path="url(#clip970)" d="M29.4065 635.302 L34.9447 635.302 Q33.6716 637.784 33.035 640.458 Q32.3984 643.131 32.3984 645.996 Q32.3984 650.356 33.7352 652.553 Q35.072 654.717 37.7456 654.717 Q39.7826 654.717 40.9603 653.157 Q42.1061 651.598 43.1565 646.887 L43.6021 644.882 Q44.9389 638.644 47.3897 636.034 Q49.8086 633.392 54.1691 633.392 Q59.1344 633.392 62.0308 637.339 Q64.9272 641.253 64.9272 648.128 Q64.9272 650.993 64.3543 654.112 Q63.8132 657.2 62.6992 660.637 L56.6518 660.637 Q58.3387 657.391 59.198 654.24 Q60.0256 651.089 60.0256 648.001 Q60.0256 643.863 58.6251 641.635 Q57.1929 639.407 54.6147 639.407 Q52.2276 639.407 50.9545 641.031 Q49.6813 642.622 48.5037 648.065 L48.0262 650.102 Q46.8804 655.544 44.5251 657.963 Q42.138 660.382 38.0002 660.382 Q32.9713 660.382 30.2341 656.818 Q27.4968 653.253 27.4968 646.696 Q27.4968 643.45 27.9743 640.585 Q28.4517 637.721 29.4065 635.302 Z" fill="#000000" fill-rule="evenodd" fill-opacity="1" /><path clip-path="url(#clip970)" d="M18.2347 618.273 L28.3562 618.273 L28.3562 606.21 L32.9077 606.21 L32.9077 618.273 L52.2594 618.273 Q56.6199 618.273 57.8613 617.096 Q59.1026 615.886 59.1026 612.226 L59.1026 606.21 L64.0042 606.21 L64.0042 612.226 Q64.0042 619.005 61.4897 621.583 Q58.9434 624.162 52.2594 624.162 L32.9077 624.162 L32.9077 628.458 L28.3562 628.458 L28.3562 624.162 L18.2347 624.162 L18.2347 618.273 Z" fill="#000000" fill-rule="evenodd" fill-opacity="1" /><path clip-path="url(#clip970)" d="M46.0847 582.307 Q46.0847 589.405 47.7079 592.142 Q49.3312 594.879 53.2461 594.879 Q56.3653 594.879 58.2114 592.842 Q60.0256 590.773 60.0256 587.24 Q60.0256 582.371 56.5881 579.442 Q53.1188 576.482 47.3897 576.482 L46.0847 576.482 L46.0847 582.307 M43.6657 570.626 L64.0042 570.626 L64.0042 576.482 L58.5933 576.482 Q61.8398 578.488 63.3994 581.48 Q64.9272 584.471 64.9272 588.8 Q64.9272 594.275 61.8716 597.521 Q58.7843 600.736 53.6281 600.736 Q47.6125 600.736 44.5569 596.725 Q41.5014 592.683 41.5014 584.694 L41.5014 576.482 L40.9285 576.482 Q36.8862 576.482 34.6901 579.156 Q32.4621 581.798 32.4621 586.604 Q32.4621 589.659 33.1941 592.556 Q33.9262 595.452 35.3903 598.126 L29.9795 598.126 Q28.7381 594.911 28.1334 591.887 Q27.4968 588.864 27.4968 585.999 Q27.4968 578.265 31.5072 574.445 Q35.5176 570.626 43.6657 570.626 Z" fill="#000000" fill-rule="evenodd" fill-opacity="1" /><path clip-path="url(#clip970)" d="M42.4881 528.931 L64.0042 528.931 L64.0042 534.787 L42.679 534.787 Q37.6183 534.787 35.1038 536.76 Q32.5894 538.734 32.5894 542.681 Q32.5894 547.423 35.6131 550.16 Q38.6368 552.897 43.8567 552.897 L64.0042 552.897 L64.0042 558.786 L28.3562 558.786 L28.3562 552.897 L33.8944 552.897 Q30.6797 550.797 29.0883 547.964 Q27.4968 545.099 27.4968 541.376 Q27.4968 535.233 31.3163 532.082 Q35.1038 528.931 42.4881 528.931 Z" fill="#000000" fill-rule="evenodd" fill-opacity="1" /><path clip-path="url(#clip970)" d="M29.7248 491.596 L35.1993 491.596 Q33.8307 494.078 33.1623 496.593 Q32.4621 499.075 32.4621 501.622 Q32.4621 507.319 36.0905 510.47 Q39.6872 513.621 46.212 513.621 Q52.7369 513.621 56.3653 510.47 Q59.9619 507.319 59.9619 501.622 Q59.9619 499.075 59.2935 496.593 Q58.5933 494.078 57.2247 491.596 L62.6355 491.596 Q63.7814 494.047 64.3543 496.688 Q64.9272 499.298 64.9272 502.258 Q64.9272 510.311 59.8664 515.053 Q54.8057 519.796 46.212 519.796 Q37.491 519.796 32.4939 515.022 Q27.4968 510.215 27.4968 501.876 Q27.4968 499.171 28.0697 496.593 Q28.6108 494.015 29.7248 491.596 Z" fill="#000000" fill-rule="evenodd" fill-opacity="1" /><path clip-path="url(#clip970)" d="M44.7161 450.919 L47.5806 450.919 L47.5806 477.846 Q53.6281 477.464 56.8109 474.217 Q59.9619 470.939 59.9619 465.114 Q59.9619 461.741 59.1344 458.59 Q58.3069 455.407 56.6518 452.287 L62.1899 452.287 Q63.5267 455.439 64.227 458.749 Q64.9272 462.059 64.9272 465.464 Q64.9272 473.995 59.9619 478.992 Q54.9967 483.957 46.5303 483.957 Q37.7774 483.957 32.6531 479.246 Q27.4968 474.504 27.4968 466.483 Q27.4968 459.29 32.1438 455.12 Q36.7589 450.919 44.7161 450.919 M42.9973 456.775 Q38.1912 456.839 35.3266 459.481 Q32.4621 462.091 32.4621 466.419 Q32.4621 471.321 35.2312 474.281 Q38.0002 477.209 43.0292 477.655 L42.9973 456.775 Z" fill="#000000" fill-rule="evenodd" fill-opacity="1" /><path clip-path="url(#clip970)" d="M1157.54 34.4165 Q1156.04 33.8899 1154.54 33.4848 Q1150.53 32.4315 1146.23 32.4315 Q1138.82 32.4315 1134.69 36.4419 Q1130.84 40.1688 1130.11 47.0148 L1157.54 47.0148 L1157.54 52.8481 L1130.11 52.8481 Q1130.84 59.6941 1134.69 63.421 Q1138.82 67.4314 1146.23 67.4314 Q1151.42 67.4314 1154.54 66.3781 L1157.54 65.3654 L1157.54 72.1304 L1154.34 72.8596 Q1150.12 73.7508 1145.79 73.7508 Q1134.93 73.7508 1128.61 67.4314 Q1122.25 61.1119 1122.25 49.9314 Q1122.25 38.7509 1128.61 32.4315 Q1134.93 26.1121 1145.79 26.1121 Q1149.88 26.1121 1154.34 27.0033 Q1155.96 27.3274 1157.54 27.8135 L1157.54 34.4165 Z" fill="#000000" fill-rule="evenodd" fill-opacity="1" /><path clip-path="url(#clip970)" d="M1177.51 34.9026 L1229.44 34.9026 L1229.44 41.7081 L1177.51 41.7081 L1177.51 34.9026 M1177.51 51.4303 L1229.44 51.4303 L1229.44 58.3168 L1177.51 58.3168 L1177.51 51.4303 Z" fill="#000000" fill-rule="evenodd" fill-opacity="1" /><path clip-path="url(#clip970)" d="M1246.05 9.54393 L1253.5 9.54393 L1253.5 72.576 L1246.05 72.576 L1246.05 9.54393 Z" fill="#000000" fill-rule="evenodd" fill-opacity="1" /><path clip-path="url(#clip970)" d="M1286.68 32.4315 Q1280.68 32.4315 1277.2 37.1306 Q1273.72 41.7891 1273.72 49.9314 Q1273.72 58.0738 1277.16 62.7728 Q1280.64 67.4314 1286.68 67.4314 Q1292.63 67.4314 1296.12 62.7323 Q1299.6 58.0333 1299.6 49.9314 Q1299.6 41.8701 1296.12 37.1711 Q1292.63 32.4315 1286.68 32.4315 M1286.68 26.1121 Q1296.4 26.1121 1301.95 32.4315 Q1307.5 38.7509 1307.5 49.9314 Q1307.5 61.0714 1301.95 67.4314 Q1296.4 73.7508 1286.68 73.7508 Q1276.92 73.7508 1271.37 67.4314 Q1265.86 61.0714 1265.86 49.9314 Q1265.86 38.7509 1271.37 32.4315 Q1276.92 26.1121 1286.68 26.1121 Z" fill="#000000" fill-rule="evenodd" fill-opacity="1" /><path clip-path="url(#clip970)" d="M1349.71 49.3643 Q1349.71 41.2625 1346.35 36.8065 Q1343.03 32.3505 1336.99 32.3505 Q1331 32.3505 1327.63 36.8065 Q1324.31 41.2625 1324.31 49.3643 Q1324.31 57.4256 1327.63 61.8816 Q1331 66.3376 1336.99 66.3376 Q1343.03 66.3376 1346.35 61.8816 Q1349.71 57.4256 1349.71 49.3643 M1357.16 66.9452 Q1357.16 78.5308 1352.02 84.1616 Q1346.87 89.8329 1336.26 89.8329 Q1332.33 89.8329 1328.85 89.2252 Q1325.36 88.6581 1322.08 87.4428 L1322.08 80.1917 Q1325.36 81.9741 1328.56 82.8248 Q1331.77 83.6755 1335.09 83.6755 Q1342.42 83.6755 1346.06 79.8271 Q1349.71 76.0193 1349.71 68.282 L1349.71 64.5957 Q1347.4 68.6061 1343.8 70.5911 Q1340.19 72.576 1335.17 72.576 Q1326.82 72.576 1321.72 66.2161 Q1316.61 59.8562 1316.61 49.3643 Q1316.61 38.832 1321.72 32.472 Q1326.82 26.1121 1335.17 26.1121 Q1340.19 26.1121 1343.8 28.0971 Q1347.4 30.082 1349.71 34.0924 L1349.71 27.2059 L1357.16 27.2059 L1357.16 66.9452 Z" fill="#000000" fill-rule="evenodd" fill-opacity="1" /><path clip-path="url(#clip970)" d="M1369.44 10.2326 L1374.18 10.2326 L1374.18 31.0542 L1388.19 20.1168 L1394.19 20.1168 L1379 31.9859 L1394.8 45.516 L1388.68 45.516 L1374.18 33.1202 L1374.18 45.516 L1369.44 45.516 L1369.44 10.2326 Z" fill="#000000" fill-rule="evenodd" fill-opacity="1" /><path clip-path="url(#clip970)" d="M1425.75 9.62495 Q1420.32 18.942 1417.68 28.0566 Q1415.05 37.1711 1415.05 46.5287 Q1415.05 55.8863 1417.68 65.0818 Q1420.36 74.2369 1425.75 83.5134 L1419.26 83.5134 Q1413.19 73.9938 1410.15 64.7983 Q1407.15 55.6027 1407.15 46.5287 Q1407.15 37.4952 1410.15 28.3401 Q1413.15 19.1851 1419.26 9.62495 L1425.75 9.62495 Z" fill="#000000" fill-rule="evenodd" fill-opacity="1" /><path clip-path="url(#clip970)" d="M1477.92 45.1919 L1477.92 72.576 L1470.47 72.576 L1470.47 45.4349 Q1470.47 38.994 1467.96 35.7938 Q1465.44 32.5936 1460.42 32.5936 Q1454.39 32.5936 1450.9 36.4419 Q1447.42 40.2903 1447.42 46.9338 L1447.42 72.576 L1439.92 72.576 L1439.92 27.2059 L1447.42 27.2059 L1447.42 34.2544 Q1450.09 30.163 1453.7 28.1376 Q1457.34 26.1121 1462.08 26.1121 Q1469.9 26.1121 1473.91 30.9732 Q1477.92 35.7938 1477.92 45.1919 Z" fill="#000000" fill-rule="evenodd" fill-opacity="1" /><path clip-path="url(#clip970)" d="M1491.61 9.62495 L1498.1 9.62495 Q1504.17 19.1851 1507.17 28.3401 Q1510.21 37.4952 1510.21 46.5287 Q1510.21 55.6027 1507.17 64.7983 Q1504.17 73.9938 1498.1 83.5134 L1491.61 83.5134 Q1497 74.2369 1499.63 65.0818 Q1502.31 55.8863 1502.31 46.5287 Q1502.31 37.1711 1499.63 28.0566 Q1497 18.942 1491.61 9.62495 Z" fill="#000000" fill-rule="evenodd" fill-opacity="1" /><polyline clip-path="url(#clip972)" style="stroke:#009af9; stroke-linecap:butt; stroke-linejoin:round; stroke-width:12; stroke-opacity:1; fill:none" points="
  338.375,160.256 405.813,475.379 540.69,750.433 675.566,939.706 810.443,906.849 945.319,980.701 1282.51,914.699 1619.7,1024.81 2294.08,1034.41 
  "/>
<path clip-path="url(#clip972)" d="M338.375 176.256 L327.063 171.568 L322.375 160.256 L327.063 148.944 L338.375 144.256 L349.687 148.944 L354.375 160.256 L349.687 171.568 Z" fill="#009af9" fill-rule="evenodd" fill-opacity="1" stroke="#000000" stroke-opacity="1" stroke-width="3.2"/>
<path clip-path="url(#clip972)" d="M405.813 491.379 L394.501 486.691 L389.813 475.379 L394.501 464.067 L405.813 459.379 L417.125 464.067 L421.813 475.379 L417.125 486.691 Z" fill="#009af9" fill-rule="evenodd" fill-opacity="1" stroke="#000000" stroke-opacity="1" stroke-width="3.2"/>
<path clip-path="url(#clip972)" d="M540.69 766.433 L529.378 761.745 L524.69 750.433 L529.378 739.121 L540.69 734.433 L552.002 739.121 L556.69 750.433 L552.002 761.745 Z" fill="#009af9" fill-rule="evenodd" fill-opacity="1" stroke="#000000" stroke-opacity="1" stroke-width="3.2"/>
<path clip-path="url(#clip972)" d="M675.566 955.706 L664.254 951.018 L659.566 939.706 L664.254 928.394 L675.566 923.706 L686.878 928.394 L691.566 939.706 L686.878 951.018 Z" fill="#009af9" fill-rule="evenodd" fill-opacity="1" stroke="#000000" stroke-opacity="1" stroke-width="3.2"/>
<path clip-path="url(#clip972)" d="M810.443 922.849 L799.131 918.161 L794.443 906.849 L799.131 895.537 L810.443 890.849 L821.755 895.537 L826.443 906.849 L821.755 918.161 Z" fill="#009af9" fill-rule="evenodd" fill-opacity="1" stroke="#000000" stroke-opacity="1" stroke-width="3.2"/>
<path clip-path="url(#clip972)" d="M945.319 996.701 L934.007 992.013 L929.319 980.701 L934.007 969.389 L945.319 964.701 L956.631 969.389 L961.319 980.701 L956.631 992.013 Z" fill="#009af9" fill-rule="evenodd" fill-opacity="1" stroke="#000000" stroke-opacity="1" stroke-width="3.2"/>
<path clip-path="url(#clip972)" d="M1282.51 930.699 L1271.2 926.011 L1266.51 914.699 L1271.2 903.387 L1282.51 898.699 L1293.82 903.387 L1298.51 914.699 L1293.82 926.011 Z" fill="#009af9" fill-rule="evenodd" fill-opacity="1" stroke="#000000" stroke-opacity="1" stroke-width="3.2"/>
<path clip-path="url(#clip972)" d="M1619.7 1040.81 L1608.39 1036.12 L1603.7 1024.81 L1608.39 1013.5 L1619.7 1008.81 L1631.01 1013.5 L1635.7 1024.81 L1631.01 1036.12 Z" fill="#009af9" fill-rule="evenodd" fill-opacity="1" stroke="#000000" stroke-opacity="1" stroke-width="3.2"/>
<path clip-path="url(#clip972)" d="M2294.08 1050.41 L2282.77 1045.72 L2278.08 1034.41 L2282.77 1023.1 L2294.08 1018.41 L2305.4 1023.1 L2310.08 1034.41 L2305.4 1045.72 Z" fill="#009af9" fill-rule="evenodd" fill-opacity="1" stroke="#000000" stroke-opacity="1" stroke-width="3.2"/>
<polyline clip-path="url(#clip972)" style="stroke:#e26f46; stroke-linecap:butt; stroke-linejoin:round; stroke-width:12; stroke-opacity:1; fill:none" points="
  338.375,1319.21 405.813,1354.58 540.69,1379.04 675.566,1359.4 810.443,1381.31 945.319,1384.63 1282.51,1382.16 1619.7,1385.86 2294.08,1386.4 
  "/>
<path clip-path="url(#clip972)" d="M338.375 1335.21 L327.063 1330.52 L322.375 1319.21 L327.063 1307.9 L338.375 1303.21 L349.687 1307.9 L354.375 1319.21 L349.687 1330.52 Z" fill="#e26f46" fill-rule="evenodd" fill-opacity="1" stroke="#000000" stroke-opacity="1" stroke-width="3.2"/>
<path clip-path="url(#clip972)" d="M405.813 1370.58 L394.501 1365.9 L389.813 1354.58 L394.501 1343.27 L405.813 1338.58 L417.125 1343.27 L421.813 1354.58 L417.125 1365.9 Z" fill="#e26f46" fill-rule="evenodd" fill-opacity="1" stroke="#000000" stroke-opacity="1" stroke-width="3.2"/>
<path clip-path="url(#clip972)" d="M540.69 1395.04 L529.378 1390.35 L524.69 1379.04 L529.378 1367.72 L540.69 1363.04 L552.002 1367.72 L556.69 1379.04 L552.002 1390.35 Z" fill="#e26f46" fill-rule="evenodd" fill-opacity="1" stroke="#000000" stroke-opacity="1" stroke-width="3.2"/>
<path clip-path="url(#clip972)" d="M675.566 1375.4 L664.254 1370.71 L659.566 1359.4 L664.254 1348.09 L675.566 1343.4 L686.878 1348.09 L691.566 1359.4 L686.878 1370.71 Z" fill="#e26f46" fill-rule="evenodd" fill-opacity="1" stroke="#000000" stroke-opacity="1" stroke-width="3.2"/>
<path clip-path="url(#clip972)" d="M810.443 1397.31 L799.131 1392.62 L794.443 1381.31 L799.131 1369.99 L810.443 1365.31 L821.755 1369.99 L826.443 1381.31 L821.755 1392.62 Z" fill="#e26f46" fill-rule="evenodd" fill-opacity="1" stroke="#000000" stroke-opacity="1" stroke-width="3.2"/>
<path clip-path="url(#clip972)" d="M945.319 1400.63 L934.007 1395.94 L929.319 1384.63 L934.007 1373.32 L945.319 1368.63 L956.631 1373.32 L961.319 1384.63 L956.631 1395.94 Z" fill="#e26f46" fill-rule="evenodd" fill-opacity="1" stroke="#000000" stroke-opacity="1" stroke-width="3.2"/>
<path clip-path="url(#clip972)" d="M1282.51 1398.16 L1271.2 1393.47 L1266.51 1382.16 L1271.2 1370.84 L1282.51 1366.16 L1293.82 1370.84 L1298.51 1382.16 L1293.82 1393.47 Z" fill="#e26f46" fill-rule="evenodd" fill-opacity="1" stroke="#000000" stroke-opacity="1" stroke-width="3.2"/>
<path clip-path="url(#clip972)" d="M1619.7 1401.86 L1608.39 1397.18 L1603.7 1385.86 L1608.39 1374.55 L1619.7 1369.86 L1631.01 1374.55 L1635.7 1385.86 L1631.01 1397.18 Z" fill="#e26f46" fill-rule="evenodd" fill-opacity="1" stroke="#000000" stroke-opacity="1" stroke-width="3.2"/>
<path clip-path="url(#clip972)" d="M2294.08 1402.4 L2282.77 1397.71 L2278.08 1386.4 L2282.77 1375.08 L2294.08 1370.4 L2305.4 1375.08 L2310.08 1386.4 L2305.4 1397.71 Z" fill="#e26f46" fill-rule="evenodd" fill-opacity="1" stroke="#000000" stroke-opacity="1" stroke-width="3.2"/>
<path clip-path="url(#clip970)" d="
M1888.04 322.316 L2283.65 322.316 L2283.65 166.796 L1888.04 166.796  Z
  " fill="#ffffff" fill-rule="evenodd" fill-opacity="1"/>
<polyline clip-path="url(#clip970)" style="stroke:#000000; stroke-linecap:butt; stroke-linejoin:round; stroke-width:4; stroke-opacity:1; fill:none" points="
  1888.04,322.316 2283.65,322.316 2283.65,166.796 1888.04,166.796 1888.04,322.316 
  "/>
<polyline clip-path="url(#clip970)" style="stroke:#009af9; stroke-linecap:butt; stroke-linejoin:round; stroke-width:4; stroke-opacity:1; fill:none" points="
  1911.07,218.636 2049.28,218.636 
  "/>
<path clip-path="url(#clip970)" d="M1980.17 244.236 L1962.07 236.735 L1954.57 218.636 L1962.07 200.537 L1980.17 193.036 L1998.27 200.537 L2005.77 218.636 L1998.27 236.735 Z" fill="#009af9" fill-rule="evenodd" fill-opacity="1" stroke="#000000" stroke-opacity="1" stroke-width="5.12"/>
<path clip-path="url(#clip970)" d="M2072.31 199.897 L2076.59 199.897 L2076.59 221.17 L2089.3 209.99 L2094.74 209.99 L2080.99 222.119 L2095.32 235.916 L2089.76 235.916 L2076.59 223.254 L2076.59 235.916 L2072.31 235.916 L2072.31 199.897 Z" fill="#000000" fill-rule="evenodd" fill-opacity="1" /><path clip-path="url(#clip970)" d="M2100.48 214.388 L2130.16 214.388 L2130.16 218.277 L2100.48 218.277 L2100.48 214.388 M2100.48 223.832 L2130.16 223.832 L2130.16 227.768 L2100.48 227.768 L2100.48 223.832 Z" fill="#000000" fill-rule="evenodd" fill-opacity="1" /><path clip-path="url(#clip970)" d="M2150.25 204.434 Q2146.64 204.434 2144.81 207.999 Q2143 211.541 2143 218.67 Q2143 225.777 2144.81 229.342 Q2146.64 232.883 2150.25 232.883 Q2153.88 232.883 2155.69 229.342 Q2157.52 225.777 2157.52 218.67 Q2157.52 211.541 2155.69 207.999 Q2153.88 204.434 2150.25 204.434 M2150.25 200.731 Q2156.06 200.731 2159.11 205.337 Q2162.19 209.92 2162.19 218.67 Q2162.19 227.397 2159.11 232.004 Q2156.06 236.587 2150.25 236.587 Q2144.44 236.587 2141.36 232.004 Q2138.3 227.397 2138.3 218.67 Q2138.3 209.92 2141.36 205.337 Q2144.44 200.731 2150.25 200.731 Z" fill="#000000" fill-rule="evenodd" fill-opacity="1" /><path clip-path="url(#clip970)" d="M2170.41 230.036 L2175.3 230.036 L2175.3 235.916 L2170.41 235.916 L2170.41 230.036 Z" fill="#000000" fill-rule="evenodd" fill-opacity="1" /><path clip-path="url(#clip970)" d="M2185.53 201.356 L2203.88 201.356 L2203.88 205.291 L2189.81 205.291 L2189.81 213.763 Q2190.83 213.416 2191.85 213.254 Q2192.86 213.069 2193.88 213.069 Q2199.67 213.069 2203.05 216.24 Q2206.43 219.411 2206.43 224.828 Q2206.43 230.406 2202.96 233.508 Q2199.48 236.587 2193.17 236.587 Q2190.99 236.587 2188.72 236.217 Q2186.48 235.846 2184.07 235.106 L2184.07 230.406 Q2186.15 231.541 2188.37 232.096 Q2190.6 232.652 2193.07 232.652 Q2197.08 232.652 2199.42 230.545 Q2201.75 228.439 2201.75 224.828 Q2201.75 221.217 2199.42 219.11 Q2197.08 217.004 2193.07 217.004 Q2191.2 217.004 2189.32 217.42 Q2187.47 217.837 2185.53 218.717 L2185.53 201.356 Z" fill="#000000" fill-rule="evenodd" fill-opacity="1" /><polyline clip-path="url(#clip970)" style="stroke:#e26f46; stroke-linecap:butt; stroke-linejoin:round; stroke-width:4; stroke-opacity:1; fill:none" points="
  1911.07,270.476 2049.28,270.476 
  "/>
<path clip-path="url(#clip970)" d="M1980.17 296.076 L1962.07 288.575 L1954.57 270.476 L1962.07 252.377 L1980.17 244.876 L1998.27 252.377 L2005.77 270.476 L1998.27 288.575 Z" fill="#e26f46" fill-rule="evenodd" fill-opacity="1" stroke="#000000" stroke-opacity="1" stroke-width="5.12"/>
<path clip-path="url(#clip970)" d="M2072.31 251.737 L2076.59 251.737 L2076.59 273.01 L2089.3 261.83 L2094.74 261.83 L2080.99 273.959 L2095.32 287.756 L2089.76 287.756 L2076.59 275.094 L2076.59 287.756 L2072.31 287.756 L2072.31 251.737 Z" fill="#000000" fill-rule="evenodd" fill-opacity="1" /><path clip-path="url(#clip970)" d="M2100.48 266.228 L2130.16 266.228 L2130.16 270.117 L2100.48 270.117 L2100.48 266.228 M2100.48 275.672 L2130.16 275.672 L2130.16 279.608 L2100.48 279.608 L2100.48 275.672 Z" fill="#000000" fill-rule="evenodd" fill-opacity="1" /><path clip-path="url(#clip970)" d="M2141.06 283.821 L2148.7 283.821 L2148.7 257.455 L2140.39 259.122 L2140.39 254.862 L2148.65 253.196 L2153.33 253.196 L2153.33 283.821 L2160.97 283.821 L2160.97 287.756 L2141.06 287.756 L2141.06 283.821 Z" fill="#000000" fill-rule="evenodd" fill-opacity="1" /><path clip-path="url(#clip970)" d="M2170.41 281.876 L2175.3 281.876 L2175.3 287.756 L2170.41 287.756 L2170.41 281.876 Z" fill="#000000" fill-rule="evenodd" fill-opacity="1" /><path clip-path="url(#clip970)" d="M2195.48 256.274 Q2191.87 256.274 2190.04 259.839 Q2188.23 263.381 2188.23 270.51 Q2188.23 277.617 2190.04 281.182 Q2191.87 284.723 2195.48 284.723 Q2199.11 284.723 2200.92 281.182 Q2202.75 277.617 2202.75 270.51 Q2202.75 263.381 2200.92 259.839 Q2199.11 256.274 2195.48 256.274 M2195.48 252.571 Q2201.29 252.571 2204.35 257.177 Q2207.42 261.76 2207.42 270.51 Q2207.42 279.237 2204.35 283.844 Q2201.29 288.427 2195.48 288.427 Q2189.67 288.427 2186.59 283.844 Q2183.54 279.237 2183.54 270.51 Q2183.54 261.76 2186.59 257.177 Q2189.67 252.571 2195.48 252.571 Z" fill="#000000" fill-rule="evenodd" fill-opacity="1" /><path clip-path="url(#clip970)" d="M2225.64 256.274 Q2222.03 256.274 2220.2 259.839 Q2218.4 263.381 2218.4 270.51 Q2218.4 277.617 2220.2 281.182 Q2222.03 284.723 2225.64 284.723 Q2229.28 284.723 2231.08 281.182 Q2232.91 277.617 2232.91 270.51 Q2232.91 263.381 2231.08 259.839 Q2229.28 256.274 2225.64 256.274 M2225.64 252.571 Q2231.45 252.571 2234.51 257.177 Q2237.59 261.76 2237.59 270.51 Q2237.59 279.237 2234.51 283.844 Q2231.45 288.427 2225.64 288.427 Q2219.83 288.427 2216.75 283.844 Q2213.7 279.237 2213.7 270.51 Q2213.7 261.76 2216.75 257.177 Q2219.83 252.571 2225.64 252.571 Z" fill="#000000" fill-rule="evenodd" fill-opacity="1" /></svg>
