<?xml version="1.0" encoding="utf-8"?>
<svg xmlns="http://www.w3.org/2000/svg" xmlns:xlink="http://www.w3.org/1999/xlink" width="600" height="400" viewBox="0 0 2400 1600">
<defs>
  <clipPath id="clip390">
    <rect x="0" y="0" width="2400" height="1600"/>
  </clipPath>
</defs>
<path clip-path="url(#clip390)" d="
M0 1600 L2400 1600 L2400 0 L0 0  Z
  " fill="#ffffff" fill-rule="evenodd" fill-opacity="1"/>
<defs>
  <clipPath id="clip391">
    <rect x="110" y="123" width="2243" height="1364"/>
  </clipPath>
</defs>
<path clip-path="url(#clip390)" d="
M156.598 1486.45 L2352.76 1486.45 L2352.76 123.472 L156.598 123.472  Z
  " fill="#ffffff" fill-rule="evenodd" fill-opacity="1"/>
<defs>
  <clipPath id="clip392">
    <rect x="156" y="123" width="2197" height="1364"/>
  </clipPath>
</defs>
<polyline clip-path="url(#clip392)" style="stroke:#000000; stroke-linecap:butt; stroke-linejoin:round; stroke-width:2; stroke-opacity:0.1; fill:none" points="
  156.598,1486.45 156.598,123.472 
  "/>
<polyline clip-path="url(#clip392)" style="stroke:#000000; stroke-linecap:butt; stroke-linejoin:round; stroke-width:2; stroke-opacity:0.1; fill:none" points="
  595.83,1486.45 595.83,123.472 
  "/>
<polyline clip-path="url(#clip392)" style="stroke:#000000; stroke-linecap:butt; stroke-linejoin:round; stroke-width:2; stroke-opacity:0.1; fill:none" points="
  1035.06,1486.45 1035.06,123.472 
  "/>
<polyline clip-path="url(#clip392)" style="stroke:#000000; stroke-linecap:butt; stroke-linejoin:round; stroke-width:2; stroke-opacity:0.1; fill:none" points="
  1474.29,1486.45 1474.29,123.472 
  "/>
<polyline clip-path="url(#clip392)" style="stroke:#000000; stroke-linecap:butt; stroke-linejoin:round; stroke-width:2; stroke-opacity:0.1; fill:none" points="
  1913.52,1486.45 1913.52,123.472 
  "/>
<polyline clip-path="url(#clip392)" style="stroke:#000000; stroke-linecap:butt; stroke-linejoin:round; stroke-width:2; stroke-opacity:0.1; fill:none" points="
  2352.76,1486.45 2352.76,123.472 
  "/>
<polyline clip-path="url(#clip390)" style="stroke:#000000; stroke-linecap:butt; stroke-linejoin:round; stroke-width:4; stroke-opacity:1; fill:none" points="
  156.598,1486.45 2352.76,1486.45 
  "/>
<polyline clip-path="url(#clip390)" style="stroke:#000000; stroke-linecap:butt; stroke-linejoin:round; stroke-width:4; stroke-opacity:1; fill:none" points="
  156.598,1486.45 156.598,1467.55 
  "/>
<polyline clip-path="url(#clip390)" style="stroke:#000000; stroke-linecap:butt; stroke-linejoin:round; stroke-width:4; stroke-opacity:1; fill:none" points="
  595.83,1486.45 595.83,1467.55 
  "/>
<polyline clip-path="url(#clip390)" style="stroke:#000000; stroke-linecap:butt; stroke-linejoin:round; stroke-width:4; stroke-opacity:1; fill:none" points="
  1035.06,1486.45 1035.06,1467.55 
  "/>
<polyline clip-path="url(#clip390)" style="stroke:#000000; stroke-linecap:butt; stroke-linejoin:round; stroke-width:4; stroke-opacity:1; fill:none" points="
  1474.29,1486.45 1474.29,1467.55 
  "/>
<polyline clip-path="url(#clip390)" style="stroke:#000000; stroke-linecap:butt; stroke-linejoin:round; stroke-width:4; stroke-opacity:1; fill:none" points="
  1913.52,1486.45 1913.52,1467.55 
  "/>
<polyline clip-path="url(#clip390)" style="stroke:#000000; stroke-linecap:butt; stroke-linejoin:round; stroke-width:4; stroke-opacity:1; fill:none" points="
  2352.76,1486.45 2352.76,1467.55 
  "/>
<path clip-path="url(#clip390)" d="M133.983 1517.37 Q130.372 1517.37 128.543 1520.93 Q126.737 1524.47 126.737 1531.6 Q126.737 1538.71 128.543 1542.27 Q130.372 1545.82 133.983 1545.82 Q137.617 1545.82 139.422 1542.27 Q141.251 1538.71 141.251 1531.6 Q141.251 1524.47 139.422 1520.93 Q137.617 1517.37 133.983 1517.37 M133.983 1513.66 Q139.793 1513.66 142.848 1518.27 Q145.927 1522.85 145.927 1531.6 Q145.927 1540.33 142.848 1544.94 Q139.793 1549.52 133.983 1549.52 Q128.172 1549.52 125.094 1544.94 Q122.038 1540.33 122.038 1531.6 Q122.038 1522.85 125.094 1518.27 Q128.172 1513.66 133.983 1513.66 Z" fill="#000000" fill-rule="evenodd" fill-opacity="1" /><path clip-path="url(#clip390)" d="M154.145 1542.97 L159.029 1542.97 L159.029 1548.85 L154.145 1548.85 L154.145 1542.97 Z" fill="#000000" fill-rule="evenodd" fill-opacity="1" /><path clip-path="url(#clip390)" d="M179.214 1517.37 Q175.603 1517.37 173.774 1520.93 Q171.969 1524.47 171.969 1531.6 Q171.969 1538.71 173.774 1542.27 Q175.603 1545.82 179.214 1545.82 Q182.848 1545.82 184.654 1542.27 Q186.482 1538.71 186.482 1531.6 Q186.482 1524.47 184.654 1520.93 Q182.848 1517.37 179.214 1517.37 M179.214 1513.66 Q185.024 1513.66 188.08 1518.27 Q191.158 1522.85 191.158 1531.6 Q191.158 1540.33 188.08 1544.94 Q185.024 1549.52 179.214 1549.52 Q173.404 1549.52 170.325 1544.94 Q167.269 1540.33 167.269 1531.6 Q167.269 1522.85 170.325 1518.27 Q173.404 1513.66 179.214 1513.66 Z" fill="#000000" fill-rule="evenodd" fill-opacity="1" /><path clip-path="url(#clip390)" d="M574.013 1517.37 Q570.402 1517.37 568.573 1520.93 Q566.767 1524.47 566.767 1531.6 Q566.767 1538.71 568.573 1542.27 Q570.402 1545.82 574.013 1545.82 Q577.647 1545.82 579.453 1542.27 Q581.281 1538.71 581.281 1531.6 Q581.281 1524.47 579.453 1520.93 Q577.647 1517.37 574.013 1517.37 M574.013 1513.66 Q579.823 1513.66 582.878 1518.27 Q585.957 1522.85 585.957 1531.6 Q585.957 1540.33 582.878 1544.94 Q579.823 1549.52 574.013 1549.52 Q568.203 1549.52 565.124 1544.94 Q562.068 1540.33 562.068 1531.6 Q562.068 1522.85 565.124 1518.27 Q568.203 1513.66 574.013 1513.66 Z" fill="#000000" fill-rule="evenodd" fill-opacity="1" /><path clip-path="url(#clip390)" d="M594.175 1542.97 L599.059 1542.97 L599.059 1548.85 L594.175 1548.85 L594.175 1542.97 Z" fill="#000000" fill-rule="evenodd" fill-opacity="1" /><path clip-path="url(#clip390)" d="M613.272 1544.91 L629.591 1544.91 L629.591 1548.85 L607.647 1548.85 L607.647 1544.91 Q610.309 1542.16 614.892 1537.53 Q619.499 1532.88 620.679 1531.53 Q622.925 1529.01 623.804 1527.27 Q624.707 1525.51 624.707 1523.82 Q624.707 1521.07 622.762 1519.33 Q620.841 1517.6 617.739 1517.6 Q615.54 1517.6 613.087 1518.36 Q610.656 1519.13 607.878 1520.68 L607.878 1515.95 Q610.702 1514.82 613.156 1514.24 Q615.61 1513.66 617.647 1513.66 Q623.017 1513.66 626.212 1516.35 Q629.406 1519.03 629.406 1523.52 Q629.406 1525.65 628.596 1527.57 Q627.809 1529.47 625.702 1532.07 Q625.124 1532.74 622.022 1535.95 Q618.92 1539.15 613.272 1544.91 Z" fill="#000000" fill-rule="evenodd" fill-opacity="1" /><path clip-path="url(#clip390)" d="M1012.2 1517.37 Q1008.59 1517.37 1006.76 1520.93 Q1004.96 1524.47 1004.96 1531.6 Q1004.96 1538.71 1006.76 1542.27 Q1008.59 1545.82 1012.2 1545.82 Q1015.84 1545.82 1017.64 1542.27 Q1019.47 1538.71 1019.47 1531.6 Q1019.47 1524.47 1017.64 1520.93 Q1015.84 1517.37 1012.2 1517.37 M1012.2 1513.66 Q1018.01 1513.66 1021.07 1518.27 Q1024.15 1522.85 1024.15 1531.6 Q1024.15 1540.33 1021.07 1544.94 Q1018.01 1549.52 1012.2 1549.52 Q1006.39 1549.52 1003.31 1544.94 Q1000.26 1540.33 1000.26 1531.6 Q1000.26 1522.85 1003.31 1518.27 Q1006.39 1513.66 1012.2 1513.66 Z" fill="#000000" fill-rule="evenodd" fill-opacity="1" /><path clip-path="url(#clip390)" d="M1032.36 1542.97 L1037.25 1542.97 L1037.25 1548.85 L1032.36 1548.85 L1032.36 1542.97 Z" fill="#000000" fill-rule="evenodd" fill-opacity="1" /><path clip-path="url(#clip390)" d="M1060.28 1518.36 L1048.48 1536.81 L1060.28 1536.81 L1060.28 1518.36 M1059.05 1514.29 L1064.93 1514.29 L1064.93 1536.81 L1069.86 1536.81 L1069.86 1540.7 L1064.93 1540.7 L1064.93 1548.85 L1060.28 1548.85 L1060.28 1540.7 L1044.68 1540.7 L1044.68 1536.19 L1059.05 1514.29 Z" fill="#000000" fill-rule="evenodd" fill-opacity="1" /><path clip-path="url(#clip390)" d="M1451.6 1517.37 Q1447.99 1517.37 1446.16 1520.93 Q1444.35 1524.47 1444.35 1531.6 Q1444.35 1538.71 1446.16 1542.27 Q1447.99 1545.82 1451.6 1545.82 Q1455.23 1545.82 1457.04 1542.27 Q1458.86 1538.71 1458.86 1531.6 Q1458.86 1524.47 1457.04 1520.93 Q1455.23 1517.37 1451.6 1517.37 M1451.6 1513.66 Q1457.41 1513.66 1460.46 1518.27 Q1463.54 1522.85 1463.54 1531.6 Q1463.54 1540.33 1460.46 1544.94 Q1457.41 1549.52 1451.6 1549.52 Q1445.79 1549.52 1442.71 1544.94 Q1439.65 1540.33 1439.65 1531.6 Q1439.65 1522.85 1442.71 1518.27 Q1445.79 1513.66 1451.6 1513.66 Z" fill="#000000" fill-rule="evenodd" fill-opacity="1" /><path clip-path="url(#clip390)" d="M1471.76 1542.97 L1476.64 1542.97 L1476.64 1548.85 L1471.76 1548.85 L1471.76 1542.97 Z" fill="#000000" fill-rule="evenodd" fill-opacity="1" /><path clip-path="url(#clip390)" d="M1497.41 1529.7 Q1494.26 1529.7 1492.41 1531.86 Q1490.58 1534.01 1490.58 1537.76 Q1490.58 1541.49 1492.41 1543.66 Q1494.26 1545.82 1497.41 1545.82 Q1500.55 1545.82 1502.38 1543.66 Q1504.23 1541.49 1504.23 1537.76 Q1504.23 1534.01 1502.38 1531.86 Q1500.55 1529.7 1497.41 1529.7 M1506.69 1515.05 L1506.69 1519.31 Q1504.93 1518.48 1503.12 1518.04 Q1501.34 1517.6 1499.58 1517.6 Q1494.95 1517.6 1492.5 1520.72 Q1490.07 1523.85 1489.72 1530.17 Q1491.09 1528.15 1493.15 1527.09 Q1495.21 1526 1497.68 1526 Q1502.89 1526 1505.9 1529.17 Q1508.93 1532.32 1508.93 1537.76 Q1508.93 1543.08 1505.79 1546.3 Q1502.64 1549.52 1497.41 1549.52 Q1491.41 1549.52 1488.24 1544.94 Q1485.07 1540.33 1485.07 1531.6 Q1485.07 1523.41 1488.96 1518.55 Q1492.85 1513.66 1499.4 1513.66 Q1501.16 1513.66 1502.94 1514.01 Q1504.74 1514.36 1506.69 1515.05 Z" fill="#000000" fill-rule="evenodd" fill-opacity="1" /><path clip-path="url(#clip390)" d="M1890.96 1517.37 Q1887.34 1517.37 1885.52 1520.93 Q1883.71 1524.47 1883.71 1531.6 Q1883.71 1538.71 1885.52 1542.27 Q1887.34 1545.82 1890.96 1545.82 Q1894.59 1545.82 1896.39 1542.27 Q1898.22 1538.71 1898.22 1531.6 Q1898.22 1524.47 1896.39 1520.93 Q1894.59 1517.37 1890.96 1517.37 M1890.96 1513.66 Q1896.77 1513.66 1899.82 1518.27 Q1902.9 1522.85 1902.9 1531.6 Q1902.9 1540.33 1899.82 1544.94 Q1896.77 1549.52 1890.96 1549.52 Q1885.14 1549.52 1882.07 1544.94 Q1879.01 1540.33 1879.01 1531.6 Q1879.01 1522.85 1882.07 1518.27 Q1885.14 1513.66 1890.96 1513.66 Z" fill="#000000" fill-rule="evenodd" fill-opacity="1" /><path clip-path="url(#clip390)" d="M1911.12 1542.97 L1916 1542.97 L1916 1548.85 L1911.12 1548.85 L1911.12 1542.97 Z" fill="#000000" fill-rule="evenodd" fill-opacity="1" /><path clip-path="url(#clip390)" d="M1936.19 1532.44 Q1932.85 1532.44 1930.93 1534.22 Q1929.03 1536 1929.03 1539.13 Q1929.03 1542.25 1930.93 1544.03 Q1932.85 1545.82 1936.19 1545.82 Q1939.52 1545.82 1941.44 1544.03 Q1943.36 1542.23 1943.36 1539.13 Q1943.36 1536 1941.44 1534.22 Q1939.54 1532.44 1936.19 1532.44 M1931.51 1530.45 Q1928.5 1529.7 1926.81 1527.64 Q1925.14 1525.58 1925.14 1522.62 Q1925.14 1518.48 1928.08 1516.07 Q1931.05 1513.66 1936.19 1513.66 Q1941.35 1513.66 1944.29 1516.07 Q1947.23 1518.48 1947.23 1522.62 Q1947.23 1525.58 1945.54 1527.64 Q1943.87 1529.7 1940.89 1530.45 Q1944.26 1531.23 1946.14 1533.52 Q1948.04 1535.82 1948.04 1539.13 Q1948.04 1544.15 1944.96 1546.83 Q1941.9 1549.52 1936.19 1549.52 Q1930.47 1549.52 1927.39 1546.83 Q1924.33 1544.15 1924.33 1539.13 Q1924.33 1535.82 1926.23 1533.52 Q1928.13 1531.23 1931.51 1530.45 M1929.8 1523.06 Q1929.8 1525.75 1931.46 1527.25 Q1933.15 1528.76 1936.19 1528.76 Q1939.2 1528.76 1940.89 1527.25 Q1942.6 1525.75 1942.6 1523.06 Q1942.6 1520.38 1940.89 1518.87 Q1939.2 1517.37 1936.19 1517.37 Q1933.15 1517.37 1931.46 1518.87 Q1929.8 1520.38 1929.8 1523.06 Z" fill="#000000" fill-rule="evenodd" fill-opacity="1" /><path clip-path="url(#clip390)" d="M2319.91 1544.91 L2327.55 1544.91 L2327.55 1518.55 L2319.24 1520.21 L2319.24 1515.95 L2327.5 1514.29 L2332.18 1514.29 L2332.18 1544.91 L2339.82 1544.91 L2339.82 1548.85 L2319.91 1548.85 L2319.91 1544.91 Z" fill="#000000" fill-rule="evenodd" fill-opacity="1" /><path clip-path="url(#clip390)" d="M2349.26 1542.97 L2354.14 1542.97 L2354.14 1548.85 L2349.26 1548.85 L2349.26 1542.97 Z" fill="#000000" fill-rule="evenodd" fill-opacity="1" /><path clip-path="url(#clip390)" d="M2374.33 1517.37 Q2370.72 1517.37 2368.89 1520.93 Q2367.08 1524.47 2367.08 1531.6 Q2367.08 1538.71 2368.89 1542.27 Q2370.72 1545.82 2374.33 1545.82 Q2377.96 1545.82 2379.77 1542.27 Q2381.6 1538.71 2381.6 1531.6 Q2381.6 1524.47 2379.77 1520.93 Q2377.96 1517.37 2374.33 1517.37 M2374.33 1513.66 Q2380.14 1513.66 2383.2 1518.27 Q2386.27 1522.85 2386.27 1531.6 Q2386.27 1540.33 2383.2 1544.94 Q2380.14 1549.52 2374.33 1549.52 Q2368.52 1549.52 2365.44 1544.94 Q2362.39 1540.33 2362.39 1531.6 Q2362.39 1522.85 2365.44 1518.27 Q2368.52 1513.66 2374.33 1513.66 Z" fill="#000000" fill-rule="evenodd" fill-opacity="1" /><polyline clip-path="url(#clip392)" style="stroke:#000000; stroke-linecap:butt; stroke-linejoin:round; stroke-width:2; stroke-opacity:0.1; fill:none" points="
  156.598,1486.45 2352.76,1486.45 
  "/>
<polyline clip-path="url(#clip392)" style="stroke:#000000; stroke-linecap:butt; stroke-linejoin:round; stroke-width:2; stroke-opacity:0.1; fill:none" points="
  156.598,1213.85 2352.76,1213.85 
  "/>
<polyline clip-path="url(#clip392)" style="stroke:#000000; stroke-linecap:butt; stroke-linejoin:round; stroke-width:2; stroke-opacity:0.1; fill:none" points="
  156.598,941.258 2352.76,941.258 
  "/>
<polyline clip-path="url(#clip392)" style="stroke:#000000; stroke-linecap:butt; stroke-linejoin:round; stroke-width:2; stroke-opacity:0.1; fill:none" points="
  156.598,668.662 2352.76,668.662 
  "/>
<polyline clip-path="url(#clip392)" style="stroke:#000000; stroke-linecap:butt; stroke-linejoin:round; stroke-width:2; stroke-opacity:0.1; fill:none" points="
  156.598,396.067 2352.76,396.067 
  "/>
<polyline clip-path="url(#clip392)" style="stroke:#000000; stroke-linecap:butt; stroke-linejoin:round; stroke-width:2; stroke-opacity:0.1; fill:none" points="
  156.598,123.472 2352.76,123.472 
  "/>
<polyline clip-path="url(#clip390)" style="stroke:#000000; stroke-linecap:butt; stroke-linejoin:round; stroke-width:4; stroke-opacity:1; fill:none" points="
  156.598,1486.45 156.598,123.472 
  "/>
<polyline clip-path="url(#clip390)" style="stroke:#000000; stroke-linecap:butt; stroke-linejoin:round; stroke-width:4; stroke-opacity:1; fill:none" points="
  156.598,1486.45 175.496,1486.45 
  "/>
<polyline clip-path="url(#clip390)" style="stroke:#000000; stroke-linecap:butt; stroke-linejoin:round; stroke-width:4; stroke-opacity:1; fill:none" points="
  156.598,1213.85 175.496,1213.85 
  "/>
<polyline clip-path="url(#clip390)" style="stroke:#000000; stroke-linecap:butt; stroke-linejoin:round; stroke-width:4; stroke-opacity:1; fill:none" points="
  156.598,941.258 175.496,941.258 
  "/>
<polyline clip-path="url(#clip390)" style="stroke:#000000; stroke-linecap:butt; stroke-linejoin:round; stroke-width:4; stroke-opacity:1; fill:none" points="
  156.598,668.662 175.496,668.662 
  "/>
<polyline clip-path="url(#clip390)" style="stroke:#000000; stroke-linecap:butt; stroke-linejoin:round; stroke-width:4; stroke-opacity:1; fill:none" points="
  156.598,396.067 175.496,396.067 
  "/>
<polyline clip-path="url(#clip390)" style="stroke:#000000; stroke-linecap:butt; stroke-linejoin:round; stroke-width:4; stroke-opacity:1; fill:none" points="
  156.598,123.472 175.496,123.472 
  "/>
<path clip-path="url(#clip390)" d="M63.4226 1472.25 Q59.8115 1472.25 57.9828 1475.81 Q56.1773 1479.35 56.1773 1486.48 Q56.1773 1493.59 57.9828 1497.15 Q59.8115 1500.7 63.4226 1500.7 Q67.0569 1500.7 68.8624 1497.15 Q70.6911 1493.59 70.6911 1486.48 Q70.6911 1479.35 68.8624 1475.81 Q67.0569 1472.25 63.4226 1472.25 M63.4226 1468.54 Q69.2328 1468.54 72.2883 1473.15 Q75.367 1477.73 75.367 1486.48 Q75.367 1495.21 72.2883 1499.82 Q69.2328 1504.4 63.4226 1504.4 Q57.6125 1504.4 54.5338 1499.82 Q51.4782 1495.21 51.4782 1486.48 Q51.4782 1477.73 54.5338 1473.15 Q57.6125 1468.54 63.4226 1468.54 Z" fill="#000000" fill-rule="evenodd" fill-opacity="1" /><path clip-path="url(#clip390)" d="M83.5845 1497.85 L88.4688 1497.85 L88.4688 1503.73 L83.5845 1503.73 L83.5845 1497.85 Z" fill="#000000" fill-rule="evenodd" fill-opacity="1" /><path clip-path="url(#clip390)" d="M108.654 1472.25 Q105.043 1472.25 103.214 1475.81 Q101.409 1479.35 101.409 1486.48 Q101.409 1493.59 103.214 1497.15 Q105.043 1500.7 108.654 1500.7 Q112.288 1500.7 114.094 1497.15 Q115.922 1493.59 115.922 1486.48 Q115.922 1479.35 114.094 1475.81 Q112.288 1472.25 108.654 1472.25 M108.654 1468.54 Q114.464 1468.54 117.52 1473.15 Q120.598 1477.73 120.598 1486.48 Q120.598 1495.21 117.52 1499.82 Q114.464 1504.4 108.654 1504.4 Q102.844 1504.4 99.765 1499.82 Q96.7095 1495.21 96.7095 1486.48 Q96.7095 1477.73 99.765 1473.15 Q102.844 1468.54 108.654 1468.54 Z" fill="#000000" fill-rule="evenodd" fill-opacity="1" /><path clip-path="url(#clip390)" d="M65.0198 1199.65 Q61.4087 1199.65 59.58 1203.22 Q57.7745 1206.76 57.7745 1213.89 Q57.7745 1220.99 59.58 1224.56 Q61.4087 1228.1 65.0198 1228.1 Q68.6541 1228.1 70.4596 1224.56 Q72.2883 1220.99 72.2883 1213.89 Q72.2883 1206.76 70.4596 1203.22 Q68.6541 1199.65 65.0198 1199.65 M65.0198 1195.95 Q70.83 1195.95 73.8855 1200.55 Q76.9642 1205.14 76.9642 1213.89 Q76.9642 1222.61 73.8855 1227.22 Q70.83 1231.8 65.0198 1231.8 Q59.2097 1231.8 56.131 1227.22 Q53.0754 1222.61 53.0754 1213.89 Q53.0754 1205.14 56.131 1200.55 Q59.2097 1195.95 65.0198 1195.95 Z" fill="#000000" fill-rule="evenodd" fill-opacity="1" /><path clip-path="url(#clip390)" d="M85.1818 1225.25 L90.066 1225.25 L90.066 1231.13 L85.1818 1231.13 L85.1818 1225.25 Z" fill="#000000" fill-rule="evenodd" fill-opacity="1" /><path clip-path="url(#clip390)" d="M104.279 1227.2 L120.598 1227.2 L120.598 1231.13 L98.6539 1231.13 L98.6539 1227.2 Q101.316 1224.44 105.899 1219.81 Q110.506 1215.16 111.686 1213.82 Q113.932 1211.29 114.811 1209.56 Q115.714 1207.8 115.714 1206.11 Q115.714 1203.36 113.77 1201.62 Q111.848 1199.88 108.746 1199.88 Q106.547 1199.88 104.094 1200.65 Q101.663 1201.41 98.8854 1202.96 L98.8854 1198.24 Q101.709 1197.11 104.163 1196.53 Q106.617 1195.95 108.654 1195.95 Q114.024 1195.95 117.219 1198.63 Q120.413 1201.32 120.413 1205.81 Q120.413 1207.94 119.603 1209.86 Q118.816 1211.76 116.709 1214.35 Q116.131 1215.02 113.029 1218.24 Q109.927 1221.43 104.279 1227.2 Z" fill="#000000" fill-rule="evenodd" fill-opacity="1" /><path clip-path="url(#clip390)" d="M62.9365 927.056 Q59.3254 927.056 57.4967 930.621 Q55.6912 934.163 55.6912 941.292 Q55.6912 948.399 57.4967 951.964 Q59.3254 955.505 62.9365 955.505 Q66.5707 955.505 68.3763 951.964 Q70.205 948.399 70.205 941.292 Q70.205 934.163 68.3763 930.621 Q66.5707 927.056 62.9365 927.056 M62.9365 923.353 Q68.7467 923.353 71.8022 927.959 Q74.8809 932.542 74.8809 941.292 Q74.8809 950.019 71.8022 954.626 Q68.7467 959.209 62.9365 959.209 Q57.1264 959.209 54.0477 954.626 Q50.9921 950.019 50.9921 941.292 Q50.9921 932.542 54.0477 927.959 Q57.1264 923.353 62.9365 923.353 Z" fill="#000000" fill-rule="evenodd" fill-opacity="1" /><path clip-path="url(#clip390)" d="M83.0984 952.658 L87.9827 952.658 L87.9827 958.538 L83.0984 958.538 L83.0984 952.658 Z" fill="#000000" fill-rule="evenodd" fill-opacity="1" /><path clip-path="url(#clip390)" d="M111.015 928.052 L99.2095 946.501 L111.015 946.501 L111.015 928.052 M109.788 923.978 L115.668 923.978 L115.668 946.501 L120.598 946.501 L120.598 950.389 L115.668 950.389 L115.668 958.538 L111.015 958.538 L111.015 950.389 L95.4132 950.389 L95.4132 945.876 L109.788 923.978 Z" fill="#000000" fill-rule="evenodd" fill-opacity="1" /><path clip-path="url(#clip390)" d="M63.2606 654.461 Q59.6495 654.461 57.8208 658.026 Q56.0152 661.568 56.0152 668.697 Q56.0152 675.804 57.8208 679.368 Q59.6495 682.91 63.2606 682.91 Q66.8948 682.91 68.7004 679.368 Q70.5291 675.804 70.5291 668.697 Q70.5291 661.568 68.7004 658.026 Q66.8948 654.461 63.2606 654.461 M63.2606 650.757 Q69.0707 650.757 72.1263 655.364 Q75.205 659.947 75.205 668.697 Q75.205 677.424 72.1263 682.03 Q69.0707 686.614 63.2606 686.614 Q57.4504 686.614 54.3717 682.03 Q51.3162 677.424 51.3162 668.697 Q51.3162 659.947 54.3717 655.364 Q57.4504 650.757 63.2606 650.757 Z" fill="#000000" fill-rule="evenodd" fill-opacity="1" /><path clip-path="url(#clip390)" d="M83.4225 680.063 L88.3067 680.063 L88.3067 685.942 L83.4225 685.942 L83.4225 680.063 Z" fill="#000000" fill-rule="evenodd" fill-opacity="1" /><path clip-path="url(#clip390)" d="M109.071 666.799 Q105.922 666.799 104.071 668.952 Q102.242 671.105 102.242 674.855 Q102.242 678.581 104.071 680.757 Q105.922 682.91 109.071 682.91 Q112.219 682.91 114.047 680.757 Q115.899 678.581 115.899 674.855 Q115.899 671.105 114.047 668.952 Q112.219 666.799 109.071 666.799 M118.353 652.146 L118.353 656.406 Q116.594 655.572 114.788 655.132 Q113.006 654.693 111.246 654.693 Q106.617 654.693 104.163 657.818 Q101.733 660.943 101.385 667.262 Q102.751 665.248 104.811 664.183 Q106.871 663.095 109.348 663.095 Q114.557 663.095 117.566 666.267 Q120.598 669.415 120.598 674.855 Q120.598 680.179 117.45 683.396 Q114.302 686.614 109.071 686.614 Q103.075 686.614 99.9039 682.03 Q96.7326 677.424 96.7326 668.697 Q96.7326 660.503 100.621 655.642 Q104.51 650.757 111.061 650.757 Q112.82 650.757 114.603 651.105 Q116.408 651.452 118.353 652.146 Z" fill="#000000" fill-rule="evenodd" fill-opacity="1" /><path clip-path="url(#clip390)" d="M63.5152 381.866 Q59.9041 381.866 58.0754 385.431 Q56.2699 388.972 56.2699 396.102 Q56.2699 403.208 58.0754 406.773 Q59.9041 410.315 63.5152 410.315 Q67.1494 410.315 68.955 406.773 Q70.7837 403.208 70.7837 396.102 Q70.7837 388.972 68.955 385.431 Q67.1494 381.866 63.5152 381.866 M63.5152 378.162 Q69.3254 378.162 72.3809 382.769 Q75.4596 387.352 75.4596 396.102 Q75.4596 404.829 72.3809 409.435 Q69.3254 414.019 63.5152 414.019 Q57.7051 414.019 54.6264 409.435 Q51.5708 404.829 51.5708 396.102 Q51.5708 387.352 54.6264 382.769 Q57.7051 378.162 63.5152 378.162 Z" fill="#000000" fill-rule="evenodd" fill-opacity="1" /><path clip-path="url(#clip390)" d="M83.6771 407.468 L88.5614 407.468 L88.5614 413.347 L83.6771 413.347 L83.6771 407.468 Z" fill="#000000" fill-rule="evenodd" fill-opacity="1" /><path clip-path="url(#clip390)" d="M108.746 396.935 Q105.413 396.935 103.492 398.718 Q101.594 400.5 101.594 403.625 Q101.594 406.75 103.492 408.532 Q105.413 410.315 108.746 410.315 Q112.08 410.315 114.001 408.532 Q115.922 406.727 115.922 403.625 Q115.922 400.5 114.001 398.718 Q112.103 396.935 108.746 396.935 M104.071 394.945 Q101.061 394.204 99.3715 392.144 Q97.7048 390.084 97.7048 387.121 Q97.7048 382.977 100.645 380.57 Q103.608 378.162 108.746 378.162 Q113.908 378.162 116.848 380.57 Q119.788 382.977 119.788 387.121 Q119.788 390.084 118.098 392.144 Q116.432 394.204 113.445 394.945 Q116.825 395.732 118.7 398.023 Q120.598 400.315 120.598 403.625 Q120.598 408.648 117.52 411.333 Q114.464 414.019 108.746 414.019 Q103.029 414.019 99.9502 411.333 Q96.8947 408.648 96.8947 403.625 Q96.8947 400.315 98.7928 398.023 Q100.691 395.732 104.071 394.945 M102.358 387.56 Q102.358 390.246 104.024 391.75 Q105.714 393.255 108.746 393.255 Q111.756 393.255 113.445 391.75 Q115.158 390.246 115.158 387.56 Q115.158 384.875 113.445 383.371 Q111.756 381.866 108.746 381.866 Q105.714 381.866 104.024 383.371 Q102.358 384.875 102.358 387.56 Z" fill="#000000" fill-rule="evenodd" fill-opacity="1" /><path clip-path="url(#clip390)" d="M54.2328 136.817 L61.8717 136.817 L61.8717 110.451 L53.5616 112.118 L53.5616 107.859 L61.8254 106.192 L66.5013 106.192 L66.5013 136.817 L74.1402 136.817 L74.1402 140.752 L54.2328 140.752 L54.2328 136.817 Z" fill="#000000" fill-rule="evenodd" fill-opacity="1" /><path clip-path="url(#clip390)" d="M83.5845 134.873 L88.4688 134.873 L88.4688 140.752 L83.5845 140.752 L83.5845 134.873 Z" fill="#000000" fill-rule="evenodd" fill-opacity="1" /><path clip-path="url(#clip390)" d="M108.654 109.271 Q105.043 109.271 103.214 112.836 Q101.409 116.377 101.409 123.507 Q101.409 130.613 103.214 134.178 Q105.043 137.72 108.654 137.72 Q112.288 137.72 114.094 134.178 Q115.922 130.613 115.922 123.507 Q115.922 116.377 114.094 112.836 Q112.288 109.271 108.654 109.271 M108.654 105.567 Q114.464 105.567 117.52 110.174 Q120.598 114.757 120.598 123.507 Q120.598 132.234 117.52 136.84 Q114.464 141.423 108.654 141.423 Q102.844 141.423 99.765 136.84 Q96.7095 132.234 96.7095 123.507 Q96.7095 114.757 99.765 110.174 Q102.844 105.567 108.654 105.567 Z" fill="#000000" fill-rule="evenodd" fill-opacity="1" /><path clip-path="url(#clip390)" d="M894.45 34.4165 Q892.952 33.8899 891.453 33.4848 Q887.442 32.4315 883.148 32.4315 Q875.735 32.4315 871.603 36.4419 Q867.755 40.1688 867.026 47.0148 L894.45 47.0148 L894.45 52.8481 L867.026 52.8481 Q867.755 59.6941 871.603 63.421 Q875.735 67.4314 883.148 67.4314 Q888.334 67.4314 891.453 66.3781 L894.45 65.3654 L894.45 72.1304 L891.25 72.8596 Q887.037 73.7508 882.703 73.7508 Q871.846 73.7508 865.527 67.4314 Q859.167 61.1119 859.167 49.9314 Q859.167 38.7509 865.527 32.4315 Q871.846 26.1121 882.703 26.1121 Q886.794 26.1121 891.25 27.0033 Q892.871 27.3274 894.45 27.8135 L894.45 34.4165 Z" fill="#000000" fill-rule="evenodd" fill-opacity="1" /><path clip-path="url(#clip390)" d="M947.031 65.7705 L947.031 89.8329 L939.537 89.8329 L939.537 27.2059 L947.031 27.2059 L947.031 34.0924 Q949.381 30.0415 952.945 28.0971 Q956.551 26.1121 961.533 26.1121 Q969.797 26.1121 974.942 32.6746 Q980.127 39.2371 980.127 49.9314 Q980.127 60.6258 974.942 67.1883 Q969.797 73.7508 961.533 73.7508 Q956.551 73.7508 952.945 71.8063 Q949.381 69.8214 947.031 65.7705 M972.39 49.9314 Q972.39 41.7081 968.987 37.0496 Q965.625 32.3505 959.71 32.3505 Q953.796 32.3505 950.393 37.0496 Q947.031 41.7081 947.031 49.9314 Q947.031 58.1548 950.393 62.8538 Q953.796 67.5124 959.71 67.5124 Q965.625 67.5124 968.987 62.8538 Q972.39 58.1548 972.39 49.9314 Z" fill="#000000" fill-rule="evenodd" fill-opacity="1" /><path clip-path="url(#clip390)" d="M991.713 54.671 L991.713 27.2059 L999.166 27.2059 L999.166 54.3874 Q999.166 60.8284 1001.68 64.0691 Q1004.19 67.2693 1009.21 67.2693 Q1015.25 67.2693 1018.73 63.421 Q1022.26 59.5726 1022.26 52.9291 L1022.26 27.2059 L1029.71 27.2059 L1029.71 72.576 L1022.26 72.576 L1022.26 65.6084 Q1019.54 69.7404 1015.94 71.7658 Q1012.37 73.7508 1007.63 73.7508 Q999.814 73.7508 995.764 68.8897 Q991.713 64.0286 991.713 54.671 M1010.47 26.1121 L1010.47 26.1121 Z" fill="#000000" fill-rule="evenodd" fill-opacity="1" /><path clip-path="url(#clip390)" d="M1077.63 49.9314 Q1077.63 41.7081 1074.23 37.0496 Q1070.87 32.3505 1064.95 32.3505 Q1059.04 32.3505 1055.64 37.0496 Q1052.27 41.7081 1052.27 49.9314 Q1052.27 58.1548 1055.64 62.8538 Q1059.04 67.5124 1064.95 67.5124 Q1070.87 67.5124 1074.23 62.8538 Q1077.63 58.1548 1077.63 49.9314 M1052.27 34.0924 Q1054.62 30.0415 1058.19 28.0971 Q1061.79 26.1121 1066.78 26.1121 Q1075.04 26.1121 1080.18 32.6746 Q1085.37 39.2371 1085.37 49.9314 Q1085.37 60.6258 1080.18 67.1883 Q1075.04 73.7508 1066.78 73.7508 Q1061.79 73.7508 1058.19 71.8063 Q1054.62 69.8214 1052.27 65.7705 L1052.27 72.576 L1044.78 72.576 L1044.78 9.54393 L1052.27 9.54393 L1052.27 34.0924 Z" fill="#000000" fill-rule="evenodd" fill-opacity="1" /><path clip-path="url(#clip390)" d="M1097.72 9.54393 L1105.18 9.54393 L1105.18 72.576 L1097.72 72.576 L1097.72 9.54393 Z" fill="#000000" fill-rule="evenodd" fill-opacity="1" /><path clip-path="url(#clip390)" d="M1120.77 27.2059 L1128.23 27.2059 L1128.23 72.576 L1120.77 72.576 L1120.77 27.2059 M1120.77 9.54393 L1128.23 9.54393 L1128.23 18.9825 L1120.77 18.9825 L1120.77 9.54393 Z" fill="#000000" fill-rule="evenodd" fill-opacity="1" /><path clip-path="url(#clip390)" d="M1176.47 28.9478 L1176.47 35.9153 Q1173.31 34.1734 1170.11 33.3227 Q1166.95 32.4315 1163.71 32.4315 Q1156.46 32.4315 1152.45 37.0496 Q1148.44 41.6271 1148.44 49.9314 Q1148.44 58.2358 1152.45 62.8538 Q1156.46 67.4314 1163.71 67.4314 Q1166.95 67.4314 1170.11 66.5807 Q1173.31 65.6895 1176.47 63.9476 L1176.47 70.8341 Q1173.36 72.2924 1169.99 73.0216 Q1166.67 73.7508 1162.9 73.7508 Q1152.66 73.7508 1146.62 67.3098 Q1140.58 60.8689 1140.58 49.9314 Q1140.58 38.832 1146.66 32.472 Q1152.78 26.1121 1163.39 26.1121 Q1166.83 26.1121 1170.11 26.8413 Q1173.4 27.5299 1176.47 28.9478 Z" fill="#000000" fill-rule="evenodd" fill-opacity="1" /><path clip-path="url(#clip390)" d="M1189.44 9.54393 L1196.89 9.54393 L1196.89 72.576 L1189.44 72.576 L1189.44 9.54393 Z" fill="#000000" fill-rule="evenodd" fill-opacity="1" /><path clip-path="url(#clip390)" d="M1231.36 76.7889 Q1228.2 84.8907 1225.21 87.3618 Q1222.21 89.8329 1217.19 89.8329 L1211.23 89.8329 L1211.23 83.5945 L1215.61 83.5945 Q1218.68 83.5945 1220.39 82.1361 Q1222.09 80.6778 1224.15 75.2496 L1225.49 71.8468 L1207.14 27.2059 L1215.04 27.2059 L1229.22 62.6918 L1243.4 27.2059 L1251.29 27.2059 L1231.36 76.7889 Z" fill="#000000" fill-rule="evenodd" fill-opacity="1" /><path clip-path="url(#clip390)" d="M1308.57 49.7694 Q1299.54 49.7694 1296.06 51.8354 Q1292.57 53.9013 1292.57 58.8839 Q1292.57 62.8538 1295.17 65.2034 Q1297.8 67.5124 1302.3 67.5124 Q1308.49 67.5124 1312.22 63.1374 Q1315.99 58.7219 1315.99 51.4303 L1315.99 49.7694 L1308.57 49.7694 M1323.44 46.6907 L1323.44 72.576 L1315.99 72.576 L1315.99 65.6895 Q1313.44 69.8214 1309.63 71.8063 Q1305.82 73.7508 1300.31 73.7508 Q1293.34 73.7508 1289.21 69.8619 Q1285.12 65.9325 1285.12 59.3701 Q1285.12 51.7138 1290.22 47.825 Q1295.37 43.9361 1305.54 43.9361 L1315.99 43.9361 L1315.99 43.2069 Q1315.99 38.0623 1312.58 35.2672 Q1309.22 32.4315 1303.11 32.4315 Q1299.22 32.4315 1295.53 33.3632 Q1291.84 34.295 1288.44 36.1584 L1288.44 29.2718 Q1292.53 27.692 1296.38 26.9223 Q1300.23 26.1121 1303.88 26.1121 Q1313.72 26.1121 1318.58 31.2163 Q1323.44 36.3204 1323.44 46.6907 Z" fill="#000000" fill-rule="evenodd" fill-opacity="1" /><path clip-path="url(#clip390)" d="M1333.45 27.2059 L1341.35 27.2059 L1355.52 65.2844 L1369.7 27.2059 L1377.6 27.2059 L1360.59 72.576 L1350.46 72.576 L1333.45 27.2059 Z" fill="#000000" fill-rule="evenodd" fill-opacity="1" /><path clip-path="url(#clip390)" d="M1408.51 49.7694 Q1399.48 49.7694 1395.99 51.8354 Q1392.51 53.9013 1392.51 58.8839 Q1392.51 62.8538 1395.1 65.2034 Q1397.73 67.5124 1402.23 67.5124 Q1408.43 67.5124 1412.16 63.1374 Q1415.92 58.7219 1415.92 51.4303 L1415.92 49.7694 L1408.51 49.7694 M1423.38 46.6907 L1423.38 72.576 L1415.92 72.576 L1415.92 65.6895 Q1413.37 69.8214 1409.56 71.8063 Q1405.76 73.7508 1400.25 73.7508 Q1393.28 73.7508 1389.15 69.8619 Q1385.06 65.9325 1385.06 59.3701 Q1385.06 51.7138 1390.16 47.825 Q1395.3 43.9361 1405.47 43.9361 L1415.92 43.9361 L1415.92 43.2069 Q1415.92 38.0623 1412.52 35.2672 Q1409.16 32.4315 1403.04 32.4315 Q1399.15 32.4315 1395.47 33.3632 Q1391.78 34.295 1388.38 36.1584 L1388.38 29.2718 Q1392.47 27.692 1396.32 26.9223 Q1400.17 26.1121 1403.81 26.1121 Q1413.65 26.1121 1418.52 31.2163 Q1423.38 36.3204 1423.38 46.6907 Z" fill="#000000" fill-rule="evenodd" fill-opacity="1" /><path clip-path="url(#clip390)" d="M1438.73 27.2059 L1446.18 27.2059 L1446.18 72.576 L1438.73 72.576 L1438.73 27.2059 M1438.73 9.54393 L1446.18 9.54393 L1446.18 18.9825 L1438.73 18.9825 L1438.73 9.54393 Z" fill="#000000" fill-rule="evenodd" fill-opacity="1" /><path clip-path="url(#clip390)" d="M1461.78 9.54393 L1469.23 9.54393 L1469.23 72.576 L1461.78 72.576 L1461.78 9.54393 Z" fill="#000000" fill-rule="evenodd" fill-opacity="1" /><path clip-path="url(#clip390)" d="M1505.45 49.7694 Q1496.41 49.7694 1492.93 51.8354 Q1489.45 53.9013 1489.45 58.8839 Q1489.45 62.8538 1492.04 65.2034 Q1494.67 67.5124 1499.17 67.5124 Q1505.37 67.5124 1509.09 63.1374 Q1512.86 58.7219 1512.86 51.4303 L1512.86 49.7694 L1505.45 49.7694 M1520.32 46.6907 L1520.32 72.576 L1512.86 72.576 L1512.86 65.6895 Q1510.31 69.8214 1506.5 71.8063 Q1502.69 73.7508 1497.18 73.7508 Q1490.22 73.7508 1486.08 69.8619 Q1481.99 65.9325 1481.99 59.3701 Q1481.99 51.7138 1487.1 47.825 Q1492.24 43.9361 1502.41 43.9361 L1512.86 43.9361 L1512.86 43.2069 Q1512.86 38.0623 1509.46 35.2672 Q1506.1 32.4315 1499.98 32.4315 Q1496.09 32.4315 1492.4 33.3632 Q1488.72 34.295 1485.32 36.1584 L1485.32 29.2718 Q1489.41 27.692 1493.26 26.9223 Q1497.1 26.1121 1500.75 26.1121 Q1510.59 26.1121 1515.45 31.2163 Q1520.32 36.3204 1520.32 46.6907 Z" fill="#000000" fill-rule="evenodd" fill-opacity="1" /><path clip-path="url(#clip390)" d="M1568.24 49.9314 Q1568.24 41.7081 1564.83 37.0496 Q1561.47 32.3505 1555.56 32.3505 Q1549.64 32.3505 1546.24 37.0496 Q1542.88 41.7081 1542.88 49.9314 Q1542.88 58.1548 1546.24 62.8538 Q1549.64 67.5124 1555.56 67.5124 Q1561.47 67.5124 1564.83 62.8538 Q1568.24 58.1548 1568.24 49.9314 M1542.88 34.0924 Q1545.23 30.0415 1548.79 28.0971 Q1552.4 26.1121 1557.38 26.1121 Q1565.64 26.1121 1570.79 32.6746 Q1575.97 39.2371 1575.97 49.9314 Q1575.97 60.6258 1570.79 67.1883 Q1565.64 73.7508 1557.38 73.7508 Q1552.4 73.7508 1548.79 71.8063 Q1545.23 69.8214 1542.88 65.7705 L1542.88 72.576 L1535.38 72.576 L1535.38 9.54393 L1542.88 9.54393 L1542.88 34.0924 Z" fill="#000000" fill-rule="evenodd" fill-opacity="1" /><path clip-path="url(#clip390)" d="M1588.33 9.54393 L1595.78 9.54393 L1595.78 72.576 L1588.33 72.576 L1588.33 9.54393 Z" fill="#000000" fill-rule="evenodd" fill-opacity="1" /><path clip-path="url(#clip390)" d="M1650.19 48.0275 L1650.19 51.6733 L1615.92 51.6733 Q1616.4 59.3701 1620.53 63.421 Q1624.71 67.4314 1632.12 67.4314 Q1636.41 67.4314 1640.42 66.3781 Q1644.48 65.3249 1648.45 63.2184 L1648.45 70.267 Q1644.43 71.9684 1640.22 72.8596 Q1636.01 73.7508 1631.67 73.7508 Q1620.82 73.7508 1614.46 67.4314 Q1608.14 61.1119 1608.14 50.3365 Q1608.14 39.1965 1614.13 32.6746 Q1620.17 26.1121 1630.38 26.1121 Q1639.53 26.1121 1644.84 32.0264 Q1650.19 37.9003 1650.19 48.0275 M1642.73 45.84 Q1642.65 39.7232 1639.29 36.0774 Q1635.97 32.4315 1630.46 32.4315 Q1624.22 32.4315 1620.45 35.9558 Q1616.73 39.4801 1616.16 45.8805 L1642.73 45.84 Z" fill="#000000" fill-rule="evenodd" fill-opacity="1" /></svg>
