<?xml version="1.0" encoding="utf-8"?>
<svg xmlns="http://www.w3.org/2000/svg" xmlns:xlink="http://www.w3.org/1999/xlink" width="600" height="400" viewBox="0 0 2400 1600">
<defs>
  <clipPath id="clip370">
    <rect x="0" y="0" width="2400" height="1600"/>
  </clipPath>
</defs>
<path clip-path="url(#clip370)" d="
M0 1600 L2400 1600 L2400 0 L0 0  Z
  " fill="#ffffff" fill-rule="evenodd" fill-opacity="1"/>
<defs>
  <clipPath id="clip371">
    <rect x="156" y="123" width="2197" height="1364"/>
  </clipPath>
</defs>
<path clip-path="url(#clip370)" d="
M110.881 1486.45 L2352.76 1486.45 L2352.76 123.472 L110.881 123.472  Z
  " fill="#ffffff" fill-rule="evenodd" fill-opacity="1"/>
<defs>
  <clipPath id="clip372">
    <rect x="110" y="123" width="2243" height="1364"/>
  </clipPath>
</defs>
<polyline clip-path="url(#clip372)" style="stroke:#000000; stroke-linecap:butt; stroke-linejoin:round; stroke-width:2; stroke-opacity:0.1; fill:none" points="
  152.967,1486.45 152.967,123.472 
  "/>
<polyline clip-path="url(#clip372)" style="stroke:#000000; stroke-linecap:butt; stroke-linejoin:round; stroke-width:2; stroke-opacity:0.1; fill:none" points="
  687.052,1486.45 687.052,123.472 
  "/>
<polyline clip-path="url(#clip372)" style="stroke:#000000; stroke-linecap:butt; stroke-linejoin:round; stroke-width:2; stroke-opacity:0.1; fill:none" points="
  1221.14,1486.45 1221.14,123.472 
  "/>
<polyline clip-path="url(#clip372)" style="stroke:#000000; stroke-linecap:butt; stroke-linejoin:round; stroke-width:2; stroke-opacity:0.1; fill:none" points="
  1755.22,1486.45 1755.22,123.472 
  "/>
<polyline clip-path="url(#clip372)" style="stroke:#000000; stroke-linecap:butt; stroke-linejoin:round; stroke-width:2; stroke-opacity:0.1; fill:none" points="
  2289.31,1486.45 2289.31,123.472 
  "/>
<polyline clip-path="url(#clip370)" style="stroke:#000000; stroke-linecap:butt; stroke-linejoin:round; stroke-width:4; stroke-opacity:1; fill:none" points="
  110.881,1486.45 2352.76,1486.45 
  "/>
<polyline clip-path="url(#clip370)" style="stroke:#000000; stroke-linecap:butt; stroke-linejoin:round; stroke-width:4; stroke-opacity:1; fill:none" points="
  152.967,1486.45 152.967,1467.55 
  "/>
<polyline clip-path="url(#clip370)" style="stroke:#000000; stroke-linecap:butt; stroke-linejoin:round; stroke-width:4; stroke-opacity:1; fill:none" points="
  687.052,1486.45 687.052,1467.55 
  "/>
<polyline clip-path="url(#clip370)" style="stroke:#000000; stroke-linecap:butt; stroke-linejoin:round; stroke-width:4; stroke-opacity:1; fill:none" points="
  1221.14,1486.45 1221.14,1467.55 
  "/>
<polyline clip-path="url(#clip370)" style="stroke:#000000; stroke-linecap:butt; stroke-linejoin:round; stroke-width:4; stroke-opacity:1; fill:none" points="
  1755.22,1486.45 1755.22,1467.55 
  "/>
<polyline clip-path="url(#clip370)" style="stroke:#000000; stroke-linecap:butt; stroke-linejoin:round; stroke-width:4; stroke-opacity:1; fill:none" points="
  2289.31,1486.45 2289.31,1467.55 
  "/>
<path clip-path="url(#clip370)" d="M152.967 1517.37 Q149.356 1517.37 147.527 1520.93 Q145.721 1524.47 145.721 1531.6 Q145.721 1538.71 147.527 1542.27 Q149.356 1545.82 152.967 1545.82 Q156.601 1545.82 158.407 1542.27 Q160.235 1538.71 160.235 1531.6 Q160.235 1524.47 158.407 1520.93 Q156.601 1517.37 152.967 1517.37 M152.967 1513.66 Q158.777 1513.66 161.832 1518.27 Q164.911 1522.85 164.911 1531.6 Q164.911 1540.33 161.832 1544.94 Q158.777 1549.52 152.967 1549.52 Q147.157 1549.52 144.078 1544.94 Q141.022 1540.33 141.022 1531.6 Q141.022 1522.85 144.078 1518.27 Q147.157 1513.66 152.967 1513.66 Z" fill="#000000" fill-rule="evenodd" fill-opacity="1" /><path clip-path="url(#clip370)" d="M635.663 1544.91 L651.982 1544.91 L651.982 1548.85 L630.038 1548.85 L630.038 1544.91 Q632.7 1542.16 637.283 1537.53 Q641.89 1532.88 643.07 1531.53 Q645.316 1529.01 646.195 1527.27 Q647.098 1525.51 647.098 1523.82 Q647.098 1521.07 645.154 1519.33 Q643.233 1517.6 640.131 1517.6 Q637.932 1517.6 635.478 1518.36 Q633.047 1519.13 630.27 1520.68 L630.27 1515.95 Q633.094 1514.82 635.547 1514.24 Q638.001 1513.66 640.038 1513.66 Q645.408 1513.66 648.603 1516.35 Q651.797 1519.03 651.797 1523.52 Q651.797 1525.65 650.987 1527.57 Q650.2 1529.47 648.094 1532.07 Q647.515 1532.74 644.413 1535.95 Q641.311 1539.15 635.663 1544.91 Z" fill="#000000" fill-rule="evenodd" fill-opacity="1" /><path clip-path="url(#clip370)" d="M661.844 1514.29 L680.2 1514.29 L680.2 1518.22 L666.126 1518.22 L666.126 1526.7 Q667.144 1526.35 668.163 1526.19 Q669.181 1526 670.2 1526 Q675.987 1526 679.367 1529.17 Q682.746 1532.34 682.746 1537.76 Q682.746 1543.34 679.274 1546.44 Q675.802 1549.52 669.482 1549.52 Q667.306 1549.52 665.038 1549.15 Q662.793 1548.78 660.385 1548.04 L660.385 1543.34 Q662.469 1544.47 664.691 1545.03 Q666.913 1545.58 669.39 1545.58 Q673.394 1545.58 675.732 1543.48 Q678.07 1541.37 678.07 1537.76 Q678.07 1534.15 675.732 1532.04 Q673.394 1529.94 669.39 1529.94 Q667.515 1529.94 665.64 1530.35 Q663.788 1530.77 661.844 1531.65 L661.844 1514.29 Z" fill="#000000" fill-rule="evenodd" fill-opacity="1" /><path clip-path="url(#clip370)" d="M701.959 1517.37 Q698.348 1517.37 696.519 1520.93 Q694.714 1524.47 694.714 1531.6 Q694.714 1538.71 696.519 1542.27 Q698.348 1545.82 701.959 1545.82 Q705.593 1545.82 707.399 1542.27 Q709.228 1538.71 709.228 1531.6 Q709.228 1524.47 707.399 1520.93 Q705.593 1517.37 701.959 1517.37 M701.959 1513.66 Q707.769 1513.66 710.825 1518.27 Q713.903 1522.85 713.903 1531.6 Q713.903 1540.33 710.825 1544.94 Q707.769 1549.52 701.959 1549.52 Q696.149 1549.52 693.07 1544.94 Q690.015 1540.33 690.015 1531.6 Q690.015 1522.85 693.07 1518.27 Q696.149 1513.66 701.959 1513.66 Z" fill="#000000" fill-rule="evenodd" fill-opacity="1" /><path clip-path="url(#clip370)" d="M732.121 1517.37 Q728.51 1517.37 726.681 1520.93 Q724.876 1524.47 724.876 1531.6 Q724.876 1538.71 726.681 1542.27 Q728.51 1545.82 732.121 1545.82 Q735.755 1545.82 737.561 1542.27 Q739.389 1538.71 739.389 1531.6 Q739.389 1524.47 737.561 1520.93 Q735.755 1517.37 732.121 1517.37 M732.121 1513.66 Q737.931 1513.66 740.987 1518.27 Q744.065 1522.85 744.065 1531.6 Q744.065 1540.33 740.987 1544.94 Q737.931 1549.52 732.121 1549.52 Q726.311 1549.52 723.232 1544.94 Q720.177 1540.33 720.177 1531.6 Q720.177 1522.85 723.232 1518.27 Q726.311 1513.66 732.121 1513.66 Z" fill="#000000" fill-rule="evenodd" fill-opacity="1" /><path clip-path="url(#clip370)" d="M1165.67 1514.29 L1184.03 1514.29 L1184.03 1518.22 L1169.96 1518.22 L1169.96 1526.7 Q1170.97 1526.35 1171.99 1526.19 Q1173.01 1526 1174.03 1526 Q1179.82 1526 1183.2 1529.17 Q1186.58 1532.34 1186.58 1537.76 Q1186.58 1543.34 1183.1 1546.44 Q1179.63 1549.52 1173.31 1549.52 Q1171.14 1549.52 1168.87 1549.15 Q1166.62 1548.78 1164.22 1548.04 L1164.22 1543.34 Q1166.3 1544.47 1168.52 1545.03 Q1170.74 1545.58 1173.22 1545.58 Q1177.22 1545.58 1179.56 1543.48 Q1181.9 1541.37 1181.9 1537.76 Q1181.9 1534.15 1179.56 1532.04 Q1177.22 1529.94 1173.22 1529.94 Q1171.35 1529.94 1169.47 1530.35 Q1167.62 1530.77 1165.67 1531.65 L1165.67 1514.29 Z" fill="#000000" fill-rule="evenodd" fill-opacity="1" /><path clip-path="url(#clip370)" d="M1205.79 1517.37 Q1202.18 1517.37 1200.35 1520.93 Q1198.54 1524.47 1198.54 1531.6 Q1198.54 1538.71 1200.35 1542.27 Q1202.18 1545.82 1205.79 1545.82 Q1209.42 1545.82 1211.23 1542.27 Q1213.06 1538.71 1213.06 1531.6 Q1213.06 1524.47 1211.23 1520.93 Q1209.42 1517.37 1205.79 1517.37 M1205.79 1513.66 Q1211.6 1513.66 1214.66 1518.27 Q1217.73 1522.85 1217.73 1531.6 Q1217.73 1540.33 1214.66 1544.94 Q1211.6 1549.52 1205.79 1549.52 Q1199.98 1549.52 1196.9 1544.94 Q1193.85 1540.33 1193.85 1531.6 Q1193.85 1522.85 1196.9 1518.27 Q1199.98 1513.66 1205.79 1513.66 Z" fill="#000000" fill-rule="evenodd" fill-opacity="1" /><path clip-path="url(#clip370)" d="M1235.95 1517.37 Q1232.34 1517.37 1230.51 1520.93 Q1228.71 1524.47 1228.71 1531.6 Q1228.71 1538.71 1230.51 1542.27 Q1232.34 1545.82 1235.95 1545.82 Q1239.59 1545.82 1241.39 1542.27 Q1243.22 1538.71 1243.22 1531.6 Q1243.22 1524.47 1241.39 1520.93 Q1239.59 1517.37 1235.95 1517.37 M1235.95 1513.66 Q1241.76 1513.66 1244.82 1518.27 Q1247.9 1522.85 1247.9 1531.6 Q1247.9 1540.33 1244.82 1544.94 Q1241.76 1549.52 1235.95 1549.52 Q1230.14 1549.52 1227.06 1544.94 Q1224.01 1540.33 1224.01 1531.6 Q1224.01 1522.85 1227.06 1518.27 Q1230.14 1513.66 1235.95 1513.66 Z" fill="#000000" fill-rule="evenodd" fill-opacity="1" /><path clip-path="url(#clip370)" d="M1266.11 1517.37 Q1262.5 1517.37 1260.67 1520.93 Q1258.87 1524.47 1258.87 1531.6 Q1258.87 1538.71 1260.67 1542.27 Q1262.5 1545.82 1266.11 1545.82 Q1269.75 1545.82 1271.55 1542.27 Q1273.38 1538.71 1273.38 1531.6 Q1273.38 1524.47 1271.55 1520.93 Q1269.75 1517.37 1266.11 1517.37 M1266.11 1513.66 Q1271.92 1513.66 1274.98 1518.27 Q1278.06 1522.85 1278.06 1531.6 Q1278.06 1540.33 1274.98 1544.94 Q1271.92 1549.52 1266.11 1549.52 Q1260.3 1549.52 1257.22 1544.94 Q1254.17 1540.33 1254.17 1531.6 Q1254.17 1522.85 1257.22 1518.27 Q1260.3 1513.66 1266.11 1513.66 Z" fill="#000000" fill-rule="evenodd" fill-opacity="1" /><path clip-path="url(#clip370)" d="M1698.42 1514.29 L1720.64 1514.29 L1720.64 1516.28 L1708.09 1548.85 L1703.21 1548.85 L1715.01 1518.22 L1698.42 1518.22 L1698.42 1514.29 Z" fill="#000000" fill-rule="evenodd" fill-opacity="1" /><path clip-path="url(#clip370)" d="M1729.81 1514.29 L1748.16 1514.29 L1748.16 1518.22 L1734.09 1518.22 L1734.09 1526.7 Q1735.11 1526.35 1736.12 1526.19 Q1737.14 1526 1738.16 1526 Q1743.95 1526 1747.33 1529.17 Q1750.71 1532.34 1750.71 1537.76 Q1750.71 1543.34 1747.24 1546.44 Q1743.76 1549.52 1737.44 1549.52 Q1735.27 1549.52 1733 1549.15 Q1730.75 1548.78 1728.35 1548.04 L1728.35 1543.34 Q1730.43 1544.47 1732.65 1545.03 Q1734.87 1545.58 1737.35 1545.58 Q1741.36 1545.58 1743.69 1543.48 Q1746.03 1541.37 1746.03 1537.76 Q1746.03 1534.15 1743.69 1532.04 Q1741.36 1529.94 1737.35 1529.94 Q1735.48 1529.94 1733.6 1530.35 Q1731.75 1530.77 1729.81 1531.65 L1729.81 1514.29 Z" fill="#000000" fill-rule="evenodd" fill-opacity="1" /><path clip-path="url(#clip370)" d="M1769.92 1517.37 Q1766.31 1517.37 1764.48 1520.93 Q1762.68 1524.47 1762.68 1531.6 Q1762.68 1538.71 1764.48 1542.27 Q1766.31 1545.82 1769.92 1545.82 Q1773.55 1545.82 1775.36 1542.27 Q1777.19 1538.71 1777.19 1531.6 Q1777.19 1524.47 1775.36 1520.93 Q1773.55 1517.37 1769.92 1517.37 M1769.92 1513.66 Q1775.73 1513.66 1778.79 1518.27 Q1781.87 1522.85 1781.87 1531.6 Q1781.87 1540.33 1778.79 1544.94 Q1775.73 1549.52 1769.92 1549.52 Q1764.11 1549.52 1761.03 1544.94 Q1757.98 1540.33 1757.98 1531.6 Q1757.98 1522.85 1761.03 1518.27 Q1764.11 1513.66 1769.92 1513.66 Z" fill="#000000" fill-rule="evenodd" fill-opacity="1" /><path clip-path="url(#clip370)" d="M1800.08 1517.37 Q1796.47 1517.37 1794.64 1520.93 Q1792.84 1524.47 1792.84 1531.6 Q1792.84 1538.71 1794.64 1542.27 Q1796.47 1545.82 1800.08 1545.82 Q1803.72 1545.82 1805.52 1542.27 Q1807.35 1538.71 1807.35 1531.6 Q1807.35 1524.47 1805.52 1520.93 Q1803.72 1517.37 1800.08 1517.37 M1800.08 1513.66 Q1805.89 1513.66 1808.95 1518.27 Q1812.03 1522.85 1812.03 1531.6 Q1812.03 1540.33 1808.95 1544.94 Q1805.89 1549.52 1800.08 1549.52 Q1794.27 1549.52 1791.19 1544.94 Q1788.14 1540.33 1788.14 1531.6 Q1788.14 1522.85 1791.19 1518.27 Q1794.27 1513.66 1800.08 1513.66 Z" fill="#000000" fill-rule="evenodd" fill-opacity="1" /><path clip-path="url(#clip370)" d="M2218.75 1544.91 L2226.39 1544.91 L2226.39 1518.55 L2218.08 1520.21 L2218.08 1515.95 L2226.34 1514.29 L2231.02 1514.29 L2231.02 1544.91 L2238.66 1544.91 L2238.66 1548.85 L2218.75 1548.85 L2218.75 1544.91 Z" fill="#000000" fill-rule="evenodd" fill-opacity="1" /><path clip-path="url(#clip370)" d="M2258.1 1517.37 Q2254.49 1517.37 2252.66 1520.93 Q2250.86 1524.47 2250.86 1531.6 Q2250.86 1538.71 2252.66 1542.27 Q2254.49 1545.82 2258.1 1545.82 Q2261.74 1545.82 2263.54 1542.27 Q2265.37 1538.71 2265.37 1531.6 Q2265.37 1524.47 2263.54 1520.93 Q2261.74 1517.37 2258.1 1517.37 M2258.1 1513.66 Q2263.91 1513.66 2266.97 1518.27 Q2270.05 1522.85 2270.05 1531.6 Q2270.05 1540.33 2266.97 1544.94 Q2263.91 1549.52 2258.1 1549.52 Q2252.29 1549.52 2249.21 1544.94 Q2246.16 1540.33 2246.16 1531.6 Q2246.16 1522.85 2249.21 1518.27 Q2252.29 1513.66 2258.1 1513.66 Z" fill="#000000" fill-rule="evenodd" fill-opacity="1" /><path clip-path="url(#clip370)" d="M2288.26 1517.37 Q2284.65 1517.37 2282.83 1520.93 Q2281.02 1524.47 2281.02 1531.6 Q2281.02 1538.71 2282.83 1542.27 Q2284.65 1545.82 2288.26 1545.82 Q2291.9 1545.82 2293.7 1542.27 Q2295.53 1538.71 2295.53 1531.6 Q2295.53 1524.47 2293.7 1520.93 Q2291.9 1517.37 2288.26 1517.37 M2288.26 1513.66 Q2294.08 1513.66 2297.13 1518.27 Q2300.21 1522.85 2300.21 1531.6 Q2300.21 1540.33 2297.13 1544.94 Q2294.08 1549.52 2288.26 1549.52 Q2282.45 1549.52 2279.38 1544.94 Q2276.32 1540.33 2276.32 1531.6 Q2276.32 1522.85 2279.38 1518.27 Q2282.45 1513.66 2288.26 1513.66 Z" fill="#000000" fill-rule="evenodd" fill-opacity="1" /><path clip-path="url(#clip370)" d="M2318.43 1517.37 Q2314.82 1517.37 2312.99 1520.93 Q2311.18 1524.47 2311.18 1531.6 Q2311.18 1538.71 2312.99 1542.27 Q2314.82 1545.82 2318.43 1545.82 Q2322.06 1545.82 2323.87 1542.27 Q2325.7 1538.71 2325.7 1531.6 Q2325.7 1524.47 2323.87 1520.93 Q2322.06 1517.37 2318.43 1517.37 M2318.43 1513.66 Q2324.24 1513.66 2327.29 1518.27 Q2330.37 1522.85 2330.37 1531.6 Q2330.37 1540.33 2327.29 1544.94 Q2324.24 1549.52 2318.43 1549.52 Q2312.62 1549.52 2309.54 1544.94 Q2306.48 1540.33 2306.48 1531.6 Q2306.48 1522.85 2309.54 1518.27 Q2312.62 1513.66 2318.43 1513.66 Z" fill="#000000" fill-rule="evenodd" fill-opacity="1" /><path clip-path="url(#clip370)" d="M2348.59 1517.37 Q2344.98 1517.37 2343.15 1520.93 Q2341.34 1524.47 2341.34 1531.6 Q2341.34 1538.71 2343.15 1542.27 Q2344.98 1545.82 2348.59 1545.82 Q2352.22 1545.82 2354.03 1542.27 Q2355.86 1538.71 2355.86 1531.6 Q2355.86 1524.47 2354.03 1520.93 Q2352.22 1517.37 2348.59 1517.37 M2348.59 1513.66 Q2354.4 1513.66 2357.45 1518.27 Q2360.53 1522.85 2360.53 1531.6 Q2360.53 1540.33 2357.45 1544.94 Q2354.4 1549.52 2348.59 1549.52 Q2342.78 1549.52 2339.7 1544.94 Q2336.64 1540.33 2336.64 1531.6 Q2336.64 1522.85 2339.7 1518.27 Q2342.78 1513.66 2348.59 1513.66 Z" fill="#000000" fill-rule="evenodd" fill-opacity="1" /><polyline clip-path="url(#clip372)" style="stroke:#000000; stroke-linecap:butt; stroke-linejoin:round; stroke-width:2; stroke-opacity:0.1; fill:none" points="
  110.881,1447.87 2352.76,1447.87 
  "/>
<polyline clip-path="url(#clip372)" style="stroke:#000000; stroke-linecap:butt; stroke-linejoin:round; stroke-width:2; stroke-opacity:0.1; fill:none" points="
  110.881,1024.53 2352.76,1024.53 
  "/>
<polyline clip-path="url(#clip372)" style="stroke:#000000; stroke-linecap:butt; stroke-linejoin:round; stroke-width:2; stroke-opacity:0.1; fill:none" points="
  110.881,601.185 2352.76,601.185 
  "/>
<polyline clip-path="url(#clip372)" style="stroke:#000000; stroke-linecap:butt; stroke-linejoin:round; stroke-width:2; stroke-opacity:0.1; fill:none" points="
  110.881,177.841 2352.76,177.841 
  "/>
<polyline clip-path="url(#clip370)" style="stroke:#000000; stroke-linecap:butt; stroke-linejoin:round; stroke-width:4; stroke-opacity:1; fill:none" points="
  110.881,1486.45 110.881,123.472 
  "/>
<polyline clip-path="url(#clip370)" style="stroke:#000000; stroke-linecap:butt; stroke-linejoin:round; stroke-width:4; stroke-opacity:1; fill:none" points="
  110.881,1447.87 129.779,1447.87 
  "/>
<polyline clip-path="url(#clip370)" style="stroke:#000000; stroke-linecap:butt; stroke-linejoin:round; stroke-width:4; stroke-opacity:1; fill:none" points="
  110.881,1024.53 129.779,1024.53 
  "/>
<polyline clip-path="url(#clip370)" style="stroke:#000000; stroke-linecap:butt; stroke-linejoin:round; stroke-width:4; stroke-opacity:1; fill:none" points="
  110.881,601.185 129.779,601.185 
  "/>
<polyline clip-path="url(#clip370)" style="stroke:#000000; stroke-linecap:butt; stroke-linejoin:round; stroke-width:4; stroke-opacity:1; fill:none" points="
  110.881,177.841 129.779,177.841 
  "/>
<path clip-path="url(#clip370)" d="M62.9365 1433.67 Q59.3254 1433.67 57.4967 1437.24 Q55.6912 1440.78 55.6912 1447.91 Q55.6912 1455.01 57.4967 1458.58 Q59.3254 1462.12 62.9365 1462.12 Q66.5707 1462.12 68.3763 1458.58 Q70.205 1455.01 70.205 1447.91 Q70.205 1440.78 68.3763 1437.24 Q66.5707 1433.67 62.9365 1433.67 M62.9365 1429.97 Q68.7467 1429.97 71.8022 1434.57 Q74.8809 1439.16 74.8809 1447.91 Q74.8809 1456.63 71.8022 1461.24 Q68.7467 1465.82 62.9365 1465.82 Q57.1264 1465.82 54.0477 1461.24 Q50.9921 1456.63 50.9921 1447.91 Q50.9921 1439.16 54.0477 1434.57 Q57.1264 1429.97 62.9365 1429.97 Z" fill="#000000" fill-rule="evenodd" fill-opacity="1" /><path clip-path="url(#clip370)" d="M54.9736 1037.87 L62.6124 1037.87 L62.6124 1011.51 L54.3023 1013.18 L54.3023 1008.92 L62.5661 1007.25 L67.242 1007.25 L67.242 1037.87 L74.8809 1037.87 L74.8809 1041.81 L54.9736 1041.81 L54.9736 1037.87 Z" fill="#000000" fill-rule="evenodd" fill-opacity="1" /><path clip-path="url(#clip370)" d="M58.5615 614.53 L74.8809 614.53 L74.8809 618.465 L52.9366 618.465 L52.9366 614.53 Q55.5986 611.776 60.1819 607.146 Q64.7883 602.493 65.9689 601.151 Q68.2143 598.627 69.0939 596.891 Q69.9967 595.132 69.9967 593.442 Q69.9967 590.688 68.0522 588.952 Q66.1309 587.215 63.0291 587.215 Q60.83 587.215 58.3763 587.979 Q55.9458 588.743 53.168 590.294 L53.168 585.572 Q55.9921 584.438 58.4458 583.859 Q60.8995 583.28 62.9365 583.28 Q68.3068 583.28 71.5013 585.965 Q74.6957 588.651 74.6957 593.141 Q74.6957 595.271 73.8855 597.192 Q73.0985 599.09 70.992 601.683 Q70.4133 602.354 67.3115 605.572 Q64.2096 608.766 58.5615 614.53 Z" fill="#000000" fill-rule="evenodd" fill-opacity="1" /><path clip-path="url(#clip370)" d="M67.7513 176.487 Q71.1078 177.205 72.9827 179.473 Q74.8809 181.742 74.8809 185.075 Q74.8809 190.191 71.3624 192.992 Q67.8439 195.793 61.3624 195.793 Q59.1865 195.793 56.8717 195.353 Q54.5801 194.936 52.1264 194.08 L52.1264 189.566 Q54.0708 190.7 56.3856 191.279 Q58.7004 191.858 61.2236 191.858 Q65.6217 191.858 67.9133 190.121 Q70.2281 188.385 70.2281 185.075 Q70.2281 182.02 68.0754 180.307 Q65.9457 178.571 62.1263 178.571 L58.0986 178.571 L58.0986 174.728 L62.3115 174.728 Q65.7606 174.728 67.5893 173.362 Q69.418 171.973 69.418 169.381 Q69.418 166.719 67.5198 165.307 Q65.6448 163.872 62.1263 163.872 Q60.205 163.872 58.006 164.288 Q55.8069 164.705 53.168 165.585 L53.168 161.418 Q55.8301 160.677 58.1449 160.307 Q60.4828 159.936 62.543 159.936 Q67.867 159.936 70.9689 162.367 Q74.0707 164.774 74.0707 168.895 Q74.0707 171.765 72.4272 173.756 Q70.7837 175.723 67.7513 176.487 Z" fill="#000000" fill-rule="evenodd" fill-opacity="1" /><path clip-path="url(#clip370)" d="M790.472 34.4165 Q788.974 33.8899 787.475 33.4848 Q783.464 32.4315 779.17 32.4315 Q771.757 32.4315 767.625 36.4419 Q763.777 40.1688 763.048 47.0148 L790.472 47.0148 L790.472 52.8481 L763.048 52.8481 Q763.777 59.6941 767.625 63.421 Q771.757 67.4314 779.17 67.4314 Q784.356 67.4314 787.475 66.3781 L790.472 65.3654 L790.472 72.1304 L787.272 72.8596 Q783.059 73.7508 778.725 73.7508 Q767.868 73.7508 761.549 67.4314 Q755.189 61.1119 755.189 49.9314 Q755.189 38.7509 761.549 32.4315 Q767.868 26.1121 778.725 26.1121 Q782.816 26.1121 787.272 27.0033 Q788.893 27.3274 790.472 27.8135 L790.472 34.4165 Z" fill="#000000" fill-rule="evenodd" fill-opacity="1" /><path clip-path="url(#clip370)" d="M873.556 45.1919 L873.556 72.576 L866.103 72.576 L866.103 45.4349 Q866.103 38.994 863.591 35.7938 Q861.08 32.5936 856.057 32.5936 Q850.021 32.5936 846.537 36.4419 Q843.053 40.2903 843.053 46.9338 L843.053 72.576 L835.559 72.576 L835.559 27.2059 L843.053 27.2059 L843.053 34.2544 Q845.727 30.163 849.332 28.1376 Q852.978 26.1121 857.717 26.1121 Q865.536 26.1121 869.546 30.9732 Q873.556 35.7938 873.556 45.1919 Z" fill="#000000" fill-rule="evenodd" fill-opacity="1" /><path clip-path="url(#clip370)" d="M906.004 32.4315 Q900.009 32.4315 896.525 37.1306 Q893.041 41.7891 893.041 49.9314 Q893.041 58.0738 896.485 62.7728 Q899.968 67.4314 906.004 67.4314 Q911.959 67.4314 915.443 62.7323 Q918.927 58.0333 918.927 49.9314 Q918.927 41.8701 915.443 37.1711 Q911.959 32.4315 906.004 32.4315 M906.004 26.1121 Q915.726 26.1121 921.276 32.4315 Q926.826 38.7509 926.826 49.9314 Q926.826 61.0714 921.276 67.4314 Q915.726 73.7508 906.004 73.7508 Q896.241 73.7508 890.692 67.4314 Q885.183 61.0714 885.183 49.9314 Q885.183 38.7509 890.692 32.4315 Q896.241 26.1121 906.004 26.1121 Z" fill="#000000" fill-rule="evenodd" fill-opacity="1" /><path clip-path="url(#clip370)" d="M946.554 14.324 L946.554 27.2059 L961.907 27.2059 L961.907 32.9987 L946.554 32.9987 L946.554 57.6282 Q946.554 63.1779 948.053 64.7578 Q949.592 66.3376 954.25 66.3376 L961.907 66.3376 L961.907 72.576 L954.25 72.576 Q945.622 72.576 942.341 69.3758 Q939.06 66.1351 939.06 57.6282 L939.06 32.9987 L933.591 32.9987 L933.591 27.2059 L939.06 27.2059 L939.06 14.324 L946.554 14.324 Z" fill="#000000" fill-rule="evenodd" fill-opacity="1" /><path clip-path="url(#clip370)" d="M1005.29 65.7705 L1005.29 89.8329 L997.798 89.8329 L997.798 27.2059 L1005.29 27.2059 L1005.29 34.0924 Q1007.64 30.0415 1011.21 28.0971 Q1014.81 26.1121 1019.79 26.1121 Q1028.06 26.1121 1033.2 32.6746 Q1038.39 39.2371 1038.39 49.9314 Q1038.39 60.6258 1033.2 67.1883 Q1028.06 73.7508 1019.79 73.7508 Q1014.81 73.7508 1011.21 71.8063 Q1007.64 69.8214 1005.29 65.7705 M1030.65 49.9314 Q1030.65 41.7081 1027.25 37.0496 Q1023.89 32.3505 1017.97 32.3505 Q1012.06 32.3505 1008.65 37.0496 Q1005.29 41.7081 1005.29 49.9314 Q1005.29 58.1548 1008.65 62.8538 Q1012.06 67.5124 1017.97 67.5124 Q1023.89 67.5124 1027.25 62.8538 Q1030.65 58.1548 1030.65 49.9314 Z" fill="#000000" fill-rule="evenodd" fill-opacity="1" /><path clip-path="url(#clip370)" d="M1049.97 54.671 L1049.97 27.2059 L1057.43 27.2059 L1057.43 54.3874 Q1057.43 60.8284 1059.94 64.0691 Q1062.45 67.2693 1067.47 67.2693 Q1073.51 67.2693 1076.99 63.421 Q1080.52 59.5726 1080.52 52.9291 L1080.52 27.2059 L1087.97 27.2059 L1087.97 72.576 L1080.52 72.576 L1080.52 65.6084 Q1077.8 69.7404 1074.2 71.7658 Q1070.63 73.7508 1065.89 73.7508 Q1058.08 73.7508 1054.02 68.8897 Q1049.97 64.0286 1049.97 54.671 M1068.73 26.1121 L1068.73 26.1121 Z" fill="#000000" fill-rule="evenodd" fill-opacity="1" /><path clip-path="url(#clip370)" d="M1135.89 49.9314 Q1135.89 41.7081 1132.49 37.0496 Q1129.13 32.3505 1123.21 32.3505 Q1117.3 32.3505 1113.9 37.0496 Q1110.53 41.7081 1110.53 49.9314 Q1110.53 58.1548 1113.9 62.8538 Q1117.3 67.5124 1123.21 67.5124 Q1129.13 67.5124 1132.49 62.8538 Q1135.89 58.1548 1135.89 49.9314 M1110.53 34.0924 Q1112.88 30.0415 1116.45 28.0971 Q1120.05 26.1121 1125.04 26.1121 Q1133.3 26.1121 1138.45 32.6746 Q1143.63 39.2371 1143.63 49.9314 Q1143.63 60.6258 1138.45 67.1883 Q1133.3 73.7508 1125.04 73.7508 Q1120.05 73.7508 1116.45 71.8063 Q1112.88 69.8214 1110.53 65.7705 L1110.53 72.576 L1103.04 72.576 L1103.04 9.54393 L1110.53 9.54393 L1110.53 34.0924 Z" fill="#000000" fill-rule="evenodd" fill-opacity="1" /><path clip-path="url(#clip370)" d="M1155.99 9.54393 L1163.44 9.54393 L1163.44 72.576 L1155.99 72.576 L1155.99 9.54393 Z" fill="#000000" fill-rule="evenodd" fill-opacity="1" /><path clip-path="url(#clip370)" d="M1179.04 27.2059 L1186.49 27.2059 L1186.49 72.576 L1179.04 72.576 L1179.04 27.2059 M1179.04 9.54393 L1186.49 9.54393 L1186.49 18.9825 L1179.04 18.9825 L1179.04 9.54393 Z" fill="#000000" fill-rule="evenodd" fill-opacity="1" /><path clip-path="url(#clip370)" d="M1234.74 28.9478 L1234.74 35.9153 Q1231.58 34.1734 1228.38 33.3227 Q1225.22 32.4315 1221.97 32.4315 Q1214.72 32.4315 1210.71 37.0496 Q1206.7 41.6271 1206.7 49.9314 Q1206.7 58.2358 1210.71 62.8538 Q1214.72 67.4314 1221.97 67.4314 Q1225.22 67.4314 1228.38 66.5807 Q1231.58 65.6895 1234.74 63.9476 L1234.74 70.8341 Q1231.62 72.2924 1228.25 73.0216 Q1224.93 73.7508 1221.16 73.7508 Q1210.92 73.7508 1204.88 67.3098 Q1198.84 60.8689 1198.84 49.9314 Q1198.84 38.832 1204.92 32.472 Q1211.04 26.1121 1221.65 26.1121 Q1225.09 26.1121 1228.38 26.8413 Q1231.66 27.5299 1234.74 28.9478 Z" fill="#000000" fill-rule="evenodd" fill-opacity="1" /><path clip-path="url(#clip370)" d="M1247.7 9.54393 L1255.15 9.54393 L1255.15 72.576 L1247.7 72.576 L1247.7 9.54393 Z" fill="#000000" fill-rule="evenodd" fill-opacity="1" /><path clip-path="url(#clip370)" d="M1289.62 76.7889 Q1286.47 84.8907 1283.47 87.3618 Q1280.47 89.8329 1275.45 89.8329 L1269.49 89.8329 L1269.49 83.5945 L1273.87 83.5945 Q1276.95 83.5945 1278.65 82.1361 Q1280.35 80.6778 1282.41 75.2496 L1283.75 71.8468 L1265.4 27.2059 L1273.3 27.2059 L1287.48 62.6918 L1301.66 27.2059 L1309.56 27.2059 L1289.62 76.7889 Z" fill="#000000" fill-rule="evenodd" fill-opacity="1" /><path clip-path="url(#clip370)" d="M1366.84 49.7694 Q1357.8 49.7694 1354.32 51.8354 Q1350.83 53.9013 1350.83 58.8839 Q1350.83 62.8538 1353.43 65.2034 Q1356.06 67.5124 1360.56 67.5124 Q1366.75 67.5124 1370.48 63.1374 Q1374.25 58.7219 1374.25 51.4303 L1374.25 49.7694 L1366.84 49.7694 M1381.7 46.6907 L1381.7 72.576 L1374.25 72.576 L1374.25 65.6895 Q1371.7 69.8214 1367.89 71.8063 Q1364.08 73.7508 1358.57 73.7508 Q1351.6 73.7508 1347.47 69.8619 Q1343.38 65.9325 1343.38 59.3701 Q1343.38 51.7138 1348.48 47.825 Q1353.63 43.9361 1363.8 43.9361 L1374.25 43.9361 L1374.25 43.2069 Q1374.25 38.0623 1370.85 35.2672 Q1367.48 32.4315 1361.37 32.4315 Q1357.48 32.4315 1353.79 33.3632 Q1350.1 34.295 1346.7 36.1584 L1346.7 29.2718 Q1350.79 27.692 1354.64 26.9223 Q1358.49 26.1121 1362.14 26.1121 Q1371.98 26.1121 1376.84 31.2163 Q1381.7 36.3204 1381.7 46.6907 Z" fill="#000000" fill-rule="evenodd" fill-opacity="1" /><path clip-path="url(#clip370)" d="M1391.71 27.2059 L1399.61 27.2059 L1413.79 65.2844 L1427.96 27.2059 L1435.86 27.2059 L1418.85 72.576 L1408.72 72.576 L1391.71 27.2059 Z" fill="#000000" fill-rule="evenodd" fill-opacity="1" /><path clip-path="url(#clip370)" d="M1466.77 49.7694 Q1457.74 49.7694 1454.25 51.8354 Q1450.77 53.9013 1450.77 58.8839 Q1450.77 62.8538 1453.36 65.2034 Q1456 67.5124 1460.49 67.5124 Q1466.69 67.5124 1470.42 63.1374 Q1474.18 58.7219 1474.18 51.4303 L1474.18 49.7694 L1466.77 49.7694 M1481.64 46.6907 L1481.64 72.576 L1474.18 72.576 L1474.18 65.6895 Q1471.63 69.8214 1467.82 71.8063 Q1464.02 73.7508 1458.51 73.7508 Q1451.54 73.7508 1447.41 69.8619 Q1443.32 65.9325 1443.32 59.3701 Q1443.32 51.7138 1448.42 47.825 Q1453.56 43.9361 1463.73 43.9361 L1474.18 43.9361 L1474.18 43.2069 Q1474.18 38.0623 1470.78 35.2672 Q1467.42 32.4315 1461.3 32.4315 Q1457.41 32.4315 1453.73 33.3632 Q1450.04 34.295 1446.64 36.1584 L1446.64 29.2718 Q1450.73 27.692 1454.58 26.9223 Q1458.43 26.1121 1462.07 26.1121 Q1471.92 26.1121 1476.78 31.2163 Q1481.64 36.3204 1481.64 46.6907 Z" fill="#000000" fill-rule="evenodd" fill-opacity="1" /><path clip-path="url(#clip370)" d="M1496.99 27.2059 L1504.44 27.2059 L1504.44 72.576 L1496.99 72.576 L1496.99 27.2059 M1496.99 9.54393 L1504.44 9.54393 L1504.44 18.9825 L1496.99 18.9825 L1496.99 9.54393 Z" fill="#000000" fill-rule="evenodd" fill-opacity="1" /><path clip-path="url(#clip370)" d="M1520.04 9.54393 L1527.49 9.54393 L1527.49 72.576 L1520.04 72.576 L1520.04 9.54393 Z" fill="#000000" fill-rule="evenodd" fill-opacity="1" /><path clip-path="url(#clip370)" d="M1563.71 49.7694 Q1554.68 49.7694 1551.19 51.8354 Q1547.71 53.9013 1547.71 58.8839 Q1547.71 62.8538 1550.3 65.2034 Q1552.93 67.5124 1557.43 67.5124 Q1563.63 67.5124 1567.35 63.1374 Q1571.12 58.7219 1571.12 51.4303 L1571.12 49.7694 L1563.71 49.7694 M1578.58 46.6907 L1578.58 72.576 L1571.12 72.576 L1571.12 65.6895 Q1568.57 69.8214 1564.76 71.8063 Q1560.95 73.7508 1555.45 73.7508 Q1548.48 73.7508 1544.35 69.8619 Q1540.25 65.9325 1540.25 59.3701 Q1540.25 51.7138 1545.36 47.825 Q1550.5 43.9361 1560.67 43.9361 L1571.12 43.9361 L1571.12 43.2069 Q1571.12 38.0623 1567.72 35.2672 Q1564.36 32.4315 1558.24 32.4315 Q1554.35 32.4315 1550.67 33.3632 Q1546.98 34.295 1543.58 36.1584 L1543.58 29.2718 Q1547.67 27.692 1551.52 26.9223 Q1555.36 26.1121 1559.01 26.1121 Q1568.85 26.1121 1573.71 31.2163 Q1578.58 36.3204 1578.58 46.6907 Z" fill="#000000" fill-rule="evenodd" fill-opacity="1" /><path clip-path="url(#clip370)" d="M1626.5 49.9314 Q1626.5 41.7081 1623.1 37.0496 Q1619.73 32.3505 1613.82 32.3505 Q1607.9 32.3505 1604.5 37.0496 Q1601.14 41.7081 1601.14 49.9314 Q1601.14 58.1548 1604.5 62.8538 Q1607.9 67.5124 1613.82 67.5124 Q1619.73 67.5124 1623.1 62.8538 Q1626.5 58.1548 1626.5 49.9314 M1601.14 34.0924 Q1603.49 30.0415 1607.05 28.0971 Q1610.66 26.1121 1615.64 26.1121 Q1623.91 26.1121 1629.05 32.6746 Q1634.24 39.2371 1634.24 49.9314 Q1634.24 60.6258 1629.05 67.1883 Q1623.91 73.7508 1615.64 73.7508 Q1610.66 73.7508 1607.05 71.8063 Q1603.49 69.8214 1601.14 65.7705 L1601.14 72.576 L1593.65 72.576 L1593.65 9.54393 L1601.14 9.54393 L1601.14 34.0924 Z" fill="#000000" fill-rule="evenodd" fill-opacity="1" /><path clip-path="url(#clip370)" d="M1646.59 9.54393 L1654.04 9.54393 L1654.04 72.576 L1646.59 72.576 L1646.59 9.54393 Z" fill="#000000" fill-rule="evenodd" fill-opacity="1" /><path clip-path="url(#clip370)" d="M1708.45 48.0275 L1708.45 51.6733 L1674.18 51.6733 Q1674.66 59.3701 1678.8 63.421 Q1682.97 67.4314 1690.38 67.4314 Q1694.67 67.4314 1698.69 66.3781 Q1702.74 65.3249 1706.71 63.2184 L1706.71 70.267 Q1702.7 71.9684 1698.48 72.8596 Q1694.27 73.7508 1689.94 73.7508 Q1679.08 73.7508 1672.72 67.4314 Q1666.4 61.1119 1666.4 50.3365 Q1666.4 39.1965 1672.39 32.6746 Q1678.43 26.1121 1688.64 26.1121 Q1697.79 26.1121 1703.1 32.0264 Q1708.45 37.9003 1708.45 48.0275 M1700.99 45.84 Q1700.91 39.7232 1697.55 36.0774 Q1694.23 32.4315 1688.72 32.4315 Q1682.48 32.4315 1678.71 35.9558 Q1674.99 39.4801 1674.42 45.8805 L1700.99 45.84 Z" fill="#000000" fill-rule="evenodd" fill-opacity="1" /><path clip-path="url(#clip372)" d="
M174.33 372.491 L259.784 1447.87 L366.601 1447.87 L580.235 1447.87 L1221.14 1447.87 L2289.31 1447.87 L2289.31 1447.87 L1221.14 1447.87 L580.235 1447.87 L366.601 1447.87 
  L259.784 1447.87 L174.33 162.047  Z
  " fill="#009af9" fill-rule="evenodd" fill-opacity="0.5"/>
<polyline clip-path="url(#clip372)" style="stroke:#009af9; stroke-linecap:butt; stroke-linejoin:round; stroke-width:12; stroke-opacity:1; fill:none" points="
  174.33,267.269 259.784,1447.87 366.601,1447.87 580.235,1447.87 1221.14,1447.87 2289.31,1447.87 
  "/>
<path clip-path="url(#clip372)" d="
M174.33 367.105 L259.784 1447.87 L366.601 1447.87 L580.235 1447.87 L1221.14 1447.87 L2289.31 1447.87 L2289.31 1447.87 L1221.14 1447.87 L580.235 1447.87 L366.601 1447.87 
  L259.784 1447.87 L174.33 212.503  Z
  " fill="#e26f46" fill-rule="evenodd" fill-opacity="0.5"/>
<polyline clip-path="url(#clip372)" style="stroke:#e26f46; stroke-linecap:butt; stroke-linejoin:round; stroke-width:12; stroke-opacity:1; fill:none" points="
  174.33,289.804 259.784,1447.87 366.601,1447.87 580.235,1447.87 1221.14,1447.87 2289.31,1447.87 
  "/>
<path clip-path="url(#clip372)" d="
M174.33 461.824 L259.784 1447.87 L366.601 1447.87 L580.235 1447.87 L1221.14 1447.87 L2289.31 1447.87 L2289.31 1447.87 L1221.14 1447.87 L580.235 1447.87 L366.601 1447.87 
  L259.784 1447.87 L174.33 242.285  Z
  " fill="#3da44d" fill-rule="evenodd" fill-opacity="0.5"/>
<polyline clip-path="url(#clip372)" style="stroke:#3da44d; stroke-linecap:butt; stroke-linejoin:round; stroke-width:12; stroke-opacity:1; fill:none" points="
  174.33,352.055 259.784,1447.87 366.601,1447.87 580.235,1447.87 1221.14,1447.87 2289.31,1447.87 
  "/>
<path clip-path="url(#clip370)" d="
M1890.41 376.265 L2278.03 376.265 L2278.03 168.905 L1890.41 168.905  Z
  " fill="#ffffff" fill-rule="evenodd" fill-opacity="1"/>
<polyline clip-path="url(#clip370)" style="stroke:#000000; stroke-linecap:butt; stroke-linejoin:round; stroke-width:4; stroke-opacity:1; fill:none" points="
  1890.41,376.265 2278.03,376.265 2278.03,168.905 1890.41,168.905 1890.41,376.265 
  "/>
<polyline clip-path="url(#clip370)" style="stroke:#009af9; stroke-linecap:butt; stroke-linejoin:round; stroke-width:4; stroke-opacity:1; fill:none" points="
  1915.32,220.745 2064.78,220.745 
  "/>
<path clip-path="url(#clip370)" d="M2109.85 216.219 Q2108.99 215.918 2108.14 215.687 Q2105.85 215.085 2103.39 215.085 Q2099.16 215.085 2096.8 217.377 Q2094.6 219.506 2094.18 223.418 L2109.85 223.418 L2109.85 226.752 L2094.18 226.752 Q2094.6 230.664 2096.8 232.793 Q2099.16 235.085 2103.39 235.085 Q2106.36 235.085 2108.14 234.483 L2109.85 233.904 L2109.85 237.77 L2108.02 238.187 Q2105.62 238.696 2103.14 238.696 Q2096.93 238.696 2093.32 235.085 Q2089.69 231.474 2089.69 225.085 Q2089.69 218.696 2093.32 215.085 Q2096.93 211.474 2103.14 211.474 Q2105.48 211.474 2108.02 211.983 Q2108.95 212.168 2109.85 212.446 L2109.85 216.219 Z" fill="#000000" fill-rule="evenodd" fill-opacity="1" /><path clip-path="url(#clip370)" d="M2121.26 216.497 L2150.94 216.497 L2150.94 220.386 L2121.26 220.386 L2121.26 216.497 M2121.26 225.941 L2150.94 225.941 L2150.94 229.877 L2121.26 229.877 L2121.26 225.941 Z" fill="#000000" fill-rule="evenodd" fill-opacity="1" /><path clip-path="url(#clip370)" d="M2171.03 206.543 Q2167.42 206.543 2165.59 210.108 Q2163.79 213.65 2163.79 220.779 Q2163.79 227.886 2165.59 231.451 Q2167.42 234.992 2171.03 234.992 Q2174.67 234.992 2176.47 231.451 Q2178.3 227.886 2178.3 220.779 Q2178.3 213.65 2176.47 210.108 Q2174.67 206.543 2171.03 206.543 M2171.03 202.84 Q2176.84 202.84 2179.9 207.446 Q2182.98 212.029 2182.98 220.779 Q2182.98 229.506 2179.9 234.113 Q2176.84 238.696 2171.03 238.696 Q2165.22 238.696 2162.14 234.113 Q2159.09 229.506 2159.09 220.779 Q2159.09 212.029 2162.14 207.446 Q2165.22 202.84 2171.03 202.84 Z" fill="#000000" fill-rule="evenodd" fill-opacity="1" /><path clip-path="url(#clip370)" d="M2191.19 232.145 L2196.08 232.145 L2196.08 238.025 L2191.19 238.025 L2191.19 232.145 Z" fill="#000000" fill-rule="evenodd" fill-opacity="1" /><path clip-path="url(#clip370)" d="M2206.31 203.465 L2224.67 203.465 L2224.67 207.4 L2210.59 207.4 L2210.59 215.872 Q2211.61 215.525 2212.63 215.363 Q2213.65 215.178 2214.67 215.178 Q2220.45 215.178 2223.83 218.349 Q2227.21 221.52 2227.21 226.937 Q2227.21 232.515 2223.74 235.617 Q2220.27 238.696 2213.95 238.696 Q2211.77 238.696 2209.5 238.326 Q2207.26 237.955 2204.85 237.214 L2204.85 232.515 Q2206.93 233.65 2209.16 234.205 Q2211.38 234.761 2213.86 234.761 Q2217.86 234.761 2220.2 232.654 Q2222.54 230.548 2222.54 226.937 Q2222.54 223.326 2220.2 221.219 Q2217.86 219.113 2213.86 219.113 Q2211.98 219.113 2210.11 219.529 Q2208.25 219.946 2206.31 220.826 L2206.31 203.465 Z" fill="#000000" fill-rule="evenodd" fill-opacity="1" /><polyline clip-path="url(#clip370)" style="stroke:#e26f46; stroke-linecap:butt; stroke-linejoin:round; stroke-width:4; stroke-opacity:1; fill:none" points="
  1915.32,272.585 2064.78,272.585 
  "/>
<path clip-path="url(#clip370)" d="M2109.85 268.059 Q2108.99 267.758 2108.14 267.527 Q2105.85 266.925 2103.39 266.925 Q2099.16 266.925 2096.8 269.217 Q2094.6 271.346 2094.18 275.258 L2109.85 275.258 L2109.85 278.592 L2094.18 278.592 Q2094.6 282.504 2096.8 284.633 Q2099.16 286.925 2103.39 286.925 Q2106.36 286.925 2108.14 286.323 L2109.85 285.744 L2109.85 289.61 L2108.02 290.027 Q2105.62 290.536 2103.14 290.536 Q2096.93 290.536 2093.32 286.925 Q2089.69 283.314 2089.69 276.925 Q2089.69 270.536 2093.32 266.925 Q2096.93 263.314 2103.14 263.314 Q2105.48 263.314 2108.02 263.823 Q2108.95 264.008 2109.85 264.286 L2109.85 268.059 Z" fill="#000000" fill-rule="evenodd" fill-opacity="1" /><path clip-path="url(#clip370)" d="M2121.26 268.337 L2150.94 268.337 L2150.94 272.226 L2121.26 272.226 L2121.26 268.337 M2121.26 277.781 L2150.94 277.781 L2150.94 281.717 L2121.26 281.717 L2121.26 277.781 Z" fill="#000000" fill-rule="evenodd" fill-opacity="1" /><path clip-path="url(#clip370)" d="M2161.84 285.929 L2169.48 285.929 L2169.48 259.564 L2161.17 261.231 L2161.17 256.971 L2169.43 255.305 L2174.11 255.305 L2174.11 285.929 L2181.75 285.929 L2181.75 289.865 L2161.84 289.865 L2161.84 285.929 Z" fill="#000000" fill-rule="evenodd" fill-opacity="1" /><path clip-path="url(#clip370)" d="M2191.19 283.985 L2196.08 283.985 L2196.08 289.865 L2191.19 289.865 L2191.19 283.985 Z" fill="#000000" fill-rule="evenodd" fill-opacity="1" /><path clip-path="url(#clip370)" d="M2216.26 258.383 Q2212.65 258.383 2210.82 261.948 Q2209.02 265.49 2209.02 272.619 Q2209.02 279.726 2210.82 283.291 Q2212.65 286.832 2216.26 286.832 Q2219.9 286.832 2221.7 283.291 Q2223.53 279.726 2223.53 272.619 Q2223.53 265.49 2221.7 261.948 Q2219.9 258.383 2216.26 258.383 M2216.26 254.68 Q2222.07 254.68 2225.13 259.286 Q2228.21 263.869 2228.21 272.619 Q2228.21 281.346 2225.13 285.953 Q2222.07 290.536 2216.26 290.536 Q2210.45 290.536 2207.37 285.953 Q2204.32 281.346 2204.32 272.619 Q2204.32 263.869 2207.37 259.286 Q2210.45 254.68 2216.26 254.68 Z" fill="#000000" fill-rule="evenodd" fill-opacity="1" /><polyline clip-path="url(#clip370)" style="stroke:#3da44d; stroke-linecap:butt; stroke-linejoin:round; stroke-width:4; stroke-opacity:1; fill:none" points="
  1915.32,324.425 2064.78,324.425 
  "/>
<path clip-path="url(#clip370)" d="M2109.85 319.899 Q2108.99 319.598 2108.14 319.367 Q2105.85 318.765 2103.39 318.765 Q2099.16 318.765 2096.8 321.057 Q2094.6 323.186 2094.18 327.098 L2109.85 327.098 L2109.85 330.432 L2094.18 330.432 Q2094.6 334.344 2096.8 336.473 Q2099.16 338.765 2103.39 338.765 Q2106.36 338.765 2108.14 338.163 L2109.85 337.584 L2109.85 341.45 L2108.02 341.867 Q2105.62 342.376 2103.14 342.376 Q2096.93 342.376 2093.32 338.765 Q2089.69 335.154 2089.69 328.765 Q2089.69 322.376 2093.32 318.765 Q2096.93 315.154 2103.14 315.154 Q2105.48 315.154 2108.02 315.663 Q2108.95 315.848 2109.85 316.126 L2109.85 319.899 Z" fill="#000000" fill-rule="evenodd" fill-opacity="1" /><path clip-path="url(#clip370)" d="M2121.26 320.177 L2150.94 320.177 L2150.94 324.066 L2121.26 324.066 L2121.26 320.177 M2121.26 329.621 L2150.94 329.621 L2150.94 333.557 L2121.26 333.557 L2121.26 329.621 Z" fill="#000000" fill-rule="evenodd" fill-opacity="1" /><path clip-path="url(#clip370)" d="M2165.06 337.769 L2181.38 337.769 L2181.38 341.705 L2159.43 341.705 L2159.43 337.769 Q2162.1 335.015 2166.68 330.385 Q2171.29 325.733 2172.47 324.39 Q2174.71 321.867 2175.59 320.131 Q2176.49 318.371 2176.49 316.682 Q2176.49 313.927 2174.55 312.191 Q2172.63 310.455 2169.53 310.455 Q2167.33 310.455 2164.87 311.219 Q2162.44 311.983 2159.67 313.534 L2159.67 308.811 Q2162.49 307.677 2164.94 307.098 Q2167.4 306.52 2169.43 306.52 Q2174.8 306.52 2178 309.205 Q2181.19 311.89 2181.19 316.381 Q2181.19 318.51 2180.38 320.432 Q2179.6 322.33 2177.49 324.922 Q2176.91 325.594 2173.81 328.811 Q2170.71 332.006 2165.06 337.769 Z" fill="#000000" fill-rule="evenodd" fill-opacity="1" /><path clip-path="url(#clip370)" d="M2191.19 335.825 L2196.08 335.825 L2196.08 341.705 L2191.19 341.705 L2191.19 335.825 Z" fill="#000000" fill-rule="evenodd" fill-opacity="1" /><path clip-path="url(#clip370)" d="M2216.26 310.223 Q2212.65 310.223 2210.82 313.788 Q2209.02 317.33 2209.02 324.459 Q2209.02 331.566 2210.82 335.131 Q2212.65 338.672 2216.26 338.672 Q2219.9 338.672 2221.7 335.131 Q2223.53 331.566 2223.53 324.459 Q2223.53 317.33 2221.7 313.788 Q2219.9 310.223 2216.26 310.223 M2216.26 306.52 Q2222.07 306.52 2225.13 311.126 Q2228.21 315.709 2228.21 324.459 Q2228.21 333.186 2225.13 337.793 Q2222.07 342.376 2216.26 342.376 Q2210.45 342.376 2207.37 337.793 Q2204.32 333.186 2204.32 324.459 Q2204.32 315.709 2207.37 311.126 Q2210.45 306.52 2216.26 306.52 Z" fill="#000000" fill-rule="evenodd" fill-opacity="1" /></svg>
