<?xml version="1.0" encoding="utf-8"?>
<svg xmlns="http://www.w3.org/2000/svg" xmlns:xlink="http://www.w3.org/1999/xlink" width="600" height="400" viewBox="0 0 2400 1600">
<defs>
  <clipPath id="clip410">
    <rect x="0" y="0" width="2400" height="1600"/>
  </clipPath>
</defs>
<path clip-path="url(#clip410)" d="
M0 1600 L2400 1600 L2400 0 L0 0  Z
  " fill="#ffffff" fill-rule="evenodd" fill-opacity="1"/>
<defs>
  <clipPath id="clip411">
    <rect x="156" y="123" width="2197" height="1364"/>
  </clipPath>
</defs>
<path clip-path="url(#clip410)" d="
M186.274 1486.45 L2352.76 1486.45 L2352.76 123.472 L186.274 123.472  Z
  " fill="#ffffff" fill-rule="evenodd" fill-opacity="1"/>
<defs>
  <clipPath id="clip412">
    <rect x="186" y="123" width="2167" height="1364"/>
  </clipPath>
</defs>
<polyline clip-path="url(#clip412)" style="stroke:#000000; stroke-linecap:butt; stroke-linejoin:round; stroke-width:2; stroke-opacity:0.1; fill:none" points="
  588.231,1486.45 588.231,123.472 
  "/>
<polyline clip-path="url(#clip412)" style="stroke:#000000; stroke-linecap:butt; stroke-linejoin:round; stroke-width:2; stroke-opacity:0.1; fill:none" points="
  1014.03,1486.45 1014.03,123.472 
  "/>
<polyline clip-path="url(#clip412)" style="stroke:#000000; stroke-linecap:butt; stroke-linejoin:round; stroke-width:2; stroke-opacity:0.1; fill:none" points="
  1439.84,1486.45 1439.84,123.472 
  "/>
<polyline clip-path="url(#clip412)" style="stroke:#000000; stroke-linecap:butt; stroke-linejoin:round; stroke-width:2; stroke-opacity:0.1; fill:none" points="
  1865.64,1486.45 1865.64,123.472 
  "/>
<polyline clip-path="url(#clip412)" style="stroke:#000000; stroke-linecap:butt; stroke-linejoin:round; stroke-width:2; stroke-opacity:0.1; fill:none" points="
  2291.44,1486.45 2291.44,123.472 
  "/>
<polyline clip-path="url(#clip410)" style="stroke:#000000; stroke-linecap:butt; stroke-linejoin:round; stroke-width:4; stroke-opacity:1; fill:none" points="
  186.274,1486.45 2352.76,1486.45 
  "/>
<polyline clip-path="url(#clip410)" style="stroke:#000000; stroke-linecap:butt; stroke-linejoin:round; stroke-width:4; stroke-opacity:1; fill:none" points="
  588.231,1486.45 588.231,1467.55 
  "/>
<polyline clip-path="url(#clip410)" style="stroke:#000000; stroke-linecap:butt; stroke-linejoin:round; stroke-width:4; stroke-opacity:1; fill:none" points="
  1014.03,1486.45 1014.03,1467.55 
  "/>
<polyline clip-path="url(#clip410)" style="stroke:#000000; stroke-linecap:butt; stroke-linejoin:round; stroke-width:4; stroke-opacity:1; fill:none" points="
  1439.84,1486.45 1439.84,1467.55 
  "/>
<polyline clip-path="url(#clip410)" style="stroke:#000000; stroke-linecap:butt; stroke-linejoin:round; stroke-width:4; stroke-opacity:1; fill:none" points="
  1865.64,1486.45 1865.64,1467.55 
  "/>
<polyline clip-path="url(#clip410)" style="stroke:#000000; stroke-linecap:butt; stroke-linejoin:round; stroke-width:4; stroke-opacity:1; fill:none" points="
  2291.44,1486.45 2291.44,1467.55 
  "/>
<path clip-path="url(#clip410)" d="M547.85 1514.29 L566.206 1514.29 L566.206 1518.22 L552.132 1518.22 L552.132 1526.7 Q553.151 1526.35 554.169 1526.19 Q555.188 1526 556.206 1526 Q561.993 1526 565.373 1529.17 Q568.752 1532.34 568.752 1537.76 Q568.752 1543.34 565.28 1546.44 Q561.808 1549.52 555.488 1549.52 Q553.313 1549.52 551.044 1549.15 Q548.799 1548.78 546.391 1548.04 L546.391 1543.34 Q548.475 1544.47 550.697 1545.03 Q552.919 1545.58 555.396 1545.58 Q559.4 1545.58 561.738 1543.48 Q564.076 1541.37 564.076 1537.76 Q564.076 1534.15 561.738 1532.04 Q559.4 1529.94 555.396 1529.94 Q553.521 1529.94 551.646 1530.35 Q549.794 1530.77 547.85 1531.65 L547.85 1514.29 Z" fill="#000000" fill-rule="evenodd" fill-opacity="1" /><path clip-path="url(#clip410)" d="M587.965 1517.37 Q584.354 1517.37 582.525 1520.93 Q580.72 1524.47 580.72 1531.6 Q580.72 1538.71 582.525 1542.27 Q584.354 1545.82 587.965 1545.82 Q591.599 1545.82 593.405 1542.27 Q595.234 1538.71 595.234 1531.6 Q595.234 1524.47 593.405 1520.93 Q591.599 1517.37 587.965 1517.37 M587.965 1513.66 Q593.775 1513.66 596.831 1518.27 Q599.91 1522.85 599.91 1531.6 Q599.91 1540.33 596.831 1544.94 Q593.775 1549.52 587.965 1549.52 Q582.155 1549.52 579.076 1544.94 Q576.021 1540.33 576.021 1531.6 Q576.021 1522.85 579.076 1518.27 Q582.155 1513.66 587.965 1513.66 Z" fill="#000000" fill-rule="evenodd" fill-opacity="1" /><path clip-path="url(#clip410)" d="M618.127 1517.37 Q614.516 1517.37 612.687 1520.93 Q610.882 1524.47 610.882 1531.6 Q610.882 1538.71 612.687 1542.27 Q614.516 1545.82 618.127 1545.82 Q621.761 1545.82 623.567 1542.27 Q625.395 1538.71 625.395 1531.6 Q625.395 1524.47 623.567 1520.93 Q621.761 1517.37 618.127 1517.37 M618.127 1513.66 Q623.937 1513.66 626.993 1518.27 Q630.071 1522.85 630.071 1531.6 Q630.071 1540.33 626.993 1544.94 Q623.937 1549.52 618.127 1549.52 Q612.317 1549.52 609.238 1544.94 Q606.183 1540.33 606.183 1531.6 Q606.183 1522.85 609.238 1518.27 Q612.317 1513.66 618.127 1513.66 Z" fill="#000000" fill-rule="evenodd" fill-opacity="1" /><path clip-path="url(#clip410)" d="M958.559 1544.91 L966.198 1544.91 L966.198 1518.55 L957.888 1520.21 L957.888 1515.95 L966.152 1514.29 L970.828 1514.29 L970.828 1544.91 L978.467 1544.91 L978.467 1548.85 L958.559 1548.85 L958.559 1544.91 Z" fill="#000000" fill-rule="evenodd" fill-opacity="1" /><path clip-path="url(#clip410)" d="M997.911 1517.37 Q994.3 1517.37 992.471 1520.93 Q990.666 1524.47 990.666 1531.6 Q990.666 1538.71 992.471 1542.27 Q994.3 1545.82 997.911 1545.82 Q1001.55 1545.82 1003.35 1542.27 Q1005.18 1538.71 1005.18 1531.6 Q1005.18 1524.47 1003.35 1520.93 Q1001.55 1517.37 997.911 1517.37 M997.911 1513.66 Q1003.72 1513.66 1006.78 1518.27 Q1009.86 1522.85 1009.86 1531.6 Q1009.86 1540.33 1006.78 1544.94 Q1003.72 1549.52 997.911 1549.52 Q992.101 1549.52 989.022 1544.94 Q985.967 1540.33 985.967 1531.6 Q985.967 1522.85 989.022 1518.27 Q992.101 1513.66 997.911 1513.66 Z" fill="#000000" fill-rule="evenodd" fill-opacity="1" /><path clip-path="url(#clip410)" d="M1028.07 1517.37 Q1024.46 1517.37 1022.63 1520.93 Q1020.83 1524.47 1020.83 1531.6 Q1020.83 1538.71 1022.63 1542.27 Q1024.46 1545.82 1028.07 1545.82 Q1031.71 1545.82 1033.51 1542.27 Q1035.34 1538.71 1035.34 1531.6 Q1035.34 1524.47 1033.51 1520.93 Q1031.71 1517.37 1028.07 1517.37 M1028.07 1513.66 Q1033.88 1513.66 1036.94 1518.27 Q1040.02 1522.85 1040.02 1531.6 Q1040.02 1540.33 1036.94 1544.94 Q1033.88 1549.52 1028.07 1549.52 Q1022.26 1549.52 1019.18 1544.94 Q1016.13 1540.33 1016.13 1531.6 Q1016.13 1522.85 1019.18 1518.27 Q1022.26 1513.66 1028.07 1513.66 Z" fill="#000000" fill-rule="evenodd" fill-opacity="1" /><path clip-path="url(#clip410)" d="M1058.23 1517.37 Q1054.62 1517.37 1052.79 1520.93 Q1050.99 1524.47 1050.99 1531.6 Q1050.99 1538.71 1052.79 1542.27 Q1054.62 1545.82 1058.23 1545.82 Q1061.87 1545.82 1063.67 1542.27 Q1065.5 1538.71 1065.5 1531.6 Q1065.5 1524.47 1063.67 1520.93 Q1061.87 1517.37 1058.23 1517.37 M1058.23 1513.66 Q1064.04 1513.66 1067.1 1518.27 Q1070.18 1522.85 1070.18 1531.6 Q1070.18 1540.33 1067.1 1544.94 Q1064.04 1549.52 1058.23 1549.52 Q1052.42 1549.52 1049.35 1544.94 Q1046.29 1540.33 1046.29 1531.6 Q1046.29 1522.85 1049.35 1518.27 Q1052.42 1513.66 1058.23 1513.66 Z" fill="#000000" fill-rule="evenodd" fill-opacity="1" /><path clip-path="url(#clip410)" d="M1384.36 1544.91 L1392 1544.91 L1392 1518.55 L1383.69 1520.21 L1383.69 1515.95 L1391.95 1514.29 L1396.63 1514.29 L1396.63 1544.91 L1404.27 1544.91 L1404.27 1548.85 L1384.36 1548.85 L1384.36 1544.91 Z" fill="#000000" fill-rule="evenodd" fill-opacity="1" /><path clip-path="url(#clip410)" d="M1413.76 1514.29 L1432.12 1514.29 L1432.12 1518.22 L1418.04 1518.22 L1418.04 1526.7 Q1419.06 1526.35 1420.08 1526.19 Q1421.1 1526 1422.12 1526 Q1427.9 1526 1431.28 1529.17 Q1434.66 1532.34 1434.66 1537.76 Q1434.66 1543.34 1431.19 1546.44 Q1427.72 1549.52 1421.4 1549.52 Q1419.22 1549.52 1416.95 1549.15 Q1414.71 1548.78 1412.3 1548.04 L1412.3 1543.34 Q1414.38 1544.47 1416.61 1545.03 Q1418.83 1545.58 1421.31 1545.58 Q1425.31 1545.58 1427.65 1543.48 Q1429.99 1541.37 1429.99 1537.76 Q1429.99 1534.15 1427.65 1532.04 Q1425.31 1529.94 1421.31 1529.94 Q1419.43 1529.94 1417.56 1530.35 Q1415.7 1530.77 1413.76 1531.65 L1413.76 1514.29 Z" fill="#000000" fill-rule="evenodd" fill-opacity="1" /><path clip-path="url(#clip410)" d="M1453.88 1517.37 Q1450.26 1517.37 1448.44 1520.93 Q1446.63 1524.47 1446.63 1531.6 Q1446.63 1538.71 1448.44 1542.27 Q1450.26 1545.82 1453.88 1545.82 Q1457.51 1545.82 1459.31 1542.27 Q1461.14 1538.71 1461.14 1531.6 Q1461.14 1524.47 1459.31 1520.93 Q1457.51 1517.37 1453.88 1517.37 M1453.88 1513.66 Q1459.69 1513.66 1462.74 1518.27 Q1465.82 1522.85 1465.82 1531.6 Q1465.82 1540.33 1462.74 1544.94 Q1459.69 1549.52 1453.88 1549.52 Q1448.06 1549.52 1444.99 1544.94 Q1441.93 1540.33 1441.93 1531.6 Q1441.93 1522.85 1444.99 1518.27 Q1448.06 1513.66 1453.88 1513.66 Z" fill="#000000" fill-rule="evenodd" fill-opacity="1" /><path clip-path="url(#clip410)" d="M1484.04 1517.37 Q1480.43 1517.37 1478.6 1520.93 Q1476.79 1524.47 1476.79 1531.6 Q1476.79 1538.71 1478.6 1542.27 Q1480.43 1545.82 1484.04 1545.82 Q1487.67 1545.82 1489.48 1542.27 Q1491.31 1538.71 1491.31 1531.6 Q1491.31 1524.47 1489.48 1520.93 Q1487.67 1517.37 1484.04 1517.37 M1484.04 1513.66 Q1489.85 1513.66 1492.9 1518.27 Q1495.98 1522.85 1495.98 1531.6 Q1495.98 1540.33 1492.9 1544.94 Q1489.85 1549.52 1484.04 1549.52 Q1478.23 1549.52 1475.15 1544.94 Q1472.09 1540.33 1472.09 1531.6 Q1472.09 1522.85 1475.15 1518.27 Q1478.23 1513.66 1484.04 1513.66 Z" fill="#000000" fill-rule="evenodd" fill-opacity="1" /><path clip-path="url(#clip410)" d="M1814.25 1544.91 L1830.57 1544.91 L1830.57 1548.85 L1808.62 1548.85 L1808.62 1544.91 Q1811.29 1542.16 1815.87 1537.53 Q1820.48 1532.88 1821.66 1531.53 Q1823.9 1529.01 1824.78 1527.27 Q1825.68 1525.51 1825.68 1523.82 Q1825.68 1521.07 1823.74 1519.33 Q1821.82 1517.6 1818.72 1517.6 Q1816.52 1517.6 1814.06 1518.36 Q1811.63 1519.13 1808.86 1520.68 L1808.86 1515.95 Q1811.68 1514.82 1814.13 1514.24 Q1816.59 1513.66 1818.62 1513.66 Q1823.99 1513.66 1827.19 1516.35 Q1830.38 1519.03 1830.38 1523.52 Q1830.38 1525.65 1829.57 1527.57 Q1828.79 1529.47 1826.68 1532.07 Q1826.1 1532.74 1823 1535.95 Q1819.9 1539.15 1814.25 1544.91 Z" fill="#000000" fill-rule="evenodd" fill-opacity="1" /><path clip-path="url(#clip410)" d="M1850.38 1517.37 Q1846.77 1517.37 1844.94 1520.93 Q1843.14 1524.47 1843.14 1531.6 Q1843.14 1538.71 1844.94 1542.27 Q1846.77 1545.82 1850.38 1545.82 Q1854.02 1545.82 1855.82 1542.27 Q1857.65 1538.71 1857.65 1531.6 Q1857.65 1524.47 1855.82 1520.93 Q1854.02 1517.37 1850.38 1517.37 M1850.38 1513.66 Q1856.19 1513.66 1859.25 1518.27 Q1862.33 1522.85 1862.33 1531.6 Q1862.33 1540.33 1859.25 1544.94 Q1856.19 1549.52 1850.38 1549.52 Q1844.57 1549.52 1841.49 1544.94 Q1838.44 1540.33 1838.44 1531.6 Q1838.44 1522.85 1841.49 1518.27 Q1844.57 1513.66 1850.38 1513.66 Z" fill="#000000" fill-rule="evenodd" fill-opacity="1" /><path clip-path="url(#clip410)" d="M1880.55 1517.37 Q1876.93 1517.37 1875.11 1520.93 Q1873.3 1524.47 1873.3 1531.6 Q1873.3 1538.71 1875.11 1542.27 Q1876.93 1545.82 1880.55 1545.82 Q1884.18 1545.82 1885.99 1542.27 Q1887.81 1538.71 1887.81 1531.6 Q1887.81 1524.47 1885.99 1520.93 Q1884.18 1517.37 1880.55 1517.37 M1880.55 1513.66 Q1886.36 1513.66 1889.41 1518.27 Q1892.49 1522.85 1892.49 1531.6 Q1892.49 1540.33 1889.41 1544.94 Q1886.36 1549.52 1880.55 1549.52 Q1874.74 1549.52 1871.66 1544.94 Q1868.6 1540.33 1868.6 1531.6 Q1868.6 1522.85 1871.66 1518.27 Q1874.74 1513.66 1880.55 1513.66 Z" fill="#000000" fill-rule="evenodd" fill-opacity="1" /><path clip-path="url(#clip410)" d="M1910.71 1517.37 Q1907.1 1517.37 1905.27 1520.93 Q1903.46 1524.47 1903.46 1531.6 Q1903.46 1538.71 1905.27 1542.27 Q1907.1 1545.82 1910.71 1545.82 Q1914.34 1545.82 1916.15 1542.27 Q1917.98 1538.71 1917.98 1531.6 Q1917.98 1524.47 1916.15 1520.93 Q1914.34 1517.37 1910.71 1517.37 M1910.71 1513.66 Q1916.52 1513.66 1919.57 1518.27 Q1922.65 1522.85 1922.65 1531.6 Q1922.65 1540.33 1919.57 1544.94 Q1916.52 1549.52 1910.71 1549.52 Q1904.9 1549.52 1901.82 1544.94 Q1898.76 1540.33 1898.76 1531.6 Q1898.76 1522.85 1901.82 1518.27 Q1904.9 1513.66 1910.71 1513.66 Z" fill="#000000" fill-rule="evenodd" fill-opacity="1" /><path clip-path="url(#clip410)" d="M2240.05 1544.91 L2256.37 1544.91 L2256.37 1548.85 L2234.43 1548.85 L2234.43 1544.91 Q2237.09 1542.16 2241.67 1537.53 Q2246.28 1532.88 2247.46 1531.53 Q2249.7 1529.01 2250.58 1527.27 Q2251.49 1525.51 2251.49 1523.82 Q2251.49 1521.07 2249.54 1519.33 Q2247.62 1517.6 2244.52 1517.6 Q2242.32 1517.6 2239.87 1518.36 Q2237.44 1519.13 2234.66 1520.68 L2234.66 1515.95 Q2237.48 1514.82 2239.94 1514.24 Q2242.39 1513.66 2244.43 1513.66 Q2249.8 1513.66 2252.99 1516.35 Q2256.19 1519.03 2256.19 1523.52 Q2256.19 1525.65 2255.38 1527.57 Q2254.59 1529.47 2252.48 1532.07 Q2251.9 1532.74 2248.8 1535.95 Q2245.7 1539.15 2240.05 1544.91 Z" fill="#000000" fill-rule="evenodd" fill-opacity="1" /><path clip-path="url(#clip410)" d="M2266.23 1514.29 L2284.59 1514.29 L2284.59 1518.22 L2270.51 1518.22 L2270.51 1526.7 Q2271.53 1526.35 2272.55 1526.19 Q2273.57 1526 2274.59 1526 Q2280.38 1526 2283.76 1529.17 Q2287.13 1532.34 2287.13 1537.76 Q2287.13 1543.34 2283.66 1546.44 Q2280.19 1549.52 2273.87 1549.52 Q2271.7 1549.52 2269.43 1549.15 Q2267.18 1548.78 2264.77 1548.04 L2264.77 1543.34 Q2266.86 1544.47 2269.08 1545.03 Q2271.3 1545.58 2273.78 1545.58 Q2277.78 1545.58 2280.12 1543.48 Q2282.46 1541.37 2282.46 1537.76 Q2282.46 1534.15 2280.12 1532.04 Q2277.78 1529.94 2273.78 1529.94 Q2271.9 1529.94 2270.03 1530.35 Q2268.18 1530.77 2266.23 1531.65 L2266.23 1514.29 Z" fill="#000000" fill-rule="evenodd" fill-opacity="1" /><path clip-path="url(#clip410)" d="M2306.35 1517.37 Q2302.74 1517.37 2300.91 1520.93 Q2299.1 1524.47 2299.1 1531.6 Q2299.1 1538.71 2300.91 1542.27 Q2302.74 1545.82 2306.35 1545.82 Q2309.98 1545.82 2311.79 1542.27 Q2313.62 1538.71 2313.62 1531.6 Q2313.62 1524.47 2311.79 1520.93 Q2309.98 1517.37 2306.35 1517.37 M2306.35 1513.66 Q2312.16 1513.66 2315.21 1518.27 Q2318.29 1522.85 2318.29 1531.6 Q2318.29 1540.33 2315.21 1544.94 Q2312.16 1549.52 2306.35 1549.52 Q2300.54 1549.52 2297.46 1544.94 Q2294.4 1540.33 2294.4 1531.6 Q2294.4 1522.85 2297.46 1518.27 Q2300.54 1513.66 2306.35 1513.66 Z" fill="#000000" fill-rule="evenodd" fill-opacity="1" /><path clip-path="url(#clip410)" d="M2336.51 1517.37 Q2332.9 1517.37 2331.07 1520.93 Q2329.26 1524.47 2329.26 1531.6 Q2329.26 1538.71 2331.07 1542.27 Q2332.9 1545.82 2336.51 1545.82 Q2340.14 1545.82 2341.95 1542.27 Q2343.78 1538.71 2343.78 1531.6 Q2343.78 1524.47 2341.95 1520.93 Q2340.14 1517.37 2336.51 1517.37 M2336.51 1513.66 Q2342.32 1513.66 2345.38 1518.27 Q2348.45 1522.85 2348.45 1531.6 Q2348.45 1540.33 2345.38 1544.94 Q2342.32 1549.52 2336.51 1549.52 Q2330.7 1549.52 2327.62 1544.94 Q2324.57 1540.33 2324.57 1531.6 Q2324.57 1522.85 2327.62 1518.27 Q2330.7 1513.66 2336.51 1513.66 Z" fill="#000000" fill-rule="evenodd" fill-opacity="1" /><polyline clip-path="url(#clip412)" style="stroke:#000000; stroke-linecap:butt; stroke-linejoin:round; stroke-width:2; stroke-opacity:0.1; fill:none" points="
  186.274,1312.78 2352.76,1312.78 
  "/>
<polyline clip-path="url(#clip412)" style="stroke:#000000; stroke-linecap:butt; stroke-linejoin:round; stroke-width:2; stroke-opacity:0.1; fill:none" points="
  186.274,1043.23 2352.76,1043.23 
  "/>
<polyline clip-path="url(#clip412)" style="stroke:#000000; stroke-linecap:butt; stroke-linejoin:round; stroke-width:2; stroke-opacity:0.1; fill:none" points="
  186.274,773.684 2352.76,773.684 
  "/>
<polyline clip-path="url(#clip412)" style="stroke:#000000; stroke-linecap:butt; stroke-linejoin:round; stroke-width:2; stroke-opacity:0.1; fill:none" points="
  186.274,504.135 2352.76,504.135 
  "/>
<polyline clip-path="url(#clip412)" style="stroke:#000000; stroke-linecap:butt; stroke-linejoin:round; stroke-width:2; stroke-opacity:0.1; fill:none" points="
  186.274,234.586 2352.76,234.586 
  "/>
<polyline clip-path="url(#clip410)" style="stroke:#000000; stroke-linecap:butt; stroke-linejoin:round; stroke-width:4; stroke-opacity:1; fill:none" points="
  186.274,1486.45 186.274,123.472 
  "/>
<polyline clip-path="url(#clip410)" style="stroke:#000000; stroke-linecap:butt; stroke-linejoin:round; stroke-width:4; stroke-opacity:1; fill:none" points="
  186.274,1312.78 205.172,1312.78 
  "/>
<polyline clip-path="url(#clip410)" style="stroke:#000000; stroke-linecap:butt; stroke-linejoin:round; stroke-width:4; stroke-opacity:1; fill:none" points="
  186.274,1043.23 205.172,1043.23 
  "/>
<polyline clip-path="url(#clip410)" style="stroke:#000000; stroke-linecap:butt; stroke-linejoin:round; stroke-width:4; stroke-opacity:1; fill:none" points="
  186.274,773.684 205.172,773.684 
  "/>
<polyline clip-path="url(#clip410)" style="stroke:#000000; stroke-linecap:butt; stroke-linejoin:round; stroke-width:4; stroke-opacity:1; fill:none" points="
  186.274,504.135 205.172,504.135 
  "/>
<polyline clip-path="url(#clip410)" style="stroke:#000000; stroke-linecap:butt; stroke-linejoin:round; stroke-width:4; stroke-opacity:1; fill:none" points="
  186.274,234.586 205.172,234.586 
  "/>
<path clip-path="url(#clip410)" d="M63.9319 1298.58 Q60.3208 1298.58 58.4921 1302.14 Q56.6865 1305.69 56.6865 1312.82 Q56.6865 1319.92 58.4921 1323.49 Q60.3208 1327.03 63.9319 1327.03 Q67.5661 1327.03 69.3717 1323.49 Q71.2004 1319.92 71.2004 1312.82 Q71.2004 1305.69 69.3717 1302.14 Q67.5661 1298.58 63.9319 1298.58 M63.9319 1294.88 Q69.742 1294.88 72.7976 1299.48 Q75.8763 1304.07 75.8763 1312.82 Q75.8763 1321.54 72.7976 1326.15 Q69.742 1330.73 63.9319 1330.73 Q58.1217 1330.73 55.043 1326.15 Q51.9875 1321.54 51.9875 1312.82 Q51.9875 1304.07 55.043 1299.48 Q58.1217 1294.88 63.9319 1294.88 Z" fill="#000000" fill-rule="evenodd" fill-opacity="1" /><path clip-path="url(#clip410)" d="M84.0938 1324.18 L88.978 1324.18 L88.978 1330.06 L84.0938 1330.06 L84.0938 1324.18 Z" fill="#000000" fill-rule="evenodd" fill-opacity="1" /><path clip-path="url(#clip410)" d="M109.163 1298.58 Q105.552 1298.58 103.723 1302.14 Q101.918 1305.69 101.918 1312.82 Q101.918 1319.92 103.723 1323.49 Q105.552 1327.03 109.163 1327.03 Q112.797 1327.03 114.603 1323.49 Q116.432 1319.92 116.432 1312.82 Q116.432 1305.69 114.603 1302.14 Q112.797 1298.58 109.163 1298.58 M109.163 1294.88 Q114.973 1294.88 118.029 1299.48 Q121.107 1304.07 121.107 1312.82 Q121.107 1321.54 118.029 1326.15 Q114.973 1330.73 109.163 1330.73 Q103.353 1330.73 100.274 1326.15 Q97.2187 1321.54 97.2187 1312.82 Q97.2187 1304.07 100.274 1299.48 Q103.353 1294.88 109.163 1294.88 Z" fill="#000000" fill-rule="evenodd" fill-opacity="1" /><path clip-path="url(#clip410)" d="M129.371 1295.5 L147.728 1295.5 L147.728 1299.44 L133.654 1299.44 L133.654 1307.91 Q134.672 1307.56 135.691 1307.4 Q136.709 1307.21 137.728 1307.21 Q143.515 1307.21 146.894 1310.39 Q150.274 1313.56 150.274 1318.97 Q150.274 1324.55 146.802 1327.65 Q143.33 1330.73 137.01 1330.73 Q134.834 1330.73 132.566 1330.36 Q130.32 1329.99 127.913 1329.25 L127.913 1324.55 Q129.996 1325.69 132.219 1326.24 Q134.441 1326.8 136.918 1326.8 Q140.922 1326.8 143.26 1324.69 Q145.598 1322.58 145.598 1318.97 Q145.598 1315.36 143.26 1313.26 Q140.922 1311.15 136.918 1311.15 Q135.043 1311.15 133.168 1311.57 Q131.316 1311.98 129.371 1312.86 L129.371 1295.5 Z" fill="#000000" fill-rule="evenodd" fill-opacity="1" /><path clip-path="url(#clip410)" d="M62.9365 1029.03 Q59.3254 1029.03 57.4967 1032.6 Q55.6912 1036.14 55.6912 1043.27 Q55.6912 1050.37 57.4967 1053.94 Q59.3254 1057.48 62.9365 1057.48 Q66.5707 1057.48 68.3763 1053.94 Q70.205 1050.37 70.205 1043.27 Q70.205 1036.14 68.3763 1032.6 Q66.5707 1029.03 62.9365 1029.03 M62.9365 1025.33 Q68.7467 1025.33 71.8022 1029.93 Q74.8809 1034.52 74.8809 1043.27 Q74.8809 1051.99 71.8022 1056.6 Q68.7467 1061.18 62.9365 1061.18 Q57.1264 1061.18 54.0477 1056.6 Q50.9921 1051.99 50.9921 1043.27 Q50.9921 1034.52 54.0477 1029.93 Q57.1264 1025.33 62.9365 1025.33 Z" fill="#000000" fill-rule="evenodd" fill-opacity="1" /><path clip-path="url(#clip410)" d="M83.0984 1054.63 L87.9827 1054.63 L87.9827 1060.51 L83.0984 1060.51 L83.0984 1054.63 Z" fill="#000000" fill-rule="evenodd" fill-opacity="1" /><path clip-path="url(#clip410)" d="M98.978 1056.58 L106.617 1056.58 L106.617 1030.21 L98.3067 1031.88 L98.3067 1027.62 L106.571 1025.95 L111.246 1025.95 L111.246 1056.58 L118.885 1056.58 L118.885 1060.51 L98.978 1060.51 L98.978 1056.58 Z" fill="#000000" fill-rule="evenodd" fill-opacity="1" /><path clip-path="url(#clip410)" d="M138.33 1029.03 Q134.719 1029.03 132.89 1032.6 Q131.084 1036.14 131.084 1043.27 Q131.084 1050.37 132.89 1053.94 Q134.719 1057.48 138.33 1057.48 Q141.964 1057.48 143.769 1053.94 Q145.598 1050.37 145.598 1043.27 Q145.598 1036.14 143.769 1032.6 Q141.964 1029.03 138.33 1029.03 M138.33 1025.33 Q144.14 1025.33 147.195 1029.93 Q150.274 1034.52 150.274 1043.27 Q150.274 1051.99 147.195 1056.6 Q144.14 1061.18 138.33 1061.18 Q132.519 1061.18 129.441 1056.6 Q126.385 1051.99 126.385 1043.27 Q126.385 1034.52 129.441 1029.93 Q132.519 1025.33 138.33 1025.33 Z" fill="#000000" fill-rule="evenodd" fill-opacity="1" /><path clip-path="url(#clip410)" d="M63.9319 759.482 Q60.3208 759.482 58.4921 763.047 Q56.6865 766.589 56.6865 773.718 Q56.6865 780.825 58.4921 784.39 Q60.3208 787.931 63.9319 787.931 Q67.5661 787.931 69.3717 784.39 Q71.2004 780.825 71.2004 773.718 Q71.2004 766.589 69.3717 763.047 Q67.5661 759.482 63.9319 759.482 M63.9319 755.779 Q69.742 755.779 72.7976 760.385 Q75.8763 764.968 75.8763 773.718 Q75.8763 782.445 72.7976 787.052 Q69.742 791.635 63.9319 791.635 Q58.1217 791.635 55.043 787.052 Q51.9875 782.445 51.9875 773.718 Q51.9875 764.968 55.043 760.385 Q58.1217 755.779 63.9319 755.779 Z" fill="#000000" fill-rule="evenodd" fill-opacity="1" /><path clip-path="url(#clip410)" d="M84.0938 785.084 L88.978 785.084 L88.978 790.964 L84.0938 790.964 L84.0938 785.084 Z" fill="#000000" fill-rule="evenodd" fill-opacity="1" /><path clip-path="url(#clip410)" d="M99.9733 787.028 L107.612 787.028 L107.612 760.663 L99.3021 762.329 L99.3021 758.07 L107.566 756.404 L112.242 756.404 L112.242 787.028 L119.881 787.028 L119.881 790.964 L99.9733 790.964 L99.9733 787.028 Z" fill="#000000" fill-rule="evenodd" fill-opacity="1" /><path clip-path="url(#clip410)" d="M129.371 756.404 L147.728 756.404 L147.728 760.339 L133.654 760.339 L133.654 768.811 Q134.672 768.464 135.691 768.302 Q136.709 768.116 137.728 768.116 Q143.515 768.116 146.894 771.288 Q150.274 774.459 150.274 779.876 Q150.274 785.454 146.802 788.556 Q143.33 791.635 137.01 791.635 Q134.834 791.635 132.566 791.264 Q130.32 790.894 127.913 790.153 L127.913 785.454 Q129.996 786.589 132.219 787.144 Q134.441 787.7 136.918 787.7 Q140.922 787.7 143.26 785.593 Q145.598 783.487 145.598 779.876 Q145.598 776.265 143.26 774.158 Q140.922 772.052 136.918 772.052 Q135.043 772.052 133.168 772.468 Q131.316 772.885 129.371 773.765 L129.371 756.404 Z" fill="#000000" fill-rule="evenodd" fill-opacity="1" /><path clip-path="url(#clip410)" d="M62.9365 489.933 Q59.3254 489.933 57.4967 493.498 Q55.6912 497.04 55.6912 504.169 Q55.6912 511.276 57.4967 514.841 Q59.3254 518.382 62.9365 518.382 Q66.5707 518.382 68.3763 514.841 Q70.205 511.276 70.205 504.169 Q70.205 497.04 68.3763 493.498 Q66.5707 489.933 62.9365 489.933 M62.9365 486.23 Q68.7467 486.23 71.8022 490.836 Q74.8809 495.419 74.8809 504.169 Q74.8809 512.896 71.8022 517.503 Q68.7467 522.086 62.9365 522.086 Q57.1264 522.086 54.0477 517.503 Q50.9921 512.896 50.9921 504.169 Q50.9921 495.419 54.0477 490.836 Q57.1264 486.23 62.9365 486.23 Z" fill="#000000" fill-rule="evenodd" fill-opacity="1" /><path clip-path="url(#clip410)" d="M83.0984 515.535 L87.9827 515.535 L87.9827 521.415 L83.0984 521.415 L83.0984 515.535 Z" fill="#000000" fill-rule="evenodd" fill-opacity="1" /><path clip-path="url(#clip410)" d="M102.196 517.479 L118.515 517.479 L118.515 521.415 L96.5706 521.415 L96.5706 517.479 Q99.2326 514.725 103.816 510.095 Q108.422 505.442 109.603 504.1 Q111.848 501.577 112.728 499.841 Q113.631 498.081 113.631 496.392 Q113.631 493.637 111.686 491.901 Q109.765 490.165 106.663 490.165 Q104.464 490.165 102.01 490.929 Q99.5798 491.693 96.8021 493.243 L96.8021 488.521 Q99.6261 487.387 102.08 486.808 Q104.534 486.23 106.571 486.23 Q111.941 486.23 115.135 488.915 Q118.33 491.6 118.33 496.091 Q118.33 498.22 117.52 500.142 Q116.733 502.04 114.626 504.632 Q114.047 505.304 110.946 508.521 Q107.844 511.716 102.196 517.479 Z" fill="#000000" fill-rule="evenodd" fill-opacity="1" /><path clip-path="url(#clip410)" d="M138.33 489.933 Q134.719 489.933 132.89 493.498 Q131.084 497.04 131.084 504.169 Q131.084 511.276 132.89 514.841 Q134.719 518.382 138.33 518.382 Q141.964 518.382 143.769 514.841 Q145.598 511.276 145.598 504.169 Q145.598 497.04 143.769 493.498 Q141.964 489.933 138.33 489.933 M138.33 486.23 Q144.14 486.23 147.195 490.836 Q150.274 495.419 150.274 504.169 Q150.274 512.896 147.195 517.503 Q144.14 522.086 138.33 522.086 Q132.519 522.086 129.441 517.503 Q126.385 512.896 126.385 504.169 Q126.385 495.419 129.441 490.836 Q132.519 486.23 138.33 486.23 Z" fill="#000000" fill-rule="evenodd" fill-opacity="1" /><path clip-path="url(#clip410)" d="M63.9319 220.384 Q60.3208 220.384 58.4921 223.949 Q56.6865 227.491 56.6865 234.62 Q56.6865 241.727 58.4921 245.292 Q60.3208 248.833 63.9319 248.833 Q67.5661 248.833 69.3717 245.292 Q71.2004 241.727 71.2004 234.62 Q71.2004 227.491 69.3717 223.949 Q67.5661 220.384 63.9319 220.384 M63.9319 216.681 Q69.742 216.681 72.7976 221.287 Q75.8763 225.87 75.8763 234.62 Q75.8763 243.347 72.7976 247.954 Q69.742 252.537 63.9319 252.537 Q58.1217 252.537 55.043 247.954 Q51.9875 243.347 51.9875 234.62 Q51.9875 225.87 55.043 221.287 Q58.1217 216.681 63.9319 216.681 Z" fill="#000000" fill-rule="evenodd" fill-opacity="1" /><path clip-path="url(#clip410)" d="M84.0938 245.986 L88.978 245.986 L88.978 251.866 L84.0938 251.866 L84.0938 245.986 Z" fill="#000000" fill-rule="evenodd" fill-opacity="1" /><path clip-path="url(#clip410)" d="M103.191 247.931 L119.51 247.931 L119.51 251.866 L97.566 251.866 L97.566 247.931 Q100.228 245.176 104.811 240.546 Q109.418 235.894 110.598 234.551 Q112.844 232.028 113.723 230.292 Q114.626 228.532 114.626 226.843 Q114.626 224.088 112.682 222.352 Q110.76 220.616 107.658 220.616 Q105.459 220.616 103.006 221.38 Q100.575 222.144 97.7974 223.695 L97.7974 218.972 Q100.621 217.838 103.075 217.259 Q105.529 216.681 107.566 216.681 Q112.936 216.681 116.131 219.366 Q119.325 222.051 119.325 226.542 Q119.325 228.671 118.515 230.593 Q117.728 232.491 115.621 235.083 Q115.043 235.755 111.941 238.972 Q108.839 242.167 103.191 247.931 Z" fill="#000000" fill-rule="evenodd" fill-opacity="1" /><path clip-path="url(#clip410)" d="M129.371 217.306 L147.728 217.306 L147.728 221.241 L133.654 221.241 L133.654 229.713 Q134.672 229.366 135.691 229.204 Q136.709 229.019 137.728 229.019 Q143.515 229.019 146.894 232.19 Q150.274 235.361 150.274 240.778 Q150.274 246.356 146.802 249.458 Q143.33 252.537 137.01 252.537 Q134.834 252.537 132.566 252.167 Q130.32 251.796 127.913 251.056 L127.913 246.356 Q129.996 247.491 132.219 248.046 Q134.441 248.602 136.918 248.602 Q140.922 248.602 143.26 246.495 Q145.598 244.389 145.598 240.778 Q145.598 237.167 143.26 235.06 Q140.922 232.954 136.918 232.954 Q135.043 232.954 133.168 233.37 Q131.316 233.787 129.371 234.667 L129.371 217.306 Z" fill="#000000" fill-rule="evenodd" fill-opacity="1" /><path clip-path="url(#clip410)" d="M909.288 34.4165 Q907.789 33.8899 906.291 33.4848 Q902.28 32.4315 897.986 32.4315 Q890.573 32.4315 886.441 36.4419 Q882.593 40.1688 881.864 47.0148 L909.288 47.0148 L909.288 52.8481 L881.864 52.8481 Q882.593 59.6941 886.441 63.421 Q890.573 67.4314 897.986 67.4314 Q903.171 67.4314 906.291 66.3781 L909.288 65.3654 L909.288 72.1304 L906.088 72.8596 Q901.875 73.7508 897.541 73.7508 Q886.684 73.7508 880.365 67.4314 Q874.005 61.1119 874.005 49.9314 Q874.005 38.7509 880.365 32.4315 Q886.684 26.1121 897.541 26.1121 Q901.632 26.1121 906.088 27.0033 Q907.708 27.3274 909.288 27.8135 L909.288 34.4165 Z" fill="#000000" fill-rule="evenodd" fill-opacity="1" /><path clip-path="url(#clip410)" d="M961.869 65.7705 L961.869 89.8329 L954.375 89.8329 L954.375 27.2059 L961.869 27.2059 L961.869 34.0924 Q964.219 30.0415 967.783 28.0971 Q971.389 26.1121 976.371 26.1121 Q984.635 26.1121 989.78 32.6746 Q994.965 39.2371 994.965 49.9314 Q994.965 60.6258 989.78 67.1883 Q984.635 73.7508 976.371 73.7508 Q971.389 73.7508 967.783 71.8063 Q964.219 69.8214 961.869 65.7705 M987.228 49.9314 Q987.228 41.7081 983.825 37.0496 Q980.463 32.3505 974.548 32.3505 Q968.634 32.3505 965.231 37.0496 Q961.869 41.7081 961.869 49.9314 Q961.869 58.1548 965.231 62.8538 Q968.634 67.5124 974.548 67.5124 Q980.463 67.5124 983.825 62.8538 Q987.228 58.1548 987.228 49.9314 Z" fill="#000000" fill-rule="evenodd" fill-opacity="1" /><path clip-path="url(#clip410)" d="M1006.55 54.671 L1006.55 27.2059 L1014 27.2059 L1014 54.3874 Q1014 60.8284 1016.52 64.0691 Q1019.03 67.2693 1024.05 67.2693 Q1030.09 67.2693 1033.57 63.421 Q1037.09 59.5726 1037.09 52.9291 L1037.09 27.2059 L1044.55 27.2059 L1044.55 72.576 L1037.09 72.576 L1037.09 65.6084 Q1034.38 69.7404 1030.77 71.7658 Q1027.21 73.7508 1022.47 73.7508 Q1014.65 73.7508 1010.6 68.8897 Q1006.55 64.0286 1006.55 54.671 M1025.31 26.1121 L1025.31 26.1121 Z" fill="#000000" fill-rule="evenodd" fill-opacity="1" /><path clip-path="url(#clip410)" d="M1092.47 49.9314 Q1092.47 41.7081 1089.07 37.0496 Q1085.71 32.3505 1079.79 32.3505 Q1073.88 32.3505 1070.47 37.0496 Q1067.11 41.7081 1067.11 49.9314 Q1067.11 58.1548 1070.47 62.8538 Q1073.88 67.5124 1079.79 67.5124 Q1085.71 67.5124 1089.07 62.8538 Q1092.47 58.1548 1092.47 49.9314 M1067.11 34.0924 Q1069.46 30.0415 1073.03 28.0971 Q1076.63 26.1121 1081.61 26.1121 Q1089.88 26.1121 1095.02 32.6746 Q1100.21 39.2371 1100.21 49.9314 Q1100.21 60.6258 1095.02 67.1883 Q1089.88 73.7508 1081.61 73.7508 Q1076.63 73.7508 1073.03 71.8063 Q1069.46 69.8214 1067.11 65.7705 L1067.11 72.576 L1059.62 72.576 L1059.62 9.54393 L1067.11 9.54393 L1067.11 34.0924 Z" fill="#000000" fill-rule="evenodd" fill-opacity="1" /><path clip-path="url(#clip410)" d="M1112.56 9.54393 L1120.02 9.54393 L1120.02 72.576 L1112.56 72.576 L1112.56 9.54393 Z" fill="#000000" fill-rule="evenodd" fill-opacity="1" /><path clip-path="url(#clip410)" d="M1135.61 27.2059 L1143.07 27.2059 L1143.07 72.576 L1135.61 72.576 L1135.61 27.2059 M1135.61 9.54393 L1143.07 9.54393 L1143.07 18.9825 L1135.61 18.9825 L1135.61 9.54393 Z" fill="#000000" fill-rule="evenodd" fill-opacity="1" /><path clip-path="url(#clip410)" d="M1191.31 28.9478 L1191.31 35.9153 Q1188.15 34.1734 1184.95 33.3227 Q1181.79 32.4315 1178.55 32.4315 Q1171.3 32.4315 1167.29 37.0496 Q1163.28 41.6271 1163.28 49.9314 Q1163.28 58.2358 1167.29 62.8538 Q1171.3 67.4314 1178.55 67.4314 Q1181.79 67.4314 1184.95 66.5807 Q1188.15 65.6895 1191.31 63.9476 L1191.31 70.8341 Q1188.19 72.2924 1184.83 73.0216 Q1181.51 73.7508 1177.74 73.7508 Q1167.49 73.7508 1161.46 67.3098 Q1155.42 60.8689 1155.42 49.9314 Q1155.42 38.832 1161.5 32.472 Q1167.61 26.1121 1178.23 26.1121 Q1181.67 26.1121 1184.95 26.8413 Q1188.23 27.5299 1191.31 28.9478 Z" fill="#000000" fill-rule="evenodd" fill-opacity="1" /><path clip-path="url(#clip410)" d="M1204.28 9.54393 L1211.73 9.54393 L1211.73 72.576 L1204.28 72.576 L1204.28 9.54393 Z" fill="#000000" fill-rule="evenodd" fill-opacity="1" /><path clip-path="url(#clip410)" d="M1246.2 76.7889 Q1243.04 84.8907 1240.04 87.3618 Q1237.05 89.8329 1232.02 89.8329 L1226.07 89.8329 L1226.07 83.5945 L1230.44 83.5945 Q1233.52 83.5945 1235.22 82.1361 Q1236.93 80.6778 1238.99 75.2496 L1240.33 71.8468 L1221.98 27.2059 L1229.88 27.2059 L1244.06 62.6918 L1258.23 27.2059 L1266.13 27.2059 L1246.2 76.7889 Z" fill="#000000" fill-rule="evenodd" fill-opacity="1" /><path clip-path="url(#clip410)" d="M1323.41 49.7694 Q1314.38 49.7694 1310.89 51.8354 Q1307.41 53.9013 1307.41 58.8839 Q1307.41 62.8538 1310 65.2034 Q1312.64 67.5124 1317.13 67.5124 Q1323.33 67.5124 1327.06 63.1374 Q1330.83 58.7219 1330.83 51.4303 L1330.83 49.7694 L1323.41 49.7694 M1338.28 46.6907 L1338.28 72.576 L1330.83 72.576 L1330.83 65.6895 Q1328.27 69.8214 1324.47 71.8063 Q1320.66 73.7508 1315.15 73.7508 Q1308.18 73.7508 1304.05 69.8619 Q1299.96 65.9325 1299.96 59.3701 Q1299.96 51.7138 1305.06 47.825 Q1310.21 43.9361 1320.37 43.9361 L1330.83 43.9361 L1330.83 43.2069 Q1330.83 38.0623 1327.42 35.2672 Q1324.06 32.4315 1317.94 32.4315 Q1314.05 32.4315 1310.37 33.3632 Q1306.68 34.295 1303.28 36.1584 L1303.28 29.2718 Q1307.37 27.692 1311.22 26.9223 Q1315.07 26.1121 1318.71 26.1121 Q1328.56 26.1121 1333.42 31.2163 Q1338.28 36.3204 1338.28 46.6907 Z" fill="#000000" fill-rule="evenodd" fill-opacity="1" /><path clip-path="url(#clip410)" d="M1348.28 27.2059 L1356.18 27.2059 L1370.36 65.2844 L1384.54 27.2059 L1392.44 27.2059 L1375.43 72.576 L1365.3 72.576 L1348.28 27.2059 Z" fill="#000000" fill-rule="evenodd" fill-opacity="1" /><path clip-path="url(#clip410)" d="M1423.35 49.7694 Q1414.31 49.7694 1410.83 51.8354 Q1407.35 53.9013 1407.35 58.8839 Q1407.35 62.8538 1409.94 65.2034 Q1412.57 67.5124 1417.07 67.5124 Q1423.27 67.5124 1426.99 63.1374 Q1430.76 58.7219 1430.76 51.4303 L1430.76 49.7694 L1423.35 49.7694 M1438.21 46.6907 L1438.21 72.576 L1430.76 72.576 L1430.76 65.6895 Q1428.21 69.8214 1424.4 71.8063 Q1420.59 73.7508 1415.08 73.7508 Q1408.12 73.7508 1403.98 69.8619 Q1399.89 65.9325 1399.89 59.3701 Q1399.89 51.7138 1405 47.825 Q1410.14 43.9361 1420.31 43.9361 L1430.76 43.9361 L1430.76 43.2069 Q1430.76 38.0623 1427.36 35.2672 Q1424 32.4315 1417.88 32.4315 Q1413.99 32.4315 1410.3 33.3632 Q1406.62 34.295 1403.22 36.1584 L1403.22 29.2718 Q1407.31 27.692 1411.15 26.9223 Q1415 26.1121 1418.65 26.1121 Q1428.49 26.1121 1433.35 31.2163 Q1438.21 36.3204 1438.21 46.6907 Z" fill="#000000" fill-rule="evenodd" fill-opacity="1" /><path clip-path="url(#clip410)" d="M1453.57 27.2059 L1461.02 27.2059 L1461.02 72.576 L1453.57 72.576 L1453.57 27.2059 M1453.57 9.54393 L1461.02 9.54393 L1461.02 18.9825 L1453.57 18.9825 L1453.57 9.54393 Z" fill="#000000" fill-rule="evenodd" fill-opacity="1" /><path clip-path="url(#clip410)" d="M1476.62 9.54393 L1484.07 9.54393 L1484.07 72.576 L1476.62 72.576 L1476.62 9.54393 Z" fill="#000000" fill-rule="evenodd" fill-opacity="1" /><path clip-path="url(#clip410)" d="M1520.29 49.7694 Q1511.25 49.7694 1507.77 51.8354 Q1504.29 53.9013 1504.29 58.8839 Q1504.29 62.8538 1506.88 65.2034 Q1509.51 67.5124 1514.01 67.5124 Q1520.21 67.5124 1523.93 63.1374 Q1527.7 58.7219 1527.7 51.4303 L1527.7 49.7694 L1520.29 49.7694 M1535.15 46.6907 L1535.15 72.576 L1527.7 72.576 L1527.7 65.6895 Q1525.15 69.8214 1521.34 71.8063 Q1517.53 73.7508 1512.02 73.7508 Q1505.05 73.7508 1500.92 69.8619 Q1496.83 65.9325 1496.83 59.3701 Q1496.83 51.7138 1501.94 47.825 Q1507.08 43.9361 1517.25 43.9361 L1527.7 43.9361 L1527.7 43.2069 Q1527.7 38.0623 1524.3 35.2672 Q1520.93 32.4315 1514.82 32.4315 Q1510.93 32.4315 1507.24 33.3632 Q1503.56 34.295 1500.15 36.1584 L1500.15 29.2718 Q1504.24 27.692 1508.09 26.9223 Q1511.94 26.1121 1515.59 26.1121 Q1525.43 26.1121 1530.29 31.2163 Q1535.15 36.3204 1535.15 46.6907 Z" fill="#000000" fill-rule="evenodd" fill-opacity="1" /><path clip-path="url(#clip410)" d="M1583.08 49.9314 Q1583.08 41.7081 1579.67 37.0496 Q1576.31 32.3505 1570.4 32.3505 Q1564.48 32.3505 1561.08 37.0496 Q1557.72 41.7081 1557.72 49.9314 Q1557.72 58.1548 1561.08 62.8538 Q1564.48 67.5124 1570.4 67.5124 Q1576.31 67.5124 1579.67 62.8538 Q1583.08 58.1548 1583.08 49.9314 M1557.72 34.0924 Q1560.07 30.0415 1563.63 28.0971 Q1567.24 26.1121 1572.22 26.1121 Q1580.48 26.1121 1585.63 32.6746 Q1590.81 39.2371 1590.81 49.9314 Q1590.81 60.6258 1585.63 67.1883 Q1580.48 73.7508 1572.22 73.7508 Q1567.24 73.7508 1563.63 71.8063 Q1560.07 69.8214 1557.72 65.7705 L1557.72 72.576 L1550.22 72.576 L1550.22 9.54393 L1557.72 9.54393 L1557.72 34.0924 Z" fill="#000000" fill-rule="evenodd" fill-opacity="1" /><path clip-path="url(#clip410)" d="M1603.17 9.54393 L1610.62 9.54393 L1610.62 72.576 L1603.17 72.576 L1603.17 9.54393 Z" fill="#000000" fill-rule="evenodd" fill-opacity="1" /><path clip-path="url(#clip410)" d="M1665.02 48.0275 L1665.02 51.6733 L1630.75 51.6733 Q1631.24 59.3701 1635.37 63.421 Q1639.54 67.4314 1646.96 67.4314 Q1651.25 67.4314 1655.26 66.3781 Q1659.31 65.3249 1663.28 63.2184 L1663.28 70.267 Q1659.27 71.9684 1655.06 72.8596 Q1650.85 73.7508 1646.51 73.7508 Q1635.66 73.7508 1629.3 67.4314 Q1622.98 61.1119 1622.98 50.3365 Q1622.98 39.1965 1628.97 32.6746 Q1635.01 26.1121 1645.22 26.1121 Q1654.37 26.1121 1659.68 32.0264 Q1665.02 37.9003 1665.02 48.0275 M1657.57 45.84 Q1657.49 39.7232 1654.13 36.0774 Q1650.81 32.4315 1645.3 32.4315 Q1639.06 32.4315 1635.29 35.9558 Q1631.56 39.4801 1631 45.8805 L1657.57 45.84 Z" fill="#000000" fill-rule="evenodd" fill-opacity="1" /><path clip-path="url(#clip412)" d="
M247.59 733.299 L588.231 1188.79 L1014.03 1294.22 L1439.84 1405.99 L1865.64 1371.28 L2291.44 1387.58 L2291.44 1287.71 L1865.64 1206.02 L1439.84 1219.38 L1014.03 1150.17 
  L588.231 933.337 L247.59 340.4  Z
  " fill="#009af9" fill-rule="evenodd" fill-opacity="0.5"/>
<polyline clip-path="url(#clip412)" style="stroke:#009af9; stroke-linecap:butt; stroke-linejoin:round; stroke-width:12; stroke-opacity:1; fill:none" points="
  247.59,536.849 588.231,1061.06 1014.03,1222.2 1439.84,1312.68 1865.64,1288.65 2291.44,1337.64 
  "/>
<path clip-path="url(#clip412)" d="
M247.59 880.352 L588.231 1305.66 L1014.03 1370.96 L1439.84 1400.62 L1865.64 1400.29 L2291.44 1426.01 L2291.44 1375.48 L1865.64 1351.55 L1439.84 1337.81 L1014.03 1262.12 
  L588.231 1023.18 L247.59 162.047  Z
  " fill="#e26f46" fill-rule="evenodd" fill-opacity="0.5"/>
<polyline clip-path="url(#clip412)" style="stroke:#e26f46; stroke-linecap:butt; stroke-linejoin:round; stroke-width:12; stroke-opacity:1; fill:none" points="
  247.59,521.2 588.231,1164.42 1014.03,1316.54 1439.84,1369.22 1865.64,1375.92 2291.44,1400.74 
  "/>
<path clip-path="url(#clip412)" d="
M247.59 1048.37 L588.231 1308.25 L1014.03 1411.05 L1439.84 1440.38 L1865.64 1447.87 L2291.44 1444.58 L2291.44 1399.21 L1865.64 1421.41 L1439.84 1392.88 L1014.03 1323.79 
  L588.231 1163.07 L247.59 775.022  Z
  " fill="#3da44d" fill-rule="evenodd" fill-opacity="0.5"/>
<polyline clip-path="url(#clip412)" style="stroke:#3da44d; stroke-linecap:butt; stroke-linejoin:round; stroke-width:12; stroke-opacity:1; fill:none" points="
  247.59,911.698 588.231,1235.66 1014.03,1367.42 1439.84,1416.63 1865.64,1434.64 2291.44,1421.9 
  "/>
<path clip-path="url(#clip410)" d="
M1904.7 376.265 L2280.54 376.265 L2280.54 168.905 L1904.7 168.905  Z
  " fill="#ffffff" fill-rule="evenodd" fill-opacity="1"/>
<polyline clip-path="url(#clip410)" style="stroke:#000000; stroke-linecap:butt; stroke-linejoin:round; stroke-width:4; stroke-opacity:1; fill:none" points="
  1904.7,376.265 2280.54,376.265 2280.54,168.905 1904.7,168.905 1904.7,376.265 
  "/>
<polyline clip-path="url(#clip410)" style="stroke:#009af9; stroke-linecap:butt; stroke-linejoin:round; stroke-width:4; stroke-opacity:1; fill:none" points="
  1928.78,220.745 2073.21,220.745 
  "/>
<path clip-path="url(#clip410)" d="M2097.28 202.006 L2101.56 202.006 L2101.56 223.279 L2114.27 212.099 L2119.71 212.099 L2105.96 224.228 L2120.29 238.025 L2114.73 238.025 L2101.56 225.363 L2101.56 238.025 L2097.28 238.025 L2097.28 202.006 Z" fill="#000000" fill-rule="evenodd" fill-opacity="1" /><path clip-path="url(#clip410)" d="M2125.45 216.497 L2155.13 216.497 L2155.13 220.386 L2125.45 220.386 L2125.45 216.497 M2125.45 225.941 L2155.13 225.941 L2155.13 229.877 L2125.45 229.877 L2125.45 225.941 Z" fill="#000000" fill-rule="evenodd" fill-opacity="1" /><path clip-path="url(#clip410)" d="M2175.22 206.543 Q2171.61 206.543 2169.78 210.108 Q2167.97 213.65 2167.97 220.779 Q2167.97 227.886 2169.78 231.451 Q2171.61 234.992 2175.22 234.992 Q2178.85 234.992 2180.66 231.451 Q2182.49 227.886 2182.49 220.779 Q2182.49 213.65 2180.66 210.108 Q2178.85 206.543 2175.22 206.543 M2175.22 202.84 Q2181.03 202.84 2184.09 207.446 Q2187.16 212.029 2187.16 220.779 Q2187.16 229.506 2184.09 234.113 Q2181.03 238.696 2175.22 238.696 Q2169.41 238.696 2166.33 234.113 Q2163.28 229.506 2163.28 220.779 Q2163.28 212.029 2166.33 207.446 Q2169.41 202.84 2175.22 202.84 Z" fill="#000000" fill-rule="evenodd" fill-opacity="1" /><path clip-path="url(#clip410)" d="M2195.38 232.145 L2200.27 232.145 L2200.27 238.025 L2195.38 238.025 L2195.38 232.145 Z" fill="#000000" fill-rule="evenodd" fill-opacity="1" /><path clip-path="url(#clip410)" d="M2210.5 203.465 L2228.85 203.465 L2228.85 207.4 L2214.78 207.4 L2214.78 215.872 Q2215.8 215.525 2216.82 215.363 Q2217.84 215.178 2218.85 215.178 Q2224.64 215.178 2228.02 218.349 Q2231.4 221.52 2231.4 226.937 Q2231.4 232.515 2227.93 235.617 Q2224.46 238.696 2218.14 238.696 Q2215.96 238.696 2213.69 238.326 Q2211.45 237.955 2209.04 237.214 L2209.04 232.515 Q2211.12 233.65 2213.34 234.205 Q2215.57 234.761 2218.04 234.761 Q2222.05 234.761 2224.39 232.654 Q2226.72 230.548 2226.72 226.937 Q2226.72 223.326 2224.39 221.219 Q2222.05 219.113 2218.04 219.113 Q2216.17 219.113 2214.29 219.529 Q2212.44 219.946 2210.5 220.826 L2210.5 203.465 Z" fill="#000000" fill-rule="evenodd" fill-opacity="1" /><polyline clip-path="url(#clip410)" style="stroke:#e26f46; stroke-linecap:butt; stroke-linejoin:round; stroke-width:4; stroke-opacity:1; fill:none" points="
  1928.78,272.585 2073.21,272.585 
  "/>
<path clip-path="url(#clip410)" d="M2097.28 253.846 L2101.56 253.846 L2101.56 275.119 L2114.27 263.939 L2119.71 263.939 L2105.96 276.068 L2120.29 289.865 L2114.73 289.865 L2101.56 277.203 L2101.56 289.865 L2097.28 289.865 L2097.28 253.846 Z" fill="#000000" fill-rule="evenodd" fill-opacity="1" /><path clip-path="url(#clip410)" d="M2125.45 268.337 L2155.13 268.337 L2155.13 272.226 L2125.45 272.226 L2125.45 268.337 M2125.45 277.781 L2155.13 277.781 L2155.13 281.717 L2125.45 281.717 L2125.45 277.781 Z" fill="#000000" fill-rule="evenodd" fill-opacity="1" /><path clip-path="url(#clip410)" d="M2166.03 285.929 L2173.67 285.929 L2173.67 259.564 L2165.36 261.231 L2165.36 256.971 L2173.62 255.305 L2178.3 255.305 L2178.3 285.929 L2185.94 285.929 L2185.94 289.865 L2166.03 289.865 L2166.03 285.929 Z" fill="#000000" fill-rule="evenodd" fill-opacity="1" /><path clip-path="url(#clip410)" d="M2195.38 283.985 L2200.27 283.985 L2200.27 289.865 L2195.38 289.865 L2195.38 283.985 Z" fill="#000000" fill-rule="evenodd" fill-opacity="1" /><path clip-path="url(#clip410)" d="M2220.45 258.383 Q2216.84 258.383 2215.01 261.948 Q2213.21 265.49 2213.21 272.619 Q2213.21 279.726 2215.01 283.291 Q2216.84 286.832 2220.45 286.832 Q2224.09 286.832 2225.89 283.291 Q2227.72 279.726 2227.72 272.619 Q2227.72 265.49 2225.89 261.948 Q2224.09 258.383 2220.45 258.383 M2220.45 254.68 Q2226.26 254.68 2229.32 259.286 Q2232.4 263.869 2232.4 272.619 Q2232.4 281.346 2229.32 285.953 Q2226.26 290.536 2220.45 290.536 Q2214.64 290.536 2211.56 285.953 Q2208.51 281.346 2208.51 272.619 Q2208.51 263.869 2211.56 259.286 Q2214.64 254.68 2220.45 254.68 Z" fill="#000000" fill-rule="evenodd" fill-opacity="1" /><polyline clip-path="url(#clip410)" style="stroke:#3da44d; stroke-linecap:butt; stroke-linejoin:round; stroke-width:4; stroke-opacity:1; fill:none" points="
  1928.78,324.425 2073.21,324.425 
  "/>
<path clip-path="url(#clip410)" d="M2097.28 305.686 L2101.56 305.686 L2101.56 326.959 L2114.27 315.779 L2119.71 315.779 L2105.96 327.908 L2120.29 341.705 L2114.73 341.705 L2101.56 329.043 L2101.56 341.705 L2097.28 341.705 L2097.28 305.686 Z" fill="#000000" fill-rule="evenodd" fill-opacity="1" /><path clip-path="url(#clip410)" d="M2125.45 320.177 L2155.13 320.177 L2155.13 324.066 L2125.45 324.066 L2125.45 320.177 M2125.45 329.621 L2155.13 329.621 L2155.13 333.557 L2125.45 333.557 L2125.45 329.621 Z" fill="#000000" fill-rule="evenodd" fill-opacity="1" /><path clip-path="url(#clip410)" d="M2169.25 337.769 L2185.57 337.769 L2185.57 341.705 L2163.62 341.705 L2163.62 337.769 Q2166.29 335.015 2170.87 330.385 Q2175.47 325.733 2176.66 324.39 Q2178.9 321.867 2179.78 320.131 Q2180.68 318.371 2180.68 316.682 Q2180.68 313.927 2178.74 312.191 Q2176.82 310.455 2173.72 310.455 Q2171.52 310.455 2169.06 311.219 Q2166.63 311.983 2163.85 313.534 L2163.85 308.811 Q2166.68 307.677 2169.13 307.098 Q2171.59 306.52 2173.62 306.52 Q2178.99 306.52 2182.19 309.205 Q2185.38 311.89 2185.38 316.381 Q2185.38 318.51 2184.57 320.432 Q2183.78 322.33 2181.68 324.922 Q2181.1 325.594 2178 328.811 Q2174.9 332.006 2169.25 337.769 Z" fill="#000000" fill-rule="evenodd" fill-opacity="1" /><path clip-path="url(#clip410)" d="M2195.38 335.825 L2200.27 335.825 L2200.27 341.705 L2195.38 341.705 L2195.38 335.825 Z" fill="#000000" fill-rule="evenodd" fill-opacity="1" /><path clip-path="url(#clip410)" d="M2220.45 310.223 Q2216.84 310.223 2215.01 313.788 Q2213.21 317.33 2213.21 324.459 Q2213.21 331.566 2215.01 335.131 Q2216.84 338.672 2220.45 338.672 Q2224.09 338.672 2225.89 335.131 Q2227.72 331.566 2227.72 324.459 Q2227.72 317.33 2225.89 313.788 Q2224.09 310.223 2220.45 310.223 M2220.45 306.52 Q2226.26 306.52 2229.32 311.126 Q2232.4 315.709 2232.4 324.459 Q2232.4 333.186 2229.32 337.793 Q2226.26 342.376 2220.45 342.376 Q2214.64 342.376 2211.56 337.793 Q2208.51 333.186 2208.51 324.459 Q2208.51 315.709 2211.56 311.126 Q2214.64 306.52 2220.45 306.52 Z" fill="#000000" fill-rule="evenodd" fill-opacity="1" /></svg>
