<?xml version="1.0" encoding="utf-8"?>
<svg xmlns="http://www.w3.org/2000/svg" xmlns:xlink="http://www.w3.org/1999/xlink" width="400" height="300" viewBox="0 0 1600 1200">
<defs>
  <clipPath id="clip050">
    <rect x="0" y="0" width="1600" height="1200"/>
  </clipPath>
</defs>
<path clip-path="url(#clip050)" d="
M0 1200 L1600 1200 L1600 0 L0 0  Z
  " fill="#ffffff" fill-rule="evenodd" fill-opacity="1"/>
<defs>
  <clipPath id="clip051">
    <rect x="320" y="0" width="1121" height="1121"/>
  </clipPath>
</defs>
<path clip-path="url(#clip050)" d="
M217.806 1016.92 L1552.76 1016.92 L1552.76 47.2441 L217.806 47.2441  Z
  " fill="#ffffff" fill-rule="evenodd" fill-opacity="1"/>
<defs>
  <clipPath id="clip052">
    <rect x="217" y="47" width="1336" height="971"/>
  </clipPath>
</defs>
<polyline clip-path="url(#clip052)" style="stroke:#000000; stroke-linecap:butt; stroke-linejoin:round; stroke-width:2; stroke-opacity:0.1; fill:none" points="
  507.465,1016.92 507.465,47.2441 
  "/>
<polyline clip-path="url(#clip052)" style="stroke:#000000; stroke-linecap:butt; stroke-linejoin:round; stroke-width:2; stroke-opacity:0.1; fill:none" points="
  843.302,1016.92 843.302,47.2441 
  "/>
<polyline clip-path="url(#clip052)" style="stroke:#000000; stroke-linecap:butt; stroke-linejoin:round; stroke-width:2; stroke-opacity:0.1; fill:none" points="
  1179.14,1016.92 1179.14,47.2441 
  "/>
<polyline clip-path="url(#clip052)" style="stroke:#000000; stroke-linecap:butt; stroke-linejoin:round; stroke-width:2; stroke-opacity:0.1; fill:none" points="
  1514.97,1016.92 1514.97,47.2441 
  "/>
<polyline clip-path="url(#clip050)" style="stroke:#000000; stroke-linecap:butt; stroke-linejoin:round; stroke-width:4; stroke-opacity:1; fill:none" points="
  217.806,1016.92 1552.76,1016.92 
  "/>
<polyline clip-path="url(#clip050)" style="stroke:#000000; stroke-linecap:butt; stroke-linejoin:round; stroke-width:4; stroke-opacity:1; fill:none" points="
  507.465,1016.92 507.465,998.022 
  "/>
<polyline clip-path="url(#clip050)" style="stroke:#000000; stroke-linecap:butt; stroke-linejoin:round; stroke-width:4; stroke-opacity:1; fill:none" points="
  843.302,1016.92 843.302,998.022 
  "/>
<polyline clip-path="url(#clip050)" style="stroke:#000000; stroke-linecap:butt; stroke-linejoin:round; stroke-width:4; stroke-opacity:1; fill:none" points="
  1179.14,1016.92 1179.14,998.022 
  "/>
<polyline clip-path="url(#clip050)" style="stroke:#000000; stroke-linecap:butt; stroke-linejoin:round; stroke-width:4; stroke-opacity:1; fill:none" points="
  1514.97,1016.92 1514.97,998.022 
  "/>
<path clip-path="url(#clip050)" d="M502.118 1068.98 L518.437 1068.98 L518.437 1072.92 L496.493 1072.92 L496.493 1068.98 Q499.155 1066.23 503.738 1061.6 Q508.345 1056.95 509.525 1055.61 Q511.771 1053.08 512.65 1051.35 Q513.553 1049.59 513.553 1047.9 Q513.553 1045.14 511.609 1043.41 Q509.687 1041.67 506.586 1041.67 Q504.386 1041.67 501.933 1042.43 Q499.502 1043.2 496.724 1044.75 L496.724 1040.03 Q499.549 1038.89 502.002 1038.31 Q504.456 1037.73 506.493 1037.73 Q511.863 1037.73 515.058 1040.42 Q518.252 1043.11 518.252 1047.6 Q518.252 1049.73 517.442 1051.65 Q516.655 1053.54 514.548 1056.14 Q513.97 1056.81 510.868 1060.03 Q507.766 1063.22 502.118 1068.98 Z" fill="#000000" fill-rule="evenodd" fill-opacity="1" /><path clip-path="url(#clip050)" d="M846.311 1042.43 L834.505 1060.88 L846.311 1060.88 L846.311 1042.43 M845.084 1038.36 L850.964 1038.36 L850.964 1060.88 L855.894 1060.88 L855.894 1064.77 L850.964 1064.77 L850.964 1072.92 L846.311 1072.92 L846.311 1064.77 L830.709 1064.77 L830.709 1060.26 L845.084 1038.36 Z" fill="#000000" fill-rule="evenodd" fill-opacity="1" /><path clip-path="url(#clip050)" d="M1179.54 1053.78 Q1176.39 1053.78 1174.54 1055.93 Q1172.71 1058.08 1172.71 1061.83 Q1172.71 1065.56 1174.54 1067.73 Q1176.39 1069.89 1179.54 1069.89 Q1182.69 1069.89 1184.52 1067.73 Q1186.37 1065.56 1186.37 1061.83 Q1186.37 1058.08 1184.52 1055.93 Q1182.69 1053.78 1179.54 1053.78 M1188.83 1039.12 L1188.83 1043.38 Q1187.07 1042.55 1185.26 1042.11 Q1183.48 1041.67 1181.72 1041.67 Q1177.09 1041.67 1174.64 1044.79 Q1172.21 1047.92 1171.86 1054.24 Q1173.22 1052.23 1175.28 1051.16 Q1177.34 1050.07 1179.82 1050.07 Q1185.03 1050.07 1188.04 1053.24 Q1191.07 1056.39 1191.07 1061.83 Q1191.07 1067.16 1187.92 1070.37 Q1184.77 1073.59 1179.54 1073.59 Q1173.55 1073.59 1170.38 1069.01 Q1167.21 1064.4 1167.21 1055.67 Q1167.21 1047.48 1171.09 1042.62 Q1174.98 1037.73 1181.53 1037.73 Q1183.29 1037.73 1185.08 1038.08 Q1186.88 1038.43 1188.83 1039.12 Z" fill="#000000" fill-rule="evenodd" fill-opacity="1" /><path clip-path="url(#clip050)" d="M1514.97 1056.51 Q1511.64 1056.51 1509.72 1058.29 Q1507.82 1060.07 1507.82 1063.2 Q1507.82 1066.32 1509.72 1068.11 Q1511.64 1069.89 1514.97 1069.89 Q1518.31 1069.89 1520.23 1068.11 Q1522.15 1066.3 1522.15 1063.2 Q1522.15 1060.07 1520.23 1058.29 Q1518.33 1056.51 1514.97 1056.51 M1510.3 1054.52 Q1507.29 1053.78 1505.6 1051.72 Q1503.93 1049.66 1503.93 1046.69 Q1503.93 1042.55 1506.87 1040.14 Q1509.84 1037.73 1514.97 1037.73 Q1520.14 1037.73 1523.08 1040.14 Q1526.02 1042.55 1526.02 1046.69 Q1526.02 1049.66 1524.33 1051.72 Q1522.66 1053.78 1519.67 1054.52 Q1523.05 1055.3 1524.93 1057.6 Q1526.83 1059.89 1526.83 1063.2 Q1526.83 1068.22 1523.75 1070.91 Q1520.69 1073.59 1514.97 1073.59 Q1509.26 1073.59 1506.18 1070.91 Q1503.12 1068.22 1503.12 1063.2 Q1503.12 1059.89 1505.02 1057.6 Q1506.92 1055.3 1510.3 1054.52 M1508.59 1047.13 Q1508.59 1049.82 1510.25 1051.32 Q1511.94 1052.83 1514.97 1052.83 Q1517.98 1052.83 1519.67 1051.32 Q1521.39 1049.82 1521.39 1047.13 Q1521.39 1044.45 1519.67 1042.94 Q1517.98 1041.44 1514.97 1041.44 Q1511.94 1041.44 1510.25 1042.94 Q1508.59 1044.45 1508.59 1047.13 Z" fill="#000000" fill-rule="evenodd" fill-opacity="1" /><path clip-path="url(#clip050)" d="M899.142 1119.8 Q897.965 1119.39 896.787 1119.07 Q893.636 1118.24 890.262 1118.24 Q884.438 1118.24 881.191 1121.39 Q878.167 1124.32 877.594 1129.7 L899.142 1129.7 L899.142 1134.28 L877.594 1134.28 Q878.167 1139.66 881.191 1142.59 Q884.438 1145.74 890.262 1145.74 Q894.336 1145.74 896.787 1144.91 L899.142 1144.12 L899.142 1149.43 L896.628 1150.01 Q893.318 1150.71 889.912 1150.71 Q881.382 1150.71 876.417 1145.74 Q871.42 1140.78 871.42 1131.99 Q871.42 1123.21 876.417 1118.24 Q881.382 1113.28 889.912 1113.28 Q893.127 1113.28 896.628 1113.98 Q897.901 1114.23 899.142 1114.61 L899.142 1119.8 Z" fill="#000000" fill-rule="evenodd" fill-opacity="1" /><polyline clip-path="url(#clip052)" style="stroke:#000000; stroke-linecap:butt; stroke-linejoin:round; stroke-width:2; stroke-opacity:0.1; fill:none" points="
  217.806,989.476 1552.76,989.476 
  "/>
<polyline clip-path="url(#clip052)" style="stroke:#000000; stroke-linecap:butt; stroke-linejoin:round; stroke-width:2; stroke-opacity:0.1; fill:none" points="
  217.806,760.421 1552.76,760.421 
  "/>
<polyline clip-path="url(#clip052)" style="stroke:#000000; stroke-linecap:butt; stroke-linejoin:round; stroke-width:2; stroke-opacity:0.1; fill:none" points="
  217.806,531.365 1552.76,531.365 
  "/>
<polyline clip-path="url(#clip052)" style="stroke:#000000; stroke-linecap:butt; stroke-linejoin:round; stroke-width:2; stroke-opacity:0.1; fill:none" points="
  217.806,302.31 1552.76,302.31 
  "/>
<polyline clip-path="url(#clip052)" style="stroke:#000000; stroke-linecap:butt; stroke-linejoin:round; stroke-width:2; stroke-opacity:0.1; fill:none" points="
  217.806,73.2544 1552.76,73.2544 
  "/>
<polyline clip-path="url(#clip050)" style="stroke:#000000; stroke-linecap:butt; stroke-linejoin:round; stroke-width:4; stroke-opacity:1; fill:none" points="
  217.806,1016.92 217.806,47.2441 
  "/>
<polyline clip-path="url(#clip050)" style="stroke:#000000; stroke-linecap:butt; stroke-linejoin:round; stroke-width:4; stroke-opacity:1; fill:none" points="
  217.806,989.476 236.704,989.476 
  "/>
<polyline clip-path="url(#clip050)" style="stroke:#000000; stroke-linecap:butt; stroke-linejoin:round; stroke-width:4; stroke-opacity:1; fill:none" points="
  217.806,760.421 236.704,760.421 
  "/>
<polyline clip-path="url(#clip050)" style="stroke:#000000; stroke-linecap:butt; stroke-linejoin:round; stroke-width:4; stroke-opacity:1; fill:none" points="
  217.806,531.365 236.704,531.365 
  "/>
<polyline clip-path="url(#clip050)" style="stroke:#000000; stroke-linecap:butt; stroke-linejoin:round; stroke-width:4; stroke-opacity:1; fill:none" points="
  217.806,302.31 236.704,302.31 
  "/>
<polyline clip-path="url(#clip050)" style="stroke:#000000; stroke-linecap:butt; stroke-linejoin:round; stroke-width:4; stroke-opacity:1; fill:none" points="
  217.806,73.2544 236.704,73.2544 
  "/>
<path clip-path="url(#clip050)" d="M136.631 975.275 Q133.02 975.275 131.191 978.84 Q129.385 982.381 129.385 989.511 Q129.385 996.617 131.191 1000.18 Q133.02 1003.72 136.631 1003.72 Q140.265 1003.72 142.07 1000.18 Q143.899 996.617 143.899 989.511 Q143.899 982.381 142.07 978.84 Q140.265 975.275 136.631 975.275 M136.631 971.571 Q142.441 971.571 145.496 976.178 Q148.575 980.761 148.575 989.511 Q148.575 998.238 145.496 1002.84 Q142.441 1007.43 136.631 1007.43 Q130.82 1007.43 127.742 1002.84 Q124.686 998.238 124.686 989.511 Q124.686 980.761 127.742 976.178 Q130.82 971.571 136.631 971.571 Z" fill="#000000" fill-rule="evenodd" fill-opacity="1" /><path clip-path="url(#clip050)" d="M156.793 1000.88 L161.677 1000.88 L161.677 1006.76 L156.793 1006.76 L156.793 1000.88 Z" fill="#000000" fill-rule="evenodd" fill-opacity="1" /><path clip-path="url(#clip050)" d="M181.862 975.275 Q178.251 975.275 176.422 978.84 Q174.617 982.381 174.617 989.511 Q174.617 996.617 176.422 1000.18 Q178.251 1003.72 181.862 1003.72 Q185.496 1003.72 187.302 1000.18 Q189.13 996.617 189.13 989.511 Q189.13 982.381 187.302 978.84 Q185.496 975.275 181.862 975.275 M181.862 971.571 Q187.672 971.571 190.728 976.178 Q193.806 980.761 193.806 989.511 Q193.806 998.238 190.728 1002.84 Q187.672 1007.43 181.862 1007.43 Q176.052 1007.43 172.973 1002.84 Q169.918 998.238 169.918 989.511 Q169.918 980.761 172.973 976.178 Q176.052 971.571 181.862 971.571 Z" fill="#000000" fill-rule="evenodd" fill-opacity="1" /><path clip-path="url(#clip050)" d="M138.228 746.219 Q134.617 746.219 132.788 749.784 Q130.983 753.326 130.983 760.455 Q130.983 767.562 132.788 771.127 Q134.617 774.668 138.228 774.668 Q141.862 774.668 143.668 771.127 Q145.496 767.562 145.496 760.455 Q145.496 753.326 143.668 749.784 Q141.862 746.219 138.228 746.219 M138.228 742.516 Q144.038 742.516 147.094 747.122 Q150.172 751.706 150.172 760.455 Q150.172 769.182 147.094 773.789 Q144.038 778.372 138.228 778.372 Q132.418 778.372 129.339 773.789 Q126.283 769.182 126.283 760.455 Q126.283 751.706 129.339 747.122 Q132.418 742.516 138.228 742.516 Z" fill="#000000" fill-rule="evenodd" fill-opacity="1" /><path clip-path="url(#clip050)" d="M158.39 771.821 L163.274 771.821 L163.274 777.701 L158.39 777.701 L158.39 771.821 Z" fill="#000000" fill-rule="evenodd" fill-opacity="1" /><path clip-path="url(#clip050)" d="M177.487 773.766 L193.806 773.766 L193.806 777.701 L171.862 777.701 L171.862 773.766 Q174.524 771.011 179.107 766.381 Q183.714 761.729 184.894 760.386 Q187.14 757.863 188.019 756.127 Q188.922 754.368 188.922 752.678 Q188.922 749.923 186.978 748.187 Q185.056 746.451 181.954 746.451 Q179.755 746.451 177.302 747.215 Q174.871 747.979 172.093 749.53 L172.093 744.807 Q174.917 743.673 177.371 743.094 Q179.825 742.516 181.862 742.516 Q187.232 742.516 190.427 745.201 Q193.621 747.886 193.621 752.377 Q193.621 754.506 192.811 756.428 Q192.024 758.326 189.917 760.918 Q189.339 761.59 186.237 764.807 Q183.135 768.002 177.487 773.766 Z" fill="#000000" fill-rule="evenodd" fill-opacity="1" /><path clip-path="url(#clip050)" d="M136.145 517.164 Q132.533 517.164 130.705 520.729 Q128.899 524.27 128.899 531.4 Q128.899 538.506 130.705 542.071 Q132.533 545.613 136.145 545.613 Q139.779 545.613 141.584 542.071 Q143.413 538.506 143.413 531.4 Q143.413 524.27 141.584 520.729 Q139.779 517.164 136.145 517.164 M136.145 513.46 Q141.955 513.46 145.01 518.067 Q148.089 522.65 148.089 531.4 Q148.089 540.127 145.01 544.733 Q141.955 549.317 136.145 549.317 Q130.334 549.317 127.256 544.733 Q124.2 540.127 124.2 531.4 Q124.2 522.65 127.256 518.067 Q130.334 513.46 136.145 513.46 Z" fill="#000000" fill-rule="evenodd" fill-opacity="1" /><path clip-path="url(#clip050)" d="M156.306 542.766 L161.191 542.766 L161.191 548.645 L156.306 548.645 L156.306 542.766 Z" fill="#000000" fill-rule="evenodd" fill-opacity="1" /><path clip-path="url(#clip050)" d="M184.223 518.159 L172.417 536.608 L184.223 536.608 L184.223 518.159 M182.996 514.085 L188.876 514.085 L188.876 536.608 L193.806 536.608 L193.806 540.497 L188.876 540.497 L188.876 548.645 L184.223 548.645 L184.223 540.497 L168.621 540.497 L168.621 535.983 L182.996 514.085 Z" fill="#000000" fill-rule="evenodd" fill-opacity="1" /><path clip-path="url(#clip050)" d="M136.469 288.109 Q132.858 288.109 131.029 291.673 Q129.223 295.215 129.223 302.345 Q129.223 309.451 131.029 313.016 Q132.858 316.557 136.469 316.557 Q140.103 316.557 141.908 313.016 Q143.737 309.451 143.737 302.345 Q143.737 295.215 141.908 291.673 Q140.103 288.109 136.469 288.109 M136.469 284.405 Q142.279 284.405 145.334 289.011 Q148.413 293.595 148.413 302.345 Q148.413 311.071 145.334 315.678 Q142.279 320.261 136.469 320.261 Q130.658 320.261 127.58 315.678 Q124.524 311.071 124.524 302.345 Q124.524 293.595 127.58 289.011 Q130.658 284.405 136.469 284.405 Z" fill="#000000" fill-rule="evenodd" fill-opacity="1" /><path clip-path="url(#clip050)" d="M156.631 313.71 L161.515 313.71 L161.515 319.59 L156.631 319.59 L156.631 313.71 Z" fill="#000000" fill-rule="evenodd" fill-opacity="1" /><path clip-path="url(#clip050)" d="M182.279 300.446 Q179.13 300.446 177.279 302.599 Q175.45 304.752 175.45 308.502 Q175.45 312.229 177.279 314.405 Q179.13 316.557 182.279 316.557 Q185.427 316.557 187.255 314.405 Q189.107 312.229 189.107 308.502 Q189.107 304.752 187.255 302.599 Q185.427 300.446 182.279 300.446 M191.561 285.794 L191.561 290.053 Q189.802 289.22 187.996 288.78 Q186.214 288.34 184.454 288.34 Q179.825 288.34 177.371 291.465 Q174.941 294.59 174.593 300.909 Q175.959 298.895 178.019 297.831 Q180.079 296.743 182.556 296.743 Q187.765 296.743 190.774 299.914 Q193.806 303.062 193.806 308.502 Q193.806 313.826 190.658 317.044 Q187.51 320.261 182.279 320.261 Q176.283 320.261 173.112 315.678 Q169.941 311.071 169.941 302.345 Q169.941 294.15 173.83 289.289 Q177.718 284.405 184.269 284.405 Q186.029 284.405 187.811 284.752 Q189.616 285.099 191.561 285.794 Z" fill="#000000" fill-rule="evenodd" fill-opacity="1" /><path clip-path="url(#clip050)" d="M136.723 59.0531 Q133.112 59.0531 131.283 62.6179 Q129.478 66.1595 129.478 73.2891 Q129.478 80.3955 131.283 83.9603 Q133.112 87.502 136.723 87.502 Q140.357 87.502 142.163 83.9603 Q143.992 80.3955 143.992 73.2891 Q143.992 66.1595 142.163 62.6179 Q140.357 59.0531 136.723 59.0531 M136.723 55.3494 Q142.533 55.3494 145.589 59.9558 Q148.668 64.5391 148.668 73.2891 Q148.668 82.0159 145.589 86.6224 Q142.533 91.2057 136.723 91.2057 Q130.913 91.2057 127.834 86.6224 Q124.779 82.0159 124.779 73.2891 Q124.779 64.5391 127.834 59.9558 Q130.913 55.3494 136.723 55.3494 Z" fill="#000000" fill-rule="evenodd" fill-opacity="1" /><path clip-path="url(#clip050)" d="M156.885 84.6548 L161.769 84.6548 L161.769 90.5344 L156.885 90.5344 L156.885 84.6548 Z" fill="#000000" fill-rule="evenodd" fill-opacity="1" /><path clip-path="url(#clip050)" d="M181.954 74.1224 Q178.621 74.1224 176.7 75.9048 Q174.802 77.6872 174.802 80.8122 Q174.802 83.9372 176.7 85.7196 Q178.621 87.502 181.954 87.502 Q185.288 87.502 187.209 85.7196 Q189.13 83.914 189.13 80.8122 Q189.13 77.6872 187.209 75.9048 Q185.311 74.1224 181.954 74.1224 M177.279 72.1317 Q174.269 71.391 172.58 69.3308 Q170.913 67.2706 170.913 64.3077 Q170.913 60.1642 173.853 57.7568 Q176.816 55.3494 181.954 55.3494 Q187.116 55.3494 190.056 57.7568 Q192.996 60.1642 192.996 64.3077 Q192.996 67.2706 191.306 69.3308 Q189.64 71.391 186.654 72.1317 Q190.033 72.9187 191.908 75.2104 Q193.806 77.502 193.806 80.8122 Q193.806 85.8353 190.728 88.5205 Q187.672 91.2057 181.954 91.2057 Q176.237 91.2057 173.158 88.5205 Q170.103 85.8353 170.103 80.8122 Q170.103 77.502 172.001 75.2104 Q173.899 72.9187 177.279 72.1317 M175.566 64.7475 Q175.566 67.4326 177.232 68.9373 Q178.922 70.4419 181.954 70.4419 Q184.964 70.4419 186.654 68.9373 Q188.366 67.4326 188.366 64.7475 Q188.366 62.0623 186.654 60.5577 Q184.964 59.0531 181.954 59.0531 Q178.922 59.0531 177.232 60.5577 Q175.566 62.0623 175.566 64.7475 Z" fill="#000000" fill-rule="evenodd" fill-opacity="1" /><path clip-path="url(#clip050)" d="M63.2504 843.651 L80.6606 843.651 L80.6606 833.339 Q80.6606 828.151 78.5281 825.668 Q76.3638 823.154 71.9396 823.154 Q67.4836 823.154 65.3829 825.668 Q63.2504 828.151 63.2504 833.339 L63.2504 843.651 M43.7077 843.651 L58.0305 843.651 L58.0305 834.135 Q58.0305 829.424 56.28 827.132 Q54.4976 824.809 50.8691 824.809 Q47.2725 824.809 45.4901 827.132 Q43.7077 829.424 43.7077 834.135 L43.7077 843.651 M38.4242 850.081 L38.4242 833.657 Q38.4242 826.305 41.4797 822.326 Q44.5352 818.348 50.1689 818.348 Q54.5294 818.348 57.1075 820.385 Q59.6856 822.422 60.3222 826.369 Q61.3407 821.626 64.5872 819.016 Q67.8019 816.374 72.6398 816.374 Q79.0055 816.374 82.4748 820.703 Q85.9442 825.032 85.9442 833.021 L85.9442 850.081 L38.4242 850.081 Z" fill="#000000" fill-rule="evenodd" fill-opacity="1" /><path clip-path="url(#clip050)" d="M54.4021 791.803 Q54.4021 796.513 58.0942 799.251 Q61.7545 801.988 68.152 801.988 Q74.5495 801.988 78.2417 799.283 Q81.9019 796.545 81.9019 791.803 Q81.9019 787.124 78.2098 784.387 Q74.5177 781.649 68.152 781.649 Q61.8181 781.649 58.126 784.387 Q54.4021 787.124 54.4021 791.803 M49.4368 791.803 Q49.4368 784.164 54.4021 779.803 Q59.3673 775.443 68.152 775.443 Q76.9049 775.443 81.9019 779.803 Q86.8672 784.164 86.8672 791.803 Q86.8672 799.473 81.9019 803.834 Q76.9049 808.163 68.152 808.163 Q59.3673 808.163 54.4021 803.834 Q49.4368 799.473 49.4368 791.803 Z" fill="#000000" fill-rule="evenodd" fill-opacity="1" /><path clip-path="url(#clip050)" d="M40.1747 759.942 L50.2962 759.942 L50.2962 747.879 L54.8477 747.879 L54.8477 759.942 L74.1994 759.942 Q78.5599 759.942 79.8013 758.765 Q81.0426 757.555 81.0426 753.895 L81.0426 747.879 L85.9442 747.879 L85.9442 753.895 Q85.9442 760.674 83.4297 763.253 Q80.8834 765.831 74.1994 765.831 L54.8477 765.831 L54.8477 770.128 L50.2962 770.128 L50.2962 765.831 L40.1747 765.831 L40.1747 759.942 Z" fill="#000000" fill-rule="evenodd" fill-opacity="1" /><path clip-path="url(#clip050)" d="M40.1747 734.384 L50.2962 734.384 L50.2962 722.321 L54.8477 722.321 L54.8477 734.384 L74.1994 734.384 Q78.5599 734.384 79.8013 733.206 Q81.0426 731.997 81.0426 728.337 L81.0426 722.321 L85.9442 722.321 L85.9442 728.337 Q85.9442 735.116 83.4297 737.694 Q80.8834 740.272 74.1994 740.272 L54.8477 740.272 L54.8477 744.569 L50.2962 744.569 L50.2962 740.272 L40.1747 740.272 L40.1747 734.384 Z" fill="#000000" fill-rule="evenodd" fill-opacity="1" /><path clip-path="url(#clip050)" d="M36.419 714.619 L36.419 708.762 L85.9442 708.762 L85.9442 714.619 L36.419 714.619 Z" fill="#000000" fill-rule="evenodd" fill-opacity="1" /><path clip-path="url(#clip050)" d="M66.6561 666.016 L69.5206 666.016 L69.5206 692.943 Q75.5681 692.561 78.7509 689.315 Q81.9019 686.037 81.9019 680.212 Q81.9019 676.838 81.0744 673.687 Q80.2469 670.504 78.5918 667.385 L84.1299 667.385 Q85.4667 670.536 86.167 673.846 Q86.8672 677.156 86.8672 680.562 Q86.8672 689.092 81.9019 694.089 Q76.9367 699.054 68.4703 699.054 Q59.7174 699.054 54.5931 694.344 Q49.4368 689.601 49.4368 681.581 Q49.4368 674.387 54.0838 670.218 Q58.6989 666.016 66.6561 666.016 M64.9373 671.873 Q60.1312 671.937 57.2666 674.578 Q54.4021 677.188 54.4021 681.517 Q54.4021 686.419 57.1712 689.379 Q59.9402 692.307 64.9692 692.752 L64.9373 671.873 Z" fill="#000000" fill-rule="evenodd" fill-opacity="1" /><path clip-path="url(#clip050)" d="M64.4281 626.772 L85.9442 626.772 L85.9442 632.628 L64.619 632.628 Q59.5583 632.628 57.0438 634.602 Q54.5294 636.575 54.5294 640.522 Q54.5294 645.264 57.5531 648.001 Q60.5768 650.739 65.7967 650.739 L85.9442 650.739 L85.9442 656.627 L50.2962 656.627 L50.2962 650.739 L55.8344 650.739 Q52.6197 648.638 51.0283 645.805 Q49.4368 642.941 49.4368 639.217 Q49.4368 633.074 53.2563 629.923 Q57.0438 626.772 64.4281 626.772 Z" fill="#000000" fill-rule="evenodd" fill-opacity="1" /><path clip-path="url(#clip050)" d="M66.6561 584.599 L69.5206 584.599 L69.5206 611.526 Q75.5681 611.144 78.7509 607.898 Q81.9019 604.619 81.9019 598.795 Q81.9019 595.421 81.0744 592.27 Q80.2469 589.087 78.5918 585.968 L84.1299 585.968 Q85.4667 589.119 86.167 592.429 Q86.8672 595.739 86.8672 599.145 Q86.8672 607.675 81.9019 612.672 Q76.9367 617.637 68.4703 617.637 Q59.7174 617.637 54.5931 612.926 Q49.4368 608.184 49.4368 600.163 Q49.4368 592.97 54.0838 588.8 Q58.6989 584.599 66.6561 584.599 M64.9373 590.455 Q60.1312 590.519 57.2666 593.161 Q54.4021 595.771 54.4021 600.1 Q54.4021 605.001 57.1712 607.961 Q59.9402 610.889 64.9692 611.335 L64.9373 590.455 Z" fill="#000000" fill-rule="evenodd" fill-opacity="1" /><path clip-path="url(#clip050)" d="M51.6648 549.333 L57.1393 549.333 Q55.7707 551.816 55.1023 554.33 Q54.4021 556.813 54.4021 559.359 Q54.4021 565.056 58.0305 568.207 Q61.6272 571.358 68.152 571.358 Q74.6769 571.358 78.3053 568.207 Q81.9019 565.056 81.9019 559.359 Q81.9019 556.813 81.2335 554.33 Q80.5333 551.816 79.1647 549.333 L84.5755 549.333 Q85.7214 551.784 86.2943 554.426 Q86.8672 557.036 86.8672 559.996 Q86.8672 568.048 81.8064 572.791 Q76.7457 577.533 68.152 577.533 Q59.431 577.533 54.4339 572.759 Q49.4368 567.953 49.4368 559.614 Q49.4368 556.908 50.0097 554.33 Q50.5508 551.752 51.6648 549.333 Z" fill="#000000" fill-rule="evenodd" fill-opacity="1" /><path clip-path="url(#clip050)" d="M36.419 539.371 L36.419 533.482 L65.6694 533.482 L50.2962 516.009 L50.2962 508.529 L66.9744 527.435 L85.9442 507.733 L85.9442 515.372 L68.5339 533.482 L85.9442 533.482 L85.9442 539.371 L36.419 539.371 Z" fill="#000000" fill-rule="evenodd" fill-opacity="1" /><path clip-path="url(#clip050)" d="M55.7071 457.221 L36.419 457.221 L36.419 451.365 L85.9442 451.365 L85.9442 457.221 L80.597 457.221 Q83.7798 459.067 85.3394 461.9 Q86.8672 464.701 86.8672 468.648 Q86.8672 475.109 81.711 479.183 Q76.5547 483.225 68.152 483.225 Q59.7493 483.225 54.5931 479.183 Q49.4368 475.109 49.4368 468.648 Q49.4368 464.701 50.9964 461.9 Q52.5242 459.067 55.7071 457.221 M68.152 477.178 Q74.6132 477.178 78.3053 474.536 Q81.9656 471.862 81.9656 467.215 Q81.9656 462.568 78.3053 459.895 Q74.6132 457.221 68.152 457.221 Q61.6908 457.221 58.0305 459.895 Q54.3384 462.568 54.3384 467.215 Q54.3384 471.862 58.0305 474.536 Q61.6908 477.178 68.152 477.178 Z" fill="#000000" fill-rule="evenodd" fill-opacity="1" /><path clip-path="url(#clip050)" d="M50.2962 439.302 L50.2962 433.445 L85.9442 433.445 L85.9442 439.302 L50.2962 439.302 M36.419 439.302 L36.419 433.445 L43.835 433.445 L43.835 439.302 L36.419 439.302 Z" fill="#000000" fill-rule="evenodd" fill-opacity="1" /><path clip-path="url(#clip050)" d="M51.3465 398.466 L56.8847 398.466 Q55.6116 400.948 54.975 403.622 Q54.3384 406.296 54.3384 409.16 Q54.3384 413.521 55.6752 415.717 Q57.012 417.881 59.6856 417.881 Q61.7226 417.881 62.9003 416.322 Q64.0461 414.762 65.0965 410.051 L65.5421 408.046 Q66.8789 401.808 69.3297 399.198 Q71.7486 396.556 76.1091 396.556 Q81.0744 396.556 83.9708 400.503 Q86.8672 404.418 86.8672 411.293 Q86.8672 414.157 86.2943 417.276 Q85.7532 420.364 84.6392 423.801 L78.5918 423.801 Q80.2787 420.555 81.138 417.404 Q81.9656 414.253 81.9656 411.165 Q81.9656 407.028 80.5651 404.8 Q79.1329 402.572 76.5547 402.572 Q74.1676 402.572 72.8945 404.195 Q71.6213 405.786 70.4437 411.229 L69.9662 413.266 Q68.8204 418.709 66.4651 421.128 Q64.078 423.547 59.9402 423.547 Q54.9113 423.547 52.1741 419.982 Q49.4368 416.417 49.4368 409.86 Q49.4368 406.614 49.9143 403.749 Q50.3917 400.885 51.3465 398.466 Z" fill="#000000" fill-rule="evenodd" fill-opacity="1" /><path clip-path="url(#clip050)" d="M40.1747 381.438 L50.2962 381.438 L50.2962 369.375 L54.8477 369.375 L54.8477 381.438 L74.1994 381.438 Q78.5599 381.438 79.8013 380.26 Q81.0426 379.05 81.0426 375.39 L81.0426 369.375 L85.9442 369.375 L85.9442 375.39 Q85.9442 382.17 83.4297 384.748 Q80.8834 387.326 74.1994 387.326 L54.8477 387.326 L54.8477 391.623 L50.2962 391.623 L50.2962 387.326 L40.1747 387.326 L40.1747 381.438 Z" fill="#000000" fill-rule="evenodd" fill-opacity="1" /><path clip-path="url(#clip050)" d="M68.0247 345.471 Q68.0247 352.569 69.6479 355.306 Q71.2712 358.044 75.1861 358.044 Q78.3053 358.044 80.1514 356.007 Q81.9656 353.938 81.9656 350.405 Q81.9656 345.535 78.5281 342.607 Q75.0588 339.647 69.3297 339.647 L68.0247 339.647 L68.0247 345.471 M65.6057 333.79 L85.9442 333.79 L85.9442 339.647 L80.5333 339.647 Q83.7798 341.652 85.3394 344.644 Q86.8672 347.636 86.8672 351.964 Q86.8672 357.439 83.8116 360.685 Q80.7243 363.9 75.5681 363.9 Q69.5525 363.9 66.4969 359.89 Q63.4414 355.847 63.4414 347.858 L63.4414 339.647 L62.8685 339.647 Q58.8262 339.647 56.6301 342.32 Q54.4021 344.962 54.4021 349.768 Q54.4021 352.824 55.1341 355.72 Q55.8662 358.616 57.3303 361.29 L51.9195 361.29 Q50.6781 358.075 50.0734 355.052 Q49.4368 352.028 49.4368 349.163 Q49.4368 341.429 53.4472 337.61 Q57.4576 333.79 65.6057 333.79 Z" fill="#000000" fill-rule="evenodd" fill-opacity="1" /><path clip-path="url(#clip050)" d="M64.4281 292.095 L85.9442 292.095 L85.9442 297.951 L64.619 297.951 Q59.5583 297.951 57.0438 299.925 Q54.5294 301.898 54.5294 305.845 Q54.5294 310.587 57.5531 313.324 Q60.5768 316.062 65.7967 316.062 L85.9442 316.062 L85.9442 321.95 L50.2962 321.95 L50.2962 316.062 L55.8344 316.062 Q52.6197 313.961 51.0283 311.128 Q49.4368 308.264 49.4368 304.54 Q49.4368 298.397 53.2563 295.246 Q57.0438 292.095 64.4281 292.095 Z" fill="#000000" fill-rule="evenodd" fill-opacity="1" /><path clip-path="url(#clip050)" d="M51.6648 254.76 L57.1393 254.76 Q55.7707 257.243 55.1023 259.757 Q54.4021 262.24 54.4021 264.786 Q54.4021 270.483 58.0305 273.634 Q61.6272 276.785 68.152 276.785 Q74.6769 276.785 78.3053 273.634 Q81.9019 270.483 81.9019 264.786 Q81.9019 262.24 81.2335 259.757 Q80.5333 257.243 79.1647 254.76 L84.5755 254.76 Q85.7214 257.211 86.2943 259.853 Q86.8672 262.462 86.8672 265.423 Q86.8672 273.475 81.8064 278.218 Q76.7457 282.96 68.152 282.96 Q59.431 282.96 54.4339 278.186 Q49.4368 273.38 49.4368 265.041 Q49.4368 262.335 50.0097 259.757 Q50.5508 257.179 51.6648 254.76 Z" fill="#000000" fill-rule="evenodd" fill-opacity="1" /><path clip-path="url(#clip050)" d="M66.6561 214.083 L69.5206 214.083 L69.5206 241.01 Q75.5681 240.628 78.7509 237.382 Q81.9019 234.103 81.9019 228.279 Q81.9019 224.905 81.0744 221.754 Q80.2469 218.571 78.5918 215.452 L84.1299 215.452 Q85.4667 218.603 86.167 221.913 Q86.8672 225.223 86.8672 228.629 Q86.8672 237.159 81.9019 242.156 Q76.9367 247.121 68.4703 247.121 Q59.7174 247.121 54.5931 242.41 Q49.4368 237.668 49.4368 229.647 Q49.4368 222.454 54.0838 218.284 Q58.6989 214.083 66.6561 214.083 M64.9373 219.94 Q60.1312 220.003 57.2666 222.645 Q54.4021 225.255 54.4021 229.584 Q54.4021 234.485 57.1712 237.445 Q59.9402 240.373 64.9692 240.819 L64.9373 219.94 Z" fill="#000000" fill-rule="evenodd" fill-opacity="1" /><polyline clip-path="url(#clip052)" style="stroke:#009af9; stroke-linecap:butt; stroke-linejoin:round; stroke-width:4; stroke-opacity:0; fill:none" points="
  255.588,989.476 339.547,989.476 423.506,989.476 507.465,989.476 591.424,989.476 675.383,989.476 759.342,989.476 843.302,989.476 927.261,989.476 1011.22,989.476 
  1095.18,989.476 1179.14,989.476 1263.1,989.476 1347.06,989.476 1431.02,989.476 1514.97,989.476 
  "/>
<path clip-path="url(#clip052)" d="
M255.588 473.581 L339.547 602.015 L423.506 233.238 L507.465 812.646 L591.424 912.066 L675.383 939.082 L759.342 960.386 L843.302 972.198 L927.261 978.883 L1011.22 982.757 
  L1095.18 985.378 L1179.14 987.018 L1263.1 987.968 L1347.06 988.551 L1431.02 988.91 L1514.97 989.131 L1514.97 989.131 L1431.02 988.91 L1347.06 988.551 L1263.1 987.968 
  L1179.14 987.018 L1095.18 985.378 L1011.22 982.757 L927.261 978.883 L843.302 972.198 L759.342 960.386 L675.383 939.082 L591.424 912.066 L507.465 812.646 L423.506 233.238 
  L339.547 602.015 L255.588 473.581  Z
  " fill="#e26f46" fill-rule="evenodd" fill-opacity="0.5"/>
<polyline clip-path="url(#clip052)" style="stroke:#e26f46; stroke-linecap:butt; stroke-linejoin:round; stroke-width:4; stroke-opacity:1; fill:none" points="
  255.588,473.581 339.547,602.015 423.506,233.238 507.465,812.646 591.424,912.066 675.383,939.082 759.342,960.386 843.302,972.198 927.261,978.883 1011.22,982.757 
  1095.18,985.378 1179.14,987.018 1263.1,987.968 1347.06,988.551 1431.02,988.91 1514.97,989.131 
  "/>
<path clip-path="url(#clip052)" d="M255.588 489.581 L244.276 484.893 L239.588 473.581 L244.276 462.269 L255.588 457.581 L266.9 462.269 L271.588 473.581 L266.9 484.893 Z" fill="#e26f46" fill-rule="evenodd" fill-opacity="1" stroke="#000000" stroke-opacity="1" stroke-width="2.4"/>
<path clip-path="url(#clip052)" d="M339.547 618.015 L328.235 613.327 L323.547 602.015 L328.235 590.703 L339.547 586.015 L350.859 590.703 L355.547 602.015 L350.859 613.327 Z" fill="#e26f46" fill-rule="evenodd" fill-opacity="1" stroke="#000000" stroke-opacity="1" stroke-width="2.4"/>
<path clip-path="url(#clip052)" d="M423.506 249.238 L412.194 244.55 L407.506 233.238 L412.194 221.926 L423.506 217.238 L434.818 221.926 L439.506 233.238 L434.818 244.55 Z" fill="#e26f46" fill-rule="evenodd" fill-opacity="1" stroke="#000000" stroke-opacity="1" stroke-width="2.4"/>
<path clip-path="url(#clip052)" d="M507.465 828.646 L496.153 823.958 L491.465 812.646 L496.153 801.334 L507.465 796.646 L518.777 801.334 L523.465 812.646 L518.777 823.958 Z" fill="#e26f46" fill-rule="evenodd" fill-opacity="1" stroke="#000000" stroke-opacity="1" stroke-width="2.4"/>
<path clip-path="url(#clip052)" d="M591.424 928.066 L580.112 923.378 L575.424 912.066 L580.112 900.754 L591.424 896.066 L602.736 900.754 L607.424 912.066 L602.736 923.378 Z" fill="#e26f46" fill-rule="evenodd" fill-opacity="1" stroke="#000000" stroke-opacity="1" stroke-width="2.4"/>
<path clip-path="url(#clip052)" d="M675.383 955.082 L664.071 950.394 L659.383 939.082 L664.071 927.77 L675.383 923.082 L686.695 927.77 L691.383 939.082 L686.695 950.394 Z" fill="#e26f46" fill-rule="evenodd" fill-opacity="1" stroke="#000000" stroke-opacity="1" stroke-width="2.4"/>
<path clip-path="url(#clip052)" d="M759.342 976.386 L748.03 971.698 L743.342 960.386 L748.03 949.074 L759.342 944.386 L770.654 949.074 L775.342 960.386 L770.654 971.698 Z" fill="#e26f46" fill-rule="evenodd" fill-opacity="1" stroke="#000000" stroke-opacity="1" stroke-width="2.4"/>
<path clip-path="url(#clip052)" d="M843.302 988.198 L831.99 983.51 L827.302 972.198 L831.99 960.886 L843.302 956.198 L854.614 960.886 L859.302 972.198 L854.614 983.51 Z" fill="#e26f46" fill-rule="evenodd" fill-opacity="1" stroke="#000000" stroke-opacity="1" stroke-width="2.4"/>
<path clip-path="url(#clip052)" d="M927.261 994.883 L915.949 990.195 L911.261 978.883 L915.949 967.571 L927.261 962.883 L938.573 967.571 L943.261 978.883 L938.573 990.195 Z" fill="#e26f46" fill-rule="evenodd" fill-opacity="1" stroke="#000000" stroke-opacity="1" stroke-width="2.4"/>
<path clip-path="url(#clip052)" d="M1011.22 998.757 L999.908 994.069 L995.22 982.757 L999.908 971.445 L1011.22 966.757 L1022.53 971.445 L1027.22 982.757 L1022.53 994.069 Z" fill="#e26f46" fill-rule="evenodd" fill-opacity="1" stroke="#000000" stroke-opacity="1" stroke-width="2.4"/>
<path clip-path="url(#clip052)" d="M1095.18 1001.38 L1083.87 996.69 L1079.18 985.378 L1083.87 974.066 L1095.18 969.378 L1106.49 974.066 L1111.18 985.378 L1106.49 996.69 Z" fill="#e26f46" fill-rule="evenodd" fill-opacity="1" stroke="#000000" stroke-opacity="1" stroke-width="2.4"/>
<path clip-path="url(#clip052)" d="M1179.14 1003.02 L1167.83 998.33 L1163.14 987.018 L1167.83 975.706 L1179.14 971.018 L1190.45 975.706 L1195.14 987.018 L1190.45 998.33 Z" fill="#e26f46" fill-rule="evenodd" fill-opacity="1" stroke="#000000" stroke-opacity="1" stroke-width="2.4"/>
<path clip-path="url(#clip052)" d="M1263.1 1003.97 L1251.79 999.28 L1247.1 987.968 L1251.79 976.656 L1263.1 971.968 L1274.41 976.656 L1279.1 987.968 L1274.41 999.28 Z" fill="#e26f46" fill-rule="evenodd" fill-opacity="1" stroke="#000000" stroke-opacity="1" stroke-width="2.4"/>
<path clip-path="url(#clip052)" d="M1347.06 1004.55 L1335.74 999.863 L1331.06 988.551 L1335.74 977.239 L1347.06 972.551 L1358.37 977.239 L1363.06 988.551 L1358.37 999.863 Z" fill="#e26f46" fill-rule="evenodd" fill-opacity="1" stroke="#000000" stroke-opacity="1" stroke-width="2.4"/>
<path clip-path="url(#clip052)" d="M1431.02 1004.91 L1419.7 1000.22 L1415.02 988.91 L1419.7 977.598 L1431.02 972.91 L1442.33 977.598 L1447.02 988.91 L1442.33 1000.22 Z" fill="#e26f46" fill-rule="evenodd" fill-opacity="1" stroke="#000000" stroke-opacity="1" stroke-width="2.4"/>
<path clip-path="url(#clip052)" d="M1514.97 1005.13 L1503.66 1000.44 L1498.97 989.131 L1503.66 977.819 L1514.97 973.131 L1526.29 977.819 L1530.97 989.131 L1526.29 1000.44 Z" fill="#e26f46" fill-rule="evenodd" fill-opacity="1" stroke="#000000" stroke-opacity="1" stroke-width="2.4"/>
<path clip-path="url(#clip052)" d="
M255.588 512.084 L339.547 74.6877 L423.506 153.582 L507.465 473.927 L591.424 779.907 L675.383 790.462 L759.342 855.748 L843.302 917.648 L927.261 961.411 L1011.22 972.44 
  L1095.18 972.44 L1179.14 989.476 L1263.1 989.476 L1347.06 989.476 L1431.02 989.476 L1514.97 989.476 L1514.97 989.476 L1431.02 989.476 L1347.06 989.476 L1263.1 989.476 
  L1179.14 989.476 L1095.18 972.44 L1011.22 972.44 L927.261 961.411 L843.302 917.648 L759.342 855.748 L675.383 790.462 L591.424 779.907 L507.465 473.927 L423.506 153.582 
  L339.547 74.6877 L255.588 512.084  Z
  " fill="#3da44d" fill-rule="evenodd" fill-opacity="0.5"/>
<polyline clip-path="url(#clip052)" style="stroke:#3da44d; stroke-linecap:butt; stroke-linejoin:round; stroke-width:4; stroke-opacity:1; fill:none" points="
  255.588,512.084 339.547,74.6877 423.506,153.582 507.465,473.927 591.424,779.907 675.383,790.462 759.342,855.748 843.302,917.648 927.261,961.411 1011.22,972.44 
  1095.18,972.44 1179.14,989.476 1263.1,989.476 1347.06,989.476 1431.02,989.476 1514.97,989.476 
  "/>
<path clip-path="url(#clip052)" d="M255.588 528.084 L244.276 523.396 L239.588 512.084 L244.276 500.772 L255.588 496.084 L266.9 500.772 L271.588 512.084 L266.9 523.396 Z" fill="#3da44d" fill-rule="evenodd" fill-opacity="1" stroke="#000000" stroke-opacity="1" stroke-width="2.4"/>
<path clip-path="url(#clip052)" d="M339.547 90.6877 L328.235 85.9997 L323.547 74.6877 L328.235 63.3757 L339.547 58.6877 L350.859 63.3757 L355.547 74.6877 L350.859 85.9997 Z" fill="#3da44d" fill-rule="evenodd" fill-opacity="1" stroke="#000000" stroke-opacity="1" stroke-width="2.4"/>
<path clip-path="url(#clip052)" d="M423.506 169.582 L412.194 164.894 L407.506 153.582 L412.194 142.27 L423.506 137.582 L434.818 142.27 L439.506 153.582 L434.818 164.894 Z" fill="#3da44d" fill-rule="evenodd" fill-opacity="1" stroke="#000000" stroke-opacity="1" stroke-width="2.4"/>
<path clip-path="url(#clip052)" d="M507.465 489.927 L496.153 485.239 L491.465 473.927 L496.153 462.615 L507.465 457.927 L518.777 462.615 L523.465 473.927 L518.777 485.239 Z" fill="#3da44d" fill-rule="evenodd" fill-opacity="1" stroke="#000000" stroke-opacity="1" stroke-width="2.4"/>
<path clip-path="url(#clip052)" d="M591.424 795.907 L580.112 791.219 L575.424 779.907 L580.112 768.595 L591.424 763.907 L602.736 768.595 L607.424 779.907 L602.736 791.219 Z" fill="#3da44d" fill-rule="evenodd" fill-opacity="1" stroke="#000000" stroke-opacity="1" stroke-width="2.4"/>
<path clip-path="url(#clip052)" d="M675.383 806.462 L664.071 801.774 L659.383 790.462 L664.071 779.15 L675.383 774.462 L686.695 779.15 L691.383 790.462 L686.695 801.774 Z" fill="#3da44d" fill-rule="evenodd" fill-opacity="1" stroke="#000000" stroke-opacity="1" stroke-width="2.4"/>
<path clip-path="url(#clip052)" d="M759.342 871.748 L748.03 867.06 L743.342 855.748 L748.03 844.436 L759.342 839.748 L770.654 844.436 L775.342 855.748 L770.654 867.06 Z" fill="#3da44d" fill-rule="evenodd" fill-opacity="1" stroke="#000000" stroke-opacity="1" stroke-width="2.4"/>
<path clip-path="url(#clip052)" d="M843.302 933.648 L831.99 928.96 L827.302 917.648 L831.99 906.336 L843.302 901.648 L854.614 906.336 L859.302 917.648 L854.614 928.96 Z" fill="#3da44d" fill-rule="evenodd" fill-opacity="1" stroke="#000000" stroke-opacity="1" stroke-width="2.4"/>
<path clip-path="url(#clip052)" d="M927.261 977.411 L915.949 972.723 L911.261 961.411 L915.949 950.099 L927.261 945.411 L938.573 950.099 L943.261 961.411 L938.573 972.723 Z" fill="#3da44d" fill-rule="evenodd" fill-opacity="1" stroke="#000000" stroke-opacity="1" stroke-width="2.4"/>
<path clip-path="url(#clip052)" d="M1011.22 988.44 L999.908 983.752 L995.22 972.44 L999.908 961.128 L1011.22 956.44 L1022.53 961.128 L1027.22 972.44 L1022.53 983.752 Z" fill="#3da44d" fill-rule="evenodd" fill-opacity="1" stroke="#000000" stroke-opacity="1" stroke-width="2.4"/>
<path clip-path="url(#clip052)" d="M1095.18 988.44 L1083.87 983.752 L1079.18 972.44 L1083.87 961.128 L1095.18 956.44 L1106.49 961.128 L1111.18 972.44 L1106.49 983.752 Z" fill="#3da44d" fill-rule="evenodd" fill-opacity="1" stroke="#000000" stroke-opacity="1" stroke-width="2.4"/>
<path clip-path="url(#clip052)" d="M1179.14 1005.48 L1167.83 1000.79 L1163.14 989.476 L1167.83 978.164 L1179.14 973.476 L1190.45 978.164 L1195.14 989.476 L1190.45 1000.79 Z" fill="#3da44d" fill-rule="evenodd" fill-opacity="1" stroke="#000000" stroke-opacity="1" stroke-width="2.4"/>
<path clip-path="url(#clip052)" d="M1263.1 1005.48 L1251.79 1000.79 L1247.1 989.476 L1251.79 978.164 L1263.1 973.476 L1274.41 978.164 L1279.1 989.476 L1274.41 1000.79 Z" fill="#3da44d" fill-rule="evenodd" fill-opacity="1" stroke="#000000" stroke-opacity="1" stroke-width="2.4"/>
<path clip-path="url(#clip052)" d="M1347.06 1005.48 L1335.74 1000.79 L1331.06 989.476 L1335.74 978.164 L1347.06 973.476 L1358.37 978.164 L1363.06 989.476 L1358.37 1000.79 Z" fill="#3da44d" fill-rule="evenodd" fill-opacity="1" stroke="#000000" stroke-opacity="1" stroke-width="2.4"/>
<path clip-path="url(#clip052)" d="M1431.02 1005.48 L1419.7 1000.79 L1415.02 989.476 L1419.7 978.164 L1431.02 973.476 L1442.33 978.164 L1447.02 989.476 L1442.33 1000.79 Z" fill="#3da44d" fill-rule="evenodd" fill-opacity="1" stroke="#000000" stroke-opacity="1" stroke-width="2.4"/>
<path clip-path="url(#clip052)" d="M1514.97 1005.48 L1503.66 1000.79 L1498.97 989.476 L1503.66 978.164 L1514.97 973.476 L1526.29 978.164 L1530.97 989.476 L1526.29 1000.79 Z" fill="#3da44d" fill-rule="evenodd" fill-opacity="1" stroke="#000000" stroke-opacity="1" stroke-width="2.4"/>
<path clip-path="url(#clip050)" d="
M1106.92 286.927 L1508.26 286.927 L1508.26 79.5666 L1106.92 79.5666  Z
  " fill="#ffffff" fill-rule="evenodd" fill-opacity="1"/>
<polyline clip-path="url(#clip050)" style="stroke:#000000; stroke-linecap:butt; stroke-linejoin:round; stroke-width:4; stroke-opacity:1; fill:none" points="
  1106.92,286.927 1508.26,286.927 1508.26,79.5666 1106.92,79.5666 1106.92,286.927 
  "/>
<polyline clip-path="url(#clip050)" style="stroke:#009af9; stroke-linecap:butt; stroke-linejoin:round; stroke-width:4; stroke-opacity:0; fill:none" points="
  1121.75,131.407 1210.75,131.407 
  "/>
<path clip-path="url(#clip050)" d="M1247.3 133.039 L1247.3 148.687 L1243.04 148.687 L1243.04 133.177 Q1243.04 129.497 1241.6 127.668 Q1240.17 125.84 1237.3 125.84 Q1233.85 125.84 1231.86 128.039 Q1229.87 130.238 1229.87 134.034 L1229.87 148.687 L1225.58 148.687 L1225.58 122.761 L1229.87 122.761 L1229.87 126.789 Q1231.39 124.451 1233.45 123.293 Q1235.54 122.136 1238.25 122.136 Q1242.71 122.136 1245.01 124.914 Q1247.3 127.668 1247.3 133.039 Z" fill="#000000" fill-rule="evenodd" fill-opacity="1" /><path clip-path="url(#clip050)" d="M1256.35 127.159 L1286.02 127.159 L1286.02 131.048 L1256.35 131.048 L1256.35 127.159 M1256.35 136.603 L1286.02 136.603 L1286.02 140.539 L1256.35 140.539 L1256.35 136.603 Z" fill="#000000" fill-rule="evenodd" fill-opacity="1" /><path clip-path="url(#clip050)" d="M1296.16 114.127 L1314.52 114.127 L1314.52 118.062 L1300.44 118.062 L1300.44 126.534 Q1301.46 126.187 1302.48 126.025 Q1303.5 125.84 1304.52 125.84 Q1310.31 125.84 1313.69 129.011 Q1317.07 132.182 1317.07 137.599 Q1317.07 143.177 1313.59 146.279 Q1310.12 149.358 1303.8 149.358 Q1301.63 149.358 1299.36 148.988 Q1297.11 148.617 1294.7 147.876 L1294.7 143.177 Q1296.79 144.312 1299.01 144.867 Q1301.23 145.423 1303.71 145.423 Q1307.71 145.423 1310.05 143.316 Q1312.39 141.21 1312.39 137.599 Q1312.39 133.988 1310.05 131.881 Q1307.71 129.775 1303.71 129.775 Q1301.83 129.775 1299.96 130.191 Q1298.11 130.608 1296.16 131.488 L1296.16 114.127 Z" fill="#000000" fill-rule="evenodd" fill-opacity="1" /><path clip-path="url(#clip050)" d="M1336.28 117.205 Q1332.67 117.205 1330.84 120.77 Q1329.03 124.312 1329.03 131.441 Q1329.03 138.548 1330.84 142.113 Q1332.67 145.654 1336.28 145.654 Q1339.91 145.654 1341.72 142.113 Q1343.55 138.548 1343.55 131.441 Q1343.55 124.312 1341.72 120.77 Q1339.91 117.205 1336.28 117.205 M1336.28 113.502 Q1342.09 113.502 1345.14 118.108 Q1348.22 122.691 1348.22 131.441 Q1348.22 140.168 1345.14 144.775 Q1342.09 149.358 1336.28 149.358 Q1330.47 149.358 1327.39 144.775 Q1324.33 140.168 1324.33 131.441 Q1324.33 122.691 1327.39 118.108 Q1330.47 113.502 1336.28 113.502 Z" fill="#000000" fill-rule="evenodd" fill-opacity="1" /><path clip-path="url(#clip050)" d="M1366.44 117.205 Q1362.83 117.205 1361 120.77 Q1359.19 124.312 1359.19 131.441 Q1359.19 138.548 1361 142.113 Q1362.83 145.654 1366.44 145.654 Q1370.07 145.654 1371.88 142.113 Q1373.71 138.548 1373.71 131.441 Q1373.71 124.312 1371.88 120.77 Q1370.07 117.205 1366.44 117.205 M1366.44 113.502 Q1372.25 113.502 1375.31 118.108 Q1378.38 122.691 1378.38 131.441 Q1378.38 140.168 1375.31 144.775 Q1372.25 149.358 1366.44 149.358 Q1360.63 149.358 1357.55 144.775 Q1354.5 140.168 1354.5 131.441 Q1354.5 122.691 1357.55 118.108 Q1360.63 113.502 1366.44 113.502 Z" fill="#000000" fill-rule="evenodd" fill-opacity="1" /><polyline clip-path="url(#clip050)" style="stroke:#e26f46; stroke-linecap:butt; stroke-linejoin:round; stroke-width:4; stroke-opacity:1; fill:none" points="
  1121.75,183.247 1210.75,183.247 
  "/>
<path clip-path="url(#clip050)" d="M1166.25 208.847 L1148.15 201.346 L1140.65 183.247 L1148.15 165.147 L1166.25 157.647 L1184.35 165.147 L1191.85 183.247 L1184.35 201.346 Z" fill="#e26f46" fill-rule="evenodd" fill-opacity="1" stroke="#000000" stroke-opacity="1" stroke-width="3.84"/>
<path clip-path="url(#clip050)" d="M1245.75 178.721 Q1244.89 178.42 1244.03 178.189 Q1241.74 177.587 1239.29 177.587 Q1235.05 177.587 1232.69 179.879 Q1230.49 182.008 1230.07 185.92 L1245.75 185.92 L1245.75 189.254 L1230.07 189.254 Q1230.49 193.166 1232.69 195.295 Q1235.05 197.587 1239.29 197.587 Q1242.25 197.587 1244.03 196.985 L1245.75 196.406 L1245.75 200.272 L1243.92 200.689 Q1241.51 201.198 1239.03 201.198 Q1232.83 201.198 1229.22 197.587 Q1225.58 193.976 1225.58 187.587 Q1225.58 181.198 1229.22 177.587 Q1232.83 173.976 1239.03 173.976 Q1241.37 173.976 1243.92 174.485 Q1244.84 174.67 1245.75 174.948 L1245.75 178.721 Z" fill="#000000" fill-rule="evenodd" fill-opacity="1" /><path clip-path="url(#clip050)" d="M1271.51 164.508 L1275.79 164.508 L1275.79 185.781 L1288.5 174.601 L1293.94 174.601 L1280.19 186.73 L1294.52 200.527 L1288.96 200.527 L1275.79 187.865 L1275.79 200.527 L1271.51 200.527 L1271.51 164.508 Z" fill="#000000" fill-rule="evenodd" fill-opacity="1" /><path clip-path="url(#clip050)" d="M1320.68 184.879 L1320.68 200.527 L1316.42 200.527 L1316.42 185.017 Q1316.42 181.337 1314.98 179.508 Q1313.55 177.68 1310.68 177.68 Q1307.23 177.68 1305.24 179.879 Q1303.25 182.078 1303.25 185.874 L1303.25 200.527 L1298.96 200.527 L1298.96 174.601 L1303.25 174.601 L1303.25 178.629 Q1304.77 176.291 1306.83 175.133 Q1308.92 173.976 1311.63 173.976 Q1316.09 173.976 1318.38 176.754 Q1320.68 179.508 1320.68 184.879 Z" fill="#000000" fill-rule="evenodd" fill-opacity="1" /><path clip-path="url(#clip050)" d="M1339.22 177.587 Q1335.79 177.587 1333.8 180.272 Q1331.81 182.934 1331.81 187.587 Q1331.81 192.24 1333.78 194.925 Q1335.77 197.587 1339.22 197.587 Q1342.62 197.587 1344.61 194.902 Q1346.6 192.216 1346.6 187.587 Q1346.6 182.98 1344.61 180.295 Q1342.62 177.587 1339.22 177.587 M1339.22 173.976 Q1344.77 173.976 1347.94 177.587 Q1351.12 181.198 1351.12 187.587 Q1351.12 193.953 1347.94 197.587 Q1344.77 201.198 1339.22 201.198 Q1333.64 201.198 1330.47 197.587 Q1327.32 193.953 1327.32 187.587 Q1327.32 181.198 1330.47 177.587 Q1333.64 173.976 1339.22 173.976 Z" fill="#000000" fill-rule="evenodd" fill-opacity="1" /><path clip-path="url(#clip050)" d="M1355.7 174.601 L1359.96 174.601 L1365.28 194.832 L1370.58 174.601 L1375.61 174.601 L1380.93 194.832 L1386.23 174.601 L1390.49 174.601 L1383.71 200.527 L1378.69 200.527 L1373.11 179.277 L1367.5 200.527 L1362.48 200.527 L1355.7 174.601 Z" fill="#000000" fill-rule="evenodd" fill-opacity="1" /><path clip-path="url(#clip050)" d="M1418.5 184.879 L1418.5 200.527 L1414.24 200.527 L1414.24 185.017 Q1414.24 181.337 1412.81 179.508 Q1411.37 177.68 1408.5 177.68 Q1405.05 177.68 1403.06 179.879 Q1401.07 182.078 1401.07 185.874 L1401.07 200.527 L1396.79 200.527 L1396.79 174.601 L1401.07 174.601 L1401.07 178.629 Q1402.6 176.291 1404.66 175.133 Q1406.74 173.976 1409.45 173.976 Q1413.92 173.976 1416.21 176.754 Q1418.5 179.508 1418.5 184.879 Z" fill="#000000" fill-rule="evenodd" fill-opacity="1" /><polyline clip-path="url(#clip050)" style="stroke:#3da44d; stroke-linecap:butt; stroke-linejoin:round; stroke-width:4; stroke-opacity:1; fill:none" points="
  1121.75,235.087 1210.75,235.087 
  "/>
<path clip-path="url(#clip050)" d="M1166.25 260.687 L1148.15 253.186 L1140.65 235.087 L1148.15 216.987 L1166.25 209.487 L1184.35 216.987 L1191.85 235.087 L1184.35 253.186 Z" fill="#3da44d" fill-rule="evenodd" fill-opacity="1" stroke="#000000" stroke-opacity="1" stroke-width="3.84"/>
<path clip-path="url(#clip050)" d="M1245.75 230.561 Q1244.89 230.26 1244.03 230.029 Q1241.74 229.427 1239.29 229.427 Q1235.05 229.427 1232.69 231.719 Q1230.49 233.848 1230.07 237.76 L1245.75 237.76 L1245.75 241.094 L1230.07 241.094 Q1230.49 245.006 1232.69 247.135 Q1235.05 249.427 1239.29 249.427 Q1242.25 249.427 1244.03 248.825 L1245.75 248.246 L1245.75 252.112 L1243.92 252.529 Q1241.51 253.038 1239.03 253.038 Q1232.83 253.038 1229.22 249.427 Q1225.58 245.816 1225.58 239.427 Q1225.58 233.038 1229.22 229.427 Q1232.83 225.816 1239.03 225.816 Q1241.37 225.816 1243.92 226.325 Q1244.84 226.51 1245.75 226.788 L1245.75 230.561 Z" fill="#000000" fill-rule="evenodd" fill-opacity="1" /><path clip-path="url(#clip050)" d="M1271.23 242.135 L1271.23 226.441 L1275.49 226.441 L1275.49 241.973 Q1275.49 245.654 1276.93 247.506 Q1278.36 249.334 1281.23 249.334 Q1284.68 249.334 1286.67 247.135 Q1288.69 244.936 1288.69 241.14 L1288.69 226.441 L1292.94 226.441 L1292.94 252.367 L1288.69 252.367 L1288.69 248.385 Q1287.13 250.746 1285.07 251.904 Q1283.04 253.038 1280.33 253.038 Q1275.86 253.038 1273.55 250.26 Q1271.23 247.482 1271.23 242.135 M1281.95 225.816 L1281.95 225.816 Z" fill="#000000" fill-rule="evenodd" fill-opacity="1" /><path clip-path="url(#clip050)" d="M1323.27 236.719 L1323.27 252.367 L1319.01 252.367 L1319.01 236.857 Q1319.01 233.177 1317.57 231.348 Q1316.14 229.52 1313.27 229.52 Q1309.82 229.52 1307.83 231.719 Q1305.84 233.918 1305.84 237.714 L1305.84 252.367 L1301.56 252.367 L1301.56 226.441 L1305.84 226.441 L1305.84 230.469 Q1307.37 228.131 1309.43 226.973 Q1311.51 225.816 1314.22 225.816 Q1318.69 225.816 1320.98 228.594 Q1323.27 231.348 1323.27 236.719 Z" fill="#000000" fill-rule="evenodd" fill-opacity="1" /><path clip-path="url(#clip050)" d="M1331.6 216.348 L1335.88 216.348 L1335.88 237.621 L1348.59 226.441 L1354.03 226.441 L1340.28 238.57 L1354.61 252.367 L1349.06 252.367 L1335.88 239.705 L1335.88 252.367 L1331.6 252.367 L1331.6 216.348 Z" fill="#000000" fill-rule="evenodd" fill-opacity="1" /><path clip-path="url(#clip050)" d="M1380.77 236.719 L1380.77 252.367 L1376.51 252.367 L1376.51 236.857 Q1376.51 233.177 1375.07 231.348 Q1373.64 229.52 1370.77 229.52 Q1367.32 229.52 1365.33 231.719 Q1363.34 233.918 1363.34 237.714 L1363.34 252.367 L1359.06 252.367 L1359.06 226.441 L1363.34 226.441 L1363.34 230.469 Q1364.87 228.131 1366.93 226.973 Q1369.01 225.816 1371.72 225.816 Q1376.19 225.816 1378.48 228.594 Q1380.77 231.348 1380.77 236.719 Z" fill="#000000" fill-rule="evenodd" fill-opacity="1" /><path clip-path="url(#clip050)" d="M1399.31 229.427 Q1395.88 229.427 1393.89 232.112 Q1391.9 234.774 1391.9 239.427 Q1391.9 244.08 1393.87 246.765 Q1395.86 249.427 1399.31 249.427 Q1402.71 249.427 1404.7 246.742 Q1406.69 244.056 1406.69 239.427 Q1406.69 234.82 1404.7 232.135 Q1402.71 229.427 1399.31 229.427 M1399.31 225.816 Q1404.87 225.816 1408.04 229.427 Q1411.21 233.038 1411.21 239.427 Q1411.21 245.793 1408.04 249.427 Q1404.87 253.038 1399.31 253.038 Q1393.73 253.038 1390.56 249.427 Q1387.41 245.793 1387.41 239.427 Q1387.41 233.038 1390.56 229.427 Q1393.73 225.816 1399.31 225.816 Z" fill="#000000" fill-rule="evenodd" fill-opacity="1" /><path clip-path="url(#clip050)" d="M1415.79 226.441 L1420.05 226.441 L1425.37 246.672 L1430.68 226.441 L1435.7 226.441 L1441.02 246.672 L1446.32 226.441 L1450.58 226.441 L1443.8 252.367 L1438.78 252.367 L1433.2 231.117 L1427.6 252.367 L1422.57 252.367 L1415.79 226.441 Z" fill="#000000" fill-rule="evenodd" fill-opacity="1" /><path clip-path="url(#clip050)" d="M1478.59 236.719 L1478.59 252.367 L1474.33 252.367 L1474.33 236.857 Q1474.33 233.177 1472.9 231.348 Q1471.46 229.52 1468.59 229.52 Q1465.14 229.52 1463.15 231.719 Q1461.16 233.918 1461.16 237.714 L1461.16 252.367 L1456.88 252.367 L1456.88 226.441 L1461.16 226.441 L1461.16 230.469 Q1462.69 228.131 1464.75 226.973 Q1466.83 225.816 1469.54 225.816 Q1474.01 225.816 1476.3 228.594 Q1478.59 231.348 1478.59 236.719 Z" fill="#000000" fill-rule="evenodd" fill-opacity="1" /></svg>
