<?xml version="1.0" encoding="utf-8"?>
<svg xmlns="http://www.w3.org/2000/svg" xmlns:xlink="http://www.w3.org/1999/xlink" width="330" height="200" viewBox="0 0 1320 800">
<defs>
  <clipPath id="clip990">
    <rect x="0" y="0" width="1320" height="800"/>
  </clipPath>
</defs>
<path clip-path="url(#clip990)" d="
M0 800 L1320 800 L1320 0 L0 0  Z
  " fill="#ffffff" fill-rule="evenodd" fill-opacity="1"/>
<defs>
  <clipPath id="clip991">
    <rect x="264" y="0" width="925" height="800"/>
  </clipPath>
</defs>
<path clip-path="url(#clip990)" d="
M279.445 638.642 L1272.76 638.642 L1272.76 117.974 L279.445 117.974  Z
  " fill="#ffffff" fill-rule="evenodd" fill-opacity="1"/>
<defs>
  <clipPath id="clip992">
    <rect x="279" y="117" width="994" height="522"/>
  </clipPath>
</defs>
<polyline clip-path="url(#clip992)" style="stroke:#000000; stroke-linecap:butt; stroke-linejoin:round; stroke-width:2; stroke-opacity:0.1; fill:none" points="
  504.839,638.642 504.839,117.974 
  "/>
<polyline clip-path="url(#clip992)" style="stroke:#000000; stroke-linecap:butt; stroke-linejoin:round; stroke-width:2; stroke-opacity:0.1; fill:none" points="
  751.44,638.642 751.44,117.974 
  "/>
<polyline clip-path="url(#clip992)" style="stroke:#000000; stroke-linecap:butt; stroke-linejoin:round; stroke-width:2; stroke-opacity:0.1; fill:none" points="
  998.042,638.642 998.042,117.974 
  "/>
<polyline clip-path="url(#clip992)" style="stroke:#000000; stroke-linecap:butt; stroke-linejoin:round; stroke-width:2; stroke-opacity:0.1; fill:none" points="
  1244.64,638.642 1244.64,117.974 
  "/>
<polyline clip-path="url(#clip990)" style="stroke:#000000; stroke-linecap:butt; stroke-linejoin:round; stroke-width:4; stroke-opacity:1; fill:none" points="
  279.445,638.642 1272.76,638.642 
  "/>
<polyline clip-path="url(#clip990)" style="stroke:#000000; stroke-linecap:butt; stroke-linejoin:round; stroke-width:4; stroke-opacity:1; fill:none" points="
  504.839,638.642 504.839,619.744 
  "/>
<polyline clip-path="url(#clip990)" style="stroke:#000000; stroke-linecap:butt; stroke-linejoin:round; stroke-width:4; stroke-opacity:1; fill:none" points="
  751.44,638.642 751.44,619.744 
  "/>
<polyline clip-path="url(#clip990)" style="stroke:#000000; stroke-linecap:butt; stroke-linejoin:round; stroke-width:4; stroke-opacity:1; fill:none" points="
  998.042,638.642 998.042,619.744 
  "/>
<polyline clip-path="url(#clip990)" style="stroke:#000000; stroke-linecap:butt; stroke-linejoin:round; stroke-width:4; stroke-opacity:1; fill:none" points="
  1244.64,638.642 1244.64,619.744 
  "/>
<path clip-path="url(#clip990)" d="M441.841 657.842 L460.198 657.842 L460.198 661.777 L446.124 661.777 L446.124 670.249 Q447.142 669.902 448.161 669.74 Q449.179 669.555 450.198 669.555 Q455.985 669.555 459.364 672.726 Q462.744 675.897 462.744 681.314 Q462.744 686.892 459.272 689.994 Q455.8 693.073 449.48 693.073 Q447.304 693.073 445.036 692.703 Q442.79 692.332 440.383 691.591 L440.383 686.892 Q442.466 688.027 444.689 688.582 Q446.911 689.138 449.388 689.138 Q453.392 689.138 455.73 687.031 Q458.068 684.925 458.068 681.314 Q458.068 677.703 455.73 675.596 Q453.392 673.49 449.388 673.49 Q447.513 673.49 445.638 673.906 Q443.786 674.323 441.841 675.203 L441.841 657.842 Z" fill="#000000" fill-rule="evenodd" fill-opacity="1" /><path clip-path="url(#clip990)" d="M481.957 660.92 Q478.346 660.92 476.517 664.485 Q474.712 668.027 474.712 675.156 Q474.712 682.263 476.517 685.828 Q478.346 689.369 481.957 689.369 Q485.591 689.369 487.397 685.828 Q489.225 682.263 489.225 675.156 Q489.225 668.027 487.397 664.485 Q485.591 660.92 481.957 660.92 M481.957 657.217 Q487.767 657.217 490.823 661.823 Q493.901 666.406 493.901 675.156 Q493.901 683.883 490.823 688.49 Q487.767 693.073 481.957 693.073 Q476.147 693.073 473.068 688.49 Q470.013 683.883 470.013 675.156 Q470.013 666.406 473.068 661.823 Q476.147 657.217 481.957 657.217 Z" fill="#000000" fill-rule="evenodd" fill-opacity="1" /><path clip-path="url(#clip990)" d="M512.119 660.92 Q508.508 660.92 506.679 664.485 Q504.873 668.027 504.873 675.156 Q504.873 682.263 506.679 685.828 Q508.508 689.369 512.119 689.369 Q515.753 689.369 517.559 685.828 Q519.387 682.263 519.387 675.156 Q519.387 668.027 517.559 664.485 Q515.753 660.92 512.119 660.92 M512.119 657.217 Q517.929 657.217 520.984 661.823 Q524.063 666.406 524.063 675.156 Q524.063 683.883 520.984 688.49 Q517.929 693.073 512.119 693.073 Q506.309 693.073 503.23 688.49 Q500.174 683.883 500.174 675.156 Q500.174 666.406 503.23 661.823 Q506.309 657.217 512.119 657.217 Z" fill="#000000" fill-rule="evenodd" fill-opacity="1" /><path clip-path="url(#clip990)" d="M532.281 686.522 L537.165 686.522 L537.165 692.402 L532.281 692.402 L532.281 686.522 Z" fill="#000000" fill-rule="evenodd" fill-opacity="1" /><path clip-path="url(#clip990)" d="M557.35 660.92 Q553.739 660.92 551.91 664.485 Q550.105 668.027 550.105 675.156 Q550.105 682.263 551.91 685.828 Q553.739 689.369 557.35 689.369 Q560.984 689.369 562.79 685.828 Q564.619 682.263 564.619 675.156 Q564.619 668.027 562.79 664.485 Q560.984 660.92 557.35 660.92 M557.35 657.217 Q563.16 657.217 566.216 661.823 Q569.294 666.406 569.294 675.156 Q569.294 683.883 566.216 688.49 Q563.16 693.073 557.35 693.073 Q551.54 693.073 548.461 688.49 Q545.406 683.883 545.406 675.156 Q545.406 666.406 548.461 661.823 Q551.54 657.217 557.35 657.217 Z" fill="#000000" fill-rule="evenodd" fill-opacity="1" /><path clip-path="url(#clip990)" d="M673.35 688.466 L680.989 688.466 L680.989 662.101 L672.679 663.768 L672.679 659.508 L680.943 657.842 L685.619 657.842 L685.619 688.466 L693.258 688.466 L693.258 692.402 L673.35 692.402 L673.35 688.466 Z" fill="#000000" fill-rule="evenodd" fill-opacity="1" /><path clip-path="url(#clip990)" d="M712.702 660.92 Q709.091 660.92 707.262 664.485 Q705.457 668.027 705.457 675.156 Q705.457 682.263 707.262 685.828 Q709.091 689.369 712.702 689.369 Q716.336 689.369 718.142 685.828 Q719.971 682.263 719.971 675.156 Q719.971 668.027 718.142 664.485 Q716.336 660.92 712.702 660.92 M712.702 657.217 Q718.512 657.217 721.568 661.823 Q724.646 666.406 724.646 675.156 Q724.646 683.883 721.568 688.49 Q718.512 693.073 712.702 693.073 Q706.892 693.073 703.813 688.49 Q700.758 683.883 700.758 675.156 Q700.758 666.406 703.813 661.823 Q706.892 657.217 712.702 657.217 Z" fill="#000000" fill-rule="evenodd" fill-opacity="1" /><path clip-path="url(#clip990)" d="M742.864 660.92 Q739.253 660.92 737.424 664.485 Q735.619 668.027 735.619 675.156 Q735.619 682.263 737.424 685.828 Q739.253 689.369 742.864 689.369 Q746.498 689.369 748.304 685.828 Q750.132 682.263 750.132 675.156 Q750.132 668.027 748.304 664.485 Q746.498 660.92 742.864 660.92 M742.864 657.217 Q748.674 657.217 751.73 661.823 Q754.808 666.406 754.808 675.156 Q754.808 683.883 751.73 688.49 Q748.674 693.073 742.864 693.073 Q737.054 693.073 733.975 688.49 Q730.92 683.883 730.92 675.156 Q730.92 666.406 733.975 661.823 Q737.054 657.217 742.864 657.217 Z" fill="#000000" fill-rule="evenodd" fill-opacity="1" /><path clip-path="url(#clip990)" d="M773.026 660.92 Q769.415 660.92 767.586 664.485 Q765.78 668.027 765.78 675.156 Q765.78 682.263 767.586 685.828 Q769.415 689.369 773.026 689.369 Q776.66 689.369 778.466 685.828 Q780.294 682.263 780.294 675.156 Q780.294 668.027 778.466 664.485 Q776.66 660.92 773.026 660.92 M773.026 657.217 Q778.836 657.217 781.891 661.823 Q784.97 666.406 784.97 675.156 Q784.97 683.883 781.891 688.49 Q778.836 693.073 773.026 693.073 Q767.216 693.073 764.137 688.49 Q761.081 683.883 761.081 675.156 Q761.081 666.406 764.137 661.823 Q767.216 657.217 773.026 657.217 Z" fill="#000000" fill-rule="evenodd" fill-opacity="1" /><path clip-path="url(#clip990)" d="M793.188 686.522 L798.072 686.522 L798.072 692.402 L793.188 692.402 L793.188 686.522 Z" fill="#000000" fill-rule="evenodd" fill-opacity="1" /><path clip-path="url(#clip990)" d="M818.257 660.92 Q814.646 660.92 812.817 664.485 Q811.012 668.027 811.012 675.156 Q811.012 682.263 812.817 685.828 Q814.646 689.369 818.257 689.369 Q821.891 689.369 823.697 685.828 Q825.526 682.263 825.526 675.156 Q825.526 668.027 823.697 664.485 Q821.891 660.92 818.257 660.92 M818.257 657.217 Q824.067 657.217 827.123 661.823 Q830.201 666.406 830.201 675.156 Q830.201 683.883 827.123 688.49 Q824.067 693.073 818.257 693.073 Q812.447 693.073 809.368 688.49 Q806.313 683.883 806.313 675.156 Q806.313 666.406 809.368 661.823 Q812.447 657.217 818.257 657.217 Z" fill="#000000" fill-rule="evenodd" fill-opacity="1" /><path clip-path="url(#clip990)" d="M919.952 688.466 L927.591 688.466 L927.591 662.101 L919.281 663.768 L919.281 659.508 L927.544 657.842 L932.22 657.842 L932.22 688.466 L939.859 688.466 L939.859 692.402 L919.952 692.402 L919.952 688.466 Z" fill="#000000" fill-rule="evenodd" fill-opacity="1" /><path clip-path="url(#clip990)" d="M949.35 657.842 L967.706 657.842 L967.706 661.777 L953.632 661.777 L953.632 670.249 Q954.651 669.902 955.669 669.74 Q956.688 669.555 957.706 669.555 Q963.493 669.555 966.873 672.726 Q970.253 675.897 970.253 681.314 Q970.253 686.892 966.78 689.994 Q963.308 693.073 956.989 693.073 Q954.813 693.073 952.544 692.703 Q950.299 692.332 947.892 691.591 L947.892 686.892 Q949.975 688.027 952.197 688.582 Q954.419 689.138 956.896 689.138 Q960.901 689.138 963.239 687.031 Q965.577 684.925 965.577 681.314 Q965.577 677.703 963.239 675.596 Q960.901 673.49 956.896 673.49 Q955.021 673.49 953.146 673.906 Q951.294 674.323 949.35 675.203 L949.35 657.842 Z" fill="#000000" fill-rule="evenodd" fill-opacity="1" /><path clip-path="url(#clip990)" d="M989.465 660.92 Q985.854 660.92 984.026 664.485 Q982.22 668.027 982.22 675.156 Q982.22 682.263 984.026 685.828 Q985.854 689.369 989.465 689.369 Q993.1 689.369 994.905 685.828 Q996.734 682.263 996.734 675.156 Q996.734 668.027 994.905 664.485 Q993.1 660.92 989.465 660.92 M989.465 657.217 Q995.276 657.217 998.331 661.823 Q1001.41 666.406 1001.41 675.156 Q1001.41 683.883 998.331 688.49 Q995.276 693.073 989.465 693.073 Q983.655 693.073 980.577 688.49 Q977.521 683.883 977.521 675.156 Q977.521 666.406 980.577 661.823 Q983.655 657.217 989.465 657.217 Z" fill="#000000" fill-rule="evenodd" fill-opacity="1" /><path clip-path="url(#clip990)" d="M1019.63 660.92 Q1016.02 660.92 1014.19 664.485 Q1012.38 668.027 1012.38 675.156 Q1012.38 682.263 1014.19 685.828 Q1016.02 689.369 1019.63 689.369 Q1023.26 689.369 1025.07 685.828 Q1026.9 682.263 1026.9 675.156 Q1026.9 668.027 1025.07 664.485 Q1023.26 660.92 1019.63 660.92 M1019.63 657.217 Q1025.44 657.217 1028.49 661.823 Q1031.57 666.406 1031.57 675.156 Q1031.57 683.883 1028.49 688.49 Q1025.44 693.073 1019.63 693.073 Q1013.82 693.073 1010.74 688.49 Q1007.68 683.883 1007.68 675.156 Q1007.68 666.406 1010.74 661.823 Q1013.82 657.217 1019.63 657.217 Z" fill="#000000" fill-rule="evenodd" fill-opacity="1" /><path clip-path="url(#clip990)" d="M1039.79 686.522 L1044.67 686.522 L1044.67 692.402 L1039.79 692.402 L1039.79 686.522 Z" fill="#000000" fill-rule="evenodd" fill-opacity="1" /><path clip-path="url(#clip990)" d="M1064.86 660.92 Q1061.25 660.92 1059.42 664.485 Q1057.61 668.027 1057.61 675.156 Q1057.61 682.263 1059.42 685.828 Q1061.25 689.369 1064.86 689.369 Q1068.49 689.369 1070.3 685.828 Q1072.13 682.263 1072.13 675.156 Q1072.13 668.027 1070.3 664.485 Q1068.49 660.92 1064.86 660.92 M1064.86 657.217 Q1070.67 657.217 1073.72 661.823 Q1076.8 666.406 1076.8 675.156 Q1076.8 683.883 1073.72 688.49 Q1070.67 693.073 1064.86 693.073 Q1059.05 693.073 1055.97 688.49 Q1052.91 683.883 1052.91 675.156 Q1052.91 666.406 1055.97 661.823 Q1059.05 657.217 1064.86 657.217 Z" fill="#000000" fill-rule="evenodd" fill-opacity="1" /><path clip-path="url(#clip990)" d="M1170.64 688.466 L1186.96 688.466 L1186.96 692.402 L1165.01 692.402 L1165.01 688.466 Q1167.68 685.712 1172.26 681.082 Q1176.87 676.43 1178.05 675.087 Q1180.29 672.564 1181.17 670.828 Q1182.07 669.068 1182.07 667.379 Q1182.07 664.624 1180.13 662.888 Q1178.21 661.152 1175.11 661.152 Q1172.91 661.152 1170.45 661.916 Q1168.02 662.68 1165.25 664.231 L1165.25 659.508 Q1168.07 658.374 1170.52 657.795 Q1172.98 657.217 1175.01 657.217 Q1180.38 657.217 1183.58 659.902 Q1186.77 662.587 1186.77 667.078 Q1186.77 669.207 1185.96 671.129 Q1185.18 673.027 1183.07 675.619 Q1182.49 676.291 1179.39 679.508 Q1176.29 682.703 1170.64 688.466 Z" fill="#000000" fill-rule="evenodd" fill-opacity="1" /><path clip-path="url(#clip990)" d="M1206.77 660.92 Q1203.16 660.92 1201.33 664.485 Q1199.53 668.027 1199.53 675.156 Q1199.53 682.263 1201.33 685.828 Q1203.16 689.369 1206.77 689.369 Q1210.41 689.369 1212.21 685.828 Q1214.04 682.263 1214.04 675.156 Q1214.04 668.027 1212.21 664.485 Q1210.41 660.92 1206.77 660.92 M1206.77 657.217 Q1212.58 657.217 1215.64 661.823 Q1218.72 666.406 1218.72 675.156 Q1218.72 683.883 1215.64 688.49 Q1212.58 693.073 1206.77 693.073 Q1200.96 693.073 1197.88 688.49 Q1194.83 683.883 1194.83 675.156 Q1194.83 666.406 1197.88 661.823 Q1200.96 657.217 1206.77 657.217 Z" fill="#000000" fill-rule="evenodd" fill-opacity="1" /><path clip-path="url(#clip990)" d="M1236.94 660.92 Q1233.32 660.92 1231.5 664.485 Q1229.69 668.027 1229.69 675.156 Q1229.69 682.263 1231.5 685.828 Q1233.32 689.369 1236.94 689.369 Q1240.57 689.369 1242.37 685.828 Q1244.2 682.263 1244.2 675.156 Q1244.2 668.027 1242.37 664.485 Q1240.57 660.92 1236.94 660.92 M1236.94 657.217 Q1242.75 657.217 1245.8 661.823 Q1248.88 666.406 1248.88 675.156 Q1248.88 683.883 1245.8 688.49 Q1242.75 693.073 1236.94 693.073 Q1231.12 693.073 1228.05 688.49 Q1224.99 683.883 1224.99 675.156 Q1224.99 666.406 1228.05 661.823 Q1231.12 657.217 1236.94 657.217 Z" fill="#000000" fill-rule="evenodd" fill-opacity="1" /><path clip-path="url(#clip990)" d="M1267.1 660.92 Q1263.49 660.92 1261.66 664.485 Q1259.85 668.027 1259.85 675.156 Q1259.85 682.263 1261.66 685.828 Q1263.49 689.369 1267.1 689.369 Q1270.73 689.369 1272.54 685.828 Q1274.37 682.263 1274.37 675.156 Q1274.37 668.027 1272.54 664.485 Q1270.73 660.92 1267.1 660.92 M1267.1 657.217 Q1272.91 657.217 1275.96 661.823 Q1279.04 666.406 1279.04 675.156 Q1279.04 683.883 1275.96 688.49 Q1272.91 693.073 1267.1 693.073 Q1261.29 693.073 1258.21 688.49 Q1255.15 683.883 1255.15 675.156 Q1255.15 666.406 1258.21 661.823 Q1261.29 657.217 1267.1 657.217 Z" fill="#000000" fill-rule="evenodd" fill-opacity="1" /><path clip-path="url(#clip990)" d="M1287.26 686.522 L1292.14 686.522 L1292.14 692.402 L1287.26 692.402 L1287.26 686.522 Z" fill="#000000" fill-rule="evenodd" fill-opacity="1" /><path clip-path="url(#clip990)" d="M1312.33 660.92 Q1308.72 660.92 1306.89 664.485 Q1305.08 668.027 1305.08 675.156 Q1305.08 682.263 1306.89 685.828 Q1308.72 689.369 1312.33 689.369 Q1315.96 689.369 1317.77 685.828 Q1319.6 682.263 1319.6 675.156 Q1319.6 668.027 1317.77 664.485 Q1315.96 660.92 1312.33 660.92 M1312.33 657.217 Q1318.14 657.217 1321.19 661.823 Q1324.27 666.406 1324.27 675.156 Q1324.27 683.883 1321.19 688.49 Q1318.14 693.073 1312.33 693.073 Q1306.52 693.073 1303.44 688.49 Q1300.38 683.883 1300.38 675.156 Q1300.38 666.406 1303.44 661.823 Q1306.52 657.217 1312.33 657.217 Z" fill="#000000" fill-rule="evenodd" fill-opacity="1" /><path clip-path="url(#clip990)" d="M791.028 745.79 L791.028 767.306 L785.172 767.306 L785.172 745.981 Q785.172 740.92 783.198 738.405 Q781.225 735.891 777.278 735.891 Q772.536 735.891 769.798 738.915 Q767.061 741.938 767.061 747.158 L767.061 767.306 L761.173 767.306 L761.173 731.658 L767.061 731.658 L767.061 737.196 Q769.162 733.981 771.995 732.39 Q774.859 730.798 778.583 730.798 Q784.726 730.798 787.877 734.618 Q791.028 738.405 791.028 745.79 Z" fill="#000000" fill-rule="evenodd" fill-opacity="1" /><polyline clip-path="url(#clip992)" style="stroke:#000000; stroke-linecap:butt; stroke-linejoin:round; stroke-width:2; stroke-opacity:0.1; fill:none" points="
  279.445,623.906 1272.76,623.906 
  "/>
<polyline clip-path="url(#clip992)" style="stroke:#000000; stroke-linecap:butt; stroke-linejoin:round; stroke-width:2; stroke-opacity:0.1; fill:none" points="
  279.445,517.025 1272.76,517.025 
  "/>
<polyline clip-path="url(#clip992)" style="stroke:#000000; stroke-linecap:butt; stroke-linejoin:round; stroke-width:2; stroke-opacity:0.1; fill:none" points="
  279.445,410.145 1272.76,410.145 
  "/>
<polyline clip-path="url(#clip992)" style="stroke:#000000; stroke-linecap:butt; stroke-linejoin:round; stroke-width:2; stroke-opacity:0.1; fill:none" points="
  279.445,303.264 1272.76,303.264 
  "/>
<polyline clip-path="url(#clip992)" style="stroke:#000000; stroke-linecap:butt; stroke-linejoin:round; stroke-width:2; stroke-opacity:0.1; fill:none" points="
  279.445,196.383 1272.76,196.383 
  "/>
<polyline clip-path="url(#clip990)" style="stroke:#000000; stroke-linecap:butt; stroke-linejoin:round; stroke-width:4; stroke-opacity:1; fill:none" points="
  279.445,638.642 279.445,117.974 
  "/>
<polyline clip-path="url(#clip990)" style="stroke:#000000; stroke-linecap:butt; stroke-linejoin:round; stroke-width:4; stroke-opacity:1; fill:none" points="
  279.445,623.906 298.343,623.906 
  "/>
<polyline clip-path="url(#clip990)" style="stroke:#000000; stroke-linecap:butt; stroke-linejoin:round; stroke-width:4; stroke-opacity:1; fill:none" points="
  279.445,517.025 298.343,517.025 
  "/>
<polyline clip-path="url(#clip990)" style="stroke:#000000; stroke-linecap:butt; stroke-linejoin:round; stroke-width:4; stroke-opacity:1; fill:none" points="
  279.445,410.145 298.343,410.145 
  "/>
<polyline clip-path="url(#clip990)" style="stroke:#000000; stroke-linecap:butt; stroke-linejoin:round; stroke-width:4; stroke-opacity:1; fill:none" points="
  279.445,303.264 298.343,303.264 
  "/>
<polyline clip-path="url(#clip990)" style="stroke:#000000; stroke-linecap:butt; stroke-linejoin:round; stroke-width:4; stroke-opacity:1; fill:none" points="
  279.445,196.383 298.343,196.383 
  "/>
<path clip-path="url(#clip990)" d="M202.469 609.704 Q198.858 609.704 197.03 613.269 Q195.224 616.811 195.224 623.941 Q195.224 631.047 197.03 634.612 Q198.858 638.153 202.469 638.153 Q206.104 638.153 207.909 634.612 Q209.738 631.047 209.738 623.941 Q209.738 616.811 207.909 613.269 Q206.104 609.704 202.469 609.704 M202.469 606.001 Q208.279 606.001 211.335 610.607 Q214.414 615.191 214.414 623.941 Q214.414 632.667 211.335 637.274 Q208.279 641.857 202.469 641.857 Q196.659 641.857 193.58 637.274 Q190.525 632.667 190.525 623.941 Q190.525 615.191 193.58 610.607 Q196.659 606.001 202.469 606.001 Z" fill="#000000" fill-rule="evenodd" fill-opacity="1" /><path clip-path="url(#clip990)" d="M222.631 635.306 L227.515 635.306 L227.515 641.186 L222.631 641.186 L222.631 635.306 Z" fill="#000000" fill-rule="evenodd" fill-opacity="1" /><path clip-path="url(#clip990)" d="M247.701 609.704 Q244.089 609.704 242.261 613.269 Q240.455 616.811 240.455 623.941 Q240.455 631.047 242.261 634.612 Q244.089 638.153 247.701 638.153 Q251.335 638.153 253.14 634.612 Q254.969 631.047 254.969 623.941 Q254.969 616.811 253.14 613.269 Q251.335 609.704 247.701 609.704 M247.701 606.001 Q253.511 606.001 256.566 610.607 Q259.645 615.191 259.645 623.941 Q259.645 632.667 256.566 637.274 Q253.511 641.857 247.701 641.857 Q241.89 641.857 238.812 637.274 Q235.756 632.667 235.756 623.941 Q235.756 615.191 238.812 610.607 Q241.89 606.001 247.701 606.001 Z" fill="#000000" fill-rule="evenodd" fill-opacity="1" /><path clip-path="url(#clip990)" d="M120.965 530.37 L137.284 530.37 L137.284 534.305 L115.34 534.305 L115.34 530.37 Q118.002 527.615 122.585 522.986 Q127.192 518.333 128.372 516.99 Q130.618 514.467 131.497 512.731 Q132.4 510.972 132.4 509.282 Q132.4 506.528 130.456 504.791 Q128.535 503.055 125.433 503.055 Q123.234 503.055 120.78 503.819 Q118.349 504.583 115.572 506.134 L115.572 501.412 Q118.396 500.278 120.849 499.699 Q123.303 499.12 125.34 499.12 Q130.71 499.12 133.905 501.805 Q137.099 504.49 137.099 508.981 Q137.099 511.111 136.289 513.032 Q135.502 514.93 133.396 517.523 Q132.817 518.194 129.715 521.412 Q126.613 524.606 120.965 530.37 Z" fill="#000000" fill-rule="evenodd" fill-opacity="1" /><path clip-path="url(#clip990)" d="M147.099 528.426 L151.983 528.426 L151.983 534.305 L147.099 534.305 L147.099 528.426 Z" fill="#000000" fill-rule="evenodd" fill-opacity="1" /><path clip-path="url(#clip990)" d="M162.215 499.745 L180.571 499.745 L180.571 503.68 L166.497 503.68 L166.497 512.152 Q167.516 511.805 168.534 511.643 Q169.553 511.458 170.571 511.458 Q176.358 511.458 179.738 514.629 Q183.118 517.801 183.118 523.217 Q183.118 528.796 179.645 531.898 Q176.173 534.976 169.854 534.976 Q167.678 534.976 165.409 534.606 Q163.164 534.236 160.757 533.495 L160.757 528.796 Q162.84 529.93 165.062 530.486 Q167.284 531.041 169.761 531.041 Q173.766 531.041 176.104 528.935 Q178.442 526.828 178.442 523.217 Q178.442 519.606 176.104 517.5 Q173.766 515.393 169.761 515.393 Q167.886 515.393 166.011 515.81 Q164.159 516.227 162.215 517.106 L162.215 499.745 Z" fill="#000000" fill-rule="evenodd" fill-opacity="1" /><path clip-path="url(#clip990)" d="M213.904 520.277 L213.904 522.361 L194.321 522.361 Q194.599 526.759 196.96 529.074 Q199.344 531.365 203.58 531.365 Q206.034 531.365 208.326 530.764 Q210.641 530.162 212.909 528.958 L212.909 532.986 Q210.617 533.958 208.21 534.467 Q205.803 534.976 203.326 534.976 Q197.122 534.976 193.488 531.365 Q189.877 527.754 189.877 521.597 Q189.877 515.231 193.303 511.504 Q196.752 507.754 202.585 507.754 Q207.817 507.754 210.849 511.134 Q213.904 514.49 213.904 520.277 M209.645 519.027 Q209.599 515.532 207.678 513.449 Q205.779 511.365 202.631 511.365 Q199.067 511.365 196.914 513.379 Q194.784 515.393 194.46 519.051 L209.645 519.027 Z" fill="#000000" fill-rule="evenodd" fill-opacity="1" /><path clip-path="url(#clip990)" d="M218.742 519.421 L231.219 519.421 L231.219 523.217 L218.742 523.217 L218.742 519.421 Z" fill="#000000" fill-rule="evenodd" fill-opacity="1" /><path clip-path="url(#clip990)" d="M237.423 499.745 L259.645 499.745 L259.645 501.736 L247.099 534.305 L242.214 534.305 L254.02 503.68 L237.423 503.68 L237.423 499.745 Z" fill="#000000" fill-rule="evenodd" fill-opacity="1" /><path clip-path="url(#clip990)" d="M116.984 392.865 L135.34 392.865 L135.34 396.8 L121.266 396.8 L121.266 405.272 Q122.285 404.925 123.303 404.763 Q124.322 404.577 125.34 404.577 Q131.127 404.577 134.507 407.749 Q137.886 410.92 137.886 416.337 Q137.886 421.915 134.414 425.017 Q130.942 428.096 124.623 428.096 Q122.447 428.096 120.178 427.725 Q117.933 427.355 115.525 426.614 L115.525 421.915 Q117.609 423.05 119.831 423.605 Q122.053 424.161 124.53 424.161 Q128.535 424.161 130.872 422.054 Q133.21 419.948 133.21 416.337 Q133.21 412.726 130.872 410.619 Q128.535 408.513 124.53 408.513 Q122.655 408.513 120.78 408.929 Q118.928 409.346 116.984 410.226 L116.984 392.865 Z" fill="#000000" fill-rule="evenodd" fill-opacity="1" /><path clip-path="url(#clip990)" d="M147.099 421.545 L151.983 421.545 L151.983 427.425 L147.099 427.425 L147.099 421.545 Z" fill="#000000" fill-rule="evenodd" fill-opacity="1" /><path clip-path="url(#clip990)" d="M172.169 395.943 Q168.557 395.943 166.729 399.508 Q164.923 403.05 164.923 410.179 Q164.923 417.286 166.729 420.85 Q168.557 424.392 172.169 424.392 Q175.803 424.392 177.608 420.85 Q179.437 417.286 179.437 410.179 Q179.437 403.05 177.608 399.508 Q175.803 395.943 172.169 395.943 M172.169 392.24 Q177.979 392.24 181.034 396.846 Q184.113 401.429 184.113 410.179 Q184.113 418.906 181.034 423.513 Q177.979 428.096 172.169 428.096 Q166.358 428.096 163.28 423.513 Q160.224 418.906 160.224 410.179 Q160.224 401.429 163.28 396.846 Q166.358 392.24 172.169 392.24 Z" fill="#000000" fill-rule="evenodd" fill-opacity="1" /><path clip-path="url(#clip990)" d="M213.904 413.397 L213.904 415.48 L194.321 415.48 Q194.599 419.878 196.96 422.193 Q199.344 424.485 203.58 424.485 Q206.034 424.485 208.326 423.883 Q210.641 423.281 212.909 422.077 L212.909 426.105 Q210.617 427.077 208.21 427.587 Q205.803 428.096 203.326 428.096 Q197.122 428.096 193.488 424.485 Q189.877 420.874 189.877 414.716 Q189.877 408.351 193.303 404.624 Q196.752 400.874 202.585 400.874 Q207.817 400.874 210.849 404.253 Q213.904 407.61 213.904 413.397 M209.645 412.147 Q209.599 408.651 207.678 406.568 Q205.779 404.485 202.631 404.485 Q199.067 404.485 196.914 406.499 Q194.784 408.513 194.46 412.17 L209.645 412.147 Z" fill="#000000" fill-rule="evenodd" fill-opacity="1" /><path clip-path="url(#clip990)" d="M218.742 412.54 L231.219 412.54 L231.219 416.337 L218.742 416.337 L218.742 412.54 Z" fill="#000000" fill-rule="evenodd" fill-opacity="1" /><path clip-path="url(#clip990)" d="M237.423 392.865 L259.645 392.865 L259.645 394.855 L247.099 427.425 L242.214 427.425 L254.02 396.8 L237.423 396.8 L237.423 392.865 Z" fill="#000000" fill-rule="evenodd" fill-opacity="1" /><path clip-path="url(#clip990)" d="M115.757 285.984 L137.979 285.984 L137.979 287.975 L125.433 320.544 L120.548 320.544 L132.354 289.919 L115.757 289.919 L115.757 285.984 Z" fill="#000000" fill-rule="evenodd" fill-opacity="1" /><path clip-path="url(#clip990)" d="M147.099 314.664 L151.983 314.664 L151.983 320.544 L147.099 320.544 L147.099 314.664 Z" fill="#000000" fill-rule="evenodd" fill-opacity="1" /><path clip-path="url(#clip990)" d="M162.215 285.984 L180.571 285.984 L180.571 289.919 L166.497 289.919 L166.497 298.391 Q167.516 298.044 168.534 297.882 Q169.553 297.697 170.571 297.697 Q176.358 297.697 179.738 300.868 Q183.118 304.039 183.118 309.456 Q183.118 315.035 179.645 318.136 Q176.173 321.215 169.854 321.215 Q167.678 321.215 165.409 320.845 Q163.164 320.474 160.757 319.734 L160.757 315.035 Q162.84 316.169 165.062 316.724 Q167.284 317.28 169.761 317.28 Q173.766 317.28 176.104 315.174 Q178.442 313.067 178.442 309.456 Q178.442 305.845 176.104 303.738 Q173.766 301.632 169.761 301.632 Q167.886 301.632 166.011 302.049 Q164.159 302.465 162.215 303.345 L162.215 285.984 Z" fill="#000000" fill-rule="evenodd" fill-opacity="1" /><path clip-path="url(#clip990)" d="M213.904 306.516 L213.904 308.6 L194.321 308.6 Q194.599 312.998 196.96 315.312 Q199.344 317.604 203.58 317.604 Q206.034 317.604 208.326 317.002 Q210.641 316.4 212.909 315.197 L212.909 319.224 Q210.617 320.197 208.21 320.706 Q205.803 321.215 203.326 321.215 Q197.122 321.215 193.488 317.604 Q189.877 313.993 189.877 307.836 Q189.877 301.47 193.303 297.743 Q196.752 293.993 202.585 293.993 Q207.817 293.993 210.849 297.373 Q213.904 300.729 213.904 306.516 M209.645 305.266 Q209.599 301.771 207.678 299.688 Q205.779 297.604 202.631 297.604 Q199.067 297.604 196.914 299.618 Q194.784 301.632 194.46 305.289 L209.645 305.266 Z" fill="#000000" fill-rule="evenodd" fill-opacity="1" /><path clip-path="url(#clip990)" d="M218.742 305.66 L231.219 305.66 L231.219 309.456 L218.742 309.456 L218.742 305.66 Z" fill="#000000" fill-rule="evenodd" fill-opacity="1" /><path clip-path="url(#clip990)" d="M237.423 285.984 L259.645 285.984 L259.645 287.975 L247.099 320.544 L242.214 320.544 L254.02 289.919 L237.423 289.919 L237.423 285.984 Z" fill="#000000" fill-rule="evenodd" fill-opacity="1" /><path clip-path="url(#clip990)" d="M116.683 209.728 L124.322 209.728 L124.322 183.362 L116.011 185.029 L116.011 180.77 L124.275 179.103 L128.951 179.103 L128.951 209.728 L136.59 209.728 L136.59 213.663 L116.683 213.663 L116.683 209.728 Z" fill="#000000" fill-rule="evenodd" fill-opacity="1" /><path clip-path="url(#clip990)" d="M146.034 207.784 L150.919 207.784 L150.919 213.663 L146.034 213.663 L146.034 207.784 Z" fill="#000000" fill-rule="evenodd" fill-opacity="1" /><path clip-path="url(#clip990)" d="M171.104 182.182 Q167.493 182.182 165.664 185.747 Q163.858 189.288 163.858 196.418 Q163.858 203.524 165.664 207.089 Q167.493 210.631 171.104 210.631 Q174.738 210.631 176.544 207.089 Q178.372 203.524 178.372 196.418 Q178.372 189.288 176.544 185.747 Q174.738 182.182 171.104 182.182 M171.104 178.478 Q176.914 178.478 179.969 183.085 Q183.048 187.668 183.048 196.418 Q183.048 205.145 179.969 209.751 Q176.914 214.335 171.104 214.335 Q165.294 214.335 162.215 209.751 Q159.159 205.145 159.159 196.418 Q159.159 187.668 162.215 183.085 Q165.294 178.478 171.104 178.478 Z" fill="#000000" fill-rule="evenodd" fill-opacity="1" /><path clip-path="url(#clip990)" d="M212.84 199.636 L212.84 201.719 L193.256 201.719 Q193.534 206.117 195.895 208.432 Q198.28 210.723 202.516 210.723 Q204.969 210.723 207.261 210.122 Q209.576 209.52 211.844 208.316 L211.844 212.344 Q209.553 213.316 207.145 213.825 Q204.738 214.335 202.261 214.335 Q196.057 214.335 192.423 210.723 Q188.812 207.112 188.812 200.955 Q188.812 194.589 192.238 190.862 Q195.687 187.112 201.52 187.112 Q206.752 187.112 209.784 190.492 Q212.84 193.849 212.84 199.636 M208.58 198.386 Q208.534 194.89 206.613 192.807 Q204.715 190.724 201.567 190.724 Q198.002 190.724 195.849 192.737 Q193.719 194.751 193.395 198.409 L208.58 198.386 Z" fill="#000000" fill-rule="evenodd" fill-opacity="1" /><path clip-path="url(#clip990)" d="M217.678 198.779 L230.154 198.779 L230.154 202.575 L217.678 202.575 L217.678 198.779 Z" fill="#000000" fill-rule="evenodd" fill-opacity="1" /><path clip-path="url(#clip990)" d="M248.117 194.52 Q244.969 194.52 243.117 196.673 Q241.289 198.825 241.289 202.575 Q241.289 206.302 243.117 208.478 Q244.969 210.631 248.117 210.631 Q251.265 210.631 253.094 208.478 Q254.946 206.302 254.946 202.575 Q254.946 198.825 253.094 196.673 Q251.265 194.52 248.117 194.52 M257.4 179.867 L257.4 184.126 Q255.64 183.293 253.835 182.853 Q252.052 182.413 250.293 182.413 Q245.664 182.413 243.21 185.538 Q240.779 188.663 240.432 194.983 Q241.798 192.969 243.858 191.904 Q245.918 190.816 248.395 190.816 Q253.603 190.816 256.613 193.987 Q259.645 197.136 259.645 202.575 Q259.645 207.899 256.497 211.117 Q253.349 214.335 248.117 214.335 Q242.122 214.335 238.951 209.751 Q235.779 205.145 235.779 196.418 Q235.779 188.224 239.668 183.362 Q243.557 178.478 250.108 178.478 Q251.867 178.478 253.65 178.825 Q255.455 179.173 257.4 179.867 Z" fill="#000000" fill-rule="evenodd" fill-opacity="1" /><path clip-path="url(#clip990)" d="M58.5904 694.286 L76.0006 694.286 L76.0006 683.973 Q76.0006 678.785 73.8681 676.302 Q71.7038 673.788 67.2796 673.788 Q62.8236 673.788 60.7229 676.302 Q58.5904 678.785 58.5904 683.973 L58.5904 694.286 M39.0477 694.286 L53.3705 694.286 L53.3705 684.769 Q53.3705 680.058 51.62 677.767 Q49.8376 675.443 46.2091 675.443 Q42.6125 675.443 40.8301 677.767 Q39.0477 680.058 39.0477 684.769 L39.0477 694.286 M33.7642 700.715 L33.7642 684.291 Q33.7642 676.939 36.8197 672.96 Q39.8752 668.982 45.5089 668.982 Q49.8694 668.982 52.4475 671.019 Q55.0256 673.056 55.6622 677.003 Q56.6807 672.26 59.9272 669.65 Q63.1419 667.009 67.9798 667.009 Q74.3455 667.009 77.8148 671.337 Q81.2842 675.666 81.2842 683.655 L81.2842 700.715 L33.7642 700.715 Z" fill="#000000" fill-rule="evenodd" fill-opacity="1" /><path clip-path="url(#clip990)" d="M49.7421 642.437 Q49.7421 647.148 53.4342 649.885 Q57.0945 652.622 63.492 652.622 Q69.8895 652.622 73.5817 649.917 Q77.2419 647.179 77.2419 642.437 Q77.2419 637.758 73.5498 635.021 Q69.8577 632.284 63.492 632.284 Q57.1581 632.284 53.466 635.021 Q49.7421 637.758 49.7421 642.437 M44.7768 642.437 Q44.7768 634.798 49.7421 630.438 Q54.7073 626.077 63.492 626.077 Q72.2449 626.077 77.2419 630.438 Q82.2072 634.798 82.2072 642.437 Q82.2072 650.108 77.2419 654.468 Q72.2449 658.797 63.492 658.797 Q54.7073 658.797 49.7421 654.468 Q44.7768 650.108 44.7768 642.437 Z" fill="#000000" fill-rule="evenodd" fill-opacity="1" /><path clip-path="url(#clip990)" d="M35.5147 610.577 L45.6362 610.577 L45.6362 598.514 L50.1877 598.514 L50.1877 610.577 L69.5394 610.577 Q73.8999 610.577 75.1413 609.399 Q76.3826 608.189 76.3826 604.529 L76.3826 598.514 L81.2842 598.514 L81.2842 604.529 Q81.2842 611.309 78.7697 613.887 Q76.2234 616.465 69.5394 616.465 L50.1877 616.465 L50.1877 620.762 L45.6362 620.762 L45.6362 616.465 L35.5147 616.465 L35.5147 610.577 Z" fill="#000000" fill-rule="evenodd" fill-opacity="1" /><path clip-path="url(#clip990)" d="M35.5147 585.018 L45.6362 585.018 L45.6362 572.955 L50.1877 572.955 L50.1877 585.018 L69.5394 585.018 Q73.8999 585.018 75.1413 583.841 Q76.3826 582.631 76.3826 578.971 L76.3826 572.955 L81.2842 572.955 L81.2842 578.971 Q81.2842 585.75 78.7697 588.328 Q76.2234 590.906 69.5394 590.906 L50.1877 590.906 L50.1877 595.203 L45.6362 595.203 L45.6362 590.906 L35.5147 590.906 L35.5147 585.018 Z" fill="#000000" fill-rule="evenodd" fill-opacity="1" /><path clip-path="url(#clip990)" d="M31.759 565.253 L31.759 559.396 L81.2842 559.396 L81.2842 565.253 L31.759 565.253 Z" fill="#000000" fill-rule="evenodd" fill-opacity="1" /><path clip-path="url(#clip990)" d="M61.9961 516.651 L64.8606 516.651 L64.8606 543.577 Q70.9081 543.196 74.0909 539.949 Q77.2419 536.671 77.2419 530.846 Q77.2419 527.472 76.4144 524.321 Q75.5869 521.138 73.9318 518.019 L79.4699 518.019 Q80.8067 521.17 81.507 524.48 Q82.2072 527.791 82.2072 531.196 Q82.2072 539.726 77.2419 544.723 Q72.2767 549.689 63.8103 549.689 Q55.0574 549.689 49.9331 544.978 Q44.7768 540.235 44.7768 532.215 Q44.7768 525.021 49.4238 520.852 Q54.0389 516.651 61.9961 516.651 M60.2773 522.507 Q55.4712 522.571 52.6066 525.212 Q49.7421 527.822 49.7421 532.151 Q49.7421 537.053 52.5112 540.013 Q55.2802 542.941 60.3092 543.386 L60.2773 522.507 Z" fill="#000000" fill-rule="evenodd" fill-opacity="1" /><path clip-path="url(#clip990)" d="M59.7681 477.406 L81.2842 477.406 L81.2842 483.262 L59.959 483.262 Q54.8983 483.262 52.3838 485.236 Q49.8694 487.209 49.8694 491.156 Q49.8694 495.898 52.8931 498.636 Q55.9168 501.373 61.1367 501.373 L81.2842 501.373 L81.2842 507.261 L45.6362 507.261 L45.6362 501.373 L51.1744 501.373 Q47.9597 499.272 46.3683 496.439 Q44.7768 493.575 44.7768 489.851 Q44.7768 483.708 48.5963 480.557 Q52.3838 477.406 59.7681 477.406 Z" fill="#000000" fill-rule="evenodd" fill-opacity="1" /><path clip-path="url(#clip990)" d="M61.9961 435.233 L64.8606 435.233 L64.8606 462.16 Q70.9081 461.778 74.0909 458.532 Q77.2419 455.253 77.2419 449.429 Q77.2419 446.055 76.4144 442.904 Q75.5869 439.721 73.9318 436.602 L79.4699 436.602 Q80.8067 439.753 81.507 443.063 Q82.2072 446.373 82.2072 449.779 Q82.2072 458.309 77.2419 463.306 Q72.2767 468.271 63.8103 468.271 Q55.0574 468.271 49.9331 463.561 Q44.7768 458.818 44.7768 450.797 Q44.7768 443.604 49.4238 439.435 Q54.0389 435.233 61.9961 435.233 M60.2773 441.09 Q55.4712 441.153 52.6066 443.795 Q49.7421 446.405 49.7421 450.734 Q49.7421 455.635 52.5112 458.595 Q55.2802 461.524 60.3092 461.969 L60.2773 441.09 Z" fill="#000000" fill-rule="evenodd" fill-opacity="1" /><path clip-path="url(#clip990)" d="M47.0048 399.967 L52.4793 399.967 Q51.1107 402.45 50.4423 404.964 Q49.7421 407.447 49.7421 409.993 Q49.7421 415.69 53.3705 418.841 Q56.9672 421.992 63.492 421.992 Q70.0169 421.992 73.6453 418.841 Q77.2419 415.69 77.2419 409.993 Q77.2419 407.447 76.5735 404.964 Q75.8733 402.45 74.5047 399.967 L79.9155 399.967 Q81.0614 402.418 81.6343 405.06 Q82.2072 407.67 82.2072 410.63 Q82.2072 418.682 77.1464 423.425 Q72.0857 428.167 63.492 428.167 Q54.771 428.167 49.7739 423.393 Q44.7768 418.587 44.7768 410.248 Q44.7768 407.542 45.3497 404.964 Q45.8908 402.386 47.0048 399.967 Z" fill="#000000" fill-rule="evenodd" fill-opacity="1" /><path clip-path="url(#clip990)" d="M31.759 390.005 L31.759 384.117 L61.0094 384.117 L45.6362 366.643 L45.6362 359.163 L62.3144 378.069 L81.2842 358.367 L81.2842 366.006 L63.8739 384.117 L81.2842 384.117 L81.2842 390.005 L31.759 390.005 Z" fill="#000000" fill-rule="evenodd" fill-opacity="1" /><path clip-path="url(#clip990)" d="M39.0477 324.629 L76.0006 324.629 L76.0006 316.863 Q76.0006 307.028 71.5446 302.476 Q67.0886 297.893 57.4764 297.893 Q47.9279 297.893 43.5037 302.476 Q39.0477 307.028 39.0477 316.863 L39.0477 324.629 M33.7642 331.058 L33.7642 317.85 Q33.7642 304.036 39.5251 297.575 Q45.2543 291.114 57.4764 291.114 Q69.7622 291.114 75.5232 297.607 Q81.2842 304.1 81.2842 317.85 L81.2842 331.058 L33.7642 331.058 Z" fill="#000000" fill-rule="evenodd" fill-opacity="1" /><path clip-path="url(#clip990)" d="M45.6362 281.119 L45.6362 275.263 L81.2842 275.263 L81.2842 281.119 L45.6362 281.119 M31.759 281.119 L31.759 275.263 L39.175 275.263 L39.175 281.119 L31.759 281.119 Z" fill="#000000" fill-rule="evenodd" fill-opacity="1" /><path clip-path="url(#clip990)" d="M46.6865 240.283 L52.2247 240.283 Q50.9516 242.766 50.315 245.44 Q49.6784 248.113 49.6784 250.978 Q49.6784 255.338 51.0152 257.534 Q52.352 259.699 55.0256 259.699 Q57.0626 259.699 58.2403 258.139 Q59.3861 256.58 60.4365 251.869 L60.8821 249.864 Q62.2189 243.625 64.6697 241.015 Q67.0886 238.374 71.4491 238.374 Q76.4144 238.374 79.3108 242.32 Q82.2072 246.235 82.2072 253.11 Q82.2072 255.975 81.6343 259.094 Q81.0932 262.181 79.9792 265.619 L73.9318 265.619 Q75.6187 262.372 76.478 259.221 Q77.3056 256.07 77.3056 252.983 Q77.3056 248.845 75.9051 246.617 Q74.4729 244.389 71.8947 244.389 Q69.5076 244.389 68.2345 246.013 Q66.9613 247.604 65.7837 253.047 L65.3062 255.084 Q64.1604 260.526 61.8051 262.945 Q59.418 265.364 55.2802 265.364 Q50.2513 265.364 47.5141 261.799 Q44.7768 258.235 44.7768 251.678 Q44.7768 248.431 45.2543 245.567 Q45.7317 242.702 46.6865 240.283 Z" fill="#000000" fill-rule="evenodd" fill-opacity="1" /><path clip-path="url(#clip990)" d="M35.5147 223.255 L45.6362 223.255 L45.6362 211.192 L50.1877 211.192 L50.1877 223.255 L69.5394 223.255 Q73.8999 223.255 75.1413 222.077 Q76.3826 220.868 76.3826 217.208 L76.3826 211.192 L81.2842 211.192 L81.2842 217.208 Q81.2842 223.987 78.7697 226.565 Q76.2234 229.143 69.5394 229.143 L50.1877 229.143 L50.1877 233.44 L45.6362 233.44 L45.6362 229.143 L35.5147 229.143 L35.5147 223.255 Z" fill="#000000" fill-rule="evenodd" fill-opacity="1" /><path clip-path="url(#clip990)" d="M63.3647 187.289 Q63.3647 194.387 64.9879 197.124 Q66.6112 199.861 70.5261 199.861 Q73.6453 199.861 75.4914 197.824 Q77.3056 195.755 77.3056 192.222 Q77.3056 187.353 73.8681 184.424 Q70.3988 181.464 64.6697 181.464 L63.3647 181.464 L63.3647 187.289 M60.9457 175.608 L81.2842 175.608 L81.2842 181.464 L75.8733 181.464 Q79.1198 183.469 80.6794 186.461 Q82.2072 189.453 82.2072 193.782 Q82.2072 199.256 79.1516 202.503 Q76.0643 205.718 70.9081 205.718 Q64.8925 205.718 61.8369 201.707 Q58.7814 197.665 58.7814 189.676 L58.7814 181.464 L58.2085 181.464 Q54.1662 181.464 51.9701 184.138 Q49.7421 186.78 49.7421 191.586 Q49.7421 194.641 50.4741 197.538 Q51.2062 200.434 52.6703 203.108 L47.2595 203.108 Q46.0181 199.893 45.4134 196.869 Q44.7768 193.846 44.7768 190.981 Q44.7768 183.247 48.7872 179.427 Q52.7976 175.608 60.9457 175.608 Z" fill="#000000" fill-rule="evenodd" fill-opacity="1" /><path clip-path="url(#clip990)" d="M59.7681 133.912 L81.2842 133.912 L81.2842 139.769 L59.959 139.769 Q54.8983 139.769 52.3838 141.742 Q49.8694 143.716 49.8694 147.662 Q49.8694 152.405 52.8931 155.142 Q55.9168 157.879 61.1367 157.879 L81.2842 157.879 L81.2842 163.768 L45.6362 163.768 L45.6362 157.879 L51.1744 157.879 Q47.9597 155.779 46.3683 152.946 Q44.7768 150.081 44.7768 146.357 Q44.7768 140.214 48.5963 137.063 Q52.3838 133.912 59.7681 133.912 Z" fill="#000000" fill-rule="evenodd" fill-opacity="1" /><path clip-path="url(#clip990)" d="M47.0048 96.5775 L52.4793 96.5775 Q51.1107 99.0602 50.4423 101.575 Q49.7421 104.057 49.7421 106.604 Q49.7421 112.301 53.3705 115.452 Q56.9672 118.603 63.492 118.603 Q70.0169 118.603 73.6453 115.452 Q77.2419 112.301 77.2419 106.604 Q77.2419 104.057 76.5735 101.575 Q75.8733 99.0602 74.5047 96.5775 L79.9155 96.5775 Q81.0614 99.0283 81.6343 101.67 Q82.2072 104.28 82.2072 107.24 Q82.2072 115.293 77.1464 120.035 Q72.0857 124.778 63.492 124.778 Q54.771 124.778 49.7739 120.003 Q44.7768 115.197 44.7768 106.858 Q44.7768 104.153 45.3497 101.575 Q45.8908 98.9965 47.0048 96.5775 Z" fill="#000000" fill-rule="evenodd" fill-opacity="1" /><path clip-path="url(#clip990)" d="M61.9961 55.9007 L64.8606 55.9007 L64.8606 82.8276 Q70.9081 82.4457 74.0909 79.1992 Q77.2419 75.9208 77.2419 70.0962 Q77.2419 66.7224 76.4144 63.5714 Q75.5869 60.3885 73.9318 57.2693 L79.4699 57.2693 Q80.8067 60.4203 81.507 63.7305 Q82.2072 67.0407 82.2072 70.4463 Q82.2072 78.9764 77.2419 83.9734 Q72.2767 88.9387 63.8103 88.9387 Q55.0574 88.9387 49.9331 84.2281 Q44.7768 79.4856 44.7768 71.4648 Q44.7768 64.2716 49.4238 60.102 Q54.0389 55.9007 61.9961 55.9007 M60.2773 61.7571 Q55.4712 61.8208 52.6066 64.4626 Q49.7421 67.0725 49.7421 71.4012 Q49.7421 76.3028 52.5112 79.2628 Q55.2802 82.191 60.3092 82.6366 L60.2773 61.7571 Z" fill="#000000" fill-rule="evenodd" fill-opacity="1" /><path clip-path="url(#clip990)" d="M617.406 34.4165 Q615.907 33.8899 614.409 33.4848 Q610.398 32.4315 606.104 32.4315 Q598.691 32.4315 594.559 36.4419 Q590.711 40.1688 589.982 47.0148 L617.406 47.0148 L617.406 52.8481 L589.982 52.8481 Q590.711 59.6941 594.559 63.421 Q598.691 67.4314 606.104 67.4314 Q611.289 67.4314 614.409 66.3781 L617.406 65.3654 L617.406 72.1304 L614.206 72.8596 Q609.993 73.7508 605.659 73.7508 Q594.802 73.7508 588.483 67.4314 Q582.123 61.1119 582.123 49.9314 Q582.123 38.7509 588.483 32.4315 Q594.802 26.1121 605.659 26.1121 Q609.75 26.1121 614.206 27.0033 Q615.826 27.3274 617.406 27.8135 L617.406 34.4165 Z" fill="#000000" fill-rule="evenodd" fill-opacity="1" /><path clip-path="url(#clip990)" d="M637.377 34.9026 L689.31 34.9026 L689.31 41.7081 L637.377 41.7081 L637.377 34.9026 M637.377 51.4303 L689.31 51.4303 L689.31 58.3168 L637.377 58.3168 L637.377 51.4303 Z" fill="#000000" fill-rule="evenodd" fill-opacity="1" /><path clip-path="url(#clip990)" d="M705.919 9.54393 L713.372 9.54393 L713.372 72.576 L705.919 72.576 L705.919 9.54393 Z" fill="#000000" fill-rule="evenodd" fill-opacity="1" /><path clip-path="url(#clip990)" d="M746.549 32.4315 Q740.554 32.4315 737.07 37.1306 Q733.586 41.7891 733.586 49.9314 Q733.586 58.0738 737.029 62.7728 Q740.513 67.4314 746.549 67.4314 Q752.504 67.4314 755.988 62.7323 Q759.471 58.0333 759.471 49.9314 Q759.471 41.8701 755.988 37.1711 Q752.504 32.4315 746.549 32.4315 M746.549 26.1121 Q756.271 26.1121 761.821 32.4315 Q767.371 38.7509 767.371 49.9314 Q767.371 61.0714 761.821 67.4314 Q756.271 73.7508 746.549 73.7508 Q736.786 73.7508 731.237 67.4314 Q725.727 61.0714 725.727 49.9314 Q725.727 38.7509 731.237 32.4315 Q736.786 26.1121 746.549 26.1121 Z" fill="#000000" fill-rule="evenodd" fill-opacity="1" /><path clip-path="url(#clip990)" d="M809.581 49.3643 Q809.581 41.2625 806.219 36.8065 Q802.897 32.3505 796.861 32.3505 Q790.866 32.3505 787.504 36.8065 Q784.182 41.2625 784.182 49.3643 Q784.182 57.4256 787.504 61.8816 Q790.866 66.3376 796.861 66.3376 Q802.897 66.3376 806.219 61.8816 Q809.581 57.4256 809.581 49.3643 M817.035 66.9452 Q817.035 78.5308 811.89 84.1616 Q806.746 89.8329 796.132 89.8329 Q792.203 89.8329 788.719 89.2252 Q785.235 88.6581 781.954 87.4428 L781.954 80.1917 Q785.235 81.9741 788.435 82.8248 Q791.636 83.6755 794.957 83.6755 Q802.29 83.6755 805.935 79.8271 Q809.581 76.0193 809.581 68.282 L809.581 64.5957 Q807.272 68.6061 803.667 70.5911 Q800.062 72.576 795.038 72.576 Q786.694 72.576 781.589 66.2161 Q776.485 59.8562 776.485 49.3643 Q776.485 38.832 781.589 32.472 Q786.694 26.1121 795.038 26.1121 Q800.062 26.1121 803.667 28.0971 Q807.272 30.082 809.581 34.0924 L809.581 27.2059 L817.035 27.2059 L817.035 66.9452 Z" fill="#000000" fill-rule="evenodd" fill-opacity="1" /><path clip-path="url(#clip990)" d="M829.309 10.2326 L834.049 10.2326 L834.049 31.0542 L848.065 20.1168 L854.06 20.1168 L838.869 31.9859 L854.668 45.516 L848.551 45.516 L834.049 33.1202 L834.049 45.516 L829.309 45.516 L829.309 10.2326 Z" fill="#000000" fill-rule="evenodd" fill-opacity="1" /><path clip-path="url(#clip990)" d="M885.617 9.62495 Q880.188 18.942 877.555 28.0566 Q874.922 37.1711 874.922 46.5287 Q874.922 55.8863 877.555 65.0818 Q880.229 74.2369 885.617 83.5134 L879.135 83.5134 Q873.059 73.9938 870.021 64.7983 Q867.023 55.6027 867.023 46.5287 Q867.023 37.4952 870.021 28.3401 Q873.018 19.1851 879.135 9.62495 L885.617 9.62495 Z" fill="#000000" fill-rule="evenodd" fill-opacity="1" /><path clip-path="url(#clip990)" d="M937.792 45.1919 L937.792 72.576 L930.339 72.576 L930.339 45.4349 Q930.339 38.994 927.827 35.7938 Q925.315 32.5936 920.292 32.5936 Q914.257 32.5936 910.773 36.4419 Q907.289 40.2903 907.289 46.9338 L907.289 72.576 L899.795 72.576 L899.795 27.2059 L907.289 27.2059 L907.289 34.2544 Q909.963 30.163 913.568 28.1376 Q917.214 26.1121 921.953 26.1121 Q929.771 26.1121 933.782 30.9732 Q937.792 35.7938 937.792 45.1919 Z" fill="#000000" fill-rule="evenodd" fill-opacity="1" /><path clip-path="url(#clip990)" d="M951.484 9.62495 L957.966 9.62495 Q964.042 19.1851 967.04 28.3401 Q970.078 37.4952 970.078 46.5287 Q970.078 55.6027 967.04 64.7983 Q964.042 73.9938 957.966 83.5134 L951.484 83.5134 Q956.872 74.2369 959.505 65.0818 Q962.179 55.8863 962.179 46.5287 Q962.179 37.1711 959.505 28.0566 Q956.872 18.942 951.484 9.62495 Z" fill="#000000" fill-rule="evenodd" fill-opacity="1" /><polyline clip-path="url(#clip992)" style="stroke:#009af9; stroke-linecap:butt; stroke-linejoin:round; stroke-width:12; stroke-opacity:1; fill:none" points="
  307.558,132.71 356.878,521.547 455.518,603.238 554.159,615.904 652.8,621.086 751.44,621.806 
  "/>
<path clip-path="url(#clip992)" d="M307.558 148.71 L296.246 144.022 L291.558 132.71 L296.246 121.398 L307.558 116.71 L318.87 121.398 L323.558 132.71 L318.87 144.022 Z" fill="#009af9" fill-rule="evenodd" fill-opacity="1" stroke="#000000" stroke-opacity="1" stroke-width="1.6"/>
<path clip-path="url(#clip992)" d="M356.878 537.547 L345.566 532.859 L340.878 521.547 L345.566 510.235 L356.878 505.547 L368.19 510.235 L372.878 521.547 L368.19 532.859 Z" fill="#009af9" fill-rule="evenodd" fill-opacity="1" stroke="#000000" stroke-opacity="1" stroke-width="1.6"/>
<path clip-path="url(#clip992)" d="M455.518 619.238 L444.206 614.55 L439.518 603.238 L444.206 591.926 L455.518 587.238 L466.83 591.926 L471.518 603.238 L466.83 614.55 Z" fill="#009af9" fill-rule="evenodd" fill-opacity="1" stroke="#000000" stroke-opacity="1" stroke-width="1.6"/>
<path clip-path="url(#clip992)" d="M554.159 631.904 L542.847 627.216 L538.159 615.904 L542.847 604.592 L554.159 599.904 L565.471 604.592 L570.159 615.904 L565.471 627.216 Z" fill="#009af9" fill-rule="evenodd" fill-opacity="1" stroke="#000000" stroke-opacity="1" stroke-width="1.6"/>
<path clip-path="url(#clip992)" d="M652.8 637.086 L641.488 632.398 L636.8 621.086 L641.488 609.774 L652.8 605.086 L664.112 609.774 L668.8 621.086 L664.112 632.398 Z" fill="#009af9" fill-rule="evenodd" fill-opacity="1" stroke="#000000" stroke-opacity="1" stroke-width="1.6"/>
<path clip-path="url(#clip992)" d="M751.44 637.806 L740.128 633.118 L735.44 621.806 L740.128 610.494 L751.44 605.806 L762.752 610.494 L767.44 621.806 L762.752 633.118 Z" fill="#009af9" fill-rule="evenodd" fill-opacity="1" stroke="#000000" stroke-opacity="1" stroke-width="1.6"/>
<polyline clip-path="url(#clip992)" style="stroke:#e26f46; stroke-linecap:butt; stroke-linejoin:round; stroke-width:12; stroke-opacity:1; fill:none" points="
  307.558,547.939 356.878,613.28 455.518,622.451 554.159,623.457 652.8,623.771 751.44,623.817 1244.64,623.889 
  "/>
<path clip-path="url(#clip992)" d="M307.558 563.939 L296.246 559.251 L291.558 547.939 L296.246 536.627 L307.558 531.939 L318.87 536.627 L323.558 547.939 L318.87 559.251 Z" fill="#e26f46" fill-rule="evenodd" fill-opacity="1" stroke="#000000" stroke-opacity="1" stroke-width="1.6"/>
<path clip-path="url(#clip992)" d="M356.878 629.28 L345.566 624.592 L340.878 613.28 L345.566 601.968 L356.878 597.28 L368.19 601.968 L372.878 613.28 L368.19 624.592 Z" fill="#e26f46" fill-rule="evenodd" fill-opacity="1" stroke="#000000" stroke-opacity="1" stroke-width="1.6"/>
<path clip-path="url(#clip992)" d="M455.518 638.451 L444.206 633.763 L439.518 622.451 L444.206 611.139 L455.518 606.451 L466.83 611.139 L471.518 622.451 L466.83 633.763 Z" fill="#e26f46" fill-rule="evenodd" fill-opacity="1" stroke="#000000" stroke-opacity="1" stroke-width="1.6"/>
<path clip-path="url(#clip992)" d="M554.159 639.457 L542.847 634.769 L538.159 623.457 L542.847 612.145 L554.159 607.457 L565.471 612.145 L570.159 623.457 L565.471 634.769 Z" fill="#e26f46" fill-rule="evenodd" fill-opacity="1" stroke="#000000" stroke-opacity="1" stroke-width="1.6"/>
<path clip-path="url(#clip992)" d="M652.8 639.771 L641.488 635.083 L636.8 623.771 L641.488 612.459 L652.8 607.771 L664.112 612.459 L668.8 623.771 L664.112 635.083 Z" fill="#e26f46" fill-rule="evenodd" fill-opacity="1" stroke="#000000" stroke-opacity="1" stroke-width="1.6"/>
<path clip-path="url(#clip992)" d="M751.44 639.817 L740.128 635.129 L735.44 623.817 L740.128 612.505 L751.44 607.817 L762.752 612.505 L767.44 623.817 L762.752 635.129 Z" fill="#e26f46" fill-rule="evenodd" fill-opacity="1" stroke="#000000" stroke-opacity="1" stroke-width="1.6"/>
<path clip-path="url(#clip992)" d="M1244.64 639.889 L1233.33 635.201 L1228.64 623.889 L1233.33 612.577 L1244.64 607.889 L1255.96 612.577 L1260.64 623.889 L1255.96 635.201 Z" fill="#e26f46" fill-rule="evenodd" fill-opacity="1" stroke="#000000" stroke-opacity="1" stroke-width="1.6"/>
<polyline clip-path="url(#clip992)" style="stroke:#3da44d; stroke-linecap:butt; stroke-linejoin:round; stroke-width:12; stroke-opacity:1; fill:none" points="
  307.558,623.855 356.878,623.905 455.518,623.906 554.159,623.906 652.8,623.906 751.44,623.906 1244.64,623.906 
  "/>
<path clip-path="url(#clip992)" d="M307.558 639.855 L296.246 635.167 L291.558 623.855 L296.246 612.543 L307.558 607.855 L318.87 612.543 L323.558 623.855 L318.87 635.167 Z" fill="#3da44d" fill-rule="evenodd" fill-opacity="1" stroke="#000000" stroke-opacity="1" stroke-width="1.6"/>
<path clip-path="url(#clip992)" d="M356.878 639.905 L345.566 635.217 L340.878 623.905 L345.566 612.593 L356.878 607.905 L368.19 612.593 L372.878 623.905 L368.19 635.217 Z" fill="#3da44d" fill-rule="evenodd" fill-opacity="1" stroke="#000000" stroke-opacity="1" stroke-width="1.6"/>
<path clip-path="url(#clip992)" d="M455.518 639.906 L444.206 635.218 L439.518 623.906 L444.206 612.594 L455.518 607.906 L466.83 612.594 L471.518 623.906 L466.83 635.218 Z" fill="#3da44d" fill-rule="evenodd" fill-opacity="1" stroke="#000000" stroke-opacity="1" stroke-width="1.6"/>
<path clip-path="url(#clip992)" d="M554.159 639.906 L542.847 635.218 L538.159 623.906 L542.847 612.594 L554.159 607.906 L565.471 612.594 L570.159 623.906 L565.471 635.218 Z" fill="#3da44d" fill-rule="evenodd" fill-opacity="1" stroke="#000000" stroke-opacity="1" stroke-width="1.6"/>
<path clip-path="url(#clip992)" d="M652.8 639.906 L641.488 635.218 L636.8 623.906 L641.488 612.594 L652.8 607.906 L664.112 612.594 L668.8 623.906 L664.112 635.218 Z" fill="#3da44d" fill-rule="evenodd" fill-opacity="1" stroke="#000000" stroke-opacity="1" stroke-width="1.6"/>
<path clip-path="url(#clip992)" d="M751.44 639.906 L740.128 635.218 L735.44 623.906 L740.128 612.594 L751.44 607.906 L762.752 612.594 L767.44 623.906 L762.752 635.218 Z" fill="#3da44d" fill-rule="evenodd" fill-opacity="1" stroke="#000000" stroke-opacity="1" stroke-width="1.6"/>
<path clip-path="url(#clip992)" d="M1244.64 639.906 L1233.33 635.218 L1228.64 623.906 L1233.33 612.594 L1244.64 607.906 L1255.96 612.594 L1260.64 623.906 L1255.96 635.218 Z" fill="#3da44d" fill-rule="evenodd" fill-opacity="1" stroke="#000000" stroke-opacity="1" stroke-width="1.6"/>
<path clip-path="url(#clip990)" d="
M963.839 342.69 L1239.65 342.69 L1239.65 135.33 L963.839 135.33  Z
  " fill="#ffffff" fill-rule="evenodd" fill-opacity="1"/>
<polyline clip-path="url(#clip990)" style="stroke:#000000; stroke-linecap:butt; stroke-linejoin:round; stroke-width:4; stroke-opacity:1; fill:none" points="
  963.839,342.69 1239.65,342.69 1239.65,135.33 963.839,135.33 963.839,342.69 
  "/>
<polyline clip-path="url(#clip990)" style="stroke:#009af9; stroke-linecap:butt; stroke-linejoin:round; stroke-width:4; stroke-opacity:1; fill:none" points="
  974.876,187.17 1041.1,187.17 
  "/>
<path clip-path="url(#clip990)" d="M1007.99 212.77 L989.887 205.269 L982.386 187.17 L989.887 169.07 L1007.99 161.57 L1026.09 169.07 L1033.59 187.17 L1026.09 205.269 Z" fill="#009af9" fill-rule="evenodd" fill-opacity="1" stroke="#000000" stroke-opacity="1" stroke-width="2.56"/>
<path clip-path="url(#clip990)" d="M1052.13 168.431 L1056.42 168.431 L1056.42 189.704 L1069.12 178.524 L1074.56 178.524 L1060.81 190.653 L1075.14 204.45 L1069.59 204.45 L1056.42 191.788 L1056.42 204.45 L1052.13 204.45 L1052.13 168.431 Z" fill="#000000" fill-rule="evenodd" fill-opacity="1" /><path clip-path="url(#clip990)" d="M1080.3 182.922 L1109.98 182.922 L1109.98 186.811 L1080.3 186.811 L1080.3 182.922 M1080.3 192.366 L1109.98 192.366 L1109.98 196.301 L1080.3 196.301 L1080.3 192.366 Z" fill="#000000" fill-rule="evenodd" fill-opacity="1" /><path clip-path="url(#clip990)" d="M1130.07 172.968 Q1126.46 172.968 1124.63 176.533 Q1122.83 180.075 1122.83 187.204 Q1122.83 194.311 1124.63 197.875 Q1126.46 201.417 1130.07 201.417 Q1133.71 201.417 1135.51 197.875 Q1137.34 194.311 1137.34 187.204 Q1137.34 180.075 1135.51 176.533 Q1133.71 172.968 1130.07 172.968 M1130.07 169.265 Q1135.88 169.265 1138.94 173.871 Q1142.02 178.454 1142.02 187.204 Q1142.02 195.931 1138.94 200.538 Q1135.88 205.121 1130.07 205.121 Q1124.26 205.121 1121.18 200.538 Q1118.13 195.931 1118.13 187.204 Q1118.13 178.454 1121.18 173.871 Q1124.26 169.265 1130.07 169.265 Z" fill="#000000" fill-rule="evenodd" fill-opacity="1" /><path clip-path="url(#clip990)" d="M1150.23 198.57 L1155.12 198.57 L1155.12 204.45 L1150.23 204.45 L1150.23 198.57 Z" fill="#000000" fill-rule="evenodd" fill-opacity="1" /><path clip-path="url(#clip990)" d="M1175.88 185.306 Q1172.73 185.306 1170.88 187.459 Q1169.05 189.612 1169.05 193.362 Q1169.05 197.088 1170.88 199.264 Q1172.73 201.417 1175.88 201.417 Q1179.03 201.417 1180.86 199.264 Q1182.71 197.088 1182.71 193.362 Q1182.71 189.612 1180.86 187.459 Q1179.03 185.306 1175.88 185.306 M1185.16 170.653 L1185.16 174.913 Q1183.41 174.079 1181.6 173.64 Q1179.82 173.2 1178.06 173.2 Q1173.43 173.2 1170.97 176.325 Q1168.54 179.45 1168.2 185.769 Q1169.56 183.755 1171.62 182.69 Q1173.68 181.602 1176.16 181.602 Q1181.37 181.602 1184.38 184.774 Q1187.41 187.922 1187.41 193.362 Q1187.41 198.686 1184.26 201.903 Q1181.11 205.121 1175.88 205.121 Q1169.89 205.121 1166.72 200.538 Q1163.54 195.931 1163.54 187.204 Q1163.54 179.01 1167.43 174.149 Q1171.32 169.265 1177.87 169.265 Q1179.63 169.265 1181.41 169.612 Q1183.22 169.959 1185.16 170.653 Z" fill="#000000" fill-rule="evenodd" fill-opacity="1" /><path clip-path="url(#clip990)" d="M1206.04 185.306 Q1202.9 185.306 1201.04 187.459 Q1199.22 189.612 1199.22 193.362 Q1199.22 197.088 1201.04 199.264 Q1202.9 201.417 1206.04 201.417 Q1209.19 201.417 1211.02 199.264 Q1212.87 197.088 1212.87 193.362 Q1212.87 189.612 1211.02 187.459 Q1209.19 185.306 1206.04 185.306 M1215.33 170.653 L1215.33 174.913 Q1213.57 174.079 1211.76 173.64 Q1209.98 173.2 1208.22 173.2 Q1203.59 173.2 1201.14 176.325 Q1198.71 179.45 1198.36 185.769 Q1199.72 183.755 1201.79 182.69 Q1203.85 181.602 1206.32 181.602 Q1211.53 181.602 1214.54 184.774 Q1217.57 187.922 1217.57 193.362 Q1217.57 198.686 1214.42 201.903 Q1211.28 205.121 1206.04 205.121 Q1200.05 205.121 1196.88 200.538 Q1193.71 195.931 1193.71 187.204 Q1193.71 179.01 1197.6 174.149 Q1201.48 169.265 1208.03 169.265 Q1209.79 169.265 1211.58 169.612 Q1213.38 169.959 1215.33 170.653 Z" fill="#000000" fill-rule="evenodd" fill-opacity="1" /><polyline clip-path="url(#clip990)" style="stroke:#e26f46; stroke-linecap:butt; stroke-linejoin:round; stroke-width:4; stroke-opacity:1; fill:none" points="
  974.876,239.01 1041.1,239.01 
  "/>
<path clip-path="url(#clip990)" d="M1007.99 264.61 L989.887 257.109 L982.386 239.01 L989.887 220.91 L1007.99 213.41 L1026.09 220.91 L1033.59 239.01 L1026.09 257.109 Z" fill="#e26f46" fill-rule="evenodd" fill-opacity="1" stroke="#000000" stroke-opacity="1" stroke-width="2.56"/>
<path clip-path="url(#clip990)" d="M1052.13 220.271 L1056.42 220.271 L1056.42 241.544 L1069.12 230.364 L1074.56 230.364 L1060.81 242.493 L1075.14 256.29 L1069.59 256.29 L1056.42 243.628 L1056.42 256.29 L1052.13 256.29 L1052.13 220.271 Z" fill="#000000" fill-rule="evenodd" fill-opacity="1" /><path clip-path="url(#clip990)" d="M1080.3 234.762 L1109.98 234.762 L1109.98 238.651 L1080.3 238.651 L1080.3 234.762 M1080.3 244.206 L1109.98 244.206 L1109.98 248.141 L1080.3 248.141 L1080.3 244.206 Z" fill="#000000" fill-rule="evenodd" fill-opacity="1" /><path clip-path="url(#clip990)" d="M1130.07 224.808 Q1126.46 224.808 1124.63 228.373 Q1122.83 231.915 1122.83 239.044 Q1122.83 246.151 1124.63 249.715 Q1126.46 253.257 1130.07 253.257 Q1133.71 253.257 1135.51 249.715 Q1137.34 246.151 1137.34 239.044 Q1137.34 231.915 1135.51 228.373 Q1133.71 224.808 1130.07 224.808 M1130.07 221.105 Q1135.88 221.105 1138.94 225.711 Q1142.02 230.294 1142.02 239.044 Q1142.02 247.771 1138.94 252.378 Q1135.88 256.961 1130.07 256.961 Q1124.26 256.961 1121.18 252.378 Q1118.13 247.771 1118.13 239.044 Q1118.13 230.294 1121.18 225.711 Q1124.26 221.105 1130.07 221.105 Z" fill="#000000" fill-rule="evenodd" fill-opacity="1" /><path clip-path="url(#clip990)" d="M1150.23 250.41 L1155.12 250.41 L1155.12 256.29 L1150.23 256.29 L1150.23 250.41 Z" fill="#000000" fill-rule="evenodd" fill-opacity="1" /><path clip-path="url(#clip990)" d="M1164.12 221.73 L1186.35 221.73 L1186.35 223.72 L1173.8 256.29 L1168.91 256.29 L1180.72 225.665 L1164.12 225.665 L1164.12 221.73 Z" fill="#000000" fill-rule="evenodd" fill-opacity="1" /><path clip-path="url(#clip990)" d="M1195.51 221.73 L1213.87 221.73 L1213.87 225.665 L1199.79 225.665 L1199.79 234.137 Q1200.81 233.79 1201.83 233.628 Q1202.85 233.442 1203.87 233.442 Q1209.66 233.442 1213.03 236.614 Q1216.41 239.785 1216.41 245.202 Q1216.41 250.78 1212.94 253.882 Q1209.47 256.961 1203.15 256.961 Q1200.97 256.961 1198.71 256.59 Q1196.46 256.22 1194.05 255.479 L1194.05 250.78 Q1196.14 251.915 1198.36 252.47 Q1200.58 253.026 1203.06 253.026 Q1207.06 253.026 1209.4 250.919 Q1211.74 248.813 1211.74 245.202 Q1211.74 241.591 1209.4 239.484 Q1207.06 237.378 1203.06 237.378 Q1201.18 237.378 1199.31 237.794 Q1197.46 238.211 1195.51 239.091 L1195.51 221.73 Z" fill="#000000" fill-rule="evenodd" fill-opacity="1" /><polyline clip-path="url(#clip990)" style="stroke:#3da44d; stroke-linecap:butt; stroke-linejoin:round; stroke-width:4; stroke-opacity:1; fill:none" points="
  974.876,290.85 1041.1,290.85 
  "/>
<path clip-path="url(#clip990)" d="M1007.99 316.45 L989.887 308.949 L982.386 290.85 L989.887 272.75 L1007.99 265.25 L1026.09 272.75 L1033.59 290.85 L1026.09 308.949 Z" fill="#3da44d" fill-rule="evenodd" fill-opacity="1" stroke="#000000" stroke-opacity="1" stroke-width="2.56"/>
<path clip-path="url(#clip990)" d="M1052.13 272.111 L1056.42 272.111 L1056.42 293.384 L1069.12 282.204 L1074.56 282.204 L1060.81 294.333 L1075.14 308.13 L1069.59 308.13 L1056.42 295.468 L1056.42 308.13 L1052.13 308.13 L1052.13 272.111 Z" fill="#000000" fill-rule="evenodd" fill-opacity="1" /><path clip-path="url(#clip990)" d="M1080.3 286.602 L1109.98 286.602 L1109.98 290.491 L1080.3 290.491 L1080.3 286.602 M1080.3 296.046 L1109.98 296.046 L1109.98 299.981 L1080.3 299.981 L1080.3 296.046 Z" fill="#000000" fill-rule="evenodd" fill-opacity="1" /><path clip-path="url(#clip990)" d="M1120.88 304.194 L1128.52 304.194 L1128.52 277.829 L1120.21 279.495 L1120.21 275.236 L1128.48 273.57 L1133.15 273.57 L1133.15 304.194 L1140.79 304.194 L1140.79 308.13 L1120.88 308.13 L1120.88 304.194 Z" fill="#000000" fill-rule="evenodd" fill-opacity="1" /><path clip-path="url(#clip990)" d="M1150.23 302.25 L1155.12 302.25 L1155.12 308.13 L1150.23 308.13 L1150.23 302.25 Z" fill="#000000" fill-rule="evenodd" fill-opacity="1" /><path clip-path="url(#clip990)" d="M1175.3 276.648 Q1171.69 276.648 1169.86 280.213 Q1168.06 283.755 1168.06 290.884 Q1168.06 297.991 1169.86 301.555 Q1171.69 305.097 1175.3 305.097 Q1178.94 305.097 1180.74 301.555 Q1182.57 297.991 1182.57 290.884 Q1182.57 283.755 1180.74 280.213 Q1178.94 276.648 1175.3 276.648 M1175.3 272.945 Q1181.11 272.945 1184.17 277.551 Q1187.25 282.134 1187.25 290.884 Q1187.25 299.611 1184.17 304.218 Q1181.11 308.801 1175.3 308.801 Q1169.49 308.801 1166.41 304.218 Q1163.36 299.611 1163.36 290.884 Q1163.36 282.134 1166.41 277.551 Q1169.49 272.945 1175.3 272.945 Z" fill="#000000" fill-rule="evenodd" fill-opacity="1" /><path clip-path="url(#clip990)" d="M1205.47 276.648 Q1201.85 276.648 1200.03 280.213 Q1198.22 283.755 1198.22 290.884 Q1198.22 297.991 1200.03 301.555 Q1201.85 305.097 1205.47 305.097 Q1209.1 305.097 1210.91 301.555 Q1212.73 297.991 1212.73 290.884 Q1212.73 283.755 1210.91 280.213 Q1209.1 276.648 1205.47 276.648 M1205.47 272.945 Q1211.28 272.945 1214.33 277.551 Q1217.41 282.134 1217.41 290.884 Q1217.41 299.611 1214.33 304.218 Q1211.28 308.801 1205.47 308.801 Q1199.66 308.801 1196.58 304.218 Q1193.52 299.611 1193.52 290.884 Q1193.52 282.134 1196.58 277.551 Q1199.66 272.945 1205.47 272.945 Z" fill="#000000" fill-rule="evenodd" fill-opacity="1" /></svg>
