<?xml version="1.0" encoding="utf-8"?>
<svg xmlns="http://www.w3.org/2000/svg" xmlns:xlink="http://www.w3.org/1999/xlink" width="600" height="400" viewBox="0 0 2400 1600">
<defs>
  <clipPath id="clip740">
    <rect x="0" y="0" width="2400" height="1600"/>
  </clipPath>
</defs>
<path clip-path="url(#clip740)" d="
M0 1600 L2400 1600 L2400 0 L0 0  Z
  " fill="#ffffff" fill-rule="evenodd" fill-opacity="1"/>
<defs>
  <clipPath id="clip741">
    <rect x="480" y="0" width="1681" height="1600"/>
  </clipPath>
</defs>
<path clip-path="url(#clip740)" d="
M219.866 1423.18 L2352.76 1423.18 L2352.76 123.472 L219.866 123.472  Z
  " fill="#ffffff" fill-rule="evenodd" fill-opacity="1"/>
<defs>
  <clipPath id="clip742">
    <rect x="219" y="123" width="2134" height="1301"/>
  </clipPath>
</defs>
<polyline clip-path="url(#clip742)" style="stroke:#000000; stroke-linecap:butt; stroke-linejoin:round; stroke-width:2; stroke-opacity:0.1; fill:none" points="
  228.637,1423.18 228.637,123.472 
  "/>
<polyline clip-path="url(#clip742)" style="stroke:#000000; stroke-linecap:butt; stroke-linejoin:round; stroke-width:2; stroke-opacity:0.1; fill:none" points="
  744.576,1423.18 744.576,123.472 
  "/>
<polyline clip-path="url(#clip742)" style="stroke:#000000; stroke-linecap:butt; stroke-linejoin:round; stroke-width:2; stroke-opacity:0.1; fill:none" points="
  1260.51,1423.18 1260.51,123.472 
  "/>
<polyline clip-path="url(#clip742)" style="stroke:#000000; stroke-linecap:butt; stroke-linejoin:round; stroke-width:2; stroke-opacity:0.1; fill:none" points="
  1776.45,1423.18 1776.45,123.472 
  "/>
<polyline clip-path="url(#clip742)" style="stroke:#000000; stroke-linecap:butt; stroke-linejoin:round; stroke-width:2; stroke-opacity:0.1; fill:none" points="
  2292.39,1423.18 2292.39,123.472 
  "/>
<polyline clip-path="url(#clip740)" style="stroke:#000000; stroke-linecap:butt; stroke-linejoin:round; stroke-width:4; stroke-opacity:1; fill:none" points="
  219.866,1423.18 2352.76,1423.18 
  "/>
<polyline clip-path="url(#clip740)" style="stroke:#000000; stroke-linecap:butt; stroke-linejoin:round; stroke-width:4; stroke-opacity:1; fill:none" points="
  228.637,1423.18 228.637,1404.28 
  "/>
<polyline clip-path="url(#clip740)" style="stroke:#000000; stroke-linecap:butt; stroke-linejoin:round; stroke-width:4; stroke-opacity:1; fill:none" points="
  744.576,1423.18 744.576,1404.28 
  "/>
<polyline clip-path="url(#clip740)" style="stroke:#000000; stroke-linecap:butt; stroke-linejoin:round; stroke-width:4; stroke-opacity:1; fill:none" points="
  1260.51,1423.18 1260.51,1404.28 
  "/>
<polyline clip-path="url(#clip740)" style="stroke:#000000; stroke-linecap:butt; stroke-linejoin:round; stroke-width:4; stroke-opacity:1; fill:none" points="
  1776.45,1423.18 1776.45,1404.28 
  "/>
<polyline clip-path="url(#clip740)" style="stroke:#000000; stroke-linecap:butt; stroke-linejoin:round; stroke-width:4; stroke-opacity:1; fill:none" points="
  2292.39,1423.18 2292.39,1404.28 
  "/>
<path clip-path="url(#clip740)" d="M228.637 1454.1 Q225.026 1454.1 223.197 1457.66 Q221.392 1461.2 221.392 1468.33 Q221.392 1475.44 223.197 1479.01 Q225.026 1482.55 228.637 1482.55 Q232.271 1482.55 234.077 1479.01 Q235.906 1475.44 235.906 1468.33 Q235.906 1461.2 234.077 1457.66 Q232.271 1454.1 228.637 1454.1 M228.637 1450.39 Q234.447 1450.39 237.503 1455 Q240.582 1459.58 240.582 1468.33 Q240.582 1477.06 237.503 1481.67 Q234.447 1486.25 228.637 1486.25 Q222.827 1486.25 219.748 1481.67 Q216.693 1477.06 216.693 1468.33 Q216.693 1459.58 219.748 1455 Q222.827 1450.39 228.637 1450.39 Z" fill="#000000" fill-rule="evenodd" fill-opacity="1" /><path clip-path="url(#clip740)" d="M704.194 1451.02 L722.55 1451.02 L722.55 1454.96 L708.476 1454.96 L708.476 1463.43 Q709.495 1463.08 710.513 1462.92 Q711.532 1462.73 712.55 1462.73 Q718.337 1462.73 721.717 1465.9 Q725.097 1469.08 725.097 1474.49 Q725.097 1480.07 721.624 1483.17 Q718.152 1486.25 711.833 1486.25 Q709.657 1486.25 707.388 1485.88 Q705.143 1485.51 702.736 1484.77 L702.736 1480.07 Q704.819 1481.2 707.041 1481.76 Q709.263 1482.32 711.74 1482.32 Q715.745 1482.32 718.083 1480.21 Q720.421 1478.1 720.421 1474.49 Q720.421 1470.88 718.083 1468.77 Q715.745 1466.67 711.74 1466.67 Q709.865 1466.67 707.99 1467.08 Q706.138 1467.5 704.194 1468.38 L704.194 1451.02 Z" fill="#000000" fill-rule="evenodd" fill-opacity="1" /><path clip-path="url(#clip740)" d="M744.309 1454.1 Q740.698 1454.1 738.87 1457.66 Q737.064 1461.2 737.064 1468.33 Q737.064 1475.44 738.87 1479.01 Q740.698 1482.55 744.309 1482.55 Q747.944 1482.55 749.749 1479.01 Q751.578 1475.44 751.578 1468.33 Q751.578 1461.2 749.749 1457.66 Q747.944 1454.1 744.309 1454.1 M744.309 1450.39 Q750.12 1450.39 753.175 1455 Q756.254 1459.58 756.254 1468.33 Q756.254 1477.06 753.175 1481.67 Q750.12 1486.25 744.309 1486.25 Q738.499 1486.25 735.421 1481.67 Q732.365 1477.06 732.365 1468.33 Q732.365 1459.58 735.421 1455 Q738.499 1450.39 744.309 1450.39 Z" fill="#000000" fill-rule="evenodd" fill-opacity="1" /><path clip-path="url(#clip740)" d="M774.471 1454.1 Q770.86 1454.1 769.032 1457.66 Q767.226 1461.2 767.226 1468.33 Q767.226 1475.44 769.032 1479.01 Q770.86 1482.55 774.471 1482.55 Q778.106 1482.55 779.911 1479.01 Q781.74 1475.44 781.74 1468.33 Q781.74 1461.2 779.911 1457.66 Q778.106 1454.1 774.471 1454.1 M774.471 1450.39 Q780.282 1450.39 783.337 1455 Q786.416 1459.58 786.416 1468.33 Q786.416 1477.06 783.337 1481.67 Q780.282 1486.25 774.471 1486.25 Q768.661 1486.25 765.583 1481.67 Q762.527 1477.06 762.527 1468.33 Q762.527 1459.58 765.583 1455 Q768.661 1450.39 774.471 1450.39 Z" fill="#000000" fill-rule="evenodd" fill-opacity="1" /><path clip-path="url(#clip740)" d="M1205.04 1481.64 L1212.68 1481.64 L1212.68 1455.28 L1204.37 1456.95 L1204.37 1452.69 L1212.63 1451.02 L1217.31 1451.02 L1217.31 1481.64 L1224.95 1481.64 L1224.95 1485.58 L1205.04 1485.58 L1205.04 1481.64 Z" fill="#000000" fill-rule="evenodd" fill-opacity="1" /><path clip-path="url(#clip740)" d="M1244.39 1454.1 Q1240.78 1454.1 1238.95 1457.66 Q1237.15 1461.2 1237.15 1468.33 Q1237.15 1475.44 1238.95 1479.01 Q1240.78 1482.55 1244.39 1482.55 Q1248.03 1482.55 1249.83 1479.01 Q1251.66 1475.44 1251.66 1468.33 Q1251.66 1461.2 1249.83 1457.66 Q1248.03 1454.1 1244.39 1454.1 M1244.39 1450.39 Q1250.2 1450.39 1253.26 1455 Q1256.34 1459.58 1256.34 1468.33 Q1256.34 1477.06 1253.26 1481.67 Q1250.2 1486.25 1244.39 1486.25 Q1238.58 1486.25 1235.5 1481.67 Q1232.45 1477.06 1232.45 1468.33 Q1232.45 1459.58 1235.5 1455 Q1238.58 1450.39 1244.39 1450.39 Z" fill="#000000" fill-rule="evenodd" fill-opacity="1" /><path clip-path="url(#clip740)" d="M1274.55 1454.1 Q1270.94 1454.1 1269.11 1457.66 Q1267.31 1461.2 1267.31 1468.33 Q1267.31 1475.44 1269.11 1479.01 Q1270.94 1482.55 1274.55 1482.55 Q1278.19 1482.55 1279.99 1479.01 Q1281.82 1475.44 1281.82 1468.33 Q1281.82 1461.2 1279.99 1457.66 Q1278.19 1454.1 1274.55 1454.1 M1274.55 1450.39 Q1280.36 1450.39 1283.42 1455 Q1286.5 1459.58 1286.5 1468.33 Q1286.5 1477.06 1283.42 1481.67 Q1280.36 1486.25 1274.55 1486.25 Q1268.74 1486.25 1265.66 1481.67 Q1262.61 1477.06 1262.61 1468.33 Q1262.61 1459.58 1265.66 1455 Q1268.74 1450.39 1274.55 1450.39 Z" fill="#000000" fill-rule="evenodd" fill-opacity="1" /><path clip-path="url(#clip740)" d="M1304.72 1454.1 Q1301.1 1454.1 1299.28 1457.66 Q1297.47 1461.2 1297.47 1468.33 Q1297.47 1475.44 1299.28 1479.01 Q1301.1 1482.55 1304.72 1482.55 Q1308.35 1482.55 1310.16 1479.01 Q1311.98 1475.44 1311.98 1468.33 Q1311.98 1461.2 1310.16 1457.66 Q1308.35 1454.1 1304.72 1454.1 M1304.72 1450.39 Q1310.53 1450.39 1313.58 1455 Q1316.66 1459.58 1316.66 1468.33 Q1316.66 1477.06 1313.58 1481.67 Q1310.53 1486.25 1304.72 1486.25 Q1298.91 1486.25 1295.83 1481.67 Q1292.77 1477.06 1292.77 1468.33 Q1292.77 1459.58 1295.83 1455 Q1298.91 1450.39 1304.72 1450.39 Z" fill="#000000" fill-rule="evenodd" fill-opacity="1" /><path clip-path="url(#clip740)" d="M1720.98 1481.64 L1728.62 1481.64 L1728.62 1455.28 L1720.31 1456.95 L1720.31 1452.69 L1728.57 1451.02 L1733.25 1451.02 L1733.25 1481.64 L1740.89 1481.64 L1740.89 1485.58 L1720.98 1485.58 L1720.98 1481.64 Z" fill="#000000" fill-rule="evenodd" fill-opacity="1" /><path clip-path="url(#clip740)" d="M1750.38 1451.02 L1768.73 1451.02 L1768.73 1454.96 L1754.66 1454.96 L1754.66 1463.43 Q1755.68 1463.08 1756.7 1462.92 Q1757.71 1462.73 1758.73 1462.73 Q1764.52 1462.73 1767.9 1465.9 Q1771.28 1469.08 1771.28 1474.49 Q1771.28 1480.07 1767.81 1483.17 Q1764.33 1486.25 1758.02 1486.25 Q1755.84 1486.25 1753.57 1485.88 Q1751.33 1485.51 1748.92 1484.77 L1748.92 1480.07 Q1751 1481.2 1753.22 1481.76 Q1755.45 1482.32 1757.92 1482.32 Q1761.93 1482.32 1764.27 1480.21 Q1766.6 1478.1 1766.6 1474.49 Q1766.6 1470.88 1764.27 1468.77 Q1761.93 1466.67 1757.92 1466.67 Q1756.05 1466.67 1754.17 1467.08 Q1752.32 1467.5 1750.38 1468.38 L1750.38 1451.02 Z" fill="#000000" fill-rule="evenodd" fill-opacity="1" /><path clip-path="url(#clip740)" d="M1790.49 1454.1 Q1786.88 1454.1 1785.05 1457.66 Q1783.25 1461.2 1783.25 1468.33 Q1783.25 1475.44 1785.05 1479.01 Q1786.88 1482.55 1790.49 1482.55 Q1794.13 1482.55 1795.93 1479.01 Q1797.76 1475.44 1797.76 1468.33 Q1797.76 1461.2 1795.93 1457.66 Q1794.13 1454.1 1790.49 1454.1 M1790.49 1450.39 Q1796.3 1450.39 1799.36 1455 Q1802.44 1459.58 1802.44 1468.33 Q1802.44 1477.06 1799.36 1481.67 Q1796.3 1486.25 1790.49 1486.25 Q1784.68 1486.25 1781.6 1481.67 Q1778.55 1477.06 1778.55 1468.33 Q1778.55 1459.58 1781.6 1455 Q1784.68 1450.39 1790.49 1450.39 Z" fill="#000000" fill-rule="evenodd" fill-opacity="1" /><path clip-path="url(#clip740)" d="M1820.65 1454.1 Q1817.04 1454.1 1815.21 1457.66 Q1813.41 1461.2 1813.41 1468.33 Q1813.41 1475.44 1815.21 1479.01 Q1817.04 1482.55 1820.65 1482.55 Q1824.29 1482.55 1826.09 1479.01 Q1827.92 1475.44 1827.92 1468.33 Q1827.92 1461.2 1826.09 1457.66 Q1824.29 1454.1 1820.65 1454.1 M1820.65 1450.39 Q1826.46 1450.39 1829.52 1455 Q1832.6 1459.58 1832.6 1468.33 Q1832.6 1477.06 1829.52 1481.67 Q1826.46 1486.25 1820.65 1486.25 Q1814.84 1486.25 1811.76 1481.67 Q1808.71 1477.06 1808.71 1468.33 Q1808.71 1459.58 1811.76 1455 Q1814.84 1450.39 1820.65 1450.39 Z" fill="#000000" fill-rule="evenodd" fill-opacity="1" /><path clip-path="url(#clip740)" d="M2241 1481.64 L2257.32 1481.64 L2257.32 1485.58 L2235.38 1485.58 L2235.38 1481.64 Q2238.04 1478.89 2242.62 1474.26 Q2247.23 1469.61 2248.41 1468.27 Q2250.66 1465.74 2251.53 1464.01 Q2252.44 1462.25 2252.44 1460.56 Q2252.44 1457.8 2250.49 1456.07 Q2248.57 1454.33 2245.47 1454.33 Q2243.27 1454.33 2240.82 1455.09 Q2238.39 1455.86 2235.61 1457.41 L2235.61 1452.69 Q2238.43 1451.55 2240.89 1450.97 Q2243.34 1450.39 2245.38 1450.39 Q2250.75 1450.39 2253.94 1453.08 Q2257.14 1455.77 2257.14 1460.26 Q2257.14 1462.39 2256.33 1464.31 Q2255.54 1466.2 2253.43 1468.8 Q2252.85 1469.47 2249.75 1472.69 Q2246.65 1475.88 2241 1481.64 Z" fill="#000000" fill-rule="evenodd" fill-opacity="1" /><path clip-path="url(#clip740)" d="M2277.14 1454.1 Q2273.53 1454.1 2271.7 1457.66 Q2269.89 1461.2 2269.89 1468.33 Q2269.89 1475.44 2271.7 1479.01 Q2273.53 1482.55 2277.14 1482.55 Q2280.77 1482.55 2282.58 1479.01 Q2284.41 1475.44 2284.41 1468.33 Q2284.41 1461.2 2282.58 1457.66 Q2280.77 1454.1 2277.14 1454.1 M2277.14 1450.39 Q2282.95 1450.39 2286 1455 Q2289.08 1459.58 2289.08 1468.33 Q2289.08 1477.06 2286 1481.67 Q2282.95 1486.25 2277.14 1486.25 Q2271.33 1486.25 2268.25 1481.67 Q2265.19 1477.06 2265.19 1468.33 Q2265.19 1459.58 2268.25 1455 Q2271.33 1450.39 2277.14 1450.39 Z" fill="#000000" fill-rule="evenodd" fill-opacity="1" /><path clip-path="url(#clip740)" d="M2307.3 1454.1 Q2303.69 1454.1 2301.86 1457.66 Q2300.05 1461.2 2300.05 1468.33 Q2300.05 1475.44 2301.86 1479.01 Q2303.69 1482.55 2307.3 1482.55 Q2310.93 1482.55 2312.74 1479.01 Q2314.57 1475.44 2314.57 1468.33 Q2314.57 1461.2 2312.74 1457.66 Q2310.93 1454.1 2307.3 1454.1 M2307.3 1450.39 Q2313.11 1450.39 2316.16 1455 Q2319.24 1459.58 2319.24 1468.33 Q2319.24 1477.06 2316.16 1481.67 Q2313.11 1486.25 2307.3 1486.25 Q2301.49 1486.25 2298.41 1481.67 Q2295.35 1477.06 2295.35 1468.33 Q2295.35 1459.58 2298.41 1455 Q2301.49 1450.39 2307.3 1450.39 Z" fill="#000000" fill-rule="evenodd" fill-opacity="1" /><path clip-path="url(#clip740)" d="M2337.46 1454.1 Q2333.85 1454.1 2332.02 1457.66 Q2330.21 1461.2 2330.21 1468.33 Q2330.21 1475.44 2332.02 1479.01 Q2333.85 1482.55 2337.46 1482.55 Q2341.09 1482.55 2342.9 1479.01 Q2344.73 1475.44 2344.73 1468.33 Q2344.73 1461.2 2342.9 1457.66 Q2341.09 1454.1 2337.46 1454.1 M2337.46 1450.39 Q2343.27 1450.39 2346.33 1455 Q2349.4 1459.58 2349.4 1468.33 Q2349.4 1477.06 2346.33 1481.67 Q2343.27 1486.25 2337.46 1486.25 Q2331.65 1486.25 2328.57 1481.67 Q2325.52 1477.06 2325.52 1468.33 Q2325.52 1459.58 2328.57 1455 Q2331.65 1450.39 2337.46 1450.39 Z" fill="#000000" fill-rule="evenodd" fill-opacity="1" /><path clip-path="url(#clip740)" d="M1301.24 1546.53 L1301.24 1568.04 L1295.38 1568.04 L1295.38 1546.72 Q1295.38 1541.66 1293.41 1539.14 Q1291.44 1536.63 1287.49 1536.63 Q1282.75 1536.63 1280.01 1539.65 Q1277.27 1542.68 1277.27 1547.9 L1277.27 1568.04 L1271.38 1568.04 L1271.38 1532.4 L1277.27 1532.4 L1277.27 1537.93 Q1279.37 1534.72 1282.21 1533.13 Q1285.07 1531.54 1288.79 1531.54 Q1294.94 1531.54 1298.09 1535.36 Q1301.24 1539.14 1301.24 1546.53 Z" fill="#000000" fill-rule="evenodd" fill-opacity="1" /><polyline clip-path="url(#clip742)" style="stroke:#000000; stroke-linecap:butt; stroke-linejoin:round; stroke-width:2; stroke-opacity:0.1; fill:none" points="
  219.866,1422.54 2352.76,1422.54 
  "/>
<polyline clip-path="url(#clip742)" style="stroke:#000000; stroke-linecap:butt; stroke-linejoin:round; stroke-width:2; stroke-opacity:0.1; fill:none" points="
  219.866,1036.25 2352.76,1036.25 
  "/>
<polyline clip-path="url(#clip742)" style="stroke:#000000; stroke-linecap:butt; stroke-linejoin:round; stroke-width:2; stroke-opacity:0.1; fill:none" points="
  219.866,649.97 2352.76,649.97 
  "/>
<polyline clip-path="url(#clip742)" style="stroke:#000000; stroke-linecap:butt; stroke-linejoin:round; stroke-width:2; stroke-opacity:0.1; fill:none" points="
  219.866,263.685 2352.76,263.685 
  "/>
<polyline clip-path="url(#clip740)" style="stroke:#000000; stroke-linecap:butt; stroke-linejoin:round; stroke-width:4; stroke-opacity:1; fill:none" points="
  219.866,1423.18 219.866,123.472 
  "/>
<polyline clip-path="url(#clip740)" style="stroke:#000000; stroke-linecap:butt; stroke-linejoin:round; stroke-width:4; stroke-opacity:1; fill:none" points="
  219.866,1422.54 238.764,1422.54 
  "/>
<polyline clip-path="url(#clip740)" style="stroke:#000000; stroke-linecap:butt; stroke-linejoin:round; stroke-width:4; stroke-opacity:1; fill:none" points="
  219.866,1036.25 238.764,1036.25 
  "/>
<polyline clip-path="url(#clip740)" style="stroke:#000000; stroke-linecap:butt; stroke-linejoin:round; stroke-width:4; stroke-opacity:1; fill:none" points="
  219.866,649.97 238.764,649.97 
  "/>
<polyline clip-path="url(#clip740)" style="stroke:#000000; stroke-linecap:butt; stroke-linejoin:round; stroke-width:4; stroke-opacity:1; fill:none" points="
  219.866,263.685 238.764,263.685 
  "/>
<path clip-path="url(#clip740)" d="M127.917 1408.34 Q124.306 1408.34 122.478 1411.9 Q120.672 1415.44 120.672 1422.57 Q120.672 1429.68 122.478 1433.24 Q124.306 1436.79 127.917 1436.79 Q131.552 1436.79 133.357 1433.24 Q135.186 1429.68 135.186 1422.57 Q135.186 1415.44 133.357 1411.9 Q131.552 1408.34 127.917 1408.34 M127.917 1404.63 Q133.728 1404.63 136.783 1409.24 Q139.862 1413.82 139.862 1422.57 Q139.862 1431.3 136.783 1435.91 Q133.728 1440.49 127.917 1440.49 Q122.107 1440.49 119.029 1435.91 Q115.973 1431.3 115.973 1422.57 Q115.973 1413.82 119.029 1409.24 Q122.107 1404.63 127.917 1404.63 Z" fill="#000000" fill-rule="evenodd" fill-opacity="1" /><path clip-path="url(#clip740)" d="M148.079 1433.94 L152.964 1433.94 L152.964 1439.82 L148.079 1439.82 L148.079 1433.94 Z" fill="#000000" fill-rule="evenodd" fill-opacity="1" /><path clip-path="url(#clip740)" d="M163.959 1435.88 L171.598 1435.88 L171.598 1409.52 L163.288 1411.18 L163.288 1406.93 L171.552 1405.26 L176.227 1405.26 L176.227 1435.88 L183.866 1435.88 L183.866 1439.82 L163.959 1439.82 L163.959 1435.88 Z" fill="#000000" fill-rule="evenodd" fill-opacity="1" /><path clip-path="url(#clip740)" d="M128.288 1022.05 Q124.677 1022.05 122.848 1025.62 Q121.043 1029.16 121.043 1036.29 Q121.043 1043.4 122.848 1046.96 Q124.677 1050.5 128.288 1050.5 Q131.922 1050.5 133.728 1046.96 Q135.556 1043.4 135.556 1036.29 Q135.556 1029.16 133.728 1025.62 Q131.922 1022.05 128.288 1022.05 M128.288 1018.35 Q134.098 1018.35 137.154 1022.96 Q140.232 1027.54 140.232 1036.29 Q140.232 1045.02 137.154 1049.62 Q134.098 1054.21 128.288 1054.21 Q122.478 1054.21 119.399 1049.62 Q116.343 1045.02 116.343 1036.29 Q116.343 1027.54 119.399 1022.96 Q122.478 1018.35 128.288 1018.35 Z" fill="#000000" fill-rule="evenodd" fill-opacity="1" /><path clip-path="url(#clip740)" d="M148.45 1047.65 L153.334 1047.65 L153.334 1053.53 L148.45 1053.53 L148.45 1047.65 Z" fill="#000000" fill-rule="evenodd" fill-opacity="1" /><path clip-path="url(#clip740)" d="M167.547 1049.6 L183.866 1049.6 L183.866 1053.53 L161.922 1053.53 L161.922 1049.6 Q164.584 1046.84 169.167 1042.21 Q173.774 1037.56 174.954 1036.22 Q177.2 1033.7 178.079 1031.96 Q178.982 1030.2 178.982 1028.51 Q178.982 1025.76 177.038 1024.02 Q175.116 1022.28 172.014 1022.28 Q169.815 1022.28 167.362 1023.05 Q164.931 1023.81 162.153 1025.36 L162.153 1020.64 Q164.977 1019.51 167.431 1018.93 Q169.885 1018.35 171.922 1018.35 Q177.292 1018.35 180.487 1021.03 Q183.681 1023.72 183.681 1028.21 Q183.681 1030.34 182.871 1032.26 Q182.084 1034.16 179.977 1036.75 Q179.399 1037.42 176.297 1040.64 Q173.195 1043.84 167.547 1049.6 Z" fill="#000000" fill-rule="evenodd" fill-opacity="1" /><path clip-path="url(#clip740)" d="M127.339 635.768 Q123.728 635.768 121.899 639.333 Q120.093 642.875 120.093 650.004 Q120.093 657.111 121.899 660.676 Q123.728 664.217 127.339 664.217 Q130.973 664.217 132.779 660.676 Q134.607 657.111 134.607 650.004 Q134.607 642.875 132.779 639.333 Q130.973 635.768 127.339 635.768 M127.339 632.065 Q133.149 632.065 136.204 636.671 Q139.283 641.254 139.283 650.004 Q139.283 658.731 136.204 663.338 Q133.149 667.921 127.339 667.921 Q121.529 667.921 118.45 663.338 Q115.394 658.731 115.394 650.004 Q115.394 641.254 118.45 636.671 Q121.529 632.065 127.339 632.065 Z" fill="#000000" fill-rule="evenodd" fill-opacity="1" /><path clip-path="url(#clip740)" d="M147.501 661.37 L152.385 661.37 L152.385 667.25 L147.501 667.25 L147.501 661.37 Z" fill="#000000" fill-rule="evenodd" fill-opacity="1" /><path clip-path="url(#clip740)" d="M176.737 648.616 Q180.093 649.333 181.968 651.602 Q183.866 653.87 183.866 657.203 Q183.866 662.319 180.348 665.12 Q176.829 667.921 170.348 667.921 Q168.172 667.921 165.857 667.481 Q163.565 667.064 161.112 666.208 L161.112 661.694 Q163.056 662.828 165.371 663.407 Q167.686 663.986 170.209 663.986 Q174.607 663.986 176.899 662.25 Q179.214 660.514 179.214 657.203 Q179.214 654.148 177.061 652.435 Q174.931 650.699 171.112 650.699 L167.084 650.699 L167.084 646.856 L171.297 646.856 Q174.746 646.856 176.575 645.491 Q178.403 644.102 178.403 641.509 Q178.403 638.847 176.505 637.435 Q174.63 636 171.112 636 Q169.19 636 166.991 636.417 Q164.792 636.833 162.153 637.713 L162.153 633.546 Q164.815 632.805 167.13 632.435 Q169.468 632.065 171.528 632.065 Q176.852 632.065 179.954 634.495 Q183.056 636.903 183.056 641.023 Q183.056 643.893 181.413 645.884 Q179.769 647.852 176.737 648.616 Z" fill="#000000" fill-rule="evenodd" fill-opacity="1" /><path clip-path="url(#clip740)" d="M126.205 249.484 Q122.593 249.484 120.765 253.049 Q118.959 256.59 118.959 263.72 Q118.959 270.826 120.765 274.391 Q122.593 277.933 126.205 277.933 Q129.839 277.933 131.644 274.391 Q133.473 270.826 133.473 263.72 Q133.473 256.59 131.644 253.049 Q129.839 249.484 126.205 249.484 M126.205 245.78 Q132.015 245.78 135.07 250.387 Q138.149 254.97 138.149 263.72 Q138.149 272.447 135.07 277.053 Q132.015 281.637 126.205 281.637 Q120.394 281.637 117.316 277.053 Q114.26 272.447 114.26 263.72 Q114.26 254.97 117.316 250.387 Q120.394 245.78 126.205 245.78 Z" fill="#000000" fill-rule="evenodd" fill-opacity="1" /><path clip-path="url(#clip740)" d="M146.366 275.086 L151.251 275.086 L151.251 280.965 L146.366 280.965 L146.366 275.086 Z" fill="#000000" fill-rule="evenodd" fill-opacity="1" /><path clip-path="url(#clip740)" d="M174.283 250.479 L162.477 268.928 L174.283 268.928 L174.283 250.479 M173.056 246.405 L178.936 246.405 L178.936 268.928 L183.866 268.928 L183.866 272.817 L178.936 272.817 L178.936 280.965 L174.283 280.965 L174.283 272.817 L158.681 272.817 L158.681 268.303 L173.056 246.405 Z" fill="#000000" fill-rule="evenodd" fill-opacity="1" /><path clip-path="url(#clip740)" d="M41.3104 1089.3 L58.7206 1089.3 L58.7206 1078.99 Q58.7206 1073.8 56.5881 1071.32 Q54.4238 1068.81 49.9996 1068.81 Q45.5436 1068.81 43.4429 1071.32 Q41.3104 1073.8 41.3104 1078.99 L41.3104 1089.3 M21.7677 1089.3 L36.0905 1089.3 L36.0905 1079.79 Q36.0905 1075.08 34.34 1072.78 Q32.5576 1070.46 28.9291 1070.46 Q25.3325 1070.46 23.5501 1072.78 Q21.7677 1075.08 21.7677 1079.79 L21.7677 1089.3 M16.4842 1095.73 L16.4842 1079.31 Q16.4842 1071.96 19.5397 1067.98 Q22.5952 1064 28.2289 1064 Q32.5894 1064 35.1675 1066.04 Q37.7456 1068.07 38.3822 1072.02 Q39.4007 1067.28 42.6472 1064.67 Q45.8619 1062.03 50.6998 1062.03 Q57.0655 1062.03 60.5348 1066.36 Q64.0042 1070.68 64.0042 1078.67 L64.0042 1095.73 L16.4842 1095.73 Z" fill="#000000" fill-rule="evenodd" fill-opacity="1" /><path clip-path="url(#clip740)" d="M32.4621 1037.46 Q32.4621 1042.17 36.1542 1044.9 Q39.8145 1047.64 46.212 1047.64 Q52.6095 1047.64 56.3017 1044.93 Q59.9619 1042.2 59.9619 1037.46 Q59.9619 1032.78 56.2698 1030.04 Q52.5777 1027.3 46.212 1027.3 Q39.8781 1027.3 36.186 1030.04 Q32.4621 1032.78 32.4621 1037.46 M27.4968 1037.46 Q27.4968 1029.82 32.4621 1025.46 Q37.4273 1021.1 46.212 1021.1 Q54.9649 1021.1 59.9619 1025.46 Q64.9272 1029.82 64.9272 1037.46 Q64.9272 1045.13 59.9619 1049.49 Q54.9649 1053.81 46.212 1053.81 Q37.4273 1053.81 32.4621 1049.49 Q27.4968 1045.13 27.4968 1037.46 Z" fill="#000000" fill-rule="evenodd" fill-opacity="1" /><path clip-path="url(#clip740)" d="M18.2347 1005.59 L28.3562 1005.59 L28.3562 993.532 L32.9077 993.532 L32.9077 1005.59 L52.2594 1005.59 Q56.6199 1005.59 57.8613 1004.42 Q59.1026 1003.21 59.1026 999.547 L59.1026 993.532 L64.0042 993.532 L64.0042 999.547 Q64.0042 1006.33 61.4897 1008.9 Q58.9434 1011.48 52.2594 1011.48 L32.9077 1011.48 L32.9077 1015.78 L28.3562 1015.78 L28.3562 1011.48 L18.2347 1011.48 L18.2347 1005.59 Z" fill="#000000" fill-rule="evenodd" fill-opacity="1" /><path clip-path="url(#clip740)" d="M18.2347 980.036 L28.3562 980.036 L28.3562 967.973 L32.9077 967.973 L32.9077 980.036 L52.2594 980.036 Q56.6199 980.036 57.8613 978.859 Q59.1026 977.649 59.1026 973.989 L59.1026 967.973 L64.0042 967.973 L64.0042 973.989 Q64.0042 980.768 61.4897 983.347 Q58.9434 985.925 52.2594 985.925 L32.9077 985.925 L32.9077 990.222 L28.3562 990.222 L28.3562 985.925 L18.2347 985.925 L18.2347 980.036 Z" fill="#000000" fill-rule="evenodd" fill-opacity="1" /><path clip-path="url(#clip740)" d="M14.479 960.271 L14.479 954.414 L64.0042 954.414 L64.0042 960.271 L14.479 960.271 Z" fill="#000000" fill-rule="evenodd" fill-opacity="1" /><path clip-path="url(#clip740)" d="M44.7161 911.669 L47.5806 911.669 L47.5806 938.596 Q53.6281 938.214 56.8109 934.967 Q59.9619 931.689 59.9619 925.864 Q59.9619 922.49 59.1344 919.339 Q58.3069 916.157 56.6518 913.037 L62.1899 913.037 Q63.5267 916.188 64.227 919.499 Q64.9272 922.809 64.9272 926.214 Q64.9272 934.744 59.9619 939.741 Q54.9967 944.707 46.5303 944.707 Q37.7774 944.707 32.6531 939.996 Q27.4968 935.254 27.4968 927.233 Q27.4968 920.04 32.1438 915.87 Q36.7589 911.669 44.7161 911.669 M42.9973 917.525 Q38.1912 917.589 35.3266 920.231 Q32.4621 922.841 32.4621 927.169 Q32.4621 932.071 35.2312 935.031 Q38.0002 937.959 43.0292 938.405 L42.9973 917.525 Z" fill="#000000" fill-rule="evenodd" fill-opacity="1" /><path clip-path="url(#clip740)" d="M42.4881 872.424 L64.0042 872.424 L64.0042 878.281 L42.679 878.281 Q37.6183 878.281 35.1038 880.254 Q32.5894 882.227 32.5894 886.174 Q32.5894 890.916 35.6131 893.654 Q38.6368 896.391 43.8567 896.391 L64.0042 896.391 L64.0042 902.279 L28.3562 902.279 L28.3562 896.391 L33.8944 896.391 Q30.6797 894.29 29.0883 891.458 Q27.4968 888.593 27.4968 884.869 Q27.4968 878.726 31.3163 875.575 Q35.1038 872.424 42.4881 872.424 Z" fill="#000000" fill-rule="evenodd" fill-opacity="1" /><path clip-path="url(#clip740)" d="M44.7161 830.251 L47.5806 830.251 L47.5806 857.178 Q53.6281 856.796 56.8109 853.55 Q59.9619 850.271 59.9619 844.447 Q59.9619 841.073 59.1344 837.922 Q58.3069 834.739 56.6518 831.62 L62.1899 831.62 Q63.5267 834.771 64.227 838.081 Q64.9272 841.391 64.9272 844.797 Q64.9272 853.327 59.9619 858.324 Q54.9967 863.289 46.5303 863.289 Q37.7774 863.289 32.6531 858.579 Q27.4968 853.836 27.4968 845.815 Q27.4968 838.622 32.1438 834.453 Q36.7589 830.251 44.7161 830.251 M42.9973 836.108 Q38.1912 836.171 35.3266 838.813 Q32.4621 841.423 32.4621 845.752 Q32.4621 850.653 35.2312 853.613 Q38.0002 856.542 43.0292 856.987 L42.9973 836.108 Z" fill="#000000" fill-rule="evenodd" fill-opacity="1" /><path clip-path="url(#clip740)" d="M29.7248 794.985 L35.1993 794.985 Q33.8307 797.468 33.1623 799.982 Q32.4621 802.465 32.4621 805.011 Q32.4621 810.709 36.0905 813.86 Q39.6872 817.011 46.212 817.011 Q52.7369 817.011 56.3653 813.86 Q59.9619 810.709 59.9619 805.011 Q59.9619 802.465 59.2935 799.982 Q58.5933 797.468 57.2247 794.985 L62.6355 794.985 Q63.7814 797.436 64.3543 800.078 Q64.9272 802.688 64.9272 805.648 Q64.9272 813.7 59.8664 818.443 Q54.8057 823.185 46.212 823.185 Q37.491 823.185 32.4939 818.411 Q27.4968 813.605 27.4968 805.266 Q27.4968 802.56 28.0697 799.982 Q28.6108 797.404 29.7248 794.985 Z" fill="#000000" fill-rule="evenodd" fill-opacity="1" /><path clip-path="url(#clip740)" d="M14.479 785.023 L14.479 779.135 L43.7294 779.135 L28.3562 761.661 L28.3562 754.181 L45.0344 773.087 L64.0042 753.385 L64.0042 761.024 L46.5939 779.135 L64.0042 779.135 L64.0042 785.023 L14.479 785.023 Z" fill="#000000" fill-rule="evenodd" fill-opacity="1" /><path clip-path="url(#clip740)" d="M21.7677 719.647 L58.7206 719.647 L58.7206 711.881 Q58.7206 702.046 54.2646 697.495 Q49.8086 692.911 40.1964 692.911 Q30.6479 692.911 26.2237 697.495 Q21.7677 702.046 21.7677 711.881 L21.7677 719.647 M16.4842 726.077 L16.4842 712.868 Q16.4842 699.054 22.2451 692.593 Q27.9743 686.132 40.1964 686.132 Q52.4822 686.132 58.2432 692.625 Q64.0042 699.118 64.0042 712.868 L64.0042 726.077 L16.4842 726.077 Z" fill="#000000" fill-rule="evenodd" fill-opacity="1" /><path clip-path="url(#clip740)" d="M28.3562 676.138 L28.3562 670.281 L64.0042 670.281 L64.0042 676.138 L28.3562 676.138 M14.479 676.138 L14.479 670.281 L21.895 670.281 L21.895 676.138 L14.479 676.138 Z" fill="#000000" fill-rule="evenodd" fill-opacity="1" /><path clip-path="url(#clip740)" d="M29.4065 635.302 L34.9447 635.302 Q33.6716 637.784 33.035 640.458 Q32.3984 643.131 32.3984 645.996 Q32.3984 650.356 33.7352 652.553 Q35.072 654.717 37.7456 654.717 Q39.7826 654.717 40.9603 653.157 Q42.1061 651.598 43.1565 646.887 L43.6021 644.882 Q44.9389 638.644 47.3897 636.034 Q49.8086 633.392 54.1691 633.392 Q59.1344 633.392 62.0308 637.339 Q64.9272 641.253 64.9272 648.128 Q64.9272 650.993 64.3543 654.112 Q63.8132 657.2 62.6992 660.637 L56.6518 660.637 Q58.3387 657.391 59.198 654.24 Q60.0256 651.089 60.0256 648.001 Q60.0256 643.863 58.6251 641.635 Q57.1929 639.407 54.6147 639.407 Q52.2276 639.407 50.9545 641.031 Q49.6813 642.622 48.5037 648.065 L48.0262 650.102 Q46.8804 655.544 44.5251 657.963 Q42.138 660.382 38.0002 660.382 Q32.9713 660.382 30.2341 656.818 Q27.4968 653.253 27.4968 646.696 Q27.4968 643.45 27.9743 640.585 Q28.4517 637.721 29.4065 635.302 Z" fill="#000000" fill-rule="evenodd" fill-opacity="1" /><path clip-path="url(#clip740)" d="M18.2347 618.273 L28.3562 618.273 L28.3562 606.21 L32.9077 606.21 L32.9077 618.273 L52.2594 618.273 Q56.6199 618.273 57.8613 617.096 Q59.1026 615.886 59.1026 612.226 L59.1026 606.21 L64.0042 606.21 L64.0042 612.226 Q64.0042 619.005 61.4897 621.583 Q58.9434 624.162 52.2594 624.162 L32.9077 624.162 L32.9077 628.458 L28.3562 628.458 L28.3562 624.162 L18.2347 624.162 L18.2347 618.273 Z" fill="#000000" fill-rule="evenodd" fill-opacity="1" /><path clip-path="url(#clip740)" d="M46.0847 582.307 Q46.0847 589.405 47.7079 592.142 Q49.3312 594.879 53.2461 594.879 Q56.3653 594.879 58.2114 592.842 Q60.0256 590.773 60.0256 587.24 Q60.0256 582.371 56.5881 579.442 Q53.1188 576.482 47.3897 576.482 L46.0847 576.482 L46.0847 582.307 M43.6657 570.626 L64.0042 570.626 L64.0042 576.482 L58.5933 576.482 Q61.8398 578.488 63.3994 581.48 Q64.9272 584.471 64.9272 588.8 Q64.9272 594.275 61.8716 597.521 Q58.7843 600.736 53.6281 600.736 Q47.6125 600.736 44.5569 596.725 Q41.5014 592.683 41.5014 584.694 L41.5014 576.482 L40.9285 576.482 Q36.8862 576.482 34.6901 579.156 Q32.4621 581.798 32.4621 586.604 Q32.4621 589.659 33.1941 592.556 Q33.9262 595.452 35.3903 598.126 L29.9795 598.126 Q28.7381 594.911 28.1334 591.887 Q27.4968 588.864 27.4968 585.999 Q27.4968 578.265 31.5072 574.445 Q35.5176 570.626 43.6657 570.626 Z" fill="#000000" fill-rule="evenodd" fill-opacity="1" /><path clip-path="url(#clip740)" d="M42.4881 528.931 L64.0042 528.931 L64.0042 534.787 L42.679 534.787 Q37.6183 534.787 35.1038 536.76 Q32.5894 538.734 32.5894 542.681 Q32.5894 547.423 35.6131 550.16 Q38.6368 552.897 43.8567 552.897 L64.0042 552.897 L64.0042 558.786 L28.3562 558.786 L28.3562 552.897 L33.8944 552.897 Q30.6797 550.797 29.0883 547.964 Q27.4968 545.099 27.4968 541.376 Q27.4968 535.233 31.3163 532.082 Q35.1038 528.931 42.4881 528.931 Z" fill="#000000" fill-rule="evenodd" fill-opacity="1" /><path clip-path="url(#clip740)" d="M29.7248 491.596 L35.1993 491.596 Q33.8307 494.078 33.1623 496.593 Q32.4621 499.075 32.4621 501.622 Q32.4621 507.319 36.0905 510.47 Q39.6872 513.621 46.212 513.621 Q52.7369 513.621 56.3653 510.47 Q59.9619 507.319 59.9619 501.622 Q59.9619 499.075 59.2935 496.593 Q58.5933 494.078 57.2247 491.596 L62.6355 491.596 Q63.7814 494.047 64.3543 496.688 Q64.9272 499.298 64.9272 502.258 Q64.9272 510.311 59.8664 515.053 Q54.8057 519.796 46.212 519.796 Q37.491 519.796 32.4939 515.022 Q27.4968 510.215 27.4968 501.876 Q27.4968 499.171 28.0697 496.593 Q28.6108 494.015 29.7248 491.596 Z" fill="#000000" fill-rule="evenodd" fill-opacity="1" /><path clip-path="url(#clip740)" d="M44.7161 450.919 L47.5806 450.919 L47.5806 477.846 Q53.6281 477.464 56.8109 474.217 Q59.9619 470.939 59.9619 465.114 Q59.9619 461.741 59.1344 458.59 Q58.3069 455.407 56.6518 452.287 L62.1899 452.287 Q63.5267 455.439 64.227 458.749 Q64.9272 462.059 64.9272 465.464 Q64.9272 473.995 59.9619 478.992 Q54.9967 483.957 46.5303 483.957 Q37.7774 483.957 32.6531 479.246 Q27.4968 474.504 27.4968 466.483 Q27.4968 459.29 32.1438 455.12 Q36.7589 450.919 44.7161 450.919 M42.9973 456.775 Q38.1912 456.839 35.3266 459.481 Q32.4621 462.091 32.4621 466.419 Q32.4621 471.321 35.2312 474.281 Q38.0002 477.209 43.0292 477.655 L42.9973 456.775 Z" fill="#000000" fill-rule="evenodd" fill-opacity="1" /><path clip-path="url(#clip740)" d="M926.084 34.4165 Q924.586 33.8899 923.087 33.4848 Q919.076 32.4315 914.782 32.4315 Q907.369 32.4315 903.237 36.4419 Q899.389 40.1688 898.66 47.0148 L926.084 47.0148 L926.084 52.8481 L898.66 52.8481 Q899.389 59.6941 903.237 63.421 Q907.369 67.4314 914.782 67.4314 Q919.968 67.4314 923.087 66.3781 L926.084 65.3654 L926.084 72.1304 L922.884 72.8596 Q918.671 73.7508 914.337 73.7508 Q903.48 73.7508 897.161 67.4314 Q890.801 61.1119 890.801 49.9314 Q890.801 38.7509 897.161 32.4315 Q903.48 26.1121 914.337 26.1121 Q918.428 26.1121 922.884 27.0033 Q924.505 27.3274 926.084 27.8135 L926.084 34.4165 Z" fill="#000000" fill-rule="evenodd" fill-opacity="1" /><path clip-path="url(#clip740)" d="M978.665 65.7705 L978.665 89.8329 L971.171 89.8329 L971.171 27.2059 L978.665 27.2059 L978.665 34.0924 Q981.015 30.0415 984.579 28.0971 Q988.185 26.1121 993.167 26.1121 Q1001.43 26.1121 1006.58 32.6746 Q1011.76 39.2371 1011.76 49.9314 Q1011.76 60.6258 1006.58 67.1883 Q1001.43 73.7508 993.167 73.7508 Q988.185 73.7508 984.579 71.8063 Q981.015 69.8214 978.665 65.7705 M1004.02 49.9314 Q1004.02 41.7081 1000.62 37.0496 Q997.259 32.3505 991.344 32.3505 Q985.43 32.3505 982.027 37.0496 Q978.665 41.7081 978.665 49.9314 Q978.665 58.1548 982.027 62.8538 Q985.43 67.5124 991.344 67.5124 Q997.259 67.5124 1000.62 62.8538 Q1004.02 58.1548 1004.02 49.9314 Z" fill="#000000" fill-rule="evenodd" fill-opacity="1" /><path clip-path="url(#clip740)" d="M1023.35 54.671 L1023.35 27.2059 L1030.8 27.2059 L1030.8 54.3874 Q1030.8 60.8284 1033.31 64.0691 Q1035.82 67.2693 1040.85 67.2693 Q1046.88 67.2693 1050.37 63.421 Q1053.89 59.5726 1053.89 52.9291 L1053.89 27.2059 L1061.34 27.2059 L1061.34 72.576 L1053.89 72.576 L1053.89 65.6084 Q1051.18 69.7404 1047.57 71.7658 Q1044.01 73.7508 1039.27 73.7508 Q1031.45 73.7508 1027.4 68.8897 Q1023.35 64.0286 1023.35 54.671 M1042.1 26.1121 L1042.1 26.1121 Z" fill="#000000" fill-rule="evenodd" fill-opacity="1" /><path clip-path="url(#clip740)" d="M1109.27 49.9314 Q1109.27 41.7081 1105.86 37.0496 Q1102.5 32.3505 1096.59 32.3505 Q1090.67 32.3505 1087.27 37.0496 Q1083.91 41.7081 1083.91 49.9314 Q1083.91 58.1548 1087.27 62.8538 Q1090.67 67.5124 1096.59 67.5124 Q1102.5 67.5124 1105.86 62.8538 Q1109.27 58.1548 1109.27 49.9314 M1083.91 34.0924 Q1086.26 30.0415 1089.82 28.0971 Q1093.43 26.1121 1098.41 26.1121 Q1106.67 26.1121 1111.82 32.6746 Q1117 39.2371 1117 49.9314 Q1117 60.6258 1111.82 67.1883 Q1106.67 73.7508 1098.41 73.7508 Q1093.43 73.7508 1089.82 71.8063 Q1086.26 69.8214 1083.91 65.7705 L1083.91 72.576 L1076.41 72.576 L1076.41 9.54393 L1083.91 9.54393 L1083.91 34.0924 Z" fill="#000000" fill-rule="evenodd" fill-opacity="1" /><path clip-path="url(#clip740)" d="M1129.36 9.54393 L1136.81 9.54393 L1136.81 72.576 L1129.36 72.576 L1129.36 9.54393 Z" fill="#000000" fill-rule="evenodd" fill-opacity="1" /><path clip-path="url(#clip740)" d="M1152.41 27.2059 L1159.86 27.2059 L1159.86 72.576 L1152.41 72.576 L1152.41 27.2059 M1152.41 9.54393 L1159.86 9.54393 L1159.86 18.9825 L1152.41 18.9825 L1152.41 9.54393 Z" fill="#000000" fill-rule="evenodd" fill-opacity="1" /><path clip-path="url(#clip740)" d="M1208.11 28.9478 L1208.11 35.9153 Q1204.95 34.1734 1201.75 33.3227 Q1198.59 32.4315 1195.35 32.4315 Q1188.1 32.4315 1184.09 37.0496 Q1180.08 41.6271 1180.08 49.9314 Q1180.08 58.2358 1184.09 62.8538 Q1188.1 67.4314 1195.35 67.4314 Q1198.59 67.4314 1201.75 66.5807 Q1204.95 65.6895 1208.11 63.9476 L1208.11 70.8341 Q1204.99 72.2924 1201.63 73.0216 Q1198.31 73.7508 1194.54 73.7508 Q1184.29 73.7508 1178.25 67.3098 Q1172.22 60.8689 1172.22 49.9314 Q1172.22 38.832 1178.29 32.472 Q1184.41 26.1121 1195.02 26.1121 Q1198.47 26.1121 1201.75 26.8413 Q1205.03 27.5299 1208.11 28.9478 Z" fill="#000000" fill-rule="evenodd" fill-opacity="1" /><path clip-path="url(#clip740)" d="M1221.07 9.54393 L1228.52 9.54393 L1228.52 72.576 L1221.07 72.576 L1221.07 9.54393 Z" fill="#000000" fill-rule="evenodd" fill-opacity="1" /><path clip-path="url(#clip740)" d="M1263 76.7889 Q1259.84 84.8907 1256.84 87.3618 Q1253.84 89.8329 1248.82 89.8329 L1242.87 89.8329 L1242.87 83.5945 L1247.24 83.5945 Q1250.32 83.5945 1252.02 82.1361 Q1253.72 80.6778 1255.79 75.2496 L1257.12 71.8468 L1238.77 27.2059 L1246.67 27.2059 L1260.85 62.6918 L1275.03 27.2059 L1282.93 27.2059 L1263 76.7889 Z" fill="#000000" fill-rule="evenodd" fill-opacity="1" /><path clip-path="url(#clip740)" d="M1340.21 49.7694 Q1331.17 49.7694 1327.69 51.8354 Q1324.21 53.9013 1324.21 58.8839 Q1324.21 62.8538 1326.8 65.2034 Q1329.43 67.5124 1333.93 67.5124 Q1340.13 67.5124 1343.85 63.1374 Q1347.62 58.7219 1347.62 51.4303 L1347.62 49.7694 L1340.21 49.7694 M1355.08 46.6907 L1355.08 72.576 L1347.62 72.576 L1347.62 65.6895 Q1345.07 69.8214 1341.26 71.8063 Q1337.45 73.7508 1331.94 73.7508 Q1324.98 73.7508 1320.85 69.8619 Q1316.75 65.9325 1316.75 59.3701 Q1316.75 51.7138 1321.86 47.825 Q1327 43.9361 1337.17 43.9361 L1347.62 43.9361 L1347.62 43.2069 Q1347.62 38.0623 1344.22 35.2672 Q1340.86 32.4315 1334.74 32.4315 Q1330.85 32.4315 1327.16 33.3632 Q1323.48 34.295 1320.08 36.1584 L1320.08 29.2718 Q1324.17 27.692 1328.02 26.9223 Q1331.86 26.1121 1335.51 26.1121 Q1345.35 26.1121 1350.21 31.2163 Q1355.08 36.3204 1355.08 46.6907 Z" fill="#000000" fill-rule="evenodd" fill-opacity="1" /><path clip-path="url(#clip740)" d="M1365.08 27.2059 L1372.98 27.2059 L1387.16 65.2844 L1401.34 27.2059 L1409.24 27.2059 L1392.22 72.576 L1382.09 72.576 L1365.08 27.2059 Z" fill="#000000" fill-rule="evenodd" fill-opacity="1" /><path clip-path="url(#clip740)" d="M1440.14 49.7694 Q1431.11 49.7694 1427.63 51.8354 Q1424.14 53.9013 1424.14 58.8839 Q1424.14 62.8538 1426.74 65.2034 Q1429.37 67.5124 1433.87 67.5124 Q1440.06 67.5124 1443.79 63.1374 Q1447.56 58.7219 1447.56 51.4303 L1447.56 49.7694 L1440.14 49.7694 M1455.01 46.6907 L1455.01 72.576 L1447.56 72.576 L1447.56 65.6895 Q1445.01 69.8214 1441.2 71.8063 Q1437.39 73.7508 1431.88 73.7508 Q1424.91 73.7508 1420.78 69.8619 Q1416.69 65.9325 1416.69 59.3701 Q1416.69 51.7138 1421.79 47.825 Q1426.94 43.9361 1437.11 43.9361 L1447.56 43.9361 L1447.56 43.2069 Q1447.56 38.0623 1444.15 35.2672 Q1440.79 32.4315 1434.68 32.4315 Q1430.79 32.4315 1427.1 33.3632 Q1423.41 34.295 1420.01 36.1584 L1420.01 29.2718 Q1424.1 27.692 1427.95 26.9223 Q1431.8 26.1121 1435.45 26.1121 Q1445.29 26.1121 1450.15 31.2163 Q1455.01 36.3204 1455.01 46.6907 Z" fill="#000000" fill-rule="evenodd" fill-opacity="1" /><path clip-path="url(#clip740)" d="M1470.36 27.2059 L1477.82 27.2059 L1477.82 72.576 L1470.36 72.576 L1470.36 27.2059 M1470.36 9.54393 L1477.82 9.54393 L1477.82 18.9825 L1470.36 18.9825 L1470.36 9.54393 Z" fill="#000000" fill-rule="evenodd" fill-opacity="1" /><path clip-path="url(#clip740)" d="M1493.41 9.54393 L1500.87 9.54393 L1500.87 72.576 L1493.41 72.576 L1493.41 9.54393 Z" fill="#000000" fill-rule="evenodd" fill-opacity="1" /><path clip-path="url(#clip740)" d="M1537.08 49.7694 Q1528.05 49.7694 1524.57 51.8354 Q1521.08 53.9013 1521.08 58.8839 Q1521.08 62.8538 1523.67 65.2034 Q1526.31 67.5124 1530.8 67.5124 Q1537 67.5124 1540.73 63.1374 Q1544.5 58.7219 1544.5 51.4303 L1544.5 49.7694 L1537.08 49.7694 M1551.95 46.6907 L1551.95 72.576 L1544.5 72.576 L1544.5 65.6895 Q1541.94 69.8214 1538.14 71.8063 Q1534.33 73.7508 1528.82 73.7508 Q1521.85 73.7508 1517.72 69.8619 Q1513.63 65.9325 1513.63 59.3701 Q1513.63 51.7138 1518.73 47.825 Q1523.88 43.9361 1534.04 43.9361 L1544.5 43.9361 L1544.5 43.2069 Q1544.5 38.0623 1541.09 35.2672 Q1537.73 32.4315 1531.61 32.4315 Q1527.72 32.4315 1524.04 33.3632 Q1520.35 34.295 1516.95 36.1584 L1516.95 29.2718 Q1521.04 27.692 1524.89 26.9223 Q1528.74 26.1121 1532.38 26.1121 Q1542.23 26.1121 1547.09 31.2163 Q1551.95 36.3204 1551.95 46.6907 Z" fill="#000000" fill-rule="evenodd" fill-opacity="1" /><path clip-path="url(#clip740)" d="M1599.87 49.9314 Q1599.87 41.7081 1596.47 37.0496 Q1593.11 32.3505 1587.19 32.3505 Q1581.28 32.3505 1577.87 37.0496 Q1574.51 41.7081 1574.51 49.9314 Q1574.51 58.1548 1577.87 62.8538 Q1581.28 67.5124 1587.19 67.5124 Q1593.11 67.5124 1596.47 62.8538 Q1599.87 58.1548 1599.87 49.9314 M1574.51 34.0924 Q1576.86 30.0415 1580.43 28.0971 Q1584.03 26.1121 1589.01 26.1121 Q1597.28 26.1121 1602.42 32.6746 Q1607.61 39.2371 1607.61 49.9314 Q1607.61 60.6258 1602.42 67.1883 Q1597.28 73.7508 1589.01 73.7508 Q1584.03 73.7508 1580.43 71.8063 Q1576.86 69.8214 1574.51 65.7705 L1574.51 72.576 L1567.02 72.576 L1567.02 9.54393 L1574.51 9.54393 L1574.51 34.0924 Z" fill="#000000" fill-rule="evenodd" fill-opacity="1" /><path clip-path="url(#clip740)" d="M1619.96 9.54393 L1627.42 9.54393 L1627.42 72.576 L1619.96 72.576 L1619.96 9.54393 Z" fill="#000000" fill-rule="evenodd" fill-opacity="1" /><path clip-path="url(#clip740)" d="M1681.82 48.0275 L1681.82 51.6733 L1647.55 51.6733 Q1648.04 59.3701 1652.17 63.421 Q1656.34 67.4314 1663.75 67.4314 Q1668.05 67.4314 1672.06 66.3781 Q1676.11 65.3249 1680.08 63.2184 L1680.08 70.267 Q1676.07 71.9684 1671.86 72.8596 Q1667.64 73.7508 1663.31 73.7508 Q1652.45 73.7508 1646.09 67.4314 Q1639.77 61.1119 1639.77 50.3365 Q1639.77 39.1965 1645.77 32.6746 Q1651.8 26.1121 1662.01 26.1121 Q1671.17 26.1121 1676.47 32.0264 Q1681.82 37.9003 1681.82 48.0275 M1674.37 45.84 Q1674.29 39.7232 1670.92 36.0774 Q1667.6 32.4315 1662.09 32.4315 Q1655.85 32.4315 1652.09 35.9558 Q1648.36 39.4801 1647.79 45.8805 L1674.37 45.84 Z" fill="#000000" fill-rule="evenodd" fill-opacity="1" /><polyline clip-path="url(#clip742)" style="stroke:#009af9; stroke-linecap:butt; stroke-linejoin:round; stroke-width:12; stroke-opacity:1; fill:none" points="
  280.231,160.256 331.825,610.108 435.013,716.614 641.388,908.055 847.763,1218.04 1054.14,1299.42 1260.51,1196.15 1776.45,894.49 2292.39,557.34 
  "/>
<polyline clip-path="url(#clip742)" style="stroke:#e26f46; stroke-linecap:butt; stroke-linejoin:round; stroke-width:12; stroke-opacity:1; fill:none" points="
  280.231,634.59 331.825,788.349 435.013,894.771 641.388,1305.73 847.763,1386.4 1054.14,1276.64 1260.51,1131.55 1776.45,790.006 2292.39,672.485 
  "/>
<path clip-path="url(#clip740)" d="
M1909.56 322.316 L2281.66 322.316 L2281.66 166.796 L1909.56 166.796  Z
  " fill="#ffffff" fill-rule="evenodd" fill-opacity="1"/>
<polyline clip-path="url(#clip740)" style="stroke:#000000; stroke-linecap:butt; stroke-linejoin:round; stroke-width:4; stroke-opacity:1; fill:none" points="
  1909.56,322.316 2281.66,322.316 2281.66,166.796 1909.56,166.796 1909.56,322.316 
  "/>
<polyline clip-path="url(#clip740)" style="stroke:#009af9; stroke-linecap:butt; stroke-linejoin:round; stroke-width:4; stroke-opacity:1; fill:none" points="
  1933.26,218.636 2075.45,218.636 
  "/>
<path clip-path="url(#clip740)" d="M2099.15 199.897 L2103.43 199.897 L2103.43 221.17 L2116.14 209.99 L2121.58 209.99 L2107.83 222.119 L2122.16 235.916 L2116.6 235.916 L2103.43 223.254 L2103.43 235.916 L2099.15 235.916 L2099.15 199.897 Z" fill="#000000" fill-rule="evenodd" fill-opacity="1" /><path clip-path="url(#clip740)" d="M2127.32 214.388 L2156.99 214.388 L2156.99 218.277 L2127.32 218.277 L2127.32 214.388 M2127.32 223.832 L2156.99 223.832 L2156.99 227.768 L2127.32 227.768 L2127.32 223.832 Z" fill="#000000" fill-rule="evenodd" fill-opacity="1" /><path clip-path="url(#clip740)" d="M2177.09 204.434 Q2173.48 204.434 2171.65 207.999 Q2169.84 211.541 2169.84 218.67 Q2169.84 225.777 2171.65 229.342 Q2173.48 232.883 2177.09 232.883 Q2180.72 232.883 2182.53 229.342 Q2184.35 225.777 2184.35 218.67 Q2184.35 211.541 2182.53 207.999 Q2180.72 204.434 2177.09 204.434 M2177.09 200.731 Q2182.9 200.731 2185.95 205.337 Q2189.03 209.92 2189.03 218.67 Q2189.03 227.397 2185.95 232.004 Q2182.9 236.587 2177.09 236.587 Q2171.28 236.587 2168.2 232.004 Q2165.14 227.397 2165.14 218.67 Q2165.14 209.92 2168.2 205.337 Q2171.28 200.731 2177.09 200.731 Z" fill="#000000" fill-rule="evenodd" fill-opacity="1" /><path clip-path="url(#clip740)" d="M2197.25 230.036 L2202.13 230.036 L2202.13 235.916 L2197.25 235.916 L2197.25 230.036 Z" fill="#000000" fill-rule="evenodd" fill-opacity="1" /><path clip-path="url(#clip740)" d="M2222.32 219.504 Q2218.98 219.504 2217.06 221.286 Q2215.16 223.069 2215.16 226.194 Q2215.16 229.319 2217.06 231.101 Q2218.98 232.883 2222.32 232.883 Q2225.65 232.883 2227.57 231.101 Q2229.49 229.295 2229.49 226.194 Q2229.49 223.069 2227.57 221.286 Q2225.67 219.504 2222.32 219.504 M2217.64 217.513 Q2214.63 216.772 2212.94 214.712 Q2211.28 212.652 2211.28 209.689 Q2211.28 205.546 2214.22 203.138 Q2217.18 200.731 2222.32 200.731 Q2227.48 200.731 2230.42 203.138 Q2233.36 205.546 2233.36 209.689 Q2233.36 212.652 2231.67 214.712 Q2230 216.772 2227.02 217.513 Q2230.4 218.3 2232.27 220.592 Q2234.17 222.883 2234.17 226.194 Q2234.17 231.217 2231.09 233.902 Q2228.04 236.587 2222.32 236.587 Q2216.6 236.587 2213.52 233.902 Q2210.47 231.217 2210.47 226.194 Q2210.47 222.883 2212.36 220.592 Q2214.26 218.3 2217.64 217.513 M2215.93 210.129 Q2215.93 212.814 2217.6 214.319 Q2219.29 215.823 2222.32 215.823 Q2225.33 215.823 2227.02 214.319 Q2228.73 212.814 2228.73 210.129 Q2228.73 207.444 2227.02 205.939 Q2225.33 204.434 2222.32 204.434 Q2219.29 204.434 2217.6 205.939 Q2215.93 207.444 2215.93 210.129 Z" fill="#000000" fill-rule="evenodd" fill-opacity="1" /><polyline clip-path="url(#clip740)" style="stroke:#e26f46; stroke-linecap:butt; stroke-linejoin:round; stroke-width:4; stroke-opacity:1; fill:none" points="
  1933.26,270.476 2075.45,270.476 
  "/>
<path clip-path="url(#clip740)" d="M2099.15 251.737 L2103.43 251.737 L2103.43 273.01 L2116.14 261.83 L2121.58 261.83 L2107.83 273.959 L2122.16 287.756 L2116.6 287.756 L2103.43 275.094 L2103.43 287.756 L2099.15 287.756 L2099.15 251.737 Z" fill="#000000" fill-rule="evenodd" fill-opacity="1" /><path clip-path="url(#clip740)" d="M2127.32 266.228 L2156.99 266.228 L2156.99 270.117 L2127.32 270.117 L2127.32 266.228 M2127.32 275.672 L2156.99 275.672 L2156.99 279.608 L2127.32 279.608 L2127.32 275.672 Z" fill="#000000" fill-rule="evenodd" fill-opacity="1" /><path clip-path="url(#clip740)" d="M2167.9 283.821 L2175.54 283.821 L2175.54 257.455 L2167.23 259.122 L2167.23 254.862 L2175.49 253.196 L2180.17 253.196 L2180.17 283.821 L2187.8 283.821 L2187.8 287.756 L2167.9 287.756 L2167.9 283.821 Z" fill="#000000" fill-rule="evenodd" fill-opacity="1" /><path clip-path="url(#clip740)" d="M2197.25 281.876 L2202.13 281.876 L2202.13 287.756 L2197.25 287.756 L2197.25 281.876 Z" fill="#000000" fill-rule="evenodd" fill-opacity="1" /><path clip-path="url(#clip740)" d="M2222.32 256.274 Q2218.71 256.274 2216.88 259.839 Q2215.07 263.381 2215.07 270.51 Q2215.07 277.617 2216.88 281.182 Q2218.71 284.723 2222.32 284.723 Q2225.95 284.723 2227.76 281.182 Q2229.59 277.617 2229.59 270.51 Q2229.59 263.381 2227.76 259.839 Q2225.95 256.274 2222.32 256.274 M2222.32 252.571 Q2228.13 252.571 2231.18 257.177 Q2234.26 261.76 2234.26 270.51 Q2234.26 279.237 2231.18 283.844 Q2228.13 288.427 2222.32 288.427 Q2216.51 288.427 2213.43 283.844 Q2210.37 279.237 2210.37 270.51 Q2210.37 261.76 2213.43 257.177 Q2216.51 252.571 2222.32 252.571 Z" fill="#000000" fill-rule="evenodd" fill-opacity="1" /></svg>
