<?xml version="1.0" encoding="utf-8"?>
<svg xmlns="http://www.w3.org/2000/svg" xmlns:xlink="http://www.w3.org/1999/xlink" width="600" height="400" viewBox="0 0 2400 1600">
<defs>
  <clipPath id="clip680">
    <rect x="0" y="0" width="2400" height="1600"/>
  </clipPath>
</defs>
<path clip-path="url(#clip680)" d="
M0 1600 L2400 1600 L2400 0 L0 0  Z
  " fill="#ffffff" fill-rule="evenodd" fill-opacity="1"/>
<defs>
  <clipPath id="clip681">
    <rect x="480" y="0" width="1681" height="1600"/>
  </clipPath>
</defs>
<path clip-path="url(#clip680)" d="
M219.866 1423.18 L2352.76 1423.18 L2352.76 123.472 L219.866 123.472  Z
  " fill="#ffffff" fill-rule="evenodd" fill-opacity="1"/>
<defs>
  <clipPath id="clip682">
    <rect x="219" y="123" width="2134" height="1301"/>
  </clipPath>
</defs>
<polyline clip-path="url(#clip682)" style="stroke:#000000; stroke-linecap:butt; stroke-linejoin:round; stroke-width:2; stroke-opacity:0.1; fill:none" points="
  597.941,1423.18 597.941,123.472 
  "/>
<polyline clip-path="url(#clip682)" style="stroke:#000000; stroke-linecap:butt; stroke-linejoin:round; stroke-width:2; stroke-opacity:0.1; fill:none" points="
  1021.55,1423.18 1021.55,123.472 
  "/>
<polyline clip-path="url(#clip682)" style="stroke:#000000; stroke-linecap:butt; stroke-linejoin:round; stroke-width:2; stroke-opacity:0.1; fill:none" points="
  1445.17,1423.18 1445.17,123.472 
  "/>
<polyline clip-path="url(#clip682)" style="stroke:#000000; stroke-linecap:butt; stroke-linejoin:round; stroke-width:2; stroke-opacity:0.1; fill:none" points="
  1868.78,1423.18 1868.78,123.472 
  "/>
<polyline clip-path="url(#clip682)" style="stroke:#000000; stroke-linecap:butt; stroke-linejoin:round; stroke-width:2; stroke-opacity:0.1; fill:none" points="
  2292.39,1423.18 2292.39,123.472 
  "/>
<polyline clip-path="url(#clip680)" style="stroke:#000000; stroke-linecap:butt; stroke-linejoin:round; stroke-width:4; stroke-opacity:1; fill:none" points="
  219.866,1423.18 2352.76,1423.18 
  "/>
<polyline clip-path="url(#clip680)" style="stroke:#000000; stroke-linecap:butt; stroke-linejoin:round; stroke-width:4; stroke-opacity:1; fill:none" points="
  597.941,1423.18 597.941,1404.28 
  "/>
<polyline clip-path="url(#clip680)" style="stroke:#000000; stroke-linecap:butt; stroke-linejoin:round; stroke-width:4; stroke-opacity:1; fill:none" points="
  1021.55,1423.18 1021.55,1404.28 
  "/>
<polyline clip-path="url(#clip680)" style="stroke:#000000; stroke-linecap:butt; stroke-linejoin:round; stroke-width:4; stroke-opacity:1; fill:none" points="
  1445.17,1423.18 1445.17,1404.28 
  "/>
<polyline clip-path="url(#clip680)" style="stroke:#000000; stroke-linecap:butt; stroke-linejoin:round; stroke-width:4; stroke-opacity:1; fill:none" points="
  1868.78,1423.18 1868.78,1404.28 
  "/>
<polyline clip-path="url(#clip680)" style="stroke:#000000; stroke-linecap:butt; stroke-linejoin:round; stroke-width:4; stroke-opacity:1; fill:none" points="
  2292.39,1423.18 2292.39,1404.28 
  "/>
<path clip-path="url(#clip680)" d="M561.633 1481.64 L577.952 1481.64 L577.952 1485.58 L556.008 1485.58 L556.008 1481.64 Q558.67 1478.89 563.253 1474.26 Q567.86 1469.61 569.04 1468.27 Q571.286 1465.74 572.165 1464.01 Q573.068 1462.25 573.068 1460.56 Q573.068 1457.8 571.124 1456.07 Q569.202 1454.33 566.1 1454.33 Q563.901 1454.33 561.448 1455.09 Q559.017 1455.86 556.239 1457.41 L556.239 1452.69 Q559.063 1451.55 561.517 1450.97 Q563.971 1450.39 566.008 1450.39 Q571.378 1450.39 574.573 1453.08 Q577.767 1455.77 577.767 1460.26 Q577.767 1462.39 576.957 1464.31 Q576.17 1466.2 574.063 1468.8 Q573.485 1469.47 570.383 1472.69 Q567.281 1475.88 561.633 1481.64 Z" fill="#000000" fill-rule="evenodd" fill-opacity="1" /><path clip-path="url(#clip680)" d="M597.767 1454.1 Q594.156 1454.1 592.327 1457.66 Q590.522 1461.2 590.522 1468.33 Q590.522 1475.44 592.327 1479.01 Q594.156 1482.55 597.767 1482.55 Q601.401 1482.55 603.207 1479.01 Q605.035 1475.44 605.035 1468.33 Q605.035 1461.2 603.207 1457.66 Q601.401 1454.1 597.767 1454.1 M597.767 1450.39 Q603.577 1450.39 606.633 1455 Q609.711 1459.58 609.711 1468.33 Q609.711 1477.06 606.633 1481.67 Q603.577 1486.25 597.767 1486.25 Q591.957 1486.25 588.878 1481.67 Q585.823 1477.06 585.823 1468.33 Q585.823 1459.58 588.878 1455 Q591.957 1450.39 597.767 1450.39 Z" fill="#000000" fill-rule="evenodd" fill-opacity="1" /><path clip-path="url(#clip680)" d="M627.929 1454.1 Q624.318 1454.1 622.489 1457.66 Q620.683 1461.2 620.683 1468.33 Q620.683 1475.44 622.489 1479.01 Q624.318 1482.55 627.929 1482.55 Q631.563 1482.55 633.369 1479.01 Q635.197 1475.44 635.197 1468.33 Q635.197 1461.2 633.369 1457.66 Q631.563 1454.1 627.929 1454.1 M627.929 1450.39 Q633.739 1450.39 636.795 1455 Q639.873 1459.58 639.873 1468.33 Q639.873 1477.06 636.795 1481.67 Q633.739 1486.25 627.929 1486.25 Q622.119 1486.25 619.04 1481.67 Q615.984 1477.06 615.984 1468.33 Q615.984 1459.58 619.04 1455 Q622.119 1450.39 627.929 1450.39 Z" fill="#000000" fill-rule="evenodd" fill-opacity="1" /><path clip-path="url(#clip680)" d="M994.644 1455.09 L982.838 1473.54 L994.644 1473.54 L994.644 1455.09 M993.417 1451.02 L999.296 1451.02 L999.296 1473.54 L1004.23 1473.54 L1004.23 1477.43 L999.296 1477.43 L999.296 1485.58 L994.644 1485.58 L994.644 1477.43 L979.042 1477.43 L979.042 1472.92 L993.417 1451.02 Z" fill="#000000" fill-rule="evenodd" fill-opacity="1" /><path clip-path="url(#clip680)" d="M1021.96 1454.1 Q1018.35 1454.1 1016.52 1457.66 Q1014.71 1461.2 1014.71 1468.33 Q1014.71 1475.44 1016.52 1479.01 Q1018.35 1482.55 1021.96 1482.55 Q1025.59 1482.55 1027.4 1479.01 Q1029.23 1475.44 1029.23 1468.33 Q1029.23 1461.2 1027.4 1457.66 Q1025.59 1454.1 1021.96 1454.1 M1021.96 1450.39 Q1027.77 1450.39 1030.82 1455 Q1033.9 1459.58 1033.9 1468.33 Q1033.9 1477.06 1030.82 1481.67 Q1027.77 1486.25 1021.96 1486.25 Q1016.15 1486.25 1013.07 1481.67 Q1010.01 1477.06 1010.01 1468.33 Q1010.01 1459.58 1013.07 1455 Q1016.15 1450.39 1021.96 1450.39 Z" fill="#000000" fill-rule="evenodd" fill-opacity="1" /><path clip-path="url(#clip680)" d="M1052.12 1454.1 Q1048.51 1454.1 1046.68 1457.66 Q1044.87 1461.2 1044.87 1468.33 Q1044.87 1475.44 1046.68 1479.01 Q1048.51 1482.55 1052.12 1482.55 Q1055.75 1482.55 1057.56 1479.01 Q1059.39 1475.44 1059.39 1468.33 Q1059.39 1461.2 1057.56 1457.66 Q1055.75 1454.1 1052.12 1454.1 M1052.12 1450.39 Q1057.93 1450.39 1060.99 1455 Q1064.06 1459.58 1064.06 1468.33 Q1064.06 1477.06 1060.99 1481.67 Q1057.93 1486.25 1052.12 1486.25 Q1046.31 1486.25 1043.23 1481.67 Q1040.18 1477.06 1040.18 1468.33 Q1040.18 1459.58 1043.23 1455 Q1046.31 1450.39 1052.12 1450.39 Z" fill="#000000" fill-rule="evenodd" fill-opacity="1" /><path clip-path="url(#clip680)" d="M1415.49 1466.44 Q1412.34 1466.44 1410.49 1468.59 Q1408.66 1470.74 1408.66 1474.49 Q1408.66 1478.22 1410.49 1480.39 Q1412.34 1482.55 1415.49 1482.55 Q1418.64 1482.55 1420.47 1480.39 Q1422.32 1478.22 1422.32 1474.49 Q1422.32 1470.74 1420.47 1468.59 Q1418.64 1466.44 1415.49 1466.44 M1424.77 1451.78 L1424.77 1456.04 Q1423.01 1455.21 1421.21 1454.77 Q1419.43 1454.33 1417.67 1454.33 Q1413.04 1454.33 1410.58 1457.45 Q1408.15 1460.58 1407.8 1466.9 Q1409.17 1464.89 1411.23 1463.82 Q1413.29 1462.73 1415.77 1462.73 Q1420.98 1462.73 1423.99 1465.9 Q1427.02 1469.05 1427.02 1474.49 Q1427.02 1479.82 1423.87 1483.03 Q1420.72 1486.25 1415.49 1486.25 Q1409.49 1486.25 1406.32 1481.67 Q1403.15 1477.06 1403.15 1468.33 Q1403.15 1460.14 1407.04 1455.28 Q1410.93 1450.39 1417.48 1450.39 Q1419.24 1450.39 1421.02 1450.74 Q1422.83 1451.09 1424.77 1451.78 Z" fill="#000000" fill-rule="evenodd" fill-opacity="1" /><path clip-path="url(#clip680)" d="M1445.07 1454.1 Q1441.46 1454.1 1439.63 1457.66 Q1437.83 1461.2 1437.83 1468.33 Q1437.83 1475.44 1439.63 1479.01 Q1441.46 1482.55 1445.07 1482.55 Q1448.71 1482.55 1450.51 1479.01 Q1452.34 1475.44 1452.34 1468.33 Q1452.34 1461.2 1450.51 1457.66 Q1448.71 1454.1 1445.07 1454.1 M1445.07 1450.39 Q1450.88 1450.39 1453.94 1455 Q1457.02 1459.58 1457.02 1468.33 Q1457.02 1477.06 1453.94 1481.67 Q1450.88 1486.25 1445.07 1486.25 Q1439.26 1486.25 1436.18 1481.67 Q1433.13 1477.06 1433.13 1468.33 Q1433.13 1459.58 1436.18 1455 Q1439.26 1450.39 1445.07 1450.39 Z" fill="#000000" fill-rule="evenodd" fill-opacity="1" /><path clip-path="url(#clip680)" d="M1475.24 1454.1 Q1471.62 1454.1 1469.8 1457.66 Q1467.99 1461.2 1467.99 1468.33 Q1467.99 1475.44 1469.8 1479.01 Q1471.62 1482.55 1475.24 1482.55 Q1478.87 1482.55 1480.67 1479.01 Q1482.5 1475.44 1482.5 1468.33 Q1482.5 1461.2 1480.67 1457.66 Q1478.87 1454.1 1475.24 1454.1 M1475.24 1450.39 Q1481.05 1450.39 1484.1 1455 Q1487.18 1459.58 1487.18 1468.33 Q1487.18 1477.06 1484.1 1481.67 Q1481.05 1486.25 1475.24 1486.25 Q1469.42 1486.25 1466.35 1481.67 Q1463.29 1477.06 1463.29 1468.33 Q1463.29 1459.58 1466.35 1455 Q1469.42 1450.39 1475.24 1450.39 Z" fill="#000000" fill-rule="evenodd" fill-opacity="1" /><path clip-path="url(#clip680)" d="M1838.57 1469.17 Q1835.24 1469.17 1833.32 1470.95 Q1831.42 1472.73 1831.42 1475.86 Q1831.42 1478.98 1833.32 1480.77 Q1835.24 1482.55 1838.57 1482.55 Q1841.9 1482.55 1843.82 1480.77 Q1845.75 1478.96 1845.75 1475.86 Q1845.75 1472.73 1843.82 1470.95 Q1841.93 1469.17 1838.57 1469.17 M1833.89 1467.18 Q1830.89 1466.44 1829.2 1464.38 Q1827.53 1462.32 1827.53 1459.35 Q1827.53 1455.21 1830.47 1452.8 Q1833.43 1450.39 1838.57 1450.39 Q1843.73 1450.39 1846.67 1452.8 Q1849.61 1455.21 1849.61 1459.35 Q1849.61 1462.32 1847.92 1464.38 Q1846.26 1466.44 1843.27 1467.18 Q1846.65 1467.96 1848.52 1470.26 Q1850.42 1472.55 1850.42 1475.86 Q1850.42 1480.88 1847.34 1483.57 Q1844.29 1486.25 1838.57 1486.25 Q1832.85 1486.25 1829.77 1483.57 Q1826.72 1480.88 1826.72 1475.86 Q1826.72 1472.55 1828.62 1470.26 Q1830.51 1467.96 1833.89 1467.18 M1832.18 1459.79 Q1832.18 1462.48 1833.85 1463.98 Q1835.54 1465.49 1838.57 1465.49 Q1841.58 1465.49 1843.27 1463.98 Q1844.98 1462.48 1844.98 1459.79 Q1844.98 1457.11 1843.27 1455.6 Q1841.58 1454.1 1838.57 1454.1 Q1835.54 1454.1 1833.85 1455.6 Q1832.18 1457.11 1832.18 1459.79 Z" fill="#000000" fill-rule="evenodd" fill-opacity="1" /><path clip-path="url(#clip680)" d="M1868.73 1454.1 Q1865.12 1454.1 1863.29 1457.66 Q1861.49 1461.2 1861.49 1468.33 Q1861.49 1475.44 1863.29 1479.01 Q1865.12 1482.55 1868.73 1482.55 Q1872.37 1482.55 1874.17 1479.01 Q1876 1475.44 1876 1468.33 Q1876 1461.2 1874.17 1457.66 Q1872.37 1454.1 1868.73 1454.1 M1868.73 1450.39 Q1874.54 1450.39 1877.6 1455 Q1880.68 1459.58 1880.68 1468.33 Q1880.68 1477.06 1877.6 1481.67 Q1874.54 1486.25 1868.73 1486.25 Q1862.92 1486.25 1859.84 1481.67 Q1856.79 1477.06 1856.79 1468.33 Q1856.79 1459.58 1859.84 1455 Q1862.92 1450.39 1868.73 1450.39 Z" fill="#000000" fill-rule="evenodd" fill-opacity="1" /><path clip-path="url(#clip680)" d="M1898.89 1454.1 Q1895.28 1454.1 1893.45 1457.66 Q1891.65 1461.2 1891.65 1468.33 Q1891.65 1475.44 1893.45 1479.01 Q1895.28 1482.55 1898.89 1482.55 Q1902.53 1482.55 1904.33 1479.01 Q1906.16 1475.44 1906.16 1468.33 Q1906.16 1461.2 1904.33 1457.66 Q1902.53 1454.1 1898.89 1454.1 M1898.89 1450.39 Q1904.7 1450.39 1907.76 1455 Q1910.84 1459.58 1910.84 1468.33 Q1910.84 1477.06 1907.76 1481.67 Q1904.7 1486.25 1898.89 1486.25 Q1893.08 1486.25 1890.01 1481.67 Q1886.95 1477.06 1886.95 1468.33 Q1886.95 1459.58 1890.01 1455 Q1893.08 1450.39 1898.89 1450.39 Z" fill="#000000" fill-rule="evenodd" fill-opacity="1" /><path clip-path="url(#clip680)" d="M2236.92 1481.64 L2244.56 1481.64 L2244.56 1455.28 L2236.25 1456.95 L2236.25 1452.69 L2244.51 1451.02 L2249.19 1451.02 L2249.19 1481.64 L2256.82 1481.64 L2256.82 1485.58 L2236.92 1485.58 L2236.92 1481.64 Z" fill="#000000" fill-rule="evenodd" fill-opacity="1" /><path clip-path="url(#clip680)" d="M2276.27 1454.1 Q2272.66 1454.1 2270.83 1457.66 Q2269.02 1461.2 2269.02 1468.33 Q2269.02 1475.44 2270.83 1479.01 Q2272.66 1482.55 2276.27 1482.55 Q2279.9 1482.55 2281.71 1479.01 Q2283.54 1475.44 2283.54 1468.33 Q2283.54 1461.2 2281.71 1457.66 Q2279.9 1454.1 2276.27 1454.1 M2276.27 1450.39 Q2282.08 1450.39 2285.13 1455 Q2288.21 1459.58 2288.21 1468.33 Q2288.21 1477.06 2285.13 1481.67 Q2282.08 1486.25 2276.27 1486.25 Q2270.46 1486.25 2267.38 1481.67 Q2264.32 1477.06 2264.32 1468.33 Q2264.32 1459.58 2267.38 1455 Q2270.46 1450.39 2276.27 1450.39 Z" fill="#000000" fill-rule="evenodd" fill-opacity="1" /><path clip-path="url(#clip680)" d="M2306.43 1454.1 Q2302.82 1454.1 2300.99 1457.66 Q2299.19 1461.2 2299.19 1468.33 Q2299.19 1475.44 2300.99 1479.01 Q2302.82 1482.55 2306.43 1482.55 Q2310.06 1482.55 2311.87 1479.01 Q2313.7 1475.44 2313.7 1468.33 Q2313.7 1461.2 2311.87 1457.66 Q2310.06 1454.1 2306.43 1454.1 M2306.43 1450.39 Q2312.24 1450.39 2315.3 1455 Q2318.37 1459.58 2318.37 1468.33 Q2318.37 1477.06 2315.3 1481.67 Q2312.24 1486.25 2306.43 1486.25 Q2300.62 1486.25 2297.54 1481.67 Q2294.49 1477.06 2294.49 1468.33 Q2294.49 1459.58 2297.54 1455 Q2300.62 1450.39 2306.43 1450.39 Z" fill="#000000" fill-rule="evenodd" fill-opacity="1" /><path clip-path="url(#clip680)" d="M2336.59 1454.1 Q2332.98 1454.1 2331.15 1457.66 Q2329.35 1461.2 2329.35 1468.33 Q2329.35 1475.44 2331.15 1479.01 Q2332.98 1482.55 2336.59 1482.55 Q2340.23 1482.55 2342.03 1479.01 Q2343.86 1475.44 2343.86 1468.33 Q2343.86 1461.2 2342.03 1457.66 Q2340.23 1454.1 2336.59 1454.1 M2336.59 1450.39 Q2342.4 1450.39 2345.46 1455 Q2348.54 1459.58 2348.54 1468.33 Q2348.54 1477.06 2345.46 1481.67 Q2342.4 1486.25 2336.59 1486.25 Q2330.78 1486.25 2327.7 1481.67 Q2324.65 1477.06 2324.65 1468.33 Q2324.65 1459.58 2327.7 1455 Q2330.78 1450.39 2336.59 1450.39 Z" fill="#000000" fill-rule="evenodd" fill-opacity="1" /><path clip-path="url(#clip680)" d="M1301.24 1546.53 L1301.24 1568.04 L1295.38 1568.04 L1295.38 1546.72 Q1295.38 1541.66 1293.41 1539.14 Q1291.44 1536.63 1287.49 1536.63 Q1282.75 1536.63 1280.01 1539.65 Q1277.27 1542.68 1277.27 1547.9 L1277.27 1568.04 L1271.38 1568.04 L1271.38 1532.4 L1277.27 1532.4 L1277.27 1537.93 Q1279.37 1534.72 1282.21 1533.13 Q1285.07 1531.54 1288.79 1531.54 Q1294.94 1531.54 1298.09 1535.36 Q1301.24 1539.14 1301.24 1546.53 Z" fill="#000000" fill-rule="evenodd" fill-opacity="1" /><polyline clip-path="url(#clip682)" style="stroke:#000000; stroke-linecap:butt; stroke-linejoin:round; stroke-width:2; stroke-opacity:0.1; fill:none" points="
  219.866,1320.4 2352.76,1320.4 
  "/>
<polyline clip-path="url(#clip682)" style="stroke:#000000; stroke-linecap:butt; stroke-linejoin:round; stroke-width:2; stroke-opacity:0.1; fill:none" points="
  219.866,994.877 2352.76,994.877 
  "/>
<polyline clip-path="url(#clip682)" style="stroke:#000000; stroke-linecap:butt; stroke-linejoin:round; stroke-width:2; stroke-opacity:0.1; fill:none" points="
  219.866,669.354 2352.76,669.354 
  "/>
<polyline clip-path="url(#clip682)" style="stroke:#000000; stroke-linecap:butt; stroke-linejoin:round; stroke-width:2; stroke-opacity:0.1; fill:none" points="
  219.866,343.83 2352.76,343.83 
  "/>
<polyline clip-path="url(#clip680)" style="stroke:#000000; stroke-linecap:butt; stroke-linejoin:round; stroke-width:4; stroke-opacity:1; fill:none" points="
  219.866,1423.18 219.866,123.472 
  "/>
<polyline clip-path="url(#clip680)" style="stroke:#000000; stroke-linecap:butt; stroke-linejoin:round; stroke-width:4; stroke-opacity:1; fill:none" points="
  219.866,1320.4 238.764,1320.4 
  "/>
<polyline clip-path="url(#clip680)" style="stroke:#000000; stroke-linecap:butt; stroke-linejoin:round; stroke-width:4; stroke-opacity:1; fill:none" points="
  219.866,994.877 238.764,994.877 
  "/>
<polyline clip-path="url(#clip680)" style="stroke:#000000; stroke-linecap:butt; stroke-linejoin:round; stroke-width:4; stroke-opacity:1; fill:none" points="
  219.866,669.354 238.764,669.354 
  "/>
<polyline clip-path="url(#clip680)" style="stroke:#000000; stroke-linecap:butt; stroke-linejoin:round; stroke-width:4; stroke-opacity:1; fill:none" points="
  219.866,343.83 238.764,343.83 
  "/>
<path clip-path="url(#clip680)" d="M128.288 1306.2 Q124.677 1306.2 122.848 1309.76 Q121.043 1313.31 121.043 1320.44 Q121.043 1327.54 122.848 1331.11 Q124.677 1334.65 128.288 1334.65 Q131.922 1334.65 133.728 1331.11 Q135.556 1327.54 135.556 1320.44 Q135.556 1313.31 133.728 1309.76 Q131.922 1306.2 128.288 1306.2 M128.288 1302.5 Q134.098 1302.5 137.154 1307.1 Q140.232 1311.69 140.232 1320.44 Q140.232 1329.16 137.154 1333.77 Q134.098 1338.35 128.288 1338.35 Q122.478 1338.35 119.399 1333.77 Q116.343 1329.16 116.343 1320.44 Q116.343 1311.69 119.399 1307.1 Q122.478 1302.5 128.288 1302.5 Z" fill="#000000" fill-rule="evenodd" fill-opacity="1" /><path clip-path="url(#clip680)" d="M148.45 1331.8 L153.334 1331.8 L153.334 1337.68 L148.45 1337.68 L148.45 1331.8 Z" fill="#000000" fill-rule="evenodd" fill-opacity="1" /><path clip-path="url(#clip680)" d="M167.547 1333.75 L183.866 1333.75 L183.866 1337.68 L161.922 1337.68 L161.922 1333.75 Q164.584 1330.99 169.167 1326.36 Q173.774 1321.71 174.954 1320.37 Q177.2 1317.84 178.079 1316.11 Q178.982 1314.35 178.982 1312.66 Q178.982 1309.9 177.038 1308.17 Q175.116 1306.43 172.014 1306.43 Q169.815 1306.43 167.362 1307.2 Q164.931 1307.96 162.153 1309.51 L162.153 1304.79 Q164.977 1303.65 167.431 1303.07 Q169.885 1302.5 171.922 1302.5 Q177.292 1302.5 180.487 1305.18 Q183.681 1307.87 183.681 1312.36 Q183.681 1314.49 182.871 1316.41 Q182.084 1318.31 179.977 1320.9 Q179.399 1321.57 176.297 1324.79 Q173.195 1327.98 167.547 1333.75 Z" fill="#000000" fill-rule="evenodd" fill-opacity="1" /><path clip-path="url(#clip680)" d="M126.205 980.676 Q122.593 980.676 120.765 984.241 Q118.959 987.783 118.959 994.912 Q118.959 1002.02 120.765 1005.58 Q122.593 1009.13 126.205 1009.13 Q129.839 1009.13 131.644 1005.58 Q133.473 1002.02 133.473 994.912 Q133.473 987.783 131.644 984.241 Q129.839 980.676 126.205 980.676 M126.205 976.972 Q132.015 976.972 135.07 981.579 Q138.149 986.162 138.149 994.912 Q138.149 1003.64 135.07 1008.25 Q132.015 1012.83 126.205 1012.83 Q120.394 1012.83 117.316 1008.25 Q114.26 1003.64 114.26 994.912 Q114.26 986.162 117.316 981.579 Q120.394 976.972 126.205 976.972 Z" fill="#000000" fill-rule="evenodd" fill-opacity="1" /><path clip-path="url(#clip680)" d="M146.366 1006.28 L151.251 1006.28 L151.251 1012.16 L146.366 1012.16 L146.366 1006.28 Z" fill="#000000" fill-rule="evenodd" fill-opacity="1" /><path clip-path="url(#clip680)" d="M174.283 981.672 L162.477 1000.12 L174.283 1000.12 L174.283 981.672 M173.056 977.597 L178.936 977.597 L178.936 1000.12 L183.866 1000.12 L183.866 1004.01 L178.936 1004.01 L178.936 1012.16 L174.283 1012.16 L174.283 1004.01 L158.681 1004.01 L158.681 999.495 L173.056 977.597 Z" fill="#000000" fill-rule="evenodd" fill-opacity="1" /><path clip-path="url(#clip680)" d="M126.529 655.153 Q122.918 655.153 121.089 658.717 Q119.283 662.259 119.283 669.389 Q119.283 676.495 121.089 680.06 Q122.918 683.601 126.529 683.601 Q130.163 683.601 131.968 680.06 Q133.797 676.495 133.797 669.389 Q133.797 662.259 131.968 658.717 Q130.163 655.153 126.529 655.153 M126.529 651.449 Q132.339 651.449 135.394 656.055 Q138.473 660.639 138.473 669.389 Q138.473 678.115 135.394 682.722 Q132.339 687.305 126.529 687.305 Q120.718 687.305 117.64 682.722 Q114.584 678.115 114.584 669.389 Q114.584 660.639 117.64 656.055 Q120.718 651.449 126.529 651.449 Z" fill="#000000" fill-rule="evenodd" fill-opacity="1" /><path clip-path="url(#clip680)" d="M146.691 680.754 L151.575 680.754 L151.575 686.634 L146.691 686.634 L146.691 680.754 Z" fill="#000000" fill-rule="evenodd" fill-opacity="1" /><path clip-path="url(#clip680)" d="M172.339 667.49 Q169.19 667.49 167.339 669.643 Q165.51 671.796 165.51 675.546 Q165.51 679.273 167.339 681.449 Q169.19 683.601 172.339 683.601 Q175.487 683.601 177.315 681.449 Q179.167 679.273 179.167 675.546 Q179.167 671.796 177.315 669.643 Q175.487 667.49 172.339 667.49 M181.621 652.838 L181.621 657.097 Q179.862 656.264 178.056 655.824 Q176.274 655.384 174.514 655.384 Q169.885 655.384 167.431 658.509 Q165.001 661.634 164.653 667.953 Q166.019 665.94 168.079 664.875 Q170.139 663.787 172.616 663.787 Q177.825 663.787 180.834 666.958 Q183.866 670.106 183.866 675.546 Q183.866 680.87 180.718 684.088 Q177.57 687.305 172.339 687.305 Q166.343 687.305 163.172 682.722 Q160.001 678.115 160.001 669.389 Q160.001 661.194 163.89 656.333 Q167.778 651.449 174.329 651.449 Q176.089 651.449 177.871 651.796 Q179.676 652.143 181.621 652.838 Z" fill="#000000" fill-rule="evenodd" fill-opacity="1" /><path clip-path="url(#clip680)" d="M126.783 329.629 Q123.172 329.629 121.343 333.194 Q119.538 336.735 119.538 343.865 Q119.538 350.971 121.343 354.536 Q123.172 358.078 126.783 358.078 Q130.417 358.078 132.223 354.536 Q134.052 350.971 134.052 343.865 Q134.052 336.735 132.223 333.194 Q130.417 329.629 126.783 329.629 M126.783 325.925 Q132.593 325.925 135.649 330.532 Q138.728 335.115 138.728 343.865 Q138.728 352.592 135.649 357.198 Q132.593 361.782 126.783 361.782 Q120.973 361.782 117.894 357.198 Q114.839 352.592 114.839 343.865 Q114.839 335.115 117.894 330.532 Q120.973 325.925 126.783 325.925 Z" fill="#000000" fill-rule="evenodd" fill-opacity="1" /><path clip-path="url(#clip680)" d="M146.945 355.231 L151.829 355.231 L151.829 361.11 L146.945 361.11 L146.945 355.231 Z" fill="#000000" fill-rule="evenodd" fill-opacity="1" /><path clip-path="url(#clip680)" d="M172.014 344.698 Q168.681 344.698 166.76 346.481 Q164.862 348.263 164.862 351.388 Q164.862 354.513 166.76 356.296 Q168.681 358.078 172.014 358.078 Q175.348 358.078 177.269 356.296 Q179.19 354.49 179.19 351.388 Q179.19 348.263 177.269 346.481 Q175.371 344.698 172.014 344.698 M167.339 342.708 Q164.329 341.967 162.64 339.907 Q160.973 337.847 160.973 334.884 Q160.973 330.74 163.913 328.333 Q166.876 325.925 172.014 325.925 Q177.176 325.925 180.116 328.333 Q183.056 330.74 183.056 334.884 Q183.056 337.847 181.366 339.907 Q179.7 341.967 176.714 342.708 Q180.093 343.495 181.968 345.786 Q183.866 348.078 183.866 351.388 Q183.866 356.411 180.788 359.096 Q177.732 361.782 172.014 361.782 Q166.297 361.782 163.218 359.096 Q160.163 356.411 160.163 351.388 Q160.163 348.078 162.061 345.786 Q163.959 343.495 167.339 342.708 M165.626 335.323 Q165.626 338.009 167.292 339.513 Q168.982 341.018 172.014 341.018 Q175.024 341.018 176.714 339.513 Q178.426 338.009 178.426 335.323 Q178.426 332.638 176.714 331.134 Q175.024 329.629 172.014 329.629 Q168.982 329.629 167.292 331.134 Q165.626 332.638 165.626 335.323 Z" fill="#000000" fill-rule="evenodd" fill-opacity="1" /><path clip-path="url(#clip680)" d="M41.3104 1089.3 L58.7206 1089.3 L58.7206 1078.99 Q58.7206 1073.8 56.5881 1071.32 Q54.4238 1068.81 49.9996 1068.81 Q45.5436 1068.81 43.4429 1071.32 Q41.3104 1073.8 41.3104 1078.99 L41.3104 1089.3 M21.7677 1089.3 L36.0905 1089.3 L36.0905 1079.79 Q36.0905 1075.08 34.34 1072.78 Q32.5576 1070.46 28.9291 1070.46 Q25.3325 1070.46 23.5501 1072.78 Q21.7677 1075.08 21.7677 1079.79 L21.7677 1089.3 M16.4842 1095.73 L16.4842 1079.31 Q16.4842 1071.96 19.5397 1067.98 Q22.5952 1064 28.2289 1064 Q32.5894 1064 35.1675 1066.04 Q37.7456 1068.07 38.3822 1072.02 Q39.4007 1067.28 42.6472 1064.67 Q45.8619 1062.03 50.6998 1062.03 Q57.0655 1062.03 60.5348 1066.36 Q64.0042 1070.68 64.0042 1078.67 L64.0042 1095.73 L16.4842 1095.73 Z" fill="#000000" fill-rule="evenodd" fill-opacity="1" /><path clip-path="url(#clip680)" d="M32.4621 1037.46 Q32.4621 1042.17 36.1542 1044.9 Q39.8145 1047.64 46.212 1047.64 Q52.6095 1047.64 56.3017 1044.93 Q59.9619 1042.2 59.9619 1037.46 Q59.9619 1032.78 56.2698 1030.04 Q52.5777 1027.3 46.212 1027.3 Q39.8781 1027.3 36.186 1030.04 Q32.4621 1032.78 32.4621 1037.46 M27.4968 1037.46 Q27.4968 1029.82 32.4621 1025.46 Q37.4273 1021.1 46.212 1021.1 Q54.9649 1021.1 59.9619 1025.46 Q64.9272 1029.82 64.9272 1037.46 Q64.9272 1045.13 59.9619 1049.49 Q54.9649 1053.81 46.212 1053.81 Q37.4273 1053.81 32.4621 1049.49 Q27.4968 1045.13 27.4968 1037.46 Z" fill="#000000" fill-rule="evenodd" fill-opacity="1" /><path clip-path="url(#clip680)" d="M18.2347 1005.59 L28.3562 1005.59 L28.3562 993.532 L32.9077 993.532 L32.9077 1005.59 L52.2594 1005.59 Q56.6199 1005.59 57.8613 1004.42 Q59.1026 1003.21 59.1026 999.547 L59.1026 993.532 L64.0042 993.532 L64.0042 999.547 Q64.0042 1006.33 61.4897 1008.9 Q58.9434 1011.48 52.2594 1011.48 L32.9077 1011.48 L32.9077 1015.78 L28.3562 1015.78 L28.3562 1011.48 L18.2347 1011.48 L18.2347 1005.59 Z" fill="#000000" fill-rule="evenodd" fill-opacity="1" /><path clip-path="url(#clip680)" d="M18.2347 980.036 L28.3562 980.036 L28.3562 967.973 L32.9077 967.973 L32.9077 980.036 L52.2594 980.036 Q56.6199 980.036 57.8613 978.859 Q59.1026 977.649 59.1026 973.989 L59.1026 967.973 L64.0042 967.973 L64.0042 973.989 Q64.0042 980.768 61.4897 983.347 Q58.9434 985.925 52.2594 985.925 L32.9077 985.925 L32.9077 990.222 L28.3562 990.222 L28.3562 985.925 L18.2347 985.925 L18.2347 980.036 Z" fill="#000000" fill-rule="evenodd" fill-opacity="1" /><path clip-path="url(#clip680)" d="M14.479 960.271 L14.479 954.414 L64.0042 954.414 L64.0042 960.271 L14.479 960.271 Z" fill="#000000" fill-rule="evenodd" fill-opacity="1" /><path clip-path="url(#clip680)" d="M44.7161 911.669 L47.5806 911.669 L47.5806 938.596 Q53.6281 938.214 56.8109 934.967 Q59.9619 931.689 59.9619 925.864 Q59.9619 922.49 59.1344 919.339 Q58.3069 916.157 56.6518 913.037 L62.1899 913.037 Q63.5267 916.188 64.227 919.499 Q64.9272 922.809 64.9272 926.214 Q64.9272 934.744 59.9619 939.741 Q54.9967 944.707 46.5303 944.707 Q37.7774 944.707 32.6531 939.996 Q27.4968 935.254 27.4968 927.233 Q27.4968 920.04 32.1438 915.87 Q36.7589 911.669 44.7161 911.669 M42.9973 917.525 Q38.1912 917.589 35.3266 920.231 Q32.4621 922.841 32.4621 927.169 Q32.4621 932.071 35.2312 935.031 Q38.0002 937.959 43.0292 938.405 L42.9973 917.525 Z" fill="#000000" fill-rule="evenodd" fill-opacity="1" /><path clip-path="url(#clip680)" d="M42.4881 872.424 L64.0042 872.424 L64.0042 878.281 L42.679 878.281 Q37.6183 878.281 35.1038 880.254 Q32.5894 882.227 32.5894 886.174 Q32.5894 890.916 35.6131 893.654 Q38.6368 896.391 43.8567 896.391 L64.0042 896.391 L64.0042 902.279 L28.3562 902.279 L28.3562 896.391 L33.8944 896.391 Q30.6797 894.29 29.0883 891.458 Q27.4968 888.593 27.4968 884.869 Q27.4968 878.726 31.3163 875.575 Q35.1038 872.424 42.4881 872.424 Z" fill="#000000" fill-rule="evenodd" fill-opacity="1" /><path clip-path="url(#clip680)" d="M44.7161 830.251 L47.5806 830.251 L47.5806 857.178 Q53.6281 856.796 56.8109 853.55 Q59.9619 850.271 59.9619 844.447 Q59.9619 841.073 59.1344 837.922 Q58.3069 834.739 56.6518 831.62 L62.1899 831.62 Q63.5267 834.771 64.227 838.081 Q64.9272 841.391 64.9272 844.797 Q64.9272 853.327 59.9619 858.324 Q54.9967 863.289 46.5303 863.289 Q37.7774 863.289 32.6531 858.579 Q27.4968 853.836 27.4968 845.815 Q27.4968 838.622 32.1438 834.453 Q36.7589 830.251 44.7161 830.251 M42.9973 836.108 Q38.1912 836.171 35.3266 838.813 Q32.4621 841.423 32.4621 845.752 Q32.4621 850.653 35.2312 853.613 Q38.0002 856.542 43.0292 856.987 L42.9973 836.108 Z" fill="#000000" fill-rule="evenodd" fill-opacity="1" /><path clip-path="url(#clip680)" d="M29.7248 794.985 L35.1993 794.985 Q33.8307 797.468 33.1623 799.982 Q32.4621 802.465 32.4621 805.011 Q32.4621 810.709 36.0905 813.86 Q39.6872 817.011 46.212 817.011 Q52.7369 817.011 56.3653 813.86 Q59.9619 810.709 59.9619 805.011 Q59.9619 802.465 59.2935 799.982 Q58.5933 797.468 57.2247 794.985 L62.6355 794.985 Q63.7814 797.436 64.3543 800.078 Q64.9272 802.688 64.9272 805.648 Q64.9272 813.7 59.8664 818.443 Q54.8057 823.185 46.212 823.185 Q37.491 823.185 32.4939 818.411 Q27.4968 813.605 27.4968 805.266 Q27.4968 802.56 28.0697 799.982 Q28.6108 797.404 29.7248 794.985 Z" fill="#000000" fill-rule="evenodd" fill-opacity="1" /><path clip-path="url(#clip680)" d="M14.479 785.023 L14.479 779.135 L43.7294 779.135 L28.3562 761.661 L28.3562 754.181 L45.0344 773.087 L64.0042 753.385 L64.0042 761.024 L46.5939 779.135 L64.0042 779.135 L64.0042 785.023 L14.479 785.023 Z" fill="#000000" fill-rule="evenodd" fill-opacity="1" /><path clip-path="url(#clip680)" d="M21.7677 719.647 L58.7206 719.647 L58.7206 711.881 Q58.7206 702.046 54.2646 697.495 Q49.8086 692.911 40.1964 692.911 Q30.6479 692.911 26.2237 697.495 Q21.7677 702.046 21.7677 711.881 L21.7677 719.647 M16.4842 726.077 L16.4842 712.868 Q16.4842 699.054 22.2451 692.593 Q27.9743 686.132 40.1964 686.132 Q52.4822 686.132 58.2432 692.625 Q64.0042 699.118 64.0042 712.868 L64.0042 726.077 L16.4842 726.077 Z" fill="#000000" fill-rule="evenodd" fill-opacity="1" /><path clip-path="url(#clip680)" d="M28.3562 676.138 L28.3562 670.281 L64.0042 670.281 L64.0042 676.138 L28.3562 676.138 M14.479 676.138 L14.479 670.281 L21.895 670.281 L21.895 676.138 L14.479 676.138 Z" fill="#000000" fill-rule="evenodd" fill-opacity="1" /><path clip-path="url(#clip680)" d="M29.4065 635.302 L34.9447 635.302 Q33.6716 637.784 33.035 640.458 Q32.3984 643.131 32.3984 645.996 Q32.3984 650.356 33.7352 652.553 Q35.072 654.717 37.7456 654.717 Q39.7826 654.717 40.9603 653.157 Q42.1061 651.598 43.1565 646.887 L43.6021 644.882 Q44.9389 638.644 47.3897 636.034 Q49.8086 633.392 54.1691 633.392 Q59.1344 633.392 62.0308 637.339 Q64.9272 641.253 64.9272 648.128 Q64.9272 650.993 64.3543 654.112 Q63.8132 657.2 62.6992 660.637 L56.6518 660.637 Q58.3387 657.391 59.198 654.24 Q60.0256 651.089 60.0256 648.001 Q60.0256 643.863 58.6251 641.635 Q57.1929 639.407 54.6147 639.407 Q52.2276 639.407 50.9545 641.031 Q49.6813 642.622 48.5037 648.065 L48.0262 650.102 Q46.8804 655.544 44.5251 657.963 Q42.138 660.382 38.0002 660.382 Q32.9713 660.382 30.2341 656.818 Q27.4968 653.253 27.4968 646.696 Q27.4968 643.45 27.9743 640.585 Q28.4517 637.721 29.4065 635.302 Z" fill="#000000" fill-rule="evenodd" fill-opacity="1" /><path clip-path="url(#clip680)" d="M18.2347 618.273 L28.3562 618.273 L28.3562 606.21 L32.9077 606.21 L32.9077 618.273 L52.2594 618.273 Q56.6199 618.273 57.8613 617.096 Q59.1026 615.886 59.1026 612.226 L59.1026 606.21 L64.0042 606.21 L64.0042 612.226 Q64.0042 619.005 61.4897 621.583 Q58.9434 624.162 52.2594 624.162 L32.9077 624.162 L32.9077 628.458 L28.3562 628.458 L28.3562 624.162 L18.2347 624.162 L18.2347 618.273 Z" fill="#000000" fill-rule="evenodd" fill-opacity="1" /><path clip-path="url(#clip680)" d="M46.0847 582.307 Q46.0847 589.405 47.7079 592.142 Q49.3312 594.879 53.2461 594.879 Q56.3653 594.879 58.2114 592.842 Q60.0256 590.773 60.0256 587.24 Q60.0256 582.371 56.5881 579.442 Q53.1188 576.482 47.3897 576.482 L46.0847 576.482 L46.0847 582.307 M43.6657 570.626 L64.0042 570.626 L64.0042 576.482 L58.5933 576.482 Q61.8398 578.488 63.3994 581.48 Q64.9272 584.471 64.9272 588.8 Q64.9272 594.275 61.8716 597.521 Q58.7843 600.736 53.6281 600.736 Q47.6125 600.736 44.5569 596.725 Q41.5014 592.683 41.5014 584.694 L41.5014 576.482 L40.9285 576.482 Q36.8862 576.482 34.6901 579.156 Q32.4621 581.798 32.4621 586.604 Q32.4621 589.659 33.1941 592.556 Q33.9262 595.452 35.3903 598.126 L29.9795 598.126 Q28.7381 594.911 28.1334 591.887 Q27.4968 588.864 27.4968 585.999 Q27.4968 578.265 31.5072 574.445 Q35.5176 570.626 43.6657 570.626 Z" fill="#000000" fill-rule="evenodd" fill-opacity="1" /><path clip-path="url(#clip680)" d="M42.4881 528.931 L64.0042 528.931 L64.0042 534.787 L42.679 534.787 Q37.6183 534.787 35.1038 536.76 Q32.5894 538.734 32.5894 542.681 Q32.5894 547.423 35.6131 550.16 Q38.6368 552.897 43.8567 552.897 L64.0042 552.897 L64.0042 558.786 L28.3562 558.786 L28.3562 552.897 L33.8944 552.897 Q30.6797 550.797 29.0883 547.964 Q27.4968 545.099 27.4968 541.376 Q27.4968 535.233 31.3163 532.082 Q35.1038 528.931 42.4881 528.931 Z" fill="#000000" fill-rule="evenodd" fill-opacity="1" /><path clip-path="url(#clip680)" d="M29.7248 491.596 L35.1993 491.596 Q33.8307 494.078 33.1623 496.593 Q32.4621 499.075 32.4621 501.622 Q32.4621 507.319 36.0905 510.47 Q39.6872 513.621 46.212 513.621 Q52.7369 513.621 56.3653 510.47 Q59.9619 507.319 59.9619 501.622 Q59.9619 499.075 59.2935 496.593 Q58.5933 494.078 57.2247 491.596 L62.6355 491.596 Q63.7814 494.047 64.3543 496.688 Q64.9272 499.298 64.9272 502.258 Q64.9272 510.311 59.8664 515.053 Q54.8057 519.796 46.212 519.796 Q37.491 519.796 32.4939 515.022 Q27.4968 510.215 27.4968 501.876 Q27.4968 499.171 28.0697 496.593 Q28.6108 494.015 29.7248 491.596 Z" fill="#000000" fill-rule="evenodd" fill-opacity="1" /><path clip-path="url(#clip680)" d="M44.7161 450.919 L47.5806 450.919 L47.5806 477.846 Q53.6281 477.464 56.8109 474.217 Q59.9619 470.939 59.9619 465.114 Q59.9619 461.741 59.1344 458.59 Q58.3069 455.407 56.6518 452.287 L62.1899 452.287 Q63.5267 455.439 64.227 458.749 Q64.9272 462.059 64.9272 465.464 Q64.9272 473.995 59.9619 478.992 Q54.9967 483.957 46.5303 483.957 Q37.7774 483.957 32.6531 479.246 Q27.4968 474.504 27.4968 466.483 Q27.4968 459.29 32.1438 455.12 Q36.7589 450.919 44.7161 450.919 M42.9973 456.775 Q38.1912 456.839 35.3266 459.481 Q32.4621 462.091 32.4621 466.419 Q32.4621 471.321 35.2312 474.281 Q38.0002 477.209 43.0292 477.655 L42.9973 456.775 Z" fill="#000000" fill-rule="evenodd" fill-opacity="1" /><path clip-path="url(#clip680)" d="M926.084 34.4165 Q924.586 33.8899 923.087 33.4848 Q919.076 32.4315 914.782 32.4315 Q907.369 32.4315 903.237 36.4419 Q899.389 40.1688 898.66 47.0148 L926.084 47.0148 L926.084 52.8481 L898.66 52.8481 Q899.389 59.6941 903.237 63.421 Q907.369 67.4314 914.782 67.4314 Q919.968 67.4314 923.087 66.3781 L926.084 65.3654 L926.084 72.1304 L922.884 72.8596 Q918.671 73.7508 914.337 73.7508 Q903.48 73.7508 897.161 67.4314 Q890.801 61.1119 890.801 49.9314 Q890.801 38.7509 897.161 32.4315 Q903.48 26.1121 914.337 26.1121 Q918.428 26.1121 922.884 27.0033 Q924.505 27.3274 926.084 27.8135 L926.084 34.4165 Z" fill="#000000" fill-rule="evenodd" fill-opacity="1" /><path clip-path="url(#clip680)" d="M978.665 65.7705 L978.665 89.8329 L971.171 89.8329 L971.171 27.2059 L978.665 27.2059 L978.665 34.0924 Q981.015 30.0415 984.579 28.0971 Q988.185 26.1121 993.167 26.1121 Q1001.43 26.1121 1006.58 32.6746 Q1011.76 39.2371 1011.76 49.9314 Q1011.76 60.6258 1006.58 67.1883 Q1001.43 73.7508 993.167 73.7508 Q988.185 73.7508 984.579 71.8063 Q981.015 69.8214 978.665 65.7705 M1004.02 49.9314 Q1004.02 41.7081 1000.62 37.0496 Q997.259 32.3505 991.344 32.3505 Q985.43 32.3505 982.027 37.0496 Q978.665 41.7081 978.665 49.9314 Q978.665 58.1548 982.027 62.8538 Q985.43 67.5124 991.344 67.5124 Q997.259 67.5124 1000.62 62.8538 Q1004.02 58.1548 1004.02 49.9314 Z" fill="#000000" fill-rule="evenodd" fill-opacity="1" /><path clip-path="url(#clip680)" d="M1023.35 54.671 L1023.35 27.2059 L1030.8 27.2059 L1030.8 54.3874 Q1030.8 60.8284 1033.31 64.0691 Q1035.82 67.2693 1040.85 67.2693 Q1046.88 67.2693 1050.37 63.421 Q1053.89 59.5726 1053.89 52.9291 L1053.89 27.2059 L1061.34 27.2059 L1061.34 72.576 L1053.89 72.576 L1053.89 65.6084 Q1051.18 69.7404 1047.57 71.7658 Q1044.01 73.7508 1039.27 73.7508 Q1031.45 73.7508 1027.4 68.8897 Q1023.35 64.0286 1023.35 54.671 M1042.1 26.1121 L1042.1 26.1121 Z" fill="#000000" fill-rule="evenodd" fill-opacity="1" /><path clip-path="url(#clip680)" d="M1109.27 49.9314 Q1109.27 41.7081 1105.86 37.0496 Q1102.5 32.3505 1096.59 32.3505 Q1090.67 32.3505 1087.27 37.0496 Q1083.91 41.7081 1083.91 49.9314 Q1083.91 58.1548 1087.27 62.8538 Q1090.67 67.5124 1096.59 67.5124 Q1102.5 67.5124 1105.86 62.8538 Q1109.27 58.1548 1109.27 49.9314 M1083.91 34.0924 Q1086.26 30.0415 1089.82 28.0971 Q1093.43 26.1121 1098.41 26.1121 Q1106.67 26.1121 1111.82 32.6746 Q1117 39.2371 1117 49.9314 Q1117 60.6258 1111.82 67.1883 Q1106.67 73.7508 1098.41 73.7508 Q1093.43 73.7508 1089.82 71.8063 Q1086.26 69.8214 1083.91 65.7705 L1083.91 72.576 L1076.41 72.576 L1076.41 9.54393 L1083.91 9.54393 L1083.91 34.0924 Z" fill="#000000" fill-rule="evenodd" fill-opacity="1" /><path clip-path="url(#clip680)" d="M1129.36 9.54393 L1136.81 9.54393 L1136.81 72.576 L1129.36 72.576 L1129.36 9.54393 Z" fill="#000000" fill-rule="evenodd" fill-opacity="1" /><path clip-path="url(#clip680)" d="M1152.41 27.2059 L1159.86 27.2059 L1159.86 72.576 L1152.41 72.576 L1152.41 27.2059 M1152.41 9.54393 L1159.86 9.54393 L1159.86 18.9825 L1152.41 18.9825 L1152.41 9.54393 Z" fill="#000000" fill-rule="evenodd" fill-opacity="1" /><path clip-path="url(#clip680)" d="M1208.11 28.9478 L1208.11 35.9153 Q1204.95 34.1734 1201.75 33.3227 Q1198.59 32.4315 1195.35 32.4315 Q1188.1 32.4315 1184.09 37.0496 Q1180.08 41.6271 1180.08 49.9314 Q1180.08 58.2358 1184.09 62.8538 Q1188.1 67.4314 1195.35 67.4314 Q1198.59 67.4314 1201.75 66.5807 Q1204.95 65.6895 1208.11 63.9476 L1208.11 70.8341 Q1204.99 72.2924 1201.63 73.0216 Q1198.31 73.7508 1194.54 73.7508 Q1184.29 73.7508 1178.25 67.3098 Q1172.22 60.8689 1172.22 49.9314 Q1172.22 38.832 1178.29 32.472 Q1184.41 26.1121 1195.02 26.1121 Q1198.47 26.1121 1201.75 26.8413 Q1205.03 27.5299 1208.11 28.9478 Z" fill="#000000" fill-rule="evenodd" fill-opacity="1" /><path clip-path="url(#clip680)" d="M1221.07 9.54393 L1228.52 9.54393 L1228.52 72.576 L1221.07 72.576 L1221.07 9.54393 Z" fill="#000000" fill-rule="evenodd" fill-opacity="1" /><path clip-path="url(#clip680)" d="M1263 76.7889 Q1259.84 84.8907 1256.84 87.3618 Q1253.84 89.8329 1248.82 89.8329 L1242.87 89.8329 L1242.87 83.5945 L1247.24 83.5945 Q1250.32 83.5945 1252.02 82.1361 Q1253.72 80.6778 1255.79 75.2496 L1257.12 71.8468 L1238.77 27.2059 L1246.67 27.2059 L1260.85 62.6918 L1275.03 27.2059 L1282.93 27.2059 L1263 76.7889 Z" fill="#000000" fill-rule="evenodd" fill-opacity="1" /><path clip-path="url(#clip680)" d="M1340.21 49.7694 Q1331.17 49.7694 1327.69 51.8354 Q1324.21 53.9013 1324.21 58.8839 Q1324.21 62.8538 1326.8 65.2034 Q1329.43 67.5124 1333.93 67.5124 Q1340.13 67.5124 1343.85 63.1374 Q1347.62 58.7219 1347.62 51.4303 L1347.62 49.7694 L1340.21 49.7694 M1355.08 46.6907 L1355.08 72.576 L1347.62 72.576 L1347.62 65.6895 Q1345.07 69.8214 1341.26 71.8063 Q1337.45 73.7508 1331.94 73.7508 Q1324.98 73.7508 1320.85 69.8619 Q1316.75 65.9325 1316.75 59.3701 Q1316.75 51.7138 1321.86 47.825 Q1327 43.9361 1337.17 43.9361 L1347.62 43.9361 L1347.62 43.2069 Q1347.62 38.0623 1344.22 35.2672 Q1340.86 32.4315 1334.74 32.4315 Q1330.85 32.4315 1327.16 33.3632 Q1323.48 34.295 1320.08 36.1584 L1320.08 29.2718 Q1324.17 27.692 1328.02 26.9223 Q1331.86 26.1121 1335.51 26.1121 Q1345.35 26.1121 1350.21 31.2163 Q1355.08 36.3204 1355.08 46.6907 Z" fill="#000000" fill-rule="evenodd" fill-opacity="1" /><path clip-path="url(#clip680)" d="M1365.08 27.2059 L1372.98 27.2059 L1387.16 65.2844 L1401.34 27.2059 L1409.24 27.2059 L1392.22 72.576 L1382.09 72.576 L1365.08 27.2059 Z" fill="#000000" fill-rule="evenodd" fill-opacity="1" /><path clip-path="url(#clip680)" d="M1440.14 49.7694 Q1431.11 49.7694 1427.63 51.8354 Q1424.14 53.9013 1424.14 58.8839 Q1424.14 62.8538 1426.74 65.2034 Q1429.37 67.5124 1433.87 67.5124 Q1440.06 67.5124 1443.79 63.1374 Q1447.56 58.7219 1447.56 51.4303 L1447.56 49.7694 L1440.14 49.7694 M1455.01 46.6907 L1455.01 72.576 L1447.56 72.576 L1447.56 65.6895 Q1445.01 69.8214 1441.2 71.8063 Q1437.39 73.7508 1431.88 73.7508 Q1424.91 73.7508 1420.78 69.8619 Q1416.69 65.9325 1416.69 59.3701 Q1416.69 51.7138 1421.79 47.825 Q1426.94 43.9361 1437.11 43.9361 L1447.56 43.9361 L1447.56 43.2069 Q1447.56 38.0623 1444.15 35.2672 Q1440.79 32.4315 1434.68 32.4315 Q1430.79 32.4315 1427.1 33.3632 Q1423.41 34.295 1420.01 36.1584 L1420.01 29.2718 Q1424.1 27.692 1427.95 26.9223 Q1431.8 26.1121 1435.45 26.1121 Q1445.29 26.1121 1450.15 31.2163 Q1455.01 36.3204 1455.01 46.6907 Z" fill="#000000" fill-rule="evenodd" fill-opacity="1" /><path clip-path="url(#clip680)" d="M1470.36 27.2059 L1477.82 27.2059 L1477.82 72.576 L1470.36 72.576 L1470.36 27.2059 M1470.36 9.54393 L1477.82 9.54393 L1477.82 18.9825 L1470.36 18.9825 L1470.36 9.54393 Z" fill="#000000" fill-rule="evenodd" fill-opacity="1" /><path clip-path="url(#clip680)" d="M1493.41 9.54393 L1500.87 9.54393 L1500.87 72.576 L1493.41 72.576 L1493.41 9.54393 Z" fill="#000000" fill-rule="evenodd" fill-opacity="1" /><path clip-path="url(#clip680)" d="M1537.08 49.7694 Q1528.05 49.7694 1524.57 51.8354 Q1521.08 53.9013 1521.08 58.8839 Q1521.08 62.8538 1523.67 65.2034 Q1526.31 67.5124 1530.8 67.5124 Q1537 67.5124 1540.73 63.1374 Q1544.5 58.7219 1544.5 51.4303 L1544.5 49.7694 L1537.08 49.7694 M1551.95 46.6907 L1551.95 72.576 L1544.5 72.576 L1544.5 65.6895 Q1541.94 69.8214 1538.14 71.8063 Q1534.33 73.7508 1528.82 73.7508 Q1521.85 73.7508 1517.72 69.8619 Q1513.63 65.9325 1513.63 59.3701 Q1513.63 51.7138 1518.73 47.825 Q1523.88 43.9361 1534.04 43.9361 L1544.5 43.9361 L1544.5 43.2069 Q1544.5 38.0623 1541.09 35.2672 Q1537.73 32.4315 1531.61 32.4315 Q1527.72 32.4315 1524.04 33.3632 Q1520.35 34.295 1516.95 36.1584 L1516.95 29.2718 Q1521.04 27.692 1524.89 26.9223 Q1528.74 26.1121 1532.38 26.1121 Q1542.23 26.1121 1547.09 31.2163 Q1551.95 36.3204 1551.95 46.6907 Z" fill="#000000" fill-rule="evenodd" fill-opacity="1" /><path clip-path="url(#clip680)" d="M1599.87 49.9314 Q1599.87 41.7081 1596.47 37.0496 Q1593.11 32.3505 1587.19 32.3505 Q1581.28 32.3505 1577.87 37.0496 Q1574.51 41.7081 1574.51 49.9314 Q1574.51 58.1548 1577.87 62.8538 Q1581.28 67.5124 1587.19 67.5124 Q1593.11 67.5124 1596.47 62.8538 Q1599.87 58.1548 1599.87 49.9314 M1574.51 34.0924 Q1576.86 30.0415 1580.43 28.0971 Q1584.03 26.1121 1589.01 26.1121 Q1597.28 26.1121 1602.42 32.6746 Q1607.61 39.2371 1607.61 49.9314 Q1607.61 60.6258 1602.42 67.1883 Q1597.28 73.7508 1589.01 73.7508 Q1584.03 73.7508 1580.43 71.8063 Q1576.86 69.8214 1574.51 65.7705 L1574.51 72.576 L1567.02 72.576 L1567.02 9.54393 L1574.51 9.54393 L1574.51 34.0924 Z" fill="#000000" fill-rule="evenodd" fill-opacity="1" /><path clip-path="url(#clip680)" d="M1619.96 9.54393 L1627.42 9.54393 L1627.42 72.576 L1619.96 72.576 L1619.96 9.54393 Z" fill="#000000" fill-rule="evenodd" fill-opacity="1" /><path clip-path="url(#clip680)" d="M1681.82 48.0275 L1681.82 51.6733 L1647.55 51.6733 Q1648.04 59.3701 1652.17 63.421 Q1656.34 67.4314 1663.75 67.4314 Q1668.05 67.4314 1672.06 66.3781 Q1676.11 65.3249 1680.08 63.2184 L1680.08 70.267 Q1676.07 71.9684 1671.86 72.8596 Q1667.64 73.7508 1663.31 73.7508 Q1652.45 73.7508 1646.09 67.4314 Q1639.77 61.1119 1639.77 50.3365 Q1639.77 39.1965 1645.77 32.6746 Q1651.8 26.1121 1662.01 26.1121 Q1671.17 26.1121 1676.47 32.0264 Q1681.82 37.9003 1681.82 48.0275 M1674.37 45.84 Q1674.29 39.7232 1670.92 36.0774 Q1667.6 32.4315 1662.09 32.4315 Q1655.85 32.4315 1652.09 35.9558 Q1648.36 39.4801 1647.79 45.8805 L1674.37 45.84 Z" fill="#000000" fill-rule="evenodd" fill-opacity="1" /><polyline clip-path="url(#clip682)" style="stroke:#009af9; stroke-linecap:butt; stroke-linejoin:round; stroke-width:12; stroke-opacity:1; fill:none" points="
  280.231,160.256 386.134,439.462 597.941,691.527 1021.55,979.228 1445.17,1063.91 1868.78,1166.24 2292.39,1178.01 
  "/>
<polyline clip-path="url(#clip682)" style="stroke:#e26f46; stroke-linecap:butt; stroke-linejoin:round; stroke-width:12; stroke-opacity:1; fill:none" points="
  280.231,674.688 386.134,806.599 597.941,1093.73 1021.55,1241.69 1445.17,1282.1 1868.78,1364.66 2292.39,1386.4 
  "/>
<path clip-path="url(#clip680)" d="
M1879.23 322.316 L2281.66 322.316 L2281.66 166.796 L1879.23 166.796  Z
  " fill="#ffffff" fill-rule="evenodd" fill-opacity="1"/>
<polyline clip-path="url(#clip680)" style="stroke:#000000; stroke-linecap:butt; stroke-linejoin:round; stroke-width:4; stroke-opacity:1; fill:none" points="
  1879.23,322.316 2281.66,322.316 2281.66,166.796 1879.23,166.796 1879.23,322.316 
  "/>
<polyline clip-path="url(#clip680)" style="stroke:#009af9; stroke-linecap:butt; stroke-linejoin:round; stroke-width:4; stroke-opacity:1; fill:none" points="
  1902.93,218.636 2045.12,218.636 
  "/>
<path clip-path="url(#clip680)" d="M2068.82 199.897 L2073.11 199.897 L2073.11 221.17 L2085.81 209.99 L2091.25 209.99 L2077.5 222.119 L2091.83 235.916 L2086.28 235.916 L2073.11 223.254 L2073.11 235.916 L2068.82 235.916 L2068.82 199.897 Z" fill="#000000" fill-rule="evenodd" fill-opacity="1" /><path clip-path="url(#clip680)" d="M2096.99 214.388 L2126.67 214.388 L2126.67 218.277 L2096.99 218.277 L2096.99 214.388 M2096.99 223.832 L2126.67 223.832 L2126.67 227.768 L2096.99 227.768 L2096.99 223.832 Z" fill="#000000" fill-rule="evenodd" fill-opacity="1" /><path clip-path="url(#clip680)" d="M2146.76 204.434 Q2143.15 204.434 2141.32 207.999 Q2139.52 211.541 2139.52 218.67 Q2139.52 225.777 2141.32 229.342 Q2143.15 232.883 2146.76 232.883 Q2150.4 232.883 2152.2 229.342 Q2154.03 225.777 2154.03 218.67 Q2154.03 211.541 2152.2 207.999 Q2150.4 204.434 2146.76 204.434 M2146.76 200.731 Q2152.57 200.731 2155.63 205.337 Q2158.71 209.92 2158.71 218.67 Q2158.71 227.397 2155.63 232.004 Q2152.57 236.587 2146.76 236.587 Q2140.95 236.587 2137.87 232.004 Q2134.82 227.397 2134.82 218.67 Q2134.82 209.92 2137.87 205.337 Q2140.95 200.731 2146.76 200.731 Z" fill="#000000" fill-rule="evenodd" fill-opacity="1" /><path clip-path="url(#clip680)" d="M2166.92 230.036 L2171.81 230.036 L2171.81 235.916 L2166.92 235.916 L2166.92 230.036 Z" fill="#000000" fill-rule="evenodd" fill-opacity="1" /><path clip-path="url(#clip680)" d="M2192.57 216.772 Q2189.42 216.772 2187.57 218.925 Q2185.74 221.078 2185.74 224.828 Q2185.74 228.555 2187.57 230.731 Q2189.42 232.883 2192.57 232.883 Q2195.72 232.883 2197.55 230.731 Q2199.4 228.555 2199.4 224.828 Q2199.4 221.078 2197.55 218.925 Q2195.72 216.772 2192.57 216.772 M2201.85 202.12 L2201.85 206.379 Q2200.1 205.546 2198.29 205.106 Q2196.51 204.666 2194.75 204.666 Q2190.12 204.666 2187.67 207.791 Q2185.23 210.916 2184.89 217.235 Q2186.25 215.221 2188.31 214.157 Q2190.37 213.069 2192.85 213.069 Q2198.06 213.069 2201.07 216.24 Q2204.1 219.388 2204.1 224.828 Q2204.1 230.152 2200.95 233.369 Q2197.8 236.587 2192.57 236.587 Q2186.58 236.587 2183.41 232.004 Q2180.23 227.397 2180.23 218.67 Q2180.23 210.476 2184.12 205.615 Q2188.01 200.731 2194.56 200.731 Q2196.32 200.731 2198.1 201.078 Q2199.91 201.425 2201.85 202.12 Z" fill="#000000" fill-rule="evenodd" fill-opacity="1" /><path clip-path="url(#clip680)" d="M2222.73 216.772 Q2219.59 216.772 2217.73 218.925 Q2215.91 221.078 2215.91 224.828 Q2215.91 228.555 2217.73 230.731 Q2219.59 232.883 2222.73 232.883 Q2225.88 232.883 2227.71 230.731 Q2229.56 228.555 2229.56 224.828 Q2229.56 221.078 2227.71 218.925 Q2225.88 216.772 2222.73 216.772 M2232.02 202.12 L2232.02 206.379 Q2230.26 205.546 2228.45 205.106 Q2226.67 204.666 2224.91 204.666 Q2220.28 204.666 2217.83 207.791 Q2215.4 210.916 2215.05 217.235 Q2216.41 215.221 2218.48 214.157 Q2220.54 213.069 2223.01 213.069 Q2228.22 213.069 2231.23 216.24 Q2234.26 219.388 2234.26 224.828 Q2234.26 230.152 2231.11 233.369 Q2227.97 236.587 2222.73 236.587 Q2216.74 236.587 2213.57 232.004 Q2210.4 227.397 2210.4 218.67 Q2210.4 210.476 2214.29 205.615 Q2218.17 200.731 2224.73 200.731 Q2226.48 200.731 2228.27 201.078 Q2230.07 201.425 2232.02 202.12 Z" fill="#000000" fill-rule="evenodd" fill-opacity="1" /><polyline clip-path="url(#clip680)" style="stroke:#e26f46; stroke-linecap:butt; stroke-linejoin:round; stroke-width:4; stroke-opacity:1; fill:none" points="
  1902.93,270.476 2045.12,270.476 
  "/>
<path clip-path="url(#clip680)" d="M2068.82 251.737 L2073.11 251.737 L2073.11 273.01 L2085.81 261.83 L2091.25 261.83 L2077.5 273.959 L2091.83 287.756 L2086.28 287.756 L2073.11 275.094 L2073.11 287.756 L2068.82 287.756 L2068.82 251.737 Z" fill="#000000" fill-rule="evenodd" fill-opacity="1" /><path clip-path="url(#clip680)" d="M2096.99 266.228 L2126.67 266.228 L2126.67 270.117 L2096.99 270.117 L2096.99 266.228 M2096.99 275.672 L2126.67 275.672 L2126.67 279.608 L2096.99 279.608 L2096.99 275.672 Z" fill="#000000" fill-rule="evenodd" fill-opacity="1" /><path clip-path="url(#clip680)" d="M2146.76 256.274 Q2143.15 256.274 2141.32 259.839 Q2139.52 263.381 2139.52 270.51 Q2139.52 277.617 2141.32 281.182 Q2143.15 284.723 2146.76 284.723 Q2150.4 284.723 2152.2 281.182 Q2154.03 277.617 2154.03 270.51 Q2154.03 263.381 2152.2 259.839 Q2150.4 256.274 2146.76 256.274 M2146.76 252.571 Q2152.57 252.571 2155.63 257.177 Q2158.71 261.76 2158.71 270.51 Q2158.71 279.237 2155.63 283.844 Q2152.57 288.427 2146.76 288.427 Q2140.95 288.427 2137.87 283.844 Q2134.82 279.237 2134.82 270.51 Q2134.82 261.76 2137.87 257.177 Q2140.95 252.571 2146.76 252.571 Z" fill="#000000" fill-rule="evenodd" fill-opacity="1" /><path clip-path="url(#clip680)" d="M2166.92 281.876 L2171.81 281.876 L2171.81 287.756 L2166.92 287.756 L2166.92 281.876 Z" fill="#000000" fill-rule="evenodd" fill-opacity="1" /><path clip-path="url(#clip680)" d="M2182.13 287.038 L2182.13 282.779 Q2183.89 283.612 2185.7 284.052 Q2187.5 284.492 2189.24 284.492 Q2193.87 284.492 2196.3 281.39 Q2198.75 278.265 2199.1 271.922 Q2197.76 273.913 2195.7 274.978 Q2193.64 276.043 2191.14 276.043 Q2185.95 276.043 2182.92 272.918 Q2179.91 269.77 2179.91 264.33 Q2179.91 259.006 2183.06 255.788 Q2186.21 252.571 2191.44 252.571 Q2197.43 252.571 2200.58 257.177 Q2203.75 261.76 2203.75 270.51 Q2203.75 278.682 2199.86 283.566 Q2196 288.427 2189.45 288.427 Q2187.69 288.427 2185.88 288.08 Q2184.08 287.733 2182.13 287.038 M2191.44 272.385 Q2194.59 272.385 2196.42 270.233 Q2198.27 268.08 2198.27 264.33 Q2198.27 260.603 2196.42 258.45 Q2194.59 256.274 2191.44 256.274 Q2188.29 256.274 2186.44 258.45 Q2184.61 260.603 2184.61 264.33 Q2184.61 268.08 2186.44 270.233 Q2188.29 272.385 2191.44 272.385 Z" fill="#000000" fill-rule="evenodd" fill-opacity="1" /><path clip-path="url(#clip680)" d="M2222.16 256.274 Q2218.54 256.274 2216.72 259.839 Q2214.91 263.381 2214.91 270.51 Q2214.91 277.617 2216.72 281.182 Q2218.54 284.723 2222.16 284.723 Q2225.79 284.723 2227.6 281.182 Q2229.42 277.617 2229.42 270.51 Q2229.42 263.381 2227.6 259.839 Q2225.79 256.274 2222.16 256.274 M2222.16 252.571 Q2227.97 252.571 2231.02 257.177 Q2234.1 261.76 2234.1 270.51 Q2234.1 279.237 2231.02 283.844 Q2227.97 288.427 2222.16 288.427 Q2216.35 288.427 2213.27 283.844 Q2210.21 279.237 2210.21 270.51 Q2210.21 261.76 2213.27 257.177 Q2216.35 252.571 2222.16 252.571 Z" fill="#000000" fill-rule="evenodd" fill-opacity="1" /></svg>
