<?xml version="1.0" encoding="utf-8"?>
<svg xmlns="http://www.w3.org/2000/svg" xmlns:xlink="http://www.w3.org/1999/xlink" width="600" height="400" viewBox="0 0 2400 1600">
<defs>
  <clipPath id="clip710">
    <rect x="0" y="0" width="2400" height="1600"/>
  </clipPath>
</defs>
<path clip-path="url(#clip710)" d="
M0 1600 L2400 1600 L2400 0 L0 0  Z
  " fill="#ffffff" fill-rule="evenodd" fill-opacity="1"/>
<defs>
  <clipPath id="clip711">
    <rect x="480" y="0" width="1681" height="1600"/>
  </clipPath>
</defs>
<path clip-path="url(#clip710)" d="
M249.542 1423.18 L2352.76 1423.18 L2352.76 123.472 L249.542 123.472  Z
  " fill="#ffffff" fill-rule="evenodd" fill-opacity="1"/>
<defs>
  <clipPath id="clip712">
    <rect x="249" y="123" width="2104" height="1301"/>
  </clipPath>
</defs>
<polyline clip-path="url(#clip712)" style="stroke:#000000; stroke-linecap:butt; stroke-linejoin:round; stroke-width:2; stroke-opacity:0.1; fill:none" points="
  622.356,1423.18 622.356,123.472 
  "/>
<polyline clip-path="url(#clip712)" style="stroke:#000000; stroke-linecap:butt; stroke-linejoin:round; stroke-width:2; stroke-opacity:0.1; fill:none" points="
  1040.07,1423.18 1040.07,123.472 
  "/>
<polyline clip-path="url(#clip712)" style="stroke:#000000; stroke-linecap:butt; stroke-linejoin:round; stroke-width:2; stroke-opacity:0.1; fill:none" points="
  1457.79,1423.18 1457.79,123.472 
  "/>
<polyline clip-path="url(#clip712)" style="stroke:#000000; stroke-linecap:butt; stroke-linejoin:round; stroke-width:2; stroke-opacity:0.1; fill:none" points="
  1875.51,1423.18 1875.51,123.472 
  "/>
<polyline clip-path="url(#clip712)" style="stroke:#000000; stroke-linecap:butt; stroke-linejoin:round; stroke-width:2; stroke-opacity:0.1; fill:none" points="
  2293.23,1423.18 2293.23,123.472 
  "/>
<polyline clip-path="url(#clip710)" style="stroke:#000000; stroke-linecap:butt; stroke-linejoin:round; stroke-width:4; stroke-opacity:1; fill:none" points="
  249.542,1423.18 2352.76,1423.18 
  "/>
<polyline clip-path="url(#clip710)" style="stroke:#000000; stroke-linecap:butt; stroke-linejoin:round; stroke-width:4; stroke-opacity:1; fill:none" points="
  622.356,1423.18 622.356,1404.28 
  "/>
<polyline clip-path="url(#clip710)" style="stroke:#000000; stroke-linecap:butt; stroke-linejoin:round; stroke-width:4; stroke-opacity:1; fill:none" points="
  1040.07,1423.18 1040.07,1404.28 
  "/>
<polyline clip-path="url(#clip710)" style="stroke:#000000; stroke-linecap:butt; stroke-linejoin:round; stroke-width:4; stroke-opacity:1; fill:none" points="
  1457.79,1423.18 1457.79,1404.28 
  "/>
<polyline clip-path="url(#clip710)" style="stroke:#000000; stroke-linecap:butt; stroke-linejoin:round; stroke-width:4; stroke-opacity:1; fill:none" points="
  1875.51,1423.18 1875.51,1404.28 
  "/>
<polyline clip-path="url(#clip710)" style="stroke:#000000; stroke-linecap:butt; stroke-linejoin:round; stroke-width:4; stroke-opacity:1; fill:none" points="
  2293.23,1423.18 2293.23,1404.28 
  "/>
<path clip-path="url(#clip710)" d="M586.048 1481.64 L602.368 1481.64 L602.368 1485.58 L580.423 1485.58 L580.423 1481.64 Q583.085 1478.89 587.669 1474.26 Q592.275 1469.61 593.456 1468.27 Q595.701 1465.74 596.581 1464.01 Q597.483 1462.25 597.483 1460.56 Q597.483 1457.8 595.539 1456.07 Q593.618 1454.33 590.516 1454.33 Q588.317 1454.33 585.863 1455.09 Q583.433 1455.86 580.655 1457.41 L580.655 1452.69 Q583.479 1451.55 585.933 1450.97 Q588.386 1450.39 590.423 1450.39 Q595.794 1450.39 598.988 1453.08 Q602.183 1455.77 602.183 1460.26 Q602.183 1462.39 601.372 1464.31 Q600.585 1466.2 598.479 1468.8 Q597.9 1469.47 594.798 1472.69 Q591.696 1475.88 586.048 1481.64 Z" fill="#000000" fill-rule="evenodd" fill-opacity="1" /><path clip-path="url(#clip710)" d="M622.182 1454.1 Q618.571 1454.1 616.743 1457.66 Q614.937 1461.2 614.937 1468.33 Q614.937 1475.44 616.743 1479.01 Q618.571 1482.55 622.182 1482.55 Q625.817 1482.55 627.622 1479.01 Q629.451 1475.44 629.451 1468.33 Q629.451 1461.2 627.622 1457.66 Q625.817 1454.1 622.182 1454.1 M622.182 1450.39 Q627.993 1450.39 631.048 1455 Q634.127 1459.58 634.127 1468.33 Q634.127 1477.06 631.048 1481.67 Q627.993 1486.25 622.182 1486.25 Q616.372 1486.25 613.294 1481.67 Q610.238 1477.06 610.238 1468.33 Q610.238 1459.58 613.294 1455 Q616.372 1450.39 622.182 1450.39 Z" fill="#000000" fill-rule="evenodd" fill-opacity="1" /><path clip-path="url(#clip710)" d="M652.344 1454.1 Q648.733 1454.1 646.904 1457.66 Q645.099 1461.2 645.099 1468.33 Q645.099 1475.44 646.904 1479.01 Q648.733 1482.55 652.344 1482.55 Q655.979 1482.55 657.784 1479.01 Q659.613 1475.44 659.613 1468.33 Q659.613 1461.2 657.784 1457.66 Q655.979 1454.1 652.344 1454.1 M652.344 1450.39 Q658.154 1450.39 661.21 1455 Q664.289 1459.58 664.289 1468.33 Q664.289 1477.06 661.21 1481.67 Q658.154 1486.25 652.344 1486.25 Q646.534 1486.25 643.455 1481.67 Q640.4 1477.06 640.4 1468.33 Q640.4 1459.58 643.455 1455 Q646.534 1450.39 652.344 1450.39 Z" fill="#000000" fill-rule="evenodd" fill-opacity="1" /><path clip-path="url(#clip710)" d="M1013.17 1455.09 L1001.36 1473.54 L1013.17 1473.54 L1013.17 1455.09 M1011.94 1451.02 L1017.82 1451.02 L1017.82 1473.54 L1022.75 1473.54 L1022.75 1477.43 L1017.82 1477.43 L1017.82 1485.58 L1013.17 1485.58 L1013.17 1477.43 L997.563 1477.43 L997.563 1472.92 L1011.94 1451.02 Z" fill="#000000" fill-rule="evenodd" fill-opacity="1" /><path clip-path="url(#clip710)" d="M1040.48 1454.1 Q1036.87 1454.1 1035.04 1457.66 Q1033.23 1461.2 1033.23 1468.33 Q1033.23 1475.44 1035.04 1479.01 Q1036.87 1482.55 1040.48 1482.55 Q1044.11 1482.55 1045.92 1479.01 Q1047.75 1475.44 1047.75 1468.33 Q1047.75 1461.2 1045.92 1457.66 Q1044.11 1454.1 1040.48 1454.1 M1040.48 1450.39 Q1046.29 1450.39 1049.35 1455 Q1052.42 1459.58 1052.42 1468.33 Q1052.42 1477.06 1049.35 1481.67 Q1046.29 1486.25 1040.48 1486.25 Q1034.67 1486.25 1031.59 1481.67 Q1028.54 1477.06 1028.54 1468.33 Q1028.54 1459.58 1031.59 1455 Q1034.67 1450.39 1040.48 1450.39 Z" fill="#000000" fill-rule="evenodd" fill-opacity="1" /><path clip-path="url(#clip710)" d="M1070.64 1454.1 Q1067.03 1454.1 1065.2 1457.66 Q1063.4 1461.2 1063.4 1468.33 Q1063.4 1475.44 1065.2 1479.01 Q1067.03 1482.55 1070.64 1482.55 Q1074.28 1482.55 1076.08 1479.01 Q1077.91 1475.44 1077.91 1468.33 Q1077.91 1461.2 1076.08 1457.66 Q1074.28 1454.1 1070.64 1454.1 M1070.64 1450.39 Q1076.45 1450.39 1079.51 1455 Q1082.59 1459.58 1082.59 1468.33 Q1082.59 1477.06 1079.51 1481.67 Q1076.45 1486.25 1070.64 1486.25 Q1064.83 1486.25 1061.75 1481.67 Q1058.7 1477.06 1058.7 1468.33 Q1058.7 1459.58 1061.75 1455 Q1064.83 1450.39 1070.64 1450.39 Z" fill="#000000" fill-rule="evenodd" fill-opacity="1" /><path clip-path="url(#clip710)" d="M1428.12 1466.44 Q1424.97 1466.44 1423.12 1468.59 Q1421.29 1470.74 1421.29 1474.49 Q1421.29 1478.22 1423.12 1480.39 Q1424.97 1482.55 1428.12 1482.55 Q1431.27 1482.55 1433.09 1480.39 Q1434.95 1478.22 1434.95 1474.49 Q1434.95 1470.74 1433.09 1468.59 Q1431.27 1466.44 1428.12 1466.44 M1437.4 1451.78 L1437.4 1456.04 Q1435.64 1455.21 1433.84 1454.77 Q1432.05 1454.33 1430.29 1454.33 Q1425.66 1454.33 1423.21 1457.45 Q1420.78 1460.58 1420.43 1466.9 Q1421.8 1464.89 1423.86 1463.82 Q1425.92 1462.73 1428.4 1462.73 Q1433.6 1462.73 1436.61 1465.9 Q1439.65 1469.05 1439.65 1474.49 Q1439.65 1479.82 1436.5 1483.03 Q1433.35 1486.25 1428.12 1486.25 Q1422.12 1486.25 1418.95 1481.67 Q1415.78 1477.06 1415.78 1468.33 Q1415.78 1460.14 1419.67 1455.28 Q1423.56 1450.39 1430.11 1450.39 Q1431.87 1450.39 1433.65 1450.74 Q1435.46 1451.09 1437.4 1451.78 Z" fill="#000000" fill-rule="evenodd" fill-opacity="1" /><path clip-path="url(#clip710)" d="M1457.7 1454.1 Q1454.09 1454.1 1452.26 1457.66 Q1450.46 1461.2 1450.46 1468.33 Q1450.46 1475.44 1452.26 1479.01 Q1454.09 1482.55 1457.7 1482.55 Q1461.34 1482.55 1463.14 1479.01 Q1464.97 1475.44 1464.97 1468.33 Q1464.97 1461.2 1463.14 1457.66 Q1461.34 1454.1 1457.7 1454.1 M1457.7 1450.39 Q1463.51 1450.39 1466.57 1455 Q1469.65 1459.58 1469.65 1468.33 Q1469.65 1477.06 1466.57 1481.67 Q1463.51 1486.25 1457.7 1486.25 Q1451.89 1486.25 1448.81 1481.67 Q1445.76 1477.06 1445.76 1468.33 Q1445.76 1459.58 1448.81 1455 Q1451.89 1450.39 1457.7 1450.39 Z" fill="#000000" fill-rule="evenodd" fill-opacity="1" /><path clip-path="url(#clip710)" d="M1487.86 1454.1 Q1484.25 1454.1 1482.42 1457.66 Q1480.62 1461.2 1480.62 1468.33 Q1480.62 1475.44 1482.42 1479.01 Q1484.25 1482.55 1487.86 1482.55 Q1491.5 1482.55 1493.3 1479.01 Q1495.13 1475.44 1495.13 1468.33 Q1495.13 1461.2 1493.3 1457.66 Q1491.5 1454.1 1487.86 1454.1 M1487.86 1450.39 Q1493.67 1450.39 1496.73 1455 Q1499.81 1459.58 1499.81 1468.33 Q1499.81 1477.06 1496.73 1481.67 Q1493.67 1486.25 1487.86 1486.25 Q1482.05 1486.25 1478.97 1481.67 Q1475.92 1477.06 1475.92 1468.33 Q1475.92 1459.58 1478.97 1455 Q1482.05 1450.39 1487.86 1450.39 Z" fill="#000000" fill-rule="evenodd" fill-opacity="1" /><path clip-path="url(#clip710)" d="M1845.3 1469.17 Q1841.97 1469.17 1840.05 1470.95 Q1838.15 1472.73 1838.15 1475.86 Q1838.15 1478.98 1840.05 1480.77 Q1841.97 1482.55 1845.3 1482.55 Q1848.64 1482.55 1850.56 1480.77 Q1852.48 1478.96 1852.48 1475.86 Q1852.48 1472.73 1850.56 1470.95 Q1848.66 1469.17 1845.3 1469.17 M1840.63 1467.18 Q1837.62 1466.44 1835.93 1464.38 Q1834.26 1462.32 1834.26 1459.35 Q1834.26 1455.21 1837.2 1452.8 Q1840.17 1450.39 1845.3 1450.39 Q1850.47 1450.39 1853.41 1452.8 Q1856.35 1455.21 1856.35 1459.35 Q1856.35 1462.32 1854.66 1464.38 Q1852.99 1466.44 1850 1467.18 Q1853.38 1467.96 1855.26 1470.26 Q1857.16 1472.55 1857.16 1475.86 Q1857.16 1480.88 1854.08 1483.57 Q1851.02 1486.25 1845.3 1486.25 Q1839.59 1486.25 1836.51 1483.57 Q1833.45 1480.88 1833.45 1475.86 Q1833.45 1472.55 1835.35 1470.26 Q1837.25 1467.96 1840.63 1467.18 M1838.92 1459.79 Q1838.92 1462.48 1840.58 1463.98 Q1842.27 1465.49 1845.3 1465.49 Q1848.31 1465.49 1850 1463.98 Q1851.72 1462.48 1851.72 1459.79 Q1851.72 1457.11 1850 1455.6 Q1848.31 1454.1 1845.3 1454.1 Q1842.27 1454.1 1840.58 1455.6 Q1838.92 1457.11 1838.92 1459.79 Z" fill="#000000" fill-rule="evenodd" fill-opacity="1" /><path clip-path="url(#clip710)" d="M1875.47 1454.1 Q1871.85 1454.1 1870.03 1457.66 Q1868.22 1461.2 1868.22 1468.33 Q1868.22 1475.44 1870.03 1479.01 Q1871.85 1482.55 1875.47 1482.55 Q1879.1 1482.55 1880.91 1479.01 Q1882.73 1475.44 1882.73 1468.33 Q1882.73 1461.2 1880.91 1457.66 Q1879.1 1454.1 1875.47 1454.1 M1875.47 1450.39 Q1881.28 1450.39 1884.33 1455 Q1887.41 1459.58 1887.41 1468.33 Q1887.41 1477.06 1884.33 1481.67 Q1881.28 1486.25 1875.47 1486.25 Q1869.66 1486.25 1866.58 1481.67 Q1863.52 1477.06 1863.52 1468.33 Q1863.52 1459.58 1866.58 1455 Q1869.66 1450.39 1875.47 1450.39 Z" fill="#000000" fill-rule="evenodd" fill-opacity="1" /><path clip-path="url(#clip710)" d="M1905.63 1454.1 Q1902.02 1454.1 1900.19 1457.66 Q1898.38 1461.2 1898.38 1468.33 Q1898.38 1475.44 1900.19 1479.01 Q1902.02 1482.55 1905.63 1482.55 Q1909.26 1482.55 1911.07 1479.01 Q1912.9 1475.44 1912.9 1468.33 Q1912.9 1461.2 1911.07 1457.66 Q1909.26 1454.1 1905.63 1454.1 M1905.63 1450.39 Q1911.44 1450.39 1914.49 1455 Q1917.57 1459.58 1917.57 1468.33 Q1917.57 1477.06 1914.49 1481.67 Q1911.44 1486.25 1905.63 1486.25 Q1899.82 1486.25 1896.74 1481.67 Q1893.68 1477.06 1893.68 1468.33 Q1893.68 1459.58 1896.74 1455 Q1899.82 1450.39 1905.63 1450.39 Z" fill="#000000" fill-rule="evenodd" fill-opacity="1" /><path clip-path="url(#clip710)" d="M2237.76 1481.64 L2245.4 1481.64 L2245.4 1455.28 L2237.09 1456.95 L2237.09 1452.69 L2245.35 1451.02 L2250.03 1451.02 L2250.03 1481.64 L2257.66 1481.64 L2257.66 1485.58 L2237.76 1485.58 L2237.76 1481.64 Z" fill="#000000" fill-rule="evenodd" fill-opacity="1" /><path clip-path="url(#clip710)" d="M2277.11 1454.1 Q2273.5 1454.1 2271.67 1457.66 Q2269.86 1461.2 2269.86 1468.33 Q2269.86 1475.44 2271.67 1479.01 Q2273.5 1482.55 2277.11 1482.55 Q2280.74 1482.55 2282.55 1479.01 Q2284.38 1475.44 2284.38 1468.33 Q2284.38 1461.2 2282.55 1457.66 Q2280.74 1454.1 2277.11 1454.1 M2277.11 1450.39 Q2282.92 1450.39 2285.97 1455 Q2289.05 1459.58 2289.05 1468.33 Q2289.05 1477.06 2285.97 1481.67 Q2282.92 1486.25 2277.11 1486.25 Q2271.3 1486.25 2268.22 1481.67 Q2265.16 1477.06 2265.16 1468.33 Q2265.16 1459.58 2268.22 1455 Q2271.3 1450.39 2277.11 1450.39 Z" fill="#000000" fill-rule="evenodd" fill-opacity="1" /><path clip-path="url(#clip710)" d="M2307.27 1454.1 Q2303.66 1454.1 2301.83 1457.66 Q2300.02 1461.2 2300.02 1468.33 Q2300.02 1475.44 2301.83 1479.01 Q2303.66 1482.55 2307.27 1482.55 Q2310.9 1482.55 2312.71 1479.01 Q2314.54 1475.44 2314.54 1468.33 Q2314.54 1461.2 2312.71 1457.66 Q2310.9 1454.1 2307.27 1454.1 M2307.27 1450.39 Q2313.08 1450.39 2316.14 1455 Q2319.21 1459.58 2319.21 1468.33 Q2319.21 1477.06 2316.14 1481.67 Q2313.08 1486.25 2307.27 1486.25 Q2301.46 1486.25 2298.38 1481.67 Q2295.33 1477.06 2295.33 1468.33 Q2295.33 1459.58 2298.38 1455 Q2301.46 1450.39 2307.27 1450.39 Z" fill="#000000" fill-rule="evenodd" fill-opacity="1" /><path clip-path="url(#clip710)" d="M2337.43 1454.1 Q2333.82 1454.1 2331.99 1457.66 Q2330.19 1461.2 2330.19 1468.33 Q2330.19 1475.44 2331.99 1479.01 Q2333.82 1482.55 2337.43 1482.55 Q2341.07 1482.55 2342.87 1479.01 Q2344.7 1475.44 2344.7 1468.33 Q2344.7 1461.2 2342.87 1457.66 Q2341.07 1454.1 2337.43 1454.1 M2337.43 1450.39 Q2343.24 1450.39 2346.3 1455 Q2349.38 1459.58 2349.38 1468.33 Q2349.38 1477.06 2346.3 1481.67 Q2343.24 1486.25 2337.43 1486.25 Q2331.62 1486.25 2328.54 1481.67 Q2325.49 1477.06 2325.49 1468.33 Q2325.49 1459.58 2328.54 1455 Q2331.62 1450.39 2337.43 1450.39 Z" fill="#000000" fill-rule="evenodd" fill-opacity="1" /><path clip-path="url(#clip710)" d="M1316.08 1546.53 L1316.08 1568.04 L1310.22 1568.04 L1310.22 1546.72 Q1310.22 1541.66 1308.25 1539.14 Q1306.27 1536.63 1302.33 1536.63 Q1297.58 1536.63 1294.85 1539.65 Q1292.11 1542.68 1292.11 1547.9 L1292.11 1568.04 L1286.22 1568.04 L1286.22 1532.4 L1292.11 1532.4 L1292.11 1537.93 Q1294.21 1534.72 1297.04 1533.13 Q1299.91 1531.54 1303.63 1531.54 Q1309.77 1531.54 1312.93 1535.36 Q1316.08 1539.14 1316.08 1546.53 Z" fill="#000000" fill-rule="evenodd" fill-opacity="1" /><polyline clip-path="url(#clip712)" style="stroke:#000000; stroke-linecap:butt; stroke-linejoin:round; stroke-width:2; stroke-opacity:0.1; fill:none" points="
  249.542,1290.58 2352.76,1290.58 
  "/>
<polyline clip-path="url(#clip712)" style="stroke:#000000; stroke-linecap:butt; stroke-linejoin:round; stroke-width:2; stroke-opacity:0.1; fill:none" points="
  249.542,1063.11 2352.76,1063.11 
  "/>
<polyline clip-path="url(#clip712)" style="stroke:#000000; stroke-linecap:butt; stroke-linejoin:round; stroke-width:2; stroke-opacity:0.1; fill:none" points="
  249.542,835.643 2352.76,835.643 
  "/>
<polyline clip-path="url(#clip712)" style="stroke:#000000; stroke-linecap:butt; stroke-linejoin:round; stroke-width:2; stroke-opacity:0.1; fill:none" points="
  249.542,608.176 2352.76,608.176 
  "/>
<polyline clip-path="url(#clip712)" style="stroke:#000000; stroke-linecap:butt; stroke-linejoin:round; stroke-width:2; stroke-opacity:0.1; fill:none" points="
  249.542,380.709 2352.76,380.709 
  "/>
<polyline clip-path="url(#clip712)" style="stroke:#000000; stroke-linecap:butt; stroke-linejoin:round; stroke-width:2; stroke-opacity:0.1; fill:none" points="
  249.542,153.242 2352.76,153.242 
  "/>
<polyline clip-path="url(#clip710)" style="stroke:#000000; stroke-linecap:butt; stroke-linejoin:round; stroke-width:4; stroke-opacity:1; fill:none" points="
  249.542,1423.18 249.542,123.472 
  "/>
<polyline clip-path="url(#clip710)" style="stroke:#000000; stroke-linecap:butt; stroke-linejoin:round; stroke-width:4; stroke-opacity:1; fill:none" points="
  249.542,1290.58 268.44,1290.58 
  "/>
<polyline clip-path="url(#clip710)" style="stroke:#000000; stroke-linecap:butt; stroke-linejoin:round; stroke-width:4; stroke-opacity:1; fill:none" points="
  249.542,1063.11 268.44,1063.11 
  "/>
<polyline clip-path="url(#clip710)" style="stroke:#000000; stroke-linecap:butt; stroke-linejoin:round; stroke-width:4; stroke-opacity:1; fill:none" points="
  249.542,835.643 268.44,835.643 
  "/>
<polyline clip-path="url(#clip710)" style="stroke:#000000; stroke-linecap:butt; stroke-linejoin:round; stroke-width:4; stroke-opacity:1; fill:none" points="
  249.542,608.176 268.44,608.176 
  "/>
<polyline clip-path="url(#clip710)" style="stroke:#000000; stroke-linecap:butt; stroke-linejoin:round; stroke-width:4; stroke-opacity:1; fill:none" points="
  249.542,380.709 268.44,380.709 
  "/>
<polyline clip-path="url(#clip710)" style="stroke:#000000; stroke-linecap:butt; stroke-linejoin:round; stroke-width:4; stroke-opacity:1; fill:none" points="
  249.542,153.242 268.44,153.242 
  "/>
<path clip-path="url(#clip710)" d="M126.205 1276.38 Q122.593 1276.38 120.765 1279.94 Q118.959 1283.48 118.959 1290.61 Q118.959 1297.72 120.765 1301.28 Q122.593 1304.83 126.205 1304.83 Q129.839 1304.83 131.644 1301.28 Q133.473 1297.72 133.473 1290.61 Q133.473 1283.48 131.644 1279.94 Q129.839 1276.38 126.205 1276.38 M126.205 1272.67 Q132.015 1272.67 135.07 1277.28 Q138.149 1281.86 138.149 1290.61 Q138.149 1299.34 135.07 1303.95 Q132.015 1308.53 126.205 1308.53 Q120.394 1308.53 117.316 1303.95 Q114.26 1299.34 114.26 1290.61 Q114.26 1281.86 117.316 1277.28 Q120.394 1272.67 126.205 1272.67 Z" fill="#000000" fill-rule="evenodd" fill-opacity="1" /><path clip-path="url(#clip710)" d="M146.366 1301.98 L151.251 1301.98 L151.251 1307.86 L146.366 1307.86 L146.366 1301.98 Z" fill="#000000" fill-rule="evenodd" fill-opacity="1" /><path clip-path="url(#clip710)" d="M175.602 1289.22 Q178.959 1289.94 180.834 1292.21 Q182.732 1294.48 182.732 1297.81 Q182.732 1302.93 179.214 1305.73 Q175.695 1308.53 169.214 1308.53 Q167.038 1308.53 164.723 1308.09 Q162.431 1307.67 159.978 1306.82 L159.978 1302.3 Q161.922 1303.44 164.237 1304.02 Q166.552 1304.59 169.075 1304.59 Q173.473 1304.59 175.764 1302.86 Q178.079 1301.12 178.079 1297.81 Q178.079 1294.76 175.926 1293.04 Q173.797 1291.31 169.977 1291.31 L165.95 1291.31 L165.95 1287.46 L170.163 1287.46 Q173.612 1287.46 175.44 1286.1 Q177.269 1284.71 177.269 1282.12 Q177.269 1279.45 175.371 1278.04 Q173.496 1276.61 169.977 1276.61 Q168.056 1276.61 165.857 1277.02 Q163.658 1277.44 161.019 1278.32 L161.019 1274.15 Q163.681 1273.41 165.996 1273.04 Q168.334 1272.67 170.394 1272.67 Q175.718 1272.67 178.82 1275.1 Q181.922 1277.51 181.922 1281.63 Q181.922 1284.5 180.278 1286.49 Q178.635 1288.46 175.602 1289.22 Z" fill="#000000" fill-rule="evenodd" fill-opacity="1" /><path clip-path="url(#clip710)" d="M201.598 1276.38 Q197.987 1276.38 196.158 1279.94 Q194.352 1283.48 194.352 1290.61 Q194.352 1297.72 196.158 1301.28 Q197.987 1304.83 201.598 1304.83 Q205.232 1304.83 207.037 1301.28 Q208.866 1297.72 208.866 1290.61 Q208.866 1283.48 207.037 1279.94 Q205.232 1276.38 201.598 1276.38 M201.598 1272.67 Q207.408 1272.67 210.463 1277.28 Q213.542 1281.86 213.542 1290.61 Q213.542 1299.34 210.463 1303.95 Q207.408 1308.53 201.598 1308.53 Q195.787 1308.53 192.709 1303.95 Q189.653 1299.34 189.653 1290.61 Q189.653 1281.86 192.709 1277.28 Q195.787 1272.67 201.598 1272.67 Z" fill="#000000" fill-rule="evenodd" fill-opacity="1" /><path clip-path="url(#clip710)" d="M127.2 1048.91 Q123.589 1048.91 121.76 1052.47 Q119.955 1056.02 119.955 1063.15 Q119.955 1070.25 121.76 1073.82 Q123.589 1077.36 127.2 1077.36 Q130.834 1077.36 132.64 1073.82 Q134.468 1070.25 134.468 1063.15 Q134.468 1056.02 132.64 1052.47 Q130.834 1048.91 127.2 1048.91 M127.2 1045.21 Q133.01 1045.21 136.066 1049.81 Q139.144 1054.4 139.144 1063.15 Q139.144 1071.87 136.066 1076.48 Q133.01 1081.06 127.2 1081.06 Q121.39 1081.06 118.311 1076.48 Q115.256 1071.87 115.256 1063.15 Q115.256 1054.4 118.311 1049.81 Q121.39 1045.21 127.2 1045.21 Z" fill="#000000" fill-rule="evenodd" fill-opacity="1" /><path clip-path="url(#clip710)" d="M147.362 1074.51 L152.246 1074.51 L152.246 1080.39 L147.362 1080.39 L147.362 1074.51 Z" fill="#000000" fill-rule="evenodd" fill-opacity="1" /><path clip-path="url(#clip710)" d="M176.598 1061.76 Q179.954 1062.47 181.829 1064.74 Q183.727 1067.01 183.727 1070.34 Q183.727 1075.46 180.209 1078.26 Q176.69 1081.06 170.209 1081.06 Q168.033 1081.06 165.718 1080.62 Q163.427 1080.21 160.973 1079.35 L160.973 1074.83 Q162.917 1075.97 165.232 1076.55 Q167.547 1077.13 170.07 1077.13 Q174.468 1077.13 176.76 1075.39 Q179.075 1073.65 179.075 1070.34 Q179.075 1067.29 176.922 1065.58 Q174.792 1063.84 170.973 1063.84 L166.945 1063.84 L166.945 1060 L171.158 1060 Q174.607 1060 176.436 1058.63 Q178.264 1057.24 178.264 1054.65 Q178.264 1051.99 176.366 1050.58 Q174.491 1049.14 170.973 1049.14 Q169.052 1049.14 166.852 1049.56 Q164.653 1049.97 162.015 1050.85 L162.015 1046.69 Q164.677 1045.95 166.991 1045.58 Q169.329 1045.21 171.389 1045.21 Q176.714 1045.21 179.815 1047.64 Q182.917 1050.04 182.917 1054.16 Q182.917 1057.03 181.274 1059.02 Q179.63 1060.99 176.598 1061.76 Z" fill="#000000" fill-rule="evenodd" fill-opacity="1" /><path clip-path="url(#clip710)" d="M192.639 1045.83 L210.996 1045.83 L210.996 1049.77 L196.922 1049.77 L196.922 1058.24 Q197.94 1057.89 198.959 1057.73 Q199.977 1057.54 200.996 1057.54 Q206.783 1057.54 210.162 1060.71 Q213.542 1063.89 213.542 1069.3 Q213.542 1074.88 210.07 1077.98 Q206.598 1081.06 200.278 1081.06 Q198.102 1081.06 195.834 1080.69 Q193.588 1080.32 191.181 1079.58 L191.181 1074.88 Q193.264 1076.02 195.487 1076.57 Q197.709 1077.13 200.186 1077.13 Q204.19 1077.13 206.528 1075.02 Q208.866 1072.91 208.866 1069.3 Q208.866 1065.69 206.528 1063.58 Q204.19 1061.48 200.186 1061.48 Q198.311 1061.48 196.436 1061.9 Q194.584 1062.31 192.639 1063.19 L192.639 1045.83 Z" fill="#000000" fill-rule="evenodd" fill-opacity="1" /><path clip-path="url(#clip710)" d="M126.205 821.442 Q122.593 821.442 120.765 825.007 Q118.959 828.548 118.959 835.678 Q118.959 842.784 120.765 846.349 Q122.593 849.891 126.205 849.891 Q129.839 849.891 131.644 846.349 Q133.473 842.784 133.473 835.678 Q133.473 828.548 131.644 825.007 Q129.839 821.442 126.205 821.442 M126.205 817.738 Q132.015 817.738 135.07 822.345 Q138.149 826.928 138.149 835.678 Q138.149 844.405 135.07 849.011 Q132.015 853.595 126.205 853.595 Q120.394 853.595 117.316 849.011 Q114.26 844.405 114.26 835.678 Q114.26 826.928 117.316 822.345 Q120.394 817.738 126.205 817.738 Z" fill="#000000" fill-rule="evenodd" fill-opacity="1" /><path clip-path="url(#clip710)" d="M146.366 847.044 L151.251 847.044 L151.251 852.923 L146.366 852.923 L146.366 847.044 Z" fill="#000000" fill-rule="evenodd" fill-opacity="1" /><path clip-path="url(#clip710)" d="M174.283 822.437 L162.477 840.886 L174.283 840.886 L174.283 822.437 M173.056 818.363 L178.936 818.363 L178.936 840.886 L183.866 840.886 L183.866 844.775 L178.936 844.775 L178.936 852.923 L174.283 852.923 L174.283 844.775 L158.681 844.775 L158.681 840.261 L173.056 818.363 Z" fill="#000000" fill-rule="evenodd" fill-opacity="1" /><path clip-path="url(#clip710)" d="M201.598 821.442 Q197.987 821.442 196.158 825.007 Q194.352 828.548 194.352 835.678 Q194.352 842.784 196.158 846.349 Q197.987 849.891 201.598 849.891 Q205.232 849.891 207.037 846.349 Q208.866 842.784 208.866 835.678 Q208.866 828.548 207.037 825.007 Q205.232 821.442 201.598 821.442 M201.598 817.738 Q207.408 817.738 210.463 822.345 Q213.542 826.928 213.542 835.678 Q213.542 844.405 210.463 849.011 Q207.408 853.595 201.598 853.595 Q195.787 853.595 192.709 849.011 Q189.653 844.405 189.653 835.678 Q189.653 826.928 192.709 822.345 Q195.787 817.738 201.598 817.738 Z" fill="#000000" fill-rule="evenodd" fill-opacity="1" /><path clip-path="url(#clip710)" d="M127.2 593.975 Q123.589 593.975 121.76 597.54 Q119.955 601.081 119.955 608.211 Q119.955 615.317 121.76 618.882 Q123.589 622.424 127.2 622.424 Q130.834 622.424 132.64 618.882 Q134.468 615.317 134.468 608.211 Q134.468 601.081 132.64 597.54 Q130.834 593.975 127.2 593.975 M127.2 590.271 Q133.01 590.271 136.066 594.878 Q139.144 599.461 139.144 608.211 Q139.144 616.938 136.066 621.544 Q133.01 626.127 127.2 626.127 Q121.39 626.127 118.311 621.544 Q115.256 616.938 115.256 608.211 Q115.256 599.461 118.311 594.878 Q121.39 590.271 127.2 590.271 Z" fill="#000000" fill-rule="evenodd" fill-opacity="1" /><path clip-path="url(#clip710)" d="M147.362 619.576 L152.246 619.576 L152.246 625.456 L147.362 625.456 L147.362 619.576 Z" fill="#000000" fill-rule="evenodd" fill-opacity="1" /><path clip-path="url(#clip710)" d="M175.278 594.97 L163.473 613.419 L175.278 613.419 L175.278 594.97 M174.052 590.896 L179.931 590.896 L179.931 613.419 L184.862 613.419 L184.862 617.308 L179.931 617.308 L179.931 625.456 L175.278 625.456 L175.278 617.308 L159.677 617.308 L159.677 612.794 L174.052 590.896 Z" fill="#000000" fill-rule="evenodd" fill-opacity="1" /><path clip-path="url(#clip710)" d="M192.639 590.896 L210.996 590.896 L210.996 594.831 L196.922 594.831 L196.922 603.303 Q197.94 602.956 198.959 602.794 Q199.977 602.609 200.996 602.609 Q206.783 602.609 210.162 605.78 Q213.542 608.952 213.542 614.368 Q213.542 619.947 210.07 623.049 Q206.598 626.127 200.278 626.127 Q198.102 626.127 195.834 625.757 Q193.588 625.387 191.181 624.646 L191.181 619.947 Q193.264 621.081 195.487 621.637 Q197.709 622.192 200.186 622.192 Q204.19 622.192 206.528 620.086 Q208.866 617.979 208.866 614.368 Q208.866 610.757 206.528 608.651 Q204.19 606.544 200.186 606.544 Q198.311 606.544 196.436 606.961 Q194.584 607.377 192.639 608.257 L192.639 590.896 Z" fill="#000000" fill-rule="evenodd" fill-opacity="1" /><path clip-path="url(#clip710)" d="M126.205 366.508 Q122.593 366.508 120.765 370.072 Q118.959 373.614 118.959 380.744 Q118.959 387.85 120.765 391.415 Q122.593 394.956 126.205 394.956 Q129.839 394.956 131.644 391.415 Q133.473 387.85 133.473 380.744 Q133.473 373.614 131.644 370.072 Q129.839 366.508 126.205 366.508 M126.205 362.804 Q132.015 362.804 135.07 367.41 Q138.149 371.994 138.149 380.744 Q138.149 389.47 135.07 394.077 Q132.015 398.66 126.205 398.66 Q120.394 398.66 117.316 394.077 Q114.26 389.47 114.26 380.744 Q114.26 371.994 117.316 367.41 Q120.394 362.804 126.205 362.804 Z" fill="#000000" fill-rule="evenodd" fill-opacity="1" /><path clip-path="url(#clip710)" d="M146.366 392.109 L151.251 392.109 L151.251 397.989 L146.366 397.989 L146.366 392.109 Z" fill="#000000" fill-rule="evenodd" fill-opacity="1" /><path clip-path="url(#clip710)" d="M161.482 363.429 L179.839 363.429 L179.839 367.364 L165.765 367.364 L165.765 375.836 Q166.783 375.489 167.802 375.327 Q168.82 375.142 169.839 375.142 Q175.626 375.142 179.005 378.313 Q182.385 381.484 182.385 386.901 Q182.385 392.48 178.913 395.581 Q175.44 398.66 169.121 398.66 Q166.945 398.66 164.677 398.29 Q162.431 397.919 160.024 397.179 L160.024 392.48 Q162.107 393.614 164.329 394.169 Q166.552 394.725 169.028 394.725 Q173.033 394.725 175.371 392.619 Q177.709 390.512 177.709 386.901 Q177.709 383.29 175.371 381.183 Q173.033 379.077 169.028 379.077 Q167.153 379.077 165.278 379.494 Q163.427 379.91 161.482 380.79 L161.482 363.429 Z" fill="#000000" fill-rule="evenodd" fill-opacity="1" /><path clip-path="url(#clip710)" d="M201.598 366.508 Q197.987 366.508 196.158 370.072 Q194.352 373.614 194.352 380.744 Q194.352 387.85 196.158 391.415 Q197.987 394.956 201.598 394.956 Q205.232 394.956 207.037 391.415 Q208.866 387.85 208.866 380.744 Q208.866 373.614 207.037 370.072 Q205.232 366.508 201.598 366.508 M201.598 362.804 Q207.408 362.804 210.463 367.41 Q213.542 371.994 213.542 380.744 Q213.542 389.47 210.463 394.077 Q207.408 398.66 201.598 398.66 Q195.787 398.66 192.709 394.077 Q189.653 389.47 189.653 380.744 Q189.653 371.994 192.709 367.41 Q195.787 362.804 201.598 362.804 Z" fill="#000000" fill-rule="evenodd" fill-opacity="1" /><path clip-path="url(#clip710)" d="M127.2 139.04 Q123.589 139.04 121.76 142.605 Q119.955 146.147 119.955 153.276 Q119.955 160.383 121.76 163.948 Q123.589 167.489 127.2 167.489 Q130.834 167.489 132.64 163.948 Q134.468 160.383 134.468 153.276 Q134.468 146.147 132.64 142.605 Q130.834 139.04 127.2 139.04 M127.2 135.337 Q133.01 135.337 136.066 139.943 Q139.144 144.526 139.144 153.276 Q139.144 162.003 136.066 166.61 Q133.01 171.193 127.2 171.193 Q121.39 171.193 118.311 166.61 Q115.256 162.003 115.256 153.276 Q115.256 144.526 118.311 139.943 Q121.39 135.337 127.2 135.337 Z" fill="#000000" fill-rule="evenodd" fill-opacity="1" /><path clip-path="url(#clip710)" d="M147.362 164.642 L152.246 164.642 L152.246 170.522 L147.362 170.522 L147.362 164.642 Z" fill="#000000" fill-rule="evenodd" fill-opacity="1" /><path clip-path="url(#clip710)" d="M162.477 135.962 L180.834 135.962 L180.834 139.897 L166.76 139.897 L166.76 148.369 Q167.778 148.022 168.797 147.86 Q169.815 147.675 170.834 147.675 Q176.621 147.675 180.001 150.846 Q183.38 154.017 183.38 159.434 Q183.38 165.012 179.908 168.114 Q176.436 171.193 170.116 171.193 Q167.94 171.193 165.672 170.823 Q163.427 170.452 161.019 169.711 L161.019 165.012 Q163.102 166.147 165.325 166.702 Q167.547 167.258 170.024 167.258 Q174.028 167.258 176.366 165.151 Q178.704 163.045 178.704 159.434 Q178.704 155.823 176.366 153.716 Q174.028 151.61 170.024 151.61 Q168.149 151.61 166.274 152.026 Q164.422 152.443 162.477 153.323 L162.477 135.962 Z" fill="#000000" fill-rule="evenodd" fill-opacity="1" /><path clip-path="url(#clip710)" d="M192.639 135.962 L210.996 135.962 L210.996 139.897 L196.922 139.897 L196.922 148.369 Q197.94 148.022 198.959 147.86 Q199.977 147.675 200.996 147.675 Q206.783 147.675 210.162 150.846 Q213.542 154.017 213.542 159.434 Q213.542 165.012 210.07 168.114 Q206.598 171.193 200.278 171.193 Q198.102 171.193 195.834 170.823 Q193.588 170.452 191.181 169.711 L191.181 165.012 Q193.264 166.147 195.487 166.702 Q197.709 167.258 200.186 167.258 Q204.19 167.258 206.528 165.151 Q208.866 163.045 208.866 159.434 Q208.866 155.823 206.528 153.716 Q204.19 151.61 200.186 151.61 Q198.311 151.61 196.436 152.026 Q194.584 152.443 192.639 153.323 L192.639 135.962 Z" fill="#000000" fill-rule="evenodd" fill-opacity="1" /><path clip-path="url(#clip710)" d="M41.3104 1089.3 L58.7206 1089.3 L58.7206 1078.99 Q58.7206 1073.8 56.5881 1071.32 Q54.4238 1068.81 49.9996 1068.81 Q45.5436 1068.81 43.4429 1071.32 Q41.3104 1073.8 41.3104 1078.99 L41.3104 1089.3 M21.7677 1089.3 L36.0905 1089.3 L36.0905 1079.79 Q36.0905 1075.08 34.34 1072.78 Q32.5576 1070.46 28.9291 1070.46 Q25.3325 1070.46 23.5501 1072.78 Q21.7677 1075.08 21.7677 1079.79 L21.7677 1089.3 M16.4842 1095.73 L16.4842 1079.31 Q16.4842 1071.96 19.5397 1067.98 Q22.5952 1064 28.2289 1064 Q32.5894 1064 35.1675 1066.04 Q37.7456 1068.07 38.3822 1072.02 Q39.4007 1067.28 42.6472 1064.67 Q45.8619 1062.03 50.6998 1062.03 Q57.0655 1062.03 60.5348 1066.36 Q64.0042 1070.68 64.0042 1078.67 L64.0042 1095.73 L16.4842 1095.73 Z" fill="#000000" fill-rule="evenodd" fill-opacity="1" /><path clip-path="url(#clip710)" d="M32.4621 1037.46 Q32.4621 1042.17 36.1542 1044.9 Q39.8145 1047.64 46.212 1047.64 Q52.6095 1047.64 56.3017 1044.93 Q59.9619 1042.2 59.9619 1037.46 Q59.9619 1032.78 56.2698 1030.04 Q52.5777 1027.3 46.212 1027.3 Q39.8781 1027.3 36.186 1030.04 Q32.4621 1032.78 32.4621 1037.46 M27.4968 1037.46 Q27.4968 1029.82 32.4621 1025.46 Q37.4273 1021.1 46.212 1021.1 Q54.9649 1021.1 59.9619 1025.46 Q64.9272 1029.82 64.9272 1037.46 Q64.9272 1045.13 59.9619 1049.49 Q54.9649 1053.81 46.212 1053.81 Q37.4273 1053.81 32.4621 1049.49 Q27.4968 1045.13 27.4968 1037.46 Z" fill="#000000" fill-rule="evenodd" fill-opacity="1" /><path clip-path="url(#clip710)" d="M18.2347 1005.59 L28.3562 1005.59 L28.3562 993.532 L32.9077 993.532 L32.9077 1005.59 L52.2594 1005.59 Q56.6199 1005.59 57.8613 1004.42 Q59.1026 1003.21 59.1026 999.547 L59.1026 993.532 L64.0042 993.532 L64.0042 999.547 Q64.0042 1006.33 61.4897 1008.9 Q58.9434 1011.48 52.2594 1011.48 L32.9077 1011.48 L32.9077 1015.78 L28.3562 1015.78 L28.3562 1011.48 L18.2347 1011.48 L18.2347 1005.59 Z" fill="#000000" fill-rule="evenodd" fill-opacity="1" /><path clip-path="url(#clip710)" d="M18.2347 980.036 L28.3562 980.036 L28.3562 967.973 L32.9077 967.973 L32.9077 980.036 L52.2594 980.036 Q56.6199 980.036 57.8613 978.859 Q59.1026 977.649 59.1026 973.989 L59.1026 967.973 L64.0042 967.973 L64.0042 973.989 Q64.0042 980.768 61.4897 983.347 Q58.9434 985.925 52.2594 985.925 L32.9077 985.925 L32.9077 990.222 L28.3562 990.222 L28.3562 985.925 L18.2347 985.925 L18.2347 980.036 Z" fill="#000000" fill-rule="evenodd" fill-opacity="1" /><path clip-path="url(#clip710)" d="M14.479 960.271 L14.479 954.414 L64.0042 954.414 L64.0042 960.271 L14.479 960.271 Z" fill="#000000" fill-rule="evenodd" fill-opacity="1" /><path clip-path="url(#clip710)" d="M44.7161 911.669 L47.5806 911.669 L47.5806 938.596 Q53.6281 938.214 56.8109 934.967 Q59.9619 931.689 59.9619 925.864 Q59.9619 922.49 59.1344 919.339 Q58.3069 916.157 56.6518 913.037 L62.1899 913.037 Q63.5267 916.188 64.227 919.499 Q64.9272 922.809 64.9272 926.214 Q64.9272 934.744 59.9619 939.741 Q54.9967 944.707 46.5303 944.707 Q37.7774 944.707 32.6531 939.996 Q27.4968 935.254 27.4968 927.233 Q27.4968 920.04 32.1438 915.87 Q36.7589 911.669 44.7161 911.669 M42.9973 917.525 Q38.1912 917.589 35.3266 920.231 Q32.4621 922.841 32.4621 927.169 Q32.4621 932.071 35.2312 935.031 Q38.0002 937.959 43.0292 938.405 L42.9973 917.525 Z" fill="#000000" fill-rule="evenodd" fill-opacity="1" /><path clip-path="url(#clip710)" d="M42.4881 872.424 L64.0042 872.424 L64.0042 878.281 L42.679 878.281 Q37.6183 878.281 35.1038 880.254 Q32.5894 882.227 32.5894 886.174 Q32.5894 890.916 35.6131 893.654 Q38.6368 896.391 43.8567 896.391 L64.0042 896.391 L64.0042 902.279 L28.3562 902.279 L28.3562 896.391 L33.8944 896.391 Q30.6797 894.29 29.0883 891.458 Q27.4968 888.593 27.4968 884.869 Q27.4968 878.726 31.3163 875.575 Q35.1038 872.424 42.4881 872.424 Z" fill="#000000" fill-rule="evenodd" fill-opacity="1" /><path clip-path="url(#clip710)" d="M44.7161 830.251 L47.5806 830.251 L47.5806 857.178 Q53.6281 856.796 56.8109 853.55 Q59.9619 850.271 59.9619 844.447 Q59.9619 841.073 59.1344 837.922 Q58.3069 834.739 56.6518 831.62 L62.1899 831.62 Q63.5267 834.771 64.227 838.081 Q64.9272 841.391 64.9272 844.797 Q64.9272 853.327 59.9619 858.324 Q54.9967 863.289 46.5303 863.289 Q37.7774 863.289 32.6531 858.579 Q27.4968 853.836 27.4968 845.815 Q27.4968 838.622 32.1438 834.453 Q36.7589 830.251 44.7161 830.251 M42.9973 836.108 Q38.1912 836.171 35.3266 838.813 Q32.4621 841.423 32.4621 845.752 Q32.4621 850.653 35.2312 853.613 Q38.0002 856.542 43.0292 856.987 L42.9973 836.108 Z" fill="#000000" fill-rule="evenodd" fill-opacity="1" /><path clip-path="url(#clip710)" d="M29.7248 794.985 L35.1993 794.985 Q33.8307 797.468 33.1623 799.982 Q32.4621 802.465 32.4621 805.011 Q32.4621 810.709 36.0905 813.86 Q39.6872 817.011 46.212 817.011 Q52.7369 817.011 56.3653 813.86 Q59.9619 810.709 59.9619 805.011 Q59.9619 802.465 59.2935 799.982 Q58.5933 797.468 57.2247 794.985 L62.6355 794.985 Q63.7814 797.436 64.3543 800.078 Q64.9272 802.688 64.9272 805.648 Q64.9272 813.7 59.8664 818.443 Q54.8057 823.185 46.212 823.185 Q37.491 823.185 32.4939 818.411 Q27.4968 813.605 27.4968 805.266 Q27.4968 802.56 28.0697 799.982 Q28.6108 797.404 29.7248 794.985 Z" fill="#000000" fill-rule="evenodd" fill-opacity="1" /><path clip-path="url(#clip710)" d="M14.479 785.023 L14.479 779.135 L43.7294 779.135 L28.3562 761.661 L28.3562 754.181 L45.0344 773.087 L64.0042 753.385 L64.0042 761.024 L46.5939 779.135 L64.0042 779.135 L64.0042 785.023 L14.479 785.023 Z" fill="#000000" fill-rule="evenodd" fill-opacity="1" /><path clip-path="url(#clip710)" d="M21.7677 719.647 L58.7206 719.647 L58.7206 711.881 Q58.7206 702.046 54.2646 697.495 Q49.8086 692.911 40.1964 692.911 Q30.6479 692.911 26.2237 697.495 Q21.7677 702.046 21.7677 711.881 L21.7677 719.647 M16.4842 726.077 L16.4842 712.868 Q16.4842 699.054 22.2451 692.593 Q27.9743 686.132 40.1964 686.132 Q52.4822 686.132 58.2432 692.625 Q64.0042 699.118 64.0042 712.868 L64.0042 726.077 L16.4842 726.077 Z" fill="#000000" fill-rule="evenodd" fill-opacity="1" /><path clip-path="url(#clip710)" d="M28.3562 676.138 L28.3562 670.281 L64.0042 670.281 L64.0042 676.138 L28.3562 676.138 M14.479 676.138 L14.479 670.281 L21.895 670.281 L21.895 676.138 L14.479 676.138 Z" fill="#000000" fill-rule="evenodd" fill-opacity="1" /><path clip-path="url(#clip710)" d="M29.4065 635.302 L34.9447 635.302 Q33.6716 637.784 33.035 640.458 Q32.3984 643.131 32.3984 645.996 Q32.3984 650.356 33.7352 652.553 Q35.072 654.717 37.7456 654.717 Q39.7826 654.717 40.9603 653.157 Q42.1061 651.598 43.1565 646.887 L43.6021 644.882 Q44.9389 638.644 47.3897 636.034 Q49.8086 633.392 54.1691 633.392 Q59.1344 633.392 62.0308 637.339 Q64.9272 641.253 64.9272 648.128 Q64.9272 650.993 64.3543 654.112 Q63.8132 657.2 62.6992 660.637 L56.6518 660.637 Q58.3387 657.391 59.198 654.24 Q60.0256 651.089 60.0256 648.001 Q60.0256 643.863 58.6251 641.635 Q57.1929 639.407 54.6147 639.407 Q52.2276 639.407 50.9545 641.031 Q49.6813 642.622 48.5037 648.065 L48.0262 650.102 Q46.8804 655.544 44.5251 657.963 Q42.138 660.382 38.0002 660.382 Q32.9713 660.382 30.2341 656.818 Q27.4968 653.253 27.4968 646.696 Q27.4968 643.45 27.9743 640.585 Q28.4517 637.721 29.4065 635.302 Z" fill="#000000" fill-rule="evenodd" fill-opacity="1" /><path clip-path="url(#clip710)" d="M18.2347 618.273 L28.3562 618.273 L28.3562 606.21 L32.9077 606.21 L32.9077 618.273 L52.2594 618.273 Q56.6199 618.273 57.8613 617.096 Q59.1026 615.886 59.1026 612.226 L59.1026 606.21 L64.0042 606.21 L64.0042 612.226 Q64.0042 619.005 61.4897 621.583 Q58.9434 624.162 52.2594 624.162 L32.9077 624.162 L32.9077 628.458 L28.3562 628.458 L28.3562 624.162 L18.2347 624.162 L18.2347 618.273 Z" fill="#000000" fill-rule="evenodd" fill-opacity="1" /><path clip-path="url(#clip710)" d="M46.0847 582.307 Q46.0847 589.405 47.7079 592.142 Q49.3312 594.879 53.2461 594.879 Q56.3653 594.879 58.2114 592.842 Q60.0256 590.773 60.0256 587.24 Q60.0256 582.371 56.5881 579.442 Q53.1188 576.482 47.3897 576.482 L46.0847 576.482 L46.0847 582.307 M43.6657 570.626 L64.0042 570.626 L64.0042 576.482 L58.5933 576.482 Q61.8398 578.488 63.3994 581.48 Q64.9272 584.471 64.9272 588.8 Q64.9272 594.275 61.8716 597.521 Q58.7843 600.736 53.6281 600.736 Q47.6125 600.736 44.5569 596.725 Q41.5014 592.683 41.5014 584.694 L41.5014 576.482 L40.9285 576.482 Q36.8862 576.482 34.6901 579.156 Q32.4621 581.798 32.4621 586.604 Q32.4621 589.659 33.1941 592.556 Q33.9262 595.452 35.3903 598.126 L29.9795 598.126 Q28.7381 594.911 28.1334 591.887 Q27.4968 588.864 27.4968 585.999 Q27.4968 578.265 31.5072 574.445 Q35.5176 570.626 43.6657 570.626 Z" fill="#000000" fill-rule="evenodd" fill-opacity="1" /><path clip-path="url(#clip710)" d="M42.4881 528.931 L64.0042 528.931 L64.0042 534.787 L42.679 534.787 Q37.6183 534.787 35.1038 536.76 Q32.5894 538.734 32.5894 542.681 Q32.5894 547.423 35.6131 550.16 Q38.6368 552.897 43.8567 552.897 L64.0042 552.897 L64.0042 558.786 L28.3562 558.786 L28.3562 552.897 L33.8944 552.897 Q30.6797 550.797 29.0883 547.964 Q27.4968 545.099 27.4968 541.376 Q27.4968 535.233 31.3163 532.082 Q35.1038 528.931 42.4881 528.931 Z" fill="#000000" fill-rule="evenodd" fill-opacity="1" /><path clip-path="url(#clip710)" d="M29.7248 491.596 L35.1993 491.596 Q33.8307 494.078 33.1623 496.593 Q32.4621 499.075 32.4621 501.622 Q32.4621 507.319 36.0905 510.47 Q39.6872 513.621 46.212 513.621 Q52.7369 513.621 56.3653 510.47 Q59.9619 507.319 59.9619 501.622 Q59.9619 499.075 59.2935 496.593 Q58.5933 494.078 57.2247 491.596 L62.6355 491.596 Q63.7814 494.047 64.3543 496.688 Q64.9272 499.298 64.9272 502.258 Q64.9272 510.311 59.8664 515.053 Q54.8057 519.796 46.212 519.796 Q37.491 519.796 32.4939 515.022 Q27.4968 510.215 27.4968 501.876 Q27.4968 499.171 28.0697 496.593 Q28.6108 494.015 29.7248 491.596 Z" fill="#000000" fill-rule="evenodd" fill-opacity="1" /><path clip-path="url(#clip710)" d="M44.7161 450.919 L47.5806 450.919 L47.5806 477.846 Q53.6281 477.464 56.8109 474.217 Q59.9619 470.939 59.9619 465.114 Q59.9619 461.741 59.1344 458.59 Q58.3069 455.407 56.6518 452.287 L62.1899 452.287 Q63.5267 455.439 64.227 458.749 Q64.9272 462.059 64.9272 465.464 Q64.9272 473.995 59.9619 478.992 Q54.9967 483.957 46.5303 483.957 Q37.7774 483.957 32.6531 479.246 Q27.4968 474.504 27.4968 466.483 Q27.4968 459.29 32.1438 455.12 Q36.7589 450.919 44.7161 450.919 M42.9973 456.775 Q38.1912 456.839 35.3266 459.481 Q32.4621 462.091 32.4621 466.419 Q32.4621 471.321 35.2312 474.281 Q38.0002 477.209 43.0292 477.655 L42.9973 456.775 Z" fill="#000000" fill-rule="evenodd" fill-opacity="1" /><path clip-path="url(#clip710)" d="M859.803 34.4165 Q858.304 33.8899 856.805 33.4848 Q852.795 32.4315 848.501 32.4315 Q841.088 32.4315 836.956 36.4419 Q833.107 40.1688 832.378 47.0148 L859.803 47.0148 L859.803 52.8481 L832.378 52.8481 Q833.107 59.6941 836.956 63.421 Q841.088 67.4314 848.501 67.4314 Q853.686 67.4314 856.805 66.3781 L859.803 65.3654 L859.803 72.1304 L856.603 72.8596 Q852.39 73.7508 848.055 73.7508 Q837.199 73.7508 830.879 67.4314 Q824.52 61.1119 824.52 49.9314 Q824.52 38.7509 830.879 32.4315 Q837.199 26.1121 848.055 26.1121 Q852.147 26.1121 856.603 27.0033 Q858.223 27.3274 859.803 27.8135 L859.803 34.4165 Z" fill="#000000" fill-rule="evenodd" fill-opacity="1" /><path clip-path="url(#clip710)" d="M942.887 45.1919 L942.887 72.576 L935.433 72.576 L935.433 45.4349 Q935.433 38.994 932.922 35.7938 Q930.41 32.5936 925.387 32.5936 Q919.351 32.5936 915.867 36.4419 Q912.384 40.2903 912.384 46.9338 L912.384 72.576 L904.89 72.576 L904.89 27.2059 L912.384 27.2059 L912.384 34.2544 Q915.057 30.163 918.663 28.1376 Q922.308 26.1121 927.048 26.1121 Q934.866 26.1121 938.877 30.9732 Q942.887 35.7938 942.887 45.1919 Z" fill="#000000" fill-rule="evenodd" fill-opacity="1" /><path clip-path="url(#clip710)" d="M975.335 32.4315 Q969.339 32.4315 965.856 37.1306 Q962.372 41.7891 962.372 49.9314 Q962.372 58.0738 965.815 62.7728 Q969.299 67.4314 975.335 67.4314 Q981.29 67.4314 984.773 62.7323 Q988.257 58.0333 988.257 49.9314 Q988.257 41.8701 984.773 37.1711 Q981.29 32.4315 975.335 32.4315 M975.335 26.1121 Q985.057 26.1121 990.607 32.4315 Q996.156 38.7509 996.156 49.9314 Q996.156 61.0714 990.607 67.4314 Q985.057 73.7508 975.335 73.7508 Q965.572 73.7508 960.022 67.4314 Q954.513 61.0714 954.513 49.9314 Q954.513 38.7509 960.022 32.4315 Q965.572 26.1121 975.335 26.1121 Z" fill="#000000" fill-rule="evenodd" fill-opacity="1" /><path clip-path="url(#clip710)" d="M1015.88 14.324 L1015.88 27.2059 L1031.24 27.2059 L1031.24 32.9987 L1015.88 32.9987 L1015.88 57.6282 Q1015.88 63.1779 1017.38 64.7578 Q1018.92 66.3376 1023.58 66.3376 L1031.24 66.3376 L1031.24 72.576 L1023.58 72.576 Q1014.95 72.576 1011.67 69.3758 Q1008.39 66.1351 1008.39 57.6282 L1008.39 32.9987 L1002.92 32.9987 L1002.92 27.2059 L1008.39 27.2059 L1008.39 14.324 L1015.88 14.324 Z" fill="#000000" fill-rule="evenodd" fill-opacity="1" /><path clip-path="url(#clip710)" d="M1074.62 65.7705 L1074.62 89.8329 L1067.13 89.8329 L1067.13 27.2059 L1074.62 27.2059 L1074.62 34.0924 Q1076.97 30.0415 1080.54 28.0971 Q1084.14 26.1121 1089.12 26.1121 Q1097.39 26.1121 1102.53 32.6746 Q1107.72 39.2371 1107.72 49.9314 Q1107.72 60.6258 1102.53 67.1883 Q1097.39 73.7508 1089.12 73.7508 Q1084.14 73.7508 1080.54 71.8063 Q1076.97 69.8214 1074.62 65.7705 M1099.98 49.9314 Q1099.98 41.7081 1096.58 37.0496 Q1093.22 32.3505 1087.3 32.3505 Q1081.39 32.3505 1077.98 37.0496 Q1074.62 41.7081 1074.62 49.9314 Q1074.62 58.1548 1077.98 62.8538 Q1081.39 67.5124 1087.3 67.5124 Q1093.22 67.5124 1096.58 62.8538 Q1099.98 58.1548 1099.98 49.9314 Z" fill="#000000" fill-rule="evenodd" fill-opacity="1" /><path clip-path="url(#clip710)" d="M1119.3 54.671 L1119.3 27.2059 L1126.76 27.2059 L1126.76 54.3874 Q1126.76 60.8284 1129.27 64.0691 Q1131.78 67.2693 1136.8 67.2693 Q1142.84 67.2693 1146.32 63.421 Q1149.85 59.5726 1149.85 52.9291 L1149.85 27.2059 L1157.3 27.2059 L1157.3 72.576 L1149.85 72.576 L1149.85 65.6084 Q1147.13 69.7404 1143.53 71.7658 Q1139.96 73.7508 1135.22 73.7508 Q1127.41 73.7508 1123.35 68.8897 Q1119.3 64.0286 1119.3 54.671 M1138.06 26.1121 L1138.06 26.1121 Z" fill="#000000" fill-rule="evenodd" fill-opacity="1" /><path clip-path="url(#clip710)" d="M1205.22 49.9314 Q1205.22 41.7081 1201.82 37.0496 Q1198.46 32.3505 1192.54 32.3505 Q1186.63 32.3505 1183.23 37.0496 Q1179.86 41.7081 1179.86 49.9314 Q1179.86 58.1548 1183.23 62.8538 Q1186.63 67.5124 1192.54 67.5124 Q1198.46 67.5124 1201.82 62.8538 Q1205.22 58.1548 1205.22 49.9314 M1179.86 34.0924 Q1182.21 30.0415 1185.78 28.0971 Q1189.38 26.1121 1194.37 26.1121 Q1202.63 26.1121 1207.78 32.6746 Q1212.96 39.2371 1212.96 49.9314 Q1212.96 60.6258 1207.78 67.1883 Q1202.63 73.7508 1194.37 73.7508 Q1189.38 73.7508 1185.78 71.8063 Q1182.21 69.8214 1179.86 65.7705 L1179.86 72.576 L1172.37 72.576 L1172.37 9.54393 L1179.86 9.54393 L1179.86 34.0924 Z" fill="#000000" fill-rule="evenodd" fill-opacity="1" /><path clip-path="url(#clip710)" d="M1225.32 9.54393 L1232.77 9.54393 L1232.77 72.576 L1225.32 72.576 L1225.32 9.54393 Z" fill="#000000" fill-rule="evenodd" fill-opacity="1" /><path clip-path="url(#clip710)" d="M1248.37 27.2059 L1255.82 27.2059 L1255.82 72.576 L1248.37 72.576 L1248.37 27.2059 M1248.37 9.54393 L1255.82 9.54393 L1255.82 18.9825 L1248.37 18.9825 L1248.37 9.54393 Z" fill="#000000" fill-rule="evenodd" fill-opacity="1" /><path clip-path="url(#clip710)" d="M1304.07 28.9478 L1304.07 35.9153 Q1300.91 34.1734 1297.71 33.3227 Q1294.55 32.4315 1291.31 32.4315 Q1284.05 32.4315 1280.04 37.0496 Q1276.03 41.6271 1276.03 49.9314 Q1276.03 58.2358 1280.04 62.8538 Q1284.05 67.4314 1291.31 67.4314 Q1294.55 67.4314 1297.71 66.5807 Q1300.91 65.6895 1304.07 63.9476 L1304.07 70.8341 Q1300.95 72.2924 1297.58 73.0216 Q1294.26 73.7508 1290.5 73.7508 Q1280.25 73.7508 1274.21 67.3098 Q1268.17 60.8689 1268.17 49.9314 Q1268.17 38.832 1274.25 32.472 Q1280.37 26.1121 1290.98 26.1121 Q1294.42 26.1121 1297.71 26.8413 Q1300.99 27.5299 1304.07 28.9478 Z" fill="#000000" fill-rule="evenodd" fill-opacity="1" /><path clip-path="url(#clip710)" d="M1317.03 9.54393 L1324.48 9.54393 L1324.48 72.576 L1317.03 72.576 L1317.03 9.54393 Z" fill="#000000" fill-rule="evenodd" fill-opacity="1" /><path clip-path="url(#clip710)" d="M1358.96 76.7889 Q1355.8 84.8907 1352.8 87.3618 Q1349.8 89.8329 1344.78 89.8329 L1338.82 89.8329 L1338.82 83.5945 L1343.2 83.5945 Q1346.28 83.5945 1347.98 82.1361 Q1349.68 80.6778 1351.74 75.2496 L1353.08 71.8468 L1334.73 27.2059 L1342.63 27.2059 L1356.81 62.6918 L1370.99 27.2059 L1378.89 27.2059 L1358.96 76.7889 Z" fill="#000000" fill-rule="evenodd" fill-opacity="1" /><path clip-path="url(#clip710)" d="M1436.17 49.7694 Q1427.13 49.7694 1423.65 51.8354 Q1420.16 53.9013 1420.16 58.8839 Q1420.16 62.8538 1422.76 65.2034 Q1425.39 67.5124 1429.89 67.5124 Q1436.08 67.5124 1439.81 63.1374 Q1443.58 58.7219 1443.58 51.4303 L1443.58 49.7694 L1436.17 49.7694 M1451.03 46.6907 L1451.03 72.576 L1443.58 72.576 L1443.58 65.6895 Q1441.03 69.8214 1437.22 71.8063 Q1433.41 73.7508 1427.9 73.7508 Q1420.93 73.7508 1416.8 69.8619 Q1412.71 65.9325 1412.71 59.3701 Q1412.71 51.7138 1417.82 47.825 Q1422.96 43.9361 1433.13 43.9361 L1443.58 43.9361 L1443.58 43.2069 Q1443.58 38.0623 1440.18 35.2672 Q1436.81 32.4315 1430.7 32.4315 Q1426.81 32.4315 1423.12 33.3632 Q1419.44 34.295 1416.03 36.1584 L1416.03 29.2718 Q1420.12 27.692 1423.97 26.9223 Q1427.82 26.1121 1431.47 26.1121 Q1441.31 26.1121 1446.17 31.2163 Q1451.03 36.3204 1451.03 46.6907 Z" fill="#000000" fill-rule="evenodd" fill-opacity="1" /><path clip-path="url(#clip710)" d="M1461.04 27.2059 L1468.94 27.2059 L1483.12 65.2844 L1497.29 27.2059 L1505.19 27.2059 L1488.18 72.576 L1478.05 72.576 L1461.04 27.2059 Z" fill="#000000" fill-rule="evenodd" fill-opacity="1" /><path clip-path="url(#clip710)" d="M1536.1 49.7694 Q1527.07 49.7694 1523.58 51.8354 Q1520.1 53.9013 1520.1 58.8839 Q1520.1 62.8538 1522.69 65.2034 Q1525.33 67.5124 1529.82 67.5124 Q1536.02 67.5124 1539.75 63.1374 Q1543.51 58.7219 1543.51 51.4303 L1543.51 49.7694 L1536.1 49.7694 M1550.97 46.6907 L1550.97 72.576 L1543.51 72.576 L1543.51 65.6895 Q1540.96 69.8214 1537.15 71.8063 Q1533.35 73.7508 1527.84 73.7508 Q1520.87 73.7508 1516.74 69.8619 Q1512.65 65.9325 1512.65 59.3701 Q1512.65 51.7138 1517.75 47.825 Q1522.9 43.9361 1533.06 43.9361 L1543.51 43.9361 L1543.51 43.2069 Q1543.51 38.0623 1540.11 35.2672 Q1536.75 32.4315 1530.63 32.4315 Q1526.74 32.4315 1523.06 33.3632 Q1519.37 34.295 1515.97 36.1584 L1515.97 29.2718 Q1520.06 27.692 1523.91 26.9223 Q1527.76 26.1121 1531.4 26.1121 Q1541.25 26.1121 1546.11 31.2163 Q1550.97 36.3204 1550.97 46.6907 Z" fill="#000000" fill-rule="evenodd" fill-opacity="1" /><path clip-path="url(#clip710)" d="M1566.32 27.2059 L1573.77 27.2059 L1573.77 72.576 L1566.32 72.576 L1566.32 27.2059 M1566.32 9.54393 L1573.77 9.54393 L1573.77 18.9825 L1566.32 18.9825 L1566.32 9.54393 Z" fill="#000000" fill-rule="evenodd" fill-opacity="1" /><path clip-path="url(#clip710)" d="M1589.37 9.54393 L1596.82 9.54393 L1596.82 72.576 L1589.37 72.576 L1589.37 9.54393 Z" fill="#000000" fill-rule="evenodd" fill-opacity="1" /><path clip-path="url(#clip710)" d="M1633.04 49.7694 Q1624.01 49.7694 1620.52 51.8354 Q1617.04 53.9013 1617.04 58.8839 Q1617.04 62.8538 1619.63 65.2034 Q1622.26 67.5124 1626.76 67.5124 Q1632.96 67.5124 1636.69 63.1374 Q1640.45 58.7219 1640.45 51.4303 L1640.45 49.7694 L1633.04 49.7694 M1647.91 46.6907 L1647.91 72.576 L1640.45 72.576 L1640.45 65.6895 Q1637.9 69.8214 1634.09 71.8063 Q1630.28 73.7508 1624.78 73.7508 Q1617.81 73.7508 1613.68 69.8619 Q1609.58 65.9325 1609.58 59.3701 Q1609.58 51.7138 1614.69 47.825 Q1619.83 43.9361 1630 43.9361 L1640.45 43.9361 L1640.45 43.2069 Q1640.45 38.0623 1637.05 35.2672 Q1633.69 32.4315 1627.57 32.4315 Q1623.68 32.4315 1620 33.3632 Q1616.31 34.295 1612.91 36.1584 L1612.91 29.2718 Q1617 27.692 1620.85 26.9223 Q1624.69 26.1121 1628.34 26.1121 Q1638.18 26.1121 1643.05 31.2163 Q1647.91 36.3204 1647.91 46.6907 Z" fill="#000000" fill-rule="evenodd" fill-opacity="1" /><path clip-path="url(#clip710)" d="M1695.83 49.9314 Q1695.83 41.7081 1692.43 37.0496 Q1689.06 32.3505 1683.15 32.3505 Q1677.23 32.3505 1673.83 37.0496 Q1670.47 41.7081 1670.47 49.9314 Q1670.47 58.1548 1673.83 62.8538 Q1677.23 67.5124 1683.15 67.5124 Q1689.06 67.5124 1692.43 62.8538 Q1695.83 58.1548 1695.83 49.9314 M1670.47 34.0924 Q1672.82 30.0415 1676.38 28.0971 Q1679.99 26.1121 1684.97 26.1121 Q1693.24 26.1121 1698.38 32.6746 Q1703.57 39.2371 1703.57 49.9314 Q1703.57 60.6258 1698.38 67.1883 Q1693.24 73.7508 1684.97 73.7508 Q1679.99 73.7508 1676.38 71.8063 Q1672.82 69.8214 1670.47 65.7705 L1670.47 72.576 L1662.98 72.576 L1662.98 9.54393 L1670.47 9.54393 L1670.47 34.0924 Z" fill="#000000" fill-rule="evenodd" fill-opacity="1" /><path clip-path="url(#clip710)" d="M1715.92 9.54393 L1723.37 9.54393 L1723.37 72.576 L1715.92 72.576 L1715.92 9.54393 Z" fill="#000000" fill-rule="evenodd" fill-opacity="1" /><path clip-path="url(#clip710)" d="M1777.78 48.0275 L1777.78 51.6733 L1743.51 51.6733 Q1743.99 59.3701 1748.13 63.421 Q1752.3 67.4314 1759.71 67.4314 Q1764.01 67.4314 1768.02 66.3781 Q1772.07 65.3249 1776.04 63.2184 L1776.04 70.267 Q1772.03 71.9684 1767.81 72.8596 Q1763.6 73.7508 1759.27 73.7508 Q1748.41 73.7508 1742.05 67.4314 Q1735.73 61.1119 1735.73 50.3365 Q1735.73 39.1965 1741.73 32.6746 Q1747.76 26.1121 1757.97 26.1121 Q1767.12 26.1121 1772.43 32.0264 Q1777.78 37.9003 1777.78 48.0275 M1770.32 45.84 Q1770.24 39.7232 1766.88 36.0774 Q1763.56 32.4315 1758.05 32.4315 Q1751.81 32.4315 1748.04 35.9558 Q1744.32 39.4801 1743.75 45.8805 L1770.32 45.84 Z" fill="#000000" fill-rule="evenodd" fill-opacity="1" /><polyline clip-path="url(#clip712)" style="stroke:#009af9; stroke-linecap:butt; stroke-linejoin:round; stroke-width:12; stroke-opacity:1; fill:none" points="
  309.067,640.693 413.497,160.256 622.356,398.237 1040.07,895.429 1457.79,1267.02 1875.51,1272.51 2293.23,1386.4 
  "/>
<polyline clip-path="url(#clip712)" style="stroke:#e26f46; stroke-linecap:butt; stroke-linejoin:round; stroke-width:12; stroke-opacity:1; fill:none" points="
  309.067,928.287 413.497,1014.96 622.356,830.51 1040.07,930.199 1457.79,1367.77 1875.51,1299.31 2293.23,828.511 
  "/>
<path clip-path="url(#clip710)" d="
M1883.52 322.316 L2282.65 322.316 L2282.65 166.796 L1883.52 166.796  Z
  " fill="#ffffff" fill-rule="evenodd" fill-opacity="1"/>
<polyline clip-path="url(#clip710)" style="stroke:#000000; stroke-linecap:butt; stroke-linejoin:round; stroke-width:4; stroke-opacity:1; fill:none" points="
  1883.52,322.316 2282.65,322.316 2282.65,166.796 1883.52,166.796 1883.52,322.316 
  "/>
<polyline clip-path="url(#clip710)" style="stroke:#009af9; stroke-linecap:butt; stroke-linejoin:round; stroke-width:4; stroke-opacity:1; fill:none" points="
  1906.89,218.636 2047.1,218.636 
  "/>
<path clip-path="url(#clip710)" d="M2070.47 199.897 L2074.75 199.897 L2074.75 221.17 L2087.46 209.99 L2092.9 209.99 L2079.15 222.119 L2093.48 235.916 L2087.93 235.916 L2074.75 223.254 L2074.75 235.916 L2070.47 235.916 L2070.47 199.897 Z" fill="#000000" fill-rule="evenodd" fill-opacity="1" /><path clip-path="url(#clip710)" d="M2098.64 214.388 L2128.32 214.388 L2128.32 218.277 L2098.64 218.277 L2098.64 214.388 M2098.64 223.832 L2128.32 223.832 L2128.32 227.768 L2098.64 227.768 L2098.64 223.832 Z" fill="#000000" fill-rule="evenodd" fill-opacity="1" /><path clip-path="url(#clip710)" d="M2148.41 204.434 Q2144.8 204.434 2142.97 207.999 Q2141.17 211.541 2141.17 218.67 Q2141.17 225.777 2142.97 229.342 Q2144.8 232.883 2148.41 232.883 Q2152.05 232.883 2153.85 229.342 Q2155.68 225.777 2155.68 218.67 Q2155.68 211.541 2153.85 207.999 Q2152.05 204.434 2148.41 204.434 M2148.41 200.731 Q2154.22 200.731 2157.28 205.337 Q2160.36 209.92 2160.36 218.67 Q2160.36 227.397 2157.28 232.004 Q2154.22 236.587 2148.41 236.587 Q2142.6 236.587 2139.52 232.004 Q2136.47 227.397 2136.47 218.67 Q2136.47 209.92 2139.52 205.337 Q2142.6 200.731 2148.41 200.731 Z" fill="#000000" fill-rule="evenodd" fill-opacity="1" /><path clip-path="url(#clip710)" d="M2168.57 230.036 L2173.46 230.036 L2173.46 235.916 L2168.57 235.916 L2168.57 230.036 Z" fill="#000000" fill-rule="evenodd" fill-opacity="1" /><path clip-path="url(#clip710)" d="M2194.22 216.772 Q2191.07 216.772 2189.22 218.925 Q2187.39 221.078 2187.39 224.828 Q2187.39 228.555 2189.22 230.731 Q2191.07 232.883 2194.22 232.883 Q2197.37 232.883 2199.2 230.731 Q2201.05 228.555 2201.05 224.828 Q2201.05 221.078 2199.2 218.925 Q2197.37 216.772 2194.22 216.772 M2203.5 202.12 L2203.5 206.379 Q2201.74 205.546 2199.94 205.106 Q2198.16 204.666 2196.4 204.666 Q2191.77 204.666 2189.31 207.791 Q2186.88 210.916 2186.54 217.235 Q2187.9 215.221 2189.96 214.157 Q2192.02 213.069 2194.5 213.069 Q2199.71 213.069 2202.72 216.24 Q2205.75 219.388 2205.75 224.828 Q2205.75 230.152 2202.6 233.369 Q2199.45 236.587 2194.22 236.587 Q2188.23 236.587 2185.05 232.004 Q2181.88 227.397 2181.88 218.67 Q2181.88 210.476 2185.77 205.615 Q2189.66 200.731 2196.21 200.731 Q2197.97 200.731 2199.75 201.078 Q2201.56 201.425 2203.5 202.12 Z" fill="#000000" fill-rule="evenodd" fill-opacity="1" /><path clip-path="url(#clip710)" d="M2224.38 216.772 Q2221.23 216.772 2219.38 218.925 Q2217.55 221.078 2217.55 224.828 Q2217.55 228.555 2219.38 230.731 Q2221.23 232.883 2224.38 232.883 Q2227.53 232.883 2229.36 230.731 Q2231.21 228.555 2231.21 224.828 Q2231.21 221.078 2229.36 218.925 Q2227.53 216.772 2224.38 216.772 M2233.67 202.12 L2233.67 206.379 Q2231.91 205.546 2230.1 205.106 Q2228.32 204.666 2226.56 204.666 Q2221.93 204.666 2219.48 207.791 Q2217.05 210.916 2216.7 217.235 Q2218.06 215.221 2220.12 214.157 Q2222.18 213.069 2224.66 213.069 Q2229.87 213.069 2232.88 216.24 Q2235.91 219.388 2235.91 224.828 Q2235.91 230.152 2232.76 233.369 Q2229.61 236.587 2224.38 236.587 Q2218.39 236.587 2215.22 232.004 Q2212.05 227.397 2212.05 218.67 Q2212.05 210.476 2215.93 205.615 Q2219.82 200.731 2226.37 200.731 Q2228.13 200.731 2229.92 201.078 Q2231.72 201.425 2233.67 202.12 Z" fill="#000000" fill-rule="evenodd" fill-opacity="1" /><polyline clip-path="url(#clip710)" style="stroke:#e26f46; stroke-linecap:butt; stroke-linejoin:round; stroke-width:4; stroke-opacity:1; fill:none" points="
  1906.89,270.476 2047.1,270.476 
  "/>
<path clip-path="url(#clip710)" d="M2070.47 251.737 L2074.75 251.737 L2074.75 273.01 L2087.46 261.83 L2092.9 261.83 L2079.15 273.959 L2093.48 287.756 L2087.93 287.756 L2074.75 275.094 L2074.75 287.756 L2070.47 287.756 L2070.47 251.737 Z" fill="#000000" fill-rule="evenodd" fill-opacity="1" /><path clip-path="url(#clip710)" d="M2098.64 266.228 L2128.32 266.228 L2128.32 270.117 L2098.64 270.117 L2098.64 266.228 M2098.64 275.672 L2128.32 275.672 L2128.32 279.608 L2098.64 279.608 L2098.64 275.672 Z" fill="#000000" fill-rule="evenodd" fill-opacity="1" /><path clip-path="url(#clip710)" d="M2148.41 256.274 Q2144.8 256.274 2142.97 259.839 Q2141.17 263.381 2141.17 270.51 Q2141.17 277.617 2142.97 281.182 Q2144.8 284.723 2148.41 284.723 Q2152.05 284.723 2153.85 281.182 Q2155.68 277.617 2155.68 270.51 Q2155.68 263.381 2153.85 259.839 Q2152.05 256.274 2148.41 256.274 M2148.41 252.571 Q2154.22 252.571 2157.28 257.177 Q2160.36 261.76 2160.36 270.51 Q2160.36 279.237 2157.28 283.844 Q2154.22 288.427 2148.41 288.427 Q2142.6 288.427 2139.52 283.844 Q2136.47 279.237 2136.47 270.51 Q2136.47 261.76 2139.52 257.177 Q2142.6 252.571 2148.41 252.571 Z" fill="#000000" fill-rule="evenodd" fill-opacity="1" /><path clip-path="url(#clip710)" d="M2168.57 281.876 L2173.46 281.876 L2173.46 287.756 L2168.57 287.756 L2168.57 281.876 Z" fill="#000000" fill-rule="evenodd" fill-opacity="1" /><path clip-path="url(#clip710)" d="M2183.78 287.038 L2183.78 282.779 Q2185.54 283.612 2187.35 284.052 Q2189.15 284.492 2190.89 284.492 Q2195.52 284.492 2197.95 281.39 Q2200.4 278.265 2200.75 271.922 Q2199.41 273.913 2197.35 274.978 Q2195.29 276.043 2192.79 276.043 Q2187.6 276.043 2184.57 272.918 Q2181.56 269.77 2181.56 264.33 Q2181.56 259.006 2184.71 255.788 Q2187.86 252.571 2193.09 252.571 Q2199.08 252.571 2202.23 257.177 Q2205.4 261.76 2205.4 270.51 Q2205.4 278.682 2201.51 283.566 Q2197.65 288.427 2191.1 288.427 Q2189.34 288.427 2187.53 288.08 Q2185.73 287.733 2183.78 287.038 M2193.09 272.385 Q2196.23 272.385 2198.06 270.233 Q2199.92 268.08 2199.92 264.33 Q2199.92 260.603 2198.06 258.45 Q2196.23 256.274 2193.09 256.274 Q2189.94 256.274 2188.09 258.45 Q2186.26 260.603 2186.26 264.33 Q2186.26 268.08 2188.09 270.233 Q2189.94 272.385 2193.09 272.385 Z" fill="#000000" fill-rule="evenodd" fill-opacity="1" /><path clip-path="url(#clip710)" d="M2223.8 256.274 Q2220.19 256.274 2218.36 259.839 Q2216.56 263.381 2216.56 270.51 Q2216.56 277.617 2218.36 281.182 Q2220.19 284.723 2223.8 284.723 Q2227.44 284.723 2229.24 281.182 Q2231.07 277.617 2231.07 270.51 Q2231.07 263.381 2229.24 259.839 Q2227.44 256.274 2223.8 256.274 M2223.8 252.571 Q2229.61 252.571 2232.67 257.177 Q2235.75 261.76 2235.75 270.51 Q2235.75 279.237 2232.67 283.844 Q2229.61 288.427 2223.8 288.427 Q2217.99 288.427 2214.92 283.844 Q2211.86 279.237 2211.86 270.51 Q2211.86 261.76 2214.92 257.177 Q2217.99 252.571 2223.8 252.571 Z" fill="#000000" fill-rule="evenodd" fill-opacity="1" /></svg>
