<?xml version="1.0" encoding="utf-8"?>
<svg xmlns="http://www.w3.org/2000/svg" xmlns:xlink="http://www.w3.org/1999/xlink" width="600" height="400" viewBox="0 0 2400 1600">
<defs>
  <clipPath id="clip770">
    <rect x="0" y="0" width="2400" height="1600"/>
  </clipPath>
</defs>
<path clip-path="url(#clip770)" d="
M0 1600 L2400 1600 L2400 0 L0 0  Z
  " fill="#ffffff" fill-rule="evenodd" fill-opacity="1"/>
<defs>
  <clipPath id="clip771">
    <rect x="480" y="0" width="1681" height="1600"/>
  </clipPath>
</defs>
<path clip-path="url(#clip770)" d="
M219.866 1423.18 L2352.76 1423.18 L2352.76 123.472 L219.866 123.472  Z
  " fill="#ffffff" fill-rule="evenodd" fill-opacity="1"/>
<defs>
  <clipPath id="clip772">
    <rect x="219" y="123" width="2134" height="1301"/>
  </clipPath>
</defs>
<polyline clip-path="url(#clip772)" style="stroke:#000000; stroke-linecap:butt; stroke-linejoin:round; stroke-width:2; stroke-opacity:0.1; fill:none" points="
  228.637,1423.18 228.637,123.472 
  "/>
<polyline clip-path="url(#clip772)" style="stroke:#000000; stroke-linecap:butt; stroke-linejoin:round; stroke-width:2; stroke-opacity:0.1; fill:none" points="
  744.576,1423.18 744.576,123.472 
  "/>
<polyline clip-path="url(#clip772)" style="stroke:#000000; stroke-linecap:butt; stroke-linejoin:round; stroke-width:2; stroke-opacity:0.1; fill:none" points="
  1260.51,1423.18 1260.51,123.472 
  "/>
<polyline clip-path="url(#clip772)" style="stroke:#000000; stroke-linecap:butt; stroke-linejoin:round; stroke-width:2; stroke-opacity:0.1; fill:none" points="
  1776.45,1423.18 1776.45,123.472 
  "/>
<polyline clip-path="url(#clip772)" style="stroke:#000000; stroke-linecap:butt; stroke-linejoin:round; stroke-width:2; stroke-opacity:0.1; fill:none" points="
  2292.39,1423.18 2292.39,123.472 
  "/>
<polyline clip-path="url(#clip770)" style="stroke:#000000; stroke-linecap:butt; stroke-linejoin:round; stroke-width:4; stroke-opacity:1; fill:none" points="
  219.866,1423.18 2352.76,1423.18 
  "/>
<polyline clip-path="url(#clip770)" style="stroke:#000000; stroke-linecap:butt; stroke-linejoin:round; stroke-width:4; stroke-opacity:1; fill:none" points="
  228.637,1423.18 228.637,1404.28 
  "/>
<polyline clip-path="url(#clip770)" style="stroke:#000000; stroke-linecap:butt; stroke-linejoin:round; stroke-width:4; stroke-opacity:1; fill:none" points="
  744.576,1423.18 744.576,1404.28 
  "/>
<polyline clip-path="url(#clip770)" style="stroke:#000000; stroke-linecap:butt; stroke-linejoin:round; stroke-width:4; stroke-opacity:1; fill:none" points="
  1260.51,1423.18 1260.51,1404.28 
  "/>
<polyline clip-path="url(#clip770)" style="stroke:#000000; stroke-linecap:butt; stroke-linejoin:round; stroke-width:4; stroke-opacity:1; fill:none" points="
  1776.45,1423.18 1776.45,1404.28 
  "/>
<polyline clip-path="url(#clip770)" style="stroke:#000000; stroke-linecap:butt; stroke-linejoin:round; stroke-width:4; stroke-opacity:1; fill:none" points="
  2292.39,1423.18 2292.39,1404.28 
  "/>
<path clip-path="url(#clip770)" d="M228.637 1454.1 Q225.026 1454.1 223.197 1457.66 Q221.392 1461.2 221.392 1468.33 Q221.392 1475.44 223.197 1479.01 Q225.026 1482.55 228.637 1482.55 Q232.271 1482.55 234.077 1479.01 Q235.906 1475.44 235.906 1468.33 Q235.906 1461.2 234.077 1457.66 Q232.271 1454.1 228.637 1454.1 M228.637 1450.39 Q234.447 1450.39 237.503 1455 Q240.582 1459.58 240.582 1468.33 Q240.582 1477.06 237.503 1481.67 Q234.447 1486.25 228.637 1486.25 Q222.827 1486.25 219.748 1481.67 Q216.693 1477.06 216.693 1468.33 Q216.693 1459.58 219.748 1455 Q222.827 1450.39 228.637 1450.39 Z" fill="#000000" fill-rule="evenodd" fill-opacity="1" /><path clip-path="url(#clip770)" d="M704.194 1451.02 L722.55 1451.02 L722.55 1454.96 L708.476 1454.96 L708.476 1463.43 Q709.495 1463.08 710.513 1462.92 Q711.532 1462.73 712.55 1462.73 Q718.337 1462.73 721.717 1465.9 Q725.097 1469.08 725.097 1474.49 Q725.097 1480.07 721.624 1483.17 Q718.152 1486.25 711.833 1486.25 Q709.657 1486.25 707.388 1485.88 Q705.143 1485.51 702.736 1484.77 L702.736 1480.07 Q704.819 1481.2 707.041 1481.76 Q709.263 1482.32 711.74 1482.32 Q715.745 1482.32 718.083 1480.21 Q720.421 1478.1 720.421 1474.49 Q720.421 1470.88 718.083 1468.77 Q715.745 1466.67 711.74 1466.67 Q709.865 1466.67 707.99 1467.08 Q706.138 1467.5 704.194 1468.38 L704.194 1451.02 Z" fill="#000000" fill-rule="evenodd" fill-opacity="1" /><path clip-path="url(#clip770)" d="M744.309 1454.1 Q740.698 1454.1 738.87 1457.66 Q737.064 1461.2 737.064 1468.33 Q737.064 1475.44 738.87 1479.01 Q740.698 1482.55 744.309 1482.55 Q747.944 1482.55 749.749 1479.01 Q751.578 1475.44 751.578 1468.33 Q751.578 1461.2 749.749 1457.66 Q747.944 1454.1 744.309 1454.1 M744.309 1450.39 Q750.12 1450.39 753.175 1455 Q756.254 1459.58 756.254 1468.33 Q756.254 1477.06 753.175 1481.67 Q750.12 1486.25 744.309 1486.25 Q738.499 1486.25 735.421 1481.67 Q732.365 1477.06 732.365 1468.33 Q732.365 1459.58 735.421 1455 Q738.499 1450.39 744.309 1450.39 Z" fill="#000000" fill-rule="evenodd" fill-opacity="1" /><path clip-path="url(#clip770)" d="M774.471 1454.1 Q770.86 1454.1 769.032 1457.66 Q767.226 1461.2 767.226 1468.33 Q767.226 1475.44 769.032 1479.01 Q770.86 1482.55 774.471 1482.55 Q778.106 1482.55 779.911 1479.01 Q781.74 1475.44 781.74 1468.33 Q781.74 1461.2 779.911 1457.66 Q778.106 1454.1 774.471 1454.1 M774.471 1450.39 Q780.282 1450.39 783.337 1455 Q786.416 1459.58 786.416 1468.33 Q786.416 1477.06 783.337 1481.67 Q780.282 1486.25 774.471 1486.25 Q768.661 1486.25 765.583 1481.67 Q762.527 1477.06 762.527 1468.33 Q762.527 1459.58 765.583 1455 Q768.661 1450.39 774.471 1450.39 Z" fill="#000000" fill-rule="evenodd" fill-opacity="1" /><path clip-path="url(#clip770)" d="M1205.04 1481.64 L1212.68 1481.64 L1212.68 1455.28 L1204.37 1456.95 L1204.37 1452.69 L1212.63 1451.02 L1217.31 1451.02 L1217.31 1481.64 L1224.95 1481.64 L1224.95 1485.58 L1205.04 1485.58 L1205.04 1481.64 Z" fill="#000000" fill-rule="evenodd" fill-opacity="1" /><path clip-path="url(#clip770)" d="M1244.39 1454.1 Q1240.78 1454.1 1238.95 1457.66 Q1237.15 1461.2 1237.15 1468.33 Q1237.15 1475.44 1238.95 1479.01 Q1240.78 1482.55 1244.39 1482.55 Q1248.03 1482.55 1249.83 1479.01 Q1251.66 1475.44 1251.66 1468.33 Q1251.66 1461.2 1249.83 1457.66 Q1248.03 1454.1 1244.39 1454.1 M1244.39 1450.39 Q1250.2 1450.39 1253.26 1455 Q1256.34 1459.58 1256.34 1468.33 Q1256.34 1477.06 1253.26 1481.67 Q1250.2 1486.25 1244.39 1486.25 Q1238.58 1486.25 1235.5 1481.67 Q1232.45 1477.06 1232.45 1468.33 Q1232.45 1459.58 1235.5 1455 Q1238.58 1450.39 1244.39 1450.39 Z" fill="#000000" fill-rule="evenodd" fill-opacity="1" /><path clip-path="url(#clip770)" d="M1274.55 1454.1 Q1270.94 1454.1 1269.11 1457.66 Q1267.31 1461.2 1267.31 1468.33 Q1267.31 1475.44 1269.11 1479.01 Q1270.94 1482.55 1274.55 1482.55 Q1278.19 1482.55 1279.99 1479.01 Q1281.82 1475.44 1281.82 1468.33 Q1281.82 1461.2 1279.99 1457.66 Q1278.19 1454.1 1274.55 1454.1 M1274.55 1450.39 Q1280.36 1450.39 1283.42 1455 Q1286.5 1459.58 1286.5 1468.33 Q1286.5 1477.06 1283.42 1481.67 Q1280.36 1486.25 1274.55 1486.25 Q1268.74 1486.25 1265.66 1481.67 Q1262.61 1477.06 1262.61 1468.33 Q1262.61 1459.58 1265.66 1455 Q1268.74 1450.39 1274.55 1450.39 Z" fill="#000000" fill-rule="evenodd" fill-opacity="1" /><path clip-path="url(#clip770)" d="M1304.72 1454.1 Q1301.1 1454.1 1299.28 1457.66 Q1297.47 1461.2 1297.47 1468.33 Q1297.47 1475.44 1299.28 1479.01 Q1301.1 1482.55 1304.72 1482.55 Q1308.35 1482.55 1310.16 1479.01 Q1311.98 1475.44 1311.98 1468.33 Q1311.98 1461.2 1310.16 1457.66 Q1308.35 1454.1 1304.72 1454.1 M1304.72 1450.39 Q1310.53 1450.39 1313.58 1455 Q1316.66 1459.58 1316.66 1468.33 Q1316.66 1477.06 1313.58 1481.67 Q1310.53 1486.25 1304.72 1486.25 Q1298.91 1486.25 1295.83 1481.67 Q1292.77 1477.06 1292.77 1468.33 Q1292.77 1459.58 1295.83 1455 Q1298.91 1450.39 1304.72 1450.39 Z" fill="#000000" fill-rule="evenodd" fill-opacity="1" /><path clip-path="url(#clip770)" d="M1720.98 1481.64 L1728.62 1481.64 L1728.62 1455.28 L1720.31 1456.95 L1720.31 1452.69 L1728.57 1451.02 L1733.25 1451.02 L1733.25 1481.64 L1740.89 1481.64 L1740.89 1485.58 L1720.98 1485.58 L1720.98 1481.64 Z" fill="#000000" fill-rule="evenodd" fill-opacity="1" /><path clip-path="url(#clip770)" d="M1750.38 1451.02 L1768.73 1451.02 L1768.73 1454.96 L1754.66 1454.96 L1754.66 1463.43 Q1755.68 1463.08 1756.7 1462.92 Q1757.71 1462.73 1758.73 1462.73 Q1764.52 1462.73 1767.9 1465.9 Q1771.28 1469.08 1771.28 1474.49 Q1771.28 1480.07 1767.81 1483.17 Q1764.33 1486.25 1758.02 1486.25 Q1755.84 1486.25 1753.57 1485.88 Q1751.33 1485.51 1748.92 1484.77 L1748.92 1480.07 Q1751 1481.2 1753.22 1481.76 Q1755.45 1482.32 1757.92 1482.32 Q1761.93 1482.32 1764.27 1480.21 Q1766.6 1478.1 1766.6 1474.49 Q1766.6 1470.88 1764.27 1468.77 Q1761.93 1466.67 1757.92 1466.67 Q1756.05 1466.67 1754.17 1467.08 Q1752.32 1467.5 1750.38 1468.38 L1750.38 1451.02 Z" fill="#000000" fill-rule="evenodd" fill-opacity="1" /><path clip-path="url(#clip770)" d="M1790.49 1454.1 Q1786.88 1454.1 1785.05 1457.66 Q1783.25 1461.2 1783.25 1468.33 Q1783.25 1475.44 1785.05 1479.01 Q1786.88 1482.55 1790.49 1482.55 Q1794.13 1482.55 1795.93 1479.01 Q1797.76 1475.44 1797.76 1468.33 Q1797.76 1461.2 1795.93 1457.66 Q1794.13 1454.1 1790.49 1454.1 M1790.49 1450.39 Q1796.3 1450.39 1799.36 1455 Q1802.44 1459.58 1802.44 1468.33 Q1802.44 1477.06 1799.36 1481.67 Q1796.3 1486.25 1790.49 1486.25 Q1784.68 1486.25 1781.6 1481.67 Q1778.55 1477.06 1778.55 1468.33 Q1778.55 1459.58 1781.6 1455 Q1784.68 1450.39 1790.49 1450.39 Z" fill="#000000" fill-rule="evenodd" fill-opacity="1" /><path clip-path="url(#clip770)" d="M1820.65 1454.1 Q1817.04 1454.1 1815.21 1457.66 Q1813.41 1461.2 1813.41 1468.33 Q1813.41 1475.44 1815.21 1479.01 Q1817.04 1482.55 1820.65 1482.55 Q1824.29 1482.55 1826.09 1479.01 Q1827.92 1475.44 1827.92 1468.33 Q1827.92 1461.2 1826.09 1457.66 Q1824.29 1454.1 1820.65 1454.1 M1820.65 1450.39 Q1826.46 1450.39 1829.52 1455 Q1832.6 1459.58 1832.6 1468.33 Q1832.6 1477.06 1829.52 1481.67 Q1826.46 1486.25 1820.65 1486.25 Q1814.84 1486.25 1811.76 1481.67 Q1808.71 1477.06 1808.71 1468.33 Q1808.71 1459.58 1811.76 1455 Q1814.84 1450.39 1820.65 1450.39 Z" fill="#000000" fill-rule="evenodd" fill-opacity="1" /><path clip-path="url(#clip770)" d="M2241 1481.64 L2257.32 1481.64 L2257.32 1485.58 L2235.38 1485.58 L2235.38 1481.64 Q2238.04 1478.89 2242.62 1474.26 Q2247.23 1469.61 2248.41 1468.27 Q2250.66 1465.74 2251.53 1464.01 Q2252.44 1462.25 2252.44 1460.56 Q2252.44 1457.8 2250.49 1456.07 Q2248.57 1454.33 2245.47 1454.33 Q2243.27 1454.33 2240.82 1455.09 Q2238.39 1455.86 2235.61 1457.41 L2235.61 1452.69 Q2238.43 1451.55 2240.89 1450.97 Q2243.34 1450.39 2245.38 1450.39 Q2250.75 1450.39 2253.94 1453.08 Q2257.14 1455.77 2257.14 1460.26 Q2257.14 1462.39 2256.33 1464.31 Q2255.54 1466.2 2253.43 1468.8 Q2252.85 1469.47 2249.75 1472.69 Q2246.65 1475.88 2241 1481.64 Z" fill="#000000" fill-rule="evenodd" fill-opacity="1" /><path clip-path="url(#clip770)" d="M2277.14 1454.1 Q2273.53 1454.1 2271.7 1457.66 Q2269.89 1461.2 2269.89 1468.33 Q2269.89 1475.44 2271.7 1479.01 Q2273.53 1482.55 2277.14 1482.55 Q2280.77 1482.55 2282.58 1479.01 Q2284.41 1475.44 2284.41 1468.33 Q2284.41 1461.2 2282.58 1457.66 Q2280.77 1454.1 2277.14 1454.1 M2277.14 1450.39 Q2282.95 1450.39 2286 1455 Q2289.08 1459.58 2289.08 1468.33 Q2289.08 1477.06 2286 1481.67 Q2282.95 1486.25 2277.14 1486.25 Q2271.33 1486.25 2268.25 1481.67 Q2265.19 1477.06 2265.19 1468.33 Q2265.19 1459.58 2268.25 1455 Q2271.33 1450.39 2277.14 1450.39 Z" fill="#000000" fill-rule="evenodd" fill-opacity="1" /><path clip-path="url(#clip770)" d="M2307.3 1454.1 Q2303.69 1454.1 2301.86 1457.66 Q2300.05 1461.2 2300.05 1468.33 Q2300.05 1475.44 2301.86 1479.01 Q2303.69 1482.55 2307.3 1482.55 Q2310.93 1482.55 2312.74 1479.01 Q2314.57 1475.44 2314.57 1468.33 Q2314.57 1461.2 2312.74 1457.66 Q2310.93 1454.1 2307.3 1454.1 M2307.3 1450.39 Q2313.11 1450.39 2316.16 1455 Q2319.24 1459.58 2319.24 1468.33 Q2319.24 1477.06 2316.16 1481.67 Q2313.11 1486.25 2307.3 1486.25 Q2301.49 1486.25 2298.41 1481.67 Q2295.35 1477.06 2295.35 1468.33 Q2295.35 1459.58 2298.41 1455 Q2301.49 1450.39 2307.3 1450.39 Z" fill="#000000" fill-rule="evenodd" fill-opacity="1" /><path clip-path="url(#clip770)" d="M2337.46 1454.1 Q2333.85 1454.1 2332.02 1457.66 Q2330.21 1461.2 2330.21 1468.33 Q2330.21 1475.44 2332.02 1479.01 Q2333.85 1482.55 2337.46 1482.55 Q2341.09 1482.55 2342.9 1479.01 Q2344.73 1475.44 2344.73 1468.33 Q2344.73 1461.2 2342.9 1457.66 Q2341.09 1454.1 2337.46 1454.1 M2337.46 1450.39 Q2343.27 1450.39 2346.33 1455 Q2349.4 1459.58 2349.4 1468.33 Q2349.4 1477.06 2346.33 1481.67 Q2343.27 1486.25 2337.46 1486.25 Q2331.65 1486.25 2328.57 1481.67 Q2325.52 1477.06 2325.52 1468.33 Q2325.52 1459.58 2328.57 1455 Q2331.65 1450.39 2337.46 1450.39 Z" fill="#000000" fill-rule="evenodd" fill-opacity="1" /><path clip-path="url(#clip770)" d="M1301.24 1546.53 L1301.24 1568.04 L1295.38 1568.04 L1295.38 1546.72 Q1295.38 1541.66 1293.41 1539.14 Q1291.44 1536.63 1287.49 1536.63 Q1282.75 1536.63 1280.01 1539.65 Q1277.27 1542.68 1277.27 1547.9 L1277.27 1568.04 L1271.38 1568.04 L1271.38 1532.4 L1277.27 1532.4 L1277.27 1537.93 Q1279.37 1534.72 1282.21 1533.13 Q1285.07 1531.54 1288.79 1531.54 Q1294.94 1531.54 1298.09 1535.36 Q1301.24 1539.14 1301.24 1546.53 Z" fill="#000000" fill-rule="evenodd" fill-opacity="1" /><polyline clip-path="url(#clip772)" style="stroke:#000000; stroke-linecap:butt; stroke-linejoin:round; stroke-width:2; stroke-opacity:0.1; fill:none" points="
  219.866,1366.02 2352.76,1366.02 
  "/>
<polyline clip-path="url(#clip772)" style="stroke:#000000; stroke-linecap:butt; stroke-linejoin:round; stroke-width:2; stroke-opacity:0.1; fill:none" points="
  219.866,1171.58 2352.76,1171.58 
  "/>
<polyline clip-path="url(#clip772)" style="stroke:#000000; stroke-linecap:butt; stroke-linejoin:round; stroke-width:2; stroke-opacity:0.1; fill:none" points="
  219.866,977.152 2352.76,977.152 
  "/>
<polyline clip-path="url(#clip772)" style="stroke:#000000; stroke-linecap:butt; stroke-linejoin:round; stroke-width:2; stroke-opacity:0.1; fill:none" points="
  219.866,782.718 2352.76,782.718 
  "/>
<polyline clip-path="url(#clip772)" style="stroke:#000000; stroke-linecap:butt; stroke-linejoin:round; stroke-width:2; stroke-opacity:0.1; fill:none" points="
  219.866,588.285 2352.76,588.285 
  "/>
<polyline clip-path="url(#clip772)" style="stroke:#000000; stroke-linecap:butt; stroke-linejoin:round; stroke-width:2; stroke-opacity:0.1; fill:none" points="
  219.866,393.851 2352.76,393.851 
  "/>
<polyline clip-path="url(#clip772)" style="stroke:#000000; stroke-linecap:butt; stroke-linejoin:round; stroke-width:2; stroke-opacity:0.1; fill:none" points="
  219.866,199.418 2352.76,199.418 
  "/>
<polyline clip-path="url(#clip770)" style="stroke:#000000; stroke-linecap:butt; stroke-linejoin:round; stroke-width:4; stroke-opacity:1; fill:none" points="
  219.866,1423.18 219.866,123.472 
  "/>
<polyline clip-path="url(#clip770)" style="stroke:#000000; stroke-linecap:butt; stroke-linejoin:round; stroke-width:4; stroke-opacity:1; fill:none" points="
  219.866,1366.02 238.764,1366.02 
  "/>
<polyline clip-path="url(#clip770)" style="stroke:#000000; stroke-linecap:butt; stroke-linejoin:round; stroke-width:4; stroke-opacity:1; fill:none" points="
  219.866,1171.58 238.764,1171.58 
  "/>
<polyline clip-path="url(#clip770)" style="stroke:#000000; stroke-linecap:butt; stroke-linejoin:round; stroke-width:4; stroke-opacity:1; fill:none" points="
  219.866,977.152 238.764,977.152 
  "/>
<polyline clip-path="url(#clip770)" style="stroke:#000000; stroke-linecap:butt; stroke-linejoin:round; stroke-width:4; stroke-opacity:1; fill:none" points="
  219.866,782.718 238.764,782.718 
  "/>
<polyline clip-path="url(#clip770)" style="stroke:#000000; stroke-linecap:butt; stroke-linejoin:round; stroke-width:4; stroke-opacity:1; fill:none" points="
  219.866,588.285 238.764,588.285 
  "/>
<polyline clip-path="url(#clip770)" style="stroke:#000000; stroke-linecap:butt; stroke-linejoin:round; stroke-width:4; stroke-opacity:1; fill:none" points="
  219.866,393.851 238.764,393.851 
  "/>
<polyline clip-path="url(#clip770)" style="stroke:#000000; stroke-linecap:butt; stroke-linejoin:round; stroke-width:4; stroke-opacity:1; fill:none" points="
  219.866,199.418 238.764,199.418 
  "/>
<path clip-path="url(#clip770)" d="M126.205 1351.82 Q122.593 1351.82 120.765 1355.38 Q118.959 1358.92 118.959 1366.05 Q118.959 1373.16 120.765 1376.72 Q122.593 1380.27 126.205 1380.27 Q129.839 1380.27 131.644 1376.72 Q133.473 1373.16 133.473 1366.05 Q133.473 1358.92 131.644 1355.38 Q129.839 1351.82 126.205 1351.82 M126.205 1348.11 Q132.015 1348.11 135.07 1352.72 Q138.149 1357.3 138.149 1366.05 Q138.149 1374.78 135.07 1379.39 Q132.015 1383.97 126.205 1383.97 Q120.394 1383.97 117.316 1379.39 Q114.26 1374.78 114.26 1366.05 Q114.26 1357.3 117.316 1352.72 Q120.394 1348.11 126.205 1348.11 Z" fill="#000000" fill-rule="evenodd" fill-opacity="1" /><path clip-path="url(#clip770)" d="M146.366 1377.42 L151.251 1377.42 L151.251 1383.3 L146.366 1383.3 L146.366 1377.42 Z" fill="#000000" fill-rule="evenodd" fill-opacity="1" /><path clip-path="url(#clip770)" d="M174.283 1352.81 L162.477 1371.26 L174.283 1371.26 L174.283 1352.81 M173.056 1348.74 L178.936 1348.74 L178.936 1371.26 L183.866 1371.26 L183.866 1375.15 L178.936 1375.15 L178.936 1383.3 L174.283 1383.3 L174.283 1375.15 L158.681 1375.15 L158.681 1370.64 L173.056 1348.74 Z" fill="#000000" fill-rule="evenodd" fill-opacity="1" /><path clip-path="url(#clip770)" d="M127.686 1157.38 Q124.075 1157.38 122.246 1160.95 Q120.441 1164.49 120.441 1171.62 Q120.441 1178.73 122.246 1182.29 Q124.075 1185.83 127.686 1185.83 Q131.32 1185.83 133.126 1182.29 Q134.954 1178.73 134.954 1171.62 Q134.954 1164.49 133.126 1160.95 Q131.32 1157.38 127.686 1157.38 M127.686 1153.68 Q133.496 1153.68 136.552 1158.29 Q139.63 1162.87 139.63 1171.62 Q139.63 1180.35 136.552 1184.95 Q133.496 1189.54 127.686 1189.54 Q121.876 1189.54 118.797 1184.95 Q115.742 1180.35 115.742 1171.62 Q115.742 1162.87 118.797 1158.29 Q121.876 1153.68 127.686 1153.68 Z" fill="#000000" fill-rule="evenodd" fill-opacity="1" /><path clip-path="url(#clip770)" d="M147.848 1182.99 L152.732 1182.99 L152.732 1188.86 L147.848 1188.86 L147.848 1182.99 Z" fill="#000000" fill-rule="evenodd" fill-opacity="1" /><path clip-path="url(#clip770)" d="M162.964 1154.3 L181.32 1154.3 L181.32 1158.24 L167.246 1158.24 L167.246 1166.71 Q168.264 1166.37 169.283 1166.2 Q170.302 1166.02 171.32 1166.02 Q177.107 1166.02 180.487 1169.19 Q183.866 1172.36 183.866 1177.78 Q183.866 1183.36 180.394 1186.46 Q176.922 1189.54 170.602 1189.54 Q168.427 1189.54 166.158 1189.17 Q163.913 1188.8 161.505 1188.05 L161.505 1183.36 Q163.589 1184.49 165.811 1185.05 Q168.033 1185.6 170.51 1185.6 Q174.514 1185.6 176.852 1183.49 Q179.19 1181.39 179.19 1177.78 Q179.19 1174.17 176.852 1172.06 Q174.514 1169.95 170.51 1169.95 Q168.635 1169.95 166.76 1170.37 Q164.908 1170.79 162.964 1171.67 L162.964 1154.3 Z" fill="#000000" fill-rule="evenodd" fill-opacity="1" /><path clip-path="url(#clip770)" d="M126.529 962.95 Q122.918 962.95 121.089 966.515 Q119.283 970.057 119.283 977.186 Q119.283 984.293 121.089 987.858 Q122.918 991.399 126.529 991.399 Q130.163 991.399 131.968 987.858 Q133.797 984.293 133.797 977.186 Q133.797 970.057 131.968 966.515 Q130.163 962.95 126.529 962.95 M126.529 959.247 Q132.339 959.247 135.394 963.853 Q138.473 968.436 138.473 977.186 Q138.473 985.913 135.394 990.52 Q132.339 995.103 126.529 995.103 Q120.718 995.103 117.64 990.52 Q114.584 985.913 114.584 977.186 Q114.584 968.436 117.64 963.853 Q120.718 959.247 126.529 959.247 Z" fill="#000000" fill-rule="evenodd" fill-opacity="1" /><path clip-path="url(#clip770)" d="M146.691 988.552 L151.575 988.552 L151.575 994.432 L146.691 994.432 L146.691 988.552 Z" fill="#000000" fill-rule="evenodd" fill-opacity="1" /><path clip-path="url(#clip770)" d="M172.339 975.288 Q169.19 975.288 167.339 977.441 Q165.51 979.594 165.51 983.344 Q165.51 987.071 167.339 989.246 Q169.19 991.399 172.339 991.399 Q175.487 991.399 177.315 989.246 Q179.167 987.071 179.167 983.344 Q179.167 979.594 177.315 977.441 Q175.487 975.288 172.339 975.288 M181.621 960.635 L181.621 964.895 Q179.862 964.061 178.056 963.622 Q176.274 963.182 174.514 963.182 Q169.885 963.182 167.431 966.307 Q165.001 969.432 164.653 975.751 Q166.019 973.737 168.079 972.672 Q170.139 971.584 172.616 971.584 Q177.825 971.584 180.834 974.756 Q183.866 977.904 183.866 983.344 Q183.866 988.668 180.718 991.885 Q177.57 995.103 172.339 995.103 Q166.343 995.103 163.172 990.52 Q160.001 985.913 160.001 977.186 Q160.001 968.992 163.89 964.131 Q167.778 959.247 174.329 959.247 Q176.089 959.247 177.871 959.594 Q179.676 959.941 181.621 960.635 Z" fill="#000000" fill-rule="evenodd" fill-opacity="1" /><path clip-path="url(#clip770)" d="M127.593 768.517 Q123.982 768.517 122.154 772.082 Q120.348 775.623 120.348 782.753 Q120.348 789.859 122.154 793.424 Q123.982 796.966 127.593 796.966 Q131.228 796.966 133.033 793.424 Q134.862 789.859 134.862 782.753 Q134.862 775.623 133.033 772.082 Q131.228 768.517 127.593 768.517 M127.593 764.813 Q133.404 764.813 136.459 769.42 Q139.538 774.003 139.538 782.753 Q139.538 791.48 136.459 796.086 Q133.404 800.669 127.593 800.669 Q121.783 800.669 118.705 796.086 Q115.649 791.48 115.649 782.753 Q115.649 774.003 118.705 769.42 Q121.783 764.813 127.593 764.813 Z" fill="#000000" fill-rule="evenodd" fill-opacity="1" /><path clip-path="url(#clip770)" d="M147.755 794.119 L152.64 794.119 L152.64 799.998 L147.755 799.998 L147.755 794.119 Z" fill="#000000" fill-rule="evenodd" fill-opacity="1" /><path clip-path="url(#clip770)" d="M161.644 765.438 L183.866 765.438 L183.866 767.429 L171.32 799.998 L166.436 799.998 L178.241 769.373 L161.644 769.373 L161.644 765.438 Z" fill="#000000" fill-rule="evenodd" fill-opacity="1" /><path clip-path="url(#clip770)" d="M126.783 574.083 Q123.172 574.083 121.343 577.648 Q119.538 581.19 119.538 588.32 Q119.538 595.426 121.343 598.991 Q123.172 602.532 126.783 602.532 Q130.417 602.532 132.223 598.991 Q134.052 595.426 134.052 588.32 Q134.052 581.19 132.223 577.648 Q130.417 574.083 126.783 574.083 M126.783 570.38 Q132.593 570.38 135.649 574.986 Q138.728 579.57 138.728 588.32 Q138.728 597.046 135.649 601.653 Q132.593 606.236 126.783 606.236 Q120.973 606.236 117.894 601.653 Q114.839 597.046 114.839 588.32 Q114.839 579.57 117.894 574.986 Q120.973 570.38 126.783 570.38 Z" fill="#000000" fill-rule="evenodd" fill-opacity="1" /><path clip-path="url(#clip770)" d="M146.945 599.685 L151.829 599.685 L151.829 605.565 L146.945 605.565 L146.945 599.685 Z" fill="#000000" fill-rule="evenodd" fill-opacity="1" /><path clip-path="url(#clip770)" d="M172.014 589.153 Q168.681 589.153 166.76 590.935 Q164.862 592.718 164.862 595.843 Q164.862 598.968 166.76 600.75 Q168.681 602.532 172.014 602.532 Q175.348 602.532 177.269 600.75 Q179.19 598.944 179.19 595.843 Q179.19 592.718 177.269 590.935 Q175.371 589.153 172.014 589.153 M167.339 587.162 Q164.329 586.421 162.64 584.361 Q160.973 582.301 160.973 579.338 Q160.973 575.195 163.913 572.787 Q166.876 570.38 172.014 570.38 Q177.176 570.38 180.116 572.787 Q183.056 575.195 183.056 579.338 Q183.056 582.301 181.366 584.361 Q179.7 586.421 176.714 587.162 Q180.093 587.949 181.968 590.241 Q183.866 592.532 183.866 595.843 Q183.866 600.866 180.788 603.551 Q177.732 606.236 172.014 606.236 Q166.297 606.236 163.218 603.551 Q160.163 600.866 160.163 595.843 Q160.163 592.532 162.061 590.241 Q163.959 587.949 167.339 587.162 M165.626 579.778 Q165.626 582.463 167.292 583.968 Q168.982 585.472 172.014 585.472 Q175.024 585.472 176.714 583.968 Q178.426 582.463 178.426 579.778 Q178.426 577.093 176.714 575.588 Q175.024 574.083 172.014 574.083 Q168.982 574.083 167.292 575.588 Q165.626 577.093 165.626 579.778 Z" fill="#000000" fill-rule="evenodd" fill-opacity="1" /><path clip-path="url(#clip770)" d="M126.876 379.65 Q123.265 379.65 121.436 383.215 Q119.63 386.757 119.63 393.886 Q119.63 400.993 121.436 404.557 Q123.265 408.099 126.876 408.099 Q130.51 408.099 132.316 404.557 Q134.144 400.993 134.144 393.886 Q134.144 386.757 132.316 383.215 Q130.51 379.65 126.876 379.65 M126.876 375.946 Q132.686 375.946 135.742 380.553 Q138.82 385.136 138.82 393.886 Q138.82 402.613 135.742 407.219 Q132.686 411.803 126.876 411.803 Q121.066 411.803 117.987 407.219 Q114.931 402.613 114.931 393.886 Q114.931 385.136 117.987 380.553 Q121.066 375.946 126.876 375.946 Z" fill="#000000" fill-rule="evenodd" fill-opacity="1" /><path clip-path="url(#clip770)" d="M147.038 405.252 L151.922 405.252 L151.922 411.131 L147.038 411.131 L147.038 405.252 Z" fill="#000000" fill-rule="evenodd" fill-opacity="1" /><path clip-path="url(#clip770)" d="M162.246 410.414 L162.246 406.155 Q164.005 406.988 165.811 407.428 Q167.616 407.868 169.352 407.868 Q173.982 407.868 176.413 404.766 Q178.866 401.641 179.214 395.298 Q177.871 397.289 175.811 398.354 Q173.751 399.419 171.251 399.419 Q166.065 399.419 163.033 396.294 Q160.024 393.145 160.024 387.706 Q160.024 382.382 163.172 379.164 Q166.32 375.946 171.552 375.946 Q177.547 375.946 180.695 380.553 Q183.866 385.136 183.866 393.886 Q183.866 402.057 179.977 406.942 Q176.112 411.803 169.561 411.803 Q167.802 411.803 165.996 411.456 Q164.19 411.108 162.246 410.414 M171.552 395.761 Q174.7 395.761 176.528 393.608 Q178.38 391.456 178.38 387.706 Q178.38 383.979 176.528 381.826 Q174.7 379.65 171.552 379.65 Q168.403 379.65 166.552 381.826 Q164.723 383.979 164.723 387.706 Q164.723 391.456 166.552 393.608 Q168.403 395.761 171.552 395.761 Z" fill="#000000" fill-rule="evenodd" fill-opacity="1" /><path clip-path="url(#clip770)" d="M117.501 212.763 L125.14 212.763 L125.14 186.397 L116.83 188.064 L116.83 183.805 L125.093 182.138 L129.769 182.138 L129.769 212.763 L137.408 212.763 L137.408 216.698 L117.501 216.698 L117.501 212.763 Z" fill="#000000" fill-rule="evenodd" fill-opacity="1" /><path clip-path="url(#clip770)" d="M146.853 210.818 L151.737 210.818 L151.737 216.698 L146.853 216.698 L146.853 210.818 Z" fill="#000000" fill-rule="evenodd" fill-opacity="1" /><path clip-path="url(#clip770)" d="M171.922 185.217 Q168.311 185.217 166.482 188.782 Q164.677 192.323 164.677 199.453 Q164.677 206.559 166.482 210.124 Q168.311 213.666 171.922 213.666 Q175.556 213.666 177.362 210.124 Q179.19 206.559 179.19 199.453 Q179.19 192.323 177.362 188.782 Q175.556 185.217 171.922 185.217 M171.922 181.513 Q177.732 181.513 180.788 186.12 Q183.866 190.703 183.866 199.453 Q183.866 208.18 180.788 212.786 Q177.732 217.369 171.922 217.369 Q166.112 217.369 163.033 212.786 Q159.978 208.18 159.978 199.453 Q159.978 190.703 163.033 186.12 Q166.112 181.513 171.922 181.513 Z" fill="#000000" fill-rule="evenodd" fill-opacity="1" /><path clip-path="url(#clip770)" d="M41.3104 1089.3 L58.7206 1089.3 L58.7206 1078.99 Q58.7206 1073.8 56.5881 1071.32 Q54.4238 1068.81 49.9996 1068.81 Q45.5436 1068.81 43.4429 1071.32 Q41.3104 1073.8 41.3104 1078.99 L41.3104 1089.3 M21.7677 1089.3 L36.0905 1089.3 L36.0905 1079.79 Q36.0905 1075.08 34.34 1072.78 Q32.5576 1070.46 28.9291 1070.46 Q25.3325 1070.46 23.5501 1072.78 Q21.7677 1075.08 21.7677 1079.79 L21.7677 1089.3 M16.4842 1095.73 L16.4842 1079.31 Q16.4842 1071.96 19.5397 1067.98 Q22.5952 1064 28.2289 1064 Q32.5894 1064 35.1675 1066.04 Q37.7456 1068.07 38.3822 1072.02 Q39.4007 1067.28 42.6472 1064.67 Q45.8619 1062.03 50.6998 1062.03 Q57.0655 1062.03 60.5348 1066.36 Q64.0042 1070.68 64.0042 1078.67 L64.0042 1095.73 L16.4842 1095.73 Z" fill="#000000" fill-rule="evenodd" fill-opacity="1" /><path clip-path="url(#clip770)" d="M32.4621 1037.46 Q32.4621 1042.17 36.1542 1044.9 Q39.8145 1047.64 46.212 1047.64 Q52.6095 1047.64 56.3017 1044.93 Q59.9619 1042.2 59.9619 1037.46 Q59.9619 1032.78 56.2698 1030.04 Q52.5777 1027.3 46.212 1027.3 Q39.8781 1027.3 36.186 1030.04 Q32.4621 1032.78 32.4621 1037.46 M27.4968 1037.46 Q27.4968 1029.82 32.4621 1025.46 Q37.4273 1021.1 46.212 1021.1 Q54.9649 1021.1 59.9619 1025.46 Q64.9272 1029.82 64.9272 1037.46 Q64.9272 1045.13 59.9619 1049.49 Q54.9649 1053.81 46.212 1053.81 Q37.4273 1053.81 32.4621 1049.49 Q27.4968 1045.13 27.4968 1037.46 Z" fill="#000000" fill-rule="evenodd" fill-opacity="1" /><path clip-path="url(#clip770)" d="M18.2347 1005.59 L28.3562 1005.59 L28.3562 993.532 L32.9077 993.532 L32.9077 1005.59 L52.2594 1005.59 Q56.6199 1005.59 57.8613 1004.42 Q59.1026 1003.21 59.1026 999.547 L59.1026 993.532 L64.0042 993.532 L64.0042 999.547 Q64.0042 1006.33 61.4897 1008.9 Q58.9434 1011.48 52.2594 1011.48 L32.9077 1011.48 L32.9077 1015.78 L28.3562 1015.78 L28.3562 1011.48 L18.2347 1011.48 L18.2347 1005.59 Z" fill="#000000" fill-rule="evenodd" fill-opacity="1" /><path clip-path="url(#clip770)" d="M18.2347 980.036 L28.3562 980.036 L28.3562 967.973 L32.9077 967.973 L32.9077 980.036 L52.2594 980.036 Q56.6199 980.036 57.8613 978.859 Q59.1026 977.649 59.1026 973.989 L59.1026 967.973 L64.0042 967.973 L64.0042 973.989 Q64.0042 980.768 61.4897 983.347 Q58.9434 985.925 52.2594 985.925 L32.9077 985.925 L32.9077 990.222 L28.3562 990.222 L28.3562 985.925 L18.2347 985.925 L18.2347 980.036 Z" fill="#000000" fill-rule="evenodd" fill-opacity="1" /><path clip-path="url(#clip770)" d="M14.479 960.271 L14.479 954.414 L64.0042 954.414 L64.0042 960.271 L14.479 960.271 Z" fill="#000000" fill-rule="evenodd" fill-opacity="1" /><path clip-path="url(#clip770)" d="M44.7161 911.669 L47.5806 911.669 L47.5806 938.596 Q53.6281 938.214 56.8109 934.967 Q59.9619 931.689 59.9619 925.864 Q59.9619 922.49 59.1344 919.339 Q58.3069 916.157 56.6518 913.037 L62.1899 913.037 Q63.5267 916.188 64.227 919.499 Q64.9272 922.809 64.9272 926.214 Q64.9272 934.744 59.9619 939.741 Q54.9967 944.707 46.5303 944.707 Q37.7774 944.707 32.6531 939.996 Q27.4968 935.254 27.4968 927.233 Q27.4968 920.04 32.1438 915.87 Q36.7589 911.669 44.7161 911.669 M42.9973 917.525 Q38.1912 917.589 35.3266 920.231 Q32.4621 922.841 32.4621 927.169 Q32.4621 932.071 35.2312 935.031 Q38.0002 937.959 43.0292 938.405 L42.9973 917.525 Z" fill="#000000" fill-rule="evenodd" fill-opacity="1" /><path clip-path="url(#clip770)" d="M42.4881 872.424 L64.0042 872.424 L64.0042 878.281 L42.679 878.281 Q37.6183 878.281 35.1038 880.254 Q32.5894 882.227 32.5894 886.174 Q32.5894 890.916 35.6131 893.654 Q38.6368 896.391 43.8567 896.391 L64.0042 896.391 L64.0042 902.279 L28.3562 902.279 L28.3562 896.391 L33.8944 896.391 Q30.6797 894.29 29.0883 891.458 Q27.4968 888.593 27.4968 884.869 Q27.4968 878.726 31.3163 875.575 Q35.1038 872.424 42.4881 872.424 Z" fill="#000000" fill-rule="evenodd" fill-opacity="1" /><path clip-path="url(#clip770)" d="M44.7161 830.251 L47.5806 830.251 L47.5806 857.178 Q53.6281 856.796 56.8109 853.55 Q59.9619 850.271 59.9619 844.447 Q59.9619 841.073 59.1344 837.922 Q58.3069 834.739 56.6518 831.62 L62.1899 831.62 Q63.5267 834.771 64.227 838.081 Q64.9272 841.391 64.9272 844.797 Q64.9272 853.327 59.9619 858.324 Q54.9967 863.289 46.5303 863.289 Q37.7774 863.289 32.6531 858.579 Q27.4968 853.836 27.4968 845.815 Q27.4968 838.622 32.1438 834.453 Q36.7589 830.251 44.7161 830.251 M42.9973 836.108 Q38.1912 836.171 35.3266 838.813 Q32.4621 841.423 32.4621 845.752 Q32.4621 850.653 35.2312 853.613 Q38.0002 856.542 43.0292 856.987 L42.9973 836.108 Z" fill="#000000" fill-rule="evenodd" fill-opacity="1" /><path clip-path="url(#clip770)" d="M29.7248 794.985 L35.1993 794.985 Q33.8307 797.468 33.1623 799.982 Q32.4621 802.465 32.4621 805.011 Q32.4621 810.709 36.0905 813.86 Q39.6872 817.011 46.212 817.011 Q52.7369 817.011 56.3653 813.86 Q59.9619 810.709 59.9619 805.011 Q59.9619 802.465 59.2935 799.982 Q58.5933 797.468 57.2247 794.985 L62.6355 794.985 Q63.7814 797.436 64.3543 800.078 Q64.9272 802.688 64.9272 805.648 Q64.9272 813.7 59.8664 818.443 Q54.8057 823.185 46.212 823.185 Q37.491 823.185 32.4939 818.411 Q27.4968 813.605 27.4968 805.266 Q27.4968 802.56 28.0697 799.982 Q28.6108 797.404 29.7248 794.985 Z" fill="#000000" fill-rule="evenodd" fill-opacity="1" /><path clip-path="url(#clip770)" d="M14.479 785.023 L14.479 779.135 L43.7294 779.135 L28.3562 761.661 L28.3562 754.181 L45.0344 773.087 L64.0042 753.385 L64.0042 761.024 L46.5939 779.135 L64.0042 779.135 L64.0042 785.023 L14.479 785.023 Z" fill="#000000" fill-rule="evenodd" fill-opacity="1" /><path clip-path="url(#clip770)" d="M21.7677 719.647 L58.7206 719.647 L58.7206 711.881 Q58.7206 702.046 54.2646 697.495 Q49.8086 692.911 40.1964 692.911 Q30.6479 692.911 26.2237 697.495 Q21.7677 702.046 21.7677 711.881 L21.7677 719.647 M16.4842 726.077 L16.4842 712.868 Q16.4842 699.054 22.2451 692.593 Q27.9743 686.132 40.1964 686.132 Q52.4822 686.132 58.2432 692.625 Q64.0042 699.118 64.0042 712.868 L64.0042 726.077 L16.4842 726.077 Z" fill="#000000" fill-rule="evenodd" fill-opacity="1" /><path clip-path="url(#clip770)" d="M28.3562 676.138 L28.3562 670.281 L64.0042 670.281 L64.0042 676.138 L28.3562 676.138 M14.479 676.138 L14.479 670.281 L21.895 670.281 L21.895 676.138 L14.479 676.138 Z" fill="#000000" fill-rule="evenodd" fill-opacity="1" /><path clip-path="url(#clip770)" d="M29.4065 635.302 L34.9447 635.302 Q33.6716 637.784 33.035 640.458 Q32.3984 643.131 32.3984 645.996 Q32.3984 650.356 33.7352 652.553 Q35.072 654.717 37.7456 654.717 Q39.7826 654.717 40.9603 653.157 Q42.1061 651.598 43.1565 646.887 L43.6021 644.882 Q44.9389 638.644 47.3897 636.034 Q49.8086 633.392 54.1691 633.392 Q59.1344 633.392 62.0308 637.339 Q64.9272 641.253 64.9272 648.128 Q64.9272 650.993 64.3543 654.112 Q63.8132 657.2 62.6992 660.637 L56.6518 660.637 Q58.3387 657.391 59.198 654.24 Q60.0256 651.089 60.0256 648.001 Q60.0256 643.863 58.6251 641.635 Q57.1929 639.407 54.6147 639.407 Q52.2276 639.407 50.9545 641.031 Q49.6813 642.622 48.5037 648.065 L48.0262 650.102 Q46.8804 655.544 44.5251 657.963 Q42.138 660.382 38.0002 660.382 Q32.9713 660.382 30.2341 656.818 Q27.4968 653.253 27.4968 646.696 Q27.4968 643.45 27.9743 640.585 Q28.4517 637.721 29.4065 635.302 Z" fill="#000000" fill-rule="evenodd" fill-opacity="1" /><path clip-path="url(#clip770)" d="M18.2347 618.273 L28.3562 618.273 L28.3562 606.21 L32.9077 606.21 L32.9077 618.273 L52.2594 618.273 Q56.6199 618.273 57.8613 617.096 Q59.1026 615.886 59.1026 612.226 L59.1026 606.21 L64.0042 606.21 L64.0042 612.226 Q64.0042 619.005 61.4897 621.583 Q58.9434 624.162 52.2594 624.162 L32.9077 624.162 L32.9077 628.458 L28.3562 628.458 L28.3562 624.162 L18.2347 624.162 L18.2347 618.273 Z" fill="#000000" fill-rule="evenodd" fill-opacity="1" /><path clip-path="url(#clip770)" d="M46.0847 582.307 Q46.0847 589.405 47.7079 592.142 Q49.3312 594.879 53.2461 594.879 Q56.3653 594.879 58.2114 592.842 Q60.0256 590.773 60.0256 587.24 Q60.0256 582.371 56.5881 579.442 Q53.1188 576.482 47.3897 576.482 L46.0847 576.482 L46.0847 582.307 M43.6657 570.626 L64.0042 570.626 L64.0042 576.482 L58.5933 576.482 Q61.8398 578.488 63.3994 581.48 Q64.9272 584.471 64.9272 588.8 Q64.9272 594.275 61.8716 597.521 Q58.7843 600.736 53.6281 600.736 Q47.6125 600.736 44.5569 596.725 Q41.5014 592.683 41.5014 584.694 L41.5014 576.482 L40.9285 576.482 Q36.8862 576.482 34.6901 579.156 Q32.4621 581.798 32.4621 586.604 Q32.4621 589.659 33.1941 592.556 Q33.9262 595.452 35.3903 598.126 L29.9795 598.126 Q28.7381 594.911 28.1334 591.887 Q27.4968 588.864 27.4968 585.999 Q27.4968 578.265 31.5072 574.445 Q35.5176 570.626 43.6657 570.626 Z" fill="#000000" fill-rule="evenodd" fill-opacity="1" /><path clip-path="url(#clip770)" d="M42.4881 528.931 L64.0042 528.931 L64.0042 534.787 L42.679 534.787 Q37.6183 534.787 35.1038 536.76 Q32.5894 538.734 32.5894 542.681 Q32.5894 547.423 35.6131 550.16 Q38.6368 552.897 43.8567 552.897 L64.0042 552.897 L64.0042 558.786 L28.3562 558.786 L28.3562 552.897 L33.8944 552.897 Q30.6797 550.797 29.0883 547.964 Q27.4968 545.099 27.4968 541.376 Q27.4968 535.233 31.3163 532.082 Q35.1038 528.931 42.4881 528.931 Z" fill="#000000" fill-rule="evenodd" fill-opacity="1" /><path clip-path="url(#clip770)" d="M29.7248 491.596 L35.1993 491.596 Q33.8307 494.078 33.1623 496.593 Q32.4621 499.075 32.4621 501.622 Q32.4621 507.319 36.0905 510.47 Q39.6872 513.621 46.212 513.621 Q52.7369 513.621 56.3653 510.47 Q59.9619 507.319 59.9619 501.622 Q59.9619 499.075 59.2935 496.593 Q58.5933 494.078 57.2247 491.596 L62.6355 491.596 Q63.7814 494.047 64.3543 496.688 Q64.9272 499.298 64.9272 502.258 Q64.9272 510.311 59.8664 515.053 Q54.8057 519.796 46.212 519.796 Q37.491 519.796 32.4939 515.022 Q27.4968 510.215 27.4968 501.876 Q27.4968 499.171 28.0697 496.593 Q28.6108 494.015 29.7248 491.596 Z" fill="#000000" fill-rule="evenodd" fill-opacity="1" /><path clip-path="url(#clip770)" d="M44.7161 450.919 L47.5806 450.919 L47.5806 477.846 Q53.6281 477.464 56.8109 474.217 Q59.9619 470.939 59.9619 465.114 Q59.9619 461.741 59.1344 458.59 Q58.3069 455.407 56.6518 452.287 L62.1899 452.287 Q63.5267 455.439 64.227 458.749 Q64.9272 462.059 64.9272 465.464 Q64.9272 473.995 59.9619 478.992 Q54.9967 483.957 46.5303 483.957 Q37.7774 483.957 32.6531 479.246 Q27.4968 474.504 27.4968 466.483 Q27.4968 459.29 32.1438 455.12 Q36.7589 450.919 44.7161 450.919 M42.9973 456.775 Q38.1912 456.839 35.3266 459.481 Q32.4621 462.091 32.4621 466.419 Q32.4621 471.321 35.2312 474.281 Q38.0002 477.209 43.0292 477.655 L42.9973 456.775 Z" fill="#000000" fill-rule="evenodd" fill-opacity="1" /><path clip-path="url(#clip770)" d="M844.965 34.4165 Q843.466 33.8899 841.967 33.4848 Q837.957 32.4315 833.663 32.4315 Q826.25 32.4315 822.118 36.4419 Q818.27 40.1688 817.54 47.0148 L844.965 47.0148 L844.965 52.8481 L817.54 52.8481 Q818.27 59.6941 822.118 63.421 Q826.25 67.4314 833.663 67.4314 Q838.848 67.4314 841.967 66.3781 L844.965 65.3654 L844.965 72.1304 L841.765 72.8596 Q837.552 73.7508 833.217 73.7508 Q822.361 73.7508 816.042 67.4314 Q809.682 61.1119 809.682 49.9314 Q809.682 38.7509 816.042 32.4315 Q822.361 26.1121 833.217 26.1121 Q837.309 26.1121 841.765 27.0033 Q843.385 27.3274 844.965 27.8135 L844.965 34.4165 Z" fill="#000000" fill-rule="evenodd" fill-opacity="1" /><path clip-path="url(#clip770)" d="M928.049 45.1919 L928.049 72.576 L920.595 72.576 L920.595 45.4349 Q920.595 38.994 918.084 35.7938 Q915.572 32.5936 910.549 32.5936 Q904.513 32.5936 901.03 36.4419 Q897.546 40.2903 897.546 46.9338 L897.546 72.576 L890.052 72.576 L890.052 27.2059 L897.546 27.2059 L897.546 34.2544 Q900.219 30.163 903.825 28.1376 Q907.471 26.1121 912.21 26.1121 Q920.028 26.1121 924.039 30.9732 Q928.049 35.7938 928.049 45.1919 Z" fill="#000000" fill-rule="evenodd" fill-opacity="1" /><path clip-path="url(#clip770)" d="M960.497 32.4315 Q954.502 32.4315 951.018 37.1306 Q947.534 41.7891 947.534 49.9314 Q947.534 58.0738 950.977 62.7728 Q954.461 67.4314 960.497 67.4314 Q966.452 67.4314 969.935 62.7323 Q973.419 58.0333 973.419 49.9314 Q973.419 41.8701 969.935 37.1711 Q966.452 32.4315 960.497 32.4315 M960.497 26.1121 Q970.219 26.1121 975.769 32.4315 Q981.319 38.7509 981.319 49.9314 Q981.319 61.0714 975.769 67.4314 Q970.219 73.7508 960.497 73.7508 Q950.734 73.7508 945.184 67.4314 Q939.675 61.0714 939.675 49.9314 Q939.675 38.7509 945.184 32.4315 Q950.734 26.1121 960.497 26.1121 Z" fill="#000000" fill-rule="evenodd" fill-opacity="1" /><path clip-path="url(#clip770)" d="M1001.05 14.324 L1001.05 27.2059 L1016.4 27.2059 L1016.4 32.9987 L1001.05 32.9987 L1001.05 57.6282 Q1001.05 63.1779 1002.55 64.7578 Q1004.08 66.3376 1008.74 66.3376 L1016.4 66.3376 L1016.4 72.576 L1008.74 72.576 Q1000.11 72.576 996.833 69.3758 Q993.552 66.1351 993.552 57.6282 L993.552 32.9987 L988.084 32.9987 L988.084 27.2059 L993.552 27.2059 L993.552 14.324 L1001.05 14.324 Z" fill="#000000" fill-rule="evenodd" fill-opacity="1" /><path clip-path="url(#clip770)" d="M1059.78 65.7705 L1059.78 89.8329 L1052.29 89.8329 L1052.29 27.2059 L1059.78 27.2059 L1059.78 34.0924 Q1062.13 30.0415 1065.7 28.0971 Q1069.3 26.1121 1074.29 26.1121 Q1082.55 26.1121 1087.7 32.6746 Q1092.88 39.2371 1092.88 49.9314 Q1092.88 60.6258 1087.7 67.1883 Q1082.55 73.7508 1074.29 73.7508 Q1069.3 73.7508 1065.7 71.8063 Q1062.13 69.8214 1059.78 65.7705 M1085.14 49.9314 Q1085.14 41.7081 1081.74 37.0496 Q1078.38 32.3505 1072.46 32.3505 Q1066.55 32.3505 1063.15 37.0496 Q1059.78 41.7081 1059.78 49.9314 Q1059.78 58.1548 1063.15 62.8538 Q1066.55 67.5124 1072.46 67.5124 Q1078.38 67.5124 1081.74 62.8538 Q1085.14 58.1548 1085.14 49.9314 Z" fill="#000000" fill-rule="evenodd" fill-opacity="1" /><path clip-path="url(#clip770)" d="M1104.47 54.671 L1104.47 27.2059 L1111.92 27.2059 L1111.92 54.3874 Q1111.92 60.8284 1114.43 64.0691 Q1116.94 67.2693 1121.97 67.2693 Q1128 67.2693 1131.49 63.421 Q1135.01 59.5726 1135.01 52.9291 L1135.01 27.2059 L1142.46 27.2059 L1142.46 72.576 L1135.01 72.576 L1135.01 65.6084 Q1132.3 69.7404 1128.69 71.7658 Q1125.13 73.7508 1120.39 73.7508 Q1112.57 73.7508 1108.52 68.8897 Q1104.47 64.0286 1104.47 54.671 M1123.22 26.1121 L1123.22 26.1121 Z" fill="#000000" fill-rule="evenodd" fill-opacity="1" /><path clip-path="url(#clip770)" d="M1190.39 49.9314 Q1190.39 41.7081 1186.98 37.0496 Q1183.62 32.3505 1177.71 32.3505 Q1171.79 32.3505 1168.39 37.0496 Q1165.03 41.7081 1165.03 49.9314 Q1165.03 58.1548 1168.39 62.8538 Q1171.79 67.5124 1177.71 67.5124 Q1183.62 67.5124 1186.98 62.8538 Q1190.39 58.1548 1190.39 49.9314 M1165.03 34.0924 Q1167.38 30.0415 1170.94 28.0971 Q1174.55 26.1121 1179.53 26.1121 Q1187.79 26.1121 1192.94 32.6746 Q1198.12 39.2371 1198.12 49.9314 Q1198.12 60.6258 1192.94 67.1883 Q1187.79 73.7508 1179.53 73.7508 Q1174.55 73.7508 1170.94 71.8063 Q1167.38 69.8214 1165.03 65.7705 L1165.03 72.576 L1157.53 72.576 L1157.53 9.54393 L1165.03 9.54393 L1165.03 34.0924 Z" fill="#000000" fill-rule="evenodd" fill-opacity="1" /><path clip-path="url(#clip770)" d="M1210.48 9.54393 L1217.93 9.54393 L1217.93 72.576 L1210.48 72.576 L1210.48 9.54393 Z" fill="#000000" fill-rule="evenodd" fill-opacity="1" /><path clip-path="url(#clip770)" d="M1233.53 27.2059 L1240.98 27.2059 L1240.98 72.576 L1233.53 72.576 L1233.53 27.2059 M1233.53 9.54393 L1240.98 9.54393 L1240.98 18.9825 L1233.53 18.9825 L1233.53 9.54393 Z" fill="#000000" fill-rule="evenodd" fill-opacity="1" /><path clip-path="url(#clip770)" d="M1289.23 28.9478 L1289.23 35.9153 Q1286.07 34.1734 1282.87 33.3227 Q1279.71 32.4315 1276.47 32.4315 Q1269.22 32.4315 1265.21 37.0496 Q1261.2 41.6271 1261.2 49.9314 Q1261.2 58.2358 1265.21 62.8538 Q1269.22 67.4314 1276.47 67.4314 Q1279.71 67.4314 1282.87 66.5807 Q1286.07 65.6895 1289.23 63.9476 L1289.23 70.8341 Q1286.11 72.2924 1282.75 73.0216 Q1279.42 73.7508 1275.66 73.7508 Q1265.41 73.7508 1259.37 67.3098 Q1253.34 60.8689 1253.34 49.9314 Q1253.34 38.832 1259.41 32.472 Q1265.53 26.1121 1276.14 26.1121 Q1279.59 26.1121 1282.87 26.8413 Q1286.15 27.5299 1289.23 28.9478 Z" fill="#000000" fill-rule="evenodd" fill-opacity="1" /><path clip-path="url(#clip770)" d="M1302.19 9.54393 L1309.64 9.54393 L1309.64 72.576 L1302.19 72.576 L1302.19 9.54393 Z" fill="#000000" fill-rule="evenodd" fill-opacity="1" /><path clip-path="url(#clip770)" d="M1344.12 76.7889 Q1340.96 84.8907 1337.96 87.3618 Q1334.96 89.8329 1329.94 89.8329 L1323.98 89.8329 L1323.98 83.5945 L1328.36 83.5945 Q1331.44 83.5945 1333.14 82.1361 Q1334.84 80.6778 1336.91 75.2496 L1338.24 71.8468 L1319.89 27.2059 L1327.79 27.2059 L1341.97 62.6918 L1356.15 27.2059 L1364.05 27.2059 L1344.12 76.7889 Z" fill="#000000" fill-rule="evenodd" fill-opacity="1" /><path clip-path="url(#clip770)" d="M1421.33 49.7694 Q1412.29 49.7694 1408.81 51.8354 Q1405.33 53.9013 1405.33 58.8839 Q1405.33 62.8538 1407.92 65.2034 Q1410.55 67.5124 1415.05 67.5124 Q1421.25 67.5124 1424.97 63.1374 Q1428.74 58.7219 1428.74 51.4303 L1428.74 49.7694 L1421.33 49.7694 M1436.19 46.6907 L1436.19 72.576 L1428.74 72.576 L1428.74 65.6895 Q1426.19 69.8214 1422.38 71.8063 Q1418.57 73.7508 1413.06 73.7508 Q1406.1 73.7508 1401.96 69.8619 Q1397.87 65.9325 1397.87 59.3701 Q1397.87 51.7138 1402.98 47.825 Q1408.12 43.9361 1418.29 43.9361 L1428.74 43.9361 L1428.74 43.2069 Q1428.74 38.0623 1425.34 35.2672 Q1421.98 32.4315 1415.86 32.4315 Q1411.97 32.4315 1408.28 33.3632 Q1404.6 34.295 1401.19 36.1584 L1401.19 29.2718 Q1405.29 27.692 1409.13 26.9223 Q1412.98 26.1121 1416.63 26.1121 Q1426.47 26.1121 1431.33 31.2163 Q1436.19 36.3204 1436.19 46.6907 Z" fill="#000000" fill-rule="evenodd" fill-opacity="1" /><path clip-path="url(#clip770)" d="M1446.2 27.2059 L1454.1 27.2059 L1468.28 65.2844 L1482.46 27.2059 L1490.36 27.2059 L1473.34 72.576 L1463.21 72.576 L1446.2 27.2059 Z" fill="#000000" fill-rule="evenodd" fill-opacity="1" /><path clip-path="url(#clip770)" d="M1521.26 49.7694 Q1512.23 49.7694 1508.75 51.8354 Q1505.26 53.9013 1505.26 58.8839 Q1505.26 62.8538 1507.86 65.2034 Q1510.49 67.5124 1514.98 67.5124 Q1521.18 67.5124 1524.91 63.1374 Q1528.68 58.7219 1528.68 51.4303 L1528.68 49.7694 L1521.26 49.7694 M1536.13 46.6907 L1536.13 72.576 L1528.68 72.576 L1528.68 65.6895 Q1526.12 69.8214 1522.32 71.8063 Q1518.51 73.7508 1513 73.7508 Q1506.03 73.7508 1501.9 69.8619 Q1497.81 65.9325 1497.81 59.3701 Q1497.81 51.7138 1502.91 47.825 Q1508.06 43.9361 1518.23 43.9361 L1528.68 43.9361 L1528.68 43.2069 Q1528.68 38.0623 1525.27 35.2672 Q1521.91 32.4315 1515.79 32.4315 Q1511.91 32.4315 1508.22 33.3632 Q1504.53 34.295 1501.13 36.1584 L1501.13 29.2718 Q1505.22 27.692 1509.07 26.9223 Q1512.92 26.1121 1516.56 26.1121 Q1526.41 26.1121 1531.27 31.2163 Q1536.13 36.3204 1536.13 46.6907 Z" fill="#000000" fill-rule="evenodd" fill-opacity="1" /><path clip-path="url(#clip770)" d="M1551.48 27.2059 L1558.94 27.2059 L1558.94 72.576 L1551.48 72.576 L1551.48 27.2059 M1551.48 9.54393 L1558.94 9.54393 L1558.94 18.9825 L1551.48 18.9825 L1551.48 9.54393 Z" fill="#000000" fill-rule="evenodd" fill-opacity="1" /><path clip-path="url(#clip770)" d="M1574.53 9.54393 L1581.99 9.54393 L1581.99 72.576 L1574.53 72.576 L1574.53 9.54393 Z" fill="#000000" fill-rule="evenodd" fill-opacity="1" /><path clip-path="url(#clip770)" d="M1618.2 49.7694 Q1609.17 49.7694 1605.68 51.8354 Q1602.2 53.9013 1602.2 58.8839 Q1602.2 62.8538 1604.79 65.2034 Q1607.43 67.5124 1611.92 67.5124 Q1618.12 67.5124 1621.85 63.1374 Q1625.61 58.7219 1625.61 51.4303 L1625.61 49.7694 L1618.2 49.7694 M1633.07 46.6907 L1633.07 72.576 L1625.61 72.576 L1625.61 65.6895 Q1623.06 69.8214 1619.25 71.8063 Q1615.45 73.7508 1609.94 73.7508 Q1602.97 73.7508 1598.84 69.8619 Q1594.75 65.9325 1594.75 59.3701 Q1594.75 51.7138 1599.85 47.825 Q1605 43.9361 1615.16 43.9361 L1625.61 43.9361 L1625.61 43.2069 Q1625.61 38.0623 1622.21 35.2672 Q1618.85 32.4315 1612.73 32.4315 Q1608.84 32.4315 1605.16 33.3632 Q1601.47 34.295 1598.07 36.1584 L1598.07 29.2718 Q1602.16 27.692 1606.01 26.9223 Q1609.86 26.1121 1613.5 26.1121 Q1623.35 26.1121 1628.21 31.2163 Q1633.07 36.3204 1633.07 46.6907 Z" fill="#000000" fill-rule="evenodd" fill-opacity="1" /><path clip-path="url(#clip770)" d="M1680.99 49.9314 Q1680.99 41.7081 1677.59 37.0496 Q1674.23 32.3505 1668.31 32.3505 Q1662.4 32.3505 1658.99 37.0496 Q1655.63 41.7081 1655.63 49.9314 Q1655.63 58.1548 1658.99 62.8538 Q1662.4 67.5124 1668.31 67.5124 Q1674.23 67.5124 1677.59 62.8538 Q1680.99 58.1548 1680.99 49.9314 M1655.63 34.0924 Q1657.98 30.0415 1661.55 28.0971 Q1665.15 26.1121 1670.13 26.1121 Q1678.4 26.1121 1683.54 32.6746 Q1688.73 39.2371 1688.73 49.9314 Q1688.73 60.6258 1683.54 67.1883 Q1678.4 73.7508 1670.13 73.7508 Q1665.15 73.7508 1661.55 71.8063 Q1657.98 69.8214 1655.63 65.7705 L1655.63 72.576 L1648.14 72.576 L1648.14 9.54393 L1655.63 9.54393 L1655.63 34.0924 Z" fill="#000000" fill-rule="evenodd" fill-opacity="1" /><path clip-path="url(#clip770)" d="M1701.08 9.54393 L1708.54 9.54393 L1708.54 72.576 L1701.08 72.576 L1701.08 9.54393 Z" fill="#000000" fill-rule="evenodd" fill-opacity="1" /><path clip-path="url(#clip770)" d="M1762.94 48.0275 L1762.94 51.6733 L1728.67 51.6733 Q1729.16 59.3701 1733.29 63.421 Q1737.46 67.4314 1744.87 67.4314 Q1749.17 67.4314 1753.18 66.3781 Q1757.23 65.3249 1761.2 63.2184 L1761.2 70.267 Q1757.19 71.9684 1752.98 72.8596 Q1748.76 73.7508 1744.43 73.7508 Q1733.57 73.7508 1727.21 67.4314 Q1720.89 61.1119 1720.89 50.3365 Q1720.89 39.1965 1726.89 32.6746 Q1732.92 26.1121 1743.13 26.1121 Q1752.29 26.1121 1757.59 32.0264 Q1762.94 37.9003 1762.94 48.0275 M1755.49 45.84 Q1755.41 39.7232 1752.04 36.0774 Q1748.72 32.4315 1743.21 32.4315 Q1736.97 32.4315 1733.21 35.9558 Q1729.48 39.4801 1728.91 45.8805 L1755.49 45.84 Z" fill="#000000" fill-rule="evenodd" fill-opacity="1" /><polyline clip-path="url(#clip772)" style="stroke:#009af9; stroke-linecap:butt; stroke-linejoin:round; stroke-width:12; stroke-opacity:1; fill:none" points="
  280.231,1172.29 331.825,893.044 435.013,435.743 641.388,160.256 847.763,289.446 1054.14,469.097 1260.51,554.392 1776.45,829.068 2292.39,1052.02 
  "/>
<polyline clip-path="url(#clip772)" style="stroke:#e26f46; stroke-linecap:butt; stroke-linejoin:round; stroke-width:12; stroke-opacity:1; fill:none" points="
  280.231,1167.85 331.825,753.983 435.013,472.126 641.388,579.92 847.763,872.094 1054.14,1002.73 1260.51,1122.79 1776.45,1327.18 2292.39,1386.4 
  "/>
<path clip-path="url(#clip770)" d="
M1909.56 322.316 L2281.66 322.316 L2281.66 166.796 L1909.56 166.796  Z
  " fill="#ffffff" fill-rule="evenodd" fill-opacity="1"/>
<polyline clip-path="url(#clip770)" style="stroke:#000000; stroke-linecap:butt; stroke-linejoin:round; stroke-width:4; stroke-opacity:1; fill:none" points="
  1909.56,322.316 2281.66,322.316 2281.66,166.796 1909.56,166.796 1909.56,322.316 
  "/>
<polyline clip-path="url(#clip770)" style="stroke:#009af9; stroke-linecap:butt; stroke-linejoin:round; stroke-width:4; stroke-opacity:1; fill:none" points="
  1933.26,218.636 2075.45,218.636 
  "/>
<path clip-path="url(#clip770)" d="M2099.15 199.897 L2103.43 199.897 L2103.43 221.17 L2116.14 209.99 L2121.58 209.99 L2107.83 222.119 L2122.16 235.916 L2116.6 235.916 L2103.43 223.254 L2103.43 235.916 L2099.15 235.916 L2099.15 199.897 Z" fill="#000000" fill-rule="evenodd" fill-opacity="1" /><path clip-path="url(#clip770)" d="M2127.32 214.388 L2156.99 214.388 L2156.99 218.277 L2127.32 218.277 L2127.32 214.388 M2127.32 223.832 L2156.99 223.832 L2156.99 227.768 L2127.32 227.768 L2127.32 223.832 Z" fill="#000000" fill-rule="evenodd" fill-opacity="1" /><path clip-path="url(#clip770)" d="M2177.09 204.434 Q2173.48 204.434 2171.65 207.999 Q2169.84 211.541 2169.84 218.67 Q2169.84 225.777 2171.65 229.342 Q2173.48 232.883 2177.09 232.883 Q2180.72 232.883 2182.53 229.342 Q2184.35 225.777 2184.35 218.67 Q2184.35 211.541 2182.53 207.999 Q2180.72 204.434 2177.09 204.434 M2177.09 200.731 Q2182.9 200.731 2185.95 205.337 Q2189.03 209.92 2189.03 218.67 Q2189.03 227.397 2185.95 232.004 Q2182.9 236.587 2177.09 236.587 Q2171.28 236.587 2168.2 232.004 Q2165.14 227.397 2165.14 218.67 Q2165.14 209.92 2168.2 205.337 Q2171.28 200.731 2177.09 200.731 Z" fill="#000000" fill-rule="evenodd" fill-opacity="1" /><path clip-path="url(#clip770)" d="M2197.25 230.036 L2202.13 230.036 L2202.13 235.916 L2197.25 235.916 L2197.25 230.036 Z" fill="#000000" fill-rule="evenodd" fill-opacity="1" /><path clip-path="url(#clip770)" d="M2222.32 219.504 Q2218.98 219.504 2217.06 221.286 Q2215.16 223.069 2215.16 226.194 Q2215.16 229.319 2217.06 231.101 Q2218.98 232.883 2222.32 232.883 Q2225.65 232.883 2227.57 231.101 Q2229.49 229.295 2229.49 226.194 Q2229.49 223.069 2227.57 221.286 Q2225.67 219.504 2222.32 219.504 M2217.64 217.513 Q2214.63 216.772 2212.94 214.712 Q2211.28 212.652 2211.28 209.689 Q2211.28 205.546 2214.22 203.138 Q2217.18 200.731 2222.32 200.731 Q2227.48 200.731 2230.42 203.138 Q2233.36 205.546 2233.36 209.689 Q2233.36 212.652 2231.67 214.712 Q2230 216.772 2227.02 217.513 Q2230.4 218.3 2232.27 220.592 Q2234.17 222.883 2234.17 226.194 Q2234.17 231.217 2231.09 233.902 Q2228.04 236.587 2222.32 236.587 Q2216.6 236.587 2213.52 233.902 Q2210.47 231.217 2210.47 226.194 Q2210.47 222.883 2212.36 220.592 Q2214.26 218.3 2217.64 217.513 M2215.93 210.129 Q2215.93 212.814 2217.6 214.319 Q2219.29 215.823 2222.32 215.823 Q2225.33 215.823 2227.02 214.319 Q2228.73 212.814 2228.73 210.129 Q2228.73 207.444 2227.02 205.939 Q2225.33 204.434 2222.32 204.434 Q2219.29 204.434 2217.6 205.939 Q2215.93 207.444 2215.93 210.129 Z" fill="#000000" fill-rule="evenodd" fill-opacity="1" /><polyline clip-path="url(#clip770)" style="stroke:#e26f46; stroke-linecap:butt; stroke-linejoin:round; stroke-width:4; stroke-opacity:1; fill:none" points="
  1933.26,270.476 2075.45,270.476 
  "/>
<path clip-path="url(#clip770)" d="M2099.15 251.737 L2103.43 251.737 L2103.43 273.01 L2116.14 261.83 L2121.58 261.83 L2107.83 273.959 L2122.16 287.756 L2116.6 287.756 L2103.43 275.094 L2103.43 287.756 L2099.15 287.756 L2099.15 251.737 Z" fill="#000000" fill-rule="evenodd" fill-opacity="1" /><path clip-path="url(#clip770)" d="M2127.32 266.228 L2156.99 266.228 L2156.99 270.117 L2127.32 270.117 L2127.32 266.228 M2127.32 275.672 L2156.99 275.672 L2156.99 279.608 L2127.32 279.608 L2127.32 275.672 Z" fill="#000000" fill-rule="evenodd" fill-opacity="1" /><path clip-path="url(#clip770)" d="M2167.9 283.821 L2175.54 283.821 L2175.54 257.455 L2167.23 259.122 L2167.23 254.862 L2175.49 253.196 L2180.17 253.196 L2180.17 283.821 L2187.8 283.821 L2187.8 287.756 L2167.9 287.756 L2167.9 283.821 Z" fill="#000000" fill-rule="evenodd" fill-opacity="1" /><path clip-path="url(#clip770)" d="M2197.25 281.876 L2202.13 281.876 L2202.13 287.756 L2197.25 287.756 L2197.25 281.876 Z" fill="#000000" fill-rule="evenodd" fill-opacity="1" /><path clip-path="url(#clip770)" d="M2222.32 256.274 Q2218.71 256.274 2216.88 259.839 Q2215.07 263.381 2215.07 270.51 Q2215.07 277.617 2216.88 281.182 Q2218.71 284.723 2222.32 284.723 Q2225.95 284.723 2227.76 281.182 Q2229.59 277.617 2229.59 270.51 Q2229.59 263.381 2227.76 259.839 Q2225.95 256.274 2222.32 256.274 M2222.32 252.571 Q2228.13 252.571 2231.18 257.177 Q2234.26 261.76 2234.26 270.51 Q2234.26 279.237 2231.18 283.844 Q2228.13 288.427 2222.32 288.427 Q2216.51 288.427 2213.43 283.844 Q2210.37 279.237 2210.37 270.51 Q2210.37 261.76 2213.43 257.177 Q2216.51 252.571 2222.32 252.571 Z" fill="#000000" fill-rule="evenodd" fill-opacity="1" /></svg>
