<?xml version="1.0" encoding="utf-8"?>
<svg xmlns="http://www.w3.org/2000/svg" xmlns:xlink="http://www.w3.org/1999/xlink" width="600" height="400" viewBox="0 0 2400 1600">
<defs>
  <clipPath id="clip420">
    <rect x="0" y="0" width="2400" height="1600"/>
  </clipPath>
</defs>
<path clip-path="url(#clip420)" d="
M0 1600 L2400 1600 L2400 0 L0 0  Z
  " fill="#ffffff" fill-rule="evenodd" fill-opacity="1"/>
<defs>
  <clipPath id="clip421">
    <rect x="480" y="0" width="1681" height="1600"/>
  </clipPath>
</defs>
<path clip-path="url(#clip420)" d="
M249.542 1423.18 L2352.76 1423.18 L2352.76 123.472 L249.542 123.472  Z
  " fill="#ffffff" fill-rule="evenodd" fill-opacity="1"/>
<defs>
  <clipPath id="clip422">
    <rect x="249" y="123" width="2104" height="1301"/>
  </clipPath>
</defs>
<polyline clip-path="url(#clip422)" style="stroke:#000000; stroke-linecap:butt; stroke-linejoin:round; stroke-width:2; stroke-opacity:0.1; fill:none" points="
  489.446,1423.18 489.446,123.472 
  "/>
<polyline clip-path="url(#clip422)" style="stroke:#000000; stroke-linecap:butt; stroke-linejoin:round; stroke-width:2; stroke-opacity:0.1; fill:none" points="
  850.203,1423.18 850.203,123.472 
  "/>
<polyline clip-path="url(#clip422)" style="stroke:#000000; stroke-linecap:butt; stroke-linejoin:round; stroke-width:2; stroke-opacity:0.1; fill:none" points="
  1210.96,1423.18 1210.96,123.472 
  "/>
<polyline clip-path="url(#clip422)" style="stroke:#000000; stroke-linecap:butt; stroke-linejoin:round; stroke-width:2; stroke-opacity:0.1; fill:none" points="
  1571.72,1423.18 1571.72,123.472 
  "/>
<polyline clip-path="url(#clip422)" style="stroke:#000000; stroke-linecap:butt; stroke-linejoin:round; stroke-width:2; stroke-opacity:0.1; fill:none" points="
  1932.47,1423.18 1932.47,123.472 
  "/>
<polyline clip-path="url(#clip422)" style="stroke:#000000; stroke-linecap:butt; stroke-linejoin:round; stroke-width:2; stroke-opacity:0.1; fill:none" points="
  2293.23,1423.18 2293.23,123.472 
  "/>
<polyline clip-path="url(#clip420)" style="stroke:#000000; stroke-linecap:butt; stroke-linejoin:round; stroke-width:4; stroke-opacity:1; fill:none" points="
  249.542,1423.18 2352.76,1423.18 
  "/>
<polyline clip-path="url(#clip420)" style="stroke:#000000; stroke-linecap:butt; stroke-linejoin:round; stroke-width:4; stroke-opacity:1; fill:none" points="
  489.446,1423.18 489.446,1404.28 
  "/>
<polyline clip-path="url(#clip420)" style="stroke:#000000; stroke-linecap:butt; stroke-linejoin:round; stroke-width:4; stroke-opacity:1; fill:none" points="
  850.203,1423.18 850.203,1404.28 
  "/>
<polyline clip-path="url(#clip420)" style="stroke:#000000; stroke-linecap:butt; stroke-linejoin:round; stroke-width:4; stroke-opacity:1; fill:none" points="
  1210.96,1423.18 1210.96,1404.28 
  "/>
<polyline clip-path="url(#clip420)" style="stroke:#000000; stroke-linecap:butt; stroke-linejoin:round; stroke-width:4; stroke-opacity:1; fill:none" points="
  1571.72,1423.18 1571.72,1404.28 
  "/>
<polyline clip-path="url(#clip420)" style="stroke:#000000; stroke-linecap:butt; stroke-linejoin:round; stroke-width:4; stroke-opacity:1; fill:none" points="
  1932.47,1423.18 1932.47,1404.28 
  "/>
<polyline clip-path="url(#clip420)" style="stroke:#000000; stroke-linecap:butt; stroke-linejoin:round; stroke-width:4; stroke-opacity:1; fill:none" points="
  2293.23,1423.18 2293.23,1404.28 
  "/>
<path clip-path="url(#clip420)" d="M449.052 1481.64 L456.691 1481.64 L456.691 1455.28 L448.381 1456.95 L448.381 1452.69 L456.645 1451.02 L461.321 1451.02 L461.321 1481.64 L468.96 1481.64 L468.96 1485.58 L449.052 1485.58 L449.052 1481.64 Z" fill="#000000" fill-rule="evenodd" fill-opacity="1" /><path clip-path="url(#clip420)" d="M488.404 1454.1 Q484.793 1454.1 482.964 1457.66 Q481.159 1461.2 481.159 1468.33 Q481.159 1475.44 482.964 1479.01 Q484.793 1482.55 488.404 1482.55 Q492.038 1482.55 493.844 1479.01 Q495.672 1475.44 495.672 1468.33 Q495.672 1461.2 493.844 1457.66 Q492.038 1454.1 488.404 1454.1 M488.404 1450.39 Q494.214 1450.39 497.27 1455 Q500.348 1459.58 500.348 1468.33 Q500.348 1477.06 497.27 1481.67 Q494.214 1486.25 488.404 1486.25 Q482.594 1486.25 479.515 1481.67 Q476.459 1477.06 476.459 1468.33 Q476.459 1459.58 479.515 1455 Q482.594 1450.39 488.404 1450.39 Z" fill="#000000" fill-rule="evenodd" fill-opacity="1" /><path clip-path="url(#clip420)" d="M518.566 1454.1 Q514.955 1454.1 513.126 1457.66 Q511.32 1461.2 511.32 1468.33 Q511.32 1475.44 513.126 1479.01 Q514.955 1482.55 518.566 1482.55 Q522.2 1482.55 524.006 1479.01 Q525.834 1475.44 525.834 1468.33 Q525.834 1461.2 524.006 1457.66 Q522.2 1454.1 518.566 1454.1 M518.566 1450.39 Q524.376 1450.39 527.431 1455 Q530.51 1459.58 530.51 1468.33 Q530.51 1477.06 527.431 1481.67 Q524.376 1486.25 518.566 1486.25 Q512.756 1486.25 509.677 1481.67 Q506.621 1477.06 506.621 1468.33 Q506.621 1459.58 509.677 1455 Q512.756 1450.39 518.566 1450.39 Z" fill="#000000" fill-rule="evenodd" fill-opacity="1" /><path clip-path="url(#clip420)" d="M813.895 1481.64 L830.214 1481.64 L830.214 1485.58 L808.27 1485.58 L808.27 1481.64 Q810.932 1478.89 815.515 1474.26 Q820.122 1469.61 821.302 1468.27 Q823.548 1465.74 824.427 1464.01 Q825.33 1462.25 825.33 1460.56 Q825.33 1457.8 823.386 1456.07 Q821.464 1454.33 818.362 1454.33 Q816.163 1454.33 813.71 1455.09 Q811.279 1455.86 808.501 1457.41 L808.501 1452.69 Q811.325 1451.55 813.779 1450.97 Q816.233 1450.39 818.27 1450.39 Q823.64 1450.39 826.835 1453.08 Q830.029 1455.77 830.029 1460.26 Q830.029 1462.39 829.219 1464.31 Q828.432 1466.2 826.325 1468.8 Q825.747 1469.47 822.645 1472.69 Q819.543 1475.88 813.895 1481.64 Z" fill="#000000" fill-rule="evenodd" fill-opacity="1" /><path clip-path="url(#clip420)" d="M850.029 1454.1 Q846.418 1454.1 844.589 1457.66 Q842.784 1461.2 842.784 1468.33 Q842.784 1475.44 844.589 1479.01 Q846.418 1482.55 850.029 1482.55 Q853.663 1482.55 855.469 1479.01 Q857.297 1475.44 857.297 1468.33 Q857.297 1461.2 855.469 1457.66 Q853.663 1454.1 850.029 1454.1 M850.029 1450.39 Q855.839 1450.39 858.895 1455 Q861.973 1459.58 861.973 1468.33 Q861.973 1477.06 858.895 1481.67 Q855.839 1486.25 850.029 1486.25 Q844.219 1486.25 841.14 1481.67 Q838.085 1477.06 838.085 1468.33 Q838.085 1459.58 841.14 1455 Q844.219 1450.39 850.029 1450.39 Z" fill="#000000" fill-rule="evenodd" fill-opacity="1" /><path clip-path="url(#clip420)" d="M880.191 1454.1 Q876.58 1454.1 874.751 1457.66 Q872.946 1461.2 872.946 1468.33 Q872.946 1475.44 874.751 1479.01 Q876.58 1482.55 880.191 1482.55 Q883.825 1482.55 885.631 1479.01 Q887.459 1475.44 887.459 1468.33 Q887.459 1461.2 885.631 1457.66 Q883.825 1454.1 880.191 1454.1 M880.191 1450.39 Q886.001 1450.39 889.057 1455 Q892.135 1459.58 892.135 1468.33 Q892.135 1477.06 889.057 1481.67 Q886.001 1486.25 880.191 1486.25 Q874.381 1486.25 871.302 1481.67 Q868.246 1477.06 868.246 1468.33 Q868.246 1459.58 871.302 1455 Q874.381 1450.39 880.191 1450.39 Z" fill="#000000" fill-rule="evenodd" fill-opacity="1" /><path clip-path="url(#clip420)" d="M1184.72 1466.95 Q1188.08 1467.66 1189.95 1469.93 Q1191.85 1472.2 1191.85 1475.53 Q1191.85 1480.65 1188.33 1483.45 Q1184.81 1486.25 1178.33 1486.25 Q1176.16 1486.25 1173.84 1485.81 Q1171.55 1485.39 1169.1 1484.54 L1169.1 1480.02 Q1171.04 1481.16 1173.36 1481.74 Q1175.67 1482.32 1178.19 1482.32 Q1182.59 1482.32 1184.88 1480.58 Q1187.2 1478.84 1187.2 1475.53 Q1187.2 1472.48 1185.05 1470.77 Q1182.92 1469.03 1179.1 1469.03 L1175.07 1469.03 L1175.07 1465.19 L1179.28 1465.19 Q1182.73 1465.19 1184.56 1463.82 Q1186.39 1462.43 1186.39 1459.84 Q1186.39 1457.18 1184.49 1455.77 Q1182.61 1454.33 1179.1 1454.33 Q1177.18 1454.33 1174.98 1454.75 Q1172.78 1455.16 1170.14 1456.04 L1170.14 1451.88 Q1172.8 1451.14 1175.11 1450.77 Q1177.45 1450.39 1179.51 1450.39 Q1184.84 1450.39 1187.94 1452.83 Q1191.04 1455.23 1191.04 1459.35 Q1191.04 1462.22 1189.4 1464.21 Q1187.75 1466.18 1184.72 1466.95 Z" fill="#000000" fill-rule="evenodd" fill-opacity="1" /><path clip-path="url(#clip420)" d="M1210.72 1454.1 Q1207.11 1454.1 1205.28 1457.66 Q1203.47 1461.2 1203.47 1468.33 Q1203.47 1475.44 1205.28 1479.01 Q1207.11 1482.55 1210.72 1482.55 Q1214.35 1482.55 1216.16 1479.01 Q1217.99 1475.44 1217.99 1468.33 Q1217.99 1461.2 1216.16 1457.66 Q1214.35 1454.1 1210.72 1454.1 M1210.72 1450.39 Q1216.53 1450.39 1219.58 1455 Q1222.66 1459.58 1222.66 1468.33 Q1222.66 1477.06 1219.58 1481.67 Q1216.53 1486.25 1210.72 1486.25 Q1204.91 1486.25 1201.83 1481.67 Q1198.77 1477.06 1198.77 1468.33 Q1198.77 1459.58 1201.83 1455 Q1204.91 1450.39 1210.72 1450.39 Z" fill="#000000" fill-rule="evenodd" fill-opacity="1" /><path clip-path="url(#clip420)" d="M1240.88 1454.1 Q1237.27 1454.1 1235.44 1457.66 Q1233.63 1461.2 1233.63 1468.33 Q1233.63 1475.44 1235.44 1479.01 Q1237.27 1482.55 1240.88 1482.55 Q1244.51 1482.55 1246.32 1479.01 Q1248.15 1475.44 1248.15 1468.33 Q1248.15 1461.2 1246.32 1457.66 Q1244.51 1454.1 1240.88 1454.1 M1240.88 1450.39 Q1246.69 1450.39 1249.74 1455 Q1252.82 1459.58 1252.82 1468.33 Q1252.82 1477.06 1249.74 1481.67 Q1246.69 1486.25 1240.88 1486.25 Q1235.07 1486.25 1231.99 1481.67 Q1228.93 1477.06 1228.93 1468.33 Q1228.93 1459.58 1231.99 1455 Q1235.07 1450.39 1240.88 1450.39 Z" fill="#000000" fill-rule="evenodd" fill-opacity="1" /><path clip-path="url(#clip420)" d="M1544.81 1455.09 L1533 1473.54 L1544.81 1473.54 L1544.81 1455.09 M1543.58 1451.02 L1549.46 1451.02 L1549.46 1473.54 L1554.39 1473.54 L1554.39 1477.43 L1549.46 1477.43 L1549.46 1485.58 L1544.81 1485.58 L1544.81 1477.43 L1529.21 1477.43 L1529.21 1472.92 L1543.58 1451.02 Z" fill="#000000" fill-rule="evenodd" fill-opacity="1" /><path clip-path="url(#clip420)" d="M1572.12 1454.1 Q1568.51 1454.1 1566.68 1457.66 Q1564.88 1461.2 1564.88 1468.33 Q1564.88 1475.44 1566.68 1479.01 Q1568.51 1482.55 1572.12 1482.55 Q1575.76 1482.55 1577.56 1479.01 Q1579.39 1475.44 1579.39 1468.33 Q1579.39 1461.2 1577.56 1457.66 Q1575.76 1454.1 1572.12 1454.1 M1572.12 1450.39 Q1577.93 1450.39 1580.99 1455 Q1584.07 1459.58 1584.07 1468.33 Q1584.07 1477.06 1580.99 1481.67 Q1577.93 1486.25 1572.12 1486.25 Q1566.31 1486.25 1563.23 1481.67 Q1560.18 1477.06 1560.18 1468.33 Q1560.18 1459.58 1563.23 1455 Q1566.31 1450.39 1572.12 1450.39 Z" fill="#000000" fill-rule="evenodd" fill-opacity="1" /><path clip-path="url(#clip420)" d="M1602.28 1454.1 Q1598.67 1454.1 1596.84 1457.66 Q1595.04 1461.2 1595.04 1468.33 Q1595.04 1475.44 1596.84 1479.01 Q1598.67 1482.55 1602.28 1482.55 Q1605.92 1482.55 1607.72 1479.01 Q1609.55 1475.44 1609.55 1468.33 Q1609.55 1461.2 1607.72 1457.66 Q1605.92 1454.1 1602.28 1454.1 M1602.28 1450.39 Q1608.09 1450.39 1611.15 1455 Q1614.23 1459.58 1614.23 1468.33 Q1614.23 1477.06 1611.15 1481.67 Q1608.09 1486.25 1602.28 1486.25 Q1596.47 1486.25 1593.39 1481.67 Q1590.34 1477.06 1590.34 1468.33 Q1590.34 1459.58 1593.39 1455 Q1596.47 1450.39 1602.28 1450.39 Z" fill="#000000" fill-rule="evenodd" fill-opacity="1" /><path clip-path="url(#clip420)" d="M1892.09 1451.02 L1910.45 1451.02 L1910.45 1454.96 L1896.37 1454.96 L1896.37 1463.43 Q1897.39 1463.08 1898.41 1462.92 Q1899.43 1462.73 1900.45 1462.73 Q1906.24 1462.73 1909.62 1465.9 Q1912.99 1469.08 1912.99 1474.49 Q1912.99 1480.07 1909.52 1483.17 Q1906.05 1486.25 1899.73 1486.25 Q1897.56 1486.25 1895.29 1485.88 Q1893.04 1485.51 1890.63 1484.77 L1890.63 1480.07 Q1892.72 1481.2 1894.94 1481.76 Q1897.16 1482.32 1899.64 1482.32 Q1903.64 1482.32 1905.98 1480.21 Q1908.32 1478.1 1908.32 1474.49 Q1908.32 1470.88 1905.98 1468.77 Q1903.64 1466.67 1899.64 1466.67 Q1897.76 1466.67 1895.89 1467.08 Q1894.04 1467.5 1892.09 1468.38 L1892.09 1451.02 Z" fill="#000000" fill-rule="evenodd" fill-opacity="1" /><path clip-path="url(#clip420)" d="M1932.21 1454.1 Q1928.6 1454.1 1926.77 1457.66 Q1924.96 1461.2 1924.96 1468.33 Q1924.96 1475.44 1926.77 1479.01 Q1928.6 1482.55 1932.21 1482.55 Q1935.84 1482.55 1937.65 1479.01 Q1939.48 1475.44 1939.48 1468.33 Q1939.48 1461.2 1937.65 1457.66 Q1935.84 1454.1 1932.21 1454.1 M1932.21 1450.39 Q1938.02 1450.39 1941.07 1455 Q1944.15 1459.58 1944.15 1468.33 Q1944.15 1477.06 1941.07 1481.67 Q1938.02 1486.25 1932.21 1486.25 Q1926.4 1486.25 1923.32 1481.67 Q1920.26 1477.06 1920.26 1468.33 Q1920.26 1459.58 1923.32 1455 Q1926.4 1450.39 1932.21 1450.39 Z" fill="#000000" fill-rule="evenodd" fill-opacity="1" /><path clip-path="url(#clip420)" d="M1962.37 1454.1 Q1958.76 1454.1 1956.93 1457.66 Q1955.12 1461.2 1955.12 1468.33 Q1955.12 1475.44 1956.93 1479.01 Q1958.76 1482.55 1962.37 1482.55 Q1966 1482.55 1967.81 1479.01 Q1969.64 1475.44 1969.64 1468.33 Q1969.64 1461.2 1967.81 1457.66 Q1966 1454.1 1962.37 1454.1 M1962.37 1450.39 Q1968.18 1450.39 1971.24 1455 Q1974.31 1459.58 1974.31 1468.33 Q1974.31 1477.06 1971.24 1481.67 Q1968.18 1486.25 1962.37 1486.25 Q1956.56 1486.25 1953.48 1481.67 Q1950.43 1477.06 1950.43 1468.33 Q1950.43 1459.58 1953.48 1455 Q1956.56 1450.39 1962.37 1450.39 Z" fill="#000000" fill-rule="evenodd" fill-opacity="1" /><path clip-path="url(#clip420)" d="M2263.56 1466.44 Q2260.41 1466.44 2258.56 1468.59 Q2256.73 1470.74 2256.73 1474.49 Q2256.73 1478.22 2258.56 1480.39 Q2260.41 1482.55 2263.56 1482.55 Q2266.7 1482.55 2268.53 1480.39 Q2270.38 1478.22 2270.38 1474.49 Q2270.38 1470.74 2268.53 1468.59 Q2266.7 1466.44 2263.56 1466.44 M2272.84 1451.78 L2272.84 1456.04 Q2271.08 1455.21 2269.27 1454.77 Q2267.49 1454.33 2265.73 1454.33 Q2261.1 1454.33 2258.65 1457.45 Q2256.22 1460.58 2255.87 1466.9 Q2257.24 1464.89 2259.3 1463.82 Q2261.36 1462.73 2263.83 1462.73 Q2269.04 1462.73 2272.05 1465.9 Q2275.08 1469.05 2275.08 1474.49 Q2275.08 1479.82 2271.93 1483.03 Q2268.79 1486.25 2263.56 1486.25 Q2257.56 1486.25 2254.39 1481.67 Q2251.22 1477.06 2251.22 1468.33 Q2251.22 1460.14 2255.11 1455.28 Q2259 1450.39 2265.55 1450.39 Q2267.31 1450.39 2269.09 1450.74 Q2270.89 1451.09 2272.84 1451.78 Z" fill="#000000" fill-rule="evenodd" fill-opacity="1" /><path clip-path="url(#clip420)" d="M2293.14 1454.1 Q2289.53 1454.1 2287.7 1457.66 Q2285.89 1461.2 2285.89 1468.33 Q2285.89 1475.44 2287.7 1479.01 Q2289.53 1482.55 2293.14 1482.55 Q2296.77 1482.55 2298.58 1479.01 Q2300.41 1475.44 2300.41 1468.33 Q2300.41 1461.2 2298.58 1457.66 Q2296.77 1454.1 2293.14 1454.1 M2293.14 1450.39 Q2298.95 1450.39 2302 1455 Q2305.08 1459.58 2305.08 1468.33 Q2305.08 1477.06 2302 1481.67 Q2298.95 1486.25 2293.14 1486.25 Q2287.33 1486.25 2284.25 1481.67 Q2281.19 1477.06 2281.19 1468.33 Q2281.19 1459.58 2284.25 1455 Q2287.33 1450.39 2293.14 1450.39 Z" fill="#000000" fill-rule="evenodd" fill-opacity="1" /><path clip-path="url(#clip420)" d="M2323.3 1454.1 Q2319.69 1454.1 2317.86 1457.66 Q2316.05 1461.2 2316.05 1468.33 Q2316.05 1475.44 2317.86 1479.01 Q2319.69 1482.55 2323.3 1482.55 Q2326.93 1482.55 2328.74 1479.01 Q2330.57 1475.44 2330.57 1468.33 Q2330.57 1461.2 2328.74 1457.66 Q2326.93 1454.1 2323.3 1454.1 M2323.3 1450.39 Q2329.11 1450.39 2332.17 1455 Q2335.24 1459.58 2335.24 1468.33 Q2335.24 1477.06 2332.17 1481.67 Q2329.11 1486.25 2323.3 1486.25 Q2317.49 1486.25 2314.41 1481.67 Q2311.36 1477.06 2311.36 1468.33 Q2311.36 1459.58 2314.41 1455 Q2317.49 1450.39 2323.3 1450.39 Z" fill="#000000" fill-rule="evenodd" fill-opacity="1" /><path clip-path="url(#clip420)" d="M1316.08 1546.53 L1316.08 1568.04 L1310.22 1568.04 L1310.22 1546.72 Q1310.22 1541.66 1308.25 1539.14 Q1306.27 1536.63 1302.33 1536.63 Q1297.58 1536.63 1294.85 1539.65 Q1292.11 1542.68 1292.11 1547.9 L1292.11 1568.04 L1286.22 1568.04 L1286.22 1532.4 L1292.11 1532.4 L1292.11 1537.93 Q1294.21 1534.72 1297.04 1533.13 Q1299.91 1531.54 1303.63 1531.54 Q1309.77 1531.54 1312.93 1535.36 Q1316.08 1539.14 1316.08 1546.53 Z" fill="#000000" fill-rule="evenodd" fill-opacity="1" /><polyline clip-path="url(#clip422)" style="stroke:#000000; stroke-linecap:butt; stroke-linejoin:round; stroke-width:2; stroke-opacity:0.1; fill:none" points="
  249.542,1188.22 2352.76,1188.22 
  "/>
<polyline clip-path="url(#clip422)" style="stroke:#000000; stroke-linecap:butt; stroke-linejoin:round; stroke-width:2; stroke-opacity:0.1; fill:none" points="
  249.542,904.137 2352.76,904.137 
  "/>
<polyline clip-path="url(#clip422)" style="stroke:#000000; stroke-linecap:butt; stroke-linejoin:round; stroke-width:2; stroke-opacity:0.1; fill:none" points="
  249.542,620.054 2352.76,620.054 
  "/>
<polyline clip-path="url(#clip422)" style="stroke:#000000; stroke-linecap:butt; stroke-linejoin:round; stroke-width:2; stroke-opacity:0.1; fill:none" points="
  249.542,335.97 2352.76,335.97 
  "/>
<polyline clip-path="url(#clip420)" style="stroke:#000000; stroke-linecap:butt; stroke-linejoin:round; stroke-width:4; stroke-opacity:1; fill:none" points="
  249.542,1423.18 249.542,123.472 
  "/>
<polyline clip-path="url(#clip420)" style="stroke:#000000; stroke-linecap:butt; stroke-linejoin:round; stroke-width:4; stroke-opacity:1; fill:none" points="
  249.542,1188.22 268.44,1188.22 
  "/>
<polyline clip-path="url(#clip420)" style="stroke:#000000; stroke-linecap:butt; stroke-linejoin:round; stroke-width:4; stroke-opacity:1; fill:none" points="
  249.542,904.137 268.44,904.137 
  "/>
<polyline clip-path="url(#clip420)" style="stroke:#000000; stroke-linecap:butt; stroke-linejoin:round; stroke-width:4; stroke-opacity:1; fill:none" points="
  249.542,620.054 268.44,620.054 
  "/>
<polyline clip-path="url(#clip420)" style="stroke:#000000; stroke-linecap:butt; stroke-linejoin:round; stroke-width:4; stroke-opacity:1; fill:none" points="
  249.542,335.97 268.44,335.97 
  "/>
<path clip-path="url(#clip420)" d="M127.2 1174.02 Q123.589 1174.02 121.76 1177.58 Q119.955 1181.13 119.955 1188.26 Q119.955 1195.36 121.76 1198.93 Q123.589 1202.47 127.2 1202.47 Q130.834 1202.47 132.64 1198.93 Q134.468 1195.36 134.468 1188.26 Q134.468 1181.13 132.64 1177.58 Q130.834 1174.02 127.2 1174.02 M127.2 1170.32 Q133.01 1170.32 136.066 1174.92 Q139.144 1179.51 139.144 1188.26 Q139.144 1196.98 136.066 1201.59 Q133.01 1206.17 127.2 1206.17 Q121.39 1206.17 118.311 1201.59 Q115.256 1196.98 115.256 1188.26 Q115.256 1179.51 118.311 1174.92 Q121.39 1170.32 127.2 1170.32 Z" fill="#000000" fill-rule="evenodd" fill-opacity="1" /><path clip-path="url(#clip420)" d="M147.362 1199.62 L152.246 1199.62 L152.246 1205.5 L147.362 1205.5 L147.362 1199.62 Z" fill="#000000" fill-rule="evenodd" fill-opacity="1" /><path clip-path="url(#clip420)" d="M172.431 1174.02 Q168.82 1174.02 166.991 1177.58 Q165.186 1181.13 165.186 1188.26 Q165.186 1195.36 166.991 1198.93 Q168.82 1202.47 172.431 1202.47 Q176.065 1202.47 177.871 1198.93 Q179.7 1195.36 179.7 1188.26 Q179.7 1181.13 177.871 1177.58 Q176.065 1174.02 172.431 1174.02 M172.431 1170.32 Q178.241 1170.32 181.297 1174.92 Q184.376 1179.51 184.376 1188.26 Q184.376 1196.98 181.297 1201.59 Q178.241 1206.17 172.431 1206.17 Q166.621 1206.17 163.542 1201.59 Q160.487 1196.98 160.487 1188.26 Q160.487 1179.51 163.542 1174.92 Q166.621 1170.32 172.431 1170.32 Z" fill="#000000" fill-rule="evenodd" fill-opacity="1" /><path clip-path="url(#clip420)" d="M192.639 1170.94 L210.996 1170.94 L210.996 1174.88 L196.922 1174.88 L196.922 1183.35 Q197.94 1183 198.959 1182.84 Q199.977 1182.65 200.996 1182.65 Q206.783 1182.65 210.162 1185.83 Q213.542 1189 213.542 1194.41 Q213.542 1199.99 210.07 1203.09 Q206.598 1206.17 200.278 1206.17 Q198.102 1206.17 195.834 1205.8 Q193.588 1205.43 191.181 1204.69 L191.181 1199.99 Q193.264 1201.13 195.487 1201.68 Q197.709 1202.24 200.186 1202.24 Q204.19 1202.24 206.528 1200.13 Q208.866 1198.02 208.866 1194.41 Q208.866 1190.8 206.528 1188.7 Q204.19 1186.59 200.186 1186.59 Q198.311 1186.59 196.436 1187.01 Q194.584 1187.42 192.639 1188.3 L192.639 1170.94 Z" fill="#000000" fill-rule="evenodd" fill-opacity="1" /><path clip-path="url(#clip420)" d="M126.205 889.936 Q122.593 889.936 120.765 893.501 Q118.959 897.043 118.959 904.172 Q118.959 911.279 120.765 914.843 Q122.593 918.385 126.205 918.385 Q129.839 918.385 131.644 914.843 Q133.473 911.279 133.473 904.172 Q133.473 897.043 131.644 893.501 Q129.839 889.936 126.205 889.936 M126.205 886.232 Q132.015 886.232 135.07 890.839 Q138.149 895.422 138.149 904.172 Q138.149 912.899 135.07 917.505 Q132.015 922.089 126.205 922.089 Q120.394 922.089 117.316 917.505 Q114.26 912.899 114.26 904.172 Q114.26 895.422 117.316 890.839 Q120.394 886.232 126.205 886.232 Z" fill="#000000" fill-rule="evenodd" fill-opacity="1" /><path clip-path="url(#clip420)" d="M146.366 915.538 L151.251 915.538 L151.251 921.417 L146.366 921.417 L146.366 915.538 Z" fill="#000000" fill-rule="evenodd" fill-opacity="1" /><path clip-path="url(#clip420)" d="M162.246 917.482 L169.885 917.482 L169.885 891.117 L161.575 892.783 L161.575 888.524 L169.839 886.857 L174.514 886.857 L174.514 917.482 L182.153 917.482 L182.153 921.417 L162.246 921.417 L162.246 917.482 Z" fill="#000000" fill-rule="evenodd" fill-opacity="1" /><path clip-path="url(#clip420)" d="M201.598 889.936 Q197.987 889.936 196.158 893.501 Q194.352 897.043 194.352 904.172 Q194.352 911.279 196.158 914.843 Q197.987 918.385 201.598 918.385 Q205.232 918.385 207.037 914.843 Q208.866 911.279 208.866 904.172 Q208.866 897.043 207.037 893.501 Q205.232 889.936 201.598 889.936 M201.598 886.232 Q207.408 886.232 210.463 890.839 Q213.542 895.422 213.542 904.172 Q213.542 912.899 210.463 917.505 Q207.408 922.089 201.598 922.089 Q195.787 922.089 192.709 917.505 Q189.653 912.899 189.653 904.172 Q189.653 895.422 192.709 890.839 Q195.787 886.232 201.598 886.232 Z" fill="#000000" fill-rule="evenodd" fill-opacity="1" /><path clip-path="url(#clip420)" d="M127.2 605.852 Q123.589 605.852 121.76 609.417 Q119.955 612.959 119.955 620.088 Q119.955 627.195 121.76 630.76 Q123.589 634.301 127.2 634.301 Q130.834 634.301 132.64 630.76 Q134.468 627.195 134.468 620.088 Q134.468 612.959 132.64 609.417 Q130.834 605.852 127.2 605.852 M127.2 602.149 Q133.01 602.149 136.066 606.755 Q139.144 611.338 139.144 620.088 Q139.144 628.815 136.066 633.422 Q133.01 638.005 127.2 638.005 Q121.39 638.005 118.311 633.422 Q115.256 628.815 115.256 620.088 Q115.256 611.338 118.311 606.755 Q121.39 602.149 127.2 602.149 Z" fill="#000000" fill-rule="evenodd" fill-opacity="1" /><path clip-path="url(#clip420)" d="M147.362 631.454 L152.246 631.454 L152.246 637.334 L147.362 637.334 L147.362 631.454 Z" fill="#000000" fill-rule="evenodd" fill-opacity="1" /><path clip-path="url(#clip420)" d="M163.241 633.399 L170.88 633.399 L170.88 607.033 L162.57 608.7 L162.57 604.44 L170.834 602.774 L175.51 602.774 L175.51 633.399 L183.149 633.399 L183.149 637.334 L163.241 637.334 L163.241 633.399 Z" fill="#000000" fill-rule="evenodd" fill-opacity="1" /><path clip-path="url(#clip420)" d="M192.639 602.774 L210.996 602.774 L210.996 606.709 L196.922 606.709 L196.922 615.181 Q197.94 614.834 198.959 614.672 Q199.977 614.487 200.996 614.487 Q206.783 614.487 210.162 617.658 Q213.542 620.829 213.542 626.246 Q213.542 631.824 210.07 634.926 Q206.598 638.005 200.278 638.005 Q198.102 638.005 195.834 637.635 Q193.588 637.264 191.181 636.524 L191.181 631.824 Q193.264 632.959 195.487 633.514 Q197.709 634.07 200.186 634.07 Q204.19 634.07 206.528 631.963 Q208.866 629.857 208.866 626.246 Q208.866 622.635 206.528 620.528 Q204.19 618.422 200.186 618.422 Q198.311 618.422 196.436 618.838 Q194.584 619.255 192.639 620.135 L192.639 602.774 Z" fill="#000000" fill-rule="evenodd" fill-opacity="1" /><path clip-path="url(#clip420)" d="M126.205 321.769 Q122.593 321.769 120.765 325.333 Q118.959 328.875 118.959 336.005 Q118.959 343.111 120.765 346.676 Q122.593 350.218 126.205 350.218 Q129.839 350.218 131.644 346.676 Q133.473 343.111 133.473 336.005 Q133.473 328.875 131.644 325.333 Q129.839 321.769 126.205 321.769 M126.205 318.065 Q132.015 318.065 135.07 322.671 Q138.149 327.255 138.149 336.005 Q138.149 344.731 135.07 349.338 Q132.015 353.921 126.205 353.921 Q120.394 353.921 117.316 349.338 Q114.26 344.731 114.26 336.005 Q114.26 327.255 117.316 322.671 Q120.394 318.065 126.205 318.065 Z" fill="#000000" fill-rule="evenodd" fill-opacity="1" /><path clip-path="url(#clip420)" d="M146.366 347.37 L151.251 347.37 L151.251 353.25 L146.366 353.25 L146.366 347.37 Z" fill="#000000" fill-rule="evenodd" fill-opacity="1" /><path clip-path="url(#clip420)" d="M165.464 349.315 L181.783 349.315 L181.783 353.25 L159.839 353.25 L159.839 349.315 Q162.501 346.56 167.084 341.931 Q171.69 337.278 172.871 335.935 Q175.116 333.412 175.996 331.676 Q176.899 329.917 176.899 328.227 Q176.899 325.472 174.954 323.736 Q173.033 322 169.931 322 Q167.732 322 165.278 322.764 Q162.848 323.528 160.07 325.079 L160.07 320.357 Q162.894 319.222 165.348 318.644 Q167.802 318.065 169.839 318.065 Q175.209 318.065 178.403 320.75 Q181.598 323.435 181.598 327.926 Q181.598 330.056 180.788 331.977 Q180.001 333.875 177.894 336.468 Q177.315 337.139 174.214 340.356 Q171.112 343.551 165.464 349.315 Z" fill="#000000" fill-rule="evenodd" fill-opacity="1" /><path clip-path="url(#clip420)" d="M201.598 321.769 Q197.987 321.769 196.158 325.333 Q194.352 328.875 194.352 336.005 Q194.352 343.111 196.158 346.676 Q197.987 350.218 201.598 350.218 Q205.232 350.218 207.037 346.676 Q208.866 343.111 208.866 336.005 Q208.866 328.875 207.037 325.333 Q205.232 321.769 201.598 321.769 M201.598 318.065 Q207.408 318.065 210.463 322.671 Q213.542 327.255 213.542 336.005 Q213.542 344.731 210.463 349.338 Q207.408 353.921 201.598 353.921 Q195.787 353.921 192.709 349.338 Q189.653 344.731 189.653 336.005 Q189.653 327.255 192.709 322.671 Q195.787 318.065 201.598 318.065 Z" fill="#000000" fill-rule="evenodd" fill-opacity="1" /><path clip-path="url(#clip420)" d="M41.3104 1084.9 L58.7206 1084.9 L58.7206 1074.58 Q58.7206 1069.39 56.5881 1066.91 Q54.4238 1064.4 49.9996 1064.4 Q45.5436 1064.4 43.4429 1066.91 Q41.3104 1069.39 41.3104 1074.58 L41.3104 1084.9 M21.7677 1084.9 L36.0905 1084.9 L36.0905 1075.38 Q36.0905 1070.67 34.34 1068.38 Q32.5576 1066.05 28.9291 1066.05 Q25.3325 1066.05 23.5501 1068.38 Q21.7677 1070.67 21.7677 1075.38 L21.7677 1084.9 M16.4842 1091.32 L16.4842 1074.9 Q16.4842 1067.55 19.5397 1063.57 Q22.5952 1059.59 28.2289 1059.59 Q32.5894 1059.59 35.1675 1061.63 Q37.7456 1063.67 38.3822 1067.61 Q39.4007 1062.87 42.6472 1060.26 Q45.8619 1057.62 50.6998 1057.62 Q57.0655 1057.62 60.5348 1061.95 Q64.0042 1066.28 64.0042 1074.26 L64.0042 1091.32 L16.4842 1091.32 Z" fill="#000000" fill-rule="evenodd" fill-opacity="1" /><path clip-path="url(#clip420)" d="M32.4621 1033.05 Q32.4621 1037.76 36.1542 1040.49 Q39.8145 1043.23 46.212 1043.23 Q52.6095 1043.23 56.3017 1040.53 Q59.9619 1037.79 59.9619 1033.05 Q59.9619 1028.37 56.2698 1025.63 Q52.5777 1022.89 46.212 1022.89 Q39.8781 1022.89 36.186 1025.63 Q32.4621 1028.37 32.4621 1033.05 M27.4968 1033.05 Q27.4968 1025.41 32.4621 1021.05 Q37.4273 1016.69 46.212 1016.69 Q54.9649 1016.69 59.9619 1021.05 Q64.9272 1025.41 64.9272 1033.05 Q64.9272 1040.72 59.9619 1045.08 Q54.9649 1049.41 46.212 1049.41 Q37.4273 1049.41 32.4621 1045.08 Q27.4968 1040.72 27.4968 1033.05 Z" fill="#000000" fill-rule="evenodd" fill-opacity="1" /><path clip-path="url(#clip420)" d="M18.2347 1001.19 L28.3562 1001.19 L28.3562 989.123 L32.9077 989.123 L32.9077 1001.19 L52.2594 1001.19 Q56.6199 1001.19 57.8613 1000.01 Q59.1026 998.799 59.1026 995.139 L59.1026 989.123 L64.0042 989.123 L64.0042 995.139 Q64.0042 1001.92 61.4897 1004.5 Q58.9434 1007.07 52.2594 1007.07 L32.9077 1007.07 L32.9077 1011.37 L28.3562 1011.37 L28.3562 1007.07 L18.2347 1007.07 L18.2347 1001.19 Z" fill="#000000" fill-rule="evenodd" fill-opacity="1" /><path clip-path="url(#clip420)" d="M18.2347 975.628 L28.3562 975.628 L28.3562 963.565 L32.9077 963.565 L32.9077 975.628 L52.2594 975.628 Q56.6199 975.628 57.8613 974.45 Q59.1026 973.241 59.1026 969.581 L59.1026 963.565 L64.0042 963.565 L64.0042 969.581 Q64.0042 976.36 61.4897 978.938 Q58.9434 981.516 52.2594 981.516 L32.9077 981.516 L32.9077 985.813 L28.3562 985.813 L28.3562 981.516 L18.2347 981.516 L18.2347 975.628 Z" fill="#000000" fill-rule="evenodd" fill-opacity="1" /><path clip-path="url(#clip420)" d="M14.479 955.863 L14.479 950.006 L64.0042 950.006 L64.0042 955.863 L14.479 955.863 Z" fill="#000000" fill-rule="evenodd" fill-opacity="1" /><path clip-path="url(#clip420)" d="M44.7161 907.26 L47.5806 907.26 L47.5806 934.187 Q53.6281 933.805 56.8109 930.559 Q59.9619 927.281 59.9619 921.456 Q59.9619 918.082 59.1344 914.931 Q58.3069 911.748 56.6518 908.629 L62.1899 908.629 Q63.5267 911.78 64.227 915.09 Q64.9272 918.4 64.9272 921.806 Q64.9272 930.336 59.9619 935.333 Q54.9967 940.298 46.5303 940.298 Q37.7774 940.298 32.6531 935.588 Q27.4968 930.845 27.4968 922.825 Q27.4968 915.631 32.1438 911.462 Q36.7589 907.26 44.7161 907.26 M42.9973 913.117 Q38.1912 913.181 35.3266 915.822 Q32.4621 918.432 32.4621 922.761 Q32.4621 927.663 35.2312 930.623 Q38.0002 933.551 43.0292 933.996 L42.9973 913.117 Z" fill="#000000" fill-rule="evenodd" fill-opacity="1" /><path clip-path="url(#clip420)" d="M42.4881 868.016 L64.0042 868.016 L64.0042 873.872 L42.679 873.872 Q37.6183 873.872 35.1038 875.846 Q32.5894 877.819 32.5894 881.766 Q32.5894 886.508 35.6131 889.246 Q38.6368 891.983 43.8567 891.983 L64.0042 891.983 L64.0042 897.871 L28.3562 897.871 L28.3562 891.983 L33.8944 891.983 Q30.6797 889.882 29.0883 887.049 Q27.4968 884.185 27.4968 880.461 Q27.4968 874.318 31.3163 871.167 Q35.1038 868.016 42.4881 868.016 Z" fill="#000000" fill-rule="evenodd" fill-opacity="1" /><path clip-path="url(#clip420)" d="M44.7161 825.843 L47.5806 825.843 L47.5806 852.77 Q53.6281 852.388 56.8109 849.142 Q59.9619 845.863 59.9619 840.039 Q59.9619 836.665 59.1344 833.514 Q58.3069 830.331 56.6518 827.212 L62.1899 827.212 Q63.5267 830.363 64.227 833.673 Q64.9272 836.983 64.9272 840.389 Q64.9272 848.919 59.9619 853.916 Q54.9967 858.881 46.5303 858.881 Q37.7774 858.881 32.6531 854.17 Q27.4968 849.428 27.4968 841.407 Q27.4968 834.214 32.1438 830.044 Q36.7589 825.843 44.7161 825.843 M42.9973 831.7 Q38.1912 831.763 35.3266 834.405 Q32.4621 837.015 32.4621 841.344 Q32.4621 846.245 35.2312 849.205 Q38.0002 852.133 43.0292 852.579 L42.9973 831.7 Z" fill="#000000" fill-rule="evenodd" fill-opacity="1" /><path clip-path="url(#clip420)" d="M29.7248 790.577 L35.1993 790.577 Q33.8307 793.06 33.1623 795.574 Q32.4621 798.057 32.4621 800.603 Q32.4621 806.3 36.0905 809.451 Q39.6872 812.602 46.212 812.602 Q52.7369 812.602 56.3653 809.451 Q59.9619 806.3 59.9619 800.603 Q59.9619 798.057 59.2935 795.574 Q58.5933 793.06 57.2247 790.577 L62.6355 790.577 Q63.7814 793.028 64.3543 795.67 Q64.9272 798.28 64.9272 801.24 Q64.9272 809.292 59.8664 814.035 Q54.8057 818.777 46.212 818.777 Q37.491 818.777 32.4939 814.003 Q27.4968 809.197 27.4968 800.858 Q27.4968 798.152 28.0697 795.574 Q28.6108 792.996 29.7248 790.577 Z" fill="#000000" fill-rule="evenodd" fill-opacity="1" /><path clip-path="url(#clip420)" d="M14.479 780.615 L14.479 774.726 L43.7294 774.726 L28.3562 757.253 L28.3562 749.773 L45.0344 768.679 L64.0042 748.977 L64.0042 756.616 L46.5939 774.726 L64.0042 774.726 L64.0042 780.615 L14.479 780.615 Z" fill="#000000" fill-rule="evenodd" fill-opacity="1" /><path clip-path="url(#clip420)" d="M33.7671 698.465 L14.479 698.465 L14.479 692.609 L64.0042 692.609 L64.0042 698.465 L58.657 698.465 Q61.8398 700.311 63.3994 703.144 Q64.9272 705.945 64.9272 709.892 Q64.9272 716.353 59.771 720.427 Q54.6147 724.469 46.212 724.469 Q37.8093 724.469 32.6531 720.427 Q27.4968 716.353 27.4968 709.892 Q27.4968 705.945 29.0564 703.144 Q30.5842 700.311 33.7671 698.465 M46.212 718.422 Q52.6732 718.422 56.3653 715.78 Q60.0256 713.106 60.0256 708.459 Q60.0256 703.812 56.3653 701.139 Q52.6732 698.465 46.212 698.465 Q39.7508 698.465 36.0905 701.139 Q32.3984 703.812 32.3984 708.459 Q32.3984 713.106 36.0905 715.78 Q39.7508 718.422 46.212 718.422 Z" fill="#000000" fill-rule="evenodd" fill-opacity="1" /><path clip-path="url(#clip420)" d="M28.3562 680.546 L28.3562 674.689 L64.0042 674.689 L64.0042 680.546 L28.3562 680.546 M14.479 680.546 L14.479 674.689 L21.895 674.689 L21.895 680.546 L14.479 680.546 Z" fill="#000000" fill-rule="evenodd" fill-opacity="1" /><path clip-path="url(#clip420)" d="M29.4065 639.71 L34.9447 639.71 Q33.6716 642.192 33.035 644.866 Q32.3984 647.54 32.3984 650.404 Q32.3984 654.765 33.7352 656.961 Q35.072 659.125 37.7456 659.125 Q39.7826 659.125 40.9603 657.566 Q42.1061 656.006 43.1565 651.295 L43.6021 649.29 Q44.9389 643.052 47.3897 640.442 Q49.8086 637.8 54.1691 637.8 Q59.1344 637.8 62.0308 641.747 Q64.9272 645.662 64.9272 652.537 Q64.9272 655.401 64.3543 658.52 Q63.8132 661.608 62.6992 665.045 L56.6518 665.045 Q58.3387 661.799 59.198 658.648 Q60.0256 655.497 60.0256 652.409 Q60.0256 648.272 58.6251 646.044 Q57.1929 643.816 54.6147 643.816 Q52.2276 643.816 50.9545 645.439 Q49.6813 647.03 48.5037 652.473 L48.0262 654.51 Q46.8804 659.953 44.5251 662.372 Q42.138 664.791 38.0002 664.791 Q32.9713 664.791 30.2341 661.226 Q27.4968 657.661 27.4968 651.104 Q27.4968 647.858 27.9743 644.993 Q28.4517 642.129 29.4065 639.71 Z" fill="#000000" fill-rule="evenodd" fill-opacity="1" /><path clip-path="url(#clip420)" d="M18.2347 622.682 L28.3562 622.682 L28.3562 610.619 L32.9077 610.619 L32.9077 622.682 L52.2594 622.682 Q56.6199 622.682 57.8613 621.504 Q59.1026 620.294 59.1026 616.634 L59.1026 610.619 L64.0042 610.619 L64.0042 616.634 Q64.0042 623.414 61.4897 625.992 Q58.9434 628.57 52.2594 628.57 L32.9077 628.57 L32.9077 632.867 L28.3562 632.867 L28.3562 628.57 L18.2347 628.57 L18.2347 622.682 Z" fill="#000000" fill-rule="evenodd" fill-opacity="1" /><path clip-path="url(#clip420)" d="M46.0847 586.715 Q46.0847 593.813 47.7079 596.55 Q49.3312 599.288 53.2461 599.288 Q56.3653 599.288 58.2114 597.251 Q60.0256 595.182 60.0256 591.649 Q60.0256 586.779 56.5881 583.851 Q53.1188 580.891 47.3897 580.891 L46.0847 580.891 L46.0847 586.715 M43.6657 575.034 L64.0042 575.034 L64.0042 580.891 L58.5933 580.891 Q61.8398 582.896 63.3994 585.888 Q64.9272 588.88 64.9272 593.208 Q64.9272 598.683 61.8716 601.929 Q58.7843 605.144 53.6281 605.144 Q47.6125 605.144 44.5569 601.134 Q41.5014 597.091 41.5014 589.102 L41.5014 580.891 L40.9285 580.891 Q36.8862 580.891 34.6901 583.564 Q32.4621 586.206 32.4621 591.012 Q32.4621 594.068 33.1941 596.964 Q33.9262 599.86 35.3903 602.534 L29.9795 602.534 Q28.7381 599.319 28.1334 596.296 Q27.4968 593.272 27.4968 590.407 Q27.4968 582.673 31.5072 578.854 Q35.5176 575.034 43.6657 575.034 Z" fill="#000000" fill-rule="evenodd" fill-opacity="1" /><path clip-path="url(#clip420)" d="M42.4881 533.339 L64.0042 533.339 L64.0042 539.195 L42.679 539.195 Q37.6183 539.195 35.1038 541.169 Q32.5894 543.142 32.5894 547.089 Q32.5894 551.831 35.6131 554.568 Q38.6368 557.306 43.8567 557.306 L64.0042 557.306 L64.0042 563.194 L28.3562 563.194 L28.3562 557.306 L33.8944 557.306 Q30.6797 555.205 29.0883 552.372 Q27.4968 549.508 27.4968 545.784 Q27.4968 539.641 31.3163 536.49 Q35.1038 533.339 42.4881 533.339 Z" fill="#000000" fill-rule="evenodd" fill-opacity="1" /><path clip-path="url(#clip420)" d="M29.7248 496.004 L35.1993 496.004 Q33.8307 498.487 33.1623 501.001 Q32.4621 503.484 32.4621 506.03 Q32.4621 511.727 36.0905 514.878 Q39.6872 518.029 46.212 518.029 Q52.7369 518.029 56.3653 514.878 Q59.9619 511.727 59.9619 506.03 Q59.9619 503.484 59.2935 501.001 Q58.5933 498.487 57.2247 496.004 L62.6355 496.004 Q63.7814 498.455 64.3543 501.097 Q64.9272 503.706 64.9272 506.667 Q64.9272 514.719 59.8664 519.462 Q54.8057 524.204 46.212 524.204 Q37.491 524.204 32.4939 519.43 Q27.4968 514.624 27.4968 506.285 Q27.4968 503.579 28.0697 501.001 Q28.6108 498.423 29.7248 496.004 Z" fill="#000000" fill-rule="evenodd" fill-opacity="1" /><path clip-path="url(#clip420)" d="M44.7161 455.327 L47.5806 455.327 L47.5806 482.254 Q53.6281 481.872 56.8109 478.626 Q59.9619 475.347 59.9619 469.523 Q59.9619 466.149 59.1344 462.998 Q58.3069 459.815 56.6518 456.696 L62.1899 456.696 Q63.5267 459.847 64.227 463.157 Q64.9272 466.467 64.9272 469.873 Q64.9272 478.403 59.9619 483.4 Q54.9967 488.365 46.5303 488.365 Q37.7774 488.365 32.6531 483.655 Q27.4968 478.912 27.4968 470.891 Q27.4968 463.698 32.1438 459.528 Q36.7589 455.327 44.7161 455.327 M42.9973 461.184 Q38.1912 461.247 35.3266 463.889 Q32.4621 466.499 32.4621 470.828 Q32.4621 475.729 35.2312 478.689 Q38.0002 481.617 43.0292 482.063 L42.9973 461.184 Z" fill="#000000" fill-rule="evenodd" fill-opacity="1" /><path clip-path="url(#clip420)" d="M1142.45 34.4165 Q1140.96 33.8899 1139.46 33.4848 Q1135.45 32.4315 1131.15 32.4315 Q1123.74 32.4315 1119.61 36.4419 Q1115.76 40.1688 1115.03 47.0148 L1142.45 47.0148 L1142.45 52.8481 L1115.03 52.8481 Q1115.76 59.6941 1119.61 63.421 Q1123.74 67.4314 1131.15 67.4314 Q1136.34 67.4314 1139.46 66.3781 L1142.45 65.3654 L1142.45 72.1304 L1139.25 72.8596 Q1135.04 73.7508 1130.71 73.7508 Q1119.85 73.7508 1113.53 67.4314 Q1107.17 61.1119 1107.17 49.9314 Q1107.17 38.7509 1113.53 32.4315 Q1119.85 26.1121 1130.71 26.1121 Q1134.8 26.1121 1139.25 27.0033 Q1140.87 27.3274 1142.45 27.8135 L1142.45 34.4165 Z" fill="#000000" fill-rule="evenodd" fill-opacity="1" /><path clip-path="url(#clip420)" d="M1162.43 34.9026 L1214.36 34.9026 L1214.36 41.7081 L1162.43 41.7081 L1162.43 34.9026 M1162.43 51.4303 L1214.36 51.4303 L1214.36 58.3168 L1162.43 58.3168 L1162.43 51.4303 Z" fill="#000000" fill-rule="evenodd" fill-opacity="1" /><path clip-path="url(#clip420)" d="M1230.97 9.54393 L1238.42 9.54393 L1238.42 72.576 L1230.97 72.576 L1230.97 9.54393 Z" fill="#000000" fill-rule="evenodd" fill-opacity="1" /><path clip-path="url(#clip420)" d="M1271.6 32.4315 Q1265.6 32.4315 1262.12 37.1306 Q1258.63 41.7891 1258.63 49.9314 Q1258.63 58.0738 1262.08 62.7728 Q1265.56 67.4314 1271.6 67.4314 Q1277.55 67.4314 1281.04 62.7323 Q1284.52 58.0333 1284.52 49.9314 Q1284.52 41.8701 1281.04 37.1711 Q1277.55 32.4315 1271.6 32.4315 M1271.6 26.1121 Q1281.32 26.1121 1286.87 32.4315 Q1292.42 38.7509 1292.42 49.9314 Q1292.42 61.0714 1286.87 67.4314 Q1281.32 73.7508 1271.6 73.7508 Q1261.83 73.7508 1256.29 67.4314 Q1250.78 61.0714 1250.78 49.9314 Q1250.78 38.7509 1256.29 32.4315 Q1261.83 26.1121 1271.6 26.1121 Z" fill="#000000" fill-rule="evenodd" fill-opacity="1" /><path clip-path="url(#clip420)" d="M1334.63 49.3643 Q1334.63 41.2625 1331.27 36.8065 Q1327.95 32.3505 1321.91 32.3505 Q1315.91 32.3505 1312.55 36.8065 Q1309.23 41.2625 1309.23 49.3643 Q1309.23 57.4256 1312.55 61.8816 Q1315.91 66.3376 1321.91 66.3376 Q1327.95 66.3376 1331.27 61.8816 Q1334.63 57.4256 1334.63 49.3643 M1342.08 66.9452 Q1342.08 78.5308 1336.94 84.1616 Q1331.79 89.8329 1321.18 89.8329 Q1317.25 89.8329 1313.77 89.2252 Q1310.28 88.6581 1307 87.4428 L1307 80.1917 Q1310.28 81.9741 1313.48 82.8248 Q1316.68 83.6755 1320.01 83.6755 Q1327.34 83.6755 1330.98 79.8271 Q1334.63 76.0193 1334.63 68.282 L1334.63 64.5957 Q1332.32 68.6061 1328.72 70.5911 Q1325.11 72.576 1320.09 72.576 Q1311.74 72.576 1306.64 66.2161 Q1301.53 59.8562 1301.53 49.3643 Q1301.53 38.832 1306.64 32.472 Q1311.74 26.1121 1320.09 26.1121 Q1325.11 26.1121 1328.72 28.0971 Q1332.32 30.082 1334.63 34.0924 L1334.63 27.2059 L1342.08 27.2059 L1342.08 66.9452 Z" fill="#000000" fill-rule="evenodd" fill-opacity="1" /><path clip-path="url(#clip420)" d="M1354.36 10.2326 L1359.1 10.2326 L1359.1 31.0542 L1373.11 20.1168 L1379.11 20.1168 L1363.92 31.9859 L1379.72 45.516 L1373.6 45.516 L1359.1 33.1202 L1359.1 45.516 L1354.36 45.516 L1354.36 10.2326 Z" fill="#000000" fill-rule="evenodd" fill-opacity="1" /><path clip-path="url(#clip420)" d="M1410.67 9.62495 Q1405.24 18.942 1402.6 28.0566 Q1399.97 37.1711 1399.97 46.5287 Q1399.97 55.8863 1402.6 65.0818 Q1405.28 74.2369 1410.67 83.5134 L1404.18 83.5134 Q1398.11 73.9938 1395.07 64.7983 Q1392.07 55.6027 1392.07 46.5287 Q1392.07 37.4952 1395.07 28.3401 Q1398.07 19.1851 1404.18 9.62495 L1410.67 9.62495 Z" fill="#000000" fill-rule="evenodd" fill-opacity="1" /><path clip-path="url(#clip420)" d="M1462.84 45.1919 L1462.84 72.576 L1455.39 72.576 L1455.39 45.4349 Q1455.39 38.994 1452.88 35.7938 Q1450.36 32.5936 1445.34 32.5936 Q1439.31 32.5936 1435.82 36.4419 Q1432.34 40.2903 1432.34 46.9338 L1432.34 72.576 L1424.84 72.576 L1424.84 27.2059 L1432.34 27.2059 L1432.34 34.2544 Q1435.01 30.163 1438.62 28.1376 Q1442.26 26.1121 1447 26.1121 Q1454.82 26.1121 1458.83 30.9732 Q1462.84 35.7938 1462.84 45.1919 Z" fill="#000000" fill-rule="evenodd" fill-opacity="1" /><path clip-path="url(#clip420)" d="M1476.53 9.62495 L1483.01 9.62495 Q1489.09 19.1851 1492.09 28.3401 Q1495.13 37.4952 1495.13 46.5287 Q1495.13 55.6027 1492.09 64.7983 Q1489.09 73.9938 1483.01 83.5134 L1476.53 83.5134 Q1481.92 74.2369 1484.55 65.0818 Q1487.23 55.8863 1487.23 46.5287 Q1487.23 37.1711 1484.55 28.0566 Q1481.92 18.942 1476.53 9.62495 Z" fill="#000000" fill-rule="evenodd" fill-opacity="1" /><polyline clip-path="url(#clip422)" style="stroke:#009af9; stroke-linecap:butt; stroke-linejoin:round; stroke-width:8; stroke-opacity:1; fill:none" points="
  309.067,160.256 489.446,652.777 850.203,569.192 2293.23,1209.97 
  "/>
<path clip-path="url(#clip422)" d="M309.067 176.256 L297.755 171.568 L293.067 160.256 L297.755 148.944 L309.067 144.256 L320.379 148.944 L325.067 160.256 L320.379 171.568 Z" fill="#009af9" fill-rule="evenodd" fill-opacity="1" stroke="#000000" stroke-opacity="1" stroke-width="3.2"/>
<path clip-path="url(#clip422)" d="M489.446 668.777 L478.134 664.089 L473.446 652.777 L478.134 641.465 L489.446 636.777 L500.758 641.465 L505.446 652.777 L500.758 664.089 Z" fill="#009af9" fill-rule="evenodd" fill-opacity="1" stroke="#000000" stroke-opacity="1" stroke-width="3.2"/>
<path clip-path="url(#clip422)" d="M850.203 585.192 L838.891 580.504 L834.203 569.192 L838.891 557.88 L850.203 553.192 L861.515 557.88 L866.203 569.192 L861.515 580.504 Z" fill="#009af9" fill-rule="evenodd" fill-opacity="1" stroke="#000000" stroke-opacity="1" stroke-width="3.2"/>
<path clip-path="url(#clip422)" d="M2293.23 1225.97 L2281.92 1221.28 L2277.23 1209.97 L2281.92 1198.66 L2293.23 1193.97 L2304.54 1198.66 L2309.23 1209.97 L2304.54 1221.28 Z" fill="#009af9" fill-rule="evenodd" fill-opacity="1" stroke="#000000" stroke-opacity="1" stroke-width="3.2"/>
<polyline clip-path="url(#clip422)" style="stroke:#e26f46; stroke-linecap:butt; stroke-linejoin:round; stroke-width:8; stroke-opacity:1; fill:none" points="
  309.067,697.942 489.446,795.15 850.203,1107.4 2293.23,1304.64 
  "/>
<path clip-path="url(#clip422)" d="M309.067 713.942 L297.755 709.254 L293.067 697.942 L297.755 686.63 L309.067 681.942 L320.379 686.63 L325.067 697.942 L320.379 709.254 Z" fill="#e26f46" fill-rule="evenodd" fill-opacity="1" stroke="#000000" stroke-opacity="1" stroke-width="3.2"/>
<path clip-path="url(#clip422)" d="M489.446 811.15 L478.134 806.462 L473.446 795.15 L478.134 783.838 L489.446 779.15 L500.758 783.838 L505.446 795.15 L500.758 806.462 Z" fill="#e26f46" fill-rule="evenodd" fill-opacity="1" stroke="#000000" stroke-opacity="1" stroke-width="3.2"/>
<path clip-path="url(#clip422)" d="M850.203 1123.4 L838.891 1118.71 L834.203 1107.4 L838.891 1096.08 L850.203 1091.4 L861.515 1096.08 L866.203 1107.4 L861.515 1118.71 Z" fill="#e26f46" fill-rule="evenodd" fill-opacity="1" stroke="#000000" stroke-opacity="1" stroke-width="3.2"/>
<path clip-path="url(#clip422)" d="M2293.23 1320.64 L2281.92 1315.95 L2277.23 1304.64 L2281.92 1293.32 L2293.23 1288.64 L2304.54 1293.32 L2309.23 1304.64 L2304.54 1315.95 Z" fill="#e26f46" fill-rule="evenodd" fill-opacity="1" stroke="#000000" stroke-opacity="1" stroke-width="3.2"/>
<polyline clip-path="url(#clip422)" style="stroke:#3da44d; stroke-linecap:butt; stroke-linejoin:round; stroke-width:8; stroke-opacity:1; fill:none" points="
  309.067,997.157 489.446,1204.99 850.203,1226.6 2293.23,1386.4 
  "/>
<path clip-path="url(#clip422)" d="M309.067 1013.16 L297.755 1008.47 L293.067 997.157 L297.755 985.845 L309.067 981.157 L320.379 985.845 L325.067 997.157 L320.379 1008.47 Z" fill="#3da44d" fill-rule="evenodd" fill-opacity="1" stroke="#000000" stroke-opacity="1" stroke-width="3.2"/>
<path clip-path="url(#clip422)" d="M489.446 1220.99 L478.134 1216.3 L473.446 1204.99 L478.134 1193.68 L489.446 1188.99 L500.758 1193.68 L505.446 1204.99 L500.758 1216.3 Z" fill="#3da44d" fill-rule="evenodd" fill-opacity="1" stroke="#000000" stroke-opacity="1" stroke-width="3.2"/>
<path clip-path="url(#clip422)" d="M850.203 1242.6 L838.891 1237.91 L834.203 1226.6 L838.891 1215.29 L850.203 1210.6 L861.515 1215.29 L866.203 1226.6 L861.515 1237.91 Z" fill="#3da44d" fill-rule="evenodd" fill-opacity="1" stroke="#000000" stroke-opacity="1" stroke-width="3.2"/>
<path clip-path="url(#clip422)" d="M2293.23 1402.4 L2281.92 1397.71 L2277.23 1386.4 L2281.92 1375.08 L2293.23 1370.4 L2304.54 1375.08 L2309.23 1386.4 L2304.54 1397.71 Z" fill="#3da44d" fill-rule="evenodd" fill-opacity="1" stroke="#000000" stroke-opacity="1" stroke-width="3.2"/>
<path clip-path="url(#clip420)" d="
M1883.52 374.156 L2282.65 374.156 L2282.65 166.796 L1883.52 166.796  Z
  " fill="#ffffff" fill-rule="evenodd" fill-opacity="1"/>
<polyline clip-path="url(#clip420)" style="stroke:#000000; stroke-linecap:butt; stroke-linejoin:round; stroke-width:4; stroke-opacity:1; fill:none" points="
  1883.52,374.156 2282.65,374.156 2282.65,166.796 1883.52,166.796 1883.52,374.156 
  "/>
<polyline clip-path="url(#clip420)" style="stroke:#009af9; stroke-linecap:butt; stroke-linejoin:round; stroke-width:4; stroke-opacity:1; fill:none" points="
  1906.89,218.636 2047.1,218.636 
  "/>
<path clip-path="url(#clip420)" d="M1977 244.236 L1958.9 236.735 L1951.4 218.636 L1958.9 200.537 L1977 193.036 L1995.09 200.537 L2002.6 218.636 L1995.09 236.735 Z" fill="#009af9" fill-rule="evenodd" fill-opacity="1" stroke="#000000" stroke-opacity="1" stroke-width="5.12"/>
<path clip-path="url(#clip420)" d="M2070.47 199.897 L2074.75 199.897 L2074.75 221.17 L2087.46 209.99 L2092.9 209.99 L2079.15 222.119 L2093.48 235.916 L2087.93 235.916 L2074.75 223.254 L2074.75 235.916 L2070.47 235.916 L2070.47 199.897 Z" fill="#000000" fill-rule="evenodd" fill-opacity="1" /><path clip-path="url(#clip420)" d="M2098.64 214.388 L2128.32 214.388 L2128.32 218.277 L2098.64 218.277 L2098.64 214.388 M2098.64 223.832 L2128.32 223.832 L2128.32 227.768 L2098.64 227.768 L2098.64 223.832 Z" fill="#000000" fill-rule="evenodd" fill-opacity="1" /><path clip-path="url(#clip420)" d="M2148.41 204.434 Q2144.8 204.434 2142.97 207.999 Q2141.17 211.541 2141.17 218.67 Q2141.17 225.777 2142.97 229.342 Q2144.8 232.883 2148.41 232.883 Q2152.05 232.883 2153.85 229.342 Q2155.68 225.777 2155.68 218.67 Q2155.68 211.541 2153.85 207.999 Q2152.05 204.434 2148.41 204.434 M2148.41 200.731 Q2154.22 200.731 2157.28 205.337 Q2160.36 209.92 2160.36 218.67 Q2160.36 227.397 2157.28 232.004 Q2154.22 236.587 2148.41 236.587 Q2142.6 236.587 2139.52 232.004 Q2136.47 227.397 2136.47 218.67 Q2136.47 209.92 2139.52 205.337 Q2142.6 200.731 2148.41 200.731 Z" fill="#000000" fill-rule="evenodd" fill-opacity="1" /><path clip-path="url(#clip420)" d="M2168.57 230.036 L2173.46 230.036 L2173.46 235.916 L2168.57 235.916 L2168.57 230.036 Z" fill="#000000" fill-rule="evenodd" fill-opacity="1" /><path clip-path="url(#clip420)" d="M2183.69 201.356 L2202.05 201.356 L2202.05 205.291 L2187.97 205.291 L2187.97 213.763 Q2188.99 213.416 2190.01 213.254 Q2191.03 213.069 2192.05 213.069 Q2197.83 213.069 2201.21 216.24 Q2204.59 219.411 2204.59 224.828 Q2204.59 230.406 2201.12 233.508 Q2197.65 236.587 2191.33 236.587 Q2189.15 236.587 2186.88 236.217 Q2184.64 235.846 2182.23 235.106 L2182.23 230.406 Q2184.31 231.541 2186.54 232.096 Q2188.76 232.652 2191.24 232.652 Q2195.24 232.652 2197.58 230.545 Q2199.92 228.439 2199.92 224.828 Q2199.92 221.217 2197.58 219.11 Q2195.24 217.004 2191.24 217.004 Q2189.36 217.004 2187.49 217.42 Q2185.63 217.837 2183.69 218.717 L2183.69 201.356 Z" fill="#000000" fill-rule="evenodd" fill-opacity="1" /><path clip-path="url(#clip420)" d="M2223.8 204.434 Q2220.19 204.434 2218.36 207.999 Q2216.56 211.541 2216.56 218.67 Q2216.56 225.777 2218.36 229.342 Q2220.19 232.883 2223.8 232.883 Q2227.44 232.883 2229.24 229.342 Q2231.07 225.777 2231.07 218.67 Q2231.07 211.541 2229.24 207.999 Q2227.44 204.434 2223.8 204.434 M2223.8 200.731 Q2229.61 200.731 2232.67 205.337 Q2235.75 209.92 2235.75 218.67 Q2235.75 227.397 2232.67 232.004 Q2229.61 236.587 2223.8 236.587 Q2217.99 236.587 2214.92 232.004 Q2211.86 227.397 2211.86 218.67 Q2211.86 209.92 2214.92 205.337 Q2217.99 200.731 2223.8 200.731 Z" fill="#000000" fill-rule="evenodd" fill-opacity="1" /><polyline clip-path="url(#clip420)" style="stroke:#e26f46; stroke-linecap:butt; stroke-linejoin:round; stroke-width:4; stroke-opacity:1; fill:none" points="
  1906.89,270.476 2047.1,270.476 
  "/>
<path clip-path="url(#clip420)" d="M1977 296.076 L1958.9 288.575 L1951.4 270.476 L1958.9 252.377 L1977 244.876 L1995.09 252.377 L2002.6 270.476 L1995.09 288.575 Z" fill="#e26f46" fill-rule="evenodd" fill-opacity="1" stroke="#000000" stroke-opacity="1" stroke-width="5.12"/>
<path clip-path="url(#clip420)" d="M2070.47 251.737 L2074.75 251.737 L2074.75 273.01 L2087.46 261.83 L2092.9 261.83 L2079.15 273.959 L2093.48 287.756 L2087.93 287.756 L2074.75 275.094 L2074.75 287.756 L2070.47 287.756 L2070.47 251.737 Z" fill="#000000" fill-rule="evenodd" fill-opacity="1" /><path clip-path="url(#clip420)" d="M2098.64 266.228 L2128.32 266.228 L2128.32 270.117 L2098.64 270.117 L2098.64 266.228 M2098.64 275.672 L2128.32 275.672 L2128.32 279.608 L2098.64 279.608 L2098.64 275.672 Z" fill="#000000" fill-rule="evenodd" fill-opacity="1" /><path clip-path="url(#clip420)" d="M2148.41 256.274 Q2144.8 256.274 2142.97 259.839 Q2141.17 263.381 2141.17 270.51 Q2141.17 277.617 2142.97 281.182 Q2144.8 284.723 2148.41 284.723 Q2152.05 284.723 2153.85 281.182 Q2155.68 277.617 2155.68 270.51 Q2155.68 263.381 2153.85 259.839 Q2152.05 256.274 2148.41 256.274 M2148.41 252.571 Q2154.22 252.571 2157.28 257.177 Q2160.36 261.76 2160.36 270.51 Q2160.36 279.237 2157.28 283.844 Q2154.22 288.427 2148.41 288.427 Q2142.6 288.427 2139.52 283.844 Q2136.47 279.237 2136.47 270.51 Q2136.47 261.76 2139.52 257.177 Q2142.6 252.571 2148.41 252.571 Z" fill="#000000" fill-rule="evenodd" fill-opacity="1" /><path clip-path="url(#clip420)" d="M2168.57 281.876 L2173.46 281.876 L2173.46 287.756 L2168.57 287.756 L2168.57 281.876 Z" fill="#000000" fill-rule="evenodd" fill-opacity="1" /><path clip-path="url(#clip420)" d="M2194.22 268.612 Q2191.07 268.612 2189.22 270.765 Q2187.39 272.918 2187.39 276.668 Q2187.39 280.395 2189.22 282.571 Q2191.07 284.723 2194.22 284.723 Q2197.37 284.723 2199.2 282.571 Q2201.05 280.395 2201.05 276.668 Q2201.05 272.918 2199.2 270.765 Q2197.37 268.612 2194.22 268.612 M2203.5 253.96 L2203.5 258.219 Q2201.74 257.386 2199.94 256.946 Q2198.16 256.506 2196.4 256.506 Q2191.77 256.506 2189.31 259.631 Q2186.88 262.756 2186.54 269.075 Q2187.9 267.061 2189.96 265.997 Q2192.02 264.909 2194.5 264.909 Q2199.71 264.909 2202.72 268.08 Q2205.75 271.228 2205.75 276.668 Q2205.75 281.992 2202.6 285.209 Q2199.45 288.427 2194.22 288.427 Q2188.23 288.427 2185.05 283.844 Q2181.88 279.237 2181.88 270.51 Q2181.88 262.316 2185.77 257.455 Q2189.66 252.571 2196.21 252.571 Q2197.97 252.571 2199.75 252.918 Q2201.56 253.265 2203.5 253.96 Z" fill="#000000" fill-rule="evenodd" fill-opacity="1" /><path clip-path="url(#clip420)" d="M2224.38 268.612 Q2221.23 268.612 2219.38 270.765 Q2217.55 272.918 2217.55 276.668 Q2217.55 280.395 2219.38 282.571 Q2221.23 284.723 2224.38 284.723 Q2227.53 284.723 2229.36 282.571 Q2231.21 280.395 2231.21 276.668 Q2231.21 272.918 2229.36 270.765 Q2227.53 268.612 2224.38 268.612 M2233.67 253.96 L2233.67 258.219 Q2231.91 257.386 2230.1 256.946 Q2228.32 256.506 2226.56 256.506 Q2221.93 256.506 2219.48 259.631 Q2217.05 262.756 2216.7 269.075 Q2218.06 267.061 2220.12 265.997 Q2222.18 264.909 2224.66 264.909 Q2229.87 264.909 2232.88 268.08 Q2235.91 271.228 2235.91 276.668 Q2235.91 281.992 2232.76 285.209 Q2229.61 288.427 2224.38 288.427 Q2218.39 288.427 2215.22 283.844 Q2212.05 279.237 2212.05 270.51 Q2212.05 262.316 2215.93 257.455 Q2219.82 252.571 2226.37 252.571 Q2228.13 252.571 2229.92 252.918 Q2231.72 253.265 2233.67 253.96 Z" fill="#000000" fill-rule="evenodd" fill-opacity="1" /><polyline clip-path="url(#clip420)" style="stroke:#3da44d; stroke-linecap:butt; stroke-linejoin:round; stroke-width:4; stroke-opacity:1; fill:none" points="
  1906.89,322.316 2047.1,322.316 
  "/>
<path clip-path="url(#clip420)" d="M1977 347.916 L1958.9 340.415 L1951.4 322.316 L1958.9 304.217 L1977 296.716 L1995.09 304.217 L2002.6 322.316 L1995.09 340.415 Z" fill="#3da44d" fill-rule="evenodd" fill-opacity="1" stroke="#000000" stroke-opacity="1" stroke-width="5.12"/>
<path clip-path="url(#clip420)" d="M2070.47 303.577 L2074.75 303.577 L2074.75 324.85 L2087.46 313.67 L2092.9 313.67 L2079.15 325.799 L2093.48 339.596 L2087.93 339.596 L2074.75 326.934 L2074.75 339.596 L2070.47 339.596 L2070.47 303.577 Z" fill="#000000" fill-rule="evenodd" fill-opacity="1" /><path clip-path="url(#clip420)" d="M2098.64 318.068 L2128.32 318.068 L2128.32 321.957 L2098.64 321.957 L2098.64 318.068 M2098.64 327.512 L2128.32 327.512 L2128.32 331.448 L2098.64 331.448 L2098.64 327.512 Z" fill="#000000" fill-rule="evenodd" fill-opacity="1" /><path clip-path="url(#clip420)" d="M2148.41 308.114 Q2144.8 308.114 2142.97 311.679 Q2141.17 315.221 2141.17 322.35 Q2141.17 329.457 2142.97 333.022 Q2144.8 336.563 2148.41 336.563 Q2152.05 336.563 2153.85 333.022 Q2155.68 329.457 2155.68 322.35 Q2155.68 315.221 2153.85 311.679 Q2152.05 308.114 2148.41 308.114 M2148.41 304.411 Q2154.22 304.411 2157.28 309.017 Q2160.36 313.6 2160.36 322.35 Q2160.36 331.077 2157.28 335.684 Q2154.22 340.267 2148.41 340.267 Q2142.6 340.267 2139.52 335.684 Q2136.47 331.077 2136.47 322.35 Q2136.47 313.6 2139.52 309.017 Q2142.6 304.411 2148.41 304.411 Z" fill="#000000" fill-rule="evenodd" fill-opacity="1" /><path clip-path="url(#clip420)" d="M2168.57 333.716 L2173.46 333.716 L2173.46 339.596 L2168.57 339.596 L2168.57 333.716 Z" fill="#000000" fill-rule="evenodd" fill-opacity="1" /><path clip-path="url(#clip420)" d="M2183.78 338.878 L2183.78 334.619 Q2185.54 335.452 2187.35 335.892 Q2189.15 336.332 2190.89 336.332 Q2195.52 336.332 2197.95 333.23 Q2200.4 330.105 2200.75 323.762 Q2199.41 325.753 2197.35 326.818 Q2195.29 327.883 2192.79 327.883 Q2187.6 327.883 2184.57 324.758 Q2181.56 321.61 2181.56 316.17 Q2181.56 310.846 2184.71 307.628 Q2187.86 304.411 2193.09 304.411 Q2199.08 304.411 2202.23 309.017 Q2205.4 313.6 2205.4 322.35 Q2205.4 330.522 2201.51 335.406 Q2197.65 340.267 2191.1 340.267 Q2189.34 340.267 2187.53 339.92 Q2185.73 339.573 2183.78 338.878 M2193.09 324.225 Q2196.23 324.225 2198.06 322.073 Q2199.92 319.92 2199.92 316.17 Q2199.92 312.443 2198.06 310.29 Q2196.23 308.114 2193.09 308.114 Q2189.94 308.114 2188.09 310.29 Q2186.26 312.443 2186.26 316.17 Q2186.26 319.92 2188.09 322.073 Q2189.94 324.225 2193.09 324.225 Z" fill="#000000" fill-rule="evenodd" fill-opacity="1" /><path clip-path="url(#clip420)" d="M2223.8 308.114 Q2220.19 308.114 2218.36 311.679 Q2216.56 315.221 2216.56 322.35 Q2216.56 329.457 2218.36 333.022 Q2220.19 336.563 2223.8 336.563 Q2227.44 336.563 2229.24 333.022 Q2231.07 329.457 2231.07 322.35 Q2231.07 315.221 2229.24 311.679 Q2227.44 308.114 2223.8 308.114 M2223.8 304.411 Q2229.61 304.411 2232.67 309.017 Q2235.75 313.6 2235.75 322.35 Q2235.75 331.077 2232.67 335.684 Q2229.61 340.267 2223.8 340.267 Q2217.99 340.267 2214.92 335.684 Q2211.86 331.077 2211.86 322.35 Q2211.86 313.6 2214.92 309.017 Q2217.99 304.411 2223.8 304.411 Z" fill="#000000" fill-rule="evenodd" fill-opacity="1" /></svg>
