<?xml version="1.0" encoding="utf-8"?>
<svg xmlns="http://www.w3.org/2000/svg" xmlns:xlink="http://www.w3.org/1999/xlink" width="600" height="400" viewBox="0 0 2400 1600">
<defs>
  <clipPath id="clip070">
    <rect x="0" y="0" width="2400" height="1600"/>
  </clipPath>
</defs>
<path clip-path="url(#clip070)" d="
M0 1600 L2400 1600 L2400 0 L0 0  Z
  " fill="#ffffff" fill-rule="evenodd" fill-opacity="1"/>
<defs>
  <clipPath id="clip071">
    <rect x="480" y="0" width="1681" height="1600"/>
  </clipPath>
</defs>
<path clip-path="url(#clip070)" d="
M249.542 1423.18 L2352.76 1423.18 L2352.76 123.472 L249.542 123.472  Z
  " fill="#ffffff" fill-rule="evenodd" fill-opacity="1"/>
<defs>
  <clipPath id="clip072">
    <rect x="249" y="123" width="2104" height="1301"/>
  </clipPath>
</defs>
<polyline clip-path="url(#clip072)" style="stroke:#000000; stroke-linecap:butt; stroke-linejoin:round; stroke-width:2; stroke-opacity:0.1; fill:none" points="
  622.356,1423.18 622.356,123.472 
  "/>
<polyline clip-path="url(#clip072)" style="stroke:#000000; stroke-linecap:butt; stroke-linejoin:round; stroke-width:2; stroke-opacity:0.1; fill:none" points="
  1040.07,1423.18 1040.07,123.472 
  "/>
<polyline clip-path="url(#clip072)" style="stroke:#000000; stroke-linecap:butt; stroke-linejoin:round; stroke-width:2; stroke-opacity:0.1; fill:none" points="
  1457.79,1423.18 1457.79,123.472 
  "/>
<polyline clip-path="url(#clip072)" style="stroke:#000000; stroke-linecap:butt; stroke-linejoin:round; stroke-width:2; stroke-opacity:0.1; fill:none" points="
  1875.51,1423.18 1875.51,123.472 
  "/>
<polyline clip-path="url(#clip072)" style="stroke:#000000; stroke-linecap:butt; stroke-linejoin:round; stroke-width:2; stroke-opacity:0.1; fill:none" points="
  2293.23,1423.18 2293.23,123.472 
  "/>
<polyline clip-path="url(#clip070)" style="stroke:#000000; stroke-linecap:butt; stroke-linejoin:round; stroke-width:4; stroke-opacity:1; fill:none" points="
  249.542,1423.18 2352.76,1423.18 
  "/>
<polyline clip-path="url(#clip070)" style="stroke:#000000; stroke-linecap:butt; stroke-linejoin:round; stroke-width:4; stroke-opacity:1; fill:none" points="
  622.356,1423.18 622.356,1404.28 
  "/>
<polyline clip-path="url(#clip070)" style="stroke:#000000; stroke-linecap:butt; stroke-linejoin:round; stroke-width:4; stroke-opacity:1; fill:none" points="
  1040.07,1423.18 1040.07,1404.28 
  "/>
<polyline clip-path="url(#clip070)" style="stroke:#000000; stroke-linecap:butt; stroke-linejoin:round; stroke-width:4; stroke-opacity:1; fill:none" points="
  1457.79,1423.18 1457.79,1404.28 
  "/>
<polyline clip-path="url(#clip070)" style="stroke:#000000; stroke-linecap:butt; stroke-linejoin:round; stroke-width:4; stroke-opacity:1; fill:none" points="
  1875.51,1423.18 1875.51,1404.28 
  "/>
<polyline clip-path="url(#clip070)" style="stroke:#000000; stroke-linecap:butt; stroke-linejoin:round; stroke-width:4; stroke-opacity:1; fill:none" points="
  2293.23,1423.18 2293.23,1404.28 
  "/>
<path clip-path="url(#clip070)" d="M586.048 1481.64 L602.368 1481.64 L602.368 1485.58 L580.423 1485.58 L580.423 1481.64 Q583.085 1478.89 587.669 1474.26 Q592.275 1469.61 593.456 1468.27 Q595.701 1465.74 596.581 1464.01 Q597.483 1462.25 597.483 1460.56 Q597.483 1457.8 595.539 1456.07 Q593.618 1454.33 590.516 1454.33 Q588.317 1454.33 585.863 1455.09 Q583.433 1455.86 580.655 1457.41 L580.655 1452.69 Q583.479 1451.55 585.933 1450.97 Q588.386 1450.39 590.423 1450.39 Q595.794 1450.39 598.988 1453.08 Q602.183 1455.77 602.183 1460.26 Q602.183 1462.39 601.372 1464.31 Q600.585 1466.2 598.479 1468.8 Q597.9 1469.47 594.798 1472.69 Q591.696 1475.88 586.048 1481.64 Z" fill="#000000" fill-rule="evenodd" fill-opacity="1" /><path clip-path="url(#clip070)" d="M622.182 1454.1 Q618.571 1454.1 616.743 1457.66 Q614.937 1461.2 614.937 1468.33 Q614.937 1475.44 616.743 1479.01 Q618.571 1482.55 622.182 1482.55 Q625.817 1482.55 627.622 1479.01 Q629.451 1475.44 629.451 1468.33 Q629.451 1461.2 627.622 1457.66 Q625.817 1454.1 622.182 1454.1 M622.182 1450.39 Q627.993 1450.39 631.048 1455 Q634.127 1459.58 634.127 1468.33 Q634.127 1477.06 631.048 1481.67 Q627.993 1486.25 622.182 1486.25 Q616.372 1486.25 613.294 1481.67 Q610.238 1477.06 610.238 1468.33 Q610.238 1459.58 613.294 1455 Q616.372 1450.39 622.182 1450.39 Z" fill="#000000" fill-rule="evenodd" fill-opacity="1" /><path clip-path="url(#clip070)" d="M652.344 1454.1 Q648.733 1454.1 646.904 1457.66 Q645.099 1461.2 645.099 1468.33 Q645.099 1475.44 646.904 1479.01 Q648.733 1482.55 652.344 1482.55 Q655.979 1482.55 657.784 1479.01 Q659.613 1475.44 659.613 1468.33 Q659.613 1461.2 657.784 1457.66 Q655.979 1454.1 652.344 1454.1 M652.344 1450.39 Q658.154 1450.39 661.21 1455 Q664.289 1459.58 664.289 1468.33 Q664.289 1477.06 661.21 1481.67 Q658.154 1486.25 652.344 1486.25 Q646.534 1486.25 643.455 1481.67 Q640.4 1477.06 640.4 1468.33 Q640.4 1459.58 643.455 1455 Q646.534 1450.39 652.344 1450.39 Z" fill="#000000" fill-rule="evenodd" fill-opacity="1" /><path clip-path="url(#clip070)" d="M1013.17 1455.09 L1001.36 1473.54 L1013.17 1473.54 L1013.17 1455.09 M1011.94 1451.02 L1017.82 1451.02 L1017.82 1473.54 L1022.75 1473.54 L1022.75 1477.43 L1017.82 1477.43 L1017.82 1485.58 L1013.17 1485.58 L1013.17 1477.43 L997.563 1477.43 L997.563 1472.92 L1011.94 1451.02 Z" fill="#000000" fill-rule="evenodd" fill-opacity="1" /><path clip-path="url(#clip070)" d="M1040.48 1454.1 Q1036.87 1454.1 1035.04 1457.66 Q1033.23 1461.2 1033.23 1468.33 Q1033.23 1475.44 1035.04 1479.01 Q1036.87 1482.55 1040.48 1482.55 Q1044.11 1482.55 1045.92 1479.01 Q1047.75 1475.44 1047.75 1468.33 Q1047.75 1461.2 1045.92 1457.66 Q1044.11 1454.1 1040.48 1454.1 M1040.48 1450.39 Q1046.29 1450.39 1049.35 1455 Q1052.42 1459.58 1052.42 1468.33 Q1052.42 1477.06 1049.35 1481.67 Q1046.29 1486.25 1040.48 1486.25 Q1034.67 1486.25 1031.59 1481.67 Q1028.54 1477.06 1028.54 1468.33 Q1028.54 1459.58 1031.59 1455 Q1034.67 1450.39 1040.48 1450.39 Z" fill="#000000" fill-rule="evenodd" fill-opacity="1" /><path clip-path="url(#clip070)" d="M1070.64 1454.1 Q1067.03 1454.1 1065.2 1457.66 Q1063.4 1461.2 1063.4 1468.33 Q1063.4 1475.44 1065.2 1479.01 Q1067.03 1482.55 1070.64 1482.55 Q1074.28 1482.55 1076.08 1479.01 Q1077.91 1475.44 1077.91 1468.33 Q1077.91 1461.2 1076.08 1457.66 Q1074.28 1454.1 1070.64 1454.1 M1070.64 1450.39 Q1076.45 1450.39 1079.51 1455 Q1082.59 1459.58 1082.59 1468.33 Q1082.59 1477.06 1079.51 1481.67 Q1076.45 1486.25 1070.64 1486.25 Q1064.83 1486.25 1061.75 1481.67 Q1058.7 1477.06 1058.7 1468.33 Q1058.7 1459.58 1061.75 1455 Q1064.83 1450.39 1070.64 1450.39 Z" fill="#000000" fill-rule="evenodd" fill-opacity="1" /><path clip-path="url(#clip070)" d="M1428.12 1466.44 Q1424.97 1466.44 1423.12 1468.59 Q1421.29 1470.74 1421.29 1474.49 Q1421.29 1478.22 1423.12 1480.39 Q1424.97 1482.55 1428.12 1482.55 Q1431.27 1482.55 1433.09 1480.39 Q1434.95 1478.22 1434.95 1474.49 Q1434.95 1470.74 1433.09 1468.59 Q1431.27 1466.44 1428.12 1466.44 M1437.4 1451.78 L1437.4 1456.04 Q1435.64 1455.21 1433.84 1454.77 Q1432.05 1454.33 1430.29 1454.33 Q1425.66 1454.33 1423.21 1457.45 Q1420.78 1460.58 1420.43 1466.9 Q1421.8 1464.89 1423.86 1463.82 Q1425.92 1462.73 1428.4 1462.73 Q1433.6 1462.73 1436.61 1465.9 Q1439.65 1469.05 1439.65 1474.49 Q1439.65 1479.82 1436.5 1483.03 Q1433.35 1486.25 1428.12 1486.25 Q1422.12 1486.25 1418.95 1481.67 Q1415.78 1477.06 1415.78 1468.33 Q1415.78 1460.14 1419.67 1455.28 Q1423.56 1450.39 1430.11 1450.39 Q1431.87 1450.39 1433.65 1450.74 Q1435.46 1451.09 1437.4 1451.78 Z" fill="#000000" fill-rule="evenodd" fill-opacity="1" /><path clip-path="url(#clip070)" d="M1457.7 1454.1 Q1454.09 1454.1 1452.26 1457.66 Q1450.46 1461.2 1450.46 1468.33 Q1450.46 1475.44 1452.26 1479.01 Q1454.09 1482.55 1457.7 1482.55 Q1461.34 1482.55 1463.14 1479.01 Q1464.97 1475.44 1464.97 1468.33 Q1464.97 1461.2 1463.14 1457.66 Q1461.34 1454.1 1457.7 1454.1 M1457.7 1450.39 Q1463.51 1450.39 1466.57 1455 Q1469.65 1459.58 1469.65 1468.33 Q1469.65 1477.06 1466.57 1481.67 Q1463.51 1486.25 1457.7 1486.25 Q1451.89 1486.25 1448.81 1481.67 Q1445.76 1477.06 1445.76 1468.33 Q1445.76 1459.58 1448.81 1455 Q1451.89 1450.39 1457.7 1450.39 Z" fill="#000000" fill-rule="evenodd" fill-opacity="1" /><path clip-path="url(#clip070)" d="M1487.86 1454.1 Q1484.25 1454.1 1482.42 1457.66 Q1480.62 1461.2 1480.62 1468.33 Q1480.62 1475.44 1482.42 1479.01 Q1484.25 1482.55 1487.86 1482.55 Q1491.5 1482.55 1493.3 1479.01 Q1495.13 1475.44 1495.13 1468.33 Q1495.13 1461.2 1493.3 1457.66 Q1491.5 1454.1 1487.86 1454.1 M1487.86 1450.39 Q1493.67 1450.39 1496.73 1455 Q1499.81 1459.58 1499.81 1468.33 Q1499.81 1477.06 1496.73 1481.67 Q1493.67 1486.25 1487.86 1486.25 Q1482.05 1486.25 1478.97 1481.67 Q1475.92 1477.06 1475.92 1468.33 Q1475.92 1459.58 1478.97 1455 Q1482.05 1450.39 1487.86 1450.39 Z" fill="#000000" fill-rule="evenodd" fill-opacity="1" /><path clip-path="url(#clip070)" d="M1845.3 1469.17 Q1841.97 1469.17 1840.05 1470.95 Q1838.15 1472.73 1838.15 1475.86 Q1838.15 1478.98 1840.05 1480.77 Q1841.97 1482.55 1845.3 1482.55 Q1848.64 1482.55 1850.56 1480.77 Q1852.48 1478.96 1852.48 1475.86 Q1852.48 1472.73 1850.56 1470.95 Q1848.66 1469.17 1845.3 1469.17 M1840.63 1467.18 Q1837.62 1466.44 1835.93 1464.38 Q1834.26 1462.32 1834.26 1459.35 Q1834.26 1455.21 1837.2 1452.8 Q1840.17 1450.39 1845.3 1450.39 Q1850.47 1450.39 1853.41 1452.8 Q1856.35 1455.21 1856.35 1459.35 Q1856.35 1462.32 1854.66 1464.38 Q1852.99 1466.44 1850 1467.18 Q1853.38 1467.96 1855.26 1470.26 Q1857.16 1472.55 1857.16 1475.86 Q1857.16 1480.88 1854.08 1483.57 Q1851.02 1486.25 1845.3 1486.25 Q1839.59 1486.25 1836.51 1483.57 Q1833.45 1480.88 1833.45 1475.86 Q1833.45 1472.55 1835.35 1470.26 Q1837.25 1467.96 1840.63 1467.18 M1838.92 1459.79 Q1838.92 1462.48 1840.58 1463.98 Q1842.27 1465.49 1845.3 1465.49 Q1848.31 1465.49 1850 1463.98 Q1851.72 1462.48 1851.72 1459.79 Q1851.72 1457.11 1850 1455.6 Q1848.31 1454.1 1845.3 1454.1 Q1842.27 1454.1 1840.58 1455.6 Q1838.92 1457.11 1838.92 1459.79 Z" fill="#000000" fill-rule="evenodd" fill-opacity="1" /><path clip-path="url(#clip070)" d="M1875.47 1454.1 Q1871.85 1454.1 1870.03 1457.66 Q1868.22 1461.2 1868.22 1468.33 Q1868.22 1475.44 1870.03 1479.01 Q1871.85 1482.55 1875.47 1482.55 Q1879.1 1482.55 1880.91 1479.01 Q1882.73 1475.44 1882.73 1468.33 Q1882.73 1461.2 1880.91 1457.66 Q1879.1 1454.1 1875.47 1454.1 M1875.47 1450.39 Q1881.28 1450.39 1884.33 1455 Q1887.41 1459.58 1887.41 1468.33 Q1887.41 1477.06 1884.33 1481.67 Q1881.28 1486.25 1875.47 1486.25 Q1869.66 1486.25 1866.58 1481.67 Q1863.52 1477.06 1863.52 1468.33 Q1863.52 1459.58 1866.58 1455 Q1869.66 1450.39 1875.47 1450.39 Z" fill="#000000" fill-rule="evenodd" fill-opacity="1" /><path clip-path="url(#clip070)" d="M1905.63 1454.1 Q1902.02 1454.1 1900.19 1457.66 Q1898.38 1461.2 1898.38 1468.33 Q1898.38 1475.44 1900.19 1479.01 Q1902.02 1482.55 1905.63 1482.55 Q1909.26 1482.55 1911.07 1479.01 Q1912.9 1475.44 1912.9 1468.33 Q1912.9 1461.2 1911.07 1457.66 Q1909.26 1454.1 1905.63 1454.1 M1905.63 1450.39 Q1911.44 1450.39 1914.49 1455 Q1917.57 1459.58 1917.57 1468.33 Q1917.57 1477.06 1914.49 1481.67 Q1911.44 1486.25 1905.63 1486.25 Q1899.82 1486.25 1896.74 1481.67 Q1893.68 1477.06 1893.68 1468.33 Q1893.68 1459.58 1896.74 1455 Q1899.82 1450.39 1905.63 1450.39 Z" fill="#000000" fill-rule="evenodd" fill-opacity="1" /><path clip-path="url(#clip070)" d="M2237.76 1481.64 L2245.4 1481.64 L2245.4 1455.28 L2237.09 1456.95 L2237.09 1452.69 L2245.35 1451.02 L2250.03 1451.02 L2250.03 1481.64 L2257.66 1481.64 L2257.66 1485.58 L2237.76 1485.58 L2237.76 1481.64 Z" fill="#000000" fill-rule="evenodd" fill-opacity="1" /><path clip-path="url(#clip070)" d="M2277.11 1454.1 Q2273.5 1454.1 2271.67 1457.66 Q2269.86 1461.2 2269.86 1468.33 Q2269.86 1475.44 2271.67 1479.01 Q2273.5 1482.55 2277.11 1482.55 Q2280.74 1482.55 2282.55 1479.01 Q2284.38 1475.44 2284.38 1468.33 Q2284.38 1461.2 2282.55 1457.66 Q2280.74 1454.1 2277.11 1454.1 M2277.11 1450.39 Q2282.92 1450.39 2285.97 1455 Q2289.05 1459.58 2289.05 1468.33 Q2289.05 1477.06 2285.97 1481.67 Q2282.92 1486.25 2277.11 1486.25 Q2271.3 1486.25 2268.22 1481.67 Q2265.16 1477.06 2265.16 1468.33 Q2265.16 1459.58 2268.22 1455 Q2271.3 1450.39 2277.11 1450.39 Z" fill="#000000" fill-rule="evenodd" fill-opacity="1" /><path clip-path="url(#clip070)" d="M2307.27 1454.1 Q2303.66 1454.1 2301.83 1457.66 Q2300.02 1461.2 2300.02 1468.33 Q2300.02 1475.44 2301.83 1479.01 Q2303.66 1482.55 2307.27 1482.55 Q2310.9 1482.55 2312.71 1479.01 Q2314.54 1475.44 2314.54 1468.33 Q2314.54 1461.2 2312.71 1457.66 Q2310.9 1454.1 2307.27 1454.1 M2307.27 1450.39 Q2313.08 1450.39 2316.14 1455 Q2319.21 1459.58 2319.21 1468.33 Q2319.21 1477.06 2316.14 1481.67 Q2313.08 1486.25 2307.27 1486.25 Q2301.46 1486.25 2298.38 1481.67 Q2295.33 1477.06 2295.33 1468.33 Q2295.33 1459.58 2298.38 1455 Q2301.46 1450.39 2307.27 1450.39 Z" fill="#000000" fill-rule="evenodd" fill-opacity="1" /><path clip-path="url(#clip070)" d="M2337.43 1454.1 Q2333.82 1454.1 2331.99 1457.66 Q2330.19 1461.2 2330.19 1468.33 Q2330.19 1475.44 2331.99 1479.01 Q2333.82 1482.55 2337.43 1482.55 Q2341.07 1482.55 2342.87 1479.01 Q2344.7 1475.44 2344.7 1468.33 Q2344.7 1461.2 2342.87 1457.66 Q2341.07 1454.1 2337.43 1454.1 M2337.43 1450.39 Q2343.24 1450.39 2346.3 1455 Q2349.38 1459.58 2349.38 1468.33 Q2349.38 1477.06 2346.3 1481.67 Q2343.24 1486.25 2337.43 1486.25 Q2331.62 1486.25 2328.54 1481.67 Q2325.49 1477.06 2325.49 1468.33 Q2325.49 1459.58 2328.54 1455 Q2331.62 1450.39 2337.43 1450.39 Z" fill="#000000" fill-rule="evenodd" fill-opacity="1" /><path clip-path="url(#clip070)" d="M1316.08 1546.53 L1316.08 1568.04 L1310.22 1568.04 L1310.22 1546.72 Q1310.22 1541.66 1308.25 1539.14 Q1306.27 1536.63 1302.33 1536.63 Q1297.58 1536.63 1294.85 1539.65 Q1292.11 1542.68 1292.11 1547.9 L1292.11 1568.04 L1286.22 1568.04 L1286.22 1532.4 L1292.11 1532.4 L1292.11 1537.93 Q1294.21 1534.72 1297.04 1533.13 Q1299.91 1531.54 1303.63 1531.54 Q1309.77 1531.54 1312.93 1535.36 Q1316.08 1539.14 1316.08 1546.53 Z" fill="#000000" fill-rule="evenodd" fill-opacity="1" /><polyline clip-path="url(#clip072)" style="stroke:#000000; stroke-linecap:butt; stroke-linejoin:round; stroke-width:2; stroke-opacity:0.1; fill:none" points="
  249.542,1162.86 2352.76,1162.86 
  "/>
<polyline clip-path="url(#clip072)" style="stroke:#000000; stroke-linecap:butt; stroke-linejoin:round; stroke-width:2; stroke-opacity:0.1; fill:none" points="
  249.542,898.259 2352.76,898.259 
  "/>
<polyline clip-path="url(#clip072)" style="stroke:#000000; stroke-linecap:butt; stroke-linejoin:round; stroke-width:2; stroke-opacity:0.1; fill:none" points="
  249.542,633.657 2352.76,633.657 
  "/>
<polyline clip-path="url(#clip072)" style="stroke:#000000; stroke-linecap:butt; stroke-linejoin:round; stroke-width:2; stroke-opacity:0.1; fill:none" points="
  249.542,369.055 2352.76,369.055 
  "/>
<polyline clip-path="url(#clip070)" style="stroke:#000000; stroke-linecap:butt; stroke-linejoin:round; stroke-width:4; stroke-opacity:1; fill:none" points="
  249.542,1423.18 249.542,123.472 
  "/>
<polyline clip-path="url(#clip070)" style="stroke:#000000; stroke-linecap:butt; stroke-linejoin:round; stroke-width:4; stroke-opacity:1; fill:none" points="
  249.542,1162.86 268.44,1162.86 
  "/>
<polyline clip-path="url(#clip070)" style="stroke:#000000; stroke-linecap:butt; stroke-linejoin:round; stroke-width:4; stroke-opacity:1; fill:none" points="
  249.542,898.259 268.44,898.259 
  "/>
<polyline clip-path="url(#clip070)" style="stroke:#000000; stroke-linecap:butt; stroke-linejoin:round; stroke-width:4; stroke-opacity:1; fill:none" points="
  249.542,633.657 268.44,633.657 
  "/>
<polyline clip-path="url(#clip070)" style="stroke:#000000; stroke-linecap:butt; stroke-linejoin:round; stroke-width:4; stroke-opacity:1; fill:none" points="
  249.542,369.055 268.44,369.055 
  "/>
<path clip-path="url(#clip070)" d="M127.2 1148.66 Q123.589 1148.66 121.76 1152.22 Q119.955 1155.77 119.955 1162.9 Q119.955 1170 121.76 1173.57 Q123.589 1177.11 127.2 1177.11 Q130.834 1177.11 132.64 1173.57 Q134.468 1170 134.468 1162.9 Q134.468 1155.77 132.64 1152.22 Q130.834 1148.66 127.2 1148.66 M127.2 1144.96 Q133.01 1144.96 136.066 1149.56 Q139.144 1154.15 139.144 1162.9 Q139.144 1171.62 136.066 1176.23 Q133.01 1180.81 127.2 1180.81 Q121.39 1180.81 118.311 1176.23 Q115.256 1171.62 115.256 1162.9 Q115.256 1154.15 118.311 1149.56 Q121.39 1144.96 127.2 1144.96 Z" fill="#000000" fill-rule="evenodd" fill-opacity="1" /><path clip-path="url(#clip070)" d="M147.362 1174.26 L152.246 1174.26 L152.246 1180.14 L147.362 1180.14 L147.362 1174.26 Z" fill="#000000" fill-rule="evenodd" fill-opacity="1" /><path clip-path="url(#clip070)" d="M172.431 1148.66 Q168.82 1148.66 166.991 1152.22 Q165.186 1155.77 165.186 1162.9 Q165.186 1170 166.991 1173.57 Q168.82 1177.11 172.431 1177.11 Q176.065 1177.11 177.871 1173.57 Q179.7 1170 179.7 1162.9 Q179.7 1155.77 177.871 1152.22 Q176.065 1148.66 172.431 1148.66 M172.431 1144.96 Q178.241 1144.96 181.297 1149.56 Q184.376 1154.15 184.376 1162.9 Q184.376 1171.62 181.297 1176.23 Q178.241 1180.81 172.431 1180.81 Q166.621 1180.81 163.542 1176.23 Q160.487 1171.62 160.487 1162.9 Q160.487 1154.15 163.542 1149.56 Q166.621 1144.96 172.431 1144.96 Z" fill="#000000" fill-rule="evenodd" fill-opacity="1" /><path clip-path="url(#clip070)" d="M192.639 1145.58 L210.996 1145.58 L210.996 1149.52 L196.922 1149.52 L196.922 1157.99 Q197.94 1157.64 198.959 1157.48 Q199.977 1157.29 200.996 1157.29 Q206.783 1157.29 210.162 1160.46 Q213.542 1163.64 213.542 1169.05 Q213.542 1174.63 210.07 1177.73 Q206.598 1180.81 200.278 1180.81 Q198.102 1180.81 195.834 1180.44 Q193.588 1180.07 191.181 1179.33 L191.181 1174.63 Q193.264 1175.77 195.487 1176.32 Q197.709 1176.88 200.186 1176.88 Q204.19 1176.88 206.528 1174.77 Q208.866 1172.66 208.866 1169.05 Q208.866 1165.44 206.528 1163.34 Q204.19 1161.23 200.186 1161.23 Q198.311 1161.23 196.436 1161.65 Q194.584 1162.06 192.639 1162.94 L192.639 1145.58 Z" fill="#000000" fill-rule="evenodd" fill-opacity="1" /><path clip-path="url(#clip070)" d="M126.205 884.057 Q122.593 884.057 120.765 887.622 Q118.959 891.164 118.959 898.294 Q118.959 905.4 120.765 908.965 Q122.593 912.506 126.205 912.506 Q129.839 912.506 131.644 908.965 Q133.473 905.4 133.473 898.294 Q133.473 891.164 131.644 887.622 Q129.839 884.057 126.205 884.057 M126.205 880.354 Q132.015 880.354 135.07 884.96 Q138.149 889.544 138.149 898.294 Q138.149 907.02 135.07 911.627 Q132.015 916.21 126.205 916.21 Q120.394 916.21 117.316 911.627 Q114.26 907.02 114.26 898.294 Q114.26 889.544 117.316 884.96 Q120.394 880.354 126.205 880.354 Z" fill="#000000" fill-rule="evenodd" fill-opacity="1" /><path clip-path="url(#clip070)" d="M146.366 909.659 L151.251 909.659 L151.251 915.539 L146.366 915.539 L146.366 909.659 Z" fill="#000000" fill-rule="evenodd" fill-opacity="1" /><path clip-path="url(#clip070)" d="M162.246 911.604 L169.885 911.604 L169.885 885.238 L161.575 886.905 L161.575 882.645 L169.839 880.979 L174.514 880.979 L174.514 911.604 L182.153 911.604 L182.153 915.539 L162.246 915.539 L162.246 911.604 Z" fill="#000000" fill-rule="evenodd" fill-opacity="1" /><path clip-path="url(#clip070)" d="M201.598 884.057 Q197.987 884.057 196.158 887.622 Q194.352 891.164 194.352 898.294 Q194.352 905.4 196.158 908.965 Q197.987 912.506 201.598 912.506 Q205.232 912.506 207.037 908.965 Q208.866 905.4 208.866 898.294 Q208.866 891.164 207.037 887.622 Q205.232 884.057 201.598 884.057 M201.598 880.354 Q207.408 880.354 210.463 884.96 Q213.542 889.544 213.542 898.294 Q213.542 907.02 210.463 911.627 Q207.408 916.21 201.598 916.21 Q195.787 916.21 192.709 911.627 Q189.653 907.02 189.653 898.294 Q189.653 889.544 192.709 884.96 Q195.787 880.354 201.598 880.354 Z" fill="#000000" fill-rule="evenodd" fill-opacity="1" /><path clip-path="url(#clip070)" d="M127.2 619.456 Q123.589 619.456 121.76 623.02 Q119.955 626.562 119.955 633.692 Q119.955 640.798 121.76 644.363 Q123.589 647.904 127.2 647.904 Q130.834 647.904 132.64 644.363 Q134.468 640.798 134.468 633.692 Q134.468 626.562 132.64 623.02 Q130.834 619.456 127.2 619.456 M127.2 615.752 Q133.01 615.752 136.066 620.358 Q139.144 624.942 139.144 633.692 Q139.144 642.418 136.066 647.025 Q133.01 651.608 127.2 651.608 Q121.39 651.608 118.311 647.025 Q115.256 642.418 115.256 633.692 Q115.256 624.942 118.311 620.358 Q121.39 615.752 127.2 615.752 Z" fill="#000000" fill-rule="evenodd" fill-opacity="1" /><path clip-path="url(#clip070)" d="M147.362 645.057 L152.246 645.057 L152.246 650.937 L147.362 650.937 L147.362 645.057 Z" fill="#000000" fill-rule="evenodd" fill-opacity="1" /><path clip-path="url(#clip070)" d="M163.241 647.002 L170.88 647.002 L170.88 620.636 L162.57 622.303 L162.57 618.043 L170.834 616.377 L175.51 616.377 L175.51 647.002 L183.149 647.002 L183.149 650.937 L163.241 650.937 L163.241 647.002 Z" fill="#000000" fill-rule="evenodd" fill-opacity="1" /><path clip-path="url(#clip070)" d="M192.639 616.377 L210.996 616.377 L210.996 620.312 L196.922 620.312 L196.922 628.784 Q197.94 628.437 198.959 628.275 Q199.977 628.09 200.996 628.09 Q206.783 628.09 210.162 631.261 Q213.542 634.432 213.542 639.849 Q213.542 645.428 210.07 648.529 Q206.598 651.608 200.278 651.608 Q198.102 651.608 195.834 651.238 Q193.588 650.867 191.181 650.127 L191.181 645.428 Q193.264 646.562 195.487 647.117 Q197.709 647.673 200.186 647.673 Q204.19 647.673 206.528 645.566 Q208.866 643.46 208.866 639.849 Q208.866 636.238 206.528 634.131 Q204.19 632.025 200.186 632.025 Q198.311 632.025 196.436 632.442 Q194.584 632.858 192.639 633.738 L192.639 616.377 Z" fill="#000000" fill-rule="evenodd" fill-opacity="1" /><path clip-path="url(#clip070)" d="M126.205 354.854 Q122.593 354.854 120.765 358.418 Q118.959 361.96 118.959 369.09 Q118.959 376.196 120.765 379.761 Q122.593 383.302 126.205 383.302 Q129.839 383.302 131.644 379.761 Q133.473 376.196 133.473 369.09 Q133.473 361.96 131.644 358.418 Q129.839 354.854 126.205 354.854 M126.205 351.15 Q132.015 351.15 135.07 355.756 Q138.149 360.34 138.149 369.09 Q138.149 377.816 135.07 382.423 Q132.015 387.006 126.205 387.006 Q120.394 387.006 117.316 382.423 Q114.26 377.816 114.26 369.09 Q114.26 360.34 117.316 355.756 Q120.394 351.15 126.205 351.15 Z" fill="#000000" fill-rule="evenodd" fill-opacity="1" /><path clip-path="url(#clip070)" d="M146.366 380.455 L151.251 380.455 L151.251 386.335 L146.366 386.335 L146.366 380.455 Z" fill="#000000" fill-rule="evenodd" fill-opacity="1" /><path clip-path="url(#clip070)" d="M165.464 382.4 L181.783 382.4 L181.783 386.335 L159.839 386.335 L159.839 382.4 Q162.501 379.645 167.084 375.015 Q171.69 370.363 172.871 369.02 Q175.116 366.497 175.996 364.761 Q176.899 363.002 176.899 361.312 Q176.899 358.557 174.954 356.821 Q173.033 355.085 169.931 355.085 Q167.732 355.085 165.278 355.849 Q162.848 356.613 160.07 358.164 L160.07 353.442 Q162.894 352.307 165.348 351.729 Q167.802 351.15 169.839 351.15 Q175.209 351.15 178.403 353.835 Q181.598 356.52 181.598 361.011 Q181.598 363.141 180.788 365.062 Q180.001 366.96 177.894 369.553 Q177.315 370.224 174.214 373.441 Q171.112 376.636 165.464 382.4 Z" fill="#000000" fill-rule="evenodd" fill-opacity="1" /><path clip-path="url(#clip070)" d="M201.598 354.854 Q197.987 354.854 196.158 358.418 Q194.352 361.96 194.352 369.09 Q194.352 376.196 196.158 379.761 Q197.987 383.302 201.598 383.302 Q205.232 383.302 207.037 379.761 Q208.866 376.196 208.866 369.09 Q208.866 361.96 207.037 358.418 Q205.232 354.854 201.598 354.854 M201.598 351.15 Q207.408 351.15 210.463 355.756 Q213.542 360.34 213.542 369.09 Q213.542 377.816 210.463 382.423 Q207.408 387.006 201.598 387.006 Q195.787 387.006 192.709 382.423 Q189.653 377.816 189.653 369.09 Q189.653 360.34 192.709 355.756 Q195.787 351.15 201.598 351.15 Z" fill="#000000" fill-rule="evenodd" fill-opacity="1" /><path clip-path="url(#clip070)" d="M41.3104 1084.9 L58.7206 1084.9 L58.7206 1074.58 Q58.7206 1069.39 56.5881 1066.91 Q54.4238 1064.4 49.9996 1064.4 Q45.5436 1064.4 43.4429 1066.91 Q41.3104 1069.39 41.3104 1074.58 L41.3104 1084.9 M21.7677 1084.9 L36.0905 1084.9 L36.0905 1075.38 Q36.0905 1070.67 34.34 1068.38 Q32.5576 1066.05 28.9291 1066.05 Q25.3325 1066.05 23.5501 1068.38 Q21.7677 1070.67 21.7677 1075.38 L21.7677 1084.9 M16.4842 1091.32 L16.4842 1074.9 Q16.4842 1067.55 19.5397 1063.57 Q22.5952 1059.59 28.2289 1059.59 Q32.5894 1059.59 35.1675 1061.63 Q37.7456 1063.67 38.3822 1067.61 Q39.4007 1062.87 42.6472 1060.26 Q45.8619 1057.62 50.6998 1057.62 Q57.0655 1057.62 60.5348 1061.95 Q64.0042 1066.28 64.0042 1074.26 L64.0042 1091.32 L16.4842 1091.32 Z" fill="#000000" fill-rule="evenodd" fill-opacity="1" /><path clip-path="url(#clip070)" d="M32.4621 1033.05 Q32.4621 1037.76 36.1542 1040.49 Q39.8145 1043.23 46.212 1043.23 Q52.6095 1043.23 56.3017 1040.53 Q59.9619 1037.79 59.9619 1033.05 Q59.9619 1028.37 56.2698 1025.63 Q52.5777 1022.89 46.212 1022.89 Q39.8781 1022.89 36.186 1025.63 Q32.4621 1028.37 32.4621 1033.05 M27.4968 1033.05 Q27.4968 1025.41 32.4621 1021.05 Q37.4273 1016.69 46.212 1016.69 Q54.9649 1016.69 59.9619 1021.05 Q64.9272 1025.41 64.9272 1033.05 Q64.9272 1040.72 59.9619 1045.08 Q54.9649 1049.41 46.212 1049.41 Q37.4273 1049.41 32.4621 1045.08 Q27.4968 1040.72 27.4968 1033.05 Z" fill="#000000" fill-rule="evenodd" fill-opacity="1" /><path clip-path="url(#clip070)" d="M18.2347 1001.19 L28.3562 1001.19 L28.3562 989.123 L32.9077 989.123 L32.9077 1001.19 L52.2594 1001.19 Q56.6199 1001.19 57.8613 1000.01 Q59.1026 998.799 59.1026 995.139 L59.1026 989.123 L64.0042 989.123 L64.0042 995.139 Q64.0042 1001.92 61.4897 1004.5 Q58.9434 1007.07 52.2594 1007.07 L32.9077 1007.07 L32.9077 1011.37 L28.3562 1011.37 L28.3562 1007.07 L18.2347 1007.07 L18.2347 1001.19 Z" fill="#000000" fill-rule="evenodd" fill-opacity="1" /><path clip-path="url(#clip070)" d="M18.2347 975.628 L28.3562 975.628 L28.3562 963.565 L32.9077 963.565 L32.9077 975.628 L52.2594 975.628 Q56.6199 975.628 57.8613 974.45 Q59.1026 973.241 59.1026 969.581 L59.1026 963.565 L64.0042 963.565 L64.0042 969.581 Q64.0042 976.36 61.4897 978.938 Q58.9434 981.516 52.2594 981.516 L32.9077 981.516 L32.9077 985.813 L28.3562 985.813 L28.3562 981.516 L18.2347 981.516 L18.2347 975.628 Z" fill="#000000" fill-rule="evenodd" fill-opacity="1" /><path clip-path="url(#clip070)" d="M14.479 955.863 L14.479 950.006 L64.0042 950.006 L64.0042 955.863 L14.479 955.863 Z" fill="#000000" fill-rule="evenodd" fill-opacity="1" /><path clip-path="url(#clip070)" d="M44.7161 907.26 L47.5806 907.26 L47.5806 934.187 Q53.6281 933.805 56.8109 930.559 Q59.9619 927.281 59.9619 921.456 Q59.9619 918.082 59.1344 914.931 Q58.3069 911.748 56.6518 908.629 L62.1899 908.629 Q63.5267 911.78 64.227 915.09 Q64.9272 918.4 64.9272 921.806 Q64.9272 930.336 59.9619 935.333 Q54.9967 940.298 46.5303 940.298 Q37.7774 940.298 32.6531 935.588 Q27.4968 930.845 27.4968 922.825 Q27.4968 915.631 32.1438 911.462 Q36.7589 907.26 44.7161 907.26 M42.9973 913.117 Q38.1912 913.181 35.3266 915.822 Q32.4621 918.432 32.4621 922.761 Q32.4621 927.663 35.2312 930.623 Q38.0002 933.551 43.0292 933.996 L42.9973 913.117 Z" fill="#000000" fill-rule="evenodd" fill-opacity="1" /><path clip-path="url(#clip070)" d="M42.4881 868.016 L64.0042 868.016 L64.0042 873.872 L42.679 873.872 Q37.6183 873.872 35.1038 875.846 Q32.5894 877.819 32.5894 881.766 Q32.5894 886.508 35.6131 889.246 Q38.6368 891.983 43.8567 891.983 L64.0042 891.983 L64.0042 897.871 L28.3562 897.871 L28.3562 891.983 L33.8944 891.983 Q30.6797 889.882 29.0883 887.049 Q27.4968 884.185 27.4968 880.461 Q27.4968 874.318 31.3163 871.167 Q35.1038 868.016 42.4881 868.016 Z" fill="#000000" fill-rule="evenodd" fill-opacity="1" /><path clip-path="url(#clip070)" d="M44.7161 825.843 L47.5806 825.843 L47.5806 852.77 Q53.6281 852.388 56.8109 849.142 Q59.9619 845.863 59.9619 840.039 Q59.9619 836.665 59.1344 833.514 Q58.3069 830.331 56.6518 827.212 L62.1899 827.212 Q63.5267 830.363 64.227 833.673 Q64.9272 836.983 64.9272 840.389 Q64.9272 848.919 59.9619 853.916 Q54.9967 858.881 46.5303 858.881 Q37.7774 858.881 32.6531 854.17 Q27.4968 849.428 27.4968 841.407 Q27.4968 834.214 32.1438 830.044 Q36.7589 825.843 44.7161 825.843 M42.9973 831.7 Q38.1912 831.763 35.3266 834.405 Q32.4621 837.015 32.4621 841.344 Q32.4621 846.245 35.2312 849.205 Q38.0002 852.133 43.0292 852.579 L42.9973 831.7 Z" fill="#000000" fill-rule="evenodd" fill-opacity="1" /><path clip-path="url(#clip070)" d="M29.7248 790.577 L35.1993 790.577 Q33.8307 793.06 33.1623 795.574 Q32.4621 798.057 32.4621 800.603 Q32.4621 806.3 36.0905 809.451 Q39.6872 812.602 46.212 812.602 Q52.7369 812.602 56.3653 809.451 Q59.9619 806.3 59.9619 800.603 Q59.9619 798.057 59.2935 795.574 Q58.5933 793.06 57.2247 790.577 L62.6355 790.577 Q63.7814 793.028 64.3543 795.67 Q64.9272 798.28 64.9272 801.24 Q64.9272 809.292 59.8664 814.035 Q54.8057 818.777 46.212 818.777 Q37.491 818.777 32.4939 814.003 Q27.4968 809.197 27.4968 800.858 Q27.4968 798.152 28.0697 795.574 Q28.6108 792.996 29.7248 790.577 Z" fill="#000000" fill-rule="evenodd" fill-opacity="1" /><path clip-path="url(#clip070)" d="M14.479 780.615 L14.479 774.726 L43.7294 774.726 L28.3562 757.253 L28.3562 749.773 L45.0344 768.679 L64.0042 748.977 L64.0042 756.616 L46.5939 774.726 L64.0042 774.726 L64.0042 780.615 L14.479 780.615 Z" fill="#000000" fill-rule="evenodd" fill-opacity="1" /><path clip-path="url(#clip070)" d="M33.7671 698.465 L14.479 698.465 L14.479 692.609 L64.0042 692.609 L64.0042 698.465 L58.657 698.465 Q61.8398 700.311 63.3994 703.144 Q64.9272 705.945 64.9272 709.892 Q64.9272 716.353 59.771 720.427 Q54.6147 724.469 46.212 724.469 Q37.8093 724.469 32.6531 720.427 Q27.4968 716.353 27.4968 709.892 Q27.4968 705.945 29.0564 703.144 Q30.5842 700.311 33.7671 698.465 M46.212 718.422 Q52.6732 718.422 56.3653 715.78 Q60.0256 713.106 60.0256 708.459 Q60.0256 703.812 56.3653 701.139 Q52.6732 698.465 46.212 698.465 Q39.7508 698.465 36.0905 701.139 Q32.3984 703.812 32.3984 708.459 Q32.3984 713.106 36.0905 715.78 Q39.7508 718.422 46.212 718.422 Z" fill="#000000" fill-rule="evenodd" fill-opacity="1" /><path clip-path="url(#clip070)" d="M28.3562 680.546 L28.3562 674.689 L64.0042 674.689 L64.0042 680.546 L28.3562 680.546 M14.479 680.546 L14.479 674.689 L21.895 674.689 L21.895 680.546 L14.479 680.546 Z" fill="#000000" fill-rule="evenodd" fill-opacity="1" /><path clip-path="url(#clip070)" d="M29.4065 639.71 L34.9447 639.71 Q33.6716 642.192 33.035 644.866 Q32.3984 647.54 32.3984 650.404 Q32.3984 654.765 33.7352 656.961 Q35.072 659.125 37.7456 659.125 Q39.7826 659.125 40.9603 657.566 Q42.1061 656.006 43.1565 651.295 L43.6021 649.29 Q44.9389 643.052 47.3897 640.442 Q49.8086 637.8 54.1691 637.8 Q59.1344 637.8 62.0308 641.747 Q64.9272 645.662 64.9272 652.537 Q64.9272 655.401 64.3543 658.52 Q63.8132 661.608 62.6992 665.045 L56.6518 665.045 Q58.3387 661.799 59.198 658.648 Q60.0256 655.497 60.0256 652.409 Q60.0256 648.272 58.6251 646.044 Q57.1929 643.816 54.6147 643.816 Q52.2276 643.816 50.9545 645.439 Q49.6813 647.03 48.5037 652.473 L48.0262 654.51 Q46.8804 659.953 44.5251 662.372 Q42.138 664.791 38.0002 664.791 Q32.9713 664.791 30.2341 661.226 Q27.4968 657.661 27.4968 651.104 Q27.4968 647.858 27.9743 644.993 Q28.4517 642.129 29.4065 639.71 Z" fill="#000000" fill-rule="evenodd" fill-opacity="1" /><path clip-path="url(#clip070)" d="M18.2347 622.682 L28.3562 622.682 L28.3562 610.619 L32.9077 610.619 L32.9077 622.682 L52.2594 622.682 Q56.6199 622.682 57.8613 621.504 Q59.1026 620.294 59.1026 616.634 L59.1026 610.619 L64.0042 610.619 L64.0042 616.634 Q64.0042 623.414 61.4897 625.992 Q58.9434 628.57 52.2594 628.57 L32.9077 628.57 L32.9077 632.867 L28.3562 632.867 L28.3562 628.57 L18.2347 628.57 L18.2347 622.682 Z" fill="#000000" fill-rule="evenodd" fill-opacity="1" /><path clip-path="url(#clip070)" d="M46.0847 586.715 Q46.0847 593.813 47.7079 596.55 Q49.3312 599.288 53.2461 599.288 Q56.3653 599.288 58.2114 597.251 Q60.0256 595.182 60.0256 591.649 Q60.0256 586.779 56.5881 583.851 Q53.1188 580.891 47.3897 580.891 L46.0847 580.891 L46.0847 586.715 M43.6657 575.034 L64.0042 575.034 L64.0042 580.891 L58.5933 580.891 Q61.8398 582.896 63.3994 585.888 Q64.9272 588.88 64.9272 593.208 Q64.9272 598.683 61.8716 601.929 Q58.7843 605.144 53.6281 605.144 Q47.6125 605.144 44.5569 601.134 Q41.5014 597.091 41.5014 589.102 L41.5014 580.891 L40.9285 580.891 Q36.8862 580.891 34.6901 583.564 Q32.4621 586.206 32.4621 591.012 Q32.4621 594.068 33.1941 596.964 Q33.9262 599.86 35.3903 602.534 L29.9795 602.534 Q28.7381 599.319 28.1334 596.296 Q27.4968 593.272 27.4968 590.407 Q27.4968 582.673 31.5072 578.854 Q35.5176 575.034 43.6657 575.034 Z" fill="#000000" fill-rule="evenodd" fill-opacity="1" /><path clip-path="url(#clip070)" d="M42.4881 533.339 L64.0042 533.339 L64.0042 539.195 L42.679 539.195 Q37.6183 539.195 35.1038 541.169 Q32.5894 543.142 32.5894 547.089 Q32.5894 551.831 35.6131 554.568 Q38.6368 557.306 43.8567 557.306 L64.0042 557.306 L64.0042 563.194 L28.3562 563.194 L28.3562 557.306 L33.8944 557.306 Q30.6797 555.205 29.0883 552.372 Q27.4968 549.508 27.4968 545.784 Q27.4968 539.641 31.3163 536.49 Q35.1038 533.339 42.4881 533.339 Z" fill="#000000" fill-rule="evenodd" fill-opacity="1" /><path clip-path="url(#clip070)" d="M29.7248 496.004 L35.1993 496.004 Q33.8307 498.487 33.1623 501.001 Q32.4621 503.484 32.4621 506.03 Q32.4621 511.727 36.0905 514.878 Q39.6872 518.029 46.212 518.029 Q52.7369 518.029 56.3653 514.878 Q59.9619 511.727 59.9619 506.03 Q59.9619 503.484 59.2935 501.001 Q58.5933 498.487 57.2247 496.004 L62.6355 496.004 Q63.7814 498.455 64.3543 501.097 Q64.9272 503.706 64.9272 506.667 Q64.9272 514.719 59.8664 519.462 Q54.8057 524.204 46.212 524.204 Q37.491 524.204 32.4939 519.43 Q27.4968 514.624 27.4968 506.285 Q27.4968 503.579 28.0697 501.001 Q28.6108 498.423 29.7248 496.004 Z" fill="#000000" fill-rule="evenodd" fill-opacity="1" /><path clip-path="url(#clip070)" d="M44.7161 455.327 L47.5806 455.327 L47.5806 482.254 Q53.6281 481.872 56.8109 478.626 Q59.9619 475.347 59.9619 469.523 Q59.9619 466.149 59.1344 462.998 Q58.3069 459.815 56.6518 456.696 L62.1899 456.696 Q63.5267 459.847 64.227 463.157 Q64.9272 466.467 64.9272 469.873 Q64.9272 478.403 59.9619 483.4 Q54.9967 488.365 46.5303 488.365 Q37.7774 488.365 32.6531 483.655 Q27.4968 478.912 27.4968 470.891 Q27.4968 463.698 32.1438 459.528 Q36.7589 455.327 44.7161 455.327 M42.9973 461.184 Q38.1912 461.247 35.3266 463.889 Q32.4621 466.499 32.4621 470.828 Q32.4621 475.729 35.2312 478.689 Q38.0002 481.617 43.0292 482.063 L42.9973 461.184 Z" fill="#000000" fill-rule="evenodd" fill-opacity="1" /><path clip-path="url(#clip070)" d="M1142.45 34.4165 Q1140.96 33.8899 1139.46 33.4848 Q1135.45 32.4315 1131.15 32.4315 Q1123.74 32.4315 1119.61 36.4419 Q1115.76 40.1688 1115.03 47.0148 L1142.45 47.0148 L1142.45 52.8481 L1115.03 52.8481 Q1115.76 59.6941 1119.61 63.421 Q1123.74 67.4314 1131.15 67.4314 Q1136.34 67.4314 1139.46 66.3781 L1142.45 65.3654 L1142.45 72.1304 L1139.25 72.8596 Q1135.04 73.7508 1130.71 73.7508 Q1119.85 73.7508 1113.53 67.4314 Q1107.17 61.1119 1107.17 49.9314 Q1107.17 38.7509 1113.53 32.4315 Q1119.85 26.1121 1130.71 26.1121 Q1134.8 26.1121 1139.25 27.0033 Q1140.87 27.3274 1142.45 27.8135 L1142.45 34.4165 Z" fill="#000000" fill-rule="evenodd" fill-opacity="1" /><path clip-path="url(#clip070)" d="M1162.43 34.9026 L1214.36 34.9026 L1214.36 41.7081 L1162.43 41.7081 L1162.43 34.9026 M1162.43 51.4303 L1214.36 51.4303 L1214.36 58.3168 L1162.43 58.3168 L1162.43 51.4303 Z" fill="#000000" fill-rule="evenodd" fill-opacity="1" /><path clip-path="url(#clip070)" d="M1230.97 9.54393 L1238.42 9.54393 L1238.42 72.576 L1230.97 72.576 L1230.97 9.54393 Z" fill="#000000" fill-rule="evenodd" fill-opacity="1" /><path clip-path="url(#clip070)" d="M1271.6 32.4315 Q1265.6 32.4315 1262.12 37.1306 Q1258.63 41.7891 1258.63 49.9314 Q1258.63 58.0738 1262.08 62.7728 Q1265.56 67.4314 1271.6 67.4314 Q1277.55 67.4314 1281.04 62.7323 Q1284.52 58.0333 1284.52 49.9314 Q1284.52 41.8701 1281.04 37.1711 Q1277.55 32.4315 1271.6 32.4315 M1271.6 26.1121 Q1281.32 26.1121 1286.87 32.4315 Q1292.42 38.7509 1292.42 49.9314 Q1292.42 61.0714 1286.87 67.4314 Q1281.32 73.7508 1271.6 73.7508 Q1261.83 73.7508 1256.29 67.4314 Q1250.78 61.0714 1250.78 49.9314 Q1250.78 38.7509 1256.29 32.4315 Q1261.83 26.1121 1271.6 26.1121 Z" fill="#000000" fill-rule="evenodd" fill-opacity="1" /><path clip-path="url(#clip070)" d="M1334.63 49.3643 Q1334.63 41.2625 1331.27 36.8065 Q1327.95 32.3505 1321.91 32.3505 Q1315.91 32.3505 1312.55 36.8065 Q1309.23 41.2625 1309.23 49.3643 Q1309.23 57.4256 1312.55 61.8816 Q1315.91 66.3376 1321.91 66.3376 Q1327.95 66.3376 1331.27 61.8816 Q1334.63 57.4256 1334.63 49.3643 M1342.08 66.9452 Q1342.08 78.5308 1336.94 84.1616 Q1331.79 89.8329 1321.18 89.8329 Q1317.25 89.8329 1313.77 89.2252 Q1310.28 88.6581 1307 87.4428 L1307 80.1917 Q1310.28 81.9741 1313.48 82.8248 Q1316.68 83.6755 1320.01 83.6755 Q1327.34 83.6755 1330.98 79.8271 Q1334.63 76.0193 1334.63 68.282 L1334.63 64.5957 Q1332.32 68.6061 1328.72 70.5911 Q1325.11 72.576 1320.09 72.576 Q1311.74 72.576 1306.64 66.2161 Q1301.53 59.8562 1301.53 49.3643 Q1301.53 38.832 1306.64 32.472 Q1311.74 26.1121 1320.09 26.1121 Q1325.11 26.1121 1328.72 28.0971 Q1332.32 30.082 1334.63 34.0924 L1334.63 27.2059 L1342.08 27.2059 L1342.08 66.9452 Z" fill="#000000" fill-rule="evenodd" fill-opacity="1" /><path clip-path="url(#clip070)" d="M1354.36 10.2326 L1359.1 10.2326 L1359.1 31.0542 L1373.11 20.1168 L1379.11 20.1168 L1363.92 31.9859 L1379.72 45.516 L1373.6 45.516 L1359.1 33.1202 L1359.1 45.516 L1354.36 45.516 L1354.36 10.2326 Z" fill="#000000" fill-rule="evenodd" fill-opacity="1" /><path clip-path="url(#clip070)" d="M1410.67 9.62495 Q1405.24 18.942 1402.6 28.0566 Q1399.97 37.1711 1399.97 46.5287 Q1399.97 55.8863 1402.6 65.0818 Q1405.28 74.2369 1410.67 83.5134 L1404.18 83.5134 Q1398.11 73.9938 1395.07 64.7983 Q1392.07 55.6027 1392.07 46.5287 Q1392.07 37.4952 1395.07 28.3401 Q1398.07 19.1851 1404.18 9.62495 L1410.67 9.62495 Z" fill="#000000" fill-rule="evenodd" fill-opacity="1" /><path clip-path="url(#clip070)" d="M1462.84 45.1919 L1462.84 72.576 L1455.39 72.576 L1455.39 45.4349 Q1455.39 38.994 1452.88 35.7938 Q1450.36 32.5936 1445.34 32.5936 Q1439.31 32.5936 1435.82 36.4419 Q1432.34 40.2903 1432.34 46.9338 L1432.34 72.576 L1424.84 72.576 L1424.84 27.2059 L1432.34 27.2059 L1432.34 34.2544 Q1435.01 30.163 1438.62 28.1376 Q1442.26 26.1121 1447 26.1121 Q1454.82 26.1121 1458.83 30.9732 Q1462.84 35.7938 1462.84 45.1919 Z" fill="#000000" fill-rule="evenodd" fill-opacity="1" /><path clip-path="url(#clip070)" d="M1476.53 9.62495 L1483.01 9.62495 Q1489.09 19.1851 1492.09 28.3401 Q1495.13 37.4952 1495.13 46.5287 Q1495.13 55.6027 1492.09 64.7983 Q1489.09 73.9938 1483.01 83.5134 L1476.53 83.5134 Q1481.92 74.2369 1484.55 65.0818 Q1487.23 55.8863 1487.23 46.5287 Q1487.23 37.1711 1484.55 28.0566 Q1481.92 18.942 1476.53 9.62495 Z" fill="#000000" fill-rule="evenodd" fill-opacity="1" /><polyline clip-path="url(#clip072)" style="stroke:#009af9; stroke-linecap:butt; stroke-linejoin:round; stroke-width:8; stroke-opacity:1; fill:none" points="
  309.067,160.256 413.497,721.596 622.356,814.504 1040.07,1065.79 1457.79,1171.5 1875.51,1218.28 2293.23,1286.58 
  "/>
<path clip-path="url(#clip072)" d="M309.067 176.256 L297.755 171.568 L293.067 160.256 L297.755 148.944 L309.067 144.256 L320.379 148.944 L325.067 160.256 L320.379 171.568 Z" fill="#009af9" fill-rule="evenodd" fill-opacity="1" stroke="#000000" stroke-opacity="1" stroke-width="3.2"/>
<path clip-path="url(#clip072)" d="M413.497 737.596 L402.185 732.908 L397.497 721.596 L402.185 710.284 L413.497 705.596 L424.809 710.284 L429.497 721.596 L424.809 732.908 Z" fill="#009af9" fill-rule="evenodd" fill-opacity="1" stroke="#000000" stroke-opacity="1" stroke-width="3.2"/>
<path clip-path="url(#clip072)" d="M622.356 830.504 L611.044 825.816 L606.356 814.504 L611.044 803.192 L622.356 798.504 L633.668 803.192 L638.356 814.504 L633.668 825.816 Z" fill="#009af9" fill-rule="evenodd" fill-opacity="1" stroke="#000000" stroke-opacity="1" stroke-width="3.2"/>
<path clip-path="url(#clip072)" d="M1040.07 1081.79 L1028.76 1077.1 L1024.07 1065.79 L1028.76 1054.48 L1040.07 1049.79 L1051.39 1054.48 L1056.07 1065.79 L1051.39 1077.1 Z" fill="#009af9" fill-rule="evenodd" fill-opacity="1" stroke="#000000" stroke-opacity="1" stroke-width="3.2"/>
<path clip-path="url(#clip072)" d="M1457.79 1187.5 L1446.48 1182.81 L1441.79 1171.5 L1446.48 1160.19 L1457.79 1155.5 L1469.11 1160.19 L1473.79 1171.5 L1469.11 1182.81 Z" fill="#009af9" fill-rule="evenodd" fill-opacity="1" stroke="#000000" stroke-opacity="1" stroke-width="3.2"/>
<path clip-path="url(#clip072)" d="M1875.51 1234.28 L1864.2 1229.6 L1859.51 1218.28 L1864.2 1206.97 L1875.51 1202.28 L1886.82 1206.97 L1891.51 1218.28 L1886.82 1229.6 Z" fill="#009af9" fill-rule="evenodd" fill-opacity="1" stroke="#000000" stroke-opacity="1" stroke-width="3.2"/>
<path clip-path="url(#clip072)" d="M2293.23 1302.58 L2281.92 1297.89 L2277.23 1286.58 L2281.92 1275.26 L2293.23 1270.58 L2304.54 1275.26 L2309.23 1286.58 L2304.54 1297.89 Z" fill="#009af9" fill-rule="evenodd" fill-opacity="1" stroke="#000000" stroke-opacity="1" stroke-width="3.2"/>
<polyline clip-path="url(#clip072)" style="stroke:#e26f46; stroke-linecap:butt; stroke-linejoin:round; stroke-width:8; stroke-opacity:1; fill:none" points="
  309.067,569.661 413.497,723.671 622.356,1033.98 1040.07,1228.79 1457.79,1280.66 1875.51,1309.44 2293.23,1324.24 
  "/>
<path clip-path="url(#clip072)" d="M309.067 585.661 L297.755 580.973 L293.067 569.661 L297.755 558.349 L309.067 553.661 L320.379 558.349 L325.067 569.661 L320.379 580.973 Z" fill="#e26f46" fill-rule="evenodd" fill-opacity="1" stroke="#000000" stroke-opacity="1" stroke-width="3.2"/>
<path clip-path="url(#clip072)" d="M413.497 739.671 L402.185 734.983 L397.497 723.671 L402.185 712.359 L413.497 707.671 L424.809 712.359 L429.497 723.671 L424.809 734.983 Z" fill="#e26f46" fill-rule="evenodd" fill-opacity="1" stroke="#000000" stroke-opacity="1" stroke-width="3.2"/>
<path clip-path="url(#clip072)" d="M622.356 1049.98 L611.044 1045.29 L606.356 1033.98 L611.044 1022.66 L622.356 1017.98 L633.668 1022.66 L638.356 1033.98 L633.668 1045.29 Z" fill="#e26f46" fill-rule="evenodd" fill-opacity="1" stroke="#000000" stroke-opacity="1" stroke-width="3.2"/>
<path clip-path="url(#clip072)" d="M1040.07 1244.79 L1028.76 1240.11 L1024.07 1228.79 L1028.76 1217.48 L1040.07 1212.79 L1051.39 1217.48 L1056.07 1228.79 L1051.39 1240.11 Z" fill="#e26f46" fill-rule="evenodd" fill-opacity="1" stroke="#000000" stroke-opacity="1" stroke-width="3.2"/>
<path clip-path="url(#clip072)" d="M1457.79 1296.66 L1446.48 1291.97 L1441.79 1280.66 L1446.48 1269.34 L1457.79 1264.66 L1469.11 1269.34 L1473.79 1280.66 L1469.11 1291.97 Z" fill="#e26f46" fill-rule="evenodd" fill-opacity="1" stroke="#000000" stroke-opacity="1" stroke-width="3.2"/>
<path clip-path="url(#clip072)" d="M1875.51 1325.44 L1864.2 1320.76 L1859.51 1309.44 L1864.2 1298.13 L1875.51 1293.44 L1886.82 1298.13 L1891.51 1309.44 L1886.82 1320.76 Z" fill="#e26f46" fill-rule="evenodd" fill-opacity="1" stroke="#000000" stroke-opacity="1" stroke-width="3.2"/>
<path clip-path="url(#clip072)" d="M2293.23 1340.24 L2281.92 1335.56 L2277.23 1324.24 L2281.92 1312.93 L2293.23 1308.24 L2304.54 1312.93 L2309.23 1324.24 L2304.54 1335.56 Z" fill="#e26f46" fill-rule="evenodd" fill-opacity="1" stroke="#000000" stroke-opacity="1" stroke-width="3.2"/>
<polyline clip-path="url(#clip072)" style="stroke:#3da44d; stroke-linecap:butt; stroke-linejoin:round; stroke-width:8; stroke-opacity:1; fill:none" points="
  309.067,918.497 413.497,1139.62 622.356,1257.55 1040.07,1332.96 1457.79,1362.41 1875.51,1366.63 2293.23,1386.4 
  "/>
<path clip-path="url(#clip072)" d="M309.067 934.497 L297.755 929.809 L293.067 918.497 L297.755 907.185 L309.067 902.497 L320.379 907.185 L325.067 918.497 L320.379 929.809 Z" fill="#3da44d" fill-rule="evenodd" fill-opacity="1" stroke="#000000" stroke-opacity="1" stroke-width="3.2"/>
<path clip-path="url(#clip072)" d="M413.497 1155.62 L402.185 1150.93 L397.497 1139.62 L402.185 1128.31 L413.497 1123.62 L424.809 1128.31 L429.497 1139.62 L424.809 1150.93 Z" fill="#3da44d" fill-rule="evenodd" fill-opacity="1" stroke="#000000" stroke-opacity="1" stroke-width="3.2"/>
<path clip-path="url(#clip072)" d="M622.356 1273.55 L611.044 1268.86 L606.356 1257.55 L611.044 1246.24 L622.356 1241.55 L633.668 1246.24 L638.356 1257.55 L633.668 1268.86 Z" fill="#3da44d" fill-rule="evenodd" fill-opacity="1" stroke="#000000" stroke-opacity="1" stroke-width="3.2"/>
<path clip-path="url(#clip072)" d="M1040.07 1348.96 L1028.76 1344.27 L1024.07 1332.96 L1028.76 1321.64 L1040.07 1316.96 L1051.39 1321.64 L1056.07 1332.96 L1051.39 1344.27 Z" fill="#3da44d" fill-rule="evenodd" fill-opacity="1" stroke="#000000" stroke-opacity="1" stroke-width="3.2"/>
<path clip-path="url(#clip072)" d="M1457.79 1378.41 L1446.48 1373.72 L1441.79 1362.41 L1446.48 1351.1 L1457.79 1346.41 L1469.11 1351.1 L1473.79 1362.41 L1469.11 1373.72 Z" fill="#3da44d" fill-rule="evenodd" fill-opacity="1" stroke="#000000" stroke-opacity="1" stroke-width="3.2"/>
<path clip-path="url(#clip072)" d="M1875.51 1382.63 L1864.2 1377.95 L1859.51 1366.63 L1864.2 1355.32 L1875.51 1350.63 L1886.82 1355.32 L1891.51 1366.63 L1886.82 1377.95 Z" fill="#3da44d" fill-rule="evenodd" fill-opacity="1" stroke="#000000" stroke-opacity="1" stroke-width="3.2"/>
<path clip-path="url(#clip072)" d="M2293.23 1402.4 L2281.92 1397.71 L2277.23 1386.4 L2281.92 1375.08 L2293.23 1370.4 L2304.54 1375.08 L2309.23 1386.4 L2304.54 1397.71 Z" fill="#3da44d" fill-rule="evenodd" fill-opacity="1" stroke="#000000" stroke-opacity="1" stroke-width="3.2"/>
<path clip-path="url(#clip070)" d="
M1883.52 374.156 L2282.65 374.156 L2282.65 166.796 L1883.52 166.796  Z
  " fill="#ffffff" fill-rule="evenodd" fill-opacity="1"/>
<polyline clip-path="url(#clip070)" style="stroke:#000000; stroke-linecap:butt; stroke-linejoin:round; stroke-width:4; stroke-opacity:1; fill:none" points="
  1883.52,374.156 2282.65,374.156 2282.65,166.796 1883.52,166.796 1883.52,374.156 
  "/>
<polyline clip-path="url(#clip070)" style="stroke:#009af9; stroke-linecap:butt; stroke-linejoin:round; stroke-width:4; stroke-opacity:1; fill:none" points="
  1906.89,218.636 2047.1,218.636 
  "/>
<path clip-path="url(#clip070)" d="M1977 244.236 L1958.9 236.735 L1951.4 218.636 L1958.9 200.537 L1977 193.036 L1995.09 200.537 L2002.6 218.636 L1995.09 236.735 Z" fill="#009af9" fill-rule="evenodd" fill-opacity="1" stroke="#000000" stroke-opacity="1" stroke-width="5.12"/>
<path clip-path="url(#clip070)" d="M2070.47 199.897 L2074.75 199.897 L2074.75 221.17 L2087.46 209.99 L2092.9 209.99 L2079.15 222.119 L2093.48 235.916 L2087.93 235.916 L2074.75 223.254 L2074.75 235.916 L2070.47 235.916 L2070.47 199.897 Z" fill="#000000" fill-rule="evenodd" fill-opacity="1" /><path clip-path="url(#clip070)" d="M2098.64 214.388 L2128.32 214.388 L2128.32 218.277 L2098.64 218.277 L2098.64 214.388 M2098.64 223.832 L2128.32 223.832 L2128.32 227.768 L2098.64 227.768 L2098.64 223.832 Z" fill="#000000" fill-rule="evenodd" fill-opacity="1" /><path clip-path="url(#clip070)" d="M2148.41 204.434 Q2144.8 204.434 2142.97 207.999 Q2141.17 211.541 2141.17 218.67 Q2141.17 225.777 2142.97 229.342 Q2144.8 232.883 2148.41 232.883 Q2152.05 232.883 2153.85 229.342 Q2155.68 225.777 2155.68 218.67 Q2155.68 211.541 2153.85 207.999 Q2152.05 204.434 2148.41 204.434 M2148.41 200.731 Q2154.22 200.731 2157.28 205.337 Q2160.36 209.92 2160.36 218.67 Q2160.36 227.397 2157.28 232.004 Q2154.22 236.587 2148.41 236.587 Q2142.6 236.587 2139.52 232.004 Q2136.47 227.397 2136.47 218.67 Q2136.47 209.92 2139.52 205.337 Q2142.6 200.731 2148.41 200.731 Z" fill="#000000" fill-rule="evenodd" fill-opacity="1" /><path clip-path="url(#clip070)" d="M2168.57 230.036 L2173.46 230.036 L2173.46 235.916 L2168.57 235.916 L2168.57 230.036 Z" fill="#000000" fill-rule="evenodd" fill-opacity="1" /><path clip-path="url(#clip070)" d="M2197.81 217.282 Q2201.17 217.999 2203.04 220.268 Q2204.94 222.536 2204.94 225.869 Q2204.94 230.985 2201.42 233.786 Q2197.9 236.587 2191.42 236.587 Q2189.24 236.587 2186.93 236.147 Q2184.64 235.731 2182.18 234.874 L2182.18 230.36 Q2184.13 231.494 2186.44 232.073 Q2188.76 232.652 2191.28 232.652 Q2195.68 232.652 2197.97 230.916 Q2200.29 229.18 2200.29 225.869 Q2200.29 222.814 2198.13 221.101 Q2196 219.365 2192.18 219.365 L2188.16 219.365 L2188.16 215.522 L2192.37 215.522 Q2195.82 215.522 2197.65 214.157 Q2199.48 212.768 2199.48 210.175 Q2199.48 207.513 2197.58 206.101 Q2195.7 204.666 2192.18 204.666 Q2190.26 204.666 2188.06 205.083 Q2185.86 205.499 2183.23 206.379 L2183.23 202.212 Q2185.89 201.471 2188.2 201.101 Q2190.54 200.731 2192.6 200.731 Q2197.92 200.731 2201.03 203.161 Q2204.13 205.569 2204.13 209.689 Q2204.13 212.559 2202.48 214.55 Q2200.84 216.518 2197.81 217.282 Z" fill="#000000" fill-rule="evenodd" fill-opacity="1" /><path clip-path="url(#clip070)" d="M2227.97 217.282 Q2231.33 217.999 2233.2 220.268 Q2235.1 222.536 2235.1 225.869 Q2235.1 230.985 2231.58 233.786 Q2228.06 236.587 2221.58 236.587 Q2219.41 236.587 2217.09 236.147 Q2214.8 235.731 2212.35 234.874 L2212.35 230.36 Q2214.29 231.494 2216.61 232.073 Q2218.92 232.652 2221.44 232.652 Q2225.84 232.652 2228.13 230.916 Q2230.45 229.18 2230.45 225.869 Q2230.45 222.814 2228.29 221.101 Q2226.17 219.365 2222.35 219.365 L2218.32 219.365 L2218.32 215.522 L2222.53 215.522 Q2225.98 215.522 2227.81 214.157 Q2229.64 212.768 2229.64 210.175 Q2229.64 207.513 2227.74 206.101 Q2225.86 204.666 2222.35 204.666 Q2220.42 204.666 2218.23 205.083 Q2216.03 205.499 2213.39 206.379 L2213.39 202.212 Q2216.05 201.471 2218.36 201.101 Q2220.7 200.731 2222.76 200.731 Q2228.09 200.731 2231.19 203.161 Q2234.29 205.569 2234.29 209.689 Q2234.29 212.559 2232.65 214.55 Q2231 216.518 2227.97 217.282 Z" fill="#000000" fill-rule="evenodd" fill-opacity="1" /><polyline clip-path="url(#clip070)" style="stroke:#e26f46; stroke-linecap:butt; stroke-linejoin:round; stroke-width:4; stroke-opacity:1; fill:none" points="
  1906.89,270.476 2047.1,270.476 
  "/>
<path clip-path="url(#clip070)" d="M1977 296.076 L1958.9 288.575 L1951.4 270.476 L1958.9 252.377 L1977 244.876 L1995.09 252.377 L2002.6 270.476 L1995.09 288.575 Z" fill="#e26f46" fill-rule="evenodd" fill-opacity="1" stroke="#000000" stroke-opacity="1" stroke-width="5.12"/>
<path clip-path="url(#clip070)" d="M2070.47 251.737 L2074.75 251.737 L2074.75 273.01 L2087.46 261.83 L2092.9 261.83 L2079.15 273.959 L2093.48 287.756 L2087.93 287.756 L2074.75 275.094 L2074.75 287.756 L2070.47 287.756 L2070.47 251.737 Z" fill="#000000" fill-rule="evenodd" fill-opacity="1" /><path clip-path="url(#clip070)" d="M2098.64 266.228 L2128.32 266.228 L2128.32 270.117 L2098.64 270.117 L2098.64 266.228 M2098.64 275.672 L2128.32 275.672 L2128.32 279.608 L2098.64 279.608 L2098.64 275.672 Z" fill="#000000" fill-rule="evenodd" fill-opacity="1" /><path clip-path="url(#clip070)" d="M2148.41 256.274 Q2144.8 256.274 2142.97 259.839 Q2141.17 263.381 2141.17 270.51 Q2141.17 277.617 2142.97 281.182 Q2144.8 284.723 2148.41 284.723 Q2152.05 284.723 2153.85 281.182 Q2155.68 277.617 2155.68 270.51 Q2155.68 263.381 2153.85 259.839 Q2152.05 256.274 2148.41 256.274 M2148.41 252.571 Q2154.22 252.571 2157.28 257.177 Q2160.36 261.76 2160.36 270.51 Q2160.36 279.237 2157.28 283.844 Q2154.22 288.427 2148.41 288.427 Q2142.6 288.427 2139.52 283.844 Q2136.47 279.237 2136.47 270.51 Q2136.47 261.76 2139.52 257.177 Q2142.6 252.571 2148.41 252.571 Z" fill="#000000" fill-rule="evenodd" fill-opacity="1" /><path clip-path="url(#clip070)" d="M2168.57 281.876 L2173.46 281.876 L2173.46 287.756 L2168.57 287.756 L2168.57 281.876 Z" fill="#000000" fill-rule="evenodd" fill-opacity="1" /><path clip-path="url(#clip070)" d="M2194.22 268.612 Q2191.07 268.612 2189.22 270.765 Q2187.39 272.918 2187.39 276.668 Q2187.39 280.395 2189.22 282.571 Q2191.07 284.723 2194.22 284.723 Q2197.37 284.723 2199.2 282.571 Q2201.05 280.395 2201.05 276.668 Q2201.05 272.918 2199.2 270.765 Q2197.37 268.612 2194.22 268.612 M2203.5 253.96 L2203.5 258.219 Q2201.74 257.386 2199.94 256.946 Q2198.16 256.506 2196.4 256.506 Q2191.77 256.506 2189.31 259.631 Q2186.88 262.756 2186.54 269.075 Q2187.9 267.061 2189.96 265.997 Q2192.02 264.909 2194.5 264.909 Q2199.71 264.909 2202.72 268.08 Q2205.75 271.228 2205.75 276.668 Q2205.75 281.992 2202.6 285.209 Q2199.45 288.427 2194.22 288.427 Q2188.23 288.427 2185.05 283.844 Q2181.88 279.237 2181.88 270.51 Q2181.88 262.316 2185.77 257.455 Q2189.66 252.571 2196.21 252.571 Q2197.97 252.571 2199.75 252.918 Q2201.56 253.265 2203.5 253.96 Z" fill="#000000" fill-rule="evenodd" fill-opacity="1" /><path clip-path="url(#clip070)" d="M2224.38 268.612 Q2221.23 268.612 2219.38 270.765 Q2217.55 272.918 2217.55 276.668 Q2217.55 280.395 2219.38 282.571 Q2221.23 284.723 2224.38 284.723 Q2227.53 284.723 2229.36 282.571 Q2231.21 280.395 2231.21 276.668 Q2231.21 272.918 2229.36 270.765 Q2227.53 268.612 2224.38 268.612 M2233.67 253.96 L2233.67 258.219 Q2231.91 257.386 2230.1 256.946 Q2228.32 256.506 2226.56 256.506 Q2221.93 256.506 2219.48 259.631 Q2217.05 262.756 2216.7 269.075 Q2218.06 267.061 2220.12 265.997 Q2222.18 264.909 2224.66 264.909 Q2229.87 264.909 2232.88 268.08 Q2235.91 271.228 2235.91 276.668 Q2235.91 281.992 2232.76 285.209 Q2229.61 288.427 2224.38 288.427 Q2218.39 288.427 2215.22 283.844 Q2212.05 279.237 2212.05 270.51 Q2212.05 262.316 2215.93 257.455 Q2219.82 252.571 2226.37 252.571 Q2228.13 252.571 2229.92 252.918 Q2231.72 253.265 2233.67 253.96 Z" fill="#000000" fill-rule="evenodd" fill-opacity="1" /><polyline clip-path="url(#clip070)" style="stroke:#3da44d; stroke-linecap:butt; stroke-linejoin:round; stroke-width:4; stroke-opacity:1; fill:none" points="
  1906.89,322.316 2047.1,322.316 
  "/>
<path clip-path="url(#clip070)" d="M1977 347.916 L1958.9 340.415 L1951.4 322.316 L1958.9 304.217 L1977 296.716 L1995.09 304.217 L2002.6 322.316 L1995.09 340.415 Z" fill="#3da44d" fill-rule="evenodd" fill-opacity="1" stroke="#000000" stroke-opacity="1" stroke-width="5.12"/>
<path clip-path="url(#clip070)" d="M2070.47 303.577 L2074.75 303.577 L2074.75 324.85 L2087.46 313.67 L2092.9 313.67 L2079.15 325.799 L2093.48 339.596 L2087.93 339.596 L2074.75 326.934 L2074.75 339.596 L2070.47 339.596 L2070.47 303.577 Z" fill="#000000" fill-rule="evenodd" fill-opacity="1" /><path clip-path="url(#clip070)" d="M2098.64 318.068 L2128.32 318.068 L2128.32 321.957 L2098.64 321.957 L2098.64 318.068 M2098.64 327.512 L2128.32 327.512 L2128.32 331.448 L2098.64 331.448 L2098.64 327.512 Z" fill="#000000" fill-rule="evenodd" fill-opacity="1" /><path clip-path="url(#clip070)" d="M2139.22 335.661 L2146.86 335.661 L2146.86 309.295 L2138.55 310.962 L2138.55 306.702 L2146.81 305.036 L2151.49 305.036 L2151.49 335.661 L2159.13 335.661 L2159.13 339.596 L2139.22 339.596 L2139.22 335.661 Z" fill="#000000" fill-rule="evenodd" fill-opacity="1" /><path clip-path="url(#clip070)" d="M2168.57 333.716 L2173.46 333.716 L2173.46 339.596 L2168.57 339.596 L2168.57 333.716 Z" fill="#000000" fill-rule="evenodd" fill-opacity="1" /><path clip-path="url(#clip070)" d="M2193.64 308.114 Q2190.03 308.114 2188.2 311.679 Q2186.4 315.221 2186.4 322.35 Q2186.4 329.457 2188.2 333.022 Q2190.03 336.563 2193.64 336.563 Q2197.28 336.563 2199.08 333.022 Q2200.91 329.457 2200.91 322.35 Q2200.91 315.221 2199.08 311.679 Q2197.28 308.114 2193.64 308.114 M2193.64 304.411 Q2199.45 304.411 2202.51 309.017 Q2205.59 313.6 2205.59 322.35 Q2205.59 331.077 2202.51 335.684 Q2199.45 340.267 2193.64 340.267 Q2187.83 340.267 2184.75 335.684 Q2181.7 331.077 2181.7 322.35 Q2181.7 313.6 2184.75 309.017 Q2187.83 304.411 2193.64 304.411 Z" fill="#000000" fill-rule="evenodd" fill-opacity="1" /><path clip-path="url(#clip070)" d="M2223.8 308.114 Q2220.19 308.114 2218.36 311.679 Q2216.56 315.221 2216.56 322.35 Q2216.56 329.457 2218.36 333.022 Q2220.19 336.563 2223.8 336.563 Q2227.44 336.563 2229.24 333.022 Q2231.07 329.457 2231.07 322.35 Q2231.07 315.221 2229.24 311.679 Q2227.44 308.114 2223.8 308.114 M2223.8 304.411 Q2229.61 304.411 2232.67 309.017 Q2235.75 313.6 2235.75 322.35 Q2235.75 331.077 2232.67 335.684 Q2229.61 340.267 2223.8 340.267 Q2217.99 340.267 2214.92 335.684 Q2211.86 331.077 2211.86 322.35 Q2211.86 313.6 2214.92 309.017 Q2217.99 304.411 2223.8 304.411 Z" fill="#000000" fill-rule="evenodd" fill-opacity="1" /></svg>
