<?xml version="1.0" encoding="utf-8"?>
<svg xmlns="http://www.w3.org/2000/svg" xmlns:xlink="http://www.w3.org/1999/xlink" width="600" height="400" viewBox="0 0 2400 1600">
<defs>
  <clipPath id="clip890">
    <rect x="0" y="0" width="2400" height="1600"/>
  </clipPath>
</defs>
<path clip-path="url(#clip890)" d="
M0 1600 L2400 1600 L2400 0 L0 0  Z
  " fill="#ffffff" fill-rule="evenodd" fill-opacity="1"/>
<defs>
  <clipPath id="clip891">
    <rect x="480" y="0" width="1681" height="1600"/>
  </clipPath>
</defs>
<path clip-path="url(#clip890)" d="
M700.373 1423.18 L2352.76 1423.18 L2352.76 123.472 L700.373 123.472  Z
  " fill="#ffffff" fill-rule="evenodd" fill-opacity="1"/>
<defs>
  <clipPath id="clip892">
    <rect x="700" y="123" width="1653" height="1301"/>
  </clipPath>
</defs>
<polyline clip-path="url(#clip892)" style="stroke:#000000; stroke-linecap:butt; stroke-linejoin:round; stroke-width:2; stroke-opacity:0.1; fill:none" points="
  715.325,1423.18 715.325,123.472 
  "/>
<polyline clip-path="url(#clip892)" style="stroke:#000000; stroke-linecap:butt; stroke-linejoin:round; stroke-width:2; stroke-opacity:0.1; fill:none" points="
  1033.46,1423.18 1033.46,123.472 
  "/>
<polyline clip-path="url(#clip892)" style="stroke:#000000; stroke-linecap:butt; stroke-linejoin:round; stroke-width:2; stroke-opacity:0.1; fill:none" points="
  1351.59,1423.18 1351.59,123.472 
  "/>
<polyline clip-path="url(#clip892)" style="stroke:#000000; stroke-linecap:butt; stroke-linejoin:round; stroke-width:2; stroke-opacity:0.1; fill:none" points="
  1669.72,1423.18 1669.72,123.472 
  "/>
<polyline clip-path="url(#clip892)" style="stroke:#000000; stroke-linecap:butt; stroke-linejoin:round; stroke-width:2; stroke-opacity:0.1; fill:none" points="
  1987.86,1423.18 1987.86,123.472 
  "/>
<polyline clip-path="url(#clip892)" style="stroke:#000000; stroke-linecap:butt; stroke-linejoin:round; stroke-width:2; stroke-opacity:0.1; fill:none" points="
  2305.99,1423.18 2305.99,123.472 
  "/>
<polyline clip-path="url(#clip890)" style="stroke:#000000; stroke-linecap:butt; stroke-linejoin:round; stroke-width:4; stroke-opacity:1; fill:none" points="
  700.373,1423.18 2352.76,1423.18 
  "/>
<polyline clip-path="url(#clip890)" style="stroke:#000000; stroke-linecap:butt; stroke-linejoin:round; stroke-width:4; stroke-opacity:1; fill:none" points="
  715.325,1423.18 715.325,1404.28 
  "/>
<polyline clip-path="url(#clip890)" style="stroke:#000000; stroke-linecap:butt; stroke-linejoin:round; stroke-width:4; stroke-opacity:1; fill:none" points="
  1033.46,1423.18 1033.46,1404.28 
  "/>
<polyline clip-path="url(#clip890)" style="stroke:#000000; stroke-linecap:butt; stroke-linejoin:round; stroke-width:4; stroke-opacity:1; fill:none" points="
  1351.59,1423.18 1351.59,1404.28 
  "/>
<polyline clip-path="url(#clip890)" style="stroke:#000000; stroke-linecap:butt; stroke-linejoin:round; stroke-width:4; stroke-opacity:1; fill:none" points="
  1669.72,1423.18 1669.72,1404.28 
  "/>
<polyline clip-path="url(#clip890)" style="stroke:#000000; stroke-linecap:butt; stroke-linejoin:round; stroke-width:4; stroke-opacity:1; fill:none" points="
  1987.86,1423.18 1987.86,1404.28 
  "/>
<polyline clip-path="url(#clip890)" style="stroke:#000000; stroke-linecap:butt; stroke-linejoin:round; stroke-width:4; stroke-opacity:1; fill:none" points="
  2305.99,1423.18 2305.99,1404.28 
  "/>
<path clip-path="url(#clip890)" d="M715.325 1454.1 Q711.714 1454.1 709.885 1457.66 Q708.08 1461.2 708.08 1468.33 Q708.08 1475.44 709.885 1479.01 Q711.714 1482.55 715.325 1482.55 Q718.959 1482.55 720.765 1479.01 Q722.594 1475.44 722.594 1468.33 Q722.594 1461.2 720.765 1457.66 Q718.959 1454.1 715.325 1454.1 M715.325 1450.39 Q721.135 1450.39 724.191 1455 Q727.27 1459.58 727.27 1468.33 Q727.27 1477.06 724.191 1481.67 Q721.135 1486.25 715.325 1486.25 Q709.515 1486.25 706.436 1481.67 Q703.381 1477.06 703.381 1468.33 Q703.381 1459.58 706.436 1455 Q709.515 1450.39 715.325 1450.39 Z" fill="#000000" fill-rule="evenodd" fill-opacity="1" /><path clip-path="url(#clip890)" d="M977.984 1481.64 L985.623 1481.64 L985.623 1455.28 L977.313 1456.95 L977.313 1452.69 L985.577 1451.02 L990.252 1451.02 L990.252 1481.64 L997.891 1481.64 L997.891 1485.58 L977.984 1485.58 L977.984 1481.64 Z" fill="#000000" fill-rule="evenodd" fill-opacity="1" /><path clip-path="url(#clip890)" d="M1017.34 1454.1 Q1013.72 1454.1 1011.9 1457.66 Q1010.09 1461.2 1010.09 1468.33 Q1010.09 1475.44 1011.9 1479.01 Q1013.72 1482.55 1017.34 1482.55 Q1020.97 1482.55 1022.78 1479.01 Q1024.6 1475.44 1024.6 1468.33 Q1024.6 1461.2 1022.78 1457.66 Q1020.97 1454.1 1017.34 1454.1 M1017.34 1450.39 Q1023.15 1450.39 1026.2 1455 Q1029.28 1459.58 1029.28 1468.33 Q1029.28 1477.06 1026.2 1481.67 Q1023.15 1486.25 1017.34 1486.25 Q1011.53 1486.25 1008.45 1481.67 Q1005.39 1477.06 1005.39 1468.33 Q1005.39 1459.58 1008.45 1455 Q1011.53 1450.39 1017.34 1450.39 Z" fill="#000000" fill-rule="evenodd" fill-opacity="1" /><path clip-path="url(#clip890)" d="M1047.5 1454.1 Q1043.89 1454.1 1042.06 1457.66 Q1040.25 1461.2 1040.25 1468.33 Q1040.25 1475.44 1042.06 1479.01 Q1043.89 1482.55 1047.5 1482.55 Q1051.13 1482.55 1052.94 1479.01 Q1054.77 1475.44 1054.77 1468.33 Q1054.77 1461.2 1052.94 1457.66 Q1051.13 1454.1 1047.5 1454.1 M1047.5 1450.39 Q1053.31 1450.39 1056.36 1455 Q1059.44 1459.58 1059.44 1468.33 Q1059.44 1477.06 1056.36 1481.67 Q1053.31 1486.25 1047.5 1486.25 Q1041.69 1486.25 1038.61 1481.67 Q1035.55 1477.06 1035.55 1468.33 Q1035.55 1459.58 1038.61 1455 Q1041.69 1450.39 1047.5 1450.39 Z" fill="#000000" fill-rule="evenodd" fill-opacity="1" /><path clip-path="url(#clip890)" d="M1077.66 1454.1 Q1074.05 1454.1 1072.22 1457.66 Q1070.41 1461.2 1070.41 1468.33 Q1070.41 1475.44 1072.22 1479.01 Q1074.05 1482.55 1077.66 1482.55 Q1081.29 1482.55 1083.1 1479.01 Q1084.93 1475.44 1084.93 1468.33 Q1084.93 1461.2 1083.1 1457.66 Q1081.29 1454.1 1077.66 1454.1 M1077.66 1450.39 Q1083.47 1450.39 1086.53 1455 Q1089.6 1459.58 1089.6 1468.33 Q1089.6 1477.06 1086.53 1481.67 Q1083.47 1486.25 1077.66 1486.25 Q1071.85 1486.25 1068.77 1481.67 Q1065.72 1477.06 1065.72 1468.33 Q1065.72 1459.58 1068.77 1455 Q1071.85 1450.39 1077.66 1450.39 Z" fill="#000000" fill-rule="evenodd" fill-opacity="1" /><path clip-path="url(#clip890)" d="M1300.2 1481.64 L1316.52 1481.64 L1316.52 1485.58 L1294.58 1485.58 L1294.58 1481.64 Q1297.24 1478.89 1301.82 1474.26 Q1306.43 1469.61 1307.61 1468.27 Q1309.86 1465.74 1310.73 1464.01 Q1311.64 1462.25 1311.64 1460.56 Q1311.64 1457.8 1309.69 1456.07 Q1307.77 1454.33 1304.67 1454.33 Q1302.47 1454.33 1300.02 1455.09 Q1297.59 1455.86 1294.81 1457.41 L1294.81 1452.69 Q1297.63 1451.55 1300.09 1450.97 Q1302.54 1450.39 1304.58 1450.39 Q1309.95 1450.39 1313.14 1453.08 Q1316.34 1455.77 1316.34 1460.26 Q1316.34 1462.39 1315.53 1464.31 Q1314.74 1466.2 1312.63 1468.8 Q1312.05 1469.47 1308.95 1472.69 Q1305.85 1475.88 1300.2 1481.64 Z" fill="#000000" fill-rule="evenodd" fill-opacity="1" /><path clip-path="url(#clip890)" d="M1336.34 1454.1 Q1332.73 1454.1 1330.9 1457.66 Q1329.09 1461.2 1329.09 1468.33 Q1329.09 1475.44 1330.9 1479.01 Q1332.73 1482.55 1336.34 1482.55 Q1339.97 1482.55 1341.78 1479.01 Q1343.61 1475.44 1343.61 1468.33 Q1343.61 1461.2 1341.78 1457.66 Q1339.97 1454.1 1336.34 1454.1 M1336.34 1450.39 Q1342.15 1450.39 1345.2 1455 Q1348.28 1459.58 1348.28 1468.33 Q1348.28 1477.06 1345.2 1481.67 Q1342.15 1486.25 1336.34 1486.25 Q1330.53 1486.25 1327.45 1481.67 Q1324.39 1477.06 1324.39 1468.33 Q1324.39 1459.58 1327.45 1455 Q1330.53 1450.39 1336.34 1450.39 Z" fill="#000000" fill-rule="evenodd" fill-opacity="1" /><path clip-path="url(#clip890)" d="M1366.5 1454.1 Q1362.89 1454.1 1361.06 1457.66 Q1359.25 1461.2 1359.25 1468.33 Q1359.25 1475.44 1361.06 1479.01 Q1362.89 1482.55 1366.5 1482.55 Q1370.13 1482.55 1371.94 1479.01 Q1373.77 1475.44 1373.77 1468.33 Q1373.77 1461.2 1371.94 1457.66 Q1370.13 1454.1 1366.5 1454.1 M1366.5 1450.39 Q1372.31 1450.39 1375.36 1455 Q1378.44 1459.58 1378.44 1468.33 Q1378.44 1477.06 1375.36 1481.67 Q1372.31 1486.25 1366.5 1486.25 Q1360.69 1486.25 1357.61 1481.67 Q1354.55 1477.06 1354.55 1468.33 Q1354.55 1459.58 1357.61 1455 Q1360.69 1450.39 1366.5 1450.39 Z" fill="#000000" fill-rule="evenodd" fill-opacity="1" /><path clip-path="url(#clip890)" d="M1396.66 1454.1 Q1393.05 1454.1 1391.22 1457.66 Q1389.42 1461.2 1389.42 1468.33 Q1389.42 1475.44 1391.22 1479.01 Q1393.05 1482.55 1396.66 1482.55 Q1400.29 1482.55 1402.1 1479.01 Q1403.93 1475.44 1403.93 1468.33 Q1403.93 1461.2 1402.1 1457.66 Q1400.29 1454.1 1396.66 1454.1 M1396.66 1450.39 Q1402.47 1450.39 1405.53 1455 Q1408.6 1459.58 1408.6 1468.33 Q1408.6 1477.06 1405.53 1481.67 Q1402.47 1486.25 1396.66 1486.25 Q1390.85 1486.25 1387.77 1481.67 Q1384.72 1477.06 1384.72 1468.33 Q1384.72 1459.58 1387.77 1455 Q1390.85 1450.39 1396.66 1450.39 Z" fill="#000000" fill-rule="evenodd" fill-opacity="1" /><path clip-path="url(#clip890)" d="M1628.41 1466.95 Q1631.76 1467.66 1633.64 1469.93 Q1635.53 1472.2 1635.53 1475.53 Q1635.53 1480.65 1632.02 1483.45 Q1628.5 1486.25 1622.02 1486.25 Q1619.84 1486.25 1617.53 1485.81 Q1615.23 1485.39 1612.78 1484.54 L1612.78 1480.02 Q1614.72 1481.16 1617.04 1481.74 Q1619.35 1482.32 1621.88 1482.32 Q1626.28 1482.32 1628.57 1480.58 Q1630.88 1478.84 1630.88 1475.53 Q1630.88 1472.48 1628.73 1470.77 Q1626.6 1469.03 1622.78 1469.03 L1618.75 1469.03 L1618.75 1465.19 L1622.97 1465.19 Q1626.41 1465.19 1628.24 1463.82 Q1630.07 1462.43 1630.07 1459.84 Q1630.07 1457.18 1628.17 1455.77 Q1626.3 1454.33 1622.78 1454.33 Q1620.86 1454.33 1618.66 1454.75 Q1616.46 1455.16 1613.82 1456.04 L1613.82 1451.88 Q1616.48 1451.14 1618.8 1450.77 Q1621.14 1450.39 1623.2 1450.39 Q1628.52 1450.39 1631.62 1452.83 Q1634.72 1455.23 1634.72 1459.35 Q1634.72 1462.22 1633.08 1464.21 Q1631.44 1466.18 1628.41 1466.95 Z" fill="#000000" fill-rule="evenodd" fill-opacity="1" /><path clip-path="url(#clip890)" d="M1654.4 1454.1 Q1650.79 1454.1 1648.96 1457.66 Q1647.15 1461.2 1647.15 1468.33 Q1647.15 1475.44 1648.96 1479.01 Q1650.79 1482.55 1654.4 1482.55 Q1658.03 1482.55 1659.84 1479.01 Q1661.67 1475.44 1661.67 1468.33 Q1661.67 1461.2 1659.84 1457.66 Q1658.03 1454.1 1654.4 1454.1 M1654.4 1450.39 Q1660.21 1450.39 1663.27 1455 Q1666.34 1459.58 1666.34 1468.33 Q1666.34 1477.06 1663.27 1481.67 Q1660.21 1486.25 1654.4 1486.25 Q1648.59 1486.25 1645.51 1481.67 Q1642.46 1477.06 1642.46 1468.33 Q1642.46 1459.58 1645.51 1455 Q1648.59 1450.39 1654.4 1450.39 Z" fill="#000000" fill-rule="evenodd" fill-opacity="1" /><path clip-path="url(#clip890)" d="M1684.56 1454.1 Q1680.95 1454.1 1679.12 1457.66 Q1677.32 1461.2 1677.32 1468.33 Q1677.32 1475.44 1679.12 1479.01 Q1680.95 1482.55 1684.56 1482.55 Q1688.2 1482.55 1690 1479.01 Q1691.83 1475.44 1691.83 1468.33 Q1691.83 1461.2 1690 1457.66 Q1688.2 1454.1 1684.56 1454.1 M1684.56 1450.39 Q1690.37 1450.39 1693.43 1455 Q1696.51 1459.58 1696.51 1468.33 Q1696.51 1477.06 1693.43 1481.67 Q1690.37 1486.25 1684.56 1486.25 Q1678.75 1486.25 1675.67 1481.67 Q1672.62 1477.06 1672.62 1468.33 Q1672.62 1459.58 1675.67 1455 Q1678.75 1450.39 1684.56 1450.39 Z" fill="#000000" fill-rule="evenodd" fill-opacity="1" /><path clip-path="url(#clip890)" d="M1714.72 1454.1 Q1711.11 1454.1 1709.28 1457.66 Q1707.48 1461.2 1707.48 1468.33 Q1707.48 1475.44 1709.28 1479.01 Q1711.11 1482.55 1714.72 1482.55 Q1718.36 1482.55 1720.16 1479.01 Q1721.99 1475.44 1721.99 1468.33 Q1721.99 1461.2 1720.16 1457.66 Q1718.36 1454.1 1714.72 1454.1 M1714.72 1450.39 Q1720.53 1450.39 1723.59 1455 Q1726.67 1459.58 1726.67 1468.33 Q1726.67 1477.06 1723.59 1481.67 Q1720.53 1486.25 1714.72 1486.25 Q1708.91 1486.25 1705.84 1481.67 Q1702.78 1477.06 1702.78 1468.33 Q1702.78 1459.58 1705.84 1455 Q1708.91 1450.39 1714.72 1450.39 Z" fill="#000000" fill-rule="evenodd" fill-opacity="1" /><path clip-path="url(#clip890)" d="M1945.87 1455.09 L1934.06 1473.54 L1945.87 1473.54 L1945.87 1455.09 M1944.64 1451.02 L1950.52 1451.02 L1950.52 1473.54 L1955.45 1473.54 L1955.45 1477.43 L1950.52 1477.43 L1950.52 1485.58 L1945.87 1485.58 L1945.87 1477.43 L1930.27 1477.43 L1930.27 1472.92 L1944.64 1451.02 Z" fill="#000000" fill-rule="evenodd" fill-opacity="1" /><path clip-path="url(#clip890)" d="M1973.18 1454.1 Q1969.57 1454.1 1967.74 1457.66 Q1965.94 1461.2 1965.94 1468.33 Q1965.94 1475.44 1967.74 1479.01 Q1969.57 1482.55 1973.18 1482.55 Q1976.82 1482.55 1978.62 1479.01 Q1980.45 1475.44 1980.45 1468.33 Q1980.45 1461.2 1978.62 1457.66 Q1976.82 1454.1 1973.18 1454.1 M1973.18 1450.39 Q1978.99 1450.39 1982.05 1455 Q1985.13 1459.58 1985.13 1468.33 Q1985.13 1477.06 1982.05 1481.67 Q1978.99 1486.25 1973.18 1486.25 Q1967.37 1486.25 1964.29 1481.67 Q1961.24 1477.06 1961.24 1468.33 Q1961.24 1459.58 1964.29 1455 Q1967.37 1450.39 1973.18 1450.39 Z" fill="#000000" fill-rule="evenodd" fill-opacity="1" /><path clip-path="url(#clip890)" d="M2003.34 1454.1 Q1999.73 1454.1 1997.9 1457.66 Q1996.1 1461.2 1996.1 1468.33 Q1996.1 1475.44 1997.9 1479.01 Q1999.73 1482.55 2003.34 1482.55 Q2006.98 1482.55 2008.78 1479.01 Q2010.61 1475.44 2010.61 1468.33 Q2010.61 1461.2 2008.78 1457.66 Q2006.98 1454.1 2003.34 1454.1 M2003.34 1450.39 Q2009.15 1450.39 2012.21 1455 Q2015.29 1459.58 2015.29 1468.33 Q2015.29 1477.06 2012.21 1481.67 Q2009.15 1486.25 2003.34 1486.25 Q1997.53 1486.25 1994.45 1481.67 Q1991.4 1477.06 1991.4 1468.33 Q1991.4 1459.58 1994.45 1455 Q1997.53 1450.39 2003.34 1450.39 Z" fill="#000000" fill-rule="evenodd" fill-opacity="1" /><path clip-path="url(#clip890)" d="M2033.51 1454.1 Q2029.89 1454.1 2028.07 1457.66 Q2026.26 1461.2 2026.26 1468.33 Q2026.26 1475.44 2028.07 1479.01 Q2029.89 1482.55 2033.51 1482.55 Q2037.14 1482.55 2038.95 1479.01 Q2040.77 1475.44 2040.77 1468.33 Q2040.77 1461.2 2038.95 1457.66 Q2037.14 1454.1 2033.51 1454.1 M2033.51 1450.39 Q2039.32 1450.39 2042.37 1455 Q2045.45 1459.58 2045.45 1468.33 Q2045.45 1477.06 2042.37 1481.67 Q2039.32 1486.25 2033.51 1486.25 Q2027.7 1486.25 2024.62 1481.67 Q2021.56 1477.06 2021.56 1468.33 Q2021.56 1459.58 2024.62 1455 Q2027.7 1450.39 2033.51 1450.39 Z" fill="#000000" fill-rule="evenodd" fill-opacity="1" /><path clip-path="url(#clip890)" d="M2250.53 1451.02 L2268.88 1451.02 L2268.88 1454.96 L2254.81 1454.96 L2254.81 1463.43 Q2255.83 1463.08 2256.85 1462.92 Q2257.87 1462.73 2258.88 1462.73 Q2264.67 1462.73 2268.05 1465.9 Q2271.43 1469.08 2271.43 1474.49 Q2271.43 1480.07 2267.96 1483.17 Q2264.49 1486.25 2258.17 1486.25 Q2255.99 1486.25 2253.72 1485.88 Q2251.48 1485.51 2249.07 1484.77 L2249.07 1480.07 Q2251.15 1481.2 2253.37 1481.76 Q2255.6 1482.32 2258.07 1482.32 Q2262.08 1482.32 2264.42 1480.21 Q2266.75 1478.1 2266.75 1474.49 Q2266.75 1470.88 2264.42 1468.77 Q2262.08 1466.67 2258.07 1466.67 Q2256.2 1466.67 2254.32 1467.08 Q2252.47 1467.5 2250.53 1468.38 L2250.53 1451.02 Z" fill="#000000" fill-rule="evenodd" fill-opacity="1" /><path clip-path="url(#clip890)" d="M2290.64 1454.1 Q2287.03 1454.1 2285.2 1457.66 Q2283.4 1461.2 2283.4 1468.33 Q2283.4 1475.44 2285.2 1479.01 Q2287.03 1482.55 2290.64 1482.55 Q2294.28 1482.55 2296.08 1479.01 Q2297.91 1475.44 2297.91 1468.33 Q2297.91 1461.2 2296.08 1457.66 Q2294.28 1454.1 2290.64 1454.1 M2290.64 1450.39 Q2296.45 1450.39 2299.51 1455 Q2302.59 1459.58 2302.59 1468.33 Q2302.59 1477.06 2299.51 1481.67 Q2296.45 1486.25 2290.64 1486.25 Q2284.83 1486.25 2281.75 1481.67 Q2278.7 1477.06 2278.7 1468.33 Q2278.7 1459.58 2281.75 1455 Q2284.83 1450.39 2290.64 1450.39 Z" fill="#000000" fill-rule="evenodd" fill-opacity="1" /><path clip-path="url(#clip890)" d="M2320.81 1454.1 Q2317.19 1454.1 2315.37 1457.66 Q2313.56 1461.2 2313.56 1468.33 Q2313.56 1475.44 2315.37 1479.01 Q2317.19 1482.55 2320.81 1482.55 Q2324.44 1482.55 2326.24 1479.01 Q2328.07 1475.44 2328.07 1468.33 Q2328.07 1461.2 2326.24 1457.66 Q2324.44 1454.1 2320.81 1454.1 M2320.81 1450.39 Q2326.62 1450.39 2329.67 1455 Q2332.75 1459.58 2332.75 1468.33 Q2332.75 1477.06 2329.67 1481.67 Q2326.62 1486.25 2320.81 1486.25 Q2314.99 1486.25 2311.92 1481.67 Q2308.86 1477.06 2308.86 1468.33 Q2308.86 1459.58 2311.92 1455 Q2314.99 1450.39 2320.81 1450.39 Z" fill="#000000" fill-rule="evenodd" fill-opacity="1" /><path clip-path="url(#clip890)" d="M2350.97 1454.1 Q2347.36 1454.1 2345.53 1457.66 Q2343.72 1461.2 2343.72 1468.33 Q2343.72 1475.44 2345.53 1479.01 Q2347.36 1482.55 2350.97 1482.55 Q2354.6 1482.55 2356.41 1479.01 Q2358.24 1475.44 2358.24 1468.33 Q2358.24 1461.2 2356.41 1457.66 Q2354.6 1454.1 2350.97 1454.1 M2350.97 1450.39 Q2356.78 1450.39 2359.83 1455 Q2362.91 1459.58 2362.91 1468.33 Q2362.91 1477.06 2359.83 1481.67 Q2356.78 1486.25 2350.97 1486.25 Q2345.16 1486.25 2342.08 1481.67 Q2339.02 1477.06 2339.02 1468.33 Q2339.02 1459.58 2342.08 1455 Q2345.16 1450.39 2350.97 1450.39 Z" fill="#000000" fill-rule="evenodd" fill-opacity="1" /><path clip-path="url(#clip890)" d="M1541.49 1546.53 L1541.49 1568.04 L1535.64 1568.04 L1535.64 1546.72 Q1535.64 1541.66 1533.66 1539.14 Q1531.69 1536.63 1527.74 1536.63 Q1523 1536.63 1520.26 1539.65 Q1517.53 1542.68 1517.53 1547.9 L1517.53 1568.04 L1511.64 1568.04 L1511.64 1532.4 L1517.53 1532.4 L1517.53 1537.93 Q1519.63 1534.72 1522.46 1533.13 Q1525.32 1531.54 1529.05 1531.54 Q1535.19 1531.54 1538.34 1535.36 Q1541.49 1539.14 1541.49 1546.53 Z" fill="#000000" fill-rule="evenodd" fill-opacity="1" /><polyline clip-path="url(#clip892)" style="stroke:#000000; stroke-linecap:butt; stroke-linejoin:round; stroke-width:2; stroke-opacity:0.1; fill:none" points="
  700.373,1423.18 2352.76,1423.18 
  "/>
<polyline clip-path="url(#clip892)" style="stroke:#000000; stroke-linecap:butt; stroke-linejoin:round; stroke-width:2; stroke-opacity:0.1; fill:none" points="
  700.373,1163.24 2352.76,1163.24 
  "/>
<polyline clip-path="url(#clip892)" style="stroke:#000000; stroke-linecap:butt; stroke-linejoin:round; stroke-width:2; stroke-opacity:0.1; fill:none" points="
  700.373,903.297 2352.76,903.297 
  "/>
<polyline clip-path="url(#clip892)" style="stroke:#000000; stroke-linecap:butt; stroke-linejoin:round; stroke-width:2; stroke-opacity:0.1; fill:none" points="
  700.373,643.355 2352.76,643.355 
  "/>
<polyline clip-path="url(#clip892)" style="stroke:#000000; stroke-linecap:butt; stroke-linejoin:round; stroke-width:2; stroke-opacity:0.1; fill:none" points="
  700.373,383.414 2352.76,383.414 
  "/>
<polyline clip-path="url(#clip892)" style="stroke:#000000; stroke-linecap:butt; stroke-linejoin:round; stroke-width:2; stroke-opacity:0.1; fill:none" points="
  700.373,123.472 2352.76,123.472 
  "/>
<polyline clip-path="url(#clip890)" style="stroke:#000000; stroke-linecap:butt; stroke-linejoin:round; stroke-width:4; stroke-opacity:1; fill:none" points="
  700.373,1423.18 700.373,123.472 
  "/>
<polyline clip-path="url(#clip890)" style="stroke:#000000; stroke-linecap:butt; stroke-linejoin:round; stroke-width:4; stroke-opacity:1; fill:none" points="
  700.373,1423.18 719.271,1423.18 
  "/>
<polyline clip-path="url(#clip890)" style="stroke:#000000; stroke-linecap:butt; stroke-linejoin:round; stroke-width:4; stroke-opacity:1; fill:none" points="
  700.373,1163.24 719.271,1163.24 
  "/>
<polyline clip-path="url(#clip890)" style="stroke:#000000; stroke-linecap:butt; stroke-linejoin:round; stroke-width:4; stroke-opacity:1; fill:none" points="
  700.373,903.297 719.271,903.297 
  "/>
<polyline clip-path="url(#clip890)" style="stroke:#000000; stroke-linecap:butt; stroke-linejoin:round; stroke-width:4; stroke-opacity:1; fill:none" points="
  700.373,643.355 719.271,643.355 
  "/>
<polyline clip-path="url(#clip890)" style="stroke:#000000; stroke-linecap:butt; stroke-linejoin:round; stroke-width:4; stroke-opacity:1; fill:none" points="
  700.373,383.414 719.271,383.414 
  "/>
<polyline clip-path="url(#clip890)" style="stroke:#000000; stroke-linecap:butt; stroke-linejoin:round; stroke-width:4; stroke-opacity:1; fill:none" points="
  700.373,123.472 719.271,123.472 
  "/>
<path clip-path="url(#clip890)" d="M607.197 1408.98 Q603.586 1408.98 601.758 1412.54 Q599.952 1416.08 599.952 1423.21 Q599.952 1430.32 601.758 1433.89 Q603.586 1437.43 607.197 1437.43 Q610.832 1437.43 612.637 1433.89 Q614.466 1430.32 614.466 1423.21 Q614.466 1416.08 612.637 1412.54 Q610.832 1408.98 607.197 1408.98 M607.197 1405.27 Q613.007 1405.27 616.063 1409.88 Q619.142 1414.46 619.142 1423.21 Q619.142 1431.94 616.063 1436.55 Q613.007 1441.13 607.197 1441.13 Q601.387 1441.13 598.308 1436.55 Q595.253 1431.94 595.253 1423.21 Q595.253 1414.46 598.308 1409.88 Q601.387 1405.27 607.197 1405.27 Z" fill="#000000" fill-rule="evenodd" fill-opacity="1" /><path clip-path="url(#clip890)" d="M627.359 1434.58 L632.243 1434.58 L632.243 1440.46 L627.359 1440.46 L627.359 1434.58 Z" fill="#000000" fill-rule="evenodd" fill-opacity="1" /><path clip-path="url(#clip890)" d="M652.429 1408.98 Q648.817 1408.98 646.989 1412.54 Q645.183 1416.08 645.183 1423.21 Q645.183 1430.32 646.989 1433.89 Q648.817 1437.43 652.429 1437.43 Q656.063 1437.43 657.868 1433.89 Q659.697 1430.32 659.697 1423.21 Q659.697 1416.08 657.868 1412.54 Q656.063 1408.98 652.429 1408.98 M652.429 1405.27 Q658.239 1405.27 661.294 1409.88 Q664.373 1414.46 664.373 1423.21 Q664.373 1431.94 661.294 1436.55 Q658.239 1441.13 652.429 1441.13 Q646.618 1441.13 643.54 1436.55 Q640.484 1431.94 640.484 1423.21 Q640.484 1414.46 643.54 1409.88 Q646.618 1405.27 652.429 1405.27 Z" fill="#000000" fill-rule="evenodd" fill-opacity="1" /><path clip-path="url(#clip890)" d="M578.031 1149.04 Q574.42 1149.04 572.591 1152.6 Q570.785 1156.14 570.785 1163.27 Q570.785 1170.38 572.591 1173.94 Q574.42 1177.49 578.031 1177.49 Q581.665 1177.49 583.471 1173.94 Q585.299 1170.38 585.299 1163.27 Q585.299 1156.14 583.471 1152.6 Q581.665 1149.04 578.031 1149.04 M578.031 1145.33 Q583.841 1145.33 586.897 1149.94 Q589.975 1154.52 589.975 1163.27 Q589.975 1172 586.897 1176.61 Q583.841 1181.19 578.031 1181.19 Q572.221 1181.19 569.142 1176.61 Q566.086 1172 566.086 1163.27 Q566.086 1154.52 569.142 1149.94 Q572.221 1145.33 578.031 1145.33 Z" fill="#000000" fill-rule="evenodd" fill-opacity="1" /><path clip-path="url(#clip890)" d="M598.193 1174.64 L603.077 1174.64 L603.077 1180.52 L598.193 1180.52 L598.193 1174.64 Z" fill="#000000" fill-rule="evenodd" fill-opacity="1" /><path clip-path="url(#clip890)" d="M623.262 1149.04 Q619.651 1149.04 617.822 1152.6 Q616.017 1156.14 616.017 1163.27 Q616.017 1170.38 617.822 1173.94 Q619.651 1177.49 623.262 1177.49 Q626.896 1177.49 628.702 1173.94 Q630.531 1170.38 630.531 1163.27 Q630.531 1156.14 628.702 1152.6 Q626.896 1149.04 623.262 1149.04 M623.262 1145.33 Q629.072 1145.33 632.128 1149.94 Q635.206 1154.52 635.206 1163.27 Q635.206 1172 632.128 1176.61 Q629.072 1181.19 623.262 1181.19 Q617.452 1181.19 614.373 1176.61 Q611.318 1172 611.318 1163.27 Q611.318 1154.52 614.373 1149.94 Q617.452 1145.33 623.262 1145.33 Z" fill="#000000" fill-rule="evenodd" fill-opacity="1" /><path clip-path="url(#clip890)" d="M643.47 1145.96 L661.827 1145.96 L661.827 1149.89 L647.753 1149.89 L647.753 1158.37 Q648.771 1158.02 649.79 1157.86 Q650.808 1157.67 651.827 1157.67 Q657.614 1157.67 660.993 1160.84 Q664.373 1164.01 664.373 1169.43 Q664.373 1175.01 660.901 1178.11 Q657.429 1181.19 651.109 1181.19 Q648.933 1181.19 646.665 1180.82 Q644.419 1180.45 642.012 1179.71 L642.012 1175.01 Q644.095 1176.14 646.317 1176.7 Q648.54 1177.25 651.017 1177.25 Q655.021 1177.25 657.359 1175.15 Q659.697 1173.04 659.697 1169.43 Q659.697 1165.82 657.359 1163.71 Q655.021 1161.61 651.017 1161.61 Q649.142 1161.61 647.267 1162.02 Q645.415 1162.44 643.47 1163.32 L643.47 1145.96 Z" fill="#000000" fill-rule="evenodd" fill-opacity="1" /><path clip-path="url(#clip890)" d="M608.424 889.095 Q604.813 889.095 602.984 892.66 Q601.179 896.202 601.179 903.331 Q601.179 910.438 602.984 914.003 Q604.813 917.544 608.424 917.544 Q612.058 917.544 613.864 914.003 Q615.693 910.438 615.693 903.331 Q615.693 896.202 613.864 892.66 Q612.058 889.095 608.424 889.095 M608.424 885.392 Q614.234 885.392 617.29 889.998 Q620.369 894.582 620.369 903.331 Q620.369 912.058 617.29 916.665 Q614.234 921.248 608.424 921.248 Q602.614 921.248 599.535 916.665 Q596.48 912.058 596.48 903.331 Q596.48 894.582 599.535 889.998 Q602.614 885.392 608.424 885.392 Z" fill="#000000" fill-rule="evenodd" fill-opacity="1" /><path clip-path="url(#clip890)" d="M628.586 914.697 L633.47 914.697 L633.47 920.577 L628.586 920.577 L628.586 914.697 Z" fill="#000000" fill-rule="evenodd" fill-opacity="1" /><path clip-path="url(#clip890)" d="M644.466 916.642 L652.104 916.642 L652.104 890.276 L643.794 891.943 L643.794 887.683 L652.058 886.017 L656.734 886.017 L656.734 916.642 L664.373 916.642 L664.373 920.577 L644.466 920.577 L644.466 916.642 Z" fill="#000000" fill-rule="evenodd" fill-opacity="1" /><path clip-path="url(#clip890)" d="M126.205 629.154 Q122.593 629.154 120.765 632.719 Q118.959 636.26 118.959 643.39 Q118.959 650.496 120.765 654.061 Q122.593 657.603 126.205 657.603 Q129.839 657.603 131.644 654.061 Q133.473 650.496 133.473 643.39 Q133.473 636.26 131.644 632.719 Q129.839 629.154 126.205 629.154 M126.205 625.45 Q132.015 625.45 135.07 630.057 Q138.149 634.64 138.149 643.39 Q138.149 652.117 135.07 656.723 Q132.015 661.307 126.205 661.307 Q120.394 661.307 117.316 656.723 Q114.26 652.117 114.26 643.39 Q114.26 634.64 117.316 630.057 Q120.394 625.45 126.205 625.45 Z" fill="#000000" fill-rule="evenodd" fill-opacity="1" /><path clip-path="url(#clip890)" d="M146.366 654.756 L151.251 654.756 L151.251 660.635 L146.366 660.635 L146.366 654.756 Z" fill="#000000" fill-rule="evenodd" fill-opacity="1" /><path clip-path="url(#clip890)" d="M162.246 656.7 L169.885 656.7 L169.885 630.334 L161.575 632.001 L161.575 627.742 L169.839 626.075 L174.514 626.075 L174.514 656.7 L182.153 656.7 L182.153 660.635 L162.246 660.635 L162.246 656.7 Z" fill="#000000" fill-rule="evenodd" fill-opacity="1" /><path clip-path="url(#clip890)" d="M191.644 626.075 L210 626.075 L210 630.01 L195.926 630.01 L195.926 638.483 Q196.945 638.135 197.963 637.973 Q198.982 637.788 200 637.788 Q205.787 637.788 209.167 640.959 Q212.547 644.131 212.547 649.547 Q212.547 655.126 209.074 658.228 Q205.602 661.307 199.283 661.307 Q197.107 661.307 194.838 660.936 Q192.593 660.566 190.186 659.825 L190.186 655.126 Q192.269 656.26 194.491 656.816 Q196.713 657.371 199.19 657.371 Q203.195 657.371 205.533 655.265 Q207.871 653.158 207.871 649.547 Q207.871 645.936 205.533 643.83 Q203.195 641.723 199.19 641.723 Q197.315 641.723 195.44 642.14 Q193.588 642.557 191.644 643.436 L191.644 626.075 Z" fill="#000000" fill-rule="evenodd" fill-opacity="1" /><path clip-path="url(#clip890)" d="M231.76 629.154 Q228.148 629.154 226.32 632.719 Q224.514 636.26 224.514 643.39 Q224.514 650.496 226.32 654.061 Q228.148 657.603 231.76 657.603 Q235.394 657.603 237.199 654.061 Q239.028 650.496 239.028 643.39 Q239.028 636.26 237.199 632.719 Q235.394 629.154 231.76 629.154 M231.76 625.45 Q237.57 625.45 240.625 630.057 Q243.704 634.64 243.704 643.39 Q243.704 652.117 240.625 656.723 Q237.57 661.307 231.76 661.307 Q225.949 661.307 222.871 656.723 Q219.815 652.117 219.815 643.39 Q219.815 634.64 222.871 630.057 Q225.949 625.45 231.76 625.45 Z" fill="#000000" fill-rule="evenodd" fill-opacity="1" /><path clip-path="url(#clip890)" d="M261.921 629.154 Q258.31 629.154 256.482 632.719 Q254.676 636.26 254.676 643.39 Q254.676 650.496 256.482 654.061 Q258.31 657.603 261.921 657.603 Q265.556 657.603 267.361 654.061 Q269.19 650.496 269.19 643.39 Q269.19 636.26 267.361 632.719 Q265.556 629.154 261.921 629.154 M261.921 625.45 Q267.732 625.45 270.787 630.057 Q273.866 634.64 273.866 643.39 Q273.866 652.117 270.787 656.723 Q267.732 661.307 261.921 661.307 Q256.111 661.307 253.033 656.723 Q249.977 652.117 249.977 643.39 Q249.977 634.64 253.033 630.057 Q256.111 625.45 261.921 625.45 Z" fill="#000000" fill-rule="evenodd" fill-opacity="1" /><path clip-path="url(#clip890)" d="M292.083 629.154 Q288.472 629.154 286.643 632.719 Q284.838 636.26 284.838 643.39 Q284.838 650.496 286.643 654.061 Q288.472 657.603 292.083 657.603 Q295.718 657.603 297.523 654.061 Q299.352 650.496 299.352 643.39 Q299.352 636.26 297.523 632.719 Q295.718 629.154 292.083 629.154 M292.083 625.45 Q297.893 625.45 300.949 630.057 Q304.028 634.64 304.028 643.39 Q304.028 652.117 300.949 656.723 Q297.893 661.307 292.083 661.307 Q286.273 661.307 283.194 656.723 Q280.139 652.117 280.139 643.39 Q280.139 634.64 283.194 630.057 Q286.273 625.45 292.083 625.45 Z" fill="#000000" fill-rule="evenodd" fill-opacity="1" /><path clip-path="url(#clip890)" d="M322.245 629.154 Q318.634 629.154 316.805 632.719 Q315 636.26 315 643.39 Q315 650.496 316.805 654.061 Q318.634 657.603 322.245 657.603 Q325.879 657.603 327.685 654.061 Q329.514 650.496 329.514 643.39 Q329.514 636.26 327.685 632.719 Q325.879 629.154 322.245 629.154 M322.245 625.45 Q328.055 625.45 331.111 630.057 Q334.19 634.64 334.19 643.39 Q334.19 652.117 331.111 656.723 Q328.055 661.307 322.245 661.307 Q316.435 661.307 313.356 656.723 Q310.301 652.117 310.301 643.39 Q310.301 634.64 313.356 630.057 Q316.435 625.45 322.245 625.45 Z" fill="#000000" fill-rule="evenodd" fill-opacity="1" /><path clip-path="url(#clip890)" d="M352.407 629.154 Q348.796 629.154 346.967 632.719 Q345.162 636.26 345.162 643.39 Q345.162 650.496 346.967 654.061 Q348.796 657.603 352.407 657.603 Q356.041 657.603 357.847 654.061 Q359.676 650.496 359.676 643.39 Q359.676 636.26 357.847 632.719 Q356.041 629.154 352.407 629.154 M352.407 625.45 Q358.217 625.45 361.273 630.057 Q364.351 634.64 364.351 643.39 Q364.351 652.117 361.273 656.723 Q358.217 661.307 352.407 661.307 Q346.597 661.307 343.518 656.723 Q340.463 652.117 340.463 643.39 Q340.463 634.64 343.518 630.057 Q346.597 625.45 352.407 625.45 Z" fill="#000000" fill-rule="evenodd" fill-opacity="1" /><path clip-path="url(#clip890)" d="M382.569 629.154 Q378.958 629.154 377.129 632.719 Q375.324 636.26 375.324 643.39 Q375.324 650.496 377.129 654.061 Q378.958 657.603 382.569 657.603 Q386.203 657.603 388.009 654.061 Q389.837 650.496 389.837 643.39 Q389.837 636.26 388.009 632.719 Q386.203 629.154 382.569 629.154 M382.569 625.45 Q388.379 625.45 391.435 630.057 Q394.513 634.64 394.513 643.39 Q394.513 652.117 391.435 656.723 Q388.379 661.307 382.569 661.307 Q376.759 661.307 373.68 656.723 Q370.625 652.117 370.625 643.39 Q370.625 634.64 373.68 630.057 Q376.759 625.45 382.569 625.45 Z" fill="#000000" fill-rule="evenodd" fill-opacity="1" /><path clip-path="url(#clip890)" d="M412.731 629.154 Q409.12 629.154 407.291 632.719 Q405.485 636.26 405.485 643.39 Q405.485 650.496 407.291 654.061 Q409.12 657.603 412.731 657.603 Q416.365 657.603 418.171 654.061 Q419.999 650.496 419.999 643.39 Q419.999 636.26 418.171 632.719 Q416.365 629.154 412.731 629.154 M412.731 625.45 Q418.541 625.45 421.596 630.057 Q424.675 634.64 424.675 643.39 Q424.675 652.117 421.596 656.723 Q418.541 661.307 412.731 661.307 Q406.921 661.307 403.842 656.723 Q400.786 652.117 400.786 643.39 Q400.786 634.64 403.842 630.057 Q406.921 625.45 412.731 625.45 Z" fill="#000000" fill-rule="evenodd" fill-opacity="1" /><path clip-path="url(#clip890)" d="M442.893 629.154 Q439.282 629.154 437.453 632.719 Q435.647 636.26 435.647 643.39 Q435.647 650.496 437.453 654.061 Q439.282 657.603 442.893 657.603 Q446.527 657.603 448.332 654.061 Q450.161 650.496 450.161 643.39 Q450.161 636.26 448.332 632.719 Q446.527 629.154 442.893 629.154 M442.893 625.45 Q448.703 625.45 451.758 630.057 Q454.837 634.64 454.837 643.39 Q454.837 652.117 451.758 656.723 Q448.703 661.307 442.893 661.307 Q437.083 661.307 434.004 656.723 Q430.948 652.117 430.948 643.39 Q430.948 634.64 434.004 630.057 Q437.083 625.45 442.893 625.45 Z" fill="#000000" fill-rule="evenodd" fill-opacity="1" /><path clip-path="url(#clip890)" d="M473.055 629.154 Q469.443 629.154 467.615 632.719 Q465.809 636.26 465.809 643.39 Q465.809 650.496 467.615 654.061 Q469.443 657.603 473.055 657.603 Q476.689 657.603 478.494 654.061 Q480.323 650.496 480.323 643.39 Q480.323 636.26 478.494 632.719 Q476.689 629.154 473.055 629.154 M473.055 625.45 Q478.865 625.45 481.92 630.057 Q484.999 634.64 484.999 643.39 Q484.999 652.117 481.92 656.723 Q478.865 661.307 473.055 661.307 Q467.244 661.307 464.166 656.723 Q461.11 652.117 461.11 643.39 Q461.11 634.64 464.166 630.057 Q467.244 625.45 473.055 625.45 Z" fill="#000000" fill-rule="evenodd" fill-opacity="1" /><path clip-path="url(#clip890)" d="M503.216 629.154 Q499.605 629.154 497.777 632.719 Q495.971 636.26 495.971 643.39 Q495.971 650.496 497.777 654.061 Q499.605 657.603 503.216 657.603 Q506.851 657.603 508.656 654.061 Q510.485 650.496 510.485 643.39 Q510.485 636.26 508.656 632.719 Q506.851 629.154 503.216 629.154 M503.216 625.45 Q509.027 625.45 512.082 630.057 Q515.161 634.64 515.161 643.39 Q515.161 652.117 512.082 656.723 Q509.027 661.307 503.216 661.307 Q497.406 661.307 494.328 656.723 Q491.272 652.117 491.272 643.39 Q491.272 634.64 494.328 630.057 Q497.406 625.45 503.216 625.45 Z" fill="#000000" fill-rule="evenodd" fill-opacity="1" /><path clip-path="url(#clip890)" d="M533.378 629.154 Q529.767 629.154 527.938 632.719 Q526.133 636.26 526.133 643.39 Q526.133 650.496 527.938 654.061 Q529.767 657.603 533.378 657.603 Q537.013 657.603 538.818 654.061 Q540.647 650.496 540.647 643.39 Q540.647 636.26 538.818 632.719 Q537.013 629.154 533.378 629.154 M533.378 625.45 Q539.188 625.45 542.244 630.057 Q545.323 634.64 545.323 643.39 Q545.323 652.117 542.244 656.723 Q539.188 661.307 533.378 661.307 Q527.568 661.307 524.489 656.723 Q521.434 652.117 521.434 643.39 Q521.434 634.64 524.489 630.057 Q527.568 625.45 533.378 625.45 Z" fill="#000000" fill-rule="evenodd" fill-opacity="1" /><path clip-path="url(#clip890)" d="M563.54 629.154 Q559.929 629.154 558.1 632.719 Q556.295 636.26 556.295 643.39 Q556.295 650.496 558.1 654.061 Q559.929 657.603 563.54 657.603 Q567.174 657.603 568.98 654.061 Q570.809 650.496 570.809 643.39 Q570.809 636.26 568.98 632.719 Q567.174 629.154 563.54 629.154 M563.54 625.45 Q569.35 625.45 572.406 630.057 Q575.485 634.64 575.485 643.39 Q575.485 652.117 572.406 656.723 Q569.35 661.307 563.54 661.307 Q557.73 661.307 554.651 656.723 Q551.596 652.117 551.596 643.39 Q551.596 634.64 554.651 630.057 Q557.73 625.45 563.54 625.45 Z" fill="#000000" fill-rule="evenodd" fill-opacity="1" /><path clip-path="url(#clip890)" d="M593.702 629.154 Q590.091 629.154 588.262 632.719 Q586.457 636.26 586.457 643.39 Q586.457 650.496 588.262 654.061 Q590.091 657.603 593.702 657.603 Q597.336 657.603 599.142 654.061 Q600.971 650.496 600.971 643.39 Q600.971 636.26 599.142 632.719 Q597.336 629.154 593.702 629.154 M593.702 625.45 Q599.512 625.45 602.568 630.057 Q605.646 634.64 605.646 643.39 Q605.646 652.117 602.568 656.723 Q599.512 661.307 593.702 661.307 Q587.892 661.307 584.813 656.723 Q581.758 652.117 581.758 643.39 Q581.758 634.64 584.813 630.057 Q587.892 625.45 593.702 625.45 Z" fill="#000000" fill-rule="evenodd" fill-opacity="1" /><path clip-path="url(#clip890)" d="M623.864 629.154 Q620.253 629.154 618.424 632.719 Q616.619 636.26 616.619 643.39 Q616.619 650.496 618.424 654.061 Q620.253 657.603 623.864 657.603 Q627.498 657.603 629.304 654.061 Q631.132 650.496 631.132 643.39 Q631.132 636.26 629.304 632.719 Q627.498 629.154 623.864 629.154 M623.864 625.45 Q629.674 625.45 632.73 630.057 Q635.808 634.64 635.808 643.39 Q635.808 652.117 632.73 656.723 Q629.674 661.307 623.864 661.307 Q618.054 661.307 614.975 656.723 Q611.92 652.117 611.92 643.39 Q611.92 634.64 614.975 630.057 Q618.054 625.45 623.864 625.45 Z" fill="#000000" fill-rule="evenodd" fill-opacity="1" /><path clip-path="url(#clip890)" d="M648.054 656.7 L664.373 656.7 L664.373 660.635 L642.429 660.635 L642.429 656.7 Q645.091 653.945 649.674 649.316 Q654.28 644.663 655.461 643.32 Q657.706 640.797 658.586 639.061 Q659.489 637.302 659.489 635.612 Q659.489 632.858 657.544 631.121 Q655.623 629.385 652.521 629.385 Q650.322 629.385 647.868 630.149 Q645.438 630.913 642.66 632.464 L642.66 627.742 Q645.484 626.608 647.938 626.029 Q650.392 625.45 652.429 625.45 Q657.799 625.45 660.993 628.135 Q664.188 630.821 664.188 635.311 Q664.188 637.441 663.378 639.362 Q662.591 641.26 660.484 643.853 Q659.905 644.524 656.804 647.742 Q653.702 650.936 648.054 656.7 Z" fill="#000000" fill-rule="evenodd" fill-opacity="1" /><path clip-path="url(#clip890)" d="M608.795 369.212 Q605.183 369.212 603.355 372.777 Q601.549 376.319 601.549 383.448 Q601.549 390.555 603.355 394.12 Q605.183 397.661 608.795 397.661 Q612.429 397.661 614.234 394.12 Q616.063 390.555 616.063 383.448 Q616.063 376.319 614.234 372.777 Q612.429 369.212 608.795 369.212 M608.795 365.509 Q614.605 365.509 617.66 370.115 Q620.739 374.698 620.739 383.448 Q620.739 392.175 617.66 396.782 Q614.605 401.365 608.795 401.365 Q602.984 401.365 599.906 396.782 Q596.85 392.175 596.85 383.448 Q596.85 374.698 599.906 370.115 Q602.984 365.509 608.795 365.509 Z" fill="#000000" fill-rule="evenodd" fill-opacity="1" /><path clip-path="url(#clip890)" d="M628.956 394.814 L633.841 394.814 L633.841 400.694 L628.956 400.694 L628.956 394.814 Z" fill="#000000" fill-rule="evenodd" fill-opacity="1" /><path clip-path="url(#clip890)" d="M648.054 396.759 L664.373 396.759 L664.373 400.694 L642.429 400.694 L642.429 396.759 Q645.091 394.004 649.674 389.374 Q654.28 384.722 655.461 383.379 Q657.706 380.856 658.586 379.12 Q659.489 377.36 659.489 375.671 Q659.489 372.916 657.544 371.18 Q655.623 369.444 652.521 369.444 Q650.322 369.444 647.868 370.208 Q645.438 370.972 642.66 372.523 L642.66 367.8 Q645.484 366.666 647.938 366.087 Q650.392 365.509 652.429 365.509 Q657.799 365.509 660.993 368.194 Q664.188 370.879 664.188 375.37 Q664.188 377.499 663.378 379.421 Q662.591 381.319 660.484 383.911 Q659.905 384.583 656.804 387.8 Q653.702 390.995 648.054 396.759 Z" fill="#000000" fill-rule="evenodd" fill-opacity="1" /><path clip-path="url(#clip890)" d="M578.031 109.271 Q574.42 109.271 572.591 112.836 Q570.785 116.377 570.785 123.507 Q570.785 130.613 572.591 134.178 Q574.42 137.72 578.031 137.72 Q581.665 137.72 583.471 134.178 Q585.299 130.613 585.299 123.507 Q585.299 116.377 583.471 112.836 Q581.665 109.271 578.031 109.271 M578.031 105.567 Q583.841 105.567 586.897 110.174 Q589.975 114.757 589.975 123.507 Q589.975 132.234 586.897 136.84 Q583.841 141.423 578.031 141.423 Q572.221 141.423 569.142 136.84 Q566.086 132.234 566.086 123.507 Q566.086 114.757 569.142 110.174 Q572.221 105.567 578.031 105.567 Z" fill="#000000" fill-rule="evenodd" fill-opacity="1" /><path clip-path="url(#clip890)" d="M598.193 134.873 L603.077 134.873 L603.077 140.752 L598.193 140.752 L598.193 134.873 Z" fill="#000000" fill-rule="evenodd" fill-opacity="1" /><path clip-path="url(#clip890)" d="M617.29 136.817 L633.609 136.817 L633.609 140.752 L611.665 140.752 L611.665 136.817 Q614.327 134.062 618.91 129.433 Q623.517 124.78 624.697 123.437 Q626.943 120.914 627.822 119.178 Q628.725 117.419 628.725 115.729 Q628.725 112.974 626.781 111.238 Q624.859 109.502 621.757 109.502 Q619.558 109.502 617.105 110.266 Q614.674 111.03 611.896 112.581 L611.896 107.859 Q614.72 106.725 617.174 106.146 Q619.628 105.567 621.665 105.567 Q627.035 105.567 630.23 108.252 Q633.424 110.937 633.424 115.428 Q633.424 117.558 632.614 119.479 Q631.827 121.377 629.72 123.97 Q629.142 124.641 626.04 127.859 Q622.938 131.053 617.29 136.817 Z" fill="#000000" fill-rule="evenodd" fill-opacity="1" /><path clip-path="url(#clip890)" d="M643.47 106.192 L661.827 106.192 L661.827 110.127 L647.753 110.127 L647.753 118.599 Q648.771 118.252 649.79 118.09 Q650.808 117.905 651.827 117.905 Q657.614 117.905 660.993 121.076 Q664.373 124.248 664.373 129.664 Q664.373 135.243 660.901 138.345 Q657.429 141.423 651.109 141.423 Q648.933 141.423 646.665 141.053 Q644.419 140.683 642.012 139.942 L642.012 135.243 Q644.095 136.377 646.317 136.933 Q648.54 137.488 651.017 137.488 Q655.021 137.488 657.359 135.382 Q659.697 133.275 659.697 129.664 Q659.697 126.053 657.359 123.947 Q655.021 121.84 651.017 121.84 Q649.142 121.84 647.267 122.257 Q645.415 122.674 643.47 123.553 L643.47 106.192 Z" fill="#000000" fill-rule="evenodd" fill-opacity="1" /><path clip-path="url(#clip890)" d="M41.3104 1089.3 L58.7206 1089.3 L58.7206 1078.99 Q58.7206 1073.8 56.5881 1071.32 Q54.4238 1068.81 49.9996 1068.81 Q45.5436 1068.81 43.4429 1071.32 Q41.3104 1073.8 41.3104 1078.99 L41.3104 1089.3 M21.7677 1089.3 L36.0905 1089.3 L36.0905 1079.79 Q36.0905 1075.08 34.34 1072.78 Q32.5576 1070.46 28.9291 1070.46 Q25.3325 1070.46 23.5501 1072.78 Q21.7677 1075.08 21.7677 1079.79 L21.7677 1089.3 M16.4842 1095.73 L16.4842 1079.31 Q16.4842 1071.96 19.5397 1067.98 Q22.5952 1064 28.2289 1064 Q32.5894 1064 35.1675 1066.04 Q37.7456 1068.07 38.3822 1072.02 Q39.4007 1067.28 42.6472 1064.67 Q45.8619 1062.03 50.6998 1062.03 Q57.0655 1062.03 60.5348 1066.36 Q64.0042 1070.68 64.0042 1078.67 L64.0042 1095.73 L16.4842 1095.73 Z" fill="#000000" fill-rule="evenodd" fill-opacity="1" /><path clip-path="url(#clip890)" d="M32.4621 1037.46 Q32.4621 1042.17 36.1542 1044.9 Q39.8145 1047.64 46.212 1047.64 Q52.6095 1047.64 56.3017 1044.93 Q59.9619 1042.2 59.9619 1037.46 Q59.9619 1032.78 56.2698 1030.04 Q52.5777 1027.3 46.212 1027.3 Q39.8781 1027.3 36.186 1030.04 Q32.4621 1032.78 32.4621 1037.46 M27.4968 1037.46 Q27.4968 1029.82 32.4621 1025.46 Q37.4273 1021.1 46.212 1021.1 Q54.9649 1021.1 59.9619 1025.46 Q64.9272 1029.82 64.9272 1037.46 Q64.9272 1045.13 59.9619 1049.49 Q54.9649 1053.81 46.212 1053.81 Q37.4273 1053.81 32.4621 1049.49 Q27.4968 1045.13 27.4968 1037.46 Z" fill="#000000" fill-rule="evenodd" fill-opacity="1" /><path clip-path="url(#clip890)" d="M18.2347 1005.59 L28.3562 1005.59 L28.3562 993.532 L32.9077 993.532 L32.9077 1005.59 L52.2594 1005.59 Q56.6199 1005.59 57.8613 1004.42 Q59.1026 1003.21 59.1026 999.547 L59.1026 993.532 L64.0042 993.532 L64.0042 999.547 Q64.0042 1006.33 61.4897 1008.9 Q58.9434 1011.48 52.2594 1011.48 L32.9077 1011.48 L32.9077 1015.78 L28.3562 1015.78 L28.3562 1011.48 L18.2347 1011.48 L18.2347 1005.59 Z" fill="#000000" fill-rule="evenodd" fill-opacity="1" /><path clip-path="url(#clip890)" d="M18.2347 980.036 L28.3562 980.036 L28.3562 967.973 L32.9077 967.973 L32.9077 980.036 L52.2594 980.036 Q56.6199 980.036 57.8613 978.859 Q59.1026 977.649 59.1026 973.989 L59.1026 967.973 L64.0042 967.973 L64.0042 973.989 Q64.0042 980.768 61.4897 983.347 Q58.9434 985.925 52.2594 985.925 L32.9077 985.925 L32.9077 990.222 L28.3562 990.222 L28.3562 985.925 L18.2347 985.925 L18.2347 980.036 Z" fill="#000000" fill-rule="evenodd" fill-opacity="1" /><path clip-path="url(#clip890)" d="M14.479 960.271 L14.479 954.414 L64.0042 954.414 L64.0042 960.271 L14.479 960.271 Z" fill="#000000" fill-rule="evenodd" fill-opacity="1" /><path clip-path="url(#clip890)" d="M44.7161 911.669 L47.5806 911.669 L47.5806 938.596 Q53.6281 938.214 56.8109 934.967 Q59.9619 931.689 59.9619 925.864 Q59.9619 922.49 59.1344 919.339 Q58.3069 916.157 56.6518 913.037 L62.1899 913.037 Q63.5267 916.188 64.227 919.499 Q64.9272 922.809 64.9272 926.214 Q64.9272 934.744 59.9619 939.741 Q54.9967 944.707 46.5303 944.707 Q37.7774 944.707 32.6531 939.996 Q27.4968 935.254 27.4968 927.233 Q27.4968 920.04 32.1438 915.87 Q36.7589 911.669 44.7161 911.669 M42.9973 917.525 Q38.1912 917.589 35.3266 920.231 Q32.4621 922.841 32.4621 927.169 Q32.4621 932.071 35.2312 935.031 Q38.0002 937.959 43.0292 938.405 L42.9973 917.525 Z" fill="#000000" fill-rule="evenodd" fill-opacity="1" /><path clip-path="url(#clip890)" d="M42.4881 872.424 L64.0042 872.424 L64.0042 878.281 L42.679 878.281 Q37.6183 878.281 35.1038 880.254 Q32.5894 882.227 32.5894 886.174 Q32.5894 890.916 35.6131 893.654 Q38.6368 896.391 43.8567 896.391 L64.0042 896.391 L64.0042 902.279 L28.3562 902.279 L28.3562 896.391 L33.8944 896.391 Q30.6797 894.29 29.0883 891.458 Q27.4968 888.593 27.4968 884.869 Q27.4968 878.726 31.3163 875.575 Q35.1038 872.424 42.4881 872.424 Z" fill="#000000" fill-rule="evenodd" fill-opacity="1" /><path clip-path="url(#clip890)" d="M44.7161 830.251 L47.5806 830.251 L47.5806 857.178 Q53.6281 856.796 56.8109 853.55 Q59.9619 850.271 59.9619 844.447 Q59.9619 841.073 59.1344 837.922 Q58.3069 834.739 56.6518 831.62 L62.1899 831.62 Q63.5267 834.771 64.227 838.081 Q64.9272 841.391 64.9272 844.797 Q64.9272 853.327 59.9619 858.324 Q54.9967 863.289 46.5303 863.289 Q37.7774 863.289 32.6531 858.579 Q27.4968 853.836 27.4968 845.815 Q27.4968 838.622 32.1438 834.453 Q36.7589 830.251 44.7161 830.251 M42.9973 836.108 Q38.1912 836.171 35.3266 838.813 Q32.4621 841.423 32.4621 845.752 Q32.4621 850.653 35.2312 853.613 Q38.0002 856.542 43.0292 856.987 L42.9973 836.108 Z" fill="#000000" fill-rule="evenodd" fill-opacity="1" /><path clip-path="url(#clip890)" d="M29.7248 794.985 L35.1993 794.985 Q33.8307 797.468 33.1623 799.982 Q32.4621 802.465 32.4621 805.011 Q32.4621 810.709 36.0905 813.86 Q39.6872 817.011 46.212 817.011 Q52.7369 817.011 56.3653 813.86 Q59.9619 810.709 59.9619 805.011 Q59.9619 802.465 59.2935 799.982 Q58.5933 797.468 57.2247 794.985 L62.6355 794.985 Q63.7814 797.436 64.3543 800.078 Q64.9272 802.688 64.9272 805.648 Q64.9272 813.7 59.8664 818.443 Q54.8057 823.185 46.212 823.185 Q37.491 823.185 32.4939 818.411 Q27.4968 813.605 27.4968 805.266 Q27.4968 802.56 28.0697 799.982 Q28.6108 797.404 29.7248 794.985 Z" fill="#000000" fill-rule="evenodd" fill-opacity="1" /><path clip-path="url(#clip890)" d="M14.479 785.023 L14.479 779.135 L43.7294 779.135 L28.3562 761.661 L28.3562 754.181 L45.0344 773.087 L64.0042 753.385 L64.0042 761.024 L46.5939 779.135 L64.0042 779.135 L64.0042 785.023 L14.479 785.023 Z" fill="#000000" fill-rule="evenodd" fill-opacity="1" /><path clip-path="url(#clip890)" d="M21.7677 719.647 L58.7206 719.647 L58.7206 711.881 Q58.7206 702.046 54.2646 697.495 Q49.8086 692.911 40.1964 692.911 Q30.6479 692.911 26.2237 697.495 Q21.7677 702.046 21.7677 711.881 L21.7677 719.647 M16.4842 726.077 L16.4842 712.868 Q16.4842 699.054 22.2451 692.593 Q27.9743 686.132 40.1964 686.132 Q52.4822 686.132 58.2432 692.625 Q64.0042 699.118 64.0042 712.868 L64.0042 726.077 L16.4842 726.077 Z" fill="#000000" fill-rule="evenodd" fill-opacity="1" /><path clip-path="url(#clip890)" d="M28.3562 676.138 L28.3562 670.281 L64.0042 670.281 L64.0042 676.138 L28.3562 676.138 M14.479 676.138 L14.479 670.281 L21.895 670.281 L21.895 676.138 L14.479 676.138 Z" fill="#000000" fill-rule="evenodd" fill-opacity="1" /><path clip-path="url(#clip890)" d="M29.4065 635.302 L34.9447 635.302 Q33.6716 637.784 33.035 640.458 Q32.3984 643.131 32.3984 645.996 Q32.3984 650.356 33.7352 652.553 Q35.072 654.717 37.7456 654.717 Q39.7826 654.717 40.9603 653.157 Q42.1061 651.598 43.1565 646.887 L43.6021 644.882 Q44.9389 638.644 47.3897 636.034 Q49.8086 633.392 54.1691 633.392 Q59.1344 633.392 62.0308 637.339 Q64.9272 641.253 64.9272 648.128 Q64.9272 650.993 64.3543 654.112 Q63.8132 657.2 62.6992 660.637 L56.6518 660.637 Q58.3387 657.391 59.198 654.24 Q60.0256 651.089 60.0256 648.001 Q60.0256 643.863 58.6251 641.635 Q57.1929 639.407 54.6147 639.407 Q52.2276 639.407 50.9545 641.031 Q49.6813 642.622 48.5037 648.065 L48.0262 650.102 Q46.8804 655.544 44.5251 657.963 Q42.138 660.382 38.0002 660.382 Q32.9713 660.382 30.2341 656.818 Q27.4968 653.253 27.4968 646.696 Q27.4968 643.45 27.9743 640.585 Q28.4517 637.721 29.4065 635.302 Z" fill="#000000" fill-rule="evenodd" fill-opacity="1" /><path clip-path="url(#clip890)" d="M18.2347 618.273 L28.3562 618.273 L28.3562 606.21 L32.9077 606.21 L32.9077 618.273 L52.2594 618.273 Q56.6199 618.273 57.8613 617.096 Q59.1026 615.886 59.1026 612.226 L59.1026 606.21 L64.0042 606.21 L64.0042 612.226 Q64.0042 619.005 61.4897 621.583 Q58.9434 624.162 52.2594 624.162 L32.9077 624.162 L32.9077 628.458 L28.3562 628.458 L28.3562 624.162 L18.2347 624.162 L18.2347 618.273 Z" fill="#000000" fill-rule="evenodd" fill-opacity="1" /><path clip-path="url(#clip890)" d="M46.0847 582.307 Q46.0847 589.405 47.7079 592.142 Q49.3312 594.879 53.2461 594.879 Q56.3653 594.879 58.2114 592.842 Q60.0256 590.773 60.0256 587.24 Q60.0256 582.371 56.5881 579.442 Q53.1188 576.482 47.3897 576.482 L46.0847 576.482 L46.0847 582.307 M43.6657 570.626 L64.0042 570.626 L64.0042 576.482 L58.5933 576.482 Q61.8398 578.488 63.3994 581.48 Q64.9272 584.471 64.9272 588.8 Q64.9272 594.275 61.8716 597.521 Q58.7843 600.736 53.6281 600.736 Q47.6125 600.736 44.5569 596.725 Q41.5014 592.683 41.5014 584.694 L41.5014 576.482 L40.9285 576.482 Q36.8862 576.482 34.6901 579.156 Q32.4621 581.798 32.4621 586.604 Q32.4621 589.659 33.1941 592.556 Q33.9262 595.452 35.3903 598.126 L29.9795 598.126 Q28.7381 594.911 28.1334 591.887 Q27.4968 588.864 27.4968 585.999 Q27.4968 578.265 31.5072 574.445 Q35.5176 570.626 43.6657 570.626 Z" fill="#000000" fill-rule="evenodd" fill-opacity="1" /><path clip-path="url(#clip890)" d="M42.4881 528.931 L64.0042 528.931 L64.0042 534.787 L42.679 534.787 Q37.6183 534.787 35.1038 536.76 Q32.5894 538.734 32.5894 542.681 Q32.5894 547.423 35.6131 550.16 Q38.6368 552.897 43.8567 552.897 L64.0042 552.897 L64.0042 558.786 L28.3562 558.786 L28.3562 552.897 L33.8944 552.897 Q30.6797 550.797 29.0883 547.964 Q27.4968 545.099 27.4968 541.376 Q27.4968 535.233 31.3163 532.082 Q35.1038 528.931 42.4881 528.931 Z" fill="#000000" fill-rule="evenodd" fill-opacity="1" /><path clip-path="url(#clip890)" d="M29.7248 491.596 L35.1993 491.596 Q33.8307 494.078 33.1623 496.593 Q32.4621 499.075 32.4621 501.622 Q32.4621 507.319 36.0905 510.47 Q39.6872 513.621 46.212 513.621 Q52.7369 513.621 56.3653 510.47 Q59.9619 507.319 59.9619 501.622 Q59.9619 499.075 59.2935 496.593 Q58.5933 494.078 57.2247 491.596 L62.6355 491.596 Q63.7814 494.047 64.3543 496.688 Q64.9272 499.298 64.9272 502.258 Q64.9272 510.311 59.8664 515.053 Q54.8057 519.796 46.212 519.796 Q37.491 519.796 32.4939 515.022 Q27.4968 510.215 27.4968 501.876 Q27.4968 499.171 28.0697 496.593 Q28.6108 494.015 29.7248 491.596 Z" fill="#000000" fill-rule="evenodd" fill-opacity="1" /><path clip-path="url(#clip890)" d="M44.7161 450.919 L47.5806 450.919 L47.5806 477.846 Q53.6281 477.464 56.8109 474.217 Q59.9619 470.939 59.9619 465.114 Q59.9619 461.741 59.1344 458.59 Q58.3069 455.407 56.6518 452.287 L62.1899 452.287 Q63.5267 455.439 64.227 458.749 Q64.9272 462.059 64.9272 465.464 Q64.9272 473.995 59.9619 478.992 Q54.9967 483.957 46.5303 483.957 Q37.7774 483.957 32.6531 479.246 Q27.4968 474.504 27.4968 466.483 Q27.4968 459.29 32.1438 455.12 Q36.7589 450.919 44.7161 450.919 M42.9973 456.775 Q38.1912 456.839 35.3266 459.481 Q32.4621 462.091 32.4621 466.419 Q32.4621 471.321 35.2312 474.281 Q38.0002 477.209 43.0292 477.655 L42.9973 456.775 Z" fill="#000000" fill-rule="evenodd" fill-opacity="1" /><path clip-path="url(#clip890)" d="M1367.87 34.4165 Q1366.37 33.8899 1364.87 33.4848 Q1360.86 32.4315 1356.57 32.4315 Q1349.16 32.4315 1345.02 36.4419 Q1341.17 40.1688 1340.45 47.0148 L1367.87 47.0148 L1367.87 52.8481 L1340.45 52.8481 Q1341.17 59.6941 1345.02 63.421 Q1349.16 67.4314 1356.57 67.4314 Q1361.75 67.4314 1364.87 66.3781 L1367.87 65.3654 L1367.87 72.1304 L1364.67 72.8596 Q1360.46 73.7508 1356.12 73.7508 Q1345.27 73.7508 1338.95 67.4314 Q1332.59 61.1119 1332.59 49.9314 Q1332.59 38.7509 1338.95 32.4315 Q1345.27 26.1121 1356.12 26.1121 Q1360.21 26.1121 1364.67 27.0033 Q1366.29 27.3274 1367.87 27.8135 L1367.87 34.4165 Z" fill="#000000" fill-rule="evenodd" fill-opacity="1" /><path clip-path="url(#clip890)" d="M1387.84 34.9026 L1439.77 34.9026 L1439.77 41.7081 L1387.84 41.7081 L1387.84 34.9026 M1387.84 51.4303 L1439.77 51.4303 L1439.77 58.3168 L1387.84 58.3168 L1387.84 51.4303 Z" fill="#000000" fill-rule="evenodd" fill-opacity="1" /><path clip-path="url(#clip890)" d="M1456.38 9.54393 L1463.84 9.54393 L1463.84 72.576 L1456.38 72.576 L1456.38 9.54393 Z" fill="#000000" fill-rule="evenodd" fill-opacity="1" /><path clip-path="url(#clip890)" d="M1497.01 32.4315 Q1491.02 32.4315 1487.53 37.1306 Q1484.05 41.7891 1484.05 49.9314 Q1484.05 58.0738 1487.49 62.7728 Q1490.98 67.4314 1497.01 67.4314 Q1502.97 67.4314 1506.45 62.7323 Q1509.94 58.0333 1509.94 49.9314 Q1509.94 41.8701 1506.45 37.1711 Q1502.97 32.4315 1497.01 32.4315 M1497.01 26.1121 Q1506.74 26.1121 1512.28 32.4315 Q1517.83 38.7509 1517.83 49.9314 Q1517.83 61.0714 1512.28 67.4314 Q1506.74 73.7508 1497.01 73.7508 Q1487.25 73.7508 1481.7 67.4314 Q1476.19 61.0714 1476.19 49.9314 Q1476.19 38.7509 1481.7 32.4315 Q1487.25 26.1121 1497.01 26.1121 Z" fill="#000000" fill-rule="evenodd" fill-opacity="1" /><path clip-path="url(#clip890)" d="M1560.05 49.3643 Q1560.05 41.2625 1556.68 36.8065 Q1553.36 32.3505 1547.33 32.3505 Q1541.33 32.3505 1537.97 36.8065 Q1534.65 41.2625 1534.65 49.3643 Q1534.65 57.4256 1537.97 61.8816 Q1541.33 66.3376 1547.33 66.3376 Q1553.36 66.3376 1556.68 61.8816 Q1560.05 57.4256 1560.05 49.3643 M1567.5 66.9452 Q1567.5 78.5308 1562.35 84.1616 Q1557.21 89.8329 1546.6 89.8329 Q1542.67 89.8329 1539.18 89.2252 Q1535.7 88.6581 1532.42 87.4428 L1532.42 80.1917 Q1535.7 81.9741 1538.9 82.8248 Q1542.1 83.6755 1545.42 83.6755 Q1552.75 83.6755 1556.4 79.8271 Q1560.05 76.0193 1560.05 68.282 L1560.05 64.5957 Q1557.74 68.6061 1554.13 70.5911 Q1550.53 72.576 1545.5 72.576 Q1537.16 72.576 1532.05 66.2161 Q1526.95 59.8562 1526.95 49.3643 Q1526.95 38.832 1532.05 32.472 Q1537.16 26.1121 1545.5 26.1121 Q1550.53 26.1121 1554.13 28.0971 Q1557.74 30.082 1560.05 34.0924 L1560.05 27.2059 L1567.5 27.2059 L1567.5 66.9452 Z" fill="#000000" fill-rule="evenodd" fill-opacity="1" /><path clip-path="url(#clip890)" d="M1579.77 10.2326 L1584.51 10.2326 L1584.51 31.0542 L1598.53 20.1168 L1604.52 20.1168 L1589.33 31.9859 L1605.13 45.516 L1599.01 45.516 L1584.51 33.1202 L1584.51 45.516 L1579.77 45.516 L1579.77 10.2326 Z" fill="#000000" fill-rule="evenodd" fill-opacity="1" /><path clip-path="url(#clip890)" d="M1636.08 9.62495 Q1630.65 18.942 1628.02 28.0566 Q1625.39 37.1711 1625.39 46.5287 Q1625.39 55.8863 1628.02 65.0818 Q1630.69 74.2369 1636.08 83.5134 L1629.6 83.5134 Q1623.52 73.9938 1620.48 64.7983 Q1617.49 55.6027 1617.49 46.5287 Q1617.49 37.4952 1620.48 28.3401 Q1623.48 19.1851 1629.6 9.62495 L1636.08 9.62495 Z" fill="#000000" fill-rule="evenodd" fill-opacity="1" /><path clip-path="url(#clip890)" d="M1688.26 45.1919 L1688.26 72.576 L1680.8 72.576 L1680.8 45.4349 Q1680.8 38.994 1678.29 35.7938 Q1675.78 32.5936 1670.76 32.5936 Q1664.72 32.5936 1661.24 36.4419 Q1657.75 40.2903 1657.75 46.9338 L1657.75 72.576 L1650.26 72.576 L1650.26 27.2059 L1657.75 27.2059 L1657.75 34.2544 Q1660.43 30.163 1664.03 28.1376 Q1667.68 26.1121 1672.42 26.1121 Q1680.24 26.1121 1684.25 30.9732 Q1688.26 35.7938 1688.26 45.1919 Z" fill="#000000" fill-rule="evenodd" fill-opacity="1" /><path clip-path="url(#clip890)" d="M1701.95 9.62495 L1708.43 9.62495 Q1714.51 19.1851 1717.5 28.3401 Q1720.54 37.4952 1720.54 46.5287 Q1720.54 55.6027 1717.5 64.7983 Q1714.51 73.9938 1708.43 83.5134 L1701.95 83.5134 Q1707.34 74.2369 1709.97 65.0818 Q1712.64 55.8863 1712.64 46.5287 Q1712.64 37.1711 1709.97 28.0566 Q1707.34 18.942 1701.95 9.62495 Z" fill="#000000" fill-rule="evenodd" fill-opacity="1" /><polyline clip-path="url(#clip892)" style="stroke:#009af9; stroke-linecap:butt; stroke-linejoin:round; stroke-width:12; stroke-opacity:1; fill:none" points="
  747.139,159.369 874.392,643.632 1033.46,1152.75 1351.59,1236.83 2305.99,1176.82 
  "/>
<path clip-path="url(#clip892)" d="M747.139 175.369 L735.827 170.681 L731.139 159.369 L735.827 148.057 L747.139 143.369 L758.451 148.057 L763.139 159.369 L758.451 170.681 Z" fill="#009af9" fill-rule="evenodd" fill-opacity="1" stroke="#000000" stroke-opacity="1" stroke-width="3.2"/>
<path clip-path="url(#clip892)" d="M874.392 659.632 L863.08 654.944 L858.392 643.632 L863.08 632.32 L874.392 627.632 L885.704 632.32 L890.392 643.632 L885.704 654.944 Z" fill="#009af9" fill-rule="evenodd" fill-opacity="1" stroke="#000000" stroke-opacity="1" stroke-width="3.2"/>
<path clip-path="url(#clip892)" d="M1033.46 1168.75 L1022.15 1164.06 L1017.46 1152.75 L1022.15 1141.44 L1033.46 1136.75 L1044.77 1141.44 L1049.46 1152.75 L1044.77 1164.06 Z" fill="#009af9" fill-rule="evenodd" fill-opacity="1" stroke="#000000" stroke-opacity="1" stroke-width="3.2"/>
<path clip-path="url(#clip892)" d="M1351.59 1252.83 L1340.28 1248.14 L1335.59 1236.83 L1340.28 1225.51 L1351.59 1220.83 L1362.9 1225.51 L1367.59 1236.83 L1362.9 1248.14 Z" fill="#009af9" fill-rule="evenodd" fill-opacity="1" stroke="#000000" stroke-opacity="1" stroke-width="3.2"/>
<path clip-path="url(#clip892)" d="M2305.99 1192.82 L2294.68 1188.13 L2289.99 1176.82 L2294.68 1165.51 L2305.99 1160.82 L2317.3 1165.51 L2321.99 1176.82 L2317.3 1188.13 Z" fill="#009af9" fill-rule="evenodd" fill-opacity="1" stroke="#000000" stroke-opacity="1" stroke-width="3.2"/>
<polyline clip-path="url(#clip892)" style="stroke:#e26f46; stroke-linecap:butt; stroke-linejoin:round; stroke-width:12; stroke-opacity:1; fill:none" points="
  747.139,213.254 874.392,682.369 1033.46,1164.16 1351.59,1289.91 2305.99,1379.96 
  "/>
<path clip-path="url(#clip892)" d="M747.139 229.254 L735.827 224.566 L731.139 213.254 L735.827 201.942 L747.139 197.254 L758.451 201.942 L763.139 213.254 L758.451 224.566 Z" fill="#e26f46" fill-rule="evenodd" fill-opacity="1" stroke="#000000" stroke-opacity="1" stroke-width="3.2"/>
<path clip-path="url(#clip892)" d="M874.392 698.369 L863.08 693.681 L858.392 682.369 L863.08 671.057 L874.392 666.369 L885.704 671.057 L890.392 682.369 L885.704 693.681 Z" fill="#e26f46" fill-rule="evenodd" fill-opacity="1" stroke="#000000" stroke-opacity="1" stroke-width="3.2"/>
<path clip-path="url(#clip892)" d="M1033.46 1180.16 L1022.15 1175.47 L1017.46 1164.16 L1022.15 1152.84 L1033.46 1148.16 L1044.77 1152.84 L1049.46 1164.16 L1044.77 1175.47 Z" fill="#e26f46" fill-rule="evenodd" fill-opacity="1" stroke="#000000" stroke-opacity="1" stroke-width="3.2"/>
<path clip-path="url(#clip892)" d="M1351.59 1305.91 L1340.28 1301.22 L1335.59 1289.91 L1340.28 1278.6 L1351.59 1273.91 L1362.9 1278.6 L1367.59 1289.91 L1362.9 1301.22 Z" fill="#e26f46" fill-rule="evenodd" fill-opacity="1" stroke="#000000" stroke-opacity="1" stroke-width="3.2"/>
<path clip-path="url(#clip892)" d="M2305.99 1395.96 L2294.68 1391.27 L2289.99 1379.96 L2294.68 1368.65 L2305.99 1363.96 L2317.3 1368.65 L2321.99 1379.96 L2317.3 1391.27 Z" fill="#e26f46" fill-rule="evenodd" fill-opacity="1" stroke="#000000" stroke-opacity="1" stroke-width="3.2"/>
<path clip-path="url(#clip890)" d="
M1948.8 322.316 L2297.68 322.316 L2297.68 166.796 L1948.8 166.796  Z
  " fill="#ffffff" fill-rule="evenodd" fill-opacity="1"/>
<polyline clip-path="url(#clip890)" style="stroke:#000000; stroke-linecap:butt; stroke-linejoin:round; stroke-width:4; stroke-opacity:1; fill:none" points="
  1948.8,322.316 2297.68,322.316 2297.68,166.796 1948.8,166.796 1948.8,322.316 
  "/>
<polyline clip-path="url(#clip890)" style="stroke:#009af9; stroke-linecap:butt; stroke-linejoin:round; stroke-width:4; stroke-opacity:1; fill:none" points="
  1967.16,218.636 2077.32,218.636 
  "/>
<path clip-path="url(#clip890)" d="M2022.24 244.236 L2004.14 236.735 L1996.64 218.636 L2004.14 200.537 L2022.24 193.036 L2040.34 200.537 L2047.84 218.636 L2040.34 236.735 Z" fill="#009af9" fill-rule="evenodd" fill-opacity="1" stroke="#000000" stroke-opacity="1" stroke-width="5.12"/>
<path clip-path="url(#clip890)" d="M2095.68 199.897 L2099.96 199.897 L2099.96 221.17 L2112.67 209.99 L2118.11 209.99 L2104.36 222.119 L2118.69 235.916 L2113.13 235.916 L2099.96 223.254 L2099.96 235.916 L2095.68 235.916 L2095.68 199.897 Z" fill="#000000" fill-rule="evenodd" fill-opacity="1" /><path clip-path="url(#clip890)" d="M2123.85 214.388 L2153.53 214.388 L2153.53 218.277 L2123.85 218.277 L2123.85 214.388 M2123.85 223.832 L2153.53 223.832 L2153.53 227.768 L2123.85 227.768 L2123.85 223.832 Z" fill="#000000" fill-rule="evenodd" fill-opacity="1" /><path clip-path="url(#clip890)" d="M2173.62 204.434 Q2170.01 204.434 2168.18 207.999 Q2166.37 211.541 2166.37 218.67 Q2166.37 225.777 2168.18 229.342 Q2170.01 232.883 2173.62 232.883 Q2177.25 232.883 2179.06 229.342 Q2180.89 225.777 2180.89 218.67 Q2180.89 211.541 2179.06 207.999 Q2177.25 204.434 2173.62 204.434 M2173.62 200.731 Q2179.43 200.731 2182.49 205.337 Q2185.56 209.92 2185.56 218.67 Q2185.56 227.397 2182.49 232.004 Q2179.43 236.587 2173.62 236.587 Q2167.81 236.587 2164.73 232.004 Q2161.67 227.397 2161.67 218.67 Q2161.67 209.92 2164.73 205.337 Q2167.81 200.731 2173.62 200.731 Z" fill="#000000" fill-rule="evenodd" fill-opacity="1" /><path clip-path="url(#clip890)" d="M2193.78 230.036 L2198.67 230.036 L2198.67 235.916 L2193.78 235.916 L2193.78 230.036 Z" fill="#000000" fill-rule="evenodd" fill-opacity="1" /><path clip-path="url(#clip890)" d="M2208.9 201.356 L2227.25 201.356 L2227.25 205.291 L2213.18 205.291 L2213.18 213.763 Q2214.2 213.416 2215.22 213.254 Q2216.23 213.069 2217.25 213.069 Q2223.04 213.069 2226.42 216.24 Q2229.8 219.411 2229.8 224.828 Q2229.8 230.406 2226.33 233.508 Q2222.86 236.587 2216.54 236.587 Q2214.36 236.587 2212.09 236.217 Q2209.85 235.846 2207.44 235.106 L2207.44 230.406 Q2209.52 231.541 2211.74 232.096 Q2213.97 232.652 2216.44 232.652 Q2220.45 232.652 2222.79 230.545 Q2225.12 228.439 2225.12 224.828 Q2225.12 221.217 2222.79 219.11 Q2220.45 217.004 2216.44 217.004 Q2214.57 217.004 2212.69 217.42 Q2210.84 217.837 2208.9 218.717 L2208.9 201.356 Z" fill="#000000" fill-rule="evenodd" fill-opacity="1" /><path clip-path="url(#clip890)" d="M2249.01 204.434 Q2245.4 204.434 2243.57 207.999 Q2241.77 211.541 2241.77 218.67 Q2241.77 225.777 2243.57 229.342 Q2245.4 232.883 2249.01 232.883 Q2252.65 232.883 2254.45 229.342 Q2256.28 225.777 2256.28 218.67 Q2256.28 211.541 2254.45 207.999 Q2252.65 204.434 2249.01 204.434 M2249.01 200.731 Q2254.82 200.731 2257.88 205.337 Q2260.96 209.92 2260.96 218.67 Q2260.96 227.397 2257.88 232.004 Q2254.82 236.587 2249.01 236.587 Q2243.2 236.587 2240.12 232.004 Q2237.07 227.397 2237.07 218.67 Q2237.07 209.92 2240.12 205.337 Q2243.2 200.731 2249.01 200.731 Z" fill="#000000" fill-rule="evenodd" fill-opacity="1" /><polyline clip-path="url(#clip890)" style="stroke:#e26f46; stroke-linecap:butt; stroke-linejoin:round; stroke-width:4; stroke-opacity:1; fill:none" points="
  1967.16,270.476 2077.32,270.476 
  "/>
<path clip-path="url(#clip890)" d="M2022.24 296.076 L2004.14 288.575 L1996.64 270.476 L2004.14 252.377 L2022.24 244.876 L2040.34 252.377 L2047.84 270.476 L2040.34 288.575 Z" fill="#e26f46" fill-rule="evenodd" fill-opacity="1" stroke="#000000" stroke-opacity="1" stroke-width="5.12"/>
<path clip-path="url(#clip890)" d="M2095.68 251.737 L2099.96 251.737 L2099.96 273.01 L2112.67 261.83 L2118.11 261.83 L2104.36 273.959 L2118.69 287.756 L2113.13 287.756 L2099.96 275.094 L2099.96 287.756 L2095.68 287.756 L2095.68 251.737 Z" fill="#000000" fill-rule="evenodd" fill-opacity="1" /><path clip-path="url(#clip890)" d="M2123.85 266.228 L2153.53 266.228 L2153.53 270.117 L2123.85 270.117 L2123.85 266.228 M2123.85 275.672 L2153.53 275.672 L2153.53 279.608 L2123.85 279.608 L2123.85 275.672 Z" fill="#000000" fill-rule="evenodd" fill-opacity="1" /><path clip-path="url(#clip890)" d="M2164.43 283.821 L2172.07 283.821 L2172.07 257.455 L2163.76 259.122 L2163.76 254.862 L2172.02 253.196 L2176.7 253.196 L2176.7 283.821 L2184.34 283.821 L2184.34 287.756 L2164.43 287.756 L2164.43 283.821 Z" fill="#000000" fill-rule="evenodd" fill-opacity="1" /><path clip-path="url(#clip890)" d="M2193.78 281.876 L2198.67 281.876 L2198.67 287.756 L2193.78 287.756 L2193.78 281.876 Z" fill="#000000" fill-rule="evenodd" fill-opacity="1" /><path clip-path="url(#clip890)" d="M2218.85 256.274 Q2215.24 256.274 2213.41 259.839 Q2211.61 263.381 2211.61 270.51 Q2211.61 277.617 2213.41 281.182 Q2215.24 284.723 2218.85 284.723 Q2222.48 284.723 2224.29 281.182 Q2226.12 277.617 2226.12 270.51 Q2226.12 263.381 2224.29 259.839 Q2222.48 256.274 2218.85 256.274 M2218.85 252.571 Q2224.66 252.571 2227.72 257.177 Q2230.79 261.76 2230.79 270.51 Q2230.79 279.237 2227.72 283.844 Q2224.66 288.427 2218.85 288.427 Q2213.04 288.427 2209.96 283.844 Q2206.91 279.237 2206.91 270.51 Q2206.91 261.76 2209.96 257.177 Q2213.04 252.571 2218.85 252.571 Z" fill="#000000" fill-rule="evenodd" fill-opacity="1" /><path clip-path="url(#clip890)" d="M2249.01 256.274 Q2245.4 256.274 2243.57 259.839 Q2241.77 263.381 2241.77 270.51 Q2241.77 277.617 2243.57 281.182 Q2245.4 284.723 2249.01 284.723 Q2252.65 284.723 2254.45 281.182 Q2256.28 277.617 2256.28 270.51 Q2256.28 263.381 2254.45 259.839 Q2252.65 256.274 2249.01 256.274 M2249.01 252.571 Q2254.82 252.571 2257.88 257.177 Q2260.96 261.76 2260.96 270.51 Q2260.96 279.237 2257.88 283.844 Q2254.82 288.427 2249.01 288.427 Q2243.2 288.427 2240.12 283.844 Q2237.07 279.237 2237.07 270.51 Q2237.07 261.76 2240.12 257.177 Q2243.2 252.571 2249.01 252.571 Z" fill="#000000" fill-rule="evenodd" fill-opacity="1" /></svg>
