<?xml version="1.0" encoding="utf-8"?>
<svg xmlns="http://www.w3.org/2000/svg" xmlns:xlink="http://www.w3.org/1999/xlink" width="800" height="400" viewBox="0 0 3200 1600">
<defs>
  <clipPath id="clip460">
    <rect x="0" y="0" width="3200" height="1600"/>
  </clipPath>
</defs>
<path clip-path="url(#clip460)" d="
M0 1600 L3200 1600 L3200 0 L0 0  Z
  " fill="#ffffff" fill-rule="evenodd" fill-opacity="1"/>
<defs>
  <clipPath id="clip461">
    <rect x="640" y="0" width="2241" height="1600"/>
  </clipPath>
</defs>
<path clip-path="url(#clip460)" d="
M164.598 1495.09 L1552.76 1495.09 L1552.76 108.352 L164.598 108.352  Z
  " fill="#ffffff" fill-rule="evenodd" fill-opacity="1"/>
<defs>
  <clipPath id="clip462">
    <rect x="164" y="108" width="1389" height="1388"/>
  </clipPath>
</defs>
<polyline clip-path="url(#clip462)" style="stroke:#000000; stroke-linecap:butt; stroke-linejoin:round; stroke-width:2; stroke-opacity:0.1; fill:none" points="
  177.16,1495.09 177.16,108.352 
  "/>
<polyline clip-path="url(#clip462)" style="stroke:#000000; stroke-linecap:butt; stroke-linejoin:round; stroke-width:2; stroke-opacity:0.1; fill:none" points="
  444.421,1495.09 444.421,108.352 
  "/>
<polyline clip-path="url(#clip462)" style="stroke:#000000; stroke-linecap:butt; stroke-linejoin:round; stroke-width:2; stroke-opacity:0.1; fill:none" points="
  711.683,1495.09 711.683,108.352 
  "/>
<polyline clip-path="url(#clip462)" style="stroke:#000000; stroke-linecap:butt; stroke-linejoin:round; stroke-width:2; stroke-opacity:0.1; fill:none" points="
  978.945,1495.09 978.945,108.352 
  "/>
<polyline clip-path="url(#clip462)" style="stroke:#000000; stroke-linecap:butt; stroke-linejoin:round; stroke-width:2; stroke-opacity:0.1; fill:none" points="
  1246.21,1495.09 1246.21,108.352 
  "/>
<polyline clip-path="url(#clip462)" style="stroke:#000000; stroke-linecap:butt; stroke-linejoin:round; stroke-width:2; stroke-opacity:0.1; fill:none" points="
  1513.47,1495.09 1513.47,108.352 
  "/>
<polyline clip-path="url(#clip460)" style="stroke:#000000; stroke-linecap:butt; stroke-linejoin:round; stroke-width:4; stroke-opacity:1; fill:none" points="
  164.598,1495.09 1552.76,1495.09 
  "/>
<polyline clip-path="url(#clip460)" style="stroke:#000000; stroke-linecap:butt; stroke-linejoin:round; stroke-width:4; stroke-opacity:1; fill:none" points="
  177.16,1495.09 177.16,1476.19 
  "/>
<polyline clip-path="url(#clip460)" style="stroke:#000000; stroke-linecap:butt; stroke-linejoin:round; stroke-width:4; stroke-opacity:1; fill:none" points="
  444.421,1495.09 444.421,1476.19 
  "/>
<polyline clip-path="url(#clip460)" style="stroke:#000000; stroke-linecap:butt; stroke-linejoin:round; stroke-width:4; stroke-opacity:1; fill:none" points="
  711.683,1495.09 711.683,1476.19 
  "/>
<polyline clip-path="url(#clip460)" style="stroke:#000000; stroke-linecap:butt; stroke-linejoin:round; stroke-width:4; stroke-opacity:1; fill:none" points="
  978.945,1495.09 978.945,1476.19 
  "/>
<polyline clip-path="url(#clip460)" style="stroke:#000000; stroke-linecap:butt; stroke-linejoin:round; stroke-width:4; stroke-opacity:1; fill:none" points="
  1246.21,1495.09 1246.21,1476.19 
  "/>
<polyline clip-path="url(#clip460)" style="stroke:#000000; stroke-linecap:butt; stroke-linejoin:round; stroke-width:4; stroke-opacity:1; fill:none" points="
  1513.47,1495.09 1513.47,1476.19 
  "/>
<path clip-path="url(#clip460)" d="M177.16 1532.41 Q173.548 1532.41 171.72 1535.97 Q169.914 1539.51 169.914 1546.64 Q169.914 1553.75 171.72 1557.31 Q173.548 1560.86 177.16 1560.86 Q180.794 1560.86 182.599 1557.31 Q184.428 1553.75 184.428 1546.64 Q184.428 1539.51 182.599 1535.97 Q180.794 1532.41 177.16 1532.41 M177.16 1528.7 Q182.97 1528.7 186.025 1533.31 Q189.104 1537.89 189.104 1546.64 Q189.104 1555.37 186.025 1559.98 Q182.97 1564.56 177.16 1564.56 Q171.349 1564.56 168.271 1559.98 Q165.215 1555.37 165.215 1546.64 Q165.215 1537.89 168.271 1533.31 Q171.349 1528.7 177.16 1528.7 Z" fill="#000000" fill-rule="evenodd" fill-opacity="1" /><path clip-path="url(#clip460)" d="M388.947 1559.95 L396.586 1559.95 L396.586 1533.59 L388.276 1535.25 L388.276 1530.99 L396.54 1529.33 L401.216 1529.33 L401.216 1559.95 L408.854 1559.95 L408.854 1563.89 L388.947 1563.89 L388.947 1559.95 Z" fill="#000000" fill-rule="evenodd" fill-opacity="1" /><path clip-path="url(#clip460)" d="M428.299 1532.41 Q424.688 1532.41 422.859 1535.97 Q421.053 1539.51 421.053 1546.64 Q421.053 1553.75 422.859 1557.31 Q424.688 1560.86 428.299 1560.86 Q431.933 1560.86 433.739 1557.31 Q435.567 1553.75 435.567 1546.64 Q435.567 1539.51 433.739 1535.97 Q431.933 1532.41 428.299 1532.41 M428.299 1528.7 Q434.109 1528.7 437.164 1533.31 Q440.243 1537.89 440.243 1546.64 Q440.243 1555.37 437.164 1559.98 Q434.109 1564.56 428.299 1564.56 Q422.489 1564.56 419.41 1559.98 Q416.354 1555.37 416.354 1546.64 Q416.354 1537.89 419.41 1533.31 Q422.489 1528.7 428.299 1528.7 Z" fill="#000000" fill-rule="evenodd" fill-opacity="1" /><path clip-path="url(#clip460)" d="M458.461 1532.41 Q454.85 1532.41 453.021 1535.97 Q451.215 1539.51 451.215 1546.64 Q451.215 1553.75 453.021 1557.31 Q454.85 1560.86 458.461 1560.86 Q462.095 1560.86 463.9 1557.31 Q465.729 1553.75 465.729 1546.64 Q465.729 1539.51 463.9 1535.97 Q462.095 1532.41 458.461 1532.41 M458.461 1528.7 Q464.271 1528.7 467.326 1533.31 Q470.405 1537.89 470.405 1546.64 Q470.405 1555.37 467.326 1559.98 Q464.271 1564.56 458.461 1564.56 Q452.65 1564.56 449.572 1559.98 Q446.516 1555.37 446.516 1546.64 Q446.516 1537.89 449.572 1533.31 Q452.65 1528.7 458.461 1528.7 Z" fill="#000000" fill-rule="evenodd" fill-opacity="1" /><path clip-path="url(#clip460)" d="M488.622 1532.41 Q485.011 1532.41 483.183 1535.97 Q481.377 1539.51 481.377 1546.64 Q481.377 1553.75 483.183 1557.31 Q485.011 1560.86 488.622 1560.86 Q492.257 1560.86 494.062 1557.31 Q495.891 1553.75 495.891 1546.64 Q495.891 1539.51 494.062 1535.97 Q492.257 1532.41 488.622 1532.41 M488.622 1528.7 Q494.433 1528.7 497.488 1533.31 Q500.567 1537.89 500.567 1546.64 Q500.567 1555.37 497.488 1559.98 Q494.433 1564.56 488.622 1564.56 Q482.812 1564.56 479.734 1559.98 Q476.678 1555.37 476.678 1546.64 Q476.678 1537.89 479.734 1533.31 Q482.812 1528.7 488.622 1528.7 Z" fill="#000000" fill-rule="evenodd" fill-opacity="1" /><path clip-path="url(#clip460)" d="M660.294 1559.95 L676.614 1559.95 L676.614 1563.89 L654.67 1563.89 L654.67 1559.95 Q657.332 1557.2 661.915 1552.57 Q666.521 1547.92 667.702 1546.57 Q669.947 1544.05 670.827 1542.31 Q671.73 1540.55 671.73 1538.86 Q671.73 1536.11 669.785 1534.37 Q667.864 1532.64 664.762 1532.64 Q662.563 1532.64 660.109 1533.4 Q657.679 1534.17 654.901 1535.72 L654.901 1530.99 Q657.725 1529.86 660.179 1529.28 Q662.632 1528.7 664.669 1528.7 Q670.04 1528.7 673.234 1531.39 Q676.429 1534.07 676.429 1538.56 Q676.429 1540.69 675.618 1542.61 Q674.831 1544.51 672.725 1547.11 Q672.146 1547.78 669.044 1550.99 Q665.943 1554.19 660.294 1559.95 Z" fill="#000000" fill-rule="evenodd" fill-opacity="1" /><path clip-path="url(#clip460)" d="M696.429 1532.41 Q692.817 1532.41 690.989 1535.97 Q689.183 1539.51 689.183 1546.64 Q689.183 1553.75 690.989 1557.31 Q692.817 1560.86 696.429 1560.86 Q700.063 1560.86 701.868 1557.31 Q703.697 1553.75 703.697 1546.64 Q703.697 1539.51 701.868 1535.97 Q700.063 1532.41 696.429 1532.41 M696.429 1528.7 Q702.239 1528.7 705.294 1533.31 Q708.373 1537.89 708.373 1546.64 Q708.373 1555.37 705.294 1559.98 Q702.239 1564.56 696.429 1564.56 Q690.618 1564.56 687.54 1559.98 Q684.484 1555.37 684.484 1546.64 Q684.484 1537.89 687.54 1533.31 Q690.618 1528.7 696.429 1528.7 Z" fill="#000000" fill-rule="evenodd" fill-opacity="1" /><path clip-path="url(#clip460)" d="M726.59 1532.41 Q722.979 1532.41 721.151 1535.97 Q719.345 1539.51 719.345 1546.64 Q719.345 1553.75 721.151 1557.31 Q722.979 1560.86 726.59 1560.86 Q730.225 1560.86 732.03 1557.31 Q733.859 1553.75 733.859 1546.64 Q733.859 1539.51 732.03 1535.97 Q730.225 1532.41 726.59 1532.41 M726.59 1528.7 Q732.401 1528.7 735.456 1533.31 Q738.535 1537.89 738.535 1546.64 Q738.535 1555.37 735.456 1559.98 Q732.401 1564.56 726.59 1564.56 Q720.78 1564.56 717.702 1559.98 Q714.646 1555.37 714.646 1546.64 Q714.646 1537.89 717.702 1533.31 Q720.78 1528.7 726.59 1528.7 Z" fill="#000000" fill-rule="evenodd" fill-opacity="1" /><path clip-path="url(#clip460)" d="M756.752 1532.41 Q753.141 1532.41 751.313 1535.97 Q749.507 1539.51 749.507 1546.64 Q749.507 1553.75 751.313 1557.31 Q753.141 1560.86 756.752 1560.86 Q760.387 1560.86 762.192 1557.31 Q764.021 1553.75 764.021 1546.64 Q764.021 1539.51 762.192 1535.97 Q760.387 1532.41 756.752 1532.41 M756.752 1528.7 Q762.562 1528.7 765.618 1533.31 Q768.697 1537.89 768.697 1546.64 Q768.697 1555.37 765.618 1559.98 Q762.562 1564.56 756.752 1564.56 Q750.942 1564.56 747.863 1559.98 Q744.808 1555.37 744.808 1546.64 Q744.808 1537.89 747.863 1533.31 Q750.942 1528.7 756.752 1528.7 Z" fill="#000000" fill-rule="evenodd" fill-opacity="1" /><path clip-path="url(#clip460)" d="M937.626 1545.25 Q940.982 1545.97 942.857 1548.24 Q944.755 1550.51 944.755 1553.84 Q944.755 1558.96 941.237 1561.76 Q937.718 1564.56 931.237 1564.56 Q929.061 1564.56 926.746 1564.12 Q924.454 1563.7 922.001 1562.85 L922.001 1558.33 Q923.945 1559.47 926.26 1560.05 Q928.575 1560.62 931.098 1560.62 Q935.496 1560.62 937.788 1558.89 Q940.102 1557.15 940.102 1553.84 Q940.102 1550.79 937.95 1549.07 Q935.82 1547.34 932.001 1547.34 L927.973 1547.34 L927.973 1543.49 L932.186 1543.49 Q935.635 1543.49 937.464 1542.13 Q939.292 1540.74 939.292 1538.15 Q939.292 1535.49 937.394 1534.07 Q935.519 1532.64 932.001 1532.64 Q930.079 1532.64 927.88 1533.05 Q925.681 1533.47 923.042 1534.35 L923.042 1530.18 Q925.704 1529.44 928.019 1529.07 Q930.357 1528.7 932.417 1528.7 Q937.741 1528.7 940.843 1531.13 Q943.945 1533.54 943.945 1537.66 Q943.945 1540.53 942.302 1542.52 Q940.658 1544.49 937.626 1545.25 Z" fill="#000000" fill-rule="evenodd" fill-opacity="1" /><path clip-path="url(#clip460)" d="M963.621 1532.41 Q960.01 1532.41 958.181 1535.97 Q956.376 1539.51 956.376 1546.64 Q956.376 1553.75 958.181 1557.31 Q960.01 1560.86 963.621 1560.86 Q967.255 1560.86 969.061 1557.31 Q970.889 1553.75 970.889 1546.64 Q970.889 1539.51 969.061 1535.97 Q967.255 1532.41 963.621 1532.41 M963.621 1528.7 Q969.431 1528.7 972.487 1533.31 Q975.565 1537.89 975.565 1546.64 Q975.565 1555.37 972.487 1559.98 Q969.431 1564.56 963.621 1564.56 Q957.811 1564.56 954.732 1559.98 Q951.676 1555.37 951.676 1546.64 Q951.676 1537.89 954.732 1533.31 Q957.811 1528.7 963.621 1528.7 Z" fill="#000000" fill-rule="evenodd" fill-opacity="1" /><path clip-path="url(#clip460)" d="M993.783 1532.41 Q990.172 1532.41 988.343 1535.97 Q986.537 1539.51 986.537 1546.64 Q986.537 1553.75 988.343 1557.31 Q990.172 1560.86 993.783 1560.86 Q997.417 1560.86 999.223 1557.31 Q1001.05 1553.75 1001.05 1546.64 Q1001.05 1539.51 999.223 1535.97 Q997.417 1532.41 993.783 1532.41 M993.783 1528.7 Q999.593 1528.7 1002.65 1533.31 Q1005.73 1537.89 1005.73 1546.64 Q1005.73 1555.37 1002.65 1559.98 Q999.593 1564.56 993.783 1564.56 Q987.973 1564.56 984.894 1559.98 Q981.838 1555.37 981.838 1546.64 Q981.838 1537.89 984.894 1533.31 Q987.973 1528.7 993.783 1528.7 Z" fill="#000000" fill-rule="evenodd" fill-opacity="1" /><path clip-path="url(#clip460)" d="M1023.94 1532.41 Q1020.33 1532.41 1018.5 1535.97 Q1016.7 1539.51 1016.7 1546.64 Q1016.7 1553.75 1018.5 1557.31 Q1020.33 1560.86 1023.94 1560.86 Q1027.58 1560.86 1029.38 1557.31 Q1031.21 1553.75 1031.21 1546.64 Q1031.21 1539.51 1029.38 1535.97 Q1027.58 1532.41 1023.94 1532.41 M1023.94 1528.7 Q1029.75 1528.7 1032.81 1533.31 Q1035.89 1537.89 1035.89 1546.64 Q1035.89 1555.37 1032.81 1559.98 Q1029.75 1564.56 1023.94 1564.56 Q1018.13 1564.56 1015.06 1559.98 Q1012 1555.37 1012 1546.64 Q1012 1537.89 1015.06 1533.31 Q1018.13 1528.7 1023.94 1528.7 Z" fill="#000000" fill-rule="evenodd" fill-opacity="1" /><path clip-path="url(#clip460)" d="M1204.22 1533.4 L1192.41 1551.85 L1204.22 1551.85 L1204.22 1533.4 M1202.99 1529.33 L1208.87 1529.33 L1208.87 1551.85 L1213.8 1551.85 L1213.8 1555.74 L1208.87 1555.74 L1208.87 1563.89 L1204.22 1563.89 L1204.22 1555.74 L1188.61 1555.74 L1188.61 1551.23 L1202.99 1529.33 Z" fill="#000000" fill-rule="evenodd" fill-opacity="1" /><path clip-path="url(#clip460)" d="M1231.53 1532.41 Q1227.92 1532.41 1226.09 1535.97 Q1224.29 1539.51 1224.29 1546.64 Q1224.29 1553.75 1226.09 1557.31 Q1227.92 1560.86 1231.53 1560.86 Q1235.17 1560.86 1236.97 1557.31 Q1238.8 1553.75 1238.8 1546.64 Q1238.8 1539.51 1236.97 1535.97 Q1235.17 1532.41 1231.53 1532.41 M1231.53 1528.7 Q1237.34 1528.7 1240.4 1533.31 Q1243.48 1537.89 1243.48 1546.64 Q1243.48 1555.37 1240.4 1559.98 Q1237.34 1564.56 1231.53 1564.56 Q1225.72 1564.56 1222.64 1559.98 Q1219.59 1555.37 1219.59 1546.64 Q1219.59 1537.89 1222.64 1533.31 Q1225.72 1528.7 1231.53 1528.7 Z" fill="#000000" fill-rule="evenodd" fill-opacity="1" /><path clip-path="url(#clip460)" d="M1261.69 1532.41 Q1258.08 1532.41 1256.25 1535.97 Q1254.45 1539.51 1254.45 1546.64 Q1254.45 1553.75 1256.25 1557.31 Q1258.08 1560.86 1261.69 1560.86 Q1265.33 1560.86 1267.13 1557.31 Q1268.96 1553.75 1268.96 1546.64 Q1268.96 1539.51 1267.13 1535.97 Q1265.33 1532.41 1261.69 1532.41 M1261.69 1528.7 Q1267.5 1528.7 1270.56 1533.31 Q1273.64 1537.89 1273.64 1546.64 Q1273.64 1555.37 1270.56 1559.98 Q1267.5 1564.56 1261.69 1564.56 Q1255.88 1564.56 1252.8 1559.98 Q1249.75 1555.37 1249.75 1546.64 Q1249.75 1537.89 1252.8 1533.31 Q1255.88 1528.7 1261.69 1528.7 Z" fill="#000000" fill-rule="evenodd" fill-opacity="1" /><path clip-path="url(#clip460)" d="M1291.85 1532.41 Q1288.24 1532.41 1286.41 1535.97 Q1284.61 1539.51 1284.61 1546.64 Q1284.61 1553.75 1286.41 1557.31 Q1288.24 1560.86 1291.85 1560.86 Q1295.49 1560.86 1297.29 1557.31 Q1299.12 1553.75 1299.12 1546.64 Q1299.12 1539.51 1297.29 1535.97 Q1295.49 1532.41 1291.85 1532.41 M1291.85 1528.7 Q1297.66 1528.7 1300.72 1533.31 Q1303.8 1537.89 1303.8 1546.64 Q1303.8 1555.37 1300.72 1559.98 Q1297.66 1564.56 1291.85 1564.56 Q1286.04 1564.56 1282.97 1559.98 Q1279.91 1555.37 1279.91 1546.64 Q1279.91 1537.89 1282.97 1533.31 Q1286.04 1528.7 1291.85 1528.7 Z" fill="#000000" fill-rule="evenodd" fill-opacity="1" /><path clip-path="url(#clip460)" d="M1458.01 1529.33 L1476.36 1529.33 L1476.36 1533.26 L1462.29 1533.26 L1462.29 1541.74 Q1463.31 1541.39 1464.33 1541.23 Q1465.34 1541.04 1466.36 1541.04 Q1472.15 1541.04 1475.53 1544.21 Q1478.91 1547.38 1478.91 1552.8 Q1478.91 1558.38 1475.44 1561.48 Q1471.96 1564.56 1465.64 1564.56 Q1463.47 1564.56 1461.2 1564.19 Q1458.95 1563.82 1456.55 1563.08 L1456.55 1558.38 Q1458.63 1559.51 1460.85 1560.07 Q1463.08 1560.62 1465.55 1560.62 Q1469.56 1560.62 1471.89 1558.52 Q1474.23 1556.41 1474.23 1552.8 Q1474.23 1549.19 1471.89 1547.08 Q1469.56 1544.98 1465.55 1544.98 Q1463.68 1544.98 1461.8 1545.39 Q1459.95 1545.81 1458.01 1546.69 L1458.01 1529.33 Z" fill="#000000" fill-rule="evenodd" fill-opacity="1" /><path clip-path="url(#clip460)" d="M1498.12 1532.41 Q1494.51 1532.41 1492.68 1535.97 Q1490.88 1539.51 1490.88 1546.64 Q1490.88 1553.75 1492.68 1557.31 Q1494.51 1560.86 1498.12 1560.86 Q1501.76 1560.86 1503.56 1557.31 Q1505.39 1553.75 1505.39 1546.64 Q1505.39 1539.51 1503.56 1535.97 Q1501.76 1532.41 1498.12 1532.41 M1498.12 1528.7 Q1503.93 1528.7 1506.99 1533.31 Q1510.07 1537.89 1510.07 1546.64 Q1510.07 1555.37 1506.99 1559.98 Q1503.93 1564.56 1498.12 1564.56 Q1492.31 1564.56 1489.23 1559.98 Q1486.18 1555.37 1486.18 1546.64 Q1486.18 1537.89 1489.23 1533.31 Q1492.31 1528.7 1498.12 1528.7 Z" fill="#000000" fill-rule="evenodd" fill-opacity="1" /><path clip-path="url(#clip460)" d="M1528.28 1532.41 Q1524.67 1532.41 1522.84 1535.97 Q1521.04 1539.51 1521.04 1546.64 Q1521.04 1553.75 1522.84 1557.31 Q1524.67 1560.86 1528.28 1560.86 Q1531.92 1560.86 1533.72 1557.31 Q1535.55 1553.75 1535.55 1546.64 Q1535.55 1539.51 1533.72 1535.97 Q1531.92 1532.41 1528.28 1532.41 M1528.28 1528.7 Q1534.09 1528.7 1537.15 1533.31 Q1540.23 1537.89 1540.23 1546.64 Q1540.23 1555.37 1537.15 1559.98 Q1534.09 1564.56 1528.28 1564.56 Q1522.47 1564.56 1519.39 1559.98 Q1516.34 1555.37 1516.34 1546.64 Q1516.34 1537.89 1519.39 1533.31 Q1522.47 1528.7 1528.28 1528.7 Z" fill="#000000" fill-rule="evenodd" fill-opacity="1" /><path clip-path="url(#clip460)" d="M1558.45 1532.41 Q1554.83 1532.41 1553.01 1535.97 Q1551.2 1539.51 1551.2 1546.64 Q1551.2 1553.75 1553.01 1557.31 Q1554.83 1560.86 1558.45 1560.86 Q1562.08 1560.86 1563.88 1557.31 Q1565.71 1553.75 1565.71 1546.64 Q1565.71 1539.51 1563.88 1535.97 Q1562.08 1532.41 1558.45 1532.41 M1558.45 1528.7 Q1564.26 1528.7 1567.31 1533.31 Q1570.39 1537.89 1570.39 1546.64 Q1570.39 1555.37 1567.31 1559.98 Q1564.26 1564.56 1558.45 1564.56 Q1552.63 1564.56 1549.56 1559.98 Q1546.5 1555.37 1546.5 1546.64 Q1546.5 1537.89 1549.56 1533.31 Q1552.63 1528.7 1558.45 1528.7 Z" fill="#000000" fill-rule="evenodd" fill-opacity="1" /><polyline clip-path="url(#clip462)" style="stroke:#000000; stroke-linecap:butt; stroke-linejoin:round; stroke-width:2; stroke-opacity:0.1; fill:none" points="
  164.598,1495.09 1552.76,1495.09 
  "/>
<polyline clip-path="url(#clip462)" style="stroke:#000000; stroke-linecap:butt; stroke-linejoin:round; stroke-width:2; stroke-opacity:0.1; fill:none" points="
  164.598,1217.74 1552.76,1217.74 
  "/>
<polyline clip-path="url(#clip462)" style="stroke:#000000; stroke-linecap:butt; stroke-linejoin:round; stroke-width:2; stroke-opacity:0.1; fill:none" points="
  164.598,940.394 1552.76,940.394 
  "/>
<polyline clip-path="url(#clip462)" style="stroke:#000000; stroke-linecap:butt; stroke-linejoin:round; stroke-width:2; stroke-opacity:0.1; fill:none" points="
  164.598,663.046 1552.76,663.046 
  "/>
<polyline clip-path="url(#clip462)" style="stroke:#000000; stroke-linecap:butt; stroke-linejoin:round; stroke-width:2; stroke-opacity:0.1; fill:none" points="
  164.598,385.699 1552.76,385.699 
  "/>
<polyline clip-path="url(#clip462)" style="stroke:#000000; stroke-linecap:butt; stroke-linejoin:round; stroke-width:2; stroke-opacity:0.1; fill:none" points="
  164.598,108.352 1552.76,108.352 
  "/>
<polyline clip-path="url(#clip460)" style="stroke:#000000; stroke-linecap:butt; stroke-linejoin:round; stroke-width:4; stroke-opacity:1; fill:none" points="
  164.598,1495.09 164.598,108.352 
  "/>
<polyline clip-path="url(#clip460)" style="stroke:#000000; stroke-linecap:butt; stroke-linejoin:round; stroke-width:4; stroke-opacity:1; fill:none" points="
  164.598,1495.09 183.496,1495.09 
  "/>
<polyline clip-path="url(#clip460)" style="stroke:#000000; stroke-linecap:butt; stroke-linejoin:round; stroke-width:4; stroke-opacity:1; fill:none" points="
  164.598,1217.74 183.496,1217.74 
  "/>
<polyline clip-path="url(#clip460)" style="stroke:#000000; stroke-linecap:butt; stroke-linejoin:round; stroke-width:4; stroke-opacity:1; fill:none" points="
  164.598,940.394 183.496,940.394 
  "/>
<polyline clip-path="url(#clip460)" style="stroke:#000000; stroke-linecap:butt; stroke-linejoin:round; stroke-width:4; stroke-opacity:1; fill:none" points="
  164.598,663.046 183.496,663.046 
  "/>
<polyline clip-path="url(#clip460)" style="stroke:#000000; stroke-linecap:butt; stroke-linejoin:round; stroke-width:4; stroke-opacity:1; fill:none" points="
  164.598,385.699 183.496,385.699 
  "/>
<polyline clip-path="url(#clip460)" style="stroke:#000000; stroke-linecap:butt; stroke-linejoin:round; stroke-width:4; stroke-opacity:1; fill:none" points="
  164.598,108.352 183.496,108.352 
  "/>
<path clip-path="url(#clip460)" d="M59.4226 1480.89 Q55.8115 1480.89 53.9828 1484.45 Q52.1773 1487.99 52.1773 1495.12 Q52.1773 1502.23 53.9828 1505.79 Q55.8115 1509.34 59.4226 1509.34 Q63.0569 1509.34 64.8624 1505.79 Q66.6911 1502.23 66.6911 1495.12 Q66.6911 1487.99 64.8624 1484.45 Q63.0569 1480.89 59.4226 1480.89 M59.4226 1477.18 Q65.2328 1477.18 68.2883 1481.79 Q71.367 1486.37 71.367 1495.12 Q71.367 1503.85 68.2883 1508.46 Q65.2328 1513.04 59.4226 1513.04 Q53.6125 1513.04 50.5338 1508.46 Q47.4782 1503.85 47.4782 1495.12 Q47.4782 1486.37 50.5338 1481.79 Q53.6125 1477.18 59.4226 1477.18 Z" fill="#000000" fill-rule="evenodd" fill-opacity="1" /><path clip-path="url(#clip460)" d="M79.5845 1506.49 L84.4688 1506.49 L84.4688 1512.37 L79.5845 1512.37 L79.5845 1506.49 Z" fill="#000000" fill-rule="evenodd" fill-opacity="1" /><path clip-path="url(#clip460)" d="M104.654 1480.89 Q101.043 1480.89 99.2141 1484.45 Q97.4085 1487.99 97.4085 1495.12 Q97.4085 1502.23 99.2141 1505.79 Q101.043 1509.34 104.654 1509.34 Q108.288 1509.34 110.094 1505.79 Q111.922 1502.23 111.922 1495.12 Q111.922 1487.99 110.094 1484.45 Q108.288 1480.89 104.654 1480.89 M104.654 1477.18 Q110.464 1477.18 113.52 1481.79 Q116.598 1486.37 116.598 1495.12 Q116.598 1503.85 113.52 1508.46 Q110.464 1513.04 104.654 1513.04 Q98.8437 1513.04 95.765 1508.46 Q92.7095 1503.85 92.7095 1495.12 Q92.7095 1486.37 95.765 1481.79 Q98.8437 1477.18 104.654 1477.18 Z" fill="#000000" fill-rule="evenodd" fill-opacity="1" /><path clip-path="url(#clip460)" d="M61.0198 1203.54 Q57.4087 1203.54 55.58 1207.1 Q53.7745 1210.65 53.7745 1217.78 Q53.7745 1224.88 55.58 1228.45 Q57.4087 1231.99 61.0198 1231.99 Q64.6541 1231.99 66.4596 1228.45 Q68.2883 1224.88 68.2883 1217.78 Q68.2883 1210.65 66.4596 1207.1 Q64.6541 1203.54 61.0198 1203.54 M61.0198 1199.84 Q66.83 1199.84 69.8855 1204.44 Q72.9642 1209.03 72.9642 1217.78 Q72.9642 1226.5 69.8855 1231.11 Q66.83 1235.69 61.0198 1235.69 Q55.2097 1235.69 52.131 1231.11 Q49.0754 1226.5 49.0754 1217.78 Q49.0754 1209.03 52.131 1204.44 Q55.2097 1199.84 61.0198 1199.84 Z" fill="#000000" fill-rule="evenodd" fill-opacity="1" /><path clip-path="url(#clip460)" d="M81.1818 1229.14 L86.066 1229.14 L86.066 1235.02 L81.1818 1235.02 L81.1818 1229.14 Z" fill="#000000" fill-rule="evenodd" fill-opacity="1" /><path clip-path="url(#clip460)" d="M100.279 1231.09 L116.598 1231.09 L116.598 1235.02 L94.6539 1235.02 L94.6539 1231.09 Q97.3159 1228.33 101.899 1223.7 Q106.506 1219.05 107.686 1217.71 Q109.932 1215.18 110.811 1213.45 Q111.714 1211.69 111.714 1210 Q111.714 1207.24 109.77 1205.51 Q107.848 1203.77 104.746 1203.77 Q102.547 1203.77 100.094 1204.53 Q97.6632 1205.3 94.8854 1206.85 L94.8854 1202.13 Q97.7094 1200.99 100.163 1200.41 Q102.617 1199.84 104.654 1199.84 Q110.024 1199.84 113.219 1202.52 Q116.413 1205.21 116.413 1209.7 Q116.413 1211.83 115.603 1213.75 Q114.816 1215.65 112.709 1218.24 Q112.131 1218.91 109.029 1222.13 Q105.927 1225.32 100.279 1231.09 Z" fill="#000000" fill-rule="evenodd" fill-opacity="1" /><path clip-path="url(#clip460)" d="M58.9365 926.192 Q55.3254 926.192 53.4967 929.757 Q51.6912 933.299 51.6912 940.428 Q51.6912 947.535 53.4967 951.1 Q55.3254 954.641 58.9365 954.641 Q62.5707 954.641 64.3763 951.1 Q66.205 947.535 66.205 940.428 Q66.205 933.299 64.3763 929.757 Q62.5707 926.192 58.9365 926.192 M58.9365 922.489 Q64.7467 922.489 67.8022 927.095 Q70.8809 931.678 70.8809 940.428 Q70.8809 949.155 67.8022 953.762 Q64.7467 958.345 58.9365 958.345 Q53.1264 958.345 50.0477 953.762 Q46.9921 949.155 46.9921 940.428 Q46.9921 931.678 50.0477 927.095 Q53.1264 922.489 58.9365 922.489 Z" fill="#000000" fill-rule="evenodd" fill-opacity="1" /><path clip-path="url(#clip460)" d="M79.0984 951.794 L83.9827 951.794 L83.9827 957.674 L79.0984 957.674 L79.0984 951.794 Z" fill="#000000" fill-rule="evenodd" fill-opacity="1" /><path clip-path="url(#clip460)" d="M107.015 927.188 L95.2095 945.637 L107.015 945.637 L107.015 927.188 M105.788 923.114 L111.668 923.114 L111.668 945.637 L116.598 945.637 L116.598 949.525 L111.668 949.525 L111.668 957.674 L107.015 957.674 L107.015 949.525 L91.4132 949.525 L91.4132 945.012 L105.788 923.114 Z" fill="#000000" fill-rule="evenodd" fill-opacity="1" /><path clip-path="url(#clip460)" d="M59.2606 648.845 Q55.6495 648.845 53.8208 652.41 Q52.0152 655.952 52.0152 663.081 Q52.0152 670.188 53.8208 673.752 Q55.6495 677.294 59.2606 677.294 Q62.8948 677.294 64.7004 673.752 Q66.5291 670.188 66.5291 663.081 Q66.5291 655.952 64.7004 652.41 Q62.8948 648.845 59.2606 648.845 M59.2606 645.141 Q65.0707 645.141 68.1263 649.748 Q71.205 654.331 71.205 663.081 Q71.205 671.808 68.1263 676.414 Q65.0707 680.998 59.2606 680.998 Q53.4504 680.998 50.3717 676.414 Q47.3162 671.808 47.3162 663.081 Q47.3162 654.331 50.3717 649.748 Q53.4504 645.141 59.2606 645.141 Z" fill="#000000" fill-rule="evenodd" fill-opacity="1" /><path clip-path="url(#clip460)" d="M79.4225 674.447 L84.3067 674.447 L84.3067 680.326 L79.4225 680.326 L79.4225 674.447 Z" fill="#000000" fill-rule="evenodd" fill-opacity="1" /><path clip-path="url(#clip460)" d="M105.071 661.183 Q101.922 661.183 100.071 663.336 Q98.2419 665.489 98.2419 669.239 Q98.2419 672.965 100.071 675.141 Q101.922 677.294 105.071 677.294 Q108.219 677.294 110.047 675.141 Q111.899 672.965 111.899 669.239 Q111.899 665.489 110.047 663.336 Q108.219 661.183 105.071 661.183 M114.353 646.53 L114.353 650.79 Q112.594 649.956 110.788 649.516 Q109.006 649.077 107.246 649.077 Q102.617 649.077 100.163 652.202 Q97.7326 655.327 97.3854 661.646 Q98.7511 659.632 100.811 658.567 Q102.871 657.479 105.348 657.479 Q110.557 657.479 113.566 660.651 Q116.598 663.799 116.598 669.239 Q116.598 674.563 113.45 677.78 Q110.302 680.998 105.071 680.998 Q99.0752 680.998 95.9039 676.414 Q92.7326 671.808 92.7326 663.081 Q92.7326 654.887 96.6215 650.026 Q100.51 645.141 107.061 645.141 Q108.82 645.141 110.603 645.489 Q112.408 645.836 114.353 646.53 Z" fill="#000000" fill-rule="evenodd" fill-opacity="1" /><path clip-path="url(#clip460)" d="M59.5152 371.498 Q55.9041 371.498 54.0754 375.063 Q52.2699 378.604 52.2699 385.734 Q52.2699 392.84 54.0754 396.405 Q55.9041 399.947 59.5152 399.947 Q63.1494 399.947 64.955 396.405 Q66.7837 392.84 66.7837 385.734 Q66.7837 378.604 64.955 375.063 Q63.1494 371.498 59.5152 371.498 M59.5152 367.794 Q65.3254 367.794 68.3809 372.401 Q71.4596 376.984 71.4596 385.734 Q71.4596 394.461 68.3809 399.067 Q65.3254 403.651 59.5152 403.651 Q53.7051 403.651 50.6264 399.067 Q47.5708 394.461 47.5708 385.734 Q47.5708 376.984 50.6264 372.401 Q53.7051 367.794 59.5152 367.794 Z" fill="#000000" fill-rule="evenodd" fill-opacity="1" /><path clip-path="url(#clip460)" d="M79.6771 397.1 L84.5614 397.1 L84.5614 402.979 L79.6771 402.979 L79.6771 397.1 Z" fill="#000000" fill-rule="evenodd" fill-opacity="1" /><path clip-path="url(#clip460)" d="M104.746 386.567 Q101.413 386.567 99.4918 388.35 Q97.5937 390.132 97.5937 393.257 Q97.5937 396.382 99.4918 398.164 Q101.413 399.947 104.746 399.947 Q108.08 399.947 110.001 398.164 Q111.922 396.359 111.922 393.257 Q111.922 390.132 110.001 388.35 Q108.103 386.567 104.746 386.567 M100.071 384.577 Q97.0613 383.836 95.3715 381.776 Q93.7048 379.716 93.7048 376.753 Q93.7048 372.609 96.6446 370.202 Q99.6076 367.794 104.746 367.794 Q109.908 367.794 112.848 370.202 Q115.788 372.609 115.788 376.753 Q115.788 379.716 114.098 381.776 Q112.432 383.836 109.445 384.577 Q112.825 385.364 114.7 387.655 Q116.598 389.947 116.598 393.257 Q116.598 398.28 113.52 400.965 Q110.464 403.651 104.746 403.651 Q99.0289 403.651 95.9502 400.965 Q92.8947 398.28 92.8947 393.257 Q92.8947 389.947 94.7928 387.655 Q96.6909 385.364 100.071 384.577 M98.3576 377.192 Q98.3576 379.878 100.024 381.382 Q101.714 382.887 104.746 382.887 Q107.756 382.887 109.445 381.382 Q111.158 379.878 111.158 377.192 Q111.158 374.507 109.445 373.003 Q107.756 371.498 104.746 371.498 Q101.714 371.498 100.024 373.003 Q98.3576 374.507 98.3576 377.192 Z" fill="#000000" fill-rule="evenodd" fill-opacity="1" /><path clip-path="url(#clip460)" d="M50.2328 121.697 L57.8717 121.697 L57.8717 95.3314 L49.5616 96.998 L49.5616 92.7388 L57.8254 91.0721 L62.5013 91.0721 L62.5013 121.697 L70.1402 121.697 L70.1402 125.632 L50.2328 125.632 L50.2328 121.697 Z" fill="#000000" fill-rule="evenodd" fill-opacity="1" /><path clip-path="url(#clip460)" d="M79.5845 119.753 L84.4688 119.753 L84.4688 125.632 L79.5845 125.632 L79.5845 119.753 Z" fill="#000000" fill-rule="evenodd" fill-opacity="1" /><path clip-path="url(#clip460)" d="M104.654 94.1508 Q101.043 94.1508 99.2141 97.7156 Q97.4085 101.257 97.4085 108.387 Q97.4085 115.493 99.2141 119.058 Q101.043 122.6 104.654 122.6 Q108.288 122.6 110.094 119.058 Q111.922 115.493 111.922 108.387 Q111.922 101.257 110.094 97.7156 Q108.288 94.1508 104.654 94.1508 M104.654 90.4471 Q110.464 90.4471 113.52 95.0536 Q116.598 99.6369 116.598 108.387 Q116.598 117.114 113.52 121.72 Q110.464 126.303 104.654 126.303 Q98.8437 126.303 95.765 121.72 Q92.7095 117.114 92.7095 108.387 Q92.7095 99.6369 95.765 95.0536 Q98.8437 90.4471 104.654 90.4471 Z" fill="#000000" fill-rule="evenodd" fill-opacity="1" /><path clip-path="url(#clip460)" d="M498.45 34.4165 Q496.952 33.8899 495.453 33.4848 Q491.442 32.4315 487.148 32.4315 Q479.735 32.4315 475.603 36.4419 Q471.755 40.1688 471.026 47.0148 L498.45 47.0148 L498.45 52.8481 L471.026 52.8481 Q471.755 59.6941 475.603 63.421 Q479.735 67.4314 487.148 67.4314 Q492.334 67.4314 495.453 66.3781 L498.45 65.3654 L498.45 72.1304 L495.25 72.8596 Q491.037 73.7508 486.703 73.7508 Q475.846 73.7508 469.527 67.4314 Q463.167 61.1119 463.167 49.9314 Q463.167 38.7509 469.527 32.4315 Q475.846 26.1121 486.703 26.1121 Q490.794 26.1121 495.25 27.0033 Q496.871 27.3274 498.45 27.8135 L498.45 34.4165 Z" fill="#000000" fill-rule="evenodd" fill-opacity="1" /><path clip-path="url(#clip460)" d="M551.031 65.7705 L551.031 89.8329 L543.537 89.8329 L543.537 27.2059 L551.031 27.2059 L551.031 34.0924 Q553.381 30.0415 556.945 28.0971 Q560.551 26.1121 565.533 26.1121 Q573.797 26.1121 578.942 32.6746 Q584.127 39.2371 584.127 49.9314 Q584.127 60.6258 578.942 67.1883 Q573.797 73.7508 565.533 73.7508 Q560.551 73.7508 556.945 71.8063 Q553.381 69.8214 551.031 65.7705 M576.39 49.9314 Q576.39 41.7081 572.987 37.0496 Q569.625 32.3505 563.71 32.3505 Q557.796 32.3505 554.393 37.0496 Q551.031 41.7081 551.031 49.9314 Q551.031 58.1548 554.393 62.8538 Q557.796 67.5124 563.71 67.5124 Q569.625 67.5124 572.987 62.8538 Q576.39 58.1548 576.39 49.9314 Z" fill="#000000" fill-rule="evenodd" fill-opacity="1" /><path clip-path="url(#clip460)" d="M595.713 54.671 L595.713 27.2059 L603.166 27.2059 L603.166 54.3874 Q603.166 60.8284 605.678 64.0691 Q608.189 67.2693 613.213 67.2693 Q619.248 67.2693 622.732 63.421 Q626.256 59.5726 626.256 52.9291 L626.256 27.2059 L633.71 27.2059 L633.71 72.576 L626.256 72.576 L626.256 65.6084 Q623.542 69.7404 619.937 71.7658 Q616.372 73.7508 611.633 73.7508 Q603.814 73.7508 599.764 68.8897 Q595.713 64.0286 595.713 54.671 M614.468 26.1121 L614.468 26.1121 Z" fill="#000000" fill-rule="evenodd" fill-opacity="1" /><path clip-path="url(#clip460)" d="M681.632 49.9314 Q681.632 41.7081 678.23 37.0496 Q674.867 32.3505 668.953 32.3505 Q663.039 32.3505 659.636 37.0496 Q656.274 41.7081 656.274 49.9314 Q656.274 58.1548 659.636 62.8538 Q663.039 67.5124 668.953 67.5124 Q674.867 67.5124 678.23 62.8538 Q681.632 58.1548 681.632 49.9314 M656.274 34.0924 Q658.623 30.0415 662.188 28.0971 Q665.793 26.1121 670.776 26.1121 Q679.04 26.1121 684.184 32.6746 Q689.37 39.2371 689.37 49.9314 Q689.37 60.6258 684.184 67.1883 Q679.04 73.7508 670.776 73.7508 Q665.793 73.7508 662.188 71.8063 Q658.623 69.8214 656.274 65.7705 L656.274 72.576 L648.779 72.576 L648.779 9.54393 L656.274 9.54393 L656.274 34.0924 Z" fill="#000000" fill-rule="evenodd" fill-opacity="1" /><path clip-path="url(#clip460)" d="M701.725 9.54393 L709.178 9.54393 L709.178 72.576 L701.725 72.576 L701.725 9.54393 Z" fill="#000000" fill-rule="evenodd" fill-opacity="1" /><path clip-path="url(#clip460)" d="M724.774 27.2059 L732.228 27.2059 L732.228 72.576 L724.774 72.576 L724.774 27.2059 M724.774 9.54393 L732.228 9.54393 L732.228 18.9825 L724.774 18.9825 L724.774 9.54393 Z" fill="#000000" fill-rule="evenodd" fill-opacity="1" /><path clip-path="url(#clip460)" d="M780.474 28.9478 L780.474 35.9153 Q777.315 34.1734 774.114 33.3227 Q770.955 32.4315 767.714 32.4315 Q760.463 32.4315 756.453 37.0496 Q752.442 41.6271 752.442 49.9314 Q752.442 58.2358 756.453 62.8538 Q760.463 67.4314 767.714 67.4314 Q770.955 67.4314 774.114 66.5807 Q777.315 65.6895 780.474 63.9476 L780.474 70.8341 Q777.355 72.2924 773.993 73.0216 Q770.671 73.7508 766.904 73.7508 Q756.655 73.7508 750.619 67.3098 Q744.583 60.8689 744.583 49.9314 Q744.583 38.832 750.66 32.472 Q756.777 26.1121 767.39 26.1121 Q770.833 26.1121 774.114 26.8413 Q777.396 27.5299 780.474 28.9478 Z" fill="#000000" fill-rule="evenodd" fill-opacity="1" /><path clip-path="url(#clip460)" d="M793.437 9.54393 L800.891 9.54393 L800.891 72.576 L793.437 72.576 L793.437 9.54393 Z" fill="#000000" fill-rule="evenodd" fill-opacity="1" /><path clip-path="url(#clip460)" d="M835.364 76.7889 Q832.204 84.8907 829.207 87.3618 Q826.209 89.8329 821.186 89.8329 L815.231 89.8329 L815.231 83.5945 L819.606 83.5945 Q822.685 83.5945 824.386 82.1361 Q826.088 80.6778 828.154 75.2496 L829.49 71.8468 L811.14 27.2059 L819.039 27.2059 L833.217 62.6918 L847.395 27.2059 L855.295 27.2059 L835.364 76.7889 Z" fill="#000000" fill-rule="evenodd" fill-opacity="1" /><path clip-path="url(#clip460)" d="M912.574 49.7694 Q903.541 49.7694 900.057 51.8354 Q896.573 53.9013 896.573 58.8839 Q896.573 62.8538 899.166 65.2034 Q901.799 67.5124 906.295 67.5124 Q912.493 67.5124 916.22 63.1374 Q919.988 58.7219 919.988 51.4303 L919.988 49.7694 L912.574 49.7694 M927.441 46.6907 L927.441 72.576 L919.988 72.576 L919.988 65.6895 Q917.435 69.8214 913.628 71.8063 Q909.82 73.7508 904.311 73.7508 Q897.343 73.7508 893.211 69.8619 Q889.12 65.9325 889.12 59.3701 Q889.12 51.7138 894.224 47.825 Q899.368 43.9361 909.536 43.9361 L919.988 43.9361 L919.988 43.2069 Q919.988 38.0623 916.585 35.2672 Q913.222 32.4315 907.106 32.4315 Q903.217 32.4315 899.53 33.3632 Q895.844 34.295 892.441 36.1584 L892.441 29.2718 Q896.533 27.692 900.381 26.9223 Q904.229 26.1121 907.875 26.1121 Q917.719 26.1121 922.58 31.2163 Q927.441 36.3204 927.441 46.6907 Z" fill="#000000" fill-rule="evenodd" fill-opacity="1" /><path clip-path="url(#clip460)" d="M937.447 27.2059 L945.346 27.2059 L959.524 65.2844 L973.702 27.2059 L981.602 27.2059 L964.588 72.576 L954.461 72.576 L937.447 27.2059 Z" fill="#000000" fill-rule="evenodd" fill-opacity="1" /><path clip-path="url(#clip460)" d="M1012.51 49.7694 Q1003.48 49.7694 999.993 51.8354 Q996.509 53.9013 996.509 58.8839 Q996.509 62.8538 999.102 65.2034 Q1001.73 67.5124 1006.23 67.5124 Q1012.43 67.5124 1016.16 63.1374 Q1019.92 58.7219 1019.92 51.4303 L1019.92 49.7694 L1012.51 49.7694 M1027.38 46.6907 L1027.38 72.576 L1019.92 72.576 L1019.92 65.6895 Q1017.37 69.8214 1013.56 71.8063 Q1009.76 73.7508 1004.25 73.7508 Q997.279 73.7508 993.147 69.8619 Q989.055 65.9325 989.055 59.3701 Q989.055 51.7138 994.16 47.825 Q999.304 43.9361 1009.47 43.9361 L1019.92 43.9361 L1019.92 43.2069 Q1019.92 38.0623 1016.52 35.2672 Q1013.16 32.4315 1007.04 32.4315 Q1003.15 32.4315 999.466 33.3632 Q995.78 34.295 992.377 36.1584 L992.377 29.2718 Q996.469 27.692 1000.32 26.9223 Q1004.17 26.1121 1007.81 26.1121 Q1017.65 26.1121 1022.52 31.2163 Q1027.38 36.3204 1027.38 46.6907 Z" fill="#000000" fill-rule="evenodd" fill-opacity="1" /><path clip-path="url(#clip460)" d="M1042.73 27.2059 L1050.18 27.2059 L1050.18 72.576 L1042.73 72.576 L1042.73 27.2059 M1042.73 9.54393 L1050.18 9.54393 L1050.18 18.9825 L1042.73 18.9825 L1042.73 9.54393 Z" fill="#000000" fill-rule="evenodd" fill-opacity="1" /><path clip-path="url(#clip460)" d="M1065.78 9.54393 L1073.23 9.54393 L1073.23 72.576 L1065.78 72.576 L1065.78 9.54393 Z" fill="#000000" fill-rule="evenodd" fill-opacity="1" /><path clip-path="url(#clip460)" d="M1109.45 49.7694 Q1100.41 49.7694 1096.93 51.8354 Q1093.45 53.9013 1093.45 58.8839 Q1093.45 62.8538 1096.04 65.2034 Q1098.67 67.5124 1103.17 67.5124 Q1109.37 67.5124 1113.09 63.1374 Q1116.86 58.7219 1116.86 51.4303 L1116.86 49.7694 L1109.45 49.7694 M1124.32 46.6907 L1124.32 72.576 L1116.86 72.576 L1116.86 65.6895 Q1114.31 69.8214 1110.5 71.8063 Q1106.69 73.7508 1101.18 73.7508 Q1094.22 73.7508 1090.08 69.8619 Q1085.99 65.9325 1085.99 59.3701 Q1085.99 51.7138 1091.1 47.825 Q1096.24 43.9361 1106.41 43.9361 L1116.86 43.9361 L1116.86 43.2069 Q1116.86 38.0623 1113.46 35.2672 Q1110.1 32.4315 1103.98 32.4315 Q1100.09 32.4315 1096.4 33.3632 Q1092.72 34.295 1089.32 36.1584 L1089.32 29.2718 Q1093.41 27.692 1097.26 26.9223 Q1101.1 26.1121 1104.75 26.1121 Q1114.59 26.1121 1119.45 31.2163 Q1124.32 36.3204 1124.32 46.6907 Z" fill="#000000" fill-rule="evenodd" fill-opacity="1" /><path clip-path="url(#clip460)" d="M1172.24 49.9314 Q1172.24 41.7081 1168.83 37.0496 Q1165.47 32.3505 1159.56 32.3505 Q1153.64 32.3505 1150.24 37.0496 Q1146.88 41.7081 1146.88 49.9314 Q1146.88 58.1548 1150.24 62.8538 Q1153.64 67.5124 1159.56 67.5124 Q1165.47 67.5124 1168.83 62.8538 Q1172.24 58.1548 1172.24 49.9314 M1146.88 34.0924 Q1149.23 30.0415 1152.79 28.0971 Q1156.4 26.1121 1161.38 26.1121 Q1169.64 26.1121 1174.79 32.6746 Q1179.97 39.2371 1179.97 49.9314 Q1179.97 60.6258 1174.79 67.1883 Q1169.64 73.7508 1161.38 73.7508 Q1156.4 73.7508 1152.79 71.8063 Q1149.23 69.8214 1146.88 65.7705 L1146.88 72.576 L1139.38 72.576 L1139.38 9.54393 L1146.88 9.54393 L1146.88 34.0924 Z" fill="#000000" fill-rule="evenodd" fill-opacity="1" /><path clip-path="url(#clip460)" d="M1192.33 9.54393 L1199.78 9.54393 L1199.78 72.576 L1192.33 72.576 L1192.33 9.54393 Z" fill="#000000" fill-rule="evenodd" fill-opacity="1" /><path clip-path="url(#clip460)" d="M1254.19 48.0275 L1254.19 51.6733 L1219.92 51.6733 Q1220.4 59.3701 1224.53 63.421 Q1228.71 67.4314 1236.12 67.4314 Q1240.41 67.4314 1244.42 66.3781 Q1248.48 65.3249 1252.45 63.2184 L1252.45 70.267 Q1248.43 71.9684 1244.22 72.8596 Q1240.01 73.7508 1235.67 73.7508 Q1224.82 73.7508 1218.46 67.4314 Q1212.14 61.1119 1212.14 50.3365 Q1212.14 39.1965 1218.13 32.6746 Q1224.17 26.1121 1234.38 26.1121 Q1243.53 26.1121 1248.84 32.0264 Q1254.19 37.9003 1254.19 48.0275 M1246.73 45.84 Q1246.65 39.7232 1243.29 36.0774 Q1239.97 32.4315 1234.46 32.4315 Q1228.22 32.4315 1224.45 35.9558 Q1220.73 39.4801 1220.16 45.8805 L1246.73 45.84 Z" fill="#000000" fill-rule="evenodd" fill-opacity="1" /><polyline clip-path="url(#clip462)" style="stroke:#009af9; stroke-linecap:butt; stroke-linejoin:round; stroke-width:12; stroke-opacity:1; fill:none" points="
  203.886,949.253 230.612,1007.03 310.79,1114.45 444.421,1232.06 711.683,1254.31 1513.47,1335.57 
  "/>
<path clip-path="url(#clip462)" d="M203.886 965.253 L192.574 960.565 L187.886 949.253 L192.574 937.941 L203.886 933.253 L215.198 937.941 L219.886 949.253 L215.198 960.565 Z" fill="#009af9" fill-rule="evenodd" fill-opacity="1" stroke="#000000" stroke-opacity="1" stroke-width="3.2"/>
<path clip-path="url(#clip462)" d="M230.612 1023.03 L219.3 1018.34 L214.612 1007.03 L219.3 995.713 L230.612 991.025 L241.924 995.713 L246.612 1007.03 L241.924 1018.34 Z" fill="#009af9" fill-rule="evenodd" fill-opacity="1" stroke="#000000" stroke-opacity="1" stroke-width="3.2"/>
<path clip-path="url(#clip462)" d="M310.79 1130.45 L299.478 1125.76 L294.79 1114.45 L299.478 1103.14 L310.79 1098.45 L322.102 1103.14 L326.79 1114.45 L322.102 1125.76 Z" fill="#009af9" fill-rule="evenodd" fill-opacity="1" stroke="#000000" stroke-opacity="1" stroke-width="3.2"/>
<path clip-path="url(#clip462)" d="M444.421 1248.06 L433.109 1243.37 L428.421 1232.06 L433.109 1220.75 L444.421 1216.06 L455.733 1220.75 L460.421 1232.06 L455.733 1243.37 Z" fill="#009af9" fill-rule="evenodd" fill-opacity="1" stroke="#000000" stroke-opacity="1" stroke-width="3.2"/>
<path clip-path="url(#clip462)" d="M711.683 1270.31 L700.371 1265.62 L695.683 1254.31 L700.371 1243 L711.683 1238.31 L722.995 1243 L727.683 1254.31 L722.995 1265.62 Z" fill="#009af9" fill-rule="evenodd" fill-opacity="1" stroke="#000000" stroke-opacity="1" stroke-width="3.2"/>
<path clip-path="url(#clip462)" d="M1513.47 1351.57 L1502.16 1346.88 L1497.47 1335.57 L1502.16 1324.26 L1513.47 1319.57 L1524.78 1324.26 L1529.47 1335.57 L1524.78 1346.88 Z" fill="#009af9" fill-rule="evenodd" fill-opacity="1" stroke="#000000" stroke-opacity="1" stroke-width="3.2"/>
<polyline clip-path="url(#clip462)" style="stroke:#e26f46; stroke-linecap:butt; stroke-linejoin:round; stroke-width:12; stroke-opacity:1; fill:none" points="
  203.886,1204.74 230.612,1306.61 310.79,1384.24 444.421,1394 711.683,1453.38 1513.47,1471.4 
  "/>
<path clip-path="url(#clip462)" d="M203.886 1220.74 L192.574 1216.05 L187.886 1204.74 L192.574 1193.42 L203.886 1188.74 L215.198 1193.42 L219.886 1204.74 L215.198 1216.05 Z" fill="#e26f46" fill-rule="evenodd" fill-opacity="1" stroke="#000000" stroke-opacity="1" stroke-width="3.2"/>
<path clip-path="url(#clip462)" d="M230.612 1322.61 L219.3 1317.92 L214.612 1306.61 L219.3 1295.3 L230.612 1290.61 L241.924 1295.3 L246.612 1306.61 L241.924 1317.92 Z" fill="#e26f46" fill-rule="evenodd" fill-opacity="1" stroke="#000000" stroke-opacity="1" stroke-width="3.2"/>
<path clip-path="url(#clip462)" d="M310.79 1400.24 L299.478 1395.55 L294.79 1384.24 L299.478 1372.93 L310.79 1368.24 L322.102 1372.93 L326.79 1384.24 L322.102 1395.55 Z" fill="#e26f46" fill-rule="evenodd" fill-opacity="1" stroke="#000000" stroke-opacity="1" stroke-width="3.2"/>
<path clip-path="url(#clip462)" d="M444.421 1410 L433.109 1405.32 L428.421 1394 L433.109 1382.69 L444.421 1378 L455.733 1382.69 L460.421 1394 L455.733 1405.32 Z" fill="#e26f46" fill-rule="evenodd" fill-opacity="1" stroke="#000000" stroke-opacity="1" stroke-width="3.2"/>
<path clip-path="url(#clip462)" d="M711.683 1469.38 L700.371 1464.69 L695.683 1453.38 L700.371 1442.07 L711.683 1437.38 L722.995 1442.07 L727.683 1453.38 L722.995 1464.69 Z" fill="#e26f46" fill-rule="evenodd" fill-opacity="1" stroke="#000000" stroke-opacity="1" stroke-width="3.2"/>
<path clip-path="url(#clip462)" d="M1513.47 1487.4 L1502.16 1482.71 L1497.47 1471.4 L1502.16 1460.09 L1513.47 1455.4 L1524.78 1460.09 L1529.47 1471.4 L1524.78 1482.71 Z" fill="#e26f46" fill-rule="evenodd" fill-opacity="1" stroke="#000000" stroke-opacity="1" stroke-width="3.2"/>
<path clip-path="url(#clip460)" d="
M1232.2 310.097 L1506.48 310.097 L1506.48 154.577 L1232.2 154.577  Z
  " fill="#ffffff" fill-rule="evenodd" fill-opacity="1"/>
<polyline clip-path="url(#clip460)" style="stroke:#000000; stroke-linecap:butt; stroke-linejoin:round; stroke-width:4; stroke-opacity:1; fill:none" points="
  1232.2,310.097 1506.48,310.097 1506.48,154.577 1232.2,154.577 1232.2,310.097 
  "/>
<polyline clip-path="url(#clip460)" style="stroke:#009af9; stroke-linecap:butt; stroke-linejoin:round; stroke-width:4; stroke-opacity:1; fill:none" points="
  1247.62,206.417 1340.17,206.417 
  "/>
<path clip-path="url(#clip460)" d="M1293.89 232.017 L1275.8 224.516 L1268.29 206.417 L1275.8 188.317 L1293.89 180.817 L1311.99 188.317 L1319.49 206.417 L1311.99 224.516 Z" fill="#009af9" fill-rule="evenodd" fill-opacity="1" stroke="#000000" stroke-opacity="1" stroke-width="5.12"/>
<path clip-path="url(#clip460)" d="M1355.59 187.678 L1359.87 187.678 L1359.87 208.951 L1372.58 197.771 L1378.02 197.771 L1364.27 209.9 L1378.6 223.697 L1373.04 223.697 L1359.87 211.035 L1359.87 223.697 L1355.59 223.697 L1355.59 187.678 Z" fill="#000000" fill-rule="evenodd" fill-opacity="1" /><path clip-path="url(#clip460)" d="M1383.76 202.169 L1413.44 202.169 L1413.44 206.058 L1383.76 206.058 L1383.76 202.169 M1383.76 211.613 L1413.44 211.613 L1413.44 215.549 L1383.76 215.549 L1383.76 211.613 Z" fill="#000000" fill-rule="evenodd" fill-opacity="1" /><path clip-path="url(#clip460)" d="M1424.34 219.761 L1431.98 219.761 L1431.98 193.396 L1423.67 195.063 L1423.67 190.803 L1431.93 189.137 L1436.61 189.137 L1436.61 219.761 L1444.25 219.761 L1444.25 223.697 L1424.34 223.697 L1424.34 219.761 Z" fill="#000000" fill-rule="evenodd" fill-opacity="1" /><polyline clip-path="url(#clip460)" style="stroke:#e26f46; stroke-linecap:butt; stroke-linejoin:round; stroke-width:4; stroke-opacity:1; fill:none" points="
  1247.62,258.257 1340.17,258.257 
  "/>
<path clip-path="url(#clip460)" d="M1293.89 283.857 L1275.8 276.356 L1268.29 258.257 L1275.8 240.157 L1293.89 232.657 L1311.99 240.157 L1319.49 258.257 L1311.99 276.356 Z" fill="#e26f46" fill-rule="evenodd" fill-opacity="1" stroke="#000000" stroke-opacity="1" stroke-width="5.12"/>
<path clip-path="url(#clip460)" d="M1355.59 239.518 L1359.87 239.518 L1359.87 260.791 L1372.58 249.611 L1378.02 249.611 L1364.27 261.74 L1378.6 275.537 L1373.04 275.537 L1359.87 262.875 L1359.87 275.537 L1355.59 275.537 L1355.59 239.518 Z" fill="#000000" fill-rule="evenodd" fill-opacity="1" /><path clip-path="url(#clip460)" d="M1383.76 254.009 L1413.44 254.009 L1413.44 257.898 L1383.76 257.898 L1383.76 254.009 M1383.76 263.453 L1413.44 263.453 L1413.44 267.389 L1383.76 267.389 L1383.76 263.453 Z" fill="#000000" fill-rule="evenodd" fill-opacity="1" /><path clip-path="url(#clip460)" d="M1424.34 271.601 L1431.98 271.601 L1431.98 245.236 L1423.67 246.903 L1423.67 242.643 L1431.93 240.977 L1436.61 240.977 L1436.61 271.601 L1444.25 271.601 L1444.25 275.537 L1424.34 275.537 L1424.34 271.601 Z" fill="#000000" fill-rule="evenodd" fill-opacity="1" /><path clip-path="url(#clip460)" d="M1463.69 244.055 Q1460.08 244.055 1458.25 247.62 Q1456.45 251.162 1456.45 258.291 Q1456.45 265.398 1458.25 268.963 Q1460.08 272.504 1463.69 272.504 Q1467.33 272.504 1469.13 268.963 Q1470.96 265.398 1470.96 258.291 Q1470.96 251.162 1469.13 247.62 Q1467.33 244.055 1463.69 244.055 M1463.69 240.352 Q1469.5 240.352 1472.56 244.958 Q1475.64 249.541 1475.64 258.291 Q1475.64 267.018 1472.56 271.625 Q1469.5 276.208 1463.69 276.208 Q1457.88 276.208 1454.8 271.625 Q1451.75 267.018 1451.75 258.291 Q1451.75 249.541 1454.8 244.958 Q1457.88 240.352 1463.69 240.352 Z" fill="#000000" fill-rule="evenodd" fill-opacity="1" /><path clip-path="url(#clip460)" d="
M1764.6 1495.09 L3152.76 1495.09 L3152.76 108.352 L1764.6 108.352  Z
  " fill="#ffffff" fill-rule="evenodd" fill-opacity="1"/>
<defs>
  <clipPath id="clip463">
    <rect x="1764" y="108" width="1389" height="1388"/>
  </clipPath>
</defs>
<polyline clip-path="url(#clip463)" style="stroke:#000000; stroke-linecap:butt; stroke-linejoin:round; stroke-width:2; stroke-opacity:0.1; fill:none" points="
  1777.16,1495.09 1777.16,108.352 
  "/>
<polyline clip-path="url(#clip463)" style="stroke:#000000; stroke-linecap:butt; stroke-linejoin:round; stroke-width:2; stroke-opacity:0.1; fill:none" points="
  2044.42,1495.09 2044.42,108.352 
  "/>
<polyline clip-path="url(#clip463)" style="stroke:#000000; stroke-linecap:butt; stroke-linejoin:round; stroke-width:2; stroke-opacity:0.1; fill:none" points="
  2311.68,1495.09 2311.68,108.352 
  "/>
<polyline clip-path="url(#clip463)" style="stroke:#000000; stroke-linecap:butt; stroke-linejoin:round; stroke-width:2; stroke-opacity:0.1; fill:none" points="
  2578.94,1495.09 2578.94,108.352 
  "/>
<polyline clip-path="url(#clip463)" style="stroke:#000000; stroke-linecap:butt; stroke-linejoin:round; stroke-width:2; stroke-opacity:0.1; fill:none" points="
  2846.21,1495.09 2846.21,108.352 
  "/>
<polyline clip-path="url(#clip463)" style="stroke:#000000; stroke-linecap:butt; stroke-linejoin:round; stroke-width:2; stroke-opacity:0.1; fill:none" points="
  3113.47,1495.09 3113.47,108.352 
  "/>
<polyline clip-path="url(#clip460)" style="stroke:#000000; stroke-linecap:butt; stroke-linejoin:round; stroke-width:4; stroke-opacity:1; fill:none" points="
  1764.6,1495.09 3152.76,1495.09 
  "/>
<polyline clip-path="url(#clip460)" style="stroke:#000000; stroke-linecap:butt; stroke-linejoin:round; stroke-width:4; stroke-opacity:1; fill:none" points="
  1777.16,1495.09 1777.16,1476.19 
  "/>
<polyline clip-path="url(#clip460)" style="stroke:#000000; stroke-linecap:butt; stroke-linejoin:round; stroke-width:4; stroke-opacity:1; fill:none" points="
  2044.42,1495.09 2044.42,1476.19 
  "/>
<polyline clip-path="url(#clip460)" style="stroke:#000000; stroke-linecap:butt; stroke-linejoin:round; stroke-width:4; stroke-opacity:1; fill:none" points="
  2311.68,1495.09 2311.68,1476.19 
  "/>
<polyline clip-path="url(#clip460)" style="stroke:#000000; stroke-linecap:butt; stroke-linejoin:round; stroke-width:4; stroke-opacity:1; fill:none" points="
  2578.94,1495.09 2578.94,1476.19 
  "/>
<polyline clip-path="url(#clip460)" style="stroke:#000000; stroke-linecap:butt; stroke-linejoin:round; stroke-width:4; stroke-opacity:1; fill:none" points="
  2846.21,1495.09 2846.21,1476.19 
  "/>
<polyline clip-path="url(#clip460)" style="stroke:#000000; stroke-linecap:butt; stroke-linejoin:round; stroke-width:4; stroke-opacity:1; fill:none" points="
  3113.47,1495.09 3113.47,1476.19 
  "/>
<path clip-path="url(#clip460)" d="M1777.16 1532.41 Q1773.55 1532.41 1771.72 1535.97 Q1769.91 1539.51 1769.91 1546.64 Q1769.91 1553.75 1771.72 1557.31 Q1773.55 1560.86 1777.16 1560.86 Q1780.79 1560.86 1782.6 1557.31 Q1784.43 1553.75 1784.43 1546.64 Q1784.43 1539.51 1782.6 1535.97 Q1780.79 1532.41 1777.16 1532.41 M1777.16 1528.7 Q1782.97 1528.7 1786.03 1533.31 Q1789.1 1537.89 1789.1 1546.64 Q1789.1 1555.37 1786.03 1559.98 Q1782.97 1564.56 1777.16 1564.56 Q1771.35 1564.56 1768.27 1559.98 Q1765.22 1555.37 1765.22 1546.64 Q1765.22 1537.89 1768.27 1533.31 Q1771.35 1528.7 1777.16 1528.7 Z" fill="#000000" fill-rule="evenodd" fill-opacity="1" /><path clip-path="url(#clip460)" d="M1988.95 1559.95 L1996.59 1559.95 L1996.59 1533.59 L1988.28 1535.25 L1988.28 1530.99 L1996.54 1529.33 L2001.22 1529.33 L2001.22 1559.95 L2008.85 1559.95 L2008.85 1563.89 L1988.95 1563.89 L1988.95 1559.95 Z" fill="#000000" fill-rule="evenodd" fill-opacity="1" /><path clip-path="url(#clip460)" d="M2028.3 1532.41 Q2024.69 1532.41 2022.86 1535.97 Q2021.05 1539.51 2021.05 1546.64 Q2021.05 1553.75 2022.86 1557.31 Q2024.69 1560.86 2028.3 1560.86 Q2031.93 1560.86 2033.74 1557.31 Q2035.57 1553.75 2035.57 1546.64 Q2035.57 1539.51 2033.74 1535.97 Q2031.93 1532.41 2028.3 1532.41 M2028.3 1528.7 Q2034.11 1528.7 2037.16 1533.31 Q2040.24 1537.89 2040.24 1546.64 Q2040.24 1555.37 2037.16 1559.98 Q2034.11 1564.56 2028.3 1564.56 Q2022.49 1564.56 2019.41 1559.98 Q2016.35 1555.37 2016.35 1546.64 Q2016.35 1537.89 2019.41 1533.31 Q2022.49 1528.7 2028.3 1528.7 Z" fill="#000000" fill-rule="evenodd" fill-opacity="1" /><path clip-path="url(#clip460)" d="M2058.46 1532.41 Q2054.85 1532.41 2053.02 1535.97 Q2051.22 1539.51 2051.22 1546.64 Q2051.22 1553.75 2053.02 1557.31 Q2054.85 1560.86 2058.46 1560.86 Q2062.09 1560.86 2063.9 1557.31 Q2065.73 1553.75 2065.73 1546.64 Q2065.73 1539.51 2063.9 1535.97 Q2062.09 1532.41 2058.46 1532.41 M2058.46 1528.7 Q2064.27 1528.7 2067.33 1533.31 Q2070.4 1537.89 2070.4 1546.64 Q2070.4 1555.37 2067.33 1559.98 Q2064.27 1564.56 2058.46 1564.56 Q2052.65 1564.56 2049.57 1559.98 Q2046.52 1555.37 2046.52 1546.64 Q2046.52 1537.89 2049.57 1533.31 Q2052.65 1528.7 2058.46 1528.7 Z" fill="#000000" fill-rule="evenodd" fill-opacity="1" /><path clip-path="url(#clip460)" d="M2088.62 1532.41 Q2085.01 1532.41 2083.18 1535.97 Q2081.38 1539.51 2081.38 1546.64 Q2081.38 1553.75 2083.18 1557.31 Q2085.01 1560.86 2088.62 1560.86 Q2092.26 1560.86 2094.06 1557.31 Q2095.89 1553.75 2095.89 1546.64 Q2095.89 1539.51 2094.06 1535.97 Q2092.26 1532.41 2088.62 1532.41 M2088.62 1528.7 Q2094.43 1528.7 2097.49 1533.31 Q2100.57 1537.89 2100.57 1546.64 Q2100.57 1555.37 2097.49 1559.98 Q2094.43 1564.56 2088.62 1564.56 Q2082.81 1564.56 2079.73 1559.98 Q2076.68 1555.37 2076.68 1546.64 Q2076.68 1537.89 2079.73 1533.31 Q2082.81 1528.7 2088.62 1528.7 Z" fill="#000000" fill-rule="evenodd" fill-opacity="1" /><path clip-path="url(#clip460)" d="M2260.29 1559.95 L2276.61 1559.95 L2276.61 1563.89 L2254.67 1563.89 L2254.67 1559.95 Q2257.33 1557.2 2261.91 1552.57 Q2266.52 1547.92 2267.7 1546.57 Q2269.95 1544.05 2270.83 1542.31 Q2271.73 1540.55 2271.73 1538.86 Q2271.73 1536.11 2269.79 1534.37 Q2267.86 1532.64 2264.76 1532.64 Q2262.56 1532.64 2260.11 1533.4 Q2257.68 1534.17 2254.9 1535.72 L2254.9 1530.99 Q2257.73 1529.86 2260.18 1529.28 Q2262.63 1528.7 2264.67 1528.7 Q2270.04 1528.7 2273.23 1531.39 Q2276.43 1534.07 2276.43 1538.56 Q2276.43 1540.69 2275.62 1542.61 Q2274.83 1544.51 2272.72 1547.11 Q2272.15 1547.78 2269.04 1550.99 Q2265.94 1554.19 2260.29 1559.95 Z" fill="#000000" fill-rule="evenodd" fill-opacity="1" /><path clip-path="url(#clip460)" d="M2296.43 1532.41 Q2292.82 1532.41 2290.99 1535.97 Q2289.18 1539.51 2289.18 1546.64 Q2289.18 1553.75 2290.99 1557.31 Q2292.82 1560.86 2296.43 1560.86 Q2300.06 1560.86 2301.87 1557.31 Q2303.7 1553.75 2303.7 1546.64 Q2303.7 1539.51 2301.87 1535.97 Q2300.06 1532.41 2296.43 1532.41 M2296.43 1528.7 Q2302.24 1528.7 2305.29 1533.31 Q2308.37 1537.89 2308.37 1546.64 Q2308.37 1555.37 2305.29 1559.98 Q2302.24 1564.56 2296.43 1564.56 Q2290.62 1564.56 2287.54 1559.98 Q2284.48 1555.37 2284.48 1546.64 Q2284.48 1537.89 2287.54 1533.31 Q2290.62 1528.7 2296.43 1528.7 Z" fill="#000000" fill-rule="evenodd" fill-opacity="1" /><path clip-path="url(#clip460)" d="M2326.59 1532.41 Q2322.98 1532.41 2321.15 1535.97 Q2319.35 1539.51 2319.35 1546.64 Q2319.35 1553.75 2321.15 1557.31 Q2322.98 1560.86 2326.59 1560.86 Q2330.22 1560.86 2332.03 1557.31 Q2333.86 1553.75 2333.86 1546.64 Q2333.86 1539.51 2332.03 1535.97 Q2330.22 1532.41 2326.59 1532.41 M2326.59 1528.7 Q2332.4 1528.7 2335.46 1533.31 Q2338.53 1537.89 2338.53 1546.64 Q2338.53 1555.37 2335.46 1559.98 Q2332.4 1564.56 2326.59 1564.56 Q2320.78 1564.56 2317.7 1559.98 Q2314.65 1555.37 2314.65 1546.64 Q2314.65 1537.89 2317.7 1533.31 Q2320.78 1528.7 2326.59 1528.7 Z" fill="#000000" fill-rule="evenodd" fill-opacity="1" /><path clip-path="url(#clip460)" d="M2356.75 1532.41 Q2353.14 1532.41 2351.31 1535.97 Q2349.51 1539.51 2349.51 1546.64 Q2349.51 1553.75 2351.31 1557.31 Q2353.14 1560.86 2356.75 1560.86 Q2360.39 1560.86 2362.19 1557.31 Q2364.02 1553.75 2364.02 1546.64 Q2364.02 1539.51 2362.19 1535.97 Q2360.39 1532.41 2356.75 1532.41 M2356.75 1528.7 Q2362.56 1528.7 2365.62 1533.31 Q2368.7 1537.89 2368.7 1546.64 Q2368.7 1555.37 2365.62 1559.98 Q2362.56 1564.56 2356.75 1564.56 Q2350.94 1564.56 2347.86 1559.98 Q2344.81 1555.37 2344.81 1546.64 Q2344.81 1537.89 2347.86 1533.31 Q2350.94 1528.7 2356.75 1528.7 Z" fill="#000000" fill-rule="evenodd" fill-opacity="1" /><path clip-path="url(#clip460)" d="M2537.63 1545.25 Q2540.98 1545.97 2542.86 1548.24 Q2544.76 1550.51 2544.76 1553.84 Q2544.76 1558.96 2541.24 1561.76 Q2537.72 1564.56 2531.24 1564.56 Q2529.06 1564.56 2526.75 1564.12 Q2524.45 1563.7 2522 1562.85 L2522 1558.33 Q2523.95 1559.47 2526.26 1560.05 Q2528.57 1560.62 2531.1 1560.62 Q2535.5 1560.62 2537.79 1558.89 Q2540.1 1557.15 2540.1 1553.84 Q2540.1 1550.79 2537.95 1549.07 Q2535.82 1547.34 2532 1547.34 L2527.97 1547.34 L2527.97 1543.49 L2532.19 1543.49 Q2535.63 1543.49 2537.46 1542.13 Q2539.29 1540.74 2539.29 1538.15 Q2539.29 1535.49 2537.39 1534.07 Q2535.52 1532.64 2532 1532.64 Q2530.08 1532.64 2527.88 1533.05 Q2525.68 1533.47 2523.04 1534.35 L2523.04 1530.18 Q2525.7 1529.44 2528.02 1529.07 Q2530.36 1528.7 2532.42 1528.7 Q2537.74 1528.7 2540.84 1531.13 Q2543.95 1533.54 2543.95 1537.66 Q2543.95 1540.53 2542.3 1542.52 Q2540.66 1544.49 2537.63 1545.25 Z" fill="#000000" fill-rule="evenodd" fill-opacity="1" /><path clip-path="url(#clip460)" d="M2563.62 1532.41 Q2560.01 1532.41 2558.18 1535.97 Q2556.38 1539.51 2556.38 1546.64 Q2556.38 1553.75 2558.18 1557.31 Q2560.01 1560.86 2563.62 1560.86 Q2567.26 1560.86 2569.06 1557.31 Q2570.89 1553.75 2570.89 1546.64 Q2570.89 1539.51 2569.06 1535.97 Q2567.26 1532.41 2563.62 1532.41 M2563.62 1528.7 Q2569.43 1528.7 2572.49 1533.31 Q2575.57 1537.89 2575.57 1546.64 Q2575.57 1555.37 2572.49 1559.98 Q2569.43 1564.56 2563.62 1564.56 Q2557.81 1564.56 2554.73 1559.98 Q2551.68 1555.37 2551.68 1546.64 Q2551.68 1537.89 2554.73 1533.31 Q2557.81 1528.7 2563.62 1528.7 Z" fill="#000000" fill-rule="evenodd" fill-opacity="1" /><path clip-path="url(#clip460)" d="M2593.78 1532.41 Q2590.17 1532.41 2588.34 1535.97 Q2586.54 1539.51 2586.54 1546.64 Q2586.54 1553.75 2588.34 1557.31 Q2590.17 1560.86 2593.78 1560.86 Q2597.42 1560.86 2599.22 1557.31 Q2601.05 1553.75 2601.05 1546.64 Q2601.05 1539.51 2599.22 1535.97 Q2597.42 1532.41 2593.78 1532.41 M2593.78 1528.7 Q2599.59 1528.7 2602.65 1533.31 Q2605.73 1537.89 2605.73 1546.64 Q2605.73 1555.37 2602.65 1559.98 Q2599.59 1564.56 2593.78 1564.56 Q2587.97 1564.56 2584.89 1559.98 Q2581.84 1555.37 2581.84 1546.64 Q2581.84 1537.89 2584.89 1533.31 Q2587.97 1528.7 2593.78 1528.7 Z" fill="#000000" fill-rule="evenodd" fill-opacity="1" /><path clip-path="url(#clip460)" d="M2623.94 1532.41 Q2620.33 1532.41 2618.5 1535.97 Q2616.7 1539.51 2616.7 1546.64 Q2616.7 1553.75 2618.5 1557.31 Q2620.33 1560.86 2623.94 1560.86 Q2627.58 1560.86 2629.38 1557.31 Q2631.21 1553.75 2631.21 1546.64 Q2631.21 1539.51 2629.38 1535.97 Q2627.58 1532.41 2623.94 1532.41 M2623.94 1528.7 Q2629.75 1528.7 2632.81 1533.31 Q2635.89 1537.89 2635.89 1546.64 Q2635.89 1555.37 2632.81 1559.98 Q2629.75 1564.56 2623.94 1564.56 Q2618.13 1564.56 2615.06 1559.98 Q2612 1555.37 2612 1546.64 Q2612 1537.89 2615.06 1533.31 Q2618.13 1528.7 2623.94 1528.7 Z" fill="#000000" fill-rule="evenodd" fill-opacity="1" /><path clip-path="url(#clip460)" d="M2804.22 1533.4 L2792.41 1551.85 L2804.22 1551.85 L2804.22 1533.4 M2802.99 1529.33 L2808.87 1529.33 L2808.87 1551.85 L2813.8 1551.85 L2813.8 1555.74 L2808.87 1555.74 L2808.87 1563.89 L2804.22 1563.89 L2804.22 1555.74 L2788.61 1555.74 L2788.61 1551.23 L2802.99 1529.33 Z" fill="#000000" fill-rule="evenodd" fill-opacity="1" /><path clip-path="url(#clip460)" d="M2831.53 1532.41 Q2827.92 1532.41 2826.09 1535.97 Q2824.29 1539.51 2824.29 1546.64 Q2824.29 1553.75 2826.09 1557.31 Q2827.92 1560.86 2831.53 1560.86 Q2835.17 1560.86 2836.97 1557.31 Q2838.8 1553.75 2838.8 1546.64 Q2838.8 1539.51 2836.97 1535.97 Q2835.17 1532.41 2831.53 1532.41 M2831.53 1528.7 Q2837.34 1528.7 2840.4 1533.31 Q2843.48 1537.89 2843.48 1546.64 Q2843.48 1555.37 2840.4 1559.98 Q2837.34 1564.56 2831.53 1564.56 Q2825.72 1564.56 2822.64 1559.98 Q2819.59 1555.37 2819.59 1546.64 Q2819.59 1537.89 2822.64 1533.31 Q2825.72 1528.7 2831.53 1528.7 Z" fill="#000000" fill-rule="evenodd" fill-opacity="1" /><path clip-path="url(#clip460)" d="M2861.69 1532.41 Q2858.08 1532.41 2856.25 1535.97 Q2854.45 1539.51 2854.45 1546.64 Q2854.45 1553.75 2856.25 1557.31 Q2858.08 1560.86 2861.69 1560.86 Q2865.33 1560.86 2867.13 1557.31 Q2868.96 1553.75 2868.96 1546.64 Q2868.96 1539.51 2867.13 1535.97 Q2865.33 1532.41 2861.69 1532.41 M2861.69 1528.7 Q2867.5 1528.7 2870.56 1533.31 Q2873.64 1537.89 2873.64 1546.64 Q2873.64 1555.37 2870.56 1559.98 Q2867.5 1564.56 2861.69 1564.56 Q2855.88 1564.56 2852.8 1559.98 Q2849.75 1555.37 2849.75 1546.64 Q2849.75 1537.89 2852.8 1533.31 Q2855.88 1528.7 2861.69 1528.7 Z" fill="#000000" fill-rule="evenodd" fill-opacity="1" /><path clip-path="url(#clip460)" d="M2891.85 1532.41 Q2888.24 1532.41 2886.41 1535.97 Q2884.61 1539.51 2884.61 1546.64 Q2884.61 1553.75 2886.41 1557.31 Q2888.24 1560.86 2891.85 1560.86 Q2895.49 1560.86 2897.29 1557.31 Q2899.12 1553.75 2899.12 1546.64 Q2899.12 1539.51 2897.29 1535.97 Q2895.49 1532.41 2891.85 1532.41 M2891.85 1528.7 Q2897.66 1528.7 2900.72 1533.31 Q2903.8 1537.89 2903.8 1546.64 Q2903.8 1555.37 2900.72 1559.98 Q2897.66 1564.56 2891.85 1564.56 Q2886.04 1564.56 2882.97 1559.98 Q2879.91 1555.37 2879.91 1546.64 Q2879.91 1537.89 2882.97 1533.31 Q2886.04 1528.7 2891.85 1528.7 Z" fill="#000000" fill-rule="evenodd" fill-opacity="1" /><path clip-path="url(#clip460)" d="M3058.01 1529.33 L3076.36 1529.33 L3076.36 1533.26 L3062.29 1533.26 L3062.29 1541.74 Q3063.31 1541.39 3064.33 1541.23 Q3065.34 1541.04 3066.36 1541.04 Q3072.15 1541.04 3075.53 1544.21 Q3078.91 1547.38 3078.91 1552.8 Q3078.91 1558.38 3075.44 1561.48 Q3071.96 1564.56 3065.64 1564.56 Q3063.47 1564.56 3061.2 1564.19 Q3058.95 1563.82 3056.55 1563.08 L3056.55 1558.38 Q3058.63 1559.51 3060.85 1560.07 Q3063.08 1560.62 3065.55 1560.62 Q3069.56 1560.62 3071.89 1558.52 Q3074.23 1556.41 3074.23 1552.8 Q3074.23 1549.19 3071.89 1547.08 Q3069.56 1544.98 3065.55 1544.98 Q3063.68 1544.98 3061.8 1545.39 Q3059.95 1545.81 3058.01 1546.69 L3058.01 1529.33 Z" fill="#000000" fill-rule="evenodd" fill-opacity="1" /><path clip-path="url(#clip460)" d="M3098.12 1532.41 Q3094.51 1532.41 3092.68 1535.97 Q3090.88 1539.51 3090.88 1546.64 Q3090.88 1553.75 3092.68 1557.31 Q3094.51 1560.86 3098.12 1560.86 Q3101.76 1560.86 3103.56 1557.31 Q3105.39 1553.75 3105.39 1546.64 Q3105.39 1539.51 3103.56 1535.97 Q3101.76 1532.41 3098.12 1532.41 M3098.12 1528.7 Q3103.93 1528.7 3106.99 1533.31 Q3110.07 1537.89 3110.07 1546.64 Q3110.07 1555.37 3106.99 1559.98 Q3103.93 1564.56 3098.12 1564.56 Q3092.31 1564.56 3089.23 1559.98 Q3086.18 1555.37 3086.18 1546.64 Q3086.18 1537.89 3089.23 1533.31 Q3092.31 1528.7 3098.12 1528.7 Z" fill="#000000" fill-rule="evenodd" fill-opacity="1" /><path clip-path="url(#clip460)" d="M3128.28 1532.41 Q3124.67 1532.41 3122.84 1535.97 Q3121.04 1539.51 3121.04 1546.64 Q3121.04 1553.75 3122.84 1557.31 Q3124.67 1560.86 3128.28 1560.86 Q3131.92 1560.86 3133.72 1557.31 Q3135.55 1553.75 3135.55 1546.64 Q3135.55 1539.51 3133.72 1535.97 Q3131.92 1532.41 3128.28 1532.41 M3128.28 1528.7 Q3134.09 1528.7 3137.15 1533.31 Q3140.23 1537.89 3140.23 1546.64 Q3140.23 1555.37 3137.15 1559.98 Q3134.09 1564.56 3128.28 1564.56 Q3122.47 1564.56 3119.39 1559.98 Q3116.34 1555.37 3116.34 1546.64 Q3116.34 1537.89 3119.39 1533.31 Q3122.47 1528.7 3128.28 1528.7 Z" fill="#000000" fill-rule="evenodd" fill-opacity="1" /><path clip-path="url(#clip460)" d="M3158.45 1532.41 Q3154.83 1532.41 3153.01 1535.97 Q3151.2 1539.51 3151.2 1546.64 Q3151.2 1553.75 3153.01 1557.31 Q3154.83 1560.86 3158.45 1560.86 Q3162.08 1560.86 3163.88 1557.31 Q3165.71 1553.75 3165.71 1546.64 Q3165.71 1539.51 3163.88 1535.97 Q3162.08 1532.41 3158.45 1532.41 M3158.45 1528.7 Q3164.26 1528.7 3167.31 1533.31 Q3170.39 1537.89 3170.39 1546.64 Q3170.39 1555.37 3167.31 1559.98 Q3164.26 1564.56 3158.45 1564.56 Q3152.63 1564.56 3149.56 1559.98 Q3146.5 1555.37 3146.5 1546.64 Q3146.5 1537.89 3149.56 1533.31 Q3152.63 1528.7 3158.45 1528.7 Z" fill="#000000" fill-rule="evenodd" fill-opacity="1" /><polyline clip-path="url(#clip463)" style="stroke:#000000; stroke-linecap:butt; stroke-linejoin:round; stroke-width:2; stroke-opacity:0.1; fill:none" points="
  1764.6,1495.09 3152.76,1495.09 
  "/>
<polyline clip-path="url(#clip463)" style="stroke:#000000; stroke-linecap:butt; stroke-linejoin:round; stroke-width:2; stroke-opacity:0.1; fill:none" points="
  1764.6,1217.74 3152.76,1217.74 
  "/>
<polyline clip-path="url(#clip463)" style="stroke:#000000; stroke-linecap:butt; stroke-linejoin:round; stroke-width:2; stroke-opacity:0.1; fill:none" points="
  1764.6,940.394 3152.76,940.394 
  "/>
<polyline clip-path="url(#clip463)" style="stroke:#000000; stroke-linecap:butt; stroke-linejoin:round; stroke-width:2; stroke-opacity:0.1; fill:none" points="
  1764.6,663.046 3152.76,663.046 
  "/>
<polyline clip-path="url(#clip463)" style="stroke:#000000; stroke-linecap:butt; stroke-linejoin:round; stroke-width:2; stroke-opacity:0.1; fill:none" points="
  1764.6,385.699 3152.76,385.699 
  "/>
<polyline clip-path="url(#clip463)" style="stroke:#000000; stroke-linecap:butt; stroke-linejoin:round; stroke-width:2; stroke-opacity:0.1; fill:none" points="
  1764.6,108.352 3152.76,108.352 
  "/>
<polyline clip-path="url(#clip460)" style="stroke:#000000; stroke-linecap:butt; stroke-linejoin:round; stroke-width:4; stroke-opacity:1; fill:none" points="
  1764.6,1495.09 1764.6,108.352 
  "/>
<polyline clip-path="url(#clip460)" style="stroke:#000000; stroke-linecap:butt; stroke-linejoin:round; stroke-width:4; stroke-opacity:1; fill:none" points="
  1764.6,1495.09 1783.5,1495.09 
  "/>
<polyline clip-path="url(#clip460)" style="stroke:#000000; stroke-linecap:butt; stroke-linejoin:round; stroke-width:4; stroke-opacity:1; fill:none" points="
  1764.6,1217.74 1783.5,1217.74 
  "/>
<polyline clip-path="url(#clip460)" style="stroke:#000000; stroke-linecap:butt; stroke-linejoin:round; stroke-width:4; stroke-opacity:1; fill:none" points="
  1764.6,940.394 1783.5,940.394 
  "/>
<polyline clip-path="url(#clip460)" style="stroke:#000000; stroke-linecap:butt; stroke-linejoin:round; stroke-width:4; stroke-opacity:1; fill:none" points="
  1764.6,663.046 1783.5,663.046 
  "/>
<polyline clip-path="url(#clip460)" style="stroke:#000000; stroke-linecap:butt; stroke-linejoin:round; stroke-width:4; stroke-opacity:1; fill:none" points="
  1764.6,385.699 1783.5,385.699 
  "/>
<polyline clip-path="url(#clip460)" style="stroke:#000000; stroke-linecap:butt; stroke-linejoin:round; stroke-width:4; stroke-opacity:1; fill:none" points="
  1764.6,108.352 1783.5,108.352 
  "/>
<path clip-path="url(#clip460)" d="M1659.42 1480.89 Q1655.81 1480.89 1653.98 1484.45 Q1652.18 1487.99 1652.18 1495.12 Q1652.18 1502.23 1653.98 1505.79 Q1655.81 1509.34 1659.42 1509.34 Q1663.06 1509.34 1664.86 1505.79 Q1666.69 1502.23 1666.69 1495.12 Q1666.69 1487.99 1664.86 1484.45 Q1663.06 1480.89 1659.42 1480.89 M1659.42 1477.18 Q1665.23 1477.18 1668.29 1481.79 Q1671.37 1486.37 1671.37 1495.12 Q1671.37 1503.85 1668.29 1508.46 Q1665.23 1513.04 1659.42 1513.04 Q1653.61 1513.04 1650.53 1508.46 Q1647.48 1503.85 1647.48 1495.12 Q1647.48 1486.37 1650.53 1481.79 Q1653.61 1477.18 1659.42 1477.18 Z" fill="#000000" fill-rule="evenodd" fill-opacity="1" /><path clip-path="url(#clip460)" d="M1679.58 1506.49 L1684.47 1506.49 L1684.47 1512.37 L1679.58 1512.37 L1679.58 1506.49 Z" fill="#000000" fill-rule="evenodd" fill-opacity="1" /><path clip-path="url(#clip460)" d="M1704.65 1480.89 Q1701.04 1480.89 1699.21 1484.45 Q1697.41 1487.99 1697.41 1495.12 Q1697.41 1502.23 1699.21 1505.79 Q1701.04 1509.34 1704.65 1509.34 Q1708.29 1509.34 1710.09 1505.79 Q1711.92 1502.23 1711.92 1495.12 Q1711.92 1487.99 1710.09 1484.45 Q1708.29 1480.89 1704.65 1480.89 M1704.65 1477.18 Q1710.46 1477.18 1713.52 1481.79 Q1716.6 1486.37 1716.6 1495.12 Q1716.6 1503.85 1713.52 1508.46 Q1710.46 1513.04 1704.65 1513.04 Q1698.84 1513.04 1695.77 1508.46 Q1692.71 1503.85 1692.71 1495.12 Q1692.71 1486.37 1695.77 1481.79 Q1698.84 1477.18 1704.65 1477.18 Z" fill="#000000" fill-rule="evenodd" fill-opacity="1" /><path clip-path="url(#clip460)" d="M1661.02 1203.54 Q1657.41 1203.54 1655.58 1207.1 Q1653.77 1210.65 1653.77 1217.78 Q1653.77 1224.88 1655.58 1228.45 Q1657.41 1231.99 1661.02 1231.99 Q1664.65 1231.99 1666.46 1228.45 Q1668.29 1224.88 1668.29 1217.78 Q1668.29 1210.65 1666.46 1207.1 Q1664.65 1203.54 1661.02 1203.54 M1661.02 1199.84 Q1666.83 1199.84 1669.89 1204.44 Q1672.96 1209.03 1672.96 1217.78 Q1672.96 1226.5 1669.89 1231.11 Q1666.83 1235.69 1661.02 1235.69 Q1655.21 1235.69 1652.13 1231.11 Q1649.08 1226.5 1649.08 1217.78 Q1649.08 1209.03 1652.13 1204.44 Q1655.21 1199.84 1661.02 1199.84 Z" fill="#000000" fill-rule="evenodd" fill-opacity="1" /><path clip-path="url(#clip460)" d="M1681.18 1229.14 L1686.07 1229.14 L1686.07 1235.02 L1681.18 1235.02 L1681.18 1229.14 Z" fill="#000000" fill-rule="evenodd" fill-opacity="1" /><path clip-path="url(#clip460)" d="M1700.28 1231.09 L1716.6 1231.09 L1716.6 1235.02 L1694.65 1235.02 L1694.65 1231.09 Q1697.32 1228.33 1701.9 1223.7 Q1706.51 1219.05 1707.69 1217.71 Q1709.93 1215.18 1710.81 1213.45 Q1711.71 1211.69 1711.71 1210 Q1711.71 1207.24 1709.77 1205.51 Q1707.85 1203.77 1704.75 1203.77 Q1702.55 1203.77 1700.09 1204.53 Q1697.66 1205.3 1694.89 1206.85 L1694.89 1202.13 Q1697.71 1200.99 1700.16 1200.41 Q1702.62 1199.84 1704.65 1199.84 Q1710.02 1199.84 1713.22 1202.52 Q1716.41 1205.21 1716.41 1209.7 Q1716.41 1211.83 1715.6 1213.75 Q1714.82 1215.65 1712.71 1218.24 Q1712.13 1218.91 1709.03 1222.13 Q1705.93 1225.32 1700.28 1231.09 Z" fill="#000000" fill-rule="evenodd" fill-opacity="1" /><path clip-path="url(#clip460)" d="M1658.94 926.192 Q1655.33 926.192 1653.5 929.757 Q1651.69 933.299 1651.69 940.428 Q1651.69 947.535 1653.5 951.1 Q1655.33 954.641 1658.94 954.641 Q1662.57 954.641 1664.38 951.1 Q1666.2 947.535 1666.2 940.428 Q1666.2 933.299 1664.38 929.757 Q1662.57 926.192 1658.94 926.192 M1658.94 922.489 Q1664.75 922.489 1667.8 927.095 Q1670.88 931.678 1670.88 940.428 Q1670.88 949.155 1667.8 953.762 Q1664.75 958.345 1658.94 958.345 Q1653.13 958.345 1650.05 953.762 Q1646.99 949.155 1646.99 940.428 Q1646.99 931.678 1650.05 927.095 Q1653.13 922.489 1658.94 922.489 Z" fill="#000000" fill-rule="evenodd" fill-opacity="1" /><path clip-path="url(#clip460)" d="M1679.1 951.794 L1683.98 951.794 L1683.98 957.674 L1679.1 957.674 L1679.1 951.794 Z" fill="#000000" fill-rule="evenodd" fill-opacity="1" /><path clip-path="url(#clip460)" d="M1707.01 927.188 L1695.21 945.637 L1707.01 945.637 L1707.01 927.188 M1705.79 923.114 L1711.67 923.114 L1711.67 945.637 L1716.6 945.637 L1716.6 949.525 L1711.67 949.525 L1711.67 957.674 L1707.01 957.674 L1707.01 949.525 L1691.41 949.525 L1691.41 945.012 L1705.79 923.114 Z" fill="#000000" fill-rule="evenodd" fill-opacity="1" /><path clip-path="url(#clip460)" d="M1659.26 648.845 Q1655.65 648.845 1653.82 652.41 Q1652.02 655.952 1652.02 663.081 Q1652.02 670.188 1653.82 673.752 Q1655.65 677.294 1659.26 677.294 Q1662.89 677.294 1664.7 673.752 Q1666.53 670.188 1666.53 663.081 Q1666.53 655.952 1664.7 652.41 Q1662.89 648.845 1659.26 648.845 M1659.26 645.141 Q1665.07 645.141 1668.13 649.748 Q1671.2 654.331 1671.2 663.081 Q1671.2 671.808 1668.13 676.414 Q1665.07 680.998 1659.26 680.998 Q1653.45 680.998 1650.37 676.414 Q1647.32 671.808 1647.32 663.081 Q1647.32 654.331 1650.37 649.748 Q1653.45 645.141 1659.26 645.141 Z" fill="#000000" fill-rule="evenodd" fill-opacity="1" /><path clip-path="url(#clip460)" d="M1679.42 674.447 L1684.31 674.447 L1684.31 680.326 L1679.42 680.326 L1679.42 674.447 Z" fill="#000000" fill-rule="evenodd" fill-opacity="1" /><path clip-path="url(#clip460)" d="M1705.07 661.183 Q1701.92 661.183 1700.07 663.336 Q1698.24 665.489 1698.24 669.239 Q1698.24 672.965 1700.07 675.141 Q1701.92 677.294 1705.07 677.294 Q1708.22 677.294 1710.05 675.141 Q1711.9 672.965 1711.9 669.239 Q1711.9 665.489 1710.05 663.336 Q1708.22 661.183 1705.07 661.183 M1714.35 646.53 L1714.35 650.79 Q1712.59 649.956 1710.79 649.516 Q1709.01 649.077 1707.25 649.077 Q1702.62 649.077 1700.16 652.202 Q1697.73 655.327 1697.39 661.646 Q1698.75 659.632 1700.81 658.567 Q1702.87 657.479 1705.35 657.479 Q1710.56 657.479 1713.57 660.651 Q1716.6 663.799 1716.6 669.239 Q1716.6 674.563 1713.45 677.78 Q1710.3 680.998 1705.07 680.998 Q1699.08 680.998 1695.9 676.414 Q1692.73 671.808 1692.73 663.081 Q1692.73 654.887 1696.62 650.026 Q1700.51 645.141 1707.06 645.141 Q1708.82 645.141 1710.6 645.489 Q1712.41 645.836 1714.35 646.53 Z" fill="#000000" fill-rule="evenodd" fill-opacity="1" /><path clip-path="url(#clip460)" d="M1659.52 371.498 Q1655.9 371.498 1654.08 375.063 Q1652.27 378.604 1652.27 385.734 Q1652.27 392.84 1654.08 396.405 Q1655.9 399.947 1659.52 399.947 Q1663.15 399.947 1664.95 396.405 Q1666.78 392.84 1666.78 385.734 Q1666.78 378.604 1664.95 375.063 Q1663.15 371.498 1659.52 371.498 M1659.52 367.794 Q1665.33 367.794 1668.38 372.401 Q1671.46 376.984 1671.46 385.734 Q1671.46 394.461 1668.38 399.067 Q1665.33 403.651 1659.52 403.651 Q1653.71 403.651 1650.63 399.067 Q1647.57 394.461 1647.57 385.734 Q1647.57 376.984 1650.63 372.401 Q1653.71 367.794 1659.52 367.794 Z" fill="#000000" fill-rule="evenodd" fill-opacity="1" /><path clip-path="url(#clip460)" d="M1679.68 397.1 L1684.56 397.1 L1684.56 402.979 L1679.68 402.979 L1679.68 397.1 Z" fill="#000000" fill-rule="evenodd" fill-opacity="1" /><path clip-path="url(#clip460)" d="M1704.75 386.567 Q1701.41 386.567 1699.49 388.35 Q1697.59 390.132 1697.59 393.257 Q1697.59 396.382 1699.49 398.164 Q1701.41 399.947 1704.75 399.947 Q1708.08 399.947 1710 398.164 Q1711.92 396.359 1711.92 393.257 Q1711.92 390.132 1710 388.35 Q1708.1 386.567 1704.75 386.567 M1700.07 384.577 Q1697.06 383.836 1695.37 381.776 Q1693.7 379.716 1693.7 376.753 Q1693.7 372.609 1696.64 370.202 Q1699.61 367.794 1704.75 367.794 Q1709.91 367.794 1712.85 370.202 Q1715.79 372.609 1715.79 376.753 Q1715.79 379.716 1714.1 381.776 Q1712.43 383.836 1709.45 384.577 Q1712.83 385.364 1714.7 387.655 Q1716.6 389.947 1716.6 393.257 Q1716.6 398.28 1713.52 400.965 Q1710.46 403.651 1704.75 403.651 Q1699.03 403.651 1695.95 400.965 Q1692.89 398.28 1692.89 393.257 Q1692.89 389.947 1694.79 387.655 Q1696.69 385.364 1700.07 384.577 M1698.36 377.192 Q1698.36 379.878 1700.02 381.382 Q1701.71 382.887 1704.75 382.887 Q1707.76 382.887 1709.45 381.382 Q1711.16 379.878 1711.16 377.192 Q1711.16 374.507 1709.45 373.003 Q1707.76 371.498 1704.75 371.498 Q1701.71 371.498 1700.02 373.003 Q1698.36 374.507 1698.36 377.192 Z" fill="#000000" fill-rule="evenodd" fill-opacity="1" /><path clip-path="url(#clip460)" d="M1650.23 121.697 L1657.87 121.697 L1657.87 95.3314 L1649.56 96.998 L1649.56 92.7388 L1657.83 91.0721 L1662.5 91.0721 L1662.5 121.697 L1670.14 121.697 L1670.14 125.632 L1650.23 125.632 L1650.23 121.697 Z" fill="#000000" fill-rule="evenodd" fill-opacity="1" /><path clip-path="url(#clip460)" d="M1679.58 119.753 L1684.47 119.753 L1684.47 125.632 L1679.58 125.632 L1679.58 119.753 Z" fill="#000000" fill-rule="evenodd" fill-opacity="1" /><path clip-path="url(#clip460)" d="M1704.65 94.1508 Q1701.04 94.1508 1699.21 97.7156 Q1697.41 101.257 1697.41 108.387 Q1697.41 115.493 1699.21 119.058 Q1701.04 122.6 1704.65 122.6 Q1708.29 122.6 1710.09 119.058 Q1711.92 115.493 1711.92 108.387 Q1711.92 101.257 1710.09 97.7156 Q1708.29 94.1508 1704.65 94.1508 M1704.65 90.4471 Q1710.46 90.4471 1713.52 95.0536 Q1716.6 99.6369 1716.6 108.387 Q1716.6 117.114 1713.52 121.72 Q1710.46 126.303 1704.65 126.303 Q1698.84 126.303 1695.77 121.72 Q1692.71 117.114 1692.71 108.387 Q1692.71 99.6369 1695.77 95.0536 Q1698.84 90.4471 1704.65 90.4471 Z" fill="#000000" fill-rule="evenodd" fill-opacity="1" /><path clip-path="url(#clip460)" d="M2017.33 34.4165 Q2015.83 33.8899 2014.33 33.4848 Q2010.32 32.4315 2006.03 32.4315 Q1998.62 32.4315 1994.48 36.4419 Q1990.64 40.1688 1989.91 47.0148 L2017.33 47.0148 L2017.33 52.8481 L1989.91 52.8481 Q1990.64 59.6941 1994.48 63.421 Q1998.62 67.4314 2006.03 67.4314 Q2011.21 67.4314 2014.33 66.3781 L2017.33 65.3654 L2017.33 72.1304 L2014.13 72.8596 Q2009.92 73.7508 2005.58 73.7508 Q1994.73 73.7508 1988.41 67.4314 Q1982.05 61.1119 1982.05 49.9314 Q1982.05 38.7509 1988.41 32.4315 Q1994.73 26.1121 2005.58 26.1121 Q2009.67 26.1121 2014.13 27.0033 Q2015.75 27.3274 2017.33 27.8135 L2017.33 34.4165 Z" fill="#000000" fill-rule="evenodd" fill-opacity="1" /><path clip-path="url(#clip460)" d="M2100.42 45.1919 L2100.42 72.576 L2092.96 72.576 L2092.96 45.4349 Q2092.96 38.994 2090.45 35.7938 Q2087.94 32.5936 2082.92 32.5936 Q2076.88 32.5936 2073.4 36.4419 Q2069.91 40.2903 2069.91 46.9338 L2069.91 72.576 L2062.42 72.576 L2062.42 27.2059 L2069.91 27.2059 L2069.91 34.2544 Q2072.59 30.163 2076.19 28.1376 Q2079.84 26.1121 2084.58 26.1121 Q2092.39 26.1121 2096.4 30.9732 Q2100.42 35.7938 2100.42 45.1919 Z" fill="#000000" fill-rule="evenodd" fill-opacity="1" /><path clip-path="url(#clip460)" d="M2132.86 32.4315 Q2126.87 32.4315 2123.38 37.1306 Q2119.9 41.7891 2119.9 49.9314 Q2119.9 58.0738 2123.34 62.7728 Q2126.83 67.4314 2132.86 67.4314 Q2138.82 67.4314 2142.3 62.7323 Q2145.79 58.0333 2145.79 49.9314 Q2145.79 41.8701 2142.3 37.1711 Q2138.82 32.4315 2132.86 32.4315 M2132.86 26.1121 Q2142.59 26.1121 2148.13 32.4315 Q2153.68 38.7509 2153.68 49.9314 Q2153.68 61.0714 2148.13 67.4314 Q2142.59 73.7508 2132.86 73.7508 Q2123.1 73.7508 2117.55 67.4314 Q2112.04 61.0714 2112.04 49.9314 Q2112.04 38.7509 2117.55 32.4315 Q2123.1 26.1121 2132.86 26.1121 Z" fill="#000000" fill-rule="evenodd" fill-opacity="1" /><path clip-path="url(#clip460)" d="M2173.41 14.324 L2173.41 27.2059 L2188.77 27.2059 L2188.77 32.9987 L2173.41 32.9987 L2173.41 57.6282 Q2173.41 63.1779 2174.91 64.7578 Q2176.45 66.3376 2181.11 66.3376 L2188.77 66.3376 L2188.77 72.576 L2181.11 72.576 Q2172.48 72.576 2169.2 69.3758 Q2165.92 66.1351 2165.92 57.6282 L2165.92 32.9987 L2160.45 32.9987 L2160.45 27.2059 L2165.92 27.2059 L2165.92 14.324 L2173.41 14.324 Z" fill="#000000" fill-rule="evenodd" fill-opacity="1" /><path clip-path="url(#clip460)" d="M2232.15 65.7705 L2232.15 89.8329 L2224.66 89.8329 L2224.66 27.2059 L2232.15 27.2059 L2232.15 34.0924 Q2234.5 30.0415 2238.06 28.0971 Q2241.67 26.1121 2246.65 26.1121 Q2254.92 26.1121 2260.06 32.6746 Q2265.25 39.2371 2265.25 49.9314 Q2265.25 60.6258 2260.06 67.1883 Q2254.92 73.7508 2246.65 73.7508 Q2241.67 73.7508 2238.06 71.8063 Q2234.5 69.8214 2232.15 65.7705 M2257.51 49.9314 Q2257.51 41.7081 2254.11 37.0496 Q2250.74 32.3505 2244.83 32.3505 Q2238.92 32.3505 2235.51 37.0496 Q2232.15 41.7081 2232.15 49.9314 Q2232.15 58.1548 2235.51 62.8538 Q2238.92 67.5124 2244.83 67.5124 Q2250.74 67.5124 2254.11 62.8538 Q2257.51 58.1548 2257.51 49.9314 Z" fill="#000000" fill-rule="evenodd" fill-opacity="1" /><path clip-path="url(#clip460)" d="M2276.83 54.671 L2276.83 27.2059 L2284.29 27.2059 L2284.29 54.3874 Q2284.29 60.8284 2286.8 64.0691 Q2289.31 67.2693 2294.33 67.2693 Q2300.37 67.2693 2303.85 63.421 Q2307.38 59.5726 2307.38 52.9291 L2307.38 27.2059 L2314.83 27.2059 L2314.83 72.576 L2307.38 72.576 L2307.38 65.6084 Q2304.66 69.7404 2301.06 71.7658 Q2297.49 73.7508 2292.75 73.7508 Q2284.93 73.7508 2280.88 68.8897 Q2276.83 64.0286 2276.83 54.671 M2295.59 26.1121 L2295.59 26.1121 Z" fill="#000000" fill-rule="evenodd" fill-opacity="1" /><path clip-path="url(#clip460)" d="M2362.75 49.9314 Q2362.75 41.7081 2359.35 37.0496 Q2355.99 32.3505 2350.07 32.3505 Q2344.16 32.3505 2340.76 37.0496 Q2337.39 41.7081 2337.39 49.9314 Q2337.39 58.1548 2340.76 62.8538 Q2344.16 67.5124 2350.07 67.5124 Q2355.99 67.5124 2359.35 62.8538 Q2362.75 58.1548 2362.75 49.9314 M2337.39 34.0924 Q2339.74 30.0415 2343.31 28.0971 Q2346.91 26.1121 2351.9 26.1121 Q2360.16 26.1121 2365.3 32.6746 Q2370.49 39.2371 2370.49 49.9314 Q2370.49 60.6258 2365.3 67.1883 Q2360.16 73.7508 2351.9 73.7508 Q2346.91 73.7508 2343.31 71.8063 Q2339.74 69.8214 2337.39 65.7705 L2337.39 72.576 L2329.9 72.576 L2329.9 9.54393 L2337.39 9.54393 L2337.39 34.0924 Z" fill="#000000" fill-rule="evenodd" fill-opacity="1" /><path clip-path="url(#clip460)" d="M2382.84 9.54393 L2390.3 9.54393 L2390.3 72.576 L2382.84 72.576 L2382.84 9.54393 Z" fill="#000000" fill-rule="evenodd" fill-opacity="1" /><path clip-path="url(#clip460)" d="M2405.89 27.2059 L2413.35 27.2059 L2413.35 72.576 L2405.89 72.576 L2405.89 27.2059 M2405.89 9.54393 L2413.35 9.54393 L2413.35 18.9825 L2405.89 18.9825 L2405.89 9.54393 Z" fill="#000000" fill-rule="evenodd" fill-opacity="1" /><path clip-path="url(#clip460)" d="M2461.59 28.9478 L2461.59 35.9153 Q2458.43 34.1734 2455.23 33.3227 Q2452.07 32.4315 2448.83 32.4315 Q2441.58 32.4315 2437.57 37.0496 Q2433.56 41.6271 2433.56 49.9314 Q2433.56 58.2358 2437.57 62.8538 Q2441.58 67.4314 2448.83 67.4314 Q2452.07 67.4314 2455.23 66.5807 Q2458.43 65.6895 2461.59 63.9476 L2461.59 70.8341 Q2458.47 72.2924 2455.11 73.0216 Q2451.79 73.7508 2448.02 73.7508 Q2437.77 73.7508 2431.74 67.3098 Q2425.7 60.8689 2425.7 49.9314 Q2425.7 38.832 2431.78 32.472 Q2437.9 26.1121 2448.51 26.1121 Q2451.95 26.1121 2455.23 26.8413 Q2458.52 27.5299 2461.59 28.9478 Z" fill="#000000" fill-rule="evenodd" fill-opacity="1" /><path clip-path="url(#clip460)" d="M2474.56 9.54393 L2482.01 9.54393 L2482.01 72.576 L2474.56 72.576 L2474.56 9.54393 Z" fill="#000000" fill-rule="evenodd" fill-opacity="1" /><path clip-path="url(#clip460)" d="M2516.48 76.7889 Q2513.32 84.8907 2510.33 87.3618 Q2507.33 89.8329 2502.31 89.8329 L2496.35 89.8329 L2496.35 83.5945 L2500.73 83.5945 Q2503.8 83.5945 2505.51 82.1361 Q2507.21 80.6778 2509.27 75.2496 L2510.61 71.8468 L2492.26 27.2059 L2500.16 27.2059 L2514.34 62.6918 L2528.51 27.2059 L2536.41 27.2059 L2516.48 76.7889 Z" fill="#000000" fill-rule="evenodd" fill-opacity="1" /><path clip-path="url(#clip460)" d="M2593.69 49.7694 Q2584.66 49.7694 2581.18 51.8354 Q2577.69 53.9013 2577.69 58.8839 Q2577.69 62.8538 2580.29 65.2034 Q2582.92 67.5124 2587.41 67.5124 Q2593.61 67.5124 2597.34 63.1374 Q2601.11 58.7219 2601.11 51.4303 L2601.11 49.7694 L2593.69 49.7694 M2608.56 46.6907 L2608.56 72.576 L2601.11 72.576 L2601.11 65.6895 Q2598.55 69.8214 2594.75 71.8063 Q2590.94 73.7508 2585.43 73.7508 Q2578.46 73.7508 2574.33 69.8619 Q2570.24 65.9325 2570.24 59.3701 Q2570.24 51.7138 2575.34 47.825 Q2580.49 43.9361 2590.66 43.9361 L2601.11 43.9361 L2601.11 43.2069 Q2601.11 38.0623 2597.7 35.2672 Q2594.34 32.4315 2588.22 32.4315 Q2584.34 32.4315 2580.65 33.3632 Q2576.96 34.295 2573.56 36.1584 L2573.56 29.2718 Q2577.65 27.692 2581.5 26.9223 Q2585.35 26.1121 2588.99 26.1121 Q2598.84 26.1121 2603.7 31.2163 Q2608.56 36.3204 2608.56 46.6907 Z" fill="#000000" fill-rule="evenodd" fill-opacity="1" /><path clip-path="url(#clip460)" d="M2618.57 27.2059 L2626.47 27.2059 L2640.64 65.2844 L2654.82 27.2059 L2662.72 27.2059 L2645.71 72.576 L2635.58 72.576 L2618.57 27.2059 Z" fill="#000000" fill-rule="evenodd" fill-opacity="1" /><path clip-path="url(#clip460)" d="M2693.63 49.7694 Q2684.6 49.7694 2681.11 51.8354 Q2677.63 53.9013 2677.63 58.8839 Q2677.63 62.8538 2680.22 65.2034 Q2682.85 67.5124 2687.35 67.5124 Q2693.55 67.5124 2697.28 63.1374 Q2701.04 58.7219 2701.04 51.4303 L2701.04 49.7694 L2693.63 49.7694 M2708.5 46.6907 L2708.5 72.576 L2701.04 72.576 L2701.04 65.6895 Q2698.49 69.8214 2694.68 71.8063 Q2690.87 73.7508 2685.37 73.7508 Q2678.4 73.7508 2674.27 69.8619 Q2670.17 65.9325 2670.17 59.3701 Q2670.17 51.7138 2675.28 47.825 Q2680.42 43.9361 2690.59 43.9361 L2701.04 43.9361 L2701.04 43.2069 Q2701.04 38.0623 2697.64 35.2672 Q2694.28 32.4315 2688.16 32.4315 Q2684.27 32.4315 2680.59 33.3632 Q2676.9 34.295 2673.5 36.1584 L2673.5 29.2718 Q2677.59 27.692 2681.44 26.9223 Q2685.28 26.1121 2688.93 26.1121 Q2698.77 26.1121 2703.64 31.2163 Q2708.5 36.3204 2708.5 46.6907 Z" fill="#000000" fill-rule="evenodd" fill-opacity="1" /><path clip-path="url(#clip460)" d="M2723.85 27.2059 L2731.3 27.2059 L2731.3 72.576 L2723.85 72.576 L2723.85 27.2059 M2723.85 9.54393 L2731.3 9.54393 L2731.3 18.9825 L2723.85 18.9825 L2723.85 9.54393 Z" fill="#000000" fill-rule="evenodd" fill-opacity="1" /><path clip-path="url(#clip460)" d="M2746.9 9.54393 L2754.35 9.54393 L2754.35 72.576 L2746.9 72.576 L2746.9 9.54393 Z" fill="#000000" fill-rule="evenodd" fill-opacity="1" /><path clip-path="url(#clip460)" d="M2790.57 49.7694 Q2781.53 49.7694 2778.05 51.8354 Q2774.57 53.9013 2774.57 58.8839 Q2774.57 62.8538 2777.16 65.2034 Q2779.79 67.5124 2784.29 67.5124 Q2790.49 67.5124 2794.21 63.1374 Q2797.98 58.7219 2797.98 51.4303 L2797.98 49.7694 L2790.57 49.7694 M2805.43 46.6907 L2805.43 72.576 L2797.98 72.576 L2797.98 65.6895 Q2795.43 69.8214 2791.62 71.8063 Q2787.81 73.7508 2782.3 73.7508 Q2775.34 73.7508 2771.2 69.8619 Q2767.11 65.9325 2767.11 59.3701 Q2767.11 51.7138 2772.22 47.825 Q2777.36 43.9361 2787.53 43.9361 L2797.98 43.9361 L2797.98 43.2069 Q2797.98 38.0623 2794.58 35.2672 Q2791.22 32.4315 2785.1 32.4315 Q2781.21 32.4315 2777.52 33.3632 Q2773.84 34.295 2770.43 36.1584 L2770.43 29.2718 Q2774.53 27.692 2778.37 26.9223 Q2782.22 26.1121 2785.87 26.1121 Q2795.71 26.1121 2800.57 31.2163 Q2805.43 36.3204 2805.43 46.6907 Z" fill="#000000" fill-rule="evenodd" fill-opacity="1" /><path clip-path="url(#clip460)" d="M2853.36 49.9314 Q2853.36 41.7081 2849.95 37.0496 Q2846.59 32.3505 2840.68 32.3505 Q2834.76 32.3505 2831.36 37.0496 Q2828 41.7081 2828 49.9314 Q2828 58.1548 2831.36 62.8538 Q2834.76 67.5124 2840.68 67.5124 Q2846.59 67.5124 2849.95 62.8538 Q2853.36 58.1548 2853.36 49.9314 M2828 34.0924 Q2830.35 30.0415 2833.91 28.0971 Q2837.52 26.1121 2842.5 26.1121 Q2850.76 26.1121 2855.91 32.6746 Q2861.09 39.2371 2861.09 49.9314 Q2861.09 60.6258 2855.91 67.1883 Q2850.76 73.7508 2842.5 73.7508 Q2837.52 73.7508 2833.91 71.8063 Q2830.35 69.8214 2828 65.7705 L2828 72.576 L2820.5 72.576 L2820.5 9.54393 L2828 9.54393 L2828 34.0924 Z" fill="#000000" fill-rule="evenodd" fill-opacity="1" /><path clip-path="url(#clip460)" d="M2873.45 9.54393 L2880.9 9.54393 L2880.9 72.576 L2873.45 72.576 L2873.45 9.54393 Z" fill="#000000" fill-rule="evenodd" fill-opacity="1" /><path clip-path="url(#clip460)" d="M2935.31 48.0275 L2935.31 51.6733 L2901.04 51.6733 Q2901.52 59.3701 2905.65 63.421 Q2909.83 67.4314 2917.24 67.4314 Q2921.53 67.4314 2925.54 66.3781 Q2929.59 65.3249 2933.56 63.2184 L2933.56 70.267 Q2929.55 71.9684 2925.34 72.8596 Q2921.13 73.7508 2916.79 73.7508 Q2905.94 73.7508 2899.58 67.4314 Q2893.26 61.1119 2893.26 50.3365 Q2893.26 39.1965 2899.25 32.6746 Q2905.29 26.1121 2915.5 26.1121 Q2924.65 26.1121 2929.96 32.0264 Q2935.31 37.9003 2935.31 48.0275 M2927.85 45.84 Q2927.77 39.7232 2924.41 36.0774 Q2921.09 32.4315 2915.58 32.4315 Q2909.34 32.4315 2905.57 35.9558 Q2901.85 39.4801 2901.28 45.8805 L2927.85 45.84 Z" fill="#000000" fill-rule="evenodd" fill-opacity="1" /><polyline clip-path="url(#clip463)" style="stroke:#009af9; stroke-linecap:butt; stroke-linejoin:round; stroke-width:12; stroke-opacity:1; fill:none" points="
  1803.89,97.9275 1830.61,774.662 1910.79,731.677 2044.42,640.937 2311.68,602.178 3113.47,829.083 
  "/>
<path clip-path="url(#clip463)" d="M1830.61 790.662 L1819.3 785.974 L1814.61 774.662 L1819.3 763.35 L1830.61 758.662 L1841.92 763.35 L1846.61 774.662 L1841.92 785.974 Z" fill="#009af9" fill-rule="evenodd" fill-opacity="1" stroke="#000000" stroke-opacity="1" stroke-width="3.2"/>
<path clip-path="url(#clip463)" d="M1910.79 747.677 L1899.48 742.989 L1894.79 731.677 L1899.48 720.365 L1910.79 715.677 L1922.1 720.365 L1926.79 731.677 L1922.1 742.989 Z" fill="#009af9" fill-rule="evenodd" fill-opacity="1" stroke="#000000" stroke-opacity="1" stroke-width="3.2"/>
<path clip-path="url(#clip463)" d="M2044.42 656.937 L2033.11 652.249 L2028.42 640.937 L2033.11 629.625 L2044.42 624.937 L2055.73 629.625 L2060.42 640.937 L2055.73 652.249 Z" fill="#009af9" fill-rule="evenodd" fill-opacity="1" stroke="#000000" stroke-opacity="1" stroke-width="3.2"/>
<path clip-path="url(#clip463)" d="M2311.68 618.178 L2300.37 613.49 L2295.68 602.178 L2300.37 590.866 L2311.68 586.178 L2323 590.866 L2327.68 602.178 L2323 613.49 Z" fill="#009af9" fill-rule="evenodd" fill-opacity="1" stroke="#000000" stroke-opacity="1" stroke-width="3.2"/>
<path clip-path="url(#clip463)" d="M3113.47 845.083 L3102.16 840.395 L3097.47 829.083 L3102.16 817.771 L3113.47 813.083 L3124.78 817.771 L3129.47 829.083 L3124.78 840.395 Z" fill="#009af9" fill-rule="evenodd" fill-opacity="1" stroke="#000000" stroke-opacity="1" stroke-width="3.2"/>
<polyline clip-path="url(#clip463)" style="stroke:#e26f46; stroke-linecap:butt; stroke-linejoin:round; stroke-width:12; stroke-opacity:1; fill:none" points="
  1803.89,813.326 1830.61,721.244 1910.79,1048.3 2044.42,1068.28 2311.68,1154.14 3113.47,1283.78 
  "/>
<path clip-path="url(#clip463)" d="M1803.89 829.326 L1792.57 824.638 L1787.89 813.326 L1792.57 802.014 L1803.89 797.326 L1815.2 802.014 L1819.89 813.326 L1815.2 824.638 Z" fill="#e26f46" fill-rule="evenodd" fill-opacity="1" stroke="#000000" stroke-opacity="1" stroke-width="3.2"/>
<path clip-path="url(#clip463)" d="M1830.61 737.244 L1819.3 732.556 L1814.61 721.244 L1819.3 709.932 L1830.61 705.244 L1841.92 709.932 L1846.61 721.244 L1841.92 732.556 Z" fill="#e26f46" fill-rule="evenodd" fill-opacity="1" stroke="#000000" stroke-opacity="1" stroke-width="3.2"/>
<path clip-path="url(#clip463)" d="M1910.79 1064.3 L1899.48 1059.61 L1894.79 1048.3 L1899.48 1036.98 L1910.79 1032.3 L1922.1 1036.98 L1926.79 1048.3 L1922.1 1059.61 Z" fill="#e26f46" fill-rule="evenodd" fill-opacity="1" stroke="#000000" stroke-opacity="1" stroke-width="3.2"/>
<path clip-path="url(#clip463)" d="M2044.42 1084.28 L2033.11 1079.59 L2028.42 1068.28 L2033.11 1056.97 L2044.42 1052.28 L2055.73 1056.97 L2060.42 1068.28 L2055.73 1079.59 Z" fill="#e26f46" fill-rule="evenodd" fill-opacity="1" stroke="#000000" stroke-opacity="1" stroke-width="3.2"/>
<path clip-path="url(#clip463)" d="M2311.68 1170.14 L2300.37 1165.45 L2295.68 1154.14 L2300.37 1142.82 L2311.68 1138.14 L2323 1142.82 L2327.68 1154.14 L2323 1165.45 Z" fill="#e26f46" fill-rule="evenodd" fill-opacity="1" stroke="#000000" stroke-opacity="1" stroke-width="3.2"/>
<path clip-path="url(#clip463)" d="M3113.47 1299.78 L3102.16 1295.09 L3097.47 1283.78 L3102.16 1272.46 L3113.47 1267.78 L3124.78 1272.46 L3129.47 1283.78 L3124.78 1295.09 Z" fill="#e26f46" fill-rule="evenodd" fill-opacity="1" stroke="#000000" stroke-opacity="1" stroke-width="3.2"/>
<path clip-path="url(#clip460)" d="
M2828.8 310.097 L3106.48 310.097 L3106.48 154.577 L2828.8 154.577  Z
  " fill="#ffffff" fill-rule="evenodd" fill-opacity="1"/>
<polyline clip-path="url(#clip460)" style="stroke:#000000; stroke-linecap:butt; stroke-linejoin:round; stroke-width:4; stroke-opacity:1; fill:none" points="
  2828.8,310.097 3106.48,310.097 3106.48,154.577 2828.8,154.577 2828.8,310.097 
  "/>
<polyline clip-path="url(#clip460)" style="stroke:#009af9; stroke-linecap:butt; stroke-linejoin:round; stroke-width:4; stroke-opacity:1; fill:none" points="
  2844.22,206.417 2936.76,206.417 
  "/>
<path clip-path="url(#clip460)" d="M2890.49 232.017 L2872.39 224.516 L2864.89 206.417 L2872.39 188.317 L2890.49 180.817 L2908.59 188.317 L2916.09 206.417 L2908.59 224.516 Z" fill="#009af9" fill-rule="evenodd" fill-opacity="1" stroke="#000000" stroke-opacity="1" stroke-width="5.12"/>
<path clip-path="url(#clip460)" d="M2972.35 201.891 Q2971.49 201.59 2970.64 201.359 Q2968.34 200.757 2965.89 200.757 Q2961.66 200.757 2959.29 203.049 Q2957.1 205.178 2956.68 209.09 L2972.35 209.09 L2972.35 212.424 L2956.68 212.424 Q2957.1 216.336 2959.29 218.465 Q2961.66 220.757 2965.89 220.757 Q2968.85 220.757 2970.64 220.155 L2972.35 219.576 L2972.35 223.442 L2970.52 223.859 Q2968.11 224.368 2965.64 224.368 Q2959.43 224.368 2955.82 220.757 Q2952.19 217.146 2952.19 210.757 Q2952.19 204.368 2955.82 200.757 Q2959.43 197.146 2965.64 197.146 Q2967.97 197.146 2970.52 197.655 Q2971.45 197.84 2972.35 198.118 L2972.35 201.891 Z" fill="#000000" fill-rule="evenodd" fill-opacity="1" /><path clip-path="url(#clip460)" d="M2983.76 202.169 L3013.44 202.169 L3013.44 206.058 L2983.76 206.058 L2983.76 202.169 M2983.76 211.613 L3013.44 211.613 L3013.44 215.549 L2983.76 215.549 L2983.76 211.613 Z" fill="#000000" fill-rule="evenodd" fill-opacity="1" /><path clip-path="url(#clip460)" d="M3024.34 219.761 L3031.98 219.761 L3031.98 193.396 L3023.67 195.063 L3023.67 190.803 L3031.93 189.137 L3036.61 189.137 L3036.61 219.761 L3044.25 219.761 L3044.25 223.697 L3024.34 223.697 L3024.34 219.761 Z" fill="#000000" fill-rule="evenodd" fill-opacity="1" /><polyline clip-path="url(#clip460)" style="stroke:#e26f46; stroke-linecap:butt; stroke-linejoin:round; stroke-width:4; stroke-opacity:1; fill:none" points="
  2844.22,258.257 2936.76,258.257 
  "/>
<path clip-path="url(#clip460)" d="M2890.49 283.857 L2872.39 276.356 L2864.89 258.257 L2872.39 240.157 L2890.49 232.657 L2908.59 240.157 L2916.09 258.257 L2908.59 276.356 Z" fill="#e26f46" fill-rule="evenodd" fill-opacity="1" stroke="#000000" stroke-opacity="1" stroke-width="5.12"/>
<path clip-path="url(#clip460)" d="M2972.35 253.731 Q2971.49 253.43 2970.64 253.199 Q2968.34 252.597 2965.89 252.597 Q2961.66 252.597 2959.29 254.889 Q2957.1 257.018 2956.68 260.93 L2972.35 260.93 L2972.35 264.264 L2956.68 264.264 Q2957.1 268.176 2959.29 270.305 Q2961.66 272.597 2965.89 272.597 Q2968.85 272.597 2970.64 271.995 L2972.35 271.416 L2972.35 275.282 L2970.52 275.699 Q2968.11 276.208 2965.64 276.208 Q2959.43 276.208 2955.82 272.597 Q2952.19 268.986 2952.19 262.597 Q2952.19 256.208 2955.82 252.597 Q2959.43 248.986 2965.64 248.986 Q2967.97 248.986 2970.52 249.495 Q2971.45 249.68 2972.35 249.958 L2972.35 253.731 Z" fill="#000000" fill-rule="evenodd" fill-opacity="1" /><path clip-path="url(#clip460)" d="M2983.76 254.009 L3013.44 254.009 L3013.44 257.898 L2983.76 257.898 L2983.76 254.009 M2983.76 263.453 L3013.44 263.453 L3013.44 267.389 L2983.76 267.389 L2983.76 263.453 Z" fill="#000000" fill-rule="evenodd" fill-opacity="1" /><path clip-path="url(#clip460)" d="M3024.34 271.601 L3031.98 271.601 L3031.98 245.236 L3023.67 246.903 L3023.67 242.643 L3031.93 240.977 L3036.61 240.977 L3036.61 271.601 L3044.25 271.601 L3044.25 275.537 L3024.34 275.537 L3024.34 271.601 Z" fill="#000000" fill-rule="evenodd" fill-opacity="1" /><path clip-path="url(#clip460)" d="M3063.69 244.055 Q3060.08 244.055 3058.25 247.62 Q3056.45 251.162 3056.45 258.291 Q3056.45 265.398 3058.25 268.963 Q3060.08 272.504 3063.69 272.504 Q3067.33 272.504 3069.13 268.963 Q3070.96 265.398 3070.96 258.291 Q3070.96 251.162 3069.13 247.62 Q3067.33 244.055 3063.69 244.055 M3063.69 240.352 Q3069.5 240.352 3072.56 244.958 Q3075.64 249.541 3075.64 258.291 Q3075.64 267.018 3072.56 271.625 Q3069.5 276.208 3063.69 276.208 Q3057.88 276.208 3054.8 271.625 Q3051.75 267.018 3051.75 258.291 Q3051.75 249.541 3054.8 244.958 Q3057.88 240.352 3063.69 240.352 Z" fill="#000000" fill-rule="evenodd" fill-opacity="1" /></svg>
