<?xml version="1.0" encoding="utf-8"?>
<svg xmlns="http://www.w3.org/2000/svg" xmlns:xlink="http://www.w3.org/1999/xlink" width="600" height="400" viewBox="0 0 2400 1600">
<defs>
  <clipPath id="clip320">
    <rect x="0" y="0" width="2400" height="1600"/>
  </clipPath>
</defs>
<path clip-path="url(#clip320)" d="
M0 1600 L2400 1600 L2400 0 L0 0  Z
  " fill="#ffffff" fill-rule="evenodd" fill-opacity="1"/>
<defs>
  <clipPath id="clip321">
    <rect x="480" y="0" width="1681" height="1600"/>
  </clipPath>
</defs>
<path clip-path="url(#clip320)" d="
M156.598 1486.45 L2352.76 1486.45 L2352.76 123.472 L156.598 123.472  Z
  " fill="#ffffff" fill-rule="evenodd" fill-opacity="1"/>
<defs>
  <clipPath id="clip322">
    <rect x="156" y="123" width="2197" height="1364"/>
  </clipPath>
</defs>
<polyline clip-path="url(#clip322)" style="stroke:#000000; stroke-linecap:butt; stroke-linejoin:round; stroke-width:2; stroke-opacity:0.1; fill:none" points="
  216.68,1486.45 216.68,123.472 
  "/>
<polyline clip-path="url(#clip322)" style="stroke:#000000; stroke-linecap:butt; stroke-linejoin:round; stroke-width:2; stroke-opacity:0.1; fill:none" points="
  735.16,1486.45 735.16,123.472 
  "/>
<polyline clip-path="url(#clip322)" style="stroke:#000000; stroke-linecap:butt; stroke-linejoin:round; stroke-width:2; stroke-opacity:0.1; fill:none" points="
  1253.64,1486.45 1253.64,123.472 
  "/>
<polyline clip-path="url(#clip322)" style="stroke:#000000; stroke-linecap:butt; stroke-linejoin:round; stroke-width:2; stroke-opacity:0.1; fill:none" points="
  1772.12,1486.45 1772.12,123.472 
  "/>
<polyline clip-path="url(#clip322)" style="stroke:#000000; stroke-linecap:butt; stroke-linejoin:round; stroke-width:2; stroke-opacity:0.1; fill:none" points="
  2290.6,1486.45 2290.6,123.472 
  "/>
<polyline clip-path="url(#clip320)" style="stroke:#000000; stroke-linecap:butt; stroke-linejoin:round; stroke-width:4; stroke-opacity:1; fill:none" points="
  156.598,1486.45 2352.76,1486.45 
  "/>
<polyline clip-path="url(#clip320)" style="stroke:#000000; stroke-linecap:butt; stroke-linejoin:round; stroke-width:4; stroke-opacity:1; fill:none" points="
  216.68,1486.45 216.68,1467.55 
  "/>
<polyline clip-path="url(#clip320)" style="stroke:#000000; stroke-linecap:butt; stroke-linejoin:round; stroke-width:4; stroke-opacity:1; fill:none" points="
  735.16,1486.45 735.16,1467.55 
  "/>
<polyline clip-path="url(#clip320)" style="stroke:#000000; stroke-linecap:butt; stroke-linejoin:round; stroke-width:4; stroke-opacity:1; fill:none" points="
  1253.64,1486.45 1253.64,1467.55 
  "/>
<polyline clip-path="url(#clip320)" style="stroke:#000000; stroke-linecap:butt; stroke-linejoin:round; stroke-width:4; stroke-opacity:1; fill:none" points="
  1772.12,1486.45 1772.12,1467.55 
  "/>
<polyline clip-path="url(#clip320)" style="stroke:#000000; stroke-linecap:butt; stroke-linejoin:round; stroke-width:4; stroke-opacity:1; fill:none" points="
  2290.6,1486.45 2290.6,1467.55 
  "/>
<path clip-path="url(#clip320)" d="M216.68 1517.37 Q213.069 1517.37 211.24 1520.93 Q209.434 1524.47 209.434 1531.6 Q209.434 1538.71 211.24 1542.27 Q213.069 1545.82 216.68 1545.82 Q220.314 1545.82 222.12 1542.27 Q223.948 1538.71 223.948 1531.6 Q223.948 1524.47 222.12 1520.93 Q220.314 1517.37 216.68 1517.37 M216.68 1513.66 Q222.49 1513.66 225.545 1518.27 Q228.624 1522.85 228.624 1531.6 Q228.624 1540.33 225.545 1544.94 Q222.49 1549.52 216.68 1549.52 Q210.87 1549.52 207.791 1544.94 Q204.735 1540.33 204.735 1531.6 Q204.735 1522.85 207.791 1518.27 Q210.87 1513.66 216.68 1513.66 Z" fill="#000000" fill-rule="evenodd" fill-opacity="1" /><path clip-path="url(#clip320)" d="M683.771 1544.91 L700.091 1544.91 L700.091 1548.85 L678.146 1548.85 L678.146 1544.91 Q680.808 1542.16 685.392 1537.53 Q689.998 1532.88 691.179 1531.53 Q693.424 1529.01 694.304 1527.27 Q695.206 1525.51 695.206 1523.82 Q695.206 1521.07 693.262 1519.33 Q691.341 1517.6 688.239 1517.6 Q686.04 1517.6 683.586 1518.36 Q681.156 1519.13 678.378 1520.68 L678.378 1515.95 Q681.202 1514.82 683.656 1514.24 Q686.109 1513.66 688.146 1513.66 Q693.517 1513.66 696.711 1516.35 Q699.905 1519.03 699.905 1523.52 Q699.905 1525.65 699.095 1527.57 Q698.308 1529.47 696.202 1532.07 Q695.623 1532.74 692.521 1535.95 Q689.419 1539.15 683.771 1544.91 Z" fill="#000000" fill-rule="evenodd" fill-opacity="1" /><path clip-path="url(#clip320)" d="M709.952 1514.29 L728.308 1514.29 L728.308 1518.22 L714.234 1518.22 L714.234 1526.7 Q715.253 1526.35 716.271 1526.19 Q717.29 1526 718.308 1526 Q724.095 1526 727.475 1529.17 Q730.854 1532.34 730.854 1537.76 Q730.854 1543.34 727.382 1546.44 Q723.91 1549.52 717.591 1549.52 Q715.415 1549.52 713.146 1549.15 Q710.901 1548.78 708.493 1548.04 L708.493 1543.34 Q710.577 1544.47 712.799 1545.03 Q715.021 1545.58 717.498 1545.58 Q721.503 1545.58 723.841 1543.48 Q726.178 1541.37 726.178 1537.76 Q726.178 1534.15 723.841 1532.04 Q721.503 1529.94 717.498 1529.94 Q715.623 1529.94 713.748 1530.35 Q711.896 1530.77 709.952 1531.65 L709.952 1514.29 Z" fill="#000000" fill-rule="evenodd" fill-opacity="1" /><path clip-path="url(#clip320)" d="M750.067 1517.37 Q746.456 1517.37 744.627 1520.93 Q742.822 1524.47 742.822 1531.6 Q742.822 1538.71 744.627 1542.27 Q746.456 1545.82 750.067 1545.82 Q753.701 1545.82 755.507 1542.27 Q757.336 1538.71 757.336 1531.6 Q757.336 1524.47 755.507 1520.93 Q753.701 1517.37 750.067 1517.37 M750.067 1513.66 Q755.877 1513.66 758.933 1518.27 Q762.012 1522.85 762.012 1531.6 Q762.012 1540.33 758.933 1544.94 Q755.877 1549.52 750.067 1549.52 Q744.257 1549.52 741.178 1544.94 Q738.123 1540.33 738.123 1531.6 Q738.123 1522.85 741.178 1518.27 Q744.257 1513.66 750.067 1513.66 Z" fill="#000000" fill-rule="evenodd" fill-opacity="1" /><path clip-path="url(#clip320)" d="M780.229 1517.37 Q776.618 1517.37 774.789 1520.93 Q772.984 1524.47 772.984 1531.6 Q772.984 1538.71 774.789 1542.27 Q776.618 1545.82 780.229 1545.82 Q783.863 1545.82 785.669 1542.27 Q787.498 1538.71 787.498 1531.6 Q787.498 1524.47 785.669 1520.93 Q783.863 1517.37 780.229 1517.37 M780.229 1513.66 Q786.039 1513.66 789.095 1518.27 Q792.173 1522.85 792.173 1531.6 Q792.173 1540.33 789.095 1544.94 Q786.039 1549.52 780.229 1549.52 Q774.419 1549.52 771.34 1544.94 Q768.285 1540.33 768.285 1531.6 Q768.285 1522.85 771.34 1518.27 Q774.419 1513.66 780.229 1513.66 Z" fill="#000000" fill-rule="evenodd" fill-opacity="1" /><path clip-path="url(#clip320)" d="M1198.18 1514.29 L1216.53 1514.29 L1216.53 1518.22 L1202.46 1518.22 L1202.46 1526.7 Q1203.48 1526.35 1204.5 1526.19 Q1205.52 1526 1206.53 1526 Q1212.32 1526 1215.7 1529.17 Q1219.08 1532.34 1219.08 1537.76 Q1219.08 1543.34 1215.61 1546.44 Q1212.14 1549.52 1205.82 1549.52 Q1203.64 1549.52 1201.37 1549.15 Q1199.13 1548.78 1196.72 1548.04 L1196.72 1543.34 Q1198.8 1544.47 1201.02 1545.03 Q1203.25 1545.58 1205.72 1545.58 Q1209.73 1545.58 1212.07 1543.48 Q1214.4 1541.37 1214.4 1537.76 Q1214.4 1534.15 1212.07 1532.04 Q1209.73 1529.94 1205.72 1529.94 Q1203.85 1529.94 1201.97 1530.35 Q1200.12 1530.77 1198.18 1531.65 L1198.18 1514.29 Z" fill="#000000" fill-rule="evenodd" fill-opacity="1" /><path clip-path="url(#clip320)" d="M1238.29 1517.37 Q1234.68 1517.37 1232.85 1520.93 Q1231.05 1524.47 1231.05 1531.6 Q1231.05 1538.71 1232.85 1542.27 Q1234.68 1545.82 1238.29 1545.82 Q1241.93 1545.82 1243.73 1542.27 Q1245.56 1538.71 1245.56 1531.6 Q1245.56 1524.47 1243.73 1520.93 Q1241.93 1517.37 1238.29 1517.37 M1238.29 1513.66 Q1244.1 1513.66 1247.16 1518.27 Q1250.24 1522.85 1250.24 1531.6 Q1250.24 1540.33 1247.16 1544.94 Q1244.1 1549.52 1238.29 1549.52 Q1232.48 1549.52 1229.4 1544.94 Q1226.35 1540.33 1226.35 1531.6 Q1226.35 1522.85 1229.4 1518.27 Q1232.48 1513.66 1238.29 1513.66 Z" fill="#000000" fill-rule="evenodd" fill-opacity="1" /><path clip-path="url(#clip320)" d="M1268.45 1517.37 Q1264.84 1517.37 1263.02 1520.93 Q1261.21 1524.47 1261.21 1531.6 Q1261.21 1538.71 1263.02 1542.27 Q1264.84 1545.82 1268.45 1545.82 Q1272.09 1545.82 1273.89 1542.27 Q1275.72 1538.71 1275.72 1531.6 Q1275.72 1524.47 1273.89 1520.93 Q1272.09 1517.37 1268.45 1517.37 M1268.45 1513.66 Q1274.26 1513.66 1277.32 1518.27 Q1280.4 1522.85 1280.4 1531.6 Q1280.4 1540.33 1277.32 1544.94 Q1274.26 1549.52 1268.45 1549.52 Q1262.64 1549.52 1259.57 1544.94 Q1256.51 1540.33 1256.51 1531.6 Q1256.51 1522.85 1259.57 1518.27 Q1262.64 1513.66 1268.45 1513.66 Z" fill="#000000" fill-rule="evenodd" fill-opacity="1" /><path clip-path="url(#clip320)" d="M1298.62 1517.37 Q1295.01 1517.37 1293.18 1520.93 Q1291.37 1524.47 1291.37 1531.6 Q1291.37 1538.71 1293.18 1542.27 Q1295.01 1545.82 1298.62 1545.82 Q1302.25 1545.82 1304.06 1542.27 Q1305.89 1538.71 1305.89 1531.6 Q1305.89 1524.47 1304.06 1520.93 Q1302.25 1517.37 1298.62 1517.37 M1298.62 1513.66 Q1304.43 1513.66 1307.48 1518.27 Q1310.56 1522.85 1310.56 1531.6 Q1310.56 1540.33 1307.48 1544.94 Q1304.43 1549.52 1298.62 1549.52 Q1292.81 1549.52 1289.73 1544.94 Q1286.67 1540.33 1286.67 1531.6 Q1286.67 1522.85 1289.73 1518.27 Q1292.81 1513.66 1298.62 1513.66 Z" fill="#000000" fill-rule="evenodd" fill-opacity="1" /><path clip-path="url(#clip320)" d="M1715.32 1514.29 L1737.54 1514.29 L1737.54 1516.28 L1724.99 1548.85 L1720.11 1548.85 L1731.91 1518.22 L1715.32 1518.22 L1715.32 1514.29 Z" fill="#000000" fill-rule="evenodd" fill-opacity="1" /><path clip-path="url(#clip320)" d="M1746.7 1514.29 L1765.06 1514.29 L1765.06 1518.22 L1750.99 1518.22 L1750.99 1526.7 Q1752 1526.35 1753.02 1526.19 Q1754.04 1526 1755.06 1526 Q1760.85 1526 1764.23 1529.17 Q1767.61 1532.34 1767.61 1537.76 Q1767.61 1543.34 1764.13 1546.44 Q1760.66 1549.52 1754.34 1549.52 Q1752.17 1549.52 1749.9 1549.15 Q1747.65 1548.78 1745.25 1548.04 L1745.25 1543.34 Q1747.33 1544.47 1749.55 1545.03 Q1751.77 1545.58 1754.25 1545.58 Q1758.25 1545.58 1760.59 1543.48 Q1762.93 1541.37 1762.93 1537.76 Q1762.93 1534.15 1760.59 1532.04 Q1758.25 1529.94 1754.25 1529.94 Q1752.38 1529.94 1750.5 1530.35 Q1748.65 1530.77 1746.7 1531.65 L1746.7 1514.29 Z" fill="#000000" fill-rule="evenodd" fill-opacity="1" /><path clip-path="url(#clip320)" d="M1786.82 1517.37 Q1783.21 1517.37 1781.38 1520.93 Q1779.57 1524.47 1779.57 1531.6 Q1779.57 1538.71 1781.38 1542.27 Q1783.21 1545.82 1786.82 1545.82 Q1790.45 1545.82 1792.26 1542.27 Q1794.09 1538.71 1794.09 1531.6 Q1794.09 1524.47 1792.26 1520.93 Q1790.45 1517.37 1786.82 1517.37 M1786.82 1513.66 Q1792.63 1513.66 1795.68 1518.27 Q1798.76 1522.85 1798.76 1531.6 Q1798.76 1540.33 1795.68 1544.94 Q1792.63 1549.52 1786.82 1549.52 Q1781.01 1549.52 1777.93 1544.94 Q1774.87 1540.33 1774.87 1531.6 Q1774.87 1522.85 1777.93 1518.27 Q1781.01 1513.66 1786.82 1513.66 Z" fill="#000000" fill-rule="evenodd" fill-opacity="1" /><path clip-path="url(#clip320)" d="M1816.98 1517.37 Q1813.37 1517.37 1811.54 1520.93 Q1809.74 1524.47 1809.74 1531.6 Q1809.74 1538.71 1811.54 1542.27 Q1813.37 1545.82 1816.98 1545.82 Q1820.62 1545.82 1822.42 1542.27 Q1824.25 1538.71 1824.25 1531.6 Q1824.25 1524.47 1822.42 1520.93 Q1820.62 1517.37 1816.98 1517.37 M1816.98 1513.66 Q1822.79 1513.66 1825.85 1518.27 Q1828.93 1522.85 1828.93 1531.6 Q1828.93 1540.33 1825.85 1544.94 Q1822.79 1549.52 1816.98 1549.52 Q1811.17 1549.52 1808.09 1544.94 Q1805.04 1540.33 1805.04 1531.6 Q1805.04 1522.85 1808.09 1518.27 Q1811.17 1513.66 1816.98 1513.66 Z" fill="#000000" fill-rule="evenodd" fill-opacity="1" /><path clip-path="url(#clip320)" d="M2220.05 1544.91 L2227.68 1544.91 L2227.68 1518.55 L2219.37 1520.21 L2219.37 1515.95 L2227.64 1514.29 L2232.31 1514.29 L2232.31 1544.91 L2239.95 1544.91 L2239.95 1548.85 L2220.05 1548.85 L2220.05 1544.91 Z" fill="#000000" fill-rule="evenodd" fill-opacity="1" /><path clip-path="url(#clip320)" d="M2259.4 1517.37 Q2255.79 1517.37 2253.96 1520.93 Q2252.15 1524.47 2252.15 1531.6 Q2252.15 1538.71 2253.96 1542.27 Q2255.79 1545.82 2259.4 1545.82 Q2263.03 1545.82 2264.84 1542.27 Q2266.67 1538.71 2266.67 1531.6 Q2266.67 1524.47 2264.84 1520.93 Q2263.03 1517.37 2259.4 1517.37 M2259.4 1513.66 Q2265.21 1513.66 2268.26 1518.27 Q2271.34 1522.85 2271.34 1531.6 Q2271.34 1540.33 2268.26 1544.94 Q2265.21 1549.52 2259.4 1549.52 Q2253.59 1549.52 2250.51 1544.94 Q2247.45 1540.33 2247.45 1531.6 Q2247.45 1522.85 2250.51 1518.27 Q2253.59 1513.66 2259.4 1513.66 Z" fill="#000000" fill-rule="evenodd" fill-opacity="1" /><path clip-path="url(#clip320)" d="M2289.56 1517.37 Q2285.95 1517.37 2284.12 1520.93 Q2282.31 1524.47 2282.31 1531.6 Q2282.31 1538.71 2284.12 1542.27 Q2285.95 1545.82 2289.56 1545.82 Q2293.19 1545.82 2295 1542.27 Q2296.83 1538.71 2296.83 1531.6 Q2296.83 1524.47 2295 1520.93 Q2293.19 1517.37 2289.56 1517.37 M2289.56 1513.66 Q2295.37 1513.66 2298.42 1518.27 Q2301.5 1522.85 2301.5 1531.6 Q2301.5 1540.33 2298.42 1544.94 Q2295.37 1549.52 2289.56 1549.52 Q2283.75 1549.52 2280.67 1544.94 Q2277.61 1540.33 2277.61 1531.6 Q2277.61 1522.85 2280.67 1518.27 Q2283.75 1513.66 2289.56 1513.66 Z" fill="#000000" fill-rule="evenodd" fill-opacity="1" /><path clip-path="url(#clip320)" d="M2319.72 1517.37 Q2316.11 1517.37 2314.28 1520.93 Q2312.48 1524.47 2312.48 1531.6 Q2312.48 1538.71 2314.28 1542.27 Q2316.11 1545.82 2319.72 1545.82 Q2323.35 1545.82 2325.16 1542.27 Q2326.99 1538.71 2326.99 1531.6 Q2326.99 1524.47 2325.16 1520.93 Q2323.35 1517.37 2319.72 1517.37 M2319.72 1513.66 Q2325.53 1513.66 2328.59 1518.27 Q2331.67 1522.85 2331.67 1531.6 Q2331.67 1540.33 2328.59 1544.94 Q2325.53 1549.52 2319.72 1549.52 Q2313.91 1549.52 2310.83 1544.94 Q2307.78 1540.33 2307.78 1531.6 Q2307.78 1522.85 2310.83 1518.27 Q2313.91 1513.66 2319.72 1513.66 Z" fill="#000000" fill-rule="evenodd" fill-opacity="1" /><path clip-path="url(#clip320)" d="M2349.88 1517.37 Q2346.27 1517.37 2344.44 1520.93 Q2342.64 1524.47 2342.64 1531.6 Q2342.64 1538.71 2344.44 1542.27 Q2346.27 1545.82 2349.88 1545.82 Q2353.52 1545.82 2355.32 1542.27 Q2357.15 1538.71 2357.15 1531.6 Q2357.15 1524.47 2355.32 1520.93 Q2353.52 1517.37 2349.88 1517.37 M2349.88 1513.66 Q2355.69 1513.66 2358.75 1518.27 Q2361.83 1522.85 2361.83 1531.6 Q2361.83 1540.33 2358.75 1544.94 Q2355.69 1549.52 2349.88 1549.52 Q2344.07 1549.52 2340.99 1544.94 Q2337.94 1540.33 2337.94 1531.6 Q2337.94 1522.85 2340.99 1518.27 Q2344.07 1513.66 2349.88 1513.66 Z" fill="#000000" fill-rule="evenodd" fill-opacity="1" /><polyline clip-path="url(#clip322)" style="stroke:#000000; stroke-linecap:butt; stroke-linejoin:round; stroke-width:2; stroke-opacity:0.1; fill:none" points="
  156.598,1486.45 2352.76,1486.45 
  "/>
<polyline clip-path="url(#clip322)" style="stroke:#000000; stroke-linecap:butt; stroke-linejoin:round; stroke-width:2; stroke-opacity:0.1; fill:none" points="
  156.598,1213.85 2352.76,1213.85 
  "/>
<polyline clip-path="url(#clip322)" style="stroke:#000000; stroke-linecap:butt; stroke-linejoin:round; stroke-width:2; stroke-opacity:0.1; fill:none" points="
  156.598,941.258 2352.76,941.258 
  "/>
<polyline clip-path="url(#clip322)" style="stroke:#000000; stroke-linecap:butt; stroke-linejoin:round; stroke-width:2; stroke-opacity:0.1; fill:none" points="
  156.598,668.662 2352.76,668.662 
  "/>
<polyline clip-path="url(#clip322)" style="stroke:#000000; stroke-linecap:butt; stroke-linejoin:round; stroke-width:2; stroke-opacity:0.1; fill:none" points="
  156.598,396.067 2352.76,396.067 
  "/>
<polyline clip-path="url(#clip322)" style="stroke:#000000; stroke-linecap:butt; stroke-linejoin:round; stroke-width:2; stroke-opacity:0.1; fill:none" points="
  156.598,123.472 2352.76,123.472 
  "/>
<polyline clip-path="url(#clip320)" style="stroke:#000000; stroke-linecap:butt; stroke-linejoin:round; stroke-width:4; stroke-opacity:1; fill:none" points="
  156.598,1486.45 156.598,123.472 
  "/>
<polyline clip-path="url(#clip320)" style="stroke:#000000; stroke-linecap:butt; stroke-linejoin:round; stroke-width:4; stroke-opacity:1; fill:none" points="
  156.598,1486.45 175.496,1486.45 
  "/>
<polyline clip-path="url(#clip320)" style="stroke:#000000; stroke-linecap:butt; stroke-linejoin:round; stroke-width:4; stroke-opacity:1; fill:none" points="
  156.598,1213.85 175.496,1213.85 
  "/>
<polyline clip-path="url(#clip320)" style="stroke:#000000; stroke-linecap:butt; stroke-linejoin:round; stroke-width:4; stroke-opacity:1; fill:none" points="
  156.598,941.258 175.496,941.258 
  "/>
<polyline clip-path="url(#clip320)" style="stroke:#000000; stroke-linecap:butt; stroke-linejoin:round; stroke-width:4; stroke-opacity:1; fill:none" points="
  156.598,668.662 175.496,668.662 
  "/>
<polyline clip-path="url(#clip320)" style="stroke:#000000; stroke-linecap:butt; stroke-linejoin:round; stroke-width:4; stroke-opacity:1; fill:none" points="
  156.598,396.067 175.496,396.067 
  "/>
<polyline clip-path="url(#clip320)" style="stroke:#000000; stroke-linecap:butt; stroke-linejoin:round; stroke-width:4; stroke-opacity:1; fill:none" points="
  156.598,123.472 175.496,123.472 
  "/>
<path clip-path="url(#clip320)" d="M63.4226 1472.25 Q59.8115 1472.25 57.9828 1475.81 Q56.1773 1479.35 56.1773 1486.48 Q56.1773 1493.59 57.9828 1497.15 Q59.8115 1500.7 63.4226 1500.7 Q67.0569 1500.7 68.8624 1497.15 Q70.6911 1493.59 70.6911 1486.48 Q70.6911 1479.35 68.8624 1475.81 Q67.0569 1472.25 63.4226 1472.25 M63.4226 1468.54 Q69.2328 1468.54 72.2883 1473.15 Q75.367 1477.73 75.367 1486.48 Q75.367 1495.21 72.2883 1499.82 Q69.2328 1504.4 63.4226 1504.4 Q57.6125 1504.4 54.5338 1499.82 Q51.4782 1495.21 51.4782 1486.48 Q51.4782 1477.73 54.5338 1473.15 Q57.6125 1468.54 63.4226 1468.54 Z" fill="#000000" fill-rule="evenodd" fill-opacity="1" /><path clip-path="url(#clip320)" d="M83.5845 1497.85 L88.4688 1497.85 L88.4688 1503.73 L83.5845 1503.73 L83.5845 1497.85 Z" fill="#000000" fill-rule="evenodd" fill-opacity="1" /><path clip-path="url(#clip320)" d="M108.654 1472.25 Q105.043 1472.25 103.214 1475.81 Q101.409 1479.35 101.409 1486.48 Q101.409 1493.59 103.214 1497.15 Q105.043 1500.7 108.654 1500.7 Q112.288 1500.7 114.094 1497.15 Q115.922 1493.59 115.922 1486.48 Q115.922 1479.35 114.094 1475.81 Q112.288 1472.25 108.654 1472.25 M108.654 1468.54 Q114.464 1468.54 117.52 1473.15 Q120.598 1477.73 120.598 1486.48 Q120.598 1495.21 117.52 1499.82 Q114.464 1504.4 108.654 1504.4 Q102.844 1504.4 99.765 1499.82 Q96.7095 1495.21 96.7095 1486.48 Q96.7095 1477.73 99.765 1473.15 Q102.844 1468.54 108.654 1468.54 Z" fill="#000000" fill-rule="evenodd" fill-opacity="1" /><path clip-path="url(#clip320)" d="M65.0198 1199.65 Q61.4087 1199.65 59.58 1203.22 Q57.7745 1206.76 57.7745 1213.89 Q57.7745 1220.99 59.58 1224.56 Q61.4087 1228.1 65.0198 1228.1 Q68.6541 1228.1 70.4596 1224.56 Q72.2883 1220.99 72.2883 1213.89 Q72.2883 1206.76 70.4596 1203.22 Q68.6541 1199.65 65.0198 1199.65 M65.0198 1195.95 Q70.83 1195.95 73.8855 1200.55 Q76.9642 1205.14 76.9642 1213.89 Q76.9642 1222.61 73.8855 1227.22 Q70.83 1231.8 65.0198 1231.8 Q59.2097 1231.8 56.131 1227.22 Q53.0754 1222.61 53.0754 1213.89 Q53.0754 1205.14 56.131 1200.55 Q59.2097 1195.95 65.0198 1195.95 Z" fill="#000000" fill-rule="evenodd" fill-opacity="1" /><path clip-path="url(#clip320)" d="M85.1818 1225.25 L90.066 1225.25 L90.066 1231.13 L85.1818 1231.13 L85.1818 1225.25 Z" fill="#000000" fill-rule="evenodd" fill-opacity="1" /><path clip-path="url(#clip320)" d="M104.279 1227.2 L120.598 1227.2 L120.598 1231.13 L98.6539 1231.13 L98.6539 1227.2 Q101.316 1224.44 105.899 1219.81 Q110.506 1215.16 111.686 1213.82 Q113.932 1211.29 114.811 1209.56 Q115.714 1207.8 115.714 1206.11 Q115.714 1203.36 113.77 1201.62 Q111.848 1199.88 108.746 1199.88 Q106.547 1199.88 104.094 1200.65 Q101.663 1201.41 98.8854 1202.96 L98.8854 1198.24 Q101.709 1197.11 104.163 1196.53 Q106.617 1195.95 108.654 1195.95 Q114.024 1195.95 117.219 1198.63 Q120.413 1201.32 120.413 1205.81 Q120.413 1207.94 119.603 1209.86 Q118.816 1211.76 116.709 1214.35 Q116.131 1215.02 113.029 1218.24 Q109.927 1221.43 104.279 1227.2 Z" fill="#000000" fill-rule="evenodd" fill-opacity="1" /><path clip-path="url(#clip320)" d="M62.9365 927.056 Q59.3254 927.056 57.4967 930.621 Q55.6912 934.163 55.6912 941.292 Q55.6912 948.399 57.4967 951.964 Q59.3254 955.505 62.9365 955.505 Q66.5707 955.505 68.3763 951.964 Q70.205 948.399 70.205 941.292 Q70.205 934.163 68.3763 930.621 Q66.5707 927.056 62.9365 927.056 M62.9365 923.353 Q68.7467 923.353 71.8022 927.959 Q74.8809 932.542 74.8809 941.292 Q74.8809 950.019 71.8022 954.626 Q68.7467 959.209 62.9365 959.209 Q57.1264 959.209 54.0477 954.626 Q50.9921 950.019 50.9921 941.292 Q50.9921 932.542 54.0477 927.959 Q57.1264 923.353 62.9365 923.353 Z" fill="#000000" fill-rule="evenodd" fill-opacity="1" /><path clip-path="url(#clip320)" d="M83.0984 952.658 L87.9827 952.658 L87.9827 958.538 L83.0984 958.538 L83.0984 952.658 Z" fill="#000000" fill-rule="evenodd" fill-opacity="1" /><path clip-path="url(#clip320)" d="M111.015 928.052 L99.2095 946.501 L111.015 946.501 L111.015 928.052 M109.788 923.978 L115.668 923.978 L115.668 946.501 L120.598 946.501 L120.598 950.389 L115.668 950.389 L115.668 958.538 L111.015 958.538 L111.015 950.389 L95.4132 950.389 L95.4132 945.876 L109.788 923.978 Z" fill="#000000" fill-rule="evenodd" fill-opacity="1" /><path clip-path="url(#clip320)" d="M63.2606 654.461 Q59.6495 654.461 57.8208 658.026 Q56.0152 661.568 56.0152 668.697 Q56.0152 675.804 57.8208 679.368 Q59.6495 682.91 63.2606 682.91 Q66.8948 682.91 68.7004 679.368 Q70.5291 675.804 70.5291 668.697 Q70.5291 661.568 68.7004 658.026 Q66.8948 654.461 63.2606 654.461 M63.2606 650.757 Q69.0707 650.757 72.1263 655.364 Q75.205 659.947 75.205 668.697 Q75.205 677.424 72.1263 682.03 Q69.0707 686.614 63.2606 686.614 Q57.4504 686.614 54.3717 682.03 Q51.3162 677.424 51.3162 668.697 Q51.3162 659.947 54.3717 655.364 Q57.4504 650.757 63.2606 650.757 Z" fill="#000000" fill-rule="evenodd" fill-opacity="1" /><path clip-path="url(#clip320)" d="M83.4225 680.063 L88.3067 680.063 L88.3067 685.942 L83.4225 685.942 L83.4225 680.063 Z" fill="#000000" fill-rule="evenodd" fill-opacity="1" /><path clip-path="url(#clip320)" d="M109.071 666.799 Q105.922 666.799 104.071 668.952 Q102.242 671.105 102.242 674.855 Q102.242 678.581 104.071 680.757 Q105.922 682.91 109.071 682.91 Q112.219 682.91 114.047 680.757 Q115.899 678.581 115.899 674.855 Q115.899 671.105 114.047 668.952 Q112.219 666.799 109.071 666.799 M118.353 652.146 L118.353 656.406 Q116.594 655.572 114.788 655.132 Q113.006 654.693 111.246 654.693 Q106.617 654.693 104.163 657.818 Q101.733 660.943 101.385 667.262 Q102.751 665.248 104.811 664.183 Q106.871 663.095 109.348 663.095 Q114.557 663.095 117.566 666.267 Q120.598 669.415 120.598 674.855 Q120.598 680.179 117.45 683.396 Q114.302 686.614 109.071 686.614 Q103.075 686.614 99.9039 682.03 Q96.7326 677.424 96.7326 668.697 Q96.7326 660.503 100.621 655.642 Q104.51 650.757 111.061 650.757 Q112.82 650.757 114.603 651.105 Q116.408 651.452 118.353 652.146 Z" fill="#000000" fill-rule="evenodd" fill-opacity="1" /><path clip-path="url(#clip320)" d="M63.5152 381.866 Q59.9041 381.866 58.0754 385.431 Q56.2699 388.972 56.2699 396.102 Q56.2699 403.208 58.0754 406.773 Q59.9041 410.315 63.5152 410.315 Q67.1494 410.315 68.955 406.773 Q70.7837 403.208 70.7837 396.102 Q70.7837 388.972 68.955 385.431 Q67.1494 381.866 63.5152 381.866 M63.5152 378.162 Q69.3254 378.162 72.3809 382.769 Q75.4596 387.352 75.4596 396.102 Q75.4596 404.829 72.3809 409.435 Q69.3254 414.019 63.5152 414.019 Q57.7051 414.019 54.6264 409.435 Q51.5708 404.829 51.5708 396.102 Q51.5708 387.352 54.6264 382.769 Q57.7051 378.162 63.5152 378.162 Z" fill="#000000" fill-rule="evenodd" fill-opacity="1" /><path clip-path="url(#clip320)" d="M83.6771 407.468 L88.5614 407.468 L88.5614 413.347 L83.6771 413.347 L83.6771 407.468 Z" fill="#000000" fill-rule="evenodd" fill-opacity="1" /><path clip-path="url(#clip320)" d="M108.746 396.935 Q105.413 396.935 103.492 398.718 Q101.594 400.5 101.594 403.625 Q101.594 406.75 103.492 408.532 Q105.413 410.315 108.746 410.315 Q112.08 410.315 114.001 408.532 Q115.922 406.727 115.922 403.625 Q115.922 400.5 114.001 398.718 Q112.103 396.935 108.746 396.935 M104.071 394.945 Q101.061 394.204 99.3715 392.144 Q97.7048 390.084 97.7048 387.121 Q97.7048 382.977 100.645 380.57 Q103.608 378.162 108.746 378.162 Q113.908 378.162 116.848 380.57 Q119.788 382.977 119.788 387.121 Q119.788 390.084 118.098 392.144 Q116.432 394.204 113.445 394.945 Q116.825 395.732 118.7 398.023 Q120.598 400.315 120.598 403.625 Q120.598 408.648 117.52 411.333 Q114.464 414.019 108.746 414.019 Q103.029 414.019 99.9502 411.333 Q96.8947 408.648 96.8947 403.625 Q96.8947 400.315 98.7928 398.023 Q100.691 395.732 104.071 394.945 M102.358 387.56 Q102.358 390.246 104.024 391.75 Q105.714 393.255 108.746 393.255 Q111.756 393.255 113.445 391.75 Q115.158 390.246 115.158 387.56 Q115.158 384.875 113.445 383.371 Q111.756 381.866 108.746 381.866 Q105.714 381.866 104.024 383.371 Q102.358 384.875 102.358 387.56 Z" fill="#000000" fill-rule="evenodd" fill-opacity="1" /><path clip-path="url(#clip320)" d="M54.2328 136.817 L61.8717 136.817 L61.8717 110.451 L53.5616 112.118 L53.5616 107.859 L61.8254 106.192 L66.5013 106.192 L66.5013 136.817 L74.1402 136.817 L74.1402 140.752 L54.2328 140.752 L54.2328 136.817 Z" fill="#000000" fill-rule="evenodd" fill-opacity="1" /><path clip-path="url(#clip320)" d="M83.5845 134.873 L88.4688 134.873 L88.4688 140.752 L83.5845 140.752 L83.5845 134.873 Z" fill="#000000" fill-rule="evenodd" fill-opacity="1" /><path clip-path="url(#clip320)" d="M108.654 109.271 Q105.043 109.271 103.214 112.836 Q101.409 116.377 101.409 123.507 Q101.409 130.613 103.214 134.178 Q105.043 137.72 108.654 137.72 Q112.288 137.72 114.094 134.178 Q115.922 130.613 115.922 123.507 Q115.922 116.377 114.094 112.836 Q112.288 109.271 108.654 109.271 M108.654 105.567 Q114.464 105.567 117.52 110.174 Q120.598 114.757 120.598 123.507 Q120.598 132.234 117.52 136.84 Q114.464 141.423 108.654 141.423 Q102.844 141.423 99.765 136.84 Q96.7095 132.234 96.7095 123.507 Q96.7095 114.757 99.765 110.174 Q102.844 105.567 108.654 105.567 Z" fill="#000000" fill-rule="evenodd" fill-opacity="1" /><path clip-path="url(#clip320)" d="M813.331 34.4165 Q811.832 33.8899 810.333 33.4848 Q806.323 32.4315 802.029 32.4315 Q794.616 32.4315 790.484 36.4419 Q786.636 40.1688 785.906 47.0148 L813.331 47.0148 L813.331 52.8481 L785.906 52.8481 Q786.636 59.6941 790.484 63.421 Q794.616 67.4314 802.029 67.4314 Q807.214 67.4314 810.333 66.3781 L813.331 65.3654 L813.331 72.1304 L810.131 72.8596 Q805.918 73.7508 801.583 73.7508 Q790.727 73.7508 784.408 67.4314 Q778.048 61.1119 778.048 49.9314 Q778.048 38.7509 784.408 32.4315 Q790.727 26.1121 801.583 26.1121 Q805.675 26.1121 810.131 27.0033 Q811.751 27.3274 813.331 27.8135 L813.331 34.4165 Z" fill="#000000" fill-rule="evenodd" fill-opacity="1" /><path clip-path="url(#clip320)" d="M896.415 45.1919 L896.415 72.576 L888.961 72.576 L888.961 45.4349 Q888.961 38.994 886.45 35.7938 Q883.938 32.5936 878.915 32.5936 Q872.879 32.5936 869.396 36.4419 Q865.912 40.2903 865.912 46.9338 L865.912 72.576 L858.418 72.576 L858.418 27.2059 L865.912 27.2059 L865.912 34.2544 Q868.585 30.163 872.191 28.1376 Q875.837 26.1121 880.576 26.1121 Q888.394 26.1121 892.405 30.9732 Q896.415 35.7938 896.415 45.1919 Z" fill="#000000" fill-rule="evenodd" fill-opacity="1" /><path clip-path="url(#clip320)" d="M928.863 32.4315 Q922.868 32.4315 919.384 37.1306 Q915.9 41.7891 915.9 49.9314 Q915.9 58.0738 919.343 62.7728 Q922.827 67.4314 928.863 67.4314 Q934.818 67.4314 938.301 62.7323 Q941.785 58.0333 941.785 49.9314 Q941.785 41.8701 938.301 37.1711 Q934.818 32.4315 928.863 32.4315 M928.863 26.1121 Q938.585 26.1121 944.135 32.4315 Q949.684 38.7509 949.684 49.9314 Q949.684 61.0714 944.135 67.4314 Q938.585 73.7508 928.863 73.7508 Q919.1 73.7508 913.55 67.4314 Q908.041 61.0714 908.041 49.9314 Q908.041 38.7509 913.55 32.4315 Q919.1 26.1121 928.863 26.1121 Z" fill="#000000" fill-rule="evenodd" fill-opacity="1" /><path clip-path="url(#clip320)" d="M969.412 14.324 L969.412 27.2059 L984.765 27.2059 L984.765 32.9987 L969.412 32.9987 L969.412 57.6282 Q969.412 63.1779 970.911 64.7578 Q972.451 66.3376 977.109 66.3376 L984.765 66.3376 L984.765 72.576 L977.109 72.576 Q968.481 72.576 965.199 69.3758 Q961.918 66.1351 961.918 57.6282 L961.918 32.9987 L956.45 32.9987 L956.45 27.2059 L961.918 27.2059 L961.918 14.324 L969.412 14.324 Z" fill="#000000" fill-rule="evenodd" fill-opacity="1" /><path clip-path="url(#clip320)" d="M1028.15 65.7705 L1028.15 89.8329 L1020.66 89.8329 L1020.66 27.2059 L1028.15 27.2059 L1028.15 34.0924 Q1030.5 30.0415 1034.06 28.0971 Q1037.67 26.1121 1042.65 26.1121 Q1050.92 26.1121 1056.06 32.6746 Q1061.25 39.2371 1061.25 49.9314 Q1061.25 60.6258 1056.06 67.1883 Q1050.92 73.7508 1042.65 73.7508 Q1037.67 73.7508 1034.06 71.8063 Q1030.5 69.8214 1028.15 65.7705 M1053.51 49.9314 Q1053.51 41.7081 1050.11 37.0496 Q1046.74 32.3505 1040.83 32.3505 Q1034.92 32.3505 1031.51 37.0496 Q1028.15 41.7081 1028.15 49.9314 Q1028.15 58.1548 1031.51 62.8538 Q1034.92 67.5124 1040.83 67.5124 Q1046.74 67.5124 1050.11 62.8538 Q1053.51 58.1548 1053.51 49.9314 Z" fill="#000000" fill-rule="evenodd" fill-opacity="1" /><path clip-path="url(#clip320)" d="M1072.83 54.671 L1072.83 27.2059 L1080.29 27.2059 L1080.29 54.3874 Q1080.29 60.8284 1082.8 64.0691 Q1085.31 67.2693 1090.33 67.2693 Q1096.37 67.2693 1099.85 63.421 Q1103.38 59.5726 1103.38 52.9291 L1103.38 27.2059 L1110.83 27.2059 L1110.83 72.576 L1103.38 72.576 L1103.38 65.6084 Q1100.66 69.7404 1097.06 71.7658 Q1093.49 73.7508 1088.75 73.7508 Q1080.93 73.7508 1076.88 68.8897 Q1072.83 64.0286 1072.83 54.671 M1091.59 26.1121 L1091.59 26.1121 Z" fill="#000000" fill-rule="evenodd" fill-opacity="1" /><path clip-path="url(#clip320)" d="M1158.75 49.9314 Q1158.75 41.7081 1155.35 37.0496 Q1151.99 32.3505 1146.07 32.3505 Q1140.16 32.3505 1136.76 37.0496 Q1133.39 41.7081 1133.39 49.9314 Q1133.39 58.1548 1136.76 62.8538 Q1140.16 67.5124 1146.07 67.5124 Q1151.99 67.5124 1155.35 62.8538 Q1158.75 58.1548 1158.75 49.9314 M1133.39 34.0924 Q1135.74 30.0415 1139.31 28.0971 Q1142.91 26.1121 1147.9 26.1121 Q1156.16 26.1121 1161.3 32.6746 Q1166.49 39.2371 1166.49 49.9314 Q1166.49 60.6258 1161.3 67.1883 Q1156.16 73.7508 1147.9 73.7508 Q1142.91 73.7508 1139.31 71.8063 Q1135.74 69.8214 1133.39 65.7705 L1133.39 72.576 L1125.9 72.576 L1125.9 9.54393 L1133.39 9.54393 L1133.39 34.0924 Z" fill="#000000" fill-rule="evenodd" fill-opacity="1" /><path clip-path="url(#clip320)" d="M1178.84 9.54393 L1186.3 9.54393 L1186.3 72.576 L1178.84 72.576 L1178.84 9.54393 Z" fill="#000000" fill-rule="evenodd" fill-opacity="1" /><path clip-path="url(#clip320)" d="M1201.89 27.2059 L1209.35 27.2059 L1209.35 72.576 L1201.89 72.576 L1201.89 27.2059 M1201.89 9.54393 L1209.35 9.54393 L1209.35 18.9825 L1201.89 18.9825 L1201.89 9.54393 Z" fill="#000000" fill-rule="evenodd" fill-opacity="1" /><path clip-path="url(#clip320)" d="M1257.59 28.9478 L1257.59 35.9153 Q1254.43 34.1734 1251.23 33.3227 Q1248.07 32.4315 1244.83 32.4315 Q1237.58 32.4315 1233.57 37.0496 Q1229.56 41.6271 1229.56 49.9314 Q1229.56 58.2358 1233.57 62.8538 Q1237.58 67.4314 1244.83 67.4314 Q1248.07 67.4314 1251.23 66.5807 Q1254.43 65.6895 1257.59 63.9476 L1257.59 70.8341 Q1254.47 72.2924 1251.11 73.0216 Q1247.79 73.7508 1244.02 73.7508 Q1233.77 73.7508 1227.74 67.3098 Q1221.7 60.8689 1221.7 49.9314 Q1221.7 38.832 1227.78 32.472 Q1233.9 26.1121 1244.51 26.1121 Q1247.95 26.1121 1251.23 26.8413 Q1254.52 27.5299 1257.59 28.9478 Z" fill="#000000" fill-rule="evenodd" fill-opacity="1" /><path clip-path="url(#clip320)" d="M1270.56 9.54393 L1278.01 9.54393 L1278.01 72.576 L1270.56 72.576 L1270.56 9.54393 Z" fill="#000000" fill-rule="evenodd" fill-opacity="1" /><path clip-path="url(#clip320)" d="M1312.48 76.7889 Q1309.32 84.8907 1306.33 87.3618 Q1303.33 89.8329 1298.31 89.8329 L1292.35 89.8329 L1292.35 83.5945 L1296.73 83.5945 Q1299.8 83.5945 1301.51 82.1361 Q1303.21 80.6778 1305.27 75.2496 L1306.61 71.8468 L1288.26 27.2059 L1296.16 27.2059 L1310.34 62.6918 L1324.51 27.2059 L1332.41 27.2059 L1312.48 76.7889 Z" fill="#000000" fill-rule="evenodd" fill-opacity="1" /><path clip-path="url(#clip320)" d="M1389.69 49.7694 Q1380.66 49.7694 1377.18 51.8354 Q1373.69 53.9013 1373.69 58.8839 Q1373.69 62.8538 1376.29 65.2034 Q1378.92 67.5124 1383.41 67.5124 Q1389.61 67.5124 1393.34 63.1374 Q1397.11 58.7219 1397.11 51.4303 L1397.11 49.7694 L1389.69 49.7694 M1404.56 46.6907 L1404.56 72.576 L1397.11 72.576 L1397.11 65.6895 Q1394.55 69.8214 1390.75 71.8063 Q1386.94 73.7508 1381.43 73.7508 Q1374.46 73.7508 1370.33 69.8619 Q1366.24 65.9325 1366.24 59.3701 Q1366.24 51.7138 1371.34 47.825 Q1376.49 43.9361 1386.66 43.9361 L1397.11 43.9361 L1397.11 43.2069 Q1397.11 38.0623 1393.7 35.2672 Q1390.34 32.4315 1384.22 32.4315 Q1380.34 32.4315 1376.65 33.3632 Q1372.96 34.295 1369.56 36.1584 L1369.56 29.2718 Q1373.65 27.692 1377.5 26.9223 Q1381.35 26.1121 1384.99 26.1121 Q1394.84 26.1121 1399.7 31.2163 Q1404.56 36.3204 1404.56 46.6907 Z" fill="#000000" fill-rule="evenodd" fill-opacity="1" /><path clip-path="url(#clip320)" d="M1414.57 27.2059 L1422.47 27.2059 L1436.64 65.2844 L1450.82 27.2059 L1458.72 27.2059 L1441.71 72.576 L1431.58 72.576 L1414.57 27.2059 Z" fill="#000000" fill-rule="evenodd" fill-opacity="1" /><path clip-path="url(#clip320)" d="M1489.63 49.7694 Q1480.6 49.7694 1477.11 51.8354 Q1473.63 53.9013 1473.63 58.8839 Q1473.63 62.8538 1476.22 65.2034 Q1478.85 67.5124 1483.35 67.5124 Q1489.55 67.5124 1493.28 63.1374 Q1497.04 58.7219 1497.04 51.4303 L1497.04 49.7694 L1489.63 49.7694 M1504.5 46.6907 L1504.5 72.576 L1497.04 72.576 L1497.04 65.6895 Q1494.49 69.8214 1490.68 71.8063 Q1486.87 73.7508 1481.37 73.7508 Q1474.4 73.7508 1470.27 69.8619 Q1466.17 65.9325 1466.17 59.3701 Q1466.17 51.7138 1471.28 47.825 Q1476.42 43.9361 1486.59 43.9361 L1497.04 43.9361 L1497.04 43.2069 Q1497.04 38.0623 1493.64 35.2672 Q1490.28 32.4315 1484.16 32.4315 Q1480.27 32.4315 1476.59 33.3632 Q1472.9 34.295 1469.5 36.1584 L1469.5 29.2718 Q1473.59 27.692 1477.44 26.9223 Q1481.28 26.1121 1484.93 26.1121 Q1494.77 26.1121 1499.64 31.2163 Q1504.5 36.3204 1504.5 46.6907 Z" fill="#000000" fill-rule="evenodd" fill-opacity="1" /><path clip-path="url(#clip320)" d="M1519.85 27.2059 L1527.3 27.2059 L1527.3 72.576 L1519.85 72.576 L1519.85 27.2059 M1519.85 9.54393 L1527.3 9.54393 L1527.3 18.9825 L1519.85 18.9825 L1519.85 9.54393 Z" fill="#000000" fill-rule="evenodd" fill-opacity="1" /><path clip-path="url(#clip320)" d="M1542.9 9.54393 L1550.35 9.54393 L1550.35 72.576 L1542.9 72.576 L1542.9 9.54393 Z" fill="#000000" fill-rule="evenodd" fill-opacity="1" /><path clip-path="url(#clip320)" d="M1586.57 49.7694 Q1577.53 49.7694 1574.05 51.8354 Q1570.57 53.9013 1570.57 58.8839 Q1570.57 62.8538 1573.16 65.2034 Q1575.79 67.5124 1580.29 67.5124 Q1586.49 67.5124 1590.21 63.1374 Q1593.98 58.7219 1593.98 51.4303 L1593.98 49.7694 L1586.57 49.7694 M1601.43 46.6907 L1601.43 72.576 L1593.98 72.576 L1593.98 65.6895 Q1591.43 69.8214 1587.62 71.8063 Q1583.81 73.7508 1578.3 73.7508 Q1571.34 73.7508 1567.2 69.8619 Q1563.11 65.9325 1563.11 59.3701 Q1563.11 51.7138 1568.22 47.825 Q1573.36 43.9361 1583.53 43.9361 L1593.98 43.9361 L1593.98 43.2069 Q1593.98 38.0623 1590.58 35.2672 Q1587.22 32.4315 1581.1 32.4315 Q1577.21 32.4315 1573.52 33.3632 Q1569.84 34.295 1566.43 36.1584 L1566.43 29.2718 Q1570.53 27.692 1574.37 26.9223 Q1578.22 26.1121 1581.87 26.1121 Q1591.71 26.1121 1596.57 31.2163 Q1601.43 36.3204 1601.43 46.6907 Z" fill="#000000" fill-rule="evenodd" fill-opacity="1" /><path clip-path="url(#clip320)" d="M1649.36 49.9314 Q1649.36 41.7081 1645.95 37.0496 Q1642.59 32.3505 1636.68 32.3505 Q1630.76 32.3505 1627.36 37.0496 Q1624 41.7081 1624 49.9314 Q1624 58.1548 1627.36 62.8538 Q1630.76 67.5124 1636.68 67.5124 Q1642.59 67.5124 1645.95 62.8538 Q1649.36 58.1548 1649.36 49.9314 M1624 34.0924 Q1626.35 30.0415 1629.91 28.0971 Q1633.52 26.1121 1638.5 26.1121 Q1646.76 26.1121 1651.91 32.6746 Q1657.09 39.2371 1657.09 49.9314 Q1657.09 60.6258 1651.91 67.1883 Q1646.76 73.7508 1638.5 73.7508 Q1633.52 73.7508 1629.91 71.8063 Q1626.35 69.8214 1624 65.7705 L1624 72.576 L1616.5 72.576 L1616.5 9.54393 L1624 9.54393 L1624 34.0924 Z" fill="#000000" fill-rule="evenodd" fill-opacity="1" /><path clip-path="url(#clip320)" d="M1669.45 9.54393 L1676.9 9.54393 L1676.9 72.576 L1669.45 72.576 L1669.45 9.54393 Z" fill="#000000" fill-rule="evenodd" fill-opacity="1" /><path clip-path="url(#clip320)" d="M1731.31 48.0275 L1731.31 51.6733 L1697.04 51.6733 Q1697.52 59.3701 1701.65 63.421 Q1705.83 67.4314 1713.24 67.4314 Q1717.53 67.4314 1721.54 66.3781 Q1725.59 65.3249 1729.56 63.2184 L1729.56 70.267 Q1725.55 71.9684 1721.34 72.8596 Q1717.13 73.7508 1712.79 73.7508 Q1701.94 73.7508 1695.58 67.4314 Q1689.26 61.1119 1689.26 50.3365 Q1689.26 39.1965 1695.25 32.6746 Q1701.29 26.1121 1711.5 26.1121 Q1720.65 26.1121 1725.96 32.0264 Q1731.31 37.9003 1731.31 48.0275 M1723.85 45.84 Q1723.77 39.7232 1720.41 36.0774 Q1717.09 32.4315 1711.58 32.4315 Q1705.34 32.4315 1701.57 35.9558 Q1697.85 39.4801 1697.28 45.8805 L1723.85 45.84 Z" fill="#000000" fill-rule="evenodd" fill-opacity="1" /><polyline clip-path="url(#clip322)" style="stroke:#009af9; stroke-linecap:butt; stroke-linejoin:round; stroke-width:12; stroke-opacity:1; fill:none" points="
  218.754,728.643 221.865,989.661 227.049,1054.82 237.419,984.444 258.158,640.695 299.637,250.224 382.593,505.056 631.464,709.002 1253.64,934.921 2290.6,986.773 
  
  "/>
<path clip-path="url(#clip322)" d="M218.754 744.643 L207.442 739.955 L202.754 728.643 L207.442 717.331 L218.754 712.643 L230.066 717.331 L234.754 728.643 L230.066 739.955 Z" fill="#009af9" fill-rule="evenodd" fill-opacity="1" stroke="#000000" stroke-opacity="1" stroke-width="3.2"/>
<path clip-path="url(#clip322)" d="M221.865 1005.66 L210.553 1000.97 L205.865 989.661 L210.553 978.349 L221.865 973.661 L233.177 978.349 L237.865 989.661 L233.177 1000.97 Z" fill="#009af9" fill-rule="evenodd" fill-opacity="1" stroke="#000000" stroke-opacity="1" stroke-width="3.2"/>
<path clip-path="url(#clip322)" d="M227.049 1070.82 L215.737 1066.13 L211.049 1054.82 L215.737 1043.51 L227.049 1038.82 L238.361 1043.51 L243.049 1054.82 L238.361 1066.13 Z" fill="#009af9" fill-rule="evenodd" fill-opacity="1" stroke="#000000" stroke-opacity="1" stroke-width="3.2"/>
<path clip-path="url(#clip322)" d="M237.419 1000.44 L226.107 995.756 L221.419 984.444 L226.107 973.132 L237.419 968.444 L248.731 973.132 L253.419 984.444 L248.731 995.756 Z" fill="#009af9" fill-rule="evenodd" fill-opacity="1" stroke="#000000" stroke-opacity="1" stroke-width="3.2"/>
<path clip-path="url(#clip322)" d="M258.158 656.695 L246.846 652.007 L242.158 640.695 L246.846 629.383 L258.158 624.695 L269.47 629.383 L274.158 640.695 L269.47 652.007 Z" fill="#009af9" fill-rule="evenodd" fill-opacity="1" stroke="#000000" stroke-opacity="1" stroke-width="3.2"/>
<path clip-path="url(#clip322)" d="M299.637 266.224 L288.325 261.536 L283.637 250.224 L288.325 238.912 L299.637 234.224 L310.949 238.912 L315.637 250.224 L310.949 261.536 Z" fill="#009af9" fill-rule="evenodd" fill-opacity="1" stroke="#000000" stroke-opacity="1" stroke-width="3.2"/>
<path clip-path="url(#clip322)" d="M382.593 521.056 L371.281 516.368 L366.593 505.056 L371.281 493.744 L382.593 489.056 L393.905 493.744 L398.593 505.056 L393.905 516.368 Z" fill="#009af9" fill-rule="evenodd" fill-opacity="1" stroke="#000000" stroke-opacity="1" stroke-width="3.2"/>
<path clip-path="url(#clip322)" d="M631.464 725.002 L620.152 720.314 L615.464 709.002 L620.152 697.69 L631.464 693.002 L642.776 697.69 L647.464 709.002 L642.776 720.314 Z" fill="#009af9" fill-rule="evenodd" fill-opacity="1" stroke="#000000" stroke-opacity="1" stroke-width="3.2"/>
<path clip-path="url(#clip322)" d="M1253.64 950.921 L1242.33 946.233 L1237.64 934.921 L1242.33 923.609 L1253.64 918.921 L1264.95 923.609 L1269.64 934.921 L1264.95 946.233 Z" fill="#009af9" fill-rule="evenodd" fill-opacity="1" stroke="#000000" stroke-opacity="1" stroke-width="3.2"/>
<path clip-path="url(#clip322)" d="M2290.6 1002.77 L2279.29 998.085 L2274.6 986.773 L2279.29 975.461 L2290.6 970.773 L2301.91 975.461 L2306.6 986.773 L2301.91 998.085 Z" fill="#009af9" fill-rule="evenodd" fill-opacity="1" stroke="#000000" stroke-opacity="1" stroke-width="3.2"/>
<polyline clip-path="url(#clip322)" style="stroke:#e26f46; stroke-linecap:butt; stroke-linejoin:round; stroke-width:12; stroke-opacity:1; fill:none" points="
  218.754,905.553 221.865,1138.94 227.049,1115.85 237.419,1086.88 258.158,1011.47 299.637,1084.09 382.593,984.978 631.464,1169.97 1253.64,1141.26 2290.6,1205.57 
  
  "/>
<path clip-path="url(#clip322)" d="M218.754 921.553 L207.442 916.865 L202.754 905.553 L207.442 894.241 L218.754 889.553 L230.066 894.241 L234.754 905.553 L230.066 916.865 Z" fill="#e26f46" fill-rule="evenodd" fill-opacity="1" stroke="#000000" stroke-opacity="1" stroke-width="3.2"/>
<path clip-path="url(#clip322)" d="M221.865 1154.94 L210.553 1150.25 L205.865 1138.94 L210.553 1127.62 L221.865 1122.94 L233.177 1127.62 L237.865 1138.94 L233.177 1150.25 Z" fill="#e26f46" fill-rule="evenodd" fill-opacity="1" stroke="#000000" stroke-opacity="1" stroke-width="3.2"/>
<path clip-path="url(#clip322)" d="M227.049 1131.85 L215.737 1127.16 L211.049 1115.85 L215.737 1104.54 L227.049 1099.85 L238.361 1104.54 L243.049 1115.85 L238.361 1127.16 Z" fill="#e26f46" fill-rule="evenodd" fill-opacity="1" stroke="#000000" stroke-opacity="1" stroke-width="3.2"/>
<path clip-path="url(#clip322)" d="M237.419 1102.88 L226.107 1098.19 L221.419 1086.88 L226.107 1075.56 L237.419 1070.88 L248.731 1075.56 L253.419 1086.88 L248.731 1098.19 Z" fill="#e26f46" fill-rule="evenodd" fill-opacity="1" stroke="#000000" stroke-opacity="1" stroke-width="3.2"/>
<path clip-path="url(#clip322)" d="M258.158 1027.47 L246.846 1022.78 L242.158 1011.47 L246.846 1000.16 L258.158 995.472 L269.47 1000.16 L274.158 1011.47 L269.47 1022.78 Z" fill="#e26f46" fill-rule="evenodd" fill-opacity="1" stroke="#000000" stroke-opacity="1" stroke-width="3.2"/>
<path clip-path="url(#clip322)" d="M299.637 1100.09 L288.325 1095.4 L283.637 1084.09 L288.325 1072.78 L299.637 1068.09 L310.949 1072.78 L315.637 1084.09 L310.949 1095.4 Z" fill="#e26f46" fill-rule="evenodd" fill-opacity="1" stroke="#000000" stroke-opacity="1" stroke-width="3.2"/>
<path clip-path="url(#clip322)" d="M382.593 1000.98 L371.281 996.29 L366.593 984.978 L371.281 973.666 L382.593 968.978 L393.905 973.666 L398.593 984.978 L393.905 996.29 Z" fill="#e26f46" fill-rule="evenodd" fill-opacity="1" stroke="#000000" stroke-opacity="1" stroke-width="3.2"/>
<path clip-path="url(#clip322)" d="M631.464 1185.97 L620.152 1181.29 L615.464 1169.97 L620.152 1158.66 L631.464 1153.97 L642.776 1158.66 L647.464 1169.97 L642.776 1181.29 Z" fill="#e26f46" fill-rule="evenodd" fill-opacity="1" stroke="#000000" stroke-opacity="1" stroke-width="3.2"/>
<path clip-path="url(#clip322)" d="M1253.64 1157.26 L1242.33 1152.57 L1237.64 1141.26 L1242.33 1129.95 L1253.64 1125.26 L1264.95 1129.95 L1269.64 1141.26 L1264.95 1152.57 Z" fill="#e26f46" fill-rule="evenodd" fill-opacity="1" stroke="#000000" stroke-opacity="1" stroke-width="3.2"/>
<path clip-path="url(#clip322)" d="M2290.6 1221.57 L2279.29 1216.88 L2274.6 1205.57 L2279.29 1194.26 L2290.6 1189.57 L2301.91 1194.26 L2306.6 1205.57 L2301.91 1216.88 Z" fill="#e26f46" fill-rule="evenodd" fill-opacity="1" stroke="#000000" stroke-opacity="1" stroke-width="3.2"/>
<polyline clip-path="url(#clip322)" style="stroke:#3da44d; stroke-linecap:butt; stroke-linejoin:round; stroke-width:12; stroke-opacity:1; fill:none" points="
  218.754,1359.6 221.865,1279.12 227.049,1335.35 237.419,1285.55 258.158,1296.41 299.637,1077.46 382.593,1371.49 631.464,1289.63 1253.64,1385.61 2290.6,1362.98 
  
  "/>
<path clip-path="url(#clip322)" d="M218.754 1375.6 L207.442 1370.92 L202.754 1359.6 L207.442 1348.29 L218.754 1343.6 L230.066 1348.29 L234.754 1359.6 L230.066 1370.92 Z" fill="#3da44d" fill-rule="evenodd" fill-opacity="1" stroke="#000000" stroke-opacity="1" stroke-width="3.2"/>
<path clip-path="url(#clip322)" d="M221.865 1295.12 L210.553 1290.43 L205.865 1279.12 L210.553 1267.8 L221.865 1263.12 L233.177 1267.8 L237.865 1279.12 L233.177 1290.43 Z" fill="#3da44d" fill-rule="evenodd" fill-opacity="1" stroke="#000000" stroke-opacity="1" stroke-width="3.2"/>
<path clip-path="url(#clip322)" d="M227.049 1351.35 L215.737 1346.66 L211.049 1335.35 L215.737 1324.03 L227.049 1319.35 L238.361 1324.03 L243.049 1335.35 L238.361 1346.66 Z" fill="#3da44d" fill-rule="evenodd" fill-opacity="1" stroke="#000000" stroke-opacity="1" stroke-width="3.2"/>
<path clip-path="url(#clip322)" d="M237.419 1301.55 L226.107 1296.87 L221.419 1285.55 L226.107 1274.24 L237.419 1269.55 L248.731 1274.24 L253.419 1285.55 L248.731 1296.87 Z" fill="#3da44d" fill-rule="evenodd" fill-opacity="1" stroke="#000000" stroke-opacity="1" stroke-width="3.2"/>
<path clip-path="url(#clip322)" d="M258.158 1312.41 L246.846 1307.72 L242.158 1296.41 L246.846 1285.09 L258.158 1280.41 L269.47 1285.09 L274.158 1296.41 L269.47 1307.72 Z" fill="#3da44d" fill-rule="evenodd" fill-opacity="1" stroke="#000000" stroke-opacity="1" stroke-width="3.2"/>
<path clip-path="url(#clip322)" d="M299.637 1093.46 L288.325 1088.77 L283.637 1077.46 L288.325 1066.15 L299.637 1061.46 L310.949 1066.15 L315.637 1077.46 L310.949 1088.77 Z" fill="#3da44d" fill-rule="evenodd" fill-opacity="1" stroke="#000000" stroke-opacity="1" stroke-width="3.2"/>
<path clip-path="url(#clip322)" d="M382.593 1387.49 L371.281 1382.8 L366.593 1371.49 L371.281 1360.18 L382.593 1355.49 L393.905 1360.18 L398.593 1371.49 L393.905 1382.8 Z" fill="#3da44d" fill-rule="evenodd" fill-opacity="1" stroke="#000000" stroke-opacity="1" stroke-width="3.2"/>
<path clip-path="url(#clip322)" d="M631.464 1305.63 L620.152 1300.94 L615.464 1289.63 L620.152 1278.32 L631.464 1273.63 L642.776 1278.32 L647.464 1289.63 L642.776 1300.94 Z" fill="#3da44d" fill-rule="evenodd" fill-opacity="1" stroke="#000000" stroke-opacity="1" stroke-width="3.2"/>
<path clip-path="url(#clip322)" d="M1253.64 1401.61 L1242.33 1396.92 L1237.64 1385.61 L1242.33 1374.29 L1253.64 1369.61 L1264.95 1374.29 L1269.64 1385.61 L1264.95 1396.92 Z" fill="#3da44d" fill-rule="evenodd" fill-opacity="1" stroke="#000000" stroke-opacity="1" stroke-width="3.2"/>
<path clip-path="url(#clip322)" d="M2290.6 1378.98 L2279.29 1374.29 L2274.6 1362.98 L2279.29 1351.66 L2290.6 1346.98 L2301.91 1351.66 L2306.6 1362.98 L2301.91 1374.29 Z" fill="#3da44d" fill-rule="evenodd" fill-opacity="1" stroke="#000000" stroke-opacity="1" stroke-width="3.2"/>
<path clip-path="url(#clip320)" d="
M1943.24 376.265 L2279.55 376.265 L2279.55 168.905 L1943.24 168.905  Z
  " fill="#ffffff" fill-rule="evenodd" fill-opacity="1"/>
<polyline clip-path="url(#clip320)" style="stroke:#000000; stroke-linecap:butt; stroke-linejoin:round; stroke-width:4; stroke-opacity:1; fill:none" points="
  1943.24,376.265 2279.55,376.265 2279.55,168.905 1943.24,168.905 1943.24,376.265 
  "/>
<polyline clip-path="url(#clip320)" style="stroke:#009af9; stroke-linecap:butt; stroke-linejoin:round; stroke-width:4; stroke-opacity:1; fill:none" points="
  1967.64,220.745 2114.05,220.745 
  "/>
<path clip-path="url(#clip320)" d="M2040.85 246.345 L2022.75 238.844 L2015.25 220.745 L2022.75 202.645 L2040.85 195.145 L2058.95 202.645 L2066.45 220.745 L2058.95 238.844 Z" fill="#009af9" fill-rule="evenodd" fill-opacity="1" stroke="#000000" stroke-opacity="1" stroke-width="5.12"/>
<path clip-path="url(#clip320)" d="M2158.62 216.219 Q2157.76 215.918 2156.9 215.687 Q2154.61 215.085 2152.16 215.085 Q2147.92 215.085 2145.56 217.377 Q2143.36 219.506 2142.95 223.418 L2158.62 223.418 L2158.62 226.752 L2142.95 226.752 Q2143.36 230.664 2145.56 232.793 Q2147.92 235.085 2152.16 235.085 Q2155.12 235.085 2156.9 234.483 L2158.62 233.904 L2158.62 237.77 L2156.79 238.187 Q2154.38 238.696 2151.9 238.696 Q2145.7 238.696 2142.09 235.085 Q2138.46 231.474 2138.46 225.085 Q2138.46 218.696 2142.09 215.085 Q2145.7 211.474 2151.9 211.474 Q2154.24 211.474 2156.79 211.983 Q2157.72 212.168 2158.62 212.446 L2158.62 216.219 Z" fill="#000000" fill-rule="evenodd" fill-opacity="1" /><path clip-path="url(#clip320)" d="M2170.03 216.497 L2199.71 216.497 L2199.71 220.386 L2170.03 220.386 L2170.03 216.497 M2170.03 225.941 L2199.71 225.941 L2199.71 229.877 L2170.03 229.877 L2170.03 225.941 Z" fill="#000000" fill-rule="evenodd" fill-opacity="1" /><path clip-path="url(#clip320)" d="M2210.61 234.089 L2218.25 234.089 L2218.25 207.724 L2209.94 209.391 L2209.94 205.131 L2218.2 203.465 L2222.88 203.465 L2222.88 234.089 L2230.52 234.089 L2230.52 238.025 L2210.61 238.025 L2210.61 234.089 Z" fill="#000000" fill-rule="evenodd" fill-opacity="1" /><polyline clip-path="url(#clip320)" style="stroke:#e26f46; stroke-linecap:butt; stroke-linejoin:round; stroke-width:4; stroke-opacity:1; fill:none" points="
  1967.64,272.585 2114.05,272.585 
  "/>
<path clip-path="url(#clip320)" d="M2040.85 298.185 L2022.75 290.684 L2015.25 272.585 L2022.75 254.485 L2040.85 246.985 L2058.95 254.485 L2066.45 272.585 L2058.95 290.684 Z" fill="#e26f46" fill-rule="evenodd" fill-opacity="1" stroke="#000000" stroke-opacity="1" stroke-width="5.12"/>
<path clip-path="url(#clip320)" d="M2158.62 268.059 Q2157.76 267.758 2156.9 267.527 Q2154.61 266.925 2152.16 266.925 Q2147.92 266.925 2145.56 269.217 Q2143.36 271.346 2142.95 275.258 L2158.62 275.258 L2158.62 278.592 L2142.95 278.592 Q2143.36 282.504 2145.56 284.633 Q2147.92 286.925 2152.16 286.925 Q2155.12 286.925 2156.9 286.323 L2158.62 285.744 L2158.62 289.61 L2156.79 290.027 Q2154.38 290.536 2151.9 290.536 Q2145.7 290.536 2142.09 286.925 Q2138.46 283.314 2138.46 276.925 Q2138.46 270.536 2142.09 266.925 Q2145.7 263.314 2151.9 263.314 Q2154.24 263.314 2156.79 263.823 Q2157.72 264.008 2158.62 264.286 L2158.62 268.059 Z" fill="#000000" fill-rule="evenodd" fill-opacity="1" /><path clip-path="url(#clip320)" d="M2170.03 268.337 L2199.71 268.337 L2199.71 272.226 L2170.03 272.226 L2170.03 268.337 M2170.03 277.781 L2199.71 277.781 L2199.71 281.717 L2170.03 281.717 L2170.03 277.781 Z" fill="#000000" fill-rule="evenodd" fill-opacity="1" /><path clip-path="url(#clip320)" d="M2213.83 285.929 L2230.15 285.929 L2230.15 289.865 L2208.2 289.865 L2208.2 285.929 Q2210.86 283.175 2215.45 278.545 Q2220.05 273.893 2221.23 272.55 Q2223.48 270.027 2224.36 268.291 Q2225.26 266.531 2225.26 264.842 Q2225.26 262.087 2223.32 260.351 Q2221.4 258.615 2218.29 258.615 Q2216.09 258.615 2213.64 259.379 Q2211.21 260.143 2208.43 261.694 L2208.43 256.971 Q2211.26 255.837 2213.71 255.258 Q2216.16 254.68 2218.2 254.68 Q2223.57 254.68 2226.77 257.365 Q2229.96 260.05 2229.96 264.541 Q2229.96 266.67 2229.15 268.592 Q2228.36 270.49 2226.26 273.082 Q2225.68 273.754 2222.58 276.971 Q2219.47 280.166 2213.83 285.929 Z" fill="#000000" fill-rule="evenodd" fill-opacity="1" /><polyline clip-path="url(#clip320)" style="stroke:#3da44d; stroke-linecap:butt; stroke-linejoin:round; stroke-width:4; stroke-opacity:1; fill:none" points="
  1967.64,324.425 2114.05,324.425 
  "/>
<path clip-path="url(#clip320)" d="M2040.85 350.025 L2022.75 342.524 L2015.25 324.425 L2022.75 306.325 L2040.85 298.825 L2058.95 306.325 L2066.45 324.425 L2058.95 342.524 Z" fill="#3da44d" fill-rule="evenodd" fill-opacity="1" stroke="#000000" stroke-opacity="1" stroke-width="5.12"/>
<path clip-path="url(#clip320)" d="M2158.62 319.899 Q2157.76 319.598 2156.9 319.367 Q2154.61 318.765 2152.16 318.765 Q2147.92 318.765 2145.56 321.057 Q2143.36 323.186 2142.95 327.098 L2158.62 327.098 L2158.62 330.432 L2142.95 330.432 Q2143.36 334.344 2145.56 336.473 Q2147.92 338.765 2152.16 338.765 Q2155.12 338.765 2156.9 338.163 L2158.62 337.584 L2158.62 341.45 L2156.79 341.867 Q2154.38 342.376 2151.9 342.376 Q2145.7 342.376 2142.09 338.765 Q2138.46 335.154 2138.46 328.765 Q2138.46 322.376 2142.09 318.765 Q2145.7 315.154 2151.9 315.154 Q2154.24 315.154 2156.79 315.663 Q2157.72 315.848 2158.62 316.126 L2158.62 319.899 Z" fill="#000000" fill-rule="evenodd" fill-opacity="1" /><path clip-path="url(#clip320)" d="M2170.03 320.177 L2199.71 320.177 L2199.71 324.066 L2170.03 324.066 L2170.03 320.177 M2170.03 329.621 L2199.71 329.621 L2199.71 333.557 L2170.03 333.557 L2170.03 329.621 Z" fill="#000000" fill-rule="evenodd" fill-opacity="1" /><path clip-path="url(#clip320)" d="M2209.84 307.145 L2228.2 307.145 L2228.2 311.08 L2214.13 311.08 L2214.13 319.552 Q2215.15 319.205 2216.16 319.043 Q2217.18 318.858 2218.2 318.858 Q2223.99 318.858 2227.37 322.029 Q2230.75 325.2 2230.75 330.617 Q2230.75 336.195 2227.27 339.297 Q2223.8 342.376 2217.48 342.376 Q2215.31 342.376 2213.04 342.006 Q2210.79 341.635 2208.39 340.894 L2208.39 336.195 Q2210.47 337.33 2212.69 337.885 Q2214.91 338.441 2217.39 338.441 Q2221.4 338.441 2223.73 336.334 Q2226.07 334.228 2226.07 330.617 Q2226.07 327.006 2223.73 324.899 Q2221.4 322.793 2217.39 322.793 Q2215.52 322.793 2213.64 323.209 Q2211.79 323.626 2209.84 324.506 L2209.84 307.145 Z" fill="#000000" fill-rule="evenodd" fill-opacity="1" /></svg>
