<?xml version="1.0" encoding="utf-8"?>
<svg xmlns="http://www.w3.org/2000/svg" xmlns:xlink="http://www.w3.org/1999/xlink" width="600" height="400" viewBox="0 0 2400 1600">
<defs>
  <clipPath id="clip080">
    <rect x="0" y="0" width="2400" height="1600"/>
  </clipPath>
</defs>
<path clip-path="url(#clip080)" d="
M0 1600 L2400 1600 L2400 0 L0 0  Z
  " fill="#ffffff" fill-rule="evenodd" fill-opacity="1"/>
<defs>
  <clipPath id="clip081">
    <rect x="480" y="0" width="1681" height="1600"/>
  </clipPath>
</defs>
<path clip-path="url(#clip080)" d="
M156.598 1486.45 L2352.76 1486.45 L2352.76 123.472 L156.598 123.472  Z
  " fill="#ffffff" fill-rule="evenodd" fill-opacity="1"/>
<defs>
  <clipPath id="clip082">
    <rect x="156" y="123" width="2197" height="1364"/>
  </clipPath>
</defs>
<polyline clip-path="url(#clip082)" style="stroke:#000000; stroke-linecap:butt; stroke-linejoin:round; stroke-width:2; stroke-opacity:0.1; fill:none" points="
  216.68,1486.45 216.68,123.472 
  "/>
<polyline clip-path="url(#clip082)" style="stroke:#000000; stroke-linecap:butt; stroke-linejoin:round; stroke-width:2; stroke-opacity:0.1; fill:none" points="
  735.16,1486.45 735.16,123.472 
  "/>
<polyline clip-path="url(#clip082)" style="stroke:#000000; stroke-linecap:butt; stroke-linejoin:round; stroke-width:2; stroke-opacity:0.1; fill:none" points="
  1253.64,1486.45 1253.64,123.472 
  "/>
<polyline clip-path="url(#clip082)" style="stroke:#000000; stroke-linecap:butt; stroke-linejoin:round; stroke-width:2; stroke-opacity:0.1; fill:none" points="
  1772.12,1486.45 1772.12,123.472 
  "/>
<polyline clip-path="url(#clip082)" style="stroke:#000000; stroke-linecap:butt; stroke-linejoin:round; stroke-width:2; stroke-opacity:0.1; fill:none" points="
  2290.6,1486.45 2290.6,123.472 
  "/>
<polyline clip-path="url(#clip080)" style="stroke:#000000; stroke-linecap:butt; stroke-linejoin:round; stroke-width:4; stroke-opacity:1; fill:none" points="
  156.598,1486.45 2352.76,1486.45 
  "/>
<polyline clip-path="url(#clip080)" style="stroke:#000000; stroke-linecap:butt; stroke-linejoin:round; stroke-width:4; stroke-opacity:1; fill:none" points="
  216.68,1486.45 216.68,1467.55 
  "/>
<polyline clip-path="url(#clip080)" style="stroke:#000000; stroke-linecap:butt; stroke-linejoin:round; stroke-width:4; stroke-opacity:1; fill:none" points="
  735.16,1486.45 735.16,1467.55 
  "/>
<polyline clip-path="url(#clip080)" style="stroke:#000000; stroke-linecap:butt; stroke-linejoin:round; stroke-width:4; stroke-opacity:1; fill:none" points="
  1253.64,1486.45 1253.64,1467.55 
  "/>
<polyline clip-path="url(#clip080)" style="stroke:#000000; stroke-linecap:butt; stroke-linejoin:round; stroke-width:4; stroke-opacity:1; fill:none" points="
  1772.12,1486.45 1772.12,1467.55 
  "/>
<polyline clip-path="url(#clip080)" style="stroke:#000000; stroke-linecap:butt; stroke-linejoin:round; stroke-width:4; stroke-opacity:1; fill:none" points="
  2290.6,1486.45 2290.6,1467.55 
  "/>
<path clip-path="url(#clip080)" d="M216.68 1517.37 Q213.069 1517.37 211.24 1520.93 Q209.434 1524.47 209.434 1531.6 Q209.434 1538.71 211.24 1542.27 Q213.069 1545.82 216.68 1545.82 Q220.314 1545.82 222.12 1542.27 Q223.948 1538.71 223.948 1531.6 Q223.948 1524.47 222.12 1520.93 Q220.314 1517.37 216.68 1517.37 M216.68 1513.66 Q222.49 1513.66 225.545 1518.27 Q228.624 1522.85 228.624 1531.6 Q228.624 1540.33 225.545 1544.94 Q222.49 1549.52 216.68 1549.52 Q210.87 1549.52 207.791 1544.94 Q204.735 1540.33 204.735 1531.6 Q204.735 1522.85 207.791 1518.27 Q210.87 1513.66 216.68 1513.66 Z" fill="#000000" fill-rule="evenodd" fill-opacity="1" /><path clip-path="url(#clip080)" d="M683.771 1544.91 L700.091 1544.91 L700.091 1548.85 L678.146 1548.85 L678.146 1544.91 Q680.808 1542.16 685.392 1537.53 Q689.998 1532.88 691.179 1531.53 Q693.424 1529.01 694.304 1527.27 Q695.206 1525.51 695.206 1523.82 Q695.206 1521.07 693.262 1519.33 Q691.341 1517.6 688.239 1517.6 Q686.04 1517.6 683.586 1518.36 Q681.156 1519.13 678.378 1520.68 L678.378 1515.95 Q681.202 1514.82 683.656 1514.24 Q686.109 1513.66 688.146 1513.66 Q693.517 1513.66 696.711 1516.35 Q699.905 1519.03 699.905 1523.52 Q699.905 1525.65 699.095 1527.57 Q698.308 1529.47 696.202 1532.07 Q695.623 1532.74 692.521 1535.95 Q689.419 1539.15 683.771 1544.91 Z" fill="#000000" fill-rule="evenodd" fill-opacity="1" /><path clip-path="url(#clip080)" d="M709.952 1514.29 L728.308 1514.29 L728.308 1518.22 L714.234 1518.22 L714.234 1526.7 Q715.253 1526.35 716.271 1526.19 Q717.29 1526 718.308 1526 Q724.095 1526 727.475 1529.17 Q730.854 1532.34 730.854 1537.76 Q730.854 1543.34 727.382 1546.44 Q723.91 1549.52 717.591 1549.52 Q715.415 1549.52 713.146 1549.15 Q710.901 1548.78 708.493 1548.04 L708.493 1543.34 Q710.577 1544.47 712.799 1545.03 Q715.021 1545.58 717.498 1545.58 Q721.503 1545.58 723.841 1543.48 Q726.178 1541.37 726.178 1537.76 Q726.178 1534.15 723.841 1532.04 Q721.503 1529.94 717.498 1529.94 Q715.623 1529.94 713.748 1530.35 Q711.896 1530.77 709.952 1531.65 L709.952 1514.29 Z" fill="#000000" fill-rule="evenodd" fill-opacity="1" /><path clip-path="url(#clip080)" d="M750.067 1517.37 Q746.456 1517.37 744.627 1520.93 Q742.822 1524.47 742.822 1531.6 Q742.822 1538.71 744.627 1542.27 Q746.456 1545.82 750.067 1545.82 Q753.701 1545.82 755.507 1542.27 Q757.336 1538.71 757.336 1531.6 Q757.336 1524.47 755.507 1520.93 Q753.701 1517.37 750.067 1517.37 M750.067 1513.66 Q755.877 1513.66 758.933 1518.27 Q762.012 1522.85 762.012 1531.6 Q762.012 1540.33 758.933 1544.94 Q755.877 1549.52 750.067 1549.52 Q744.257 1549.52 741.178 1544.94 Q738.123 1540.33 738.123 1531.6 Q738.123 1522.85 741.178 1518.27 Q744.257 1513.66 750.067 1513.66 Z" fill="#000000" fill-rule="evenodd" fill-opacity="1" /><path clip-path="url(#clip080)" d="M780.229 1517.37 Q776.618 1517.37 774.789 1520.93 Q772.984 1524.47 772.984 1531.6 Q772.984 1538.71 774.789 1542.27 Q776.618 1545.82 780.229 1545.82 Q783.863 1545.82 785.669 1542.27 Q787.498 1538.71 787.498 1531.6 Q787.498 1524.47 785.669 1520.93 Q783.863 1517.37 780.229 1517.37 M780.229 1513.66 Q786.039 1513.66 789.095 1518.27 Q792.173 1522.85 792.173 1531.6 Q792.173 1540.33 789.095 1544.94 Q786.039 1549.52 780.229 1549.52 Q774.419 1549.52 771.34 1544.94 Q768.285 1540.33 768.285 1531.6 Q768.285 1522.85 771.34 1518.27 Q774.419 1513.66 780.229 1513.66 Z" fill="#000000" fill-rule="evenodd" fill-opacity="1" /><path clip-path="url(#clip080)" d="M1198.18 1514.29 L1216.53 1514.29 L1216.53 1518.22 L1202.46 1518.22 L1202.46 1526.7 Q1203.48 1526.35 1204.5 1526.19 Q1205.52 1526 1206.53 1526 Q1212.32 1526 1215.7 1529.17 Q1219.08 1532.34 1219.08 1537.76 Q1219.08 1543.34 1215.61 1546.44 Q1212.14 1549.52 1205.82 1549.52 Q1203.64 1549.52 1201.37 1549.15 Q1199.13 1548.78 1196.72 1548.04 L1196.72 1543.34 Q1198.8 1544.47 1201.02 1545.03 Q1203.25 1545.58 1205.72 1545.58 Q1209.73 1545.58 1212.07 1543.48 Q1214.4 1541.37 1214.4 1537.76 Q1214.4 1534.15 1212.07 1532.04 Q1209.73 1529.94 1205.72 1529.94 Q1203.85 1529.94 1201.97 1530.35 Q1200.12 1530.77 1198.18 1531.65 L1198.18 1514.29 Z" fill="#000000" fill-rule="evenodd" fill-opacity="1" /><path clip-path="url(#clip080)" d="M1238.29 1517.37 Q1234.68 1517.37 1232.85 1520.93 Q1231.05 1524.47 1231.05 1531.6 Q1231.05 1538.71 1232.85 1542.27 Q1234.68 1545.82 1238.29 1545.82 Q1241.93 1545.82 1243.73 1542.27 Q1245.56 1538.71 1245.56 1531.6 Q1245.56 1524.47 1243.73 1520.93 Q1241.93 1517.37 1238.29 1517.37 M1238.29 1513.66 Q1244.1 1513.66 1247.16 1518.27 Q1250.24 1522.85 1250.24 1531.6 Q1250.24 1540.33 1247.16 1544.94 Q1244.1 1549.52 1238.29 1549.52 Q1232.48 1549.52 1229.4 1544.94 Q1226.35 1540.33 1226.35 1531.6 Q1226.35 1522.85 1229.4 1518.27 Q1232.48 1513.66 1238.29 1513.66 Z" fill="#000000" fill-rule="evenodd" fill-opacity="1" /><path clip-path="url(#clip080)" d="M1268.45 1517.37 Q1264.84 1517.37 1263.02 1520.93 Q1261.21 1524.47 1261.21 1531.6 Q1261.21 1538.71 1263.02 1542.27 Q1264.84 1545.82 1268.45 1545.82 Q1272.09 1545.82 1273.89 1542.27 Q1275.72 1538.71 1275.72 1531.6 Q1275.72 1524.47 1273.89 1520.93 Q1272.09 1517.37 1268.45 1517.37 M1268.45 1513.66 Q1274.26 1513.66 1277.32 1518.27 Q1280.4 1522.85 1280.4 1531.6 Q1280.4 1540.33 1277.32 1544.94 Q1274.26 1549.52 1268.45 1549.52 Q1262.64 1549.52 1259.57 1544.94 Q1256.51 1540.33 1256.51 1531.6 Q1256.51 1522.85 1259.57 1518.27 Q1262.64 1513.66 1268.45 1513.66 Z" fill="#000000" fill-rule="evenodd" fill-opacity="1" /><path clip-path="url(#clip080)" d="M1298.62 1517.37 Q1295.01 1517.37 1293.18 1520.93 Q1291.37 1524.47 1291.37 1531.6 Q1291.37 1538.71 1293.18 1542.27 Q1295.01 1545.82 1298.62 1545.82 Q1302.25 1545.82 1304.06 1542.27 Q1305.89 1538.71 1305.89 1531.6 Q1305.89 1524.47 1304.06 1520.93 Q1302.25 1517.37 1298.62 1517.37 M1298.62 1513.66 Q1304.43 1513.66 1307.48 1518.27 Q1310.56 1522.85 1310.56 1531.6 Q1310.56 1540.33 1307.48 1544.94 Q1304.43 1549.52 1298.62 1549.52 Q1292.81 1549.52 1289.73 1544.94 Q1286.67 1540.33 1286.67 1531.6 Q1286.67 1522.85 1289.73 1518.27 Q1292.81 1513.66 1298.62 1513.66 Z" fill="#000000" fill-rule="evenodd" fill-opacity="1" /><path clip-path="url(#clip080)" d="M1715.32 1514.29 L1737.54 1514.29 L1737.54 1516.28 L1724.99 1548.85 L1720.11 1548.85 L1731.91 1518.22 L1715.32 1518.22 L1715.32 1514.29 Z" fill="#000000" fill-rule="evenodd" fill-opacity="1" /><path clip-path="url(#clip080)" d="M1746.7 1514.29 L1765.06 1514.29 L1765.06 1518.22 L1750.99 1518.22 L1750.99 1526.7 Q1752 1526.35 1753.02 1526.19 Q1754.04 1526 1755.06 1526 Q1760.85 1526 1764.23 1529.17 Q1767.61 1532.34 1767.61 1537.76 Q1767.61 1543.34 1764.13 1546.44 Q1760.66 1549.52 1754.34 1549.52 Q1752.17 1549.52 1749.9 1549.15 Q1747.65 1548.78 1745.25 1548.04 L1745.25 1543.34 Q1747.33 1544.47 1749.55 1545.03 Q1751.77 1545.58 1754.25 1545.58 Q1758.25 1545.58 1760.59 1543.48 Q1762.93 1541.37 1762.93 1537.76 Q1762.93 1534.15 1760.59 1532.04 Q1758.25 1529.94 1754.25 1529.94 Q1752.38 1529.94 1750.5 1530.35 Q1748.65 1530.77 1746.7 1531.65 L1746.7 1514.29 Z" fill="#000000" fill-rule="evenodd" fill-opacity="1" /><path clip-path="url(#clip080)" d="M1786.82 1517.37 Q1783.21 1517.37 1781.38 1520.93 Q1779.57 1524.47 1779.57 1531.6 Q1779.57 1538.71 1781.38 1542.27 Q1783.21 1545.82 1786.82 1545.82 Q1790.45 1545.82 1792.26 1542.27 Q1794.09 1538.71 1794.09 1531.6 Q1794.09 1524.47 1792.26 1520.93 Q1790.45 1517.37 1786.82 1517.37 M1786.82 1513.66 Q1792.63 1513.66 1795.68 1518.27 Q1798.76 1522.85 1798.76 1531.6 Q1798.76 1540.33 1795.68 1544.94 Q1792.63 1549.52 1786.82 1549.52 Q1781.01 1549.52 1777.93 1544.94 Q1774.87 1540.33 1774.87 1531.6 Q1774.87 1522.85 1777.93 1518.27 Q1781.01 1513.66 1786.82 1513.66 Z" fill="#000000" fill-rule="evenodd" fill-opacity="1" /><path clip-path="url(#clip080)" d="M1816.98 1517.37 Q1813.37 1517.37 1811.54 1520.93 Q1809.74 1524.47 1809.74 1531.6 Q1809.74 1538.71 1811.54 1542.27 Q1813.37 1545.82 1816.98 1545.82 Q1820.62 1545.82 1822.42 1542.27 Q1824.25 1538.71 1824.25 1531.6 Q1824.25 1524.47 1822.42 1520.93 Q1820.62 1517.37 1816.98 1517.37 M1816.98 1513.66 Q1822.79 1513.66 1825.85 1518.27 Q1828.93 1522.85 1828.93 1531.6 Q1828.93 1540.33 1825.85 1544.94 Q1822.79 1549.52 1816.98 1549.52 Q1811.17 1549.52 1808.09 1544.94 Q1805.04 1540.33 1805.04 1531.6 Q1805.04 1522.85 1808.09 1518.27 Q1811.17 1513.66 1816.98 1513.66 Z" fill="#000000" fill-rule="evenodd" fill-opacity="1" /><path clip-path="url(#clip080)" d="M2220.05 1544.91 L2227.68 1544.91 L2227.68 1518.55 L2219.37 1520.21 L2219.37 1515.95 L2227.64 1514.29 L2232.31 1514.29 L2232.31 1544.91 L2239.95 1544.91 L2239.95 1548.85 L2220.05 1548.85 L2220.05 1544.91 Z" fill="#000000" fill-rule="evenodd" fill-opacity="1" /><path clip-path="url(#clip080)" d="M2259.4 1517.37 Q2255.79 1517.37 2253.96 1520.93 Q2252.15 1524.47 2252.15 1531.6 Q2252.15 1538.71 2253.96 1542.27 Q2255.79 1545.82 2259.4 1545.82 Q2263.03 1545.82 2264.84 1542.27 Q2266.67 1538.71 2266.67 1531.6 Q2266.67 1524.47 2264.84 1520.93 Q2263.03 1517.37 2259.4 1517.37 M2259.4 1513.66 Q2265.21 1513.66 2268.26 1518.27 Q2271.34 1522.85 2271.34 1531.6 Q2271.34 1540.33 2268.26 1544.94 Q2265.21 1549.52 2259.4 1549.52 Q2253.59 1549.52 2250.51 1544.94 Q2247.45 1540.33 2247.45 1531.6 Q2247.45 1522.85 2250.51 1518.27 Q2253.59 1513.66 2259.4 1513.66 Z" fill="#000000" fill-rule="evenodd" fill-opacity="1" /><path clip-path="url(#clip080)" d="M2289.56 1517.37 Q2285.95 1517.37 2284.12 1520.93 Q2282.31 1524.47 2282.31 1531.6 Q2282.31 1538.71 2284.12 1542.27 Q2285.95 1545.82 2289.56 1545.82 Q2293.19 1545.82 2295 1542.27 Q2296.83 1538.71 2296.83 1531.6 Q2296.83 1524.47 2295 1520.93 Q2293.19 1517.37 2289.56 1517.37 M2289.56 1513.66 Q2295.37 1513.66 2298.42 1518.27 Q2301.5 1522.85 2301.5 1531.6 Q2301.5 1540.33 2298.42 1544.94 Q2295.37 1549.52 2289.56 1549.52 Q2283.75 1549.52 2280.67 1544.94 Q2277.61 1540.33 2277.61 1531.6 Q2277.61 1522.85 2280.67 1518.27 Q2283.75 1513.66 2289.56 1513.66 Z" fill="#000000" fill-rule="evenodd" fill-opacity="1" /><path clip-path="url(#clip080)" d="M2319.72 1517.37 Q2316.11 1517.37 2314.28 1520.93 Q2312.48 1524.47 2312.48 1531.6 Q2312.48 1538.71 2314.28 1542.27 Q2316.11 1545.82 2319.72 1545.82 Q2323.35 1545.82 2325.16 1542.27 Q2326.99 1538.71 2326.99 1531.6 Q2326.99 1524.47 2325.16 1520.93 Q2323.35 1517.37 2319.72 1517.37 M2319.72 1513.66 Q2325.53 1513.66 2328.59 1518.27 Q2331.67 1522.85 2331.67 1531.6 Q2331.67 1540.33 2328.59 1544.94 Q2325.53 1549.52 2319.72 1549.52 Q2313.91 1549.52 2310.83 1544.94 Q2307.78 1540.33 2307.78 1531.6 Q2307.78 1522.85 2310.83 1518.27 Q2313.91 1513.66 2319.72 1513.66 Z" fill="#000000" fill-rule="evenodd" fill-opacity="1" /><path clip-path="url(#clip080)" d="M2349.88 1517.37 Q2346.27 1517.37 2344.44 1520.93 Q2342.64 1524.47 2342.64 1531.6 Q2342.64 1538.71 2344.44 1542.27 Q2346.27 1545.82 2349.88 1545.82 Q2353.52 1545.82 2355.32 1542.27 Q2357.15 1538.71 2357.15 1531.6 Q2357.15 1524.47 2355.32 1520.93 Q2353.52 1517.37 2349.88 1517.37 M2349.88 1513.66 Q2355.69 1513.66 2358.75 1518.27 Q2361.83 1522.85 2361.83 1531.6 Q2361.83 1540.33 2358.75 1544.94 Q2355.69 1549.52 2349.88 1549.52 Q2344.07 1549.52 2340.99 1544.94 Q2337.94 1540.33 2337.94 1531.6 Q2337.94 1522.85 2340.99 1518.27 Q2344.07 1513.66 2349.88 1513.66 Z" fill="#000000" fill-rule="evenodd" fill-opacity="1" /><polyline clip-path="url(#clip082)" style="stroke:#000000; stroke-linecap:butt; stroke-linejoin:round; stroke-width:2; stroke-opacity:0.1; fill:none" points="
  156.598,1486.45 2352.76,1486.45 
  "/>
<polyline clip-path="url(#clip082)" style="stroke:#000000; stroke-linecap:butt; stroke-linejoin:round; stroke-width:2; stroke-opacity:0.1; fill:none" points="
  156.598,1213.85 2352.76,1213.85 
  "/>
<polyline clip-path="url(#clip082)" style="stroke:#000000; stroke-linecap:butt; stroke-linejoin:round; stroke-width:2; stroke-opacity:0.1; fill:none" points="
  156.598,941.258 2352.76,941.258 
  "/>
<polyline clip-path="url(#clip082)" style="stroke:#000000; stroke-linecap:butt; stroke-linejoin:round; stroke-width:2; stroke-opacity:0.1; fill:none" points="
  156.598,668.662 2352.76,668.662 
  "/>
<polyline clip-path="url(#clip082)" style="stroke:#000000; stroke-linecap:butt; stroke-linejoin:round; stroke-width:2; stroke-opacity:0.1; fill:none" points="
  156.598,396.067 2352.76,396.067 
  "/>
<polyline clip-path="url(#clip082)" style="stroke:#000000; stroke-linecap:butt; stroke-linejoin:round; stroke-width:2; stroke-opacity:0.1; fill:none" points="
  156.598,123.472 2352.76,123.472 
  "/>
<polyline clip-path="url(#clip080)" style="stroke:#000000; stroke-linecap:butt; stroke-linejoin:round; stroke-width:4; stroke-opacity:1; fill:none" points="
  156.598,1486.45 156.598,123.472 
  "/>
<polyline clip-path="url(#clip080)" style="stroke:#000000; stroke-linecap:butt; stroke-linejoin:round; stroke-width:4; stroke-opacity:1; fill:none" points="
  156.598,1486.45 175.496,1486.45 
  "/>
<polyline clip-path="url(#clip080)" style="stroke:#000000; stroke-linecap:butt; stroke-linejoin:round; stroke-width:4; stroke-opacity:1; fill:none" points="
  156.598,1213.85 175.496,1213.85 
  "/>
<polyline clip-path="url(#clip080)" style="stroke:#000000; stroke-linecap:butt; stroke-linejoin:round; stroke-width:4; stroke-opacity:1; fill:none" points="
  156.598,941.258 175.496,941.258 
  "/>
<polyline clip-path="url(#clip080)" style="stroke:#000000; stroke-linecap:butt; stroke-linejoin:round; stroke-width:4; stroke-opacity:1; fill:none" points="
  156.598,668.662 175.496,668.662 
  "/>
<polyline clip-path="url(#clip080)" style="stroke:#000000; stroke-linecap:butt; stroke-linejoin:round; stroke-width:4; stroke-opacity:1; fill:none" points="
  156.598,396.067 175.496,396.067 
  "/>
<polyline clip-path="url(#clip080)" style="stroke:#000000; stroke-linecap:butt; stroke-linejoin:round; stroke-width:4; stroke-opacity:1; fill:none" points="
  156.598,123.472 175.496,123.472 
  "/>
<path clip-path="url(#clip080)" d="M63.4226 1472.25 Q59.8115 1472.25 57.9828 1475.81 Q56.1773 1479.35 56.1773 1486.48 Q56.1773 1493.59 57.9828 1497.15 Q59.8115 1500.7 63.4226 1500.7 Q67.0569 1500.7 68.8624 1497.15 Q70.6911 1493.59 70.6911 1486.48 Q70.6911 1479.35 68.8624 1475.81 Q67.0569 1472.25 63.4226 1472.25 M63.4226 1468.54 Q69.2328 1468.54 72.2883 1473.15 Q75.367 1477.73 75.367 1486.48 Q75.367 1495.21 72.2883 1499.82 Q69.2328 1504.4 63.4226 1504.4 Q57.6125 1504.4 54.5338 1499.82 Q51.4782 1495.21 51.4782 1486.48 Q51.4782 1477.73 54.5338 1473.15 Q57.6125 1468.54 63.4226 1468.54 Z" fill="#000000" fill-rule="evenodd" fill-opacity="1" /><path clip-path="url(#clip080)" d="M83.5845 1497.85 L88.4688 1497.85 L88.4688 1503.73 L83.5845 1503.73 L83.5845 1497.85 Z" fill="#000000" fill-rule="evenodd" fill-opacity="1" /><path clip-path="url(#clip080)" d="M108.654 1472.25 Q105.043 1472.25 103.214 1475.81 Q101.409 1479.35 101.409 1486.48 Q101.409 1493.59 103.214 1497.15 Q105.043 1500.7 108.654 1500.7 Q112.288 1500.7 114.094 1497.15 Q115.922 1493.59 115.922 1486.48 Q115.922 1479.35 114.094 1475.81 Q112.288 1472.25 108.654 1472.25 M108.654 1468.54 Q114.464 1468.54 117.52 1473.15 Q120.598 1477.73 120.598 1486.48 Q120.598 1495.21 117.52 1499.82 Q114.464 1504.4 108.654 1504.4 Q102.844 1504.4 99.765 1499.82 Q96.7095 1495.21 96.7095 1486.48 Q96.7095 1477.73 99.765 1473.15 Q102.844 1468.54 108.654 1468.54 Z" fill="#000000" fill-rule="evenodd" fill-opacity="1" /><path clip-path="url(#clip080)" d="M65.0198 1199.65 Q61.4087 1199.65 59.58 1203.22 Q57.7745 1206.76 57.7745 1213.89 Q57.7745 1220.99 59.58 1224.56 Q61.4087 1228.1 65.0198 1228.1 Q68.6541 1228.1 70.4596 1224.56 Q72.2883 1220.99 72.2883 1213.89 Q72.2883 1206.76 70.4596 1203.22 Q68.6541 1199.65 65.0198 1199.65 M65.0198 1195.95 Q70.83 1195.95 73.8855 1200.55 Q76.9642 1205.14 76.9642 1213.89 Q76.9642 1222.61 73.8855 1227.22 Q70.83 1231.8 65.0198 1231.8 Q59.2097 1231.8 56.131 1227.22 Q53.0754 1222.61 53.0754 1213.89 Q53.0754 1205.14 56.131 1200.55 Q59.2097 1195.95 65.0198 1195.95 Z" fill="#000000" fill-rule="evenodd" fill-opacity="1" /><path clip-path="url(#clip080)" d="M85.1818 1225.25 L90.066 1225.25 L90.066 1231.13 L85.1818 1231.13 L85.1818 1225.25 Z" fill="#000000" fill-rule="evenodd" fill-opacity="1" /><path clip-path="url(#clip080)" d="M104.279 1227.2 L120.598 1227.2 L120.598 1231.13 L98.6539 1231.13 L98.6539 1227.2 Q101.316 1224.44 105.899 1219.81 Q110.506 1215.16 111.686 1213.82 Q113.932 1211.29 114.811 1209.56 Q115.714 1207.8 115.714 1206.11 Q115.714 1203.36 113.77 1201.62 Q111.848 1199.88 108.746 1199.88 Q106.547 1199.88 104.094 1200.65 Q101.663 1201.41 98.8854 1202.96 L98.8854 1198.24 Q101.709 1197.11 104.163 1196.53 Q106.617 1195.95 108.654 1195.95 Q114.024 1195.95 117.219 1198.63 Q120.413 1201.32 120.413 1205.81 Q120.413 1207.94 119.603 1209.86 Q118.816 1211.76 116.709 1214.35 Q116.131 1215.02 113.029 1218.24 Q109.927 1221.43 104.279 1227.2 Z" fill="#000000" fill-rule="evenodd" fill-opacity="1" /><path clip-path="url(#clip080)" d="M62.9365 927.056 Q59.3254 927.056 57.4967 930.621 Q55.6912 934.163 55.6912 941.292 Q55.6912 948.399 57.4967 951.964 Q59.3254 955.505 62.9365 955.505 Q66.5707 955.505 68.3763 951.964 Q70.205 948.399 70.205 941.292 Q70.205 934.163 68.3763 930.621 Q66.5707 927.056 62.9365 927.056 M62.9365 923.353 Q68.7467 923.353 71.8022 927.959 Q74.8809 932.542 74.8809 941.292 Q74.8809 950.019 71.8022 954.626 Q68.7467 959.209 62.9365 959.209 Q57.1264 959.209 54.0477 954.626 Q50.9921 950.019 50.9921 941.292 Q50.9921 932.542 54.0477 927.959 Q57.1264 923.353 62.9365 923.353 Z" fill="#000000" fill-rule="evenodd" fill-opacity="1" /><path clip-path="url(#clip080)" d="M83.0984 952.658 L87.9827 952.658 L87.9827 958.538 L83.0984 958.538 L83.0984 952.658 Z" fill="#000000" fill-rule="evenodd" fill-opacity="1" /><path clip-path="url(#clip080)" d="M111.015 928.052 L99.2095 946.501 L111.015 946.501 L111.015 928.052 M109.788 923.978 L115.668 923.978 L115.668 946.501 L120.598 946.501 L120.598 950.389 L115.668 950.389 L115.668 958.538 L111.015 958.538 L111.015 950.389 L95.4132 950.389 L95.4132 945.876 L109.788 923.978 Z" fill="#000000" fill-rule="evenodd" fill-opacity="1" /><path clip-path="url(#clip080)" d="M63.2606 654.461 Q59.6495 654.461 57.8208 658.026 Q56.0152 661.568 56.0152 668.697 Q56.0152 675.804 57.8208 679.368 Q59.6495 682.91 63.2606 682.91 Q66.8948 682.91 68.7004 679.368 Q70.5291 675.804 70.5291 668.697 Q70.5291 661.568 68.7004 658.026 Q66.8948 654.461 63.2606 654.461 M63.2606 650.757 Q69.0707 650.757 72.1263 655.364 Q75.205 659.947 75.205 668.697 Q75.205 677.424 72.1263 682.03 Q69.0707 686.614 63.2606 686.614 Q57.4504 686.614 54.3717 682.03 Q51.3162 677.424 51.3162 668.697 Q51.3162 659.947 54.3717 655.364 Q57.4504 650.757 63.2606 650.757 Z" fill="#000000" fill-rule="evenodd" fill-opacity="1" /><path clip-path="url(#clip080)" d="M83.4225 680.063 L88.3067 680.063 L88.3067 685.942 L83.4225 685.942 L83.4225 680.063 Z" fill="#000000" fill-rule="evenodd" fill-opacity="1" /><path clip-path="url(#clip080)" d="M109.071 666.799 Q105.922 666.799 104.071 668.952 Q102.242 671.105 102.242 674.855 Q102.242 678.581 104.071 680.757 Q105.922 682.91 109.071 682.91 Q112.219 682.91 114.047 680.757 Q115.899 678.581 115.899 674.855 Q115.899 671.105 114.047 668.952 Q112.219 666.799 109.071 666.799 M118.353 652.146 L118.353 656.406 Q116.594 655.572 114.788 655.132 Q113.006 654.693 111.246 654.693 Q106.617 654.693 104.163 657.818 Q101.733 660.943 101.385 667.262 Q102.751 665.248 104.811 664.183 Q106.871 663.095 109.348 663.095 Q114.557 663.095 117.566 666.267 Q120.598 669.415 120.598 674.855 Q120.598 680.179 117.45 683.396 Q114.302 686.614 109.071 686.614 Q103.075 686.614 99.9039 682.03 Q96.7326 677.424 96.7326 668.697 Q96.7326 660.503 100.621 655.642 Q104.51 650.757 111.061 650.757 Q112.82 650.757 114.603 651.105 Q116.408 651.452 118.353 652.146 Z" fill="#000000" fill-rule="evenodd" fill-opacity="1" /><path clip-path="url(#clip080)" d="M63.5152 381.866 Q59.9041 381.866 58.0754 385.431 Q56.2699 388.972 56.2699 396.102 Q56.2699 403.208 58.0754 406.773 Q59.9041 410.315 63.5152 410.315 Q67.1494 410.315 68.955 406.773 Q70.7837 403.208 70.7837 396.102 Q70.7837 388.972 68.955 385.431 Q67.1494 381.866 63.5152 381.866 M63.5152 378.162 Q69.3254 378.162 72.3809 382.769 Q75.4596 387.352 75.4596 396.102 Q75.4596 404.829 72.3809 409.435 Q69.3254 414.019 63.5152 414.019 Q57.7051 414.019 54.6264 409.435 Q51.5708 404.829 51.5708 396.102 Q51.5708 387.352 54.6264 382.769 Q57.7051 378.162 63.5152 378.162 Z" fill="#000000" fill-rule="evenodd" fill-opacity="1" /><path clip-path="url(#clip080)" d="M83.6771 407.468 L88.5614 407.468 L88.5614 413.347 L83.6771 413.347 L83.6771 407.468 Z" fill="#000000" fill-rule="evenodd" fill-opacity="1" /><path clip-path="url(#clip080)" d="M108.746 396.935 Q105.413 396.935 103.492 398.718 Q101.594 400.5 101.594 403.625 Q101.594 406.75 103.492 408.532 Q105.413 410.315 108.746 410.315 Q112.08 410.315 114.001 408.532 Q115.922 406.727 115.922 403.625 Q115.922 400.5 114.001 398.718 Q112.103 396.935 108.746 396.935 M104.071 394.945 Q101.061 394.204 99.3715 392.144 Q97.7048 390.084 97.7048 387.121 Q97.7048 382.977 100.645 380.57 Q103.608 378.162 108.746 378.162 Q113.908 378.162 116.848 380.57 Q119.788 382.977 119.788 387.121 Q119.788 390.084 118.098 392.144 Q116.432 394.204 113.445 394.945 Q116.825 395.732 118.7 398.023 Q120.598 400.315 120.598 403.625 Q120.598 408.648 117.52 411.333 Q114.464 414.019 108.746 414.019 Q103.029 414.019 99.9502 411.333 Q96.8947 408.648 96.8947 403.625 Q96.8947 400.315 98.7928 398.023 Q100.691 395.732 104.071 394.945 M102.358 387.56 Q102.358 390.246 104.024 391.75 Q105.714 393.255 108.746 393.255 Q111.756 393.255 113.445 391.75 Q115.158 390.246 115.158 387.56 Q115.158 384.875 113.445 383.371 Q111.756 381.866 108.746 381.866 Q105.714 381.866 104.024 383.371 Q102.358 384.875 102.358 387.56 Z" fill="#000000" fill-rule="evenodd" fill-opacity="1" /><path clip-path="url(#clip080)" d="M54.2328 136.817 L61.8717 136.817 L61.8717 110.451 L53.5616 112.118 L53.5616 107.859 L61.8254 106.192 L66.5013 106.192 L66.5013 136.817 L74.1402 136.817 L74.1402 140.752 L54.2328 140.752 L54.2328 136.817 Z" fill="#000000" fill-rule="evenodd" fill-opacity="1" /><path clip-path="url(#clip080)" d="M83.5845 134.873 L88.4688 134.873 L88.4688 140.752 L83.5845 140.752 L83.5845 134.873 Z" fill="#000000" fill-rule="evenodd" fill-opacity="1" /><path clip-path="url(#clip080)" d="M108.654 109.271 Q105.043 109.271 103.214 112.836 Q101.409 116.377 101.409 123.507 Q101.409 130.613 103.214 134.178 Q105.043 137.72 108.654 137.72 Q112.288 137.72 114.094 134.178 Q115.922 130.613 115.922 123.507 Q115.922 116.377 114.094 112.836 Q112.288 109.271 108.654 109.271 M108.654 105.567 Q114.464 105.567 117.52 110.174 Q120.598 114.757 120.598 123.507 Q120.598 132.234 117.52 136.84 Q114.464 141.423 108.654 141.423 Q102.844 141.423 99.765 136.84 Q96.7095 132.234 96.7095 123.507 Q96.7095 114.757 99.765 110.174 Q102.844 105.567 108.654 105.567 Z" fill="#000000" fill-rule="evenodd" fill-opacity="1" /><path clip-path="url(#clip080)" d="M894.45 34.4165 Q892.952 33.8899 891.453 33.4848 Q887.442 32.4315 883.148 32.4315 Q875.735 32.4315 871.603 36.4419 Q867.755 40.1688 867.026 47.0148 L894.45 47.0148 L894.45 52.8481 L867.026 52.8481 Q867.755 59.6941 871.603 63.421 Q875.735 67.4314 883.148 67.4314 Q888.334 67.4314 891.453 66.3781 L894.45 65.3654 L894.45 72.1304 L891.25 72.8596 Q887.037 73.7508 882.703 73.7508 Q871.846 73.7508 865.527 67.4314 Q859.167 61.1119 859.167 49.9314 Q859.167 38.7509 865.527 32.4315 Q871.846 26.1121 882.703 26.1121 Q886.794 26.1121 891.25 27.0033 Q892.871 27.3274 894.45 27.8135 L894.45 34.4165 Z" fill="#000000" fill-rule="evenodd" fill-opacity="1" /><path clip-path="url(#clip080)" d="M947.031 65.7705 L947.031 89.8329 L939.537 89.8329 L939.537 27.2059 L947.031 27.2059 L947.031 34.0924 Q949.381 30.0415 952.945 28.0971 Q956.551 26.1121 961.533 26.1121 Q969.797 26.1121 974.942 32.6746 Q980.127 39.2371 980.127 49.9314 Q980.127 60.6258 974.942 67.1883 Q969.797 73.7508 961.533 73.7508 Q956.551 73.7508 952.945 71.8063 Q949.381 69.8214 947.031 65.7705 M972.39 49.9314 Q972.39 41.7081 968.987 37.0496 Q965.625 32.3505 959.71 32.3505 Q953.796 32.3505 950.393 37.0496 Q947.031 41.7081 947.031 49.9314 Q947.031 58.1548 950.393 62.8538 Q953.796 67.5124 959.71 67.5124 Q965.625 67.5124 968.987 62.8538 Q972.39 58.1548 972.39 49.9314 Z" fill="#000000" fill-rule="evenodd" fill-opacity="1" /><path clip-path="url(#clip080)" d="M991.713 54.671 L991.713 27.2059 L999.166 27.2059 L999.166 54.3874 Q999.166 60.8284 1001.68 64.0691 Q1004.19 67.2693 1009.21 67.2693 Q1015.25 67.2693 1018.73 63.421 Q1022.26 59.5726 1022.26 52.9291 L1022.26 27.2059 L1029.71 27.2059 L1029.71 72.576 L1022.26 72.576 L1022.26 65.6084 Q1019.54 69.7404 1015.94 71.7658 Q1012.37 73.7508 1007.63 73.7508 Q999.814 73.7508 995.764 68.8897 Q991.713 64.0286 991.713 54.671 M1010.47 26.1121 L1010.47 26.1121 Z" fill="#000000" fill-rule="evenodd" fill-opacity="1" /><path clip-path="url(#clip080)" d="M1077.63 49.9314 Q1077.63 41.7081 1074.23 37.0496 Q1070.87 32.3505 1064.95 32.3505 Q1059.04 32.3505 1055.64 37.0496 Q1052.27 41.7081 1052.27 49.9314 Q1052.27 58.1548 1055.64 62.8538 Q1059.04 67.5124 1064.95 67.5124 Q1070.87 67.5124 1074.23 62.8538 Q1077.63 58.1548 1077.63 49.9314 M1052.27 34.0924 Q1054.62 30.0415 1058.19 28.0971 Q1061.79 26.1121 1066.78 26.1121 Q1075.04 26.1121 1080.18 32.6746 Q1085.37 39.2371 1085.37 49.9314 Q1085.37 60.6258 1080.18 67.1883 Q1075.04 73.7508 1066.78 73.7508 Q1061.79 73.7508 1058.19 71.8063 Q1054.62 69.8214 1052.27 65.7705 L1052.27 72.576 L1044.78 72.576 L1044.78 9.54393 L1052.27 9.54393 L1052.27 34.0924 Z" fill="#000000" fill-rule="evenodd" fill-opacity="1" /><path clip-path="url(#clip080)" d="M1097.72 9.54393 L1105.18 9.54393 L1105.18 72.576 L1097.72 72.576 L1097.72 9.54393 Z" fill="#000000" fill-rule="evenodd" fill-opacity="1" /><path clip-path="url(#clip080)" d="M1120.77 27.2059 L1128.23 27.2059 L1128.23 72.576 L1120.77 72.576 L1120.77 27.2059 M1120.77 9.54393 L1128.23 9.54393 L1128.23 18.9825 L1120.77 18.9825 L1120.77 9.54393 Z" fill="#000000" fill-rule="evenodd" fill-opacity="1" /><path clip-path="url(#clip080)" d="M1176.47 28.9478 L1176.47 35.9153 Q1173.31 34.1734 1170.11 33.3227 Q1166.95 32.4315 1163.71 32.4315 Q1156.46 32.4315 1152.45 37.0496 Q1148.44 41.6271 1148.44 49.9314 Q1148.44 58.2358 1152.45 62.8538 Q1156.46 67.4314 1163.71 67.4314 Q1166.95 67.4314 1170.11 66.5807 Q1173.31 65.6895 1176.47 63.9476 L1176.47 70.8341 Q1173.36 72.2924 1169.99 73.0216 Q1166.67 73.7508 1162.9 73.7508 Q1152.66 73.7508 1146.62 67.3098 Q1140.58 60.8689 1140.58 49.9314 Q1140.58 38.832 1146.66 32.472 Q1152.78 26.1121 1163.39 26.1121 Q1166.83 26.1121 1170.11 26.8413 Q1173.4 27.5299 1176.47 28.9478 Z" fill="#000000" fill-rule="evenodd" fill-opacity="1" /><path clip-path="url(#clip080)" d="M1189.44 9.54393 L1196.89 9.54393 L1196.89 72.576 L1189.44 72.576 L1189.44 9.54393 Z" fill="#000000" fill-rule="evenodd" fill-opacity="1" /><path clip-path="url(#clip080)" d="M1231.36 76.7889 Q1228.2 84.8907 1225.21 87.3618 Q1222.21 89.8329 1217.19 89.8329 L1211.23 89.8329 L1211.23 83.5945 L1215.61 83.5945 Q1218.68 83.5945 1220.39 82.1361 Q1222.09 80.6778 1224.15 75.2496 L1225.49 71.8468 L1207.14 27.2059 L1215.04 27.2059 L1229.22 62.6918 L1243.4 27.2059 L1251.29 27.2059 L1231.36 76.7889 Z" fill="#000000" fill-rule="evenodd" fill-opacity="1" /><path clip-path="url(#clip080)" d="M1308.57 49.7694 Q1299.54 49.7694 1296.06 51.8354 Q1292.57 53.9013 1292.57 58.8839 Q1292.57 62.8538 1295.17 65.2034 Q1297.8 67.5124 1302.3 67.5124 Q1308.49 67.5124 1312.22 63.1374 Q1315.99 58.7219 1315.99 51.4303 L1315.99 49.7694 L1308.57 49.7694 M1323.44 46.6907 L1323.44 72.576 L1315.99 72.576 L1315.99 65.6895 Q1313.44 69.8214 1309.63 71.8063 Q1305.82 73.7508 1300.31 73.7508 Q1293.34 73.7508 1289.21 69.8619 Q1285.12 65.9325 1285.12 59.3701 Q1285.12 51.7138 1290.22 47.825 Q1295.37 43.9361 1305.54 43.9361 L1315.99 43.9361 L1315.99 43.2069 Q1315.99 38.0623 1312.58 35.2672 Q1309.22 32.4315 1303.11 32.4315 Q1299.22 32.4315 1295.53 33.3632 Q1291.84 34.295 1288.44 36.1584 L1288.44 29.2718 Q1292.53 27.692 1296.38 26.9223 Q1300.23 26.1121 1303.88 26.1121 Q1313.72 26.1121 1318.58 31.2163 Q1323.44 36.3204 1323.44 46.6907 Z" fill="#000000" fill-rule="evenodd" fill-opacity="1" /><path clip-path="url(#clip080)" d="M1333.45 27.2059 L1341.35 27.2059 L1355.52 65.2844 L1369.7 27.2059 L1377.6 27.2059 L1360.59 72.576 L1350.46 72.576 L1333.45 27.2059 Z" fill="#000000" fill-rule="evenodd" fill-opacity="1" /><path clip-path="url(#clip080)" d="M1408.51 49.7694 Q1399.48 49.7694 1395.99 51.8354 Q1392.51 53.9013 1392.51 58.8839 Q1392.51 62.8538 1395.1 65.2034 Q1397.73 67.5124 1402.23 67.5124 Q1408.43 67.5124 1412.16 63.1374 Q1415.92 58.7219 1415.92 51.4303 L1415.92 49.7694 L1408.51 49.7694 M1423.38 46.6907 L1423.38 72.576 L1415.92 72.576 L1415.92 65.6895 Q1413.37 69.8214 1409.56 71.8063 Q1405.76 73.7508 1400.25 73.7508 Q1393.28 73.7508 1389.15 69.8619 Q1385.06 65.9325 1385.06 59.3701 Q1385.06 51.7138 1390.16 47.825 Q1395.3 43.9361 1405.47 43.9361 L1415.92 43.9361 L1415.92 43.2069 Q1415.92 38.0623 1412.52 35.2672 Q1409.16 32.4315 1403.04 32.4315 Q1399.15 32.4315 1395.47 33.3632 Q1391.78 34.295 1388.38 36.1584 L1388.38 29.2718 Q1392.47 27.692 1396.32 26.9223 Q1400.17 26.1121 1403.81 26.1121 Q1413.65 26.1121 1418.52 31.2163 Q1423.38 36.3204 1423.38 46.6907 Z" fill="#000000" fill-rule="evenodd" fill-opacity="1" /><path clip-path="url(#clip080)" d="M1438.73 27.2059 L1446.18 27.2059 L1446.18 72.576 L1438.73 72.576 L1438.73 27.2059 M1438.73 9.54393 L1446.18 9.54393 L1446.18 18.9825 L1438.73 18.9825 L1438.73 9.54393 Z" fill="#000000" fill-rule="evenodd" fill-opacity="1" /><path clip-path="url(#clip080)" d="M1461.78 9.54393 L1469.23 9.54393 L1469.23 72.576 L1461.78 72.576 L1461.78 9.54393 Z" fill="#000000" fill-rule="evenodd" fill-opacity="1" /><path clip-path="url(#clip080)" d="M1505.45 49.7694 Q1496.41 49.7694 1492.93 51.8354 Q1489.45 53.9013 1489.45 58.8839 Q1489.45 62.8538 1492.04 65.2034 Q1494.67 67.5124 1499.17 67.5124 Q1505.37 67.5124 1509.09 63.1374 Q1512.86 58.7219 1512.86 51.4303 L1512.86 49.7694 L1505.45 49.7694 M1520.32 46.6907 L1520.32 72.576 L1512.86 72.576 L1512.86 65.6895 Q1510.31 69.8214 1506.5 71.8063 Q1502.69 73.7508 1497.18 73.7508 Q1490.22 73.7508 1486.08 69.8619 Q1481.99 65.9325 1481.99 59.3701 Q1481.99 51.7138 1487.1 47.825 Q1492.24 43.9361 1502.41 43.9361 L1512.86 43.9361 L1512.86 43.2069 Q1512.86 38.0623 1509.46 35.2672 Q1506.1 32.4315 1499.98 32.4315 Q1496.09 32.4315 1492.4 33.3632 Q1488.72 34.295 1485.32 36.1584 L1485.32 29.2718 Q1489.41 27.692 1493.26 26.9223 Q1497.1 26.1121 1500.75 26.1121 Q1510.59 26.1121 1515.45 31.2163 Q1520.32 36.3204 1520.32 46.6907 Z" fill="#000000" fill-rule="evenodd" fill-opacity="1" /><path clip-path="url(#clip080)" d="M1568.24 49.9314 Q1568.24 41.7081 1564.83 37.0496 Q1561.47 32.3505 1555.56 32.3505 Q1549.64 32.3505 1546.24 37.0496 Q1542.88 41.7081 1542.88 49.9314 Q1542.88 58.1548 1546.24 62.8538 Q1549.64 67.5124 1555.56 67.5124 Q1561.47 67.5124 1564.83 62.8538 Q1568.24 58.1548 1568.24 49.9314 M1542.88 34.0924 Q1545.23 30.0415 1548.79 28.0971 Q1552.4 26.1121 1557.38 26.1121 Q1565.64 26.1121 1570.79 32.6746 Q1575.97 39.2371 1575.97 49.9314 Q1575.97 60.6258 1570.79 67.1883 Q1565.64 73.7508 1557.38 73.7508 Q1552.4 73.7508 1548.79 71.8063 Q1545.23 69.8214 1542.88 65.7705 L1542.88 72.576 L1535.38 72.576 L1535.38 9.54393 L1542.88 9.54393 L1542.88 34.0924 Z" fill="#000000" fill-rule="evenodd" fill-opacity="1" /><path clip-path="url(#clip080)" d="M1588.33 9.54393 L1595.78 9.54393 L1595.78 72.576 L1588.33 72.576 L1588.33 9.54393 Z" fill="#000000" fill-rule="evenodd" fill-opacity="1" /><path clip-path="url(#clip080)" d="M1650.19 48.0275 L1650.19 51.6733 L1615.92 51.6733 Q1616.4 59.3701 1620.53 63.421 Q1624.71 67.4314 1632.12 67.4314 Q1636.41 67.4314 1640.42 66.3781 Q1644.48 65.3249 1648.45 63.2184 L1648.45 70.267 Q1644.43 71.9684 1640.22 72.8596 Q1636.01 73.7508 1631.67 73.7508 Q1620.82 73.7508 1614.46 67.4314 Q1608.14 61.1119 1608.14 50.3365 Q1608.14 39.1965 1614.13 32.6746 Q1620.17 26.1121 1630.38 26.1121 Q1639.53 26.1121 1644.84 32.0264 Q1650.19 37.9003 1650.19 48.0275 M1642.73 45.84 Q1642.65 39.7232 1639.29 36.0774 Q1635.97 32.4315 1630.46 32.4315 Q1624.22 32.4315 1620.45 35.9558 Q1616.73 39.4801 1616.16 45.8805 L1642.73 45.84 Z" fill="#000000" fill-rule="evenodd" fill-opacity="1" /><polyline clip-path="url(#clip082)" style="stroke:#009af9; stroke-linecap:butt; stroke-linejoin:round; stroke-width:12; stroke-opacity:1; fill:none" points="
  218.754,723.735 221.865,827.998 227.049,986.251 237.419,1038.41 258.158,1117 299.637,974.395 382.593,1074 631.464,1181.92 1253.64,1285.52 2290.6,1333.23 
  
  "/>
<path clip-path="url(#clip082)" d="M218.754 739.735 L207.442 735.047 L202.754 723.735 L207.442 712.423 L218.754 707.735 L230.066 712.423 L234.754 723.735 L230.066 735.047 Z" fill="#009af9" fill-rule="evenodd" fill-opacity="1" stroke="#000000" stroke-opacity="1" stroke-width="3.2"/>
<path clip-path="url(#clip082)" d="M221.865 843.998 L210.553 839.31 L205.865 827.998 L210.553 816.686 L221.865 811.998 L233.177 816.686 L237.865 827.998 L233.177 839.31 Z" fill="#009af9" fill-rule="evenodd" fill-opacity="1" stroke="#000000" stroke-opacity="1" stroke-width="3.2"/>
<path clip-path="url(#clip082)" d="M227.049 1002.25 L215.737 997.563 L211.049 986.251 L215.737 974.939 L227.049 970.251 L238.361 974.939 L243.049 986.251 L238.361 997.563 Z" fill="#009af9" fill-rule="evenodd" fill-opacity="1" stroke="#000000" stroke-opacity="1" stroke-width="3.2"/>
<path clip-path="url(#clip082)" d="M237.419 1054.41 L226.107 1049.73 L221.419 1038.41 L226.107 1027.1 L237.419 1022.41 L248.731 1027.1 L253.419 1038.41 L248.731 1049.73 Z" fill="#009af9" fill-rule="evenodd" fill-opacity="1" stroke="#000000" stroke-opacity="1" stroke-width="3.2"/>
<path clip-path="url(#clip082)" d="M258.158 1133 L246.846 1128.31 L242.158 1117 L246.846 1105.69 L258.158 1101 L269.47 1105.69 L274.158 1117 L269.47 1128.31 Z" fill="#009af9" fill-rule="evenodd" fill-opacity="1" stroke="#000000" stroke-opacity="1" stroke-width="3.2"/>
<path clip-path="url(#clip082)" d="M299.637 990.395 L288.325 985.707 L283.637 974.395 L288.325 963.083 L299.637 958.395 L310.949 963.083 L315.637 974.395 L310.949 985.707 Z" fill="#009af9" fill-rule="evenodd" fill-opacity="1" stroke="#000000" stroke-opacity="1" stroke-width="3.2"/>
<path clip-path="url(#clip082)" d="M382.593 1090 L371.281 1085.31 L366.593 1074 L371.281 1062.69 L382.593 1058 L393.905 1062.69 L398.593 1074 L393.905 1085.31 Z" fill="#009af9" fill-rule="evenodd" fill-opacity="1" stroke="#000000" stroke-opacity="1" stroke-width="3.2"/>
<path clip-path="url(#clip082)" d="M631.464 1197.92 L620.152 1193.24 L615.464 1181.92 L620.152 1170.61 L631.464 1165.92 L642.776 1170.61 L647.464 1181.92 L642.776 1193.24 Z" fill="#009af9" fill-rule="evenodd" fill-opacity="1" stroke="#000000" stroke-opacity="1" stroke-width="3.2"/>
<path clip-path="url(#clip082)" d="M1253.64 1301.52 L1242.33 1296.83 L1237.64 1285.52 L1242.33 1274.2 L1253.64 1269.52 L1264.95 1274.2 L1269.64 1285.52 L1264.95 1296.83 Z" fill="#009af9" fill-rule="evenodd" fill-opacity="1" stroke="#000000" stroke-opacity="1" stroke-width="3.2"/>
<path clip-path="url(#clip082)" d="M2290.6 1349.23 L2279.29 1344.54 L2274.6 1333.23 L2279.29 1321.92 L2290.6 1317.23 L2301.91 1321.92 L2306.6 1333.23 L2301.91 1344.54 Z" fill="#009af9" fill-rule="evenodd" fill-opacity="1" stroke="#000000" stroke-opacity="1" stroke-width="3.2"/>
<polyline clip-path="url(#clip082)" style="stroke:#e26f46; stroke-linecap:butt; stroke-linejoin:round; stroke-width:12; stroke-opacity:1; fill:none" points="
  218.754,790.162 221.865,1204.2 227.049,1203.04 237.419,1271.31 258.158,1286.99 299.637,1378.18 382.593,1353.23 631.464,1385.1 1253.64,1414.44 2290.6,1441.9 
  
  "/>
<path clip-path="url(#clip082)" d="M218.754 806.162 L207.442 801.474 L202.754 790.162 L207.442 778.85 L218.754 774.162 L230.066 778.85 L234.754 790.162 L230.066 801.474 Z" fill="#e26f46" fill-rule="evenodd" fill-opacity="1" stroke="#000000" stroke-opacity="1" stroke-width="3.2"/>
<path clip-path="url(#clip082)" d="M221.865 1220.2 L210.553 1215.51 L205.865 1204.2 L210.553 1192.88 L221.865 1188.2 L233.177 1192.88 L237.865 1204.2 L233.177 1215.51 Z" fill="#e26f46" fill-rule="evenodd" fill-opacity="1" stroke="#000000" stroke-opacity="1" stroke-width="3.2"/>
<path clip-path="url(#clip082)" d="M227.049 1219.04 L215.737 1214.35 L211.049 1203.04 L215.737 1191.72 L227.049 1187.04 L238.361 1191.72 L243.049 1203.04 L238.361 1214.35 Z" fill="#e26f46" fill-rule="evenodd" fill-opacity="1" stroke="#000000" stroke-opacity="1" stroke-width="3.2"/>
<path clip-path="url(#clip082)" d="M237.419 1287.31 L226.107 1282.62 L221.419 1271.31 L226.107 1260 L237.419 1255.31 L248.731 1260 L253.419 1271.31 L248.731 1282.62 Z" fill="#e26f46" fill-rule="evenodd" fill-opacity="1" stroke="#000000" stroke-opacity="1" stroke-width="3.2"/>
<path clip-path="url(#clip082)" d="M258.158 1302.99 L246.846 1298.3 L242.158 1286.99 L246.846 1275.68 L258.158 1270.99 L269.47 1275.68 L274.158 1286.99 L269.47 1298.3 Z" fill="#e26f46" fill-rule="evenodd" fill-opacity="1" stroke="#000000" stroke-opacity="1" stroke-width="3.2"/>
<path clip-path="url(#clip082)" d="M299.637 1394.18 L288.325 1389.5 L283.637 1378.18 L288.325 1366.87 L299.637 1362.18 L310.949 1366.87 L315.637 1378.18 L310.949 1389.5 Z" fill="#e26f46" fill-rule="evenodd" fill-opacity="1" stroke="#000000" stroke-opacity="1" stroke-width="3.2"/>
<path clip-path="url(#clip082)" d="M382.593 1369.23 L371.281 1364.54 L366.593 1353.23 L371.281 1341.92 L382.593 1337.23 L393.905 1341.92 L398.593 1353.23 L393.905 1364.54 Z" fill="#e26f46" fill-rule="evenodd" fill-opacity="1" stroke="#000000" stroke-opacity="1" stroke-width="3.2"/>
<path clip-path="url(#clip082)" d="M631.464 1401.1 L620.152 1396.41 L615.464 1385.1 L620.152 1373.79 L631.464 1369.1 L642.776 1373.79 L647.464 1385.1 L642.776 1396.41 Z" fill="#e26f46" fill-rule="evenodd" fill-opacity="1" stroke="#000000" stroke-opacity="1" stroke-width="3.2"/>
<path clip-path="url(#clip082)" d="M1253.64 1430.44 L1242.33 1425.75 L1237.64 1414.44 L1242.33 1403.13 L1253.64 1398.44 L1264.95 1403.13 L1269.64 1414.44 L1264.95 1425.75 Z" fill="#e26f46" fill-rule="evenodd" fill-opacity="1" stroke="#000000" stroke-opacity="1" stroke-width="3.2"/>
<path clip-path="url(#clip082)" d="M2290.6 1457.9 L2279.29 1453.22 L2274.6 1441.9 L2279.29 1430.59 L2290.6 1425.9 L2301.91 1430.59 L2306.6 1441.9 L2301.91 1453.22 Z" fill="#e26f46" fill-rule="evenodd" fill-opacity="1" stroke="#000000" stroke-opacity="1" stroke-width="3.2"/>
<polyline clip-path="url(#clip082)" style="stroke:#3da44d; stroke-linecap:butt; stroke-linejoin:round; stroke-width:12; stroke-opacity:1; fill:none" points="
  218.754,1347.09 221.865,1391.69 227.049,1436.06 237.419,1419.52 258.158,1434.28 299.637,1459.09 382.593,1468.68 631.464,1474.52 1253.64,1478.3 2290.6,1483.39 
  
  "/>
<path clip-path="url(#clip082)" d="M218.754 1363.09 L207.442 1358.4 L202.754 1347.09 L207.442 1335.78 L218.754 1331.09 L230.066 1335.78 L234.754 1347.09 L230.066 1358.4 Z" fill="#3da44d" fill-rule="evenodd" fill-opacity="1" stroke="#000000" stroke-opacity="1" stroke-width="3.2"/>
<path clip-path="url(#clip082)" d="M221.865 1407.69 L210.553 1403 L205.865 1391.69 L210.553 1380.38 L221.865 1375.69 L233.177 1380.38 L237.865 1391.69 L233.177 1403 Z" fill="#3da44d" fill-rule="evenodd" fill-opacity="1" stroke="#000000" stroke-opacity="1" stroke-width="3.2"/>
<path clip-path="url(#clip082)" d="M227.049 1452.06 L215.737 1447.37 L211.049 1436.06 L215.737 1424.75 L227.049 1420.06 L238.361 1424.75 L243.049 1436.06 L238.361 1447.37 Z" fill="#3da44d" fill-rule="evenodd" fill-opacity="1" stroke="#000000" stroke-opacity="1" stroke-width="3.2"/>
<path clip-path="url(#clip082)" d="M237.419 1435.52 L226.107 1430.83 L221.419 1419.52 L226.107 1408.21 L237.419 1403.52 L248.731 1408.21 L253.419 1419.52 L248.731 1430.83 Z" fill="#3da44d" fill-rule="evenodd" fill-opacity="1" stroke="#000000" stroke-opacity="1" stroke-width="3.2"/>
<path clip-path="url(#clip082)" d="M258.158 1450.28 L246.846 1445.59 L242.158 1434.28 L246.846 1422.96 L258.158 1418.28 L269.47 1422.96 L274.158 1434.28 L269.47 1445.59 Z" fill="#3da44d" fill-rule="evenodd" fill-opacity="1" stroke="#000000" stroke-opacity="1" stroke-width="3.2"/>
<path clip-path="url(#clip082)" d="M299.637 1475.09 L288.325 1470.4 L283.637 1459.09 L288.325 1447.77 L299.637 1443.09 L310.949 1447.77 L315.637 1459.09 L310.949 1470.4 Z" fill="#3da44d" fill-rule="evenodd" fill-opacity="1" stroke="#000000" stroke-opacity="1" stroke-width="3.2"/>
<path clip-path="url(#clip082)" d="M382.593 1484.68 L371.281 1479.99 L366.593 1468.68 L371.281 1457.37 L382.593 1452.68 L393.905 1457.37 L398.593 1468.68 L393.905 1479.99 Z" fill="#3da44d" fill-rule="evenodd" fill-opacity="1" stroke="#000000" stroke-opacity="1" stroke-width="3.2"/>
<path clip-path="url(#clip082)" d="M631.464 1490.52 L620.152 1485.83 L615.464 1474.52 L620.152 1463.21 L631.464 1458.52 L642.776 1463.21 L647.464 1474.52 L642.776 1485.83 Z" fill="#3da44d" fill-rule="evenodd" fill-opacity="1" stroke="#000000" stroke-opacity="1" stroke-width="3.2"/>
<path clip-path="url(#clip082)" d="M1253.64 1494.3 L1242.33 1489.61 L1237.64 1478.3 L1242.33 1466.98 L1253.64 1462.3 L1264.95 1466.98 L1269.64 1478.3 L1264.95 1489.61 Z" fill="#3da44d" fill-rule="evenodd" fill-opacity="1" stroke="#000000" stroke-opacity="1" stroke-width="3.2"/>
<path clip-path="url(#clip082)" d="M2290.6 1499.39 L2279.29 1494.7 L2274.6 1483.39 L2279.29 1472.08 L2290.6 1467.39 L2301.91 1472.08 L2306.6 1483.39 L2301.91 1494.7 Z" fill="#3da44d" fill-rule="evenodd" fill-opacity="1" stroke="#000000" stroke-opacity="1" stroke-width="3.2"/>
<path clip-path="url(#clip080)" d="
M1946.64 376.265 L2279.55 376.265 L2279.55 168.905 L1946.64 168.905  Z
  " fill="#ffffff" fill-rule="evenodd" fill-opacity="1"/>
<polyline clip-path="url(#clip080)" style="stroke:#000000; stroke-linecap:butt; stroke-linejoin:round; stroke-width:4; stroke-opacity:1; fill:none" points="
  1946.64,376.265 2279.55,376.265 2279.55,168.905 1946.64,168.905 1946.64,376.265 
  "/>
<polyline clip-path="url(#clip080)" style="stroke:#009af9; stroke-linecap:butt; stroke-linejoin:round; stroke-width:4; stroke-opacity:1; fill:none" points="
  1971.05,220.745 2117.46,220.745 
  "/>
<path clip-path="url(#clip080)" d="M2044.25 246.345 L2026.15 238.844 L2018.65 220.745 L2026.15 202.645 L2044.25 195.145 L2062.35 202.645 L2069.85 220.745 L2062.35 238.844 Z" fill="#009af9" fill-rule="evenodd" fill-opacity="1" stroke="#000000" stroke-opacity="1" stroke-width="5.12"/>
<path clip-path="url(#clip080)" d="M2141.86 202.006 L2146.14 202.006 L2146.14 223.279 L2158.85 212.099 L2164.29 212.099 L2150.54 224.228 L2164.87 238.025 L2159.31 238.025 L2146.14 225.363 L2146.14 238.025 L2141.86 238.025 L2141.86 202.006 Z" fill="#000000" fill-rule="evenodd" fill-opacity="1" /><path clip-path="url(#clip080)" d="M2170.03 216.497 L2199.71 216.497 L2199.71 220.386 L2170.03 220.386 L2170.03 216.497 M2170.03 225.941 L2199.71 225.941 L2199.71 229.877 L2170.03 229.877 L2170.03 225.941 Z" fill="#000000" fill-rule="evenodd" fill-opacity="1" /><path clip-path="url(#clip080)" d="M2210.61 234.089 L2218.25 234.089 L2218.25 207.724 L2209.94 209.391 L2209.94 205.131 L2218.2 203.465 L2222.88 203.465 L2222.88 234.089 L2230.52 234.089 L2230.52 238.025 L2210.61 238.025 L2210.61 234.089 Z" fill="#000000" fill-rule="evenodd" fill-opacity="1" /><polyline clip-path="url(#clip080)" style="stroke:#e26f46; stroke-linecap:butt; stroke-linejoin:round; stroke-width:4; stroke-opacity:1; fill:none" points="
  1971.05,272.585 2117.46,272.585 
  "/>
<path clip-path="url(#clip080)" d="M2044.25 298.185 L2026.15 290.684 L2018.65 272.585 L2026.15 254.485 L2044.25 246.985 L2062.35 254.485 L2069.85 272.585 L2062.35 290.684 Z" fill="#e26f46" fill-rule="evenodd" fill-opacity="1" stroke="#000000" stroke-opacity="1" stroke-width="5.12"/>
<path clip-path="url(#clip080)" d="M2141.86 253.846 L2146.14 253.846 L2146.14 275.119 L2158.85 263.939 L2164.29 263.939 L2150.54 276.068 L2164.87 289.865 L2159.31 289.865 L2146.14 277.203 L2146.14 289.865 L2141.86 289.865 L2141.86 253.846 Z" fill="#000000" fill-rule="evenodd" fill-opacity="1" /><path clip-path="url(#clip080)" d="M2170.03 268.337 L2199.71 268.337 L2199.71 272.226 L2170.03 272.226 L2170.03 268.337 M2170.03 277.781 L2199.71 277.781 L2199.71 281.717 L2170.03 281.717 L2170.03 277.781 Z" fill="#000000" fill-rule="evenodd" fill-opacity="1" /><path clip-path="url(#clip080)" d="M2213.83 285.929 L2230.15 285.929 L2230.15 289.865 L2208.2 289.865 L2208.2 285.929 Q2210.86 283.175 2215.45 278.545 Q2220.05 273.893 2221.23 272.55 Q2223.48 270.027 2224.36 268.291 Q2225.26 266.531 2225.26 264.842 Q2225.26 262.087 2223.32 260.351 Q2221.4 258.615 2218.29 258.615 Q2216.09 258.615 2213.64 259.379 Q2211.21 260.143 2208.43 261.694 L2208.43 256.971 Q2211.26 255.837 2213.71 255.258 Q2216.16 254.68 2218.2 254.68 Q2223.57 254.68 2226.77 257.365 Q2229.96 260.05 2229.96 264.541 Q2229.96 266.67 2229.15 268.592 Q2228.36 270.49 2226.26 273.082 Q2225.68 273.754 2222.58 276.971 Q2219.47 280.166 2213.83 285.929 Z" fill="#000000" fill-rule="evenodd" fill-opacity="1" /><polyline clip-path="url(#clip080)" style="stroke:#3da44d; stroke-linecap:butt; stroke-linejoin:round; stroke-width:4; stroke-opacity:1; fill:none" points="
  1971.05,324.425 2117.46,324.425 
  "/>
<path clip-path="url(#clip080)" d="M2044.25 350.025 L2026.15 342.524 L2018.65 324.425 L2026.15 306.325 L2044.25 298.825 L2062.35 306.325 L2069.85 324.425 L2062.35 342.524 Z" fill="#3da44d" fill-rule="evenodd" fill-opacity="1" stroke="#000000" stroke-opacity="1" stroke-width="5.12"/>
<path clip-path="url(#clip080)" d="M2141.86 305.686 L2146.14 305.686 L2146.14 326.959 L2158.85 315.779 L2164.29 315.779 L2150.54 327.908 L2164.87 341.705 L2159.31 341.705 L2146.14 329.043 L2146.14 341.705 L2141.86 341.705 L2141.86 305.686 Z" fill="#000000" fill-rule="evenodd" fill-opacity="1" /><path clip-path="url(#clip080)" d="M2170.03 320.177 L2199.71 320.177 L2199.71 324.066 L2170.03 324.066 L2170.03 320.177 M2170.03 329.621 L2199.71 329.621 L2199.71 333.557 L2170.03 333.557 L2170.03 329.621 Z" fill="#000000" fill-rule="evenodd" fill-opacity="1" /><path clip-path="url(#clip080)" d="M2209.84 307.145 L2228.2 307.145 L2228.2 311.08 L2214.13 311.08 L2214.13 319.552 Q2215.15 319.205 2216.16 319.043 Q2217.18 318.858 2218.2 318.858 Q2223.99 318.858 2227.37 322.029 Q2230.75 325.2 2230.75 330.617 Q2230.75 336.195 2227.27 339.297 Q2223.8 342.376 2217.48 342.376 Q2215.31 342.376 2213.04 342.006 Q2210.79 341.635 2208.39 340.894 L2208.39 336.195 Q2210.47 337.33 2212.69 337.885 Q2214.91 338.441 2217.39 338.441 Q2221.4 338.441 2223.73 336.334 Q2226.07 334.228 2226.07 330.617 Q2226.07 327.006 2223.73 324.899 Q2221.4 322.793 2217.39 322.793 Q2215.52 322.793 2213.64 323.209 Q2211.79 323.626 2209.84 324.506 L2209.84 307.145 Z" fill="#000000" fill-rule="evenodd" fill-opacity="1" /></svg>
