<?xml version="1.0" encoding="utf-8"?>
<svg xmlns="http://www.w3.org/2000/svg" xmlns:xlink="http://www.w3.org/1999/xlink" width="600" height="400" viewBox="0 0 2400 1600">
<defs>
  <clipPath id="clip940">
    <rect x="0" y="0" width="2400" height="1600"/>
  </clipPath>
</defs>
<path clip-path="url(#clip940)" d="
M0 1600 L2400 1600 L2400 0 L0 0  Z
  " fill="#ffffff" fill-rule="evenodd" fill-opacity="1"/>
<defs>
  <clipPath id="clip941">
    <rect x="480" y="0" width="1681" height="1600"/>
  </clipPath>
</defs>
<path clip-path="url(#clip940)" d="
M280.19 1423.18 L2352.76 1423.18 L2352.76 123.472 L280.19 123.472  Z
  " fill="#ffffff" fill-rule="evenodd" fill-opacity="1"/>
<defs>
  <clipPath id="clip942">
    <rect x="280" y="123" width="2074" height="1301"/>
  </clipPath>
</defs>
<polyline clip-path="url(#clip942)" style="stroke:#000000; stroke-linecap:butt; stroke-linejoin:round; stroke-width:2; stroke-opacity:0.1; fill:none" points="
  750.479,1423.18 750.479,123.472 
  "/>
<polyline clip-path="url(#clip942)" style="stroke:#000000; stroke-linecap:butt; stroke-linejoin:round; stroke-width:2; stroke-opacity:0.1; fill:none" points="
  1265.02,1423.18 1265.02,123.472 
  "/>
<polyline clip-path="url(#clip942)" style="stroke:#000000; stroke-linecap:butt; stroke-linejoin:round; stroke-width:2; stroke-opacity:0.1; fill:none" points="
  1779.56,1423.18 1779.56,123.472 
  "/>
<polyline clip-path="url(#clip942)" style="stroke:#000000; stroke-linecap:butt; stroke-linejoin:round; stroke-width:2; stroke-opacity:0.1; fill:none" points="
  2294.1,1423.18 2294.1,123.472 
  "/>
<polyline clip-path="url(#clip940)" style="stroke:#000000; stroke-linecap:butt; stroke-linejoin:round; stroke-width:4; stroke-opacity:1; fill:none" points="
  280.19,1423.18 2352.76,1423.18 
  "/>
<polyline clip-path="url(#clip940)" style="stroke:#000000; stroke-linecap:butt; stroke-linejoin:round; stroke-width:4; stroke-opacity:1; fill:none" points="
  750.479,1423.18 750.479,1404.28 
  "/>
<polyline clip-path="url(#clip940)" style="stroke:#000000; stroke-linecap:butt; stroke-linejoin:round; stroke-width:4; stroke-opacity:1; fill:none" points="
  1265.02,1423.18 1265.02,1404.28 
  "/>
<polyline clip-path="url(#clip940)" style="stroke:#000000; stroke-linecap:butt; stroke-linejoin:round; stroke-width:4; stroke-opacity:1; fill:none" points="
  1779.56,1423.18 1779.56,1404.28 
  "/>
<polyline clip-path="url(#clip940)" style="stroke:#000000; stroke-linecap:butt; stroke-linejoin:round; stroke-width:4; stroke-opacity:1; fill:none" points="
  2294.1,1423.18 2294.1,1404.28 
  "/>
<path clip-path="url(#clip940)" d="M710.098 1451.02 L728.454 1451.02 L728.454 1454.96 L714.38 1454.96 L714.38 1463.43 Q715.398 1463.08 716.417 1462.92 Q717.435 1462.73 718.454 1462.73 Q724.241 1462.73 727.621 1465.9 Q731 1469.08 731 1474.49 Q731 1480.07 727.528 1483.17 Q724.056 1486.25 717.736 1486.25 Q715.561 1486.25 713.292 1485.88 Q711.047 1485.51 708.639 1484.77 L708.639 1480.07 Q710.723 1481.2 712.945 1481.76 Q715.167 1482.32 717.644 1482.32 Q721.648 1482.32 723.986 1480.21 Q726.324 1478.1 726.324 1474.49 Q726.324 1470.88 723.986 1468.77 Q721.648 1466.67 717.644 1466.67 Q715.769 1466.67 713.894 1467.08 Q712.042 1467.5 710.098 1468.38 L710.098 1451.02 Z" fill="#000000" fill-rule="evenodd" fill-opacity="1" /><path clip-path="url(#clip940)" d="M750.213 1454.1 Q746.602 1454.1 744.773 1457.66 Q742.968 1461.2 742.968 1468.33 Q742.968 1475.44 744.773 1479.01 Q746.602 1482.55 750.213 1482.55 Q753.847 1482.55 755.653 1479.01 Q757.482 1475.44 757.482 1468.33 Q757.482 1461.2 755.653 1457.66 Q753.847 1454.1 750.213 1454.1 M750.213 1450.39 Q756.023 1450.39 759.079 1455 Q762.157 1459.58 762.157 1468.33 Q762.157 1477.06 759.079 1481.67 Q756.023 1486.25 750.213 1486.25 Q744.403 1486.25 741.324 1481.67 Q738.269 1477.06 738.269 1468.33 Q738.269 1459.58 741.324 1455 Q744.403 1450.39 750.213 1450.39 Z" fill="#000000" fill-rule="evenodd" fill-opacity="1" /><path clip-path="url(#clip940)" d="M780.375 1454.1 Q776.764 1454.1 774.935 1457.66 Q773.13 1461.2 773.13 1468.33 Q773.13 1475.44 774.935 1479.01 Q776.764 1482.55 780.375 1482.55 Q784.009 1482.55 785.815 1479.01 Q787.643 1475.44 787.643 1468.33 Q787.643 1461.2 785.815 1457.66 Q784.009 1454.1 780.375 1454.1 M780.375 1450.39 Q786.185 1450.39 789.241 1455 Q792.319 1459.58 792.319 1468.33 Q792.319 1477.06 789.241 1481.67 Q786.185 1486.25 780.375 1486.25 Q774.565 1486.25 771.486 1481.67 Q768.431 1477.06 768.431 1468.33 Q768.431 1459.58 771.486 1455 Q774.565 1450.39 780.375 1450.39 Z" fill="#000000" fill-rule="evenodd" fill-opacity="1" /><path clip-path="url(#clip940)" d="M1209.54 1481.64 L1217.18 1481.64 L1217.18 1455.28 L1208.87 1456.95 L1208.87 1452.69 L1217.14 1451.02 L1221.81 1451.02 L1221.81 1481.64 L1229.45 1481.64 L1229.45 1485.58 L1209.54 1485.58 L1209.54 1481.64 Z" fill="#000000" fill-rule="evenodd" fill-opacity="1" /><path clip-path="url(#clip940)" d="M1248.9 1454.1 Q1245.29 1454.1 1243.46 1457.66 Q1241.65 1461.2 1241.65 1468.33 Q1241.65 1475.44 1243.46 1479.01 Q1245.29 1482.55 1248.9 1482.55 Q1252.53 1482.55 1254.34 1479.01 Q1256.16 1475.44 1256.16 1468.33 Q1256.16 1461.2 1254.34 1457.66 Q1252.53 1454.1 1248.9 1454.1 M1248.9 1450.39 Q1254.71 1450.39 1257.76 1455 Q1260.84 1459.58 1260.84 1468.33 Q1260.84 1477.06 1257.76 1481.67 Q1254.71 1486.25 1248.9 1486.25 Q1243.09 1486.25 1240.01 1481.67 Q1236.95 1477.06 1236.95 1468.33 Q1236.95 1459.58 1240.01 1455 Q1243.09 1450.39 1248.9 1450.39 Z" fill="#000000" fill-rule="evenodd" fill-opacity="1" /><path clip-path="url(#clip940)" d="M1279.06 1454.1 Q1275.45 1454.1 1273.62 1457.66 Q1271.81 1461.2 1271.81 1468.33 Q1271.81 1475.44 1273.62 1479.01 Q1275.45 1482.55 1279.06 1482.55 Q1282.69 1482.55 1284.5 1479.01 Q1286.33 1475.44 1286.33 1468.33 Q1286.33 1461.2 1284.5 1457.66 Q1282.69 1454.1 1279.06 1454.1 M1279.06 1450.39 Q1284.87 1450.39 1287.92 1455 Q1291 1459.58 1291 1468.33 Q1291 1477.06 1287.92 1481.67 Q1284.87 1486.25 1279.06 1486.25 Q1273.25 1486.25 1270.17 1481.67 Q1267.11 1477.06 1267.11 1468.33 Q1267.11 1459.58 1270.17 1455 Q1273.25 1450.39 1279.06 1450.39 Z" fill="#000000" fill-rule="evenodd" fill-opacity="1" /><path clip-path="url(#clip940)" d="M1309.22 1454.1 Q1305.61 1454.1 1303.78 1457.66 Q1301.97 1461.2 1301.97 1468.33 Q1301.97 1475.44 1303.78 1479.01 Q1305.61 1482.55 1309.22 1482.55 Q1312.85 1482.55 1314.66 1479.01 Q1316.49 1475.44 1316.49 1468.33 Q1316.49 1461.2 1314.66 1457.66 Q1312.85 1454.1 1309.22 1454.1 M1309.22 1450.39 Q1315.03 1450.39 1318.09 1455 Q1321.16 1459.58 1321.16 1468.33 Q1321.16 1477.06 1318.09 1481.67 Q1315.03 1486.25 1309.22 1486.25 Q1303.41 1486.25 1300.33 1481.67 Q1297.28 1477.06 1297.28 1468.33 Q1297.28 1459.58 1300.33 1455 Q1303.41 1450.39 1309.22 1450.39 Z" fill="#000000" fill-rule="evenodd" fill-opacity="1" /><path clip-path="url(#clip940)" d="M1724.08 1481.64 L1731.72 1481.64 L1731.72 1455.28 L1723.41 1456.95 L1723.41 1452.69 L1731.68 1451.02 L1736.35 1451.02 L1736.35 1481.64 L1743.99 1481.64 L1743.99 1485.58 L1724.08 1485.58 L1724.08 1481.64 Z" fill="#000000" fill-rule="evenodd" fill-opacity="1" /><path clip-path="url(#clip940)" d="M1753.48 1451.02 L1771.84 1451.02 L1771.84 1454.96 L1757.76 1454.96 L1757.76 1463.43 Q1758.78 1463.08 1759.8 1462.92 Q1760.82 1462.73 1761.84 1462.73 Q1767.63 1462.73 1771.01 1465.9 Q1774.39 1469.08 1774.39 1474.49 Q1774.39 1480.07 1770.91 1483.17 Q1767.44 1486.25 1761.12 1486.25 Q1758.95 1486.25 1756.68 1485.88 Q1754.43 1485.51 1752.02 1484.77 L1752.02 1480.07 Q1754.11 1481.2 1756.33 1481.76 Q1758.55 1482.32 1761.03 1482.32 Q1765.03 1482.32 1767.37 1480.21 Q1769.71 1478.1 1769.71 1474.49 Q1769.71 1470.88 1767.37 1468.77 Q1765.03 1466.67 1761.03 1466.67 Q1759.15 1466.67 1757.28 1467.08 Q1755.43 1467.5 1753.48 1468.38 L1753.48 1451.02 Z" fill="#000000" fill-rule="evenodd" fill-opacity="1" /><path clip-path="url(#clip940)" d="M1793.6 1454.1 Q1789.99 1454.1 1788.16 1457.66 Q1786.35 1461.2 1786.35 1468.33 Q1786.35 1475.44 1788.16 1479.01 Q1789.99 1482.55 1793.6 1482.55 Q1797.23 1482.55 1799.04 1479.01 Q1800.87 1475.44 1800.87 1468.33 Q1800.87 1461.2 1799.04 1457.66 Q1797.23 1454.1 1793.6 1454.1 M1793.6 1450.39 Q1799.41 1450.39 1802.46 1455 Q1805.54 1459.58 1805.54 1468.33 Q1805.54 1477.06 1802.46 1481.67 Q1799.41 1486.25 1793.6 1486.25 Q1787.79 1486.25 1784.71 1481.67 Q1781.65 1477.06 1781.65 1468.33 Q1781.65 1459.58 1784.71 1455 Q1787.79 1450.39 1793.6 1450.39 Z" fill="#000000" fill-rule="evenodd" fill-opacity="1" /><path clip-path="url(#clip940)" d="M1823.76 1454.1 Q1820.15 1454.1 1818.32 1457.66 Q1816.51 1461.2 1816.51 1468.33 Q1816.51 1475.44 1818.32 1479.01 Q1820.15 1482.55 1823.76 1482.55 Q1827.39 1482.55 1829.2 1479.01 Q1831.03 1475.44 1831.03 1468.33 Q1831.03 1461.2 1829.2 1457.66 Q1827.39 1454.1 1823.76 1454.1 M1823.76 1450.39 Q1829.57 1450.39 1832.63 1455 Q1835.7 1459.58 1835.7 1468.33 Q1835.7 1477.06 1832.63 1481.67 Q1829.57 1486.25 1823.76 1486.25 Q1817.95 1486.25 1814.87 1481.67 Q1811.82 1477.06 1811.82 1468.33 Q1811.82 1459.58 1814.87 1455 Q1817.95 1450.39 1823.76 1450.39 Z" fill="#000000" fill-rule="evenodd" fill-opacity="1" /><path clip-path="url(#clip940)" d="M2242.71 1481.64 L2259.03 1481.64 L2259.03 1485.58 L2237.08 1485.58 L2237.08 1481.64 Q2239.75 1478.89 2244.33 1474.26 Q2248.94 1469.61 2250.12 1468.27 Q2252.36 1465.74 2253.24 1464.01 Q2254.14 1462.25 2254.14 1460.56 Q2254.14 1457.8 2252.2 1456.07 Q2250.28 1454.33 2247.18 1454.33 Q2244.98 1454.33 2242.52 1455.09 Q2240.09 1455.86 2237.32 1457.41 L2237.32 1452.69 Q2240.14 1451.55 2242.59 1450.97 Q2245.05 1450.39 2247.08 1450.39 Q2252.46 1450.39 2255.65 1453.08 Q2258.84 1455.77 2258.84 1460.26 Q2258.84 1462.39 2258.03 1464.31 Q2257.25 1466.2 2255.14 1468.8 Q2254.56 1469.47 2251.46 1472.69 Q2248.36 1475.88 2242.71 1481.64 Z" fill="#000000" fill-rule="evenodd" fill-opacity="1" /><path clip-path="url(#clip940)" d="M2278.84 1454.1 Q2275.23 1454.1 2273.4 1457.66 Q2271.6 1461.2 2271.6 1468.33 Q2271.6 1475.44 2273.4 1479.01 Q2275.23 1482.55 2278.84 1482.55 Q2282.48 1482.55 2284.28 1479.01 Q2286.11 1475.44 2286.11 1468.33 Q2286.11 1461.2 2284.28 1457.66 Q2282.48 1454.1 2278.84 1454.1 M2278.84 1450.39 Q2284.65 1450.39 2287.71 1455 Q2290.79 1459.58 2290.79 1468.33 Q2290.79 1477.06 2287.71 1481.67 Q2284.65 1486.25 2278.84 1486.25 Q2273.03 1486.25 2269.95 1481.67 Q2266.9 1477.06 2266.9 1468.33 Q2266.9 1459.58 2269.95 1455 Q2273.03 1450.39 2278.84 1450.39 Z" fill="#000000" fill-rule="evenodd" fill-opacity="1" /><path clip-path="url(#clip940)" d="M2309.01 1454.1 Q2305.39 1454.1 2303.57 1457.66 Q2301.76 1461.2 2301.76 1468.33 Q2301.76 1475.44 2303.57 1479.01 Q2305.39 1482.55 2309.01 1482.55 Q2312.64 1482.55 2314.45 1479.01 Q2316.27 1475.44 2316.27 1468.33 Q2316.27 1461.2 2314.45 1457.66 Q2312.64 1454.1 2309.01 1454.1 M2309.01 1450.39 Q2314.82 1450.39 2317.87 1455 Q2320.95 1459.58 2320.95 1468.33 Q2320.95 1477.06 2317.87 1481.67 Q2314.82 1486.25 2309.01 1486.25 Q2303.2 1486.25 2300.12 1481.67 Q2297.06 1477.06 2297.06 1468.33 Q2297.06 1459.58 2300.12 1455 Q2303.2 1450.39 2309.01 1450.39 Z" fill="#000000" fill-rule="evenodd" fill-opacity="1" /><path clip-path="url(#clip940)" d="M2339.17 1454.1 Q2335.56 1454.1 2333.73 1457.66 Q2331.92 1461.2 2331.92 1468.33 Q2331.92 1475.44 2333.73 1479.01 Q2335.56 1482.55 2339.17 1482.55 Q2342.8 1482.55 2344.61 1479.01 Q2346.44 1475.44 2346.44 1468.33 Q2346.44 1461.2 2344.61 1457.66 Q2342.8 1454.1 2339.17 1454.1 M2339.17 1450.39 Q2344.98 1450.39 2348.03 1455 Q2351.11 1459.58 2351.11 1468.33 Q2351.11 1477.06 2348.03 1481.67 Q2344.98 1486.25 2339.17 1486.25 Q2333.36 1486.25 2330.28 1481.67 Q2327.22 1477.06 2327.22 1468.33 Q2327.22 1459.58 2330.28 1455 Q2333.36 1450.39 2339.17 1450.39 Z" fill="#000000" fill-rule="evenodd" fill-opacity="1" /><path clip-path="url(#clip940)" d="M1331.4 1546.53 L1331.4 1568.04 L1325.54 1568.04 L1325.54 1546.72 Q1325.54 1541.66 1323.57 1539.14 Q1321.6 1536.63 1317.65 1536.63 Q1312.91 1536.63 1310.17 1539.65 Q1307.43 1542.68 1307.43 1547.9 L1307.43 1568.04 L1301.55 1568.04 L1301.55 1532.4 L1307.43 1532.4 L1307.43 1537.93 Q1309.53 1534.72 1312.37 1533.13 Q1315.23 1531.54 1318.96 1531.54 Q1325.1 1531.54 1328.25 1535.36 Q1331.4 1539.14 1331.4 1546.53 Z" fill="#000000" fill-rule="evenodd" fill-opacity="1" /><polyline clip-path="url(#clip942)" style="stroke:#000000; stroke-linecap:butt; stroke-linejoin:round; stroke-width:2; stroke-opacity:0.1; fill:none" points="
  280.19,1386.4 2352.76,1386.4 
  "/>
<polyline clip-path="url(#clip942)" style="stroke:#000000; stroke-linecap:butt; stroke-linejoin:round; stroke-width:2; stroke-opacity:0.1; fill:none" points="
  280.19,1082.15 2352.76,1082.15 
  "/>
<polyline clip-path="url(#clip942)" style="stroke:#000000; stroke-linecap:butt; stroke-linejoin:round; stroke-width:2; stroke-opacity:0.1; fill:none" points="
  280.19,777.903 2352.76,777.903 
  "/>
<polyline clip-path="url(#clip942)" style="stroke:#000000; stroke-linecap:butt; stroke-linejoin:round; stroke-width:2; stroke-opacity:0.1; fill:none" points="
  280.19,473.657 2352.76,473.657 
  "/>
<polyline clip-path="url(#clip942)" style="stroke:#000000; stroke-linecap:butt; stroke-linejoin:round; stroke-width:2; stroke-opacity:0.1; fill:none" points="
  280.19,169.411 2352.76,169.411 
  "/>
<polyline clip-path="url(#clip940)" style="stroke:#000000; stroke-linecap:butt; stroke-linejoin:round; stroke-width:4; stroke-opacity:1; fill:none" points="
  280.19,1423.18 280.19,123.472 
  "/>
<polyline clip-path="url(#clip940)" style="stroke:#000000; stroke-linecap:butt; stroke-linejoin:round; stroke-width:4; stroke-opacity:1; fill:none" points="
  280.19,1386.4 299.088,1386.4 
  "/>
<polyline clip-path="url(#clip940)" style="stroke:#000000; stroke-linecap:butt; stroke-linejoin:round; stroke-width:4; stroke-opacity:1; fill:none" points="
  280.19,1082.15 299.088,1082.15 
  "/>
<polyline clip-path="url(#clip940)" style="stroke:#000000; stroke-linecap:butt; stroke-linejoin:round; stroke-width:4; stroke-opacity:1; fill:none" points="
  280.19,777.903 299.088,777.903 
  "/>
<polyline clip-path="url(#clip940)" style="stroke:#000000; stroke-linecap:butt; stroke-linejoin:round; stroke-width:4; stroke-opacity:1; fill:none" points="
  280.19,473.657 299.088,473.657 
  "/>
<polyline clip-path="url(#clip940)" style="stroke:#000000; stroke-linecap:butt; stroke-linejoin:round; stroke-width:4; stroke-opacity:1; fill:none" points="
  280.19,169.411 299.088,169.411 
  "/>
<path clip-path="url(#clip940)" d="M126.691 1372.19 Q123.08 1372.19 121.251 1375.76 Q119.445 1379.3 119.445 1386.43 Q119.445 1393.54 121.251 1397.1 Q123.08 1400.64 126.691 1400.64 Q130.325 1400.64 132.13 1397.1 Q133.959 1393.54 133.959 1386.43 Q133.959 1379.3 132.13 1375.76 Q130.325 1372.19 126.691 1372.19 M126.691 1368.49 Q132.501 1368.49 135.556 1373.1 Q138.635 1377.68 138.635 1386.43 Q138.635 1395.16 135.556 1399.76 Q132.501 1404.35 126.691 1404.35 Q120.88 1404.35 117.802 1399.76 Q114.746 1395.16 114.746 1386.43 Q114.746 1377.68 117.802 1373.1 Q120.88 1368.49 126.691 1368.49 Z" fill="#000000" fill-rule="evenodd" fill-opacity="1" /><path clip-path="url(#clip940)" d="M146.853 1397.8 L151.737 1397.8 L151.737 1403.68 L146.853 1403.68 L146.853 1397.8 Z" fill="#000000" fill-rule="evenodd" fill-opacity="1" /><path clip-path="url(#clip940)" d="M171.922 1372.19 Q168.311 1372.19 166.482 1375.76 Q164.677 1379.3 164.677 1386.43 Q164.677 1393.54 166.482 1397.1 Q168.311 1400.64 171.922 1400.64 Q175.556 1400.64 177.362 1397.1 Q179.19 1393.54 179.19 1386.43 Q179.19 1379.3 177.362 1375.76 Q175.556 1372.19 171.922 1372.19 M171.922 1368.49 Q177.732 1368.49 180.788 1373.1 Q183.866 1377.68 183.866 1386.43 Q183.866 1395.16 180.788 1399.76 Q177.732 1404.35 171.922 1404.35 Q166.112 1404.35 163.033 1399.76 Q159.978 1395.16 159.978 1386.43 Q159.978 1377.68 163.033 1373.1 Q166.112 1368.49 171.922 1368.49 Z" fill="#000000" fill-rule="evenodd" fill-opacity="1" /><path clip-path="url(#clip940)" d="M202.084 1372.19 Q198.473 1372.19 196.644 1375.76 Q194.838 1379.3 194.838 1386.43 Q194.838 1393.54 196.644 1397.1 Q198.473 1400.64 202.084 1400.64 Q205.718 1400.64 207.524 1397.1 Q209.352 1393.54 209.352 1386.43 Q209.352 1379.3 207.524 1375.76 Q205.718 1372.19 202.084 1372.19 M202.084 1368.49 Q207.894 1368.49 210.949 1373.1 Q214.028 1377.68 214.028 1386.43 Q214.028 1395.16 210.949 1399.76 Q207.894 1404.35 202.084 1404.35 Q196.274 1404.35 193.195 1399.76 Q190.139 1395.16 190.139 1386.43 Q190.139 1377.68 193.195 1373.1 Q196.274 1368.49 202.084 1368.49 Z" fill="#000000" fill-rule="evenodd" fill-opacity="1" /><path clip-path="url(#clip940)" d="M232.246 1372.19 Q228.635 1372.19 226.806 1375.76 Q225 1379.3 225 1386.43 Q225 1393.54 226.806 1397.1 Q228.635 1400.64 232.246 1400.64 Q235.88 1400.64 237.685 1397.1 Q239.514 1393.54 239.514 1386.43 Q239.514 1379.3 237.685 1375.76 Q235.88 1372.19 232.246 1372.19 M232.246 1368.49 Q238.056 1368.49 241.111 1373.1 Q244.19 1377.68 244.19 1386.43 Q244.19 1395.16 241.111 1399.76 Q238.056 1404.35 232.246 1404.35 Q226.435 1404.35 223.357 1399.76 Q220.301 1395.16 220.301 1386.43 Q220.301 1377.68 223.357 1373.1 Q226.435 1368.49 232.246 1368.49 Z" fill="#000000" fill-rule="evenodd" fill-opacity="1" /><path clip-path="url(#clip940)" d="M127.917 1067.95 Q124.306 1067.95 122.478 1071.51 Q120.672 1075.05 120.672 1082.18 Q120.672 1089.29 122.478 1092.86 Q124.306 1096.4 127.917 1096.4 Q131.552 1096.4 133.357 1092.86 Q135.186 1089.29 135.186 1082.18 Q135.186 1075.05 133.357 1071.51 Q131.552 1067.95 127.917 1067.95 M127.917 1064.24 Q133.728 1064.24 136.783 1068.85 Q139.862 1073.43 139.862 1082.18 Q139.862 1090.91 136.783 1095.52 Q133.728 1100.1 127.917 1100.1 Q122.107 1100.1 119.029 1095.52 Q115.973 1090.91 115.973 1082.18 Q115.973 1073.43 119.029 1068.85 Q122.107 1064.24 127.917 1064.24 Z" fill="#000000" fill-rule="evenodd" fill-opacity="1" /><path clip-path="url(#clip940)" d="M148.079 1093.55 L152.964 1093.55 L152.964 1099.43 L148.079 1099.43 L148.079 1093.55 Z" fill="#000000" fill-rule="evenodd" fill-opacity="1" /><path clip-path="url(#clip940)" d="M173.149 1067.95 Q169.538 1067.95 167.709 1071.51 Q165.903 1075.05 165.903 1082.18 Q165.903 1089.29 167.709 1092.86 Q169.538 1096.4 173.149 1096.4 Q176.783 1096.4 178.589 1092.86 Q180.417 1089.29 180.417 1082.18 Q180.417 1075.05 178.589 1071.51 Q176.783 1067.95 173.149 1067.95 M173.149 1064.24 Q178.959 1064.24 182.014 1068.85 Q185.093 1073.43 185.093 1082.18 Q185.093 1090.91 182.014 1095.52 Q178.959 1100.1 173.149 1100.1 Q167.339 1100.1 164.26 1095.52 Q161.204 1090.91 161.204 1082.18 Q161.204 1073.43 164.26 1068.85 Q167.339 1064.24 173.149 1064.24 Z" fill="#000000" fill-rule="evenodd" fill-opacity="1" /><path clip-path="url(#clip940)" d="M203.311 1067.95 Q199.7 1067.95 197.871 1071.51 Q196.065 1075.05 196.065 1082.18 Q196.065 1089.29 197.871 1092.86 Q199.7 1096.4 203.311 1096.4 Q206.945 1096.4 208.75 1092.86 Q210.579 1089.29 210.579 1082.18 Q210.579 1075.05 208.75 1071.51 Q206.945 1067.95 203.311 1067.95 M203.311 1064.24 Q209.121 1064.24 212.176 1068.85 Q215.255 1073.43 215.255 1082.18 Q215.255 1090.91 212.176 1095.52 Q209.121 1100.1 203.311 1100.1 Q197.5 1100.1 194.422 1095.52 Q191.366 1090.91 191.366 1082.18 Q191.366 1073.43 194.422 1068.85 Q197.5 1064.24 203.311 1064.24 Z" fill="#000000" fill-rule="evenodd" fill-opacity="1" /><path clip-path="url(#clip940)" d="M224.283 1095.49 L231.922 1095.49 L231.922 1069.13 L223.611 1070.8 L223.611 1066.54 L231.875 1064.87 L236.551 1064.87 L236.551 1095.49 L244.19 1095.49 L244.19 1099.43 L224.283 1099.43 L224.283 1095.49 Z" fill="#000000" fill-rule="evenodd" fill-opacity="1" /><path clip-path="url(#clip940)" d="M128.288 763.702 Q124.677 763.702 122.848 767.267 Q121.043 770.809 121.043 777.938 Q121.043 785.045 122.848 788.609 Q124.677 792.151 128.288 792.151 Q131.922 792.151 133.728 788.609 Q135.556 785.045 135.556 777.938 Q135.556 770.809 133.728 767.267 Q131.922 763.702 128.288 763.702 M128.288 759.998 Q134.098 759.998 137.154 764.605 Q140.232 769.188 140.232 777.938 Q140.232 786.665 137.154 791.271 Q134.098 795.855 128.288 795.855 Q122.478 795.855 119.399 791.271 Q116.343 786.665 116.343 777.938 Q116.343 769.188 119.399 764.605 Q122.478 759.998 128.288 759.998 Z" fill="#000000" fill-rule="evenodd" fill-opacity="1" /><path clip-path="url(#clip940)" d="M148.45 789.304 L153.334 789.304 L153.334 795.183 L148.45 795.183 L148.45 789.304 Z" fill="#000000" fill-rule="evenodd" fill-opacity="1" /><path clip-path="url(#clip940)" d="M173.519 763.702 Q169.908 763.702 168.079 767.267 Q166.274 770.809 166.274 777.938 Q166.274 785.045 168.079 788.609 Q169.908 792.151 173.519 792.151 Q177.153 792.151 178.959 788.609 Q180.788 785.045 180.788 777.938 Q180.788 770.809 178.959 767.267 Q177.153 763.702 173.519 763.702 M173.519 759.998 Q179.329 759.998 182.385 764.605 Q185.463 769.188 185.463 777.938 Q185.463 786.665 182.385 791.271 Q179.329 795.855 173.519 795.855 Q167.709 795.855 164.63 791.271 Q161.575 786.665 161.575 777.938 Q161.575 769.188 164.63 764.605 Q167.709 759.998 173.519 759.998 Z" fill="#000000" fill-rule="evenodd" fill-opacity="1" /><path clip-path="url(#clip940)" d="M203.681 763.702 Q200.07 763.702 198.241 767.267 Q196.436 770.809 196.436 777.938 Q196.436 785.045 198.241 788.609 Q200.07 792.151 203.681 792.151 Q207.315 792.151 209.121 788.609 Q210.949 785.045 210.949 777.938 Q210.949 770.809 209.121 767.267 Q207.315 763.702 203.681 763.702 M203.681 759.998 Q209.491 759.998 212.547 764.605 Q215.625 769.188 215.625 777.938 Q215.625 786.665 212.547 791.271 Q209.491 795.855 203.681 795.855 Q197.871 795.855 194.792 791.271 Q191.737 786.665 191.737 777.938 Q191.737 769.188 194.792 764.605 Q197.871 759.998 203.681 759.998 Z" fill="#000000" fill-rule="evenodd" fill-opacity="1" /><path clip-path="url(#clip940)" d="M227.871 791.248 L244.19 791.248 L244.19 795.183 L222.246 795.183 L222.246 791.248 Q224.908 788.494 229.491 783.864 Q234.097 779.211 235.278 777.869 Q237.523 775.346 238.403 773.609 Q239.306 771.85 239.306 770.16 Q239.306 767.406 237.361 765.67 Q235.44 763.934 232.338 763.934 Q230.139 763.934 227.685 764.697 Q225.255 765.461 222.477 767.012 L222.477 762.29 Q225.301 761.156 227.755 760.577 Q230.209 759.998 232.246 759.998 Q237.616 759.998 240.81 762.684 Q244.005 765.369 244.005 769.859 Q244.005 771.989 243.195 773.91 Q242.408 775.809 240.301 778.401 Q239.722 779.072 236.621 782.29 Q233.519 785.484 227.871 791.248 Z" fill="#000000" fill-rule="evenodd" fill-opacity="1" /><path clip-path="url(#clip940)" d="M127.339 459.456 Q123.728 459.456 121.899 463.021 Q120.093 466.562 120.093 473.692 Q120.093 480.798 121.899 484.363 Q123.728 487.905 127.339 487.905 Q130.973 487.905 132.779 484.363 Q134.607 480.798 134.607 473.692 Q134.607 466.562 132.779 463.021 Q130.973 459.456 127.339 459.456 M127.339 455.752 Q133.149 455.752 136.204 460.359 Q139.283 464.942 139.283 473.692 Q139.283 482.419 136.204 487.025 Q133.149 491.608 127.339 491.608 Q121.529 491.608 118.45 487.025 Q115.394 482.419 115.394 473.692 Q115.394 464.942 118.45 460.359 Q121.529 455.752 127.339 455.752 Z" fill="#000000" fill-rule="evenodd" fill-opacity="1" /><path clip-path="url(#clip940)" d="M147.501 485.058 L152.385 485.058 L152.385 490.937 L147.501 490.937 L147.501 485.058 Z" fill="#000000" fill-rule="evenodd" fill-opacity="1" /><path clip-path="url(#clip940)" d="M172.57 459.456 Q168.959 459.456 167.13 463.021 Q165.325 466.562 165.325 473.692 Q165.325 480.798 167.13 484.363 Q168.959 487.905 172.57 487.905 Q176.204 487.905 178.01 484.363 Q179.839 480.798 179.839 473.692 Q179.839 466.562 178.01 463.021 Q176.204 459.456 172.57 459.456 M172.57 455.752 Q178.38 455.752 181.436 460.359 Q184.514 464.942 184.514 473.692 Q184.514 482.419 181.436 487.025 Q178.38 491.608 172.57 491.608 Q166.76 491.608 163.681 487.025 Q160.626 482.419 160.626 473.692 Q160.626 464.942 163.681 460.359 Q166.76 455.752 172.57 455.752 Z" fill="#000000" fill-rule="evenodd" fill-opacity="1" /><path clip-path="url(#clip940)" d="M202.732 459.456 Q199.121 459.456 197.292 463.021 Q195.487 466.562 195.487 473.692 Q195.487 480.798 197.292 484.363 Q199.121 487.905 202.732 487.905 Q206.366 487.905 208.172 484.363 Q210 480.798 210 473.692 Q210 466.562 208.172 463.021 Q206.366 459.456 202.732 459.456 M202.732 455.752 Q208.542 455.752 211.598 460.359 Q214.676 464.942 214.676 473.692 Q214.676 482.419 211.598 487.025 Q208.542 491.608 202.732 491.608 Q196.922 491.608 193.843 487.025 Q190.788 482.419 190.788 473.692 Q190.788 464.942 193.843 460.359 Q196.922 455.752 202.732 455.752 Z" fill="#000000" fill-rule="evenodd" fill-opacity="1" /><path clip-path="url(#clip940)" d="M237.06 472.303 Q240.417 473.021 242.292 475.289 Q244.19 477.558 244.19 480.891 Q244.19 486.007 240.672 488.808 Q237.153 491.608 230.672 491.608 Q228.496 491.608 226.181 491.169 Q223.889 490.752 221.436 489.896 L221.436 485.382 Q223.38 486.516 225.695 487.095 Q228.01 487.673 230.533 487.673 Q234.931 487.673 237.222 485.937 Q239.537 484.201 239.537 480.891 Q239.537 477.835 237.384 476.122 Q235.255 474.386 231.435 474.386 L227.408 474.386 L227.408 470.544 L231.621 470.544 Q235.07 470.544 236.898 469.178 Q238.727 467.789 238.727 465.197 Q238.727 462.535 236.829 461.123 Q234.954 459.687 231.435 459.687 Q229.514 459.687 227.315 460.104 Q225.116 460.521 222.477 461.4 L222.477 457.234 Q225.139 456.493 227.454 456.123 Q229.792 455.752 231.852 455.752 Q237.176 455.752 240.278 458.183 Q243.38 460.59 243.38 464.71 Q243.38 467.581 241.736 469.572 Q240.093 471.539 237.06 472.303 Z" fill="#000000" fill-rule="evenodd" fill-opacity="1" /><path clip-path="url(#clip940)" d="M126.205 155.21 Q122.593 155.21 120.765 158.774 Q118.959 162.316 118.959 169.446 Q118.959 176.552 120.765 180.117 Q122.593 183.659 126.205 183.659 Q129.839 183.659 131.644 180.117 Q133.473 176.552 133.473 169.446 Q133.473 162.316 131.644 158.774 Q129.839 155.21 126.205 155.21 M126.205 151.506 Q132.015 151.506 135.07 156.112 Q138.149 160.696 138.149 169.446 Q138.149 178.172 135.07 182.779 Q132.015 187.362 126.205 187.362 Q120.394 187.362 117.316 182.779 Q114.26 178.172 114.26 169.446 Q114.26 160.696 117.316 156.112 Q120.394 151.506 126.205 151.506 Z" fill="#000000" fill-rule="evenodd" fill-opacity="1" /><path clip-path="url(#clip940)" d="M146.366 180.811 L151.251 180.811 L151.251 186.691 L146.366 186.691 L146.366 180.811 Z" fill="#000000" fill-rule="evenodd" fill-opacity="1" /><path clip-path="url(#clip940)" d="M171.436 155.21 Q167.825 155.21 165.996 158.774 Q164.19 162.316 164.19 169.446 Q164.19 176.552 165.996 180.117 Q167.825 183.659 171.436 183.659 Q175.07 183.659 176.876 180.117 Q178.704 176.552 178.704 169.446 Q178.704 162.316 176.876 158.774 Q175.07 155.21 171.436 155.21 M171.436 151.506 Q177.246 151.506 180.301 156.112 Q183.38 160.696 183.38 169.446 Q183.38 178.172 180.301 182.779 Q177.246 187.362 171.436 187.362 Q165.626 187.362 162.547 182.779 Q159.491 178.172 159.491 169.446 Q159.491 160.696 162.547 156.112 Q165.626 151.506 171.436 151.506 Z" fill="#000000" fill-rule="evenodd" fill-opacity="1" /><path clip-path="url(#clip940)" d="M201.598 155.21 Q197.987 155.21 196.158 158.774 Q194.352 162.316 194.352 169.446 Q194.352 176.552 196.158 180.117 Q197.987 183.659 201.598 183.659 Q205.232 183.659 207.037 180.117 Q208.866 176.552 208.866 169.446 Q208.866 162.316 207.037 158.774 Q205.232 155.21 201.598 155.21 M201.598 151.506 Q207.408 151.506 210.463 156.112 Q213.542 160.696 213.542 169.446 Q213.542 178.172 210.463 182.779 Q207.408 187.362 201.598 187.362 Q195.787 187.362 192.709 182.779 Q189.653 178.172 189.653 169.446 Q189.653 160.696 192.709 156.112 Q195.787 151.506 201.598 151.506 Z" fill="#000000" fill-rule="evenodd" fill-opacity="1" /><path clip-path="url(#clip940)" d="M234.607 156.205 L222.801 174.654 L234.607 174.654 L234.607 156.205 M233.38 152.131 L239.259 152.131 L239.259 174.654 L244.19 174.654 L244.19 178.543 L239.259 178.543 L239.259 186.691 L234.607 186.691 L234.607 178.543 L219.005 178.543 L219.005 174.029 L233.38 152.131 Z" fill="#000000" fill-rule="evenodd" fill-opacity="1" /><path clip-path="url(#clip940)" d="M41.3104 1089.3 L58.7206 1089.3 L58.7206 1078.99 Q58.7206 1073.8 56.5881 1071.32 Q54.4238 1068.81 49.9996 1068.81 Q45.5436 1068.81 43.4429 1071.32 Q41.3104 1073.8 41.3104 1078.99 L41.3104 1089.3 M21.7677 1089.3 L36.0905 1089.3 L36.0905 1079.79 Q36.0905 1075.08 34.34 1072.78 Q32.5576 1070.46 28.9291 1070.46 Q25.3325 1070.46 23.5501 1072.78 Q21.7677 1075.08 21.7677 1079.79 L21.7677 1089.3 M16.4842 1095.73 L16.4842 1079.31 Q16.4842 1071.96 19.5397 1067.98 Q22.5952 1064 28.2289 1064 Q32.5894 1064 35.1675 1066.04 Q37.7456 1068.07 38.3822 1072.02 Q39.4007 1067.28 42.6472 1064.67 Q45.8619 1062.03 50.6998 1062.03 Q57.0655 1062.03 60.5348 1066.36 Q64.0042 1070.68 64.0042 1078.67 L64.0042 1095.73 L16.4842 1095.73 Z" fill="#000000" fill-rule="evenodd" fill-opacity="1" /><path clip-path="url(#clip940)" d="M32.4621 1037.46 Q32.4621 1042.17 36.1542 1044.9 Q39.8145 1047.64 46.212 1047.64 Q52.6095 1047.64 56.3017 1044.93 Q59.9619 1042.2 59.9619 1037.46 Q59.9619 1032.78 56.2698 1030.04 Q52.5777 1027.3 46.212 1027.3 Q39.8781 1027.3 36.186 1030.04 Q32.4621 1032.78 32.4621 1037.46 M27.4968 1037.46 Q27.4968 1029.82 32.4621 1025.46 Q37.4273 1021.1 46.212 1021.1 Q54.9649 1021.1 59.9619 1025.46 Q64.9272 1029.82 64.9272 1037.46 Q64.9272 1045.13 59.9619 1049.49 Q54.9649 1053.81 46.212 1053.81 Q37.4273 1053.81 32.4621 1049.49 Q27.4968 1045.13 27.4968 1037.46 Z" fill="#000000" fill-rule="evenodd" fill-opacity="1" /><path clip-path="url(#clip940)" d="M18.2347 1005.59 L28.3562 1005.59 L28.3562 993.532 L32.9077 993.532 L32.9077 1005.59 L52.2594 1005.59 Q56.6199 1005.59 57.8613 1004.42 Q59.1026 1003.21 59.1026 999.547 L59.1026 993.532 L64.0042 993.532 L64.0042 999.547 Q64.0042 1006.33 61.4897 1008.9 Q58.9434 1011.48 52.2594 1011.48 L32.9077 1011.48 L32.9077 1015.78 L28.3562 1015.78 L28.3562 1011.48 L18.2347 1011.48 L18.2347 1005.59 Z" fill="#000000" fill-rule="evenodd" fill-opacity="1" /><path clip-path="url(#clip940)" d="M18.2347 980.036 L28.3562 980.036 L28.3562 967.973 L32.9077 967.973 L32.9077 980.036 L52.2594 980.036 Q56.6199 980.036 57.8613 978.859 Q59.1026 977.649 59.1026 973.989 L59.1026 967.973 L64.0042 967.973 L64.0042 973.989 Q64.0042 980.768 61.4897 983.347 Q58.9434 985.925 52.2594 985.925 L32.9077 985.925 L32.9077 990.222 L28.3562 990.222 L28.3562 985.925 L18.2347 985.925 L18.2347 980.036 Z" fill="#000000" fill-rule="evenodd" fill-opacity="1" /><path clip-path="url(#clip940)" d="M14.479 960.271 L14.479 954.414 L64.0042 954.414 L64.0042 960.271 L14.479 960.271 Z" fill="#000000" fill-rule="evenodd" fill-opacity="1" /><path clip-path="url(#clip940)" d="M44.7161 911.669 L47.5806 911.669 L47.5806 938.596 Q53.6281 938.214 56.8109 934.967 Q59.9619 931.689 59.9619 925.864 Q59.9619 922.49 59.1344 919.339 Q58.3069 916.157 56.6518 913.037 L62.1899 913.037 Q63.5267 916.188 64.227 919.499 Q64.9272 922.809 64.9272 926.214 Q64.9272 934.744 59.9619 939.741 Q54.9967 944.707 46.5303 944.707 Q37.7774 944.707 32.6531 939.996 Q27.4968 935.254 27.4968 927.233 Q27.4968 920.04 32.1438 915.87 Q36.7589 911.669 44.7161 911.669 M42.9973 917.525 Q38.1912 917.589 35.3266 920.231 Q32.4621 922.841 32.4621 927.169 Q32.4621 932.071 35.2312 935.031 Q38.0002 937.959 43.0292 938.405 L42.9973 917.525 Z" fill="#000000" fill-rule="evenodd" fill-opacity="1" /><path clip-path="url(#clip940)" d="M42.4881 872.424 L64.0042 872.424 L64.0042 878.281 L42.679 878.281 Q37.6183 878.281 35.1038 880.254 Q32.5894 882.227 32.5894 886.174 Q32.5894 890.916 35.6131 893.654 Q38.6368 896.391 43.8567 896.391 L64.0042 896.391 L64.0042 902.279 L28.3562 902.279 L28.3562 896.391 L33.8944 896.391 Q30.6797 894.29 29.0883 891.458 Q27.4968 888.593 27.4968 884.869 Q27.4968 878.726 31.3163 875.575 Q35.1038 872.424 42.4881 872.424 Z" fill="#000000" fill-rule="evenodd" fill-opacity="1" /><path clip-path="url(#clip940)" d="M44.7161 830.251 L47.5806 830.251 L47.5806 857.178 Q53.6281 856.796 56.8109 853.55 Q59.9619 850.271 59.9619 844.447 Q59.9619 841.073 59.1344 837.922 Q58.3069 834.739 56.6518 831.62 L62.1899 831.62 Q63.5267 834.771 64.227 838.081 Q64.9272 841.391 64.9272 844.797 Q64.9272 853.327 59.9619 858.324 Q54.9967 863.289 46.5303 863.289 Q37.7774 863.289 32.6531 858.579 Q27.4968 853.836 27.4968 845.815 Q27.4968 838.622 32.1438 834.453 Q36.7589 830.251 44.7161 830.251 M42.9973 836.108 Q38.1912 836.171 35.3266 838.813 Q32.4621 841.423 32.4621 845.752 Q32.4621 850.653 35.2312 853.613 Q38.0002 856.542 43.0292 856.987 L42.9973 836.108 Z" fill="#000000" fill-rule="evenodd" fill-opacity="1" /><path clip-path="url(#clip940)" d="M29.7248 794.985 L35.1993 794.985 Q33.8307 797.468 33.1623 799.982 Q32.4621 802.465 32.4621 805.011 Q32.4621 810.709 36.0905 813.86 Q39.6872 817.011 46.212 817.011 Q52.7369 817.011 56.3653 813.86 Q59.9619 810.709 59.9619 805.011 Q59.9619 802.465 59.2935 799.982 Q58.5933 797.468 57.2247 794.985 L62.6355 794.985 Q63.7814 797.436 64.3543 800.078 Q64.9272 802.688 64.9272 805.648 Q64.9272 813.7 59.8664 818.443 Q54.8057 823.185 46.212 823.185 Q37.491 823.185 32.4939 818.411 Q27.4968 813.605 27.4968 805.266 Q27.4968 802.56 28.0697 799.982 Q28.6108 797.404 29.7248 794.985 Z" fill="#000000" fill-rule="evenodd" fill-opacity="1" /><path clip-path="url(#clip940)" d="M14.479 785.023 L14.479 779.135 L43.7294 779.135 L28.3562 761.661 L28.3562 754.181 L45.0344 773.087 L64.0042 753.385 L64.0042 761.024 L46.5939 779.135 L64.0042 779.135 L64.0042 785.023 L14.479 785.023 Z" fill="#000000" fill-rule="evenodd" fill-opacity="1" /><path clip-path="url(#clip940)" d="M21.7677 719.647 L58.7206 719.647 L58.7206 711.881 Q58.7206 702.046 54.2646 697.495 Q49.8086 692.911 40.1964 692.911 Q30.6479 692.911 26.2237 697.495 Q21.7677 702.046 21.7677 711.881 L21.7677 719.647 M16.4842 726.077 L16.4842 712.868 Q16.4842 699.054 22.2451 692.593 Q27.9743 686.132 40.1964 686.132 Q52.4822 686.132 58.2432 692.625 Q64.0042 699.118 64.0042 712.868 L64.0042 726.077 L16.4842 726.077 Z" fill="#000000" fill-rule="evenodd" fill-opacity="1" /><path clip-path="url(#clip940)" d="M28.3562 676.138 L28.3562 670.281 L64.0042 670.281 L64.0042 676.138 L28.3562 676.138 M14.479 676.138 L14.479 670.281 L21.895 670.281 L21.895 676.138 L14.479 676.138 Z" fill="#000000" fill-rule="evenodd" fill-opacity="1" /><path clip-path="url(#clip940)" d="M29.4065 635.302 L34.9447 635.302 Q33.6716 637.784 33.035 640.458 Q32.3984 643.131 32.3984 645.996 Q32.3984 650.356 33.7352 652.553 Q35.072 654.717 37.7456 654.717 Q39.7826 654.717 40.9603 653.157 Q42.1061 651.598 43.1565 646.887 L43.6021 644.882 Q44.9389 638.644 47.3897 636.034 Q49.8086 633.392 54.1691 633.392 Q59.1344 633.392 62.0308 637.339 Q64.9272 641.253 64.9272 648.128 Q64.9272 650.993 64.3543 654.112 Q63.8132 657.2 62.6992 660.637 L56.6518 660.637 Q58.3387 657.391 59.198 654.24 Q60.0256 651.089 60.0256 648.001 Q60.0256 643.863 58.6251 641.635 Q57.1929 639.407 54.6147 639.407 Q52.2276 639.407 50.9545 641.031 Q49.6813 642.622 48.5037 648.065 L48.0262 650.102 Q46.8804 655.544 44.5251 657.963 Q42.138 660.382 38.0002 660.382 Q32.9713 660.382 30.2341 656.818 Q27.4968 653.253 27.4968 646.696 Q27.4968 643.45 27.9743 640.585 Q28.4517 637.721 29.4065 635.302 Z" fill="#000000" fill-rule="evenodd" fill-opacity="1" /><path clip-path="url(#clip940)" d="M18.2347 618.273 L28.3562 618.273 L28.3562 606.21 L32.9077 606.21 L32.9077 618.273 L52.2594 618.273 Q56.6199 618.273 57.8613 617.096 Q59.1026 615.886 59.1026 612.226 L59.1026 606.21 L64.0042 606.21 L64.0042 612.226 Q64.0042 619.005 61.4897 621.583 Q58.9434 624.162 52.2594 624.162 L32.9077 624.162 L32.9077 628.458 L28.3562 628.458 L28.3562 624.162 L18.2347 624.162 L18.2347 618.273 Z" fill="#000000" fill-rule="evenodd" fill-opacity="1" /><path clip-path="url(#clip940)" d="M46.0847 582.307 Q46.0847 589.405 47.7079 592.142 Q49.3312 594.879 53.2461 594.879 Q56.3653 594.879 58.2114 592.842 Q60.0256 590.773 60.0256 587.24 Q60.0256 582.371 56.5881 579.442 Q53.1188 576.482 47.3897 576.482 L46.0847 576.482 L46.0847 582.307 M43.6657 570.626 L64.0042 570.626 L64.0042 576.482 L58.5933 576.482 Q61.8398 578.488 63.3994 581.48 Q64.9272 584.471 64.9272 588.8 Q64.9272 594.275 61.8716 597.521 Q58.7843 600.736 53.6281 600.736 Q47.6125 600.736 44.5569 596.725 Q41.5014 592.683 41.5014 584.694 L41.5014 576.482 L40.9285 576.482 Q36.8862 576.482 34.6901 579.156 Q32.4621 581.798 32.4621 586.604 Q32.4621 589.659 33.1941 592.556 Q33.9262 595.452 35.3903 598.126 L29.9795 598.126 Q28.7381 594.911 28.1334 591.887 Q27.4968 588.864 27.4968 585.999 Q27.4968 578.265 31.5072 574.445 Q35.5176 570.626 43.6657 570.626 Z" fill="#000000" fill-rule="evenodd" fill-opacity="1" /><path clip-path="url(#clip940)" d="M42.4881 528.931 L64.0042 528.931 L64.0042 534.787 L42.679 534.787 Q37.6183 534.787 35.1038 536.76 Q32.5894 538.734 32.5894 542.681 Q32.5894 547.423 35.6131 550.16 Q38.6368 552.897 43.8567 552.897 L64.0042 552.897 L64.0042 558.786 L28.3562 558.786 L28.3562 552.897 L33.8944 552.897 Q30.6797 550.797 29.0883 547.964 Q27.4968 545.099 27.4968 541.376 Q27.4968 535.233 31.3163 532.082 Q35.1038 528.931 42.4881 528.931 Z" fill="#000000" fill-rule="evenodd" fill-opacity="1" /><path clip-path="url(#clip940)" d="M29.7248 491.596 L35.1993 491.596 Q33.8307 494.078 33.1623 496.593 Q32.4621 499.075 32.4621 501.622 Q32.4621 507.319 36.0905 510.47 Q39.6872 513.621 46.212 513.621 Q52.7369 513.621 56.3653 510.47 Q59.9619 507.319 59.9619 501.622 Q59.9619 499.075 59.2935 496.593 Q58.5933 494.078 57.2247 491.596 L62.6355 491.596 Q63.7814 494.047 64.3543 496.688 Q64.9272 499.298 64.9272 502.258 Q64.9272 510.311 59.8664 515.053 Q54.8057 519.796 46.212 519.796 Q37.491 519.796 32.4939 515.022 Q27.4968 510.215 27.4968 501.876 Q27.4968 499.171 28.0697 496.593 Q28.6108 494.015 29.7248 491.596 Z" fill="#000000" fill-rule="evenodd" fill-opacity="1" /><path clip-path="url(#clip940)" d="M44.7161 450.919 L47.5806 450.919 L47.5806 477.846 Q53.6281 477.464 56.8109 474.217 Q59.9619 470.939 59.9619 465.114 Q59.9619 461.741 59.1344 458.59 Q58.3069 455.407 56.6518 452.287 L62.1899 452.287 Q63.5267 455.439 64.227 458.749 Q64.9272 462.059 64.9272 465.464 Q64.9272 473.995 59.9619 478.992 Q54.9967 483.957 46.5303 483.957 Q37.7774 483.957 32.6531 479.246 Q27.4968 474.504 27.4968 466.483 Q27.4968 459.29 32.1438 455.12 Q36.7589 450.919 44.7161 450.919 M42.9973 456.775 Q38.1912 456.839 35.3266 459.481 Q32.4621 462.091 32.4621 466.419 Q32.4621 471.321 35.2312 474.281 Q38.0002 477.209 43.0292 477.655 L42.9973 456.775 Z" fill="#000000" fill-rule="evenodd" fill-opacity="1" /><path clip-path="url(#clip940)" d="M1157.78 34.4165 Q1156.28 33.8899 1154.78 33.4848 Q1150.77 32.4315 1146.48 32.4315 Q1139.06 32.4315 1134.93 36.4419 Q1131.08 40.1688 1130.35 47.0148 L1157.78 47.0148 L1157.78 52.8481 L1130.35 52.8481 Q1131.08 59.6941 1134.93 63.421 Q1139.06 67.4314 1146.48 67.4314 Q1151.66 67.4314 1154.78 66.3781 L1157.78 65.3654 L1157.78 72.1304 L1154.58 72.8596 Q1150.37 73.7508 1146.03 73.7508 Q1135.17 73.7508 1128.86 67.4314 Q1122.5 61.1119 1122.5 49.9314 Q1122.5 38.7509 1128.86 32.4315 Q1135.17 26.1121 1146.03 26.1121 Q1150.12 26.1121 1154.58 27.0033 Q1156.2 27.3274 1157.78 27.8135 L1157.78 34.4165 Z" fill="#000000" fill-rule="evenodd" fill-opacity="1" /><path clip-path="url(#clip940)" d="M1177.75 34.9026 L1229.68 34.9026 L1229.68 41.7081 L1177.75 41.7081 L1177.75 34.9026 M1177.75 51.4303 L1229.68 51.4303 L1229.68 58.3168 L1177.75 58.3168 L1177.75 51.4303 Z" fill="#000000" fill-rule="evenodd" fill-opacity="1" /><path clip-path="url(#clip940)" d="M1246.29 9.54393 L1253.74 9.54393 L1253.74 72.576 L1246.29 72.576 L1246.29 9.54393 Z" fill="#000000" fill-rule="evenodd" fill-opacity="1" /><path clip-path="url(#clip940)" d="M1286.92 32.4315 Q1280.93 32.4315 1277.44 37.1306 Q1273.96 41.7891 1273.96 49.9314 Q1273.96 58.0738 1277.4 62.7728 Q1280.89 67.4314 1286.92 67.4314 Q1292.88 67.4314 1296.36 62.7323 Q1299.84 58.0333 1299.84 49.9314 Q1299.84 41.8701 1296.36 37.1711 Q1292.88 32.4315 1286.92 32.4315 M1286.92 26.1121 Q1296.64 26.1121 1302.19 32.4315 Q1307.74 38.7509 1307.74 49.9314 Q1307.74 61.0714 1302.19 67.4314 Q1296.64 73.7508 1286.92 73.7508 Q1277.16 73.7508 1271.61 67.4314 Q1266.1 61.0714 1266.1 49.9314 Q1266.1 38.7509 1271.61 32.4315 Q1277.16 26.1121 1286.92 26.1121 Z" fill="#000000" fill-rule="evenodd" fill-opacity="1" /><path clip-path="url(#clip940)" d="M1349.95 49.3643 Q1349.95 41.2625 1346.59 36.8065 Q1343.27 32.3505 1337.23 32.3505 Q1331.24 32.3505 1327.88 36.8065 Q1324.55 41.2625 1324.55 49.3643 Q1324.55 57.4256 1327.88 61.8816 Q1331.24 66.3376 1337.23 66.3376 Q1343.27 66.3376 1346.59 61.8816 Q1349.95 57.4256 1349.95 49.3643 M1357.41 66.9452 Q1357.41 78.5308 1352.26 84.1616 Q1347.12 89.8329 1336.5 89.8329 Q1332.58 89.8329 1329.09 89.2252 Q1325.61 88.6581 1322.33 87.4428 L1322.33 80.1917 Q1325.61 81.9741 1328.81 82.8248 Q1332.01 83.6755 1335.33 83.6755 Q1342.66 83.6755 1346.31 79.8271 Q1349.95 76.0193 1349.95 68.282 L1349.95 64.5957 Q1347.64 68.6061 1344.04 70.5911 Q1340.43 72.576 1335.41 72.576 Q1327.07 72.576 1321.96 66.2161 Q1316.86 59.8562 1316.86 49.3643 Q1316.86 38.832 1321.96 32.472 Q1327.07 26.1121 1335.41 26.1121 Q1340.43 26.1121 1344.04 28.0971 Q1347.64 30.082 1349.95 34.0924 L1349.95 27.2059 L1357.41 27.2059 L1357.41 66.9452 Z" fill="#000000" fill-rule="evenodd" fill-opacity="1" /><path clip-path="url(#clip940)" d="M1369.68 10.2326 L1374.42 10.2326 L1374.42 31.0542 L1388.44 20.1168 L1394.43 20.1168 L1379.24 31.9859 L1395.04 45.516 L1388.92 45.516 L1374.42 33.1202 L1374.42 45.516 L1369.68 45.516 L1369.68 10.2326 Z" fill="#000000" fill-rule="evenodd" fill-opacity="1" /><path clip-path="url(#clip940)" d="M1425.99 9.62495 Q1420.56 18.942 1417.93 28.0566 Q1415.29 37.1711 1415.29 46.5287 Q1415.29 55.8863 1417.93 65.0818 Q1420.6 74.2369 1425.99 83.5134 L1419.51 83.5134 Q1413.43 73.9938 1410.39 64.7983 Q1407.4 55.6027 1407.4 46.5287 Q1407.4 37.4952 1410.39 28.3401 Q1413.39 19.1851 1419.51 9.62495 L1425.99 9.62495 Z" fill="#000000" fill-rule="evenodd" fill-opacity="1" /><path clip-path="url(#clip940)" d="M1478.16 45.1919 L1478.16 72.576 L1470.71 72.576 L1470.71 45.4349 Q1470.71 38.994 1468.2 35.7938 Q1465.69 32.5936 1460.66 32.5936 Q1454.63 32.5936 1451.15 36.4419 Q1447.66 40.2903 1447.66 46.9338 L1447.66 72.576 L1440.17 72.576 L1440.17 27.2059 L1447.66 27.2059 L1447.66 34.2544 Q1450.34 30.163 1453.94 28.1376 Q1457.59 26.1121 1462.33 26.1121 Q1470.14 26.1121 1474.15 30.9732 Q1478.16 35.7938 1478.16 45.1919 Z" fill="#000000" fill-rule="evenodd" fill-opacity="1" /><path clip-path="url(#clip940)" d="M1491.86 9.62495 L1498.34 9.62495 Q1504.41 19.1851 1507.41 28.3401 Q1510.45 37.4952 1510.45 46.5287 Q1510.45 55.6027 1507.41 64.7983 Q1504.41 73.9938 1498.34 83.5134 L1491.86 83.5134 Q1497.24 74.2369 1499.88 65.0818 Q1502.55 55.8863 1502.55 46.5287 Q1502.55 37.1711 1499.88 28.0566 Q1497.24 18.942 1491.86 9.62495 Z" fill="#000000" fill-rule="evenodd" fill-opacity="1" /><polyline clip-path="url(#clip942)" style="stroke:#009af9; stroke-linecap:butt; stroke-linejoin:round; stroke-width:12; stroke-opacity:1; fill:none" points="
  338.848,335.092 441.755,160.256 647.571,1077.8 853.387,1218.71 1059.2,1046.19 1265.02,1102.69 1779.56,1123.68 2294.1,1185.27 
  "/>
<path clip-path="url(#clip942)" d="M338.848 351.092 L327.536 346.404 L322.848 335.092 L327.536 323.78 L338.848 319.092 L350.16 323.78 L354.848 335.092 L350.16 346.404 Z" fill="#009af9" fill-rule="evenodd" fill-opacity="1" stroke="#000000" stroke-opacity="1" stroke-width="3.2"/>
<path clip-path="url(#clip942)" d="M441.755 176.256 L430.443 171.568 L425.755 160.256 L430.443 148.944 L441.755 144.256 L453.067 148.944 L457.755 160.256 L453.067 171.568 Z" fill="#009af9" fill-rule="evenodd" fill-opacity="1" stroke="#000000" stroke-opacity="1" stroke-width="3.2"/>
<path clip-path="url(#clip942)" d="M647.571 1093.8 L636.259 1089.11 L631.571 1077.8 L636.259 1066.49 L647.571 1061.8 L658.883 1066.49 L663.571 1077.8 L658.883 1089.11 Z" fill="#009af9" fill-rule="evenodd" fill-opacity="1" stroke="#000000" stroke-opacity="1" stroke-width="3.2"/>
<path clip-path="url(#clip942)" d="M853.387 1234.71 L842.075 1230.02 L837.387 1218.71 L842.075 1207.4 L853.387 1202.71 L864.699 1207.4 L869.387 1218.71 L864.699 1230.02 Z" fill="#009af9" fill-rule="evenodd" fill-opacity="1" stroke="#000000" stroke-opacity="1" stroke-width="3.2"/>
<path clip-path="url(#clip942)" d="M1059.2 1062.19 L1047.89 1057.5 L1043.2 1046.19 L1047.89 1034.88 L1059.2 1030.19 L1070.52 1034.88 L1075.2 1046.19 L1070.52 1057.5 Z" fill="#009af9" fill-rule="evenodd" fill-opacity="1" stroke="#000000" stroke-opacity="1" stroke-width="3.2"/>
<path clip-path="url(#clip942)" d="M1265.02 1118.69 L1253.71 1114 L1249.02 1102.69 L1253.71 1091.38 L1265.02 1086.69 L1276.33 1091.38 L1281.02 1102.69 L1276.33 1114 Z" fill="#009af9" fill-rule="evenodd" fill-opacity="1" stroke="#000000" stroke-opacity="1" stroke-width="3.2"/>
<path clip-path="url(#clip942)" d="M1779.56 1139.68 L1768.25 1135 L1763.56 1123.68 L1768.25 1112.37 L1779.56 1107.68 L1790.87 1112.37 L1795.56 1123.68 L1790.87 1135 Z" fill="#009af9" fill-rule="evenodd" fill-opacity="1" stroke="#000000" stroke-opacity="1" stroke-width="3.2"/>
<path clip-path="url(#clip942)" d="M2294.1 1201.27 L2282.79 1196.58 L2278.1 1185.27 L2282.79 1173.96 L2294.1 1169.27 L2305.41 1173.96 L2310.1 1185.27 L2305.41 1196.58 Z" fill="#009af9" fill-rule="evenodd" fill-opacity="1" stroke="#000000" stroke-opacity="1" stroke-width="3.2"/>
<polyline clip-path="url(#clip942)" style="stroke:#e26f46; stroke-linecap:butt; stroke-linejoin:round; stroke-width:12; stroke-opacity:1; fill:none" points="
  338.848,688.049 441.755,1153.7 647.571,1339.01 853.387,1334.87 1059.2,1188.29 1265.02,1352.11 1779.56,1360.18 2294.1,1334.61 
  "/>
<path clip-path="url(#clip942)" d="M338.848 704.049 L327.536 699.361 L322.848 688.049 L327.536 676.737 L338.848 672.049 L350.16 676.737 L354.848 688.049 L350.16 699.361 Z" fill="#e26f46" fill-rule="evenodd" fill-opacity="1" stroke="#000000" stroke-opacity="1" stroke-width="3.2"/>
<path clip-path="url(#clip942)" d="M441.755 1169.7 L430.443 1165.01 L425.755 1153.7 L430.443 1142.39 L441.755 1137.7 L453.067 1142.39 L457.755 1153.7 L453.067 1165.01 Z" fill="#e26f46" fill-rule="evenodd" fill-opacity="1" stroke="#000000" stroke-opacity="1" stroke-width="3.2"/>
<path clip-path="url(#clip942)" d="M647.571 1355.01 L636.259 1350.33 L631.571 1339.01 L636.259 1327.7 L647.571 1323.01 L658.883 1327.7 L663.571 1339.01 L658.883 1350.33 Z" fill="#e26f46" fill-rule="evenodd" fill-opacity="1" stroke="#000000" stroke-opacity="1" stroke-width="3.2"/>
<path clip-path="url(#clip942)" d="M853.387 1350.87 L842.075 1346.19 L837.387 1334.87 L842.075 1323.56 L853.387 1318.87 L864.699 1323.56 L869.387 1334.87 L864.699 1346.19 Z" fill="#e26f46" fill-rule="evenodd" fill-opacity="1" stroke="#000000" stroke-opacity="1" stroke-width="3.2"/>
<path clip-path="url(#clip942)" d="M1059.2 1204.29 L1047.89 1199.6 L1043.2 1188.29 L1047.89 1176.97 L1059.2 1172.29 L1070.52 1176.97 L1075.2 1188.29 L1070.52 1199.6 Z" fill="#e26f46" fill-rule="evenodd" fill-opacity="1" stroke="#000000" stroke-opacity="1" stroke-width="3.2"/>
<path clip-path="url(#clip942)" d="M1265.02 1368.11 L1253.71 1363.43 L1249.02 1352.11 L1253.71 1340.8 L1265.02 1336.11 L1276.33 1340.8 L1281.02 1352.11 L1276.33 1363.43 Z" fill="#e26f46" fill-rule="evenodd" fill-opacity="1" stroke="#000000" stroke-opacity="1" stroke-width="3.2"/>
<path clip-path="url(#clip942)" d="M1779.56 1376.18 L1768.25 1371.5 L1763.56 1360.18 L1768.25 1348.87 L1779.56 1344.18 L1790.87 1348.87 L1795.56 1360.18 L1790.87 1371.5 Z" fill="#e26f46" fill-rule="evenodd" fill-opacity="1" stroke="#000000" stroke-opacity="1" stroke-width="3.2"/>
<path clip-path="url(#clip942)" d="M2294.1 1350.61 L2282.79 1345.92 L2278.1 1334.61 L2282.79 1323.29 L2294.1 1318.61 L2305.41 1323.29 L2310.1 1334.61 L2305.41 1345.92 Z" fill="#e26f46" fill-rule="evenodd" fill-opacity="1" stroke="#000000" stroke-opacity="1" stroke-width="3.2"/>
<polyline clip-path="url(#clip942)" style="stroke:#3da44d; stroke-linecap:butt; stroke-linejoin:round; stroke-width:12; stroke-opacity:1; fill:none" points="
  338.848,1385.57 441.755,1386.21 647.571,1386.37 853.387,1386.38 1059.2,1386.39 1265.02,1386.39 1779.56,1386.4 2294.1,1386.4 
  "/>
<path clip-path="url(#clip942)" d="M338.848 1401.57 L327.536 1396.89 L322.848 1385.57 L327.536 1374.26 L338.848 1369.57 L350.16 1374.26 L354.848 1385.57 L350.16 1396.89 Z" fill="#3da44d" fill-rule="evenodd" fill-opacity="1" stroke="#000000" stroke-opacity="1" stroke-width="3.2"/>
<path clip-path="url(#clip942)" d="M441.755 1402.21 L430.443 1397.52 L425.755 1386.21 L430.443 1374.89 L441.755 1370.21 L453.067 1374.89 L457.755 1386.21 L453.067 1397.52 Z" fill="#3da44d" fill-rule="evenodd" fill-opacity="1" stroke="#000000" stroke-opacity="1" stroke-width="3.2"/>
<path clip-path="url(#clip942)" d="M647.571 1402.37 L636.259 1397.68 L631.571 1386.37 L636.259 1375.06 L647.571 1370.37 L658.883 1375.06 L663.571 1386.37 L658.883 1397.68 Z" fill="#3da44d" fill-rule="evenodd" fill-opacity="1" stroke="#000000" stroke-opacity="1" stroke-width="3.2"/>
<path clip-path="url(#clip942)" d="M853.387 1402.38 L842.075 1397.7 L837.387 1386.38 L842.075 1375.07 L853.387 1370.38 L864.699 1375.07 L869.387 1386.38 L864.699 1397.7 Z" fill="#3da44d" fill-rule="evenodd" fill-opacity="1" stroke="#000000" stroke-opacity="1" stroke-width="3.2"/>
<path clip-path="url(#clip942)" d="M1059.2 1402.39 L1047.89 1397.7 L1043.2 1386.39 L1047.89 1375.08 L1059.2 1370.39 L1070.52 1375.08 L1075.2 1386.39 L1070.52 1397.7 Z" fill="#3da44d" fill-rule="evenodd" fill-opacity="1" stroke="#000000" stroke-opacity="1" stroke-width="3.2"/>
<path clip-path="url(#clip942)" d="M1265.02 1402.39 L1253.71 1397.71 L1249.02 1386.39 L1253.71 1375.08 L1265.02 1370.39 L1276.33 1375.08 L1281.02 1386.39 L1276.33 1397.71 Z" fill="#3da44d" fill-rule="evenodd" fill-opacity="1" stroke="#000000" stroke-opacity="1" stroke-width="3.2"/>
<path clip-path="url(#clip942)" d="M1779.56 1402.4 L1768.25 1397.71 L1763.56 1386.4 L1768.25 1375.08 L1779.56 1370.4 L1790.87 1375.08 L1795.56 1386.4 L1790.87 1397.71 Z" fill="#3da44d" fill-rule="evenodd" fill-opacity="1" stroke="#000000" stroke-opacity="1" stroke-width="3.2"/>
<path clip-path="url(#clip942)" d="M2294.1 1402.4 L2282.79 1397.71 L2278.1 1386.4 L2282.79 1375.08 L2294.1 1370.4 L2305.41 1375.08 L2310.1 1386.4 L2305.41 1397.71 Z" fill="#3da44d" fill-rule="evenodd" fill-opacity="1" stroke="#000000" stroke-opacity="1" stroke-width="3.2"/>
<path clip-path="url(#clip940)" d="
M1887.95 374.156 L2283.67 374.156 L2283.67 166.796 L1887.95 166.796  Z
  " fill="#ffffff" fill-rule="evenodd" fill-opacity="1"/>
<polyline clip-path="url(#clip940)" style="stroke:#000000; stroke-linecap:butt; stroke-linejoin:round; stroke-width:4; stroke-opacity:1; fill:none" points="
  1887.95,374.156 2283.67,374.156 2283.67,166.796 1887.95,166.796 1887.95,374.156 
  "/>
<polyline clip-path="url(#clip940)" style="stroke:#009af9; stroke-linecap:butt; stroke-linejoin:round; stroke-width:4; stroke-opacity:1; fill:none" points="
  1910.97,218.636 2049.15,218.636 
  "/>
<path clip-path="url(#clip940)" d="M1980.06 244.236 L1961.96 236.735 L1954.46 218.636 L1961.96 200.537 L1980.06 193.036 L1998.16 200.537 L2005.66 218.636 L1998.16 236.735 Z" fill="#009af9" fill-rule="evenodd" fill-opacity="1" stroke="#000000" stroke-opacity="1" stroke-width="5.12"/>
<path clip-path="url(#clip940)" d="M2072.17 199.897 L2076.46 199.897 L2076.46 221.17 L2089.17 209.99 L2094.6 209.99 L2080.85 222.119 L2095.18 235.916 L2089.63 235.916 L2076.46 223.254 L2076.46 235.916 L2072.17 235.916 L2072.17 199.897 Z" fill="#000000" fill-rule="evenodd" fill-opacity="1" /><path clip-path="url(#clip940)" d="M2100.35 214.388 L2130.02 214.388 L2130.02 218.277 L2100.35 218.277 L2100.35 214.388 M2100.35 223.832 L2130.02 223.832 L2130.02 227.768 L2100.35 227.768 L2100.35 223.832 Z" fill="#000000" fill-rule="evenodd" fill-opacity="1" /><path clip-path="url(#clip940)" d="M2150.11 204.434 Q2146.5 204.434 2144.67 207.999 Q2142.87 211.541 2142.87 218.67 Q2142.87 225.777 2144.67 229.342 Q2146.5 232.883 2150.11 232.883 Q2153.75 232.883 2155.55 229.342 Q2157.38 225.777 2157.38 218.67 Q2157.38 211.541 2155.55 207.999 Q2153.75 204.434 2150.11 204.434 M2150.11 200.731 Q2155.92 200.731 2158.98 205.337 Q2162.06 209.92 2162.06 218.67 Q2162.06 227.397 2158.98 232.004 Q2155.92 236.587 2150.11 236.587 Q2144.3 236.587 2141.22 232.004 Q2138.17 227.397 2138.17 218.67 Q2138.17 209.92 2141.22 205.337 Q2144.3 200.731 2150.11 200.731 Z" fill="#000000" fill-rule="evenodd" fill-opacity="1" /><path clip-path="url(#clip940)" d="M2170.28 230.036 L2175.16 230.036 L2175.16 235.916 L2170.28 235.916 L2170.28 230.036 Z" fill="#000000" fill-rule="evenodd" fill-opacity="1" /><path clip-path="url(#clip940)" d="M2195.92 216.772 Q2192.78 216.772 2190.92 218.925 Q2189.1 221.078 2189.1 224.828 Q2189.1 228.555 2190.92 230.731 Q2192.78 232.883 2195.92 232.883 Q2199.07 232.883 2200.9 230.731 Q2202.75 228.555 2202.75 224.828 Q2202.75 221.078 2200.9 218.925 Q2199.07 216.772 2195.92 216.772 M2205.21 202.12 L2205.21 206.379 Q2203.45 205.546 2201.64 205.106 Q2199.86 204.666 2198.1 204.666 Q2193.47 204.666 2191.02 207.791 Q2188.59 210.916 2188.24 217.235 Q2189.6 215.221 2191.66 214.157 Q2193.72 213.069 2196.2 213.069 Q2201.41 213.069 2204.42 216.24 Q2207.45 219.388 2207.45 224.828 Q2207.45 230.152 2204.3 233.369 Q2201.16 236.587 2195.92 236.587 Q2189.93 236.587 2186.76 232.004 Q2183.59 227.397 2183.59 218.67 Q2183.59 210.476 2187.47 205.615 Q2191.36 200.731 2197.91 200.731 Q2199.67 200.731 2201.46 201.078 Q2203.26 201.425 2205.21 202.12 Z" fill="#000000" fill-rule="evenodd" fill-opacity="1" /><path clip-path="url(#clip940)" d="M2226.09 216.772 Q2222.94 216.772 2221.09 218.925 Q2219.26 221.078 2219.26 224.828 Q2219.26 228.555 2221.09 230.731 Q2222.94 232.883 2226.09 232.883 Q2229.23 232.883 2231.06 230.731 Q2232.91 228.555 2232.91 224.828 Q2232.91 221.078 2231.06 218.925 Q2229.23 216.772 2226.09 216.772 M2235.37 202.12 L2235.37 206.379 Q2233.61 205.546 2231.8 205.106 Q2230.02 204.666 2228.26 204.666 Q2223.63 204.666 2221.18 207.791 Q2218.75 210.916 2218.4 217.235 Q2219.77 215.221 2221.83 214.157 Q2223.89 213.069 2226.36 213.069 Q2231.57 213.069 2234.58 216.24 Q2237.61 219.388 2237.61 224.828 Q2237.61 230.152 2234.47 233.369 Q2231.32 236.587 2226.09 236.587 Q2220.09 236.587 2216.92 232.004 Q2213.75 227.397 2213.75 218.67 Q2213.75 210.476 2217.64 205.615 Q2221.53 200.731 2228.08 200.731 Q2229.84 200.731 2231.62 201.078 Q2233.42 201.425 2235.37 202.12 Z" fill="#000000" fill-rule="evenodd" fill-opacity="1" /><polyline clip-path="url(#clip940)" style="stroke:#e26f46; stroke-linecap:butt; stroke-linejoin:round; stroke-width:4; stroke-opacity:1; fill:none" points="
  1910.97,270.476 2049.15,270.476 
  "/>
<path clip-path="url(#clip940)" d="M1980.06 296.076 L1961.96 288.575 L1954.46 270.476 L1961.96 252.377 L1980.06 244.876 L1998.16 252.377 L2005.66 270.476 L1998.16 288.575 Z" fill="#e26f46" fill-rule="evenodd" fill-opacity="1" stroke="#000000" stroke-opacity="1" stroke-width="5.12"/>
<path clip-path="url(#clip940)" d="M2072.17 251.737 L2076.46 251.737 L2076.46 273.01 L2089.17 261.83 L2094.6 261.83 L2080.85 273.959 L2095.18 287.756 L2089.63 287.756 L2076.46 275.094 L2076.46 287.756 L2072.17 287.756 L2072.17 251.737 Z" fill="#000000" fill-rule="evenodd" fill-opacity="1" /><path clip-path="url(#clip940)" d="M2100.35 266.228 L2130.02 266.228 L2130.02 270.117 L2100.35 270.117 L2100.35 266.228 M2100.35 275.672 L2130.02 275.672 L2130.02 279.608 L2100.35 279.608 L2100.35 275.672 Z" fill="#000000" fill-rule="evenodd" fill-opacity="1" /><path clip-path="url(#clip940)" d="M2150.11 256.274 Q2146.5 256.274 2144.67 259.839 Q2142.87 263.381 2142.87 270.51 Q2142.87 277.617 2144.67 281.182 Q2146.5 284.723 2150.11 284.723 Q2153.75 284.723 2155.55 281.182 Q2157.38 277.617 2157.38 270.51 Q2157.38 263.381 2155.55 259.839 Q2153.75 256.274 2150.11 256.274 M2150.11 252.571 Q2155.92 252.571 2158.98 257.177 Q2162.06 261.76 2162.06 270.51 Q2162.06 279.237 2158.98 283.844 Q2155.92 288.427 2150.11 288.427 Q2144.3 288.427 2141.22 283.844 Q2138.17 279.237 2138.17 270.51 Q2138.17 261.76 2141.22 257.177 Q2144.3 252.571 2150.11 252.571 Z" fill="#000000" fill-rule="evenodd" fill-opacity="1" /><path clip-path="url(#clip940)" d="M2170.28 281.876 L2175.16 281.876 L2175.16 287.756 L2170.28 287.756 L2170.28 281.876 Z" fill="#000000" fill-rule="evenodd" fill-opacity="1" /><path clip-path="url(#clip940)" d="M2184.16 253.196 L2206.39 253.196 L2206.39 255.186 L2193.84 287.756 L2188.96 287.756 L2200.76 257.131 L2184.16 257.131 L2184.16 253.196 Z" fill="#000000" fill-rule="evenodd" fill-opacity="1" /><path clip-path="url(#clip940)" d="M2215.55 253.196 L2233.91 253.196 L2233.91 257.131 L2219.84 257.131 L2219.84 265.603 Q2220.85 265.256 2221.87 265.094 Q2222.89 264.909 2223.91 264.909 Q2229.7 264.909 2233.08 268.08 Q2236.46 271.251 2236.46 276.668 Q2236.46 282.246 2232.98 285.348 Q2229.51 288.427 2223.19 288.427 Q2221.02 288.427 2218.75 288.057 Q2216.5 287.686 2214.09 286.946 L2214.09 282.246 Q2216.18 283.381 2218.4 283.936 Q2220.62 284.492 2223.1 284.492 Q2227.1 284.492 2229.44 282.385 Q2231.78 280.279 2231.78 276.668 Q2231.78 273.057 2229.44 270.95 Q2227.1 268.844 2223.1 268.844 Q2221.22 268.844 2219.35 269.26 Q2217.5 269.677 2215.55 270.557 L2215.55 253.196 Z" fill="#000000" fill-rule="evenodd" fill-opacity="1" /><polyline clip-path="url(#clip940)" style="stroke:#3da44d; stroke-linecap:butt; stroke-linejoin:round; stroke-width:4; stroke-opacity:1; fill:none" points="
  1910.97,322.316 2049.15,322.316 
  "/>
<path clip-path="url(#clip940)" d="M1980.06 347.916 L1961.96 340.415 L1954.46 322.316 L1961.96 304.217 L1980.06 296.716 L1998.16 304.217 L2005.66 322.316 L1998.16 340.415 Z" fill="#3da44d" fill-rule="evenodd" fill-opacity="1" stroke="#000000" stroke-opacity="1" stroke-width="5.12"/>
<path clip-path="url(#clip940)" d="M2072.17 303.577 L2076.46 303.577 L2076.46 324.85 L2089.17 313.67 L2094.6 313.67 L2080.85 325.799 L2095.18 339.596 L2089.63 339.596 L2076.46 326.934 L2076.46 339.596 L2072.17 339.596 L2072.17 303.577 Z" fill="#000000" fill-rule="evenodd" fill-opacity="1" /><path clip-path="url(#clip940)" d="M2100.35 318.068 L2130.02 318.068 L2130.02 321.957 L2100.35 321.957 L2100.35 318.068 M2100.35 327.512 L2130.02 327.512 L2130.02 331.448 L2100.35 331.448 L2100.35 327.512 Z" fill="#000000" fill-rule="evenodd" fill-opacity="1" /><path clip-path="url(#clip940)" d="M2140.92 335.661 L2148.56 335.661 L2148.56 309.295 L2140.25 310.962 L2140.25 306.702 L2148.52 305.036 L2153.19 305.036 L2153.19 335.661 L2160.83 335.661 L2160.83 339.596 L2140.92 339.596 L2140.92 335.661 Z" fill="#000000" fill-rule="evenodd" fill-opacity="1" /><path clip-path="url(#clip940)" d="M2170.28 333.716 L2175.16 333.716 L2175.16 339.596 L2170.28 339.596 L2170.28 333.716 Z" fill="#000000" fill-rule="evenodd" fill-opacity="1" /><path clip-path="url(#clip940)" d="M2195.35 308.114 Q2191.73 308.114 2189.91 311.679 Q2188.1 315.221 2188.1 322.35 Q2188.1 329.457 2189.91 333.022 Q2191.73 336.563 2195.35 336.563 Q2198.98 336.563 2200.78 333.022 Q2202.61 329.457 2202.61 322.35 Q2202.61 315.221 2200.78 311.679 Q2198.98 308.114 2195.35 308.114 M2195.35 304.411 Q2201.16 304.411 2204.21 309.017 Q2207.29 313.6 2207.29 322.35 Q2207.29 331.077 2204.21 335.684 Q2201.16 340.267 2195.35 340.267 Q2189.53 340.267 2186.46 335.684 Q2183.4 331.077 2183.4 322.35 Q2183.4 313.6 2186.46 309.017 Q2189.53 304.411 2195.35 304.411 Z" fill="#000000" fill-rule="evenodd" fill-opacity="1" /><path clip-path="url(#clip940)" d="M2225.51 308.114 Q2221.9 308.114 2220.07 311.679 Q2218.26 315.221 2218.26 322.35 Q2218.26 329.457 2220.07 333.022 Q2221.9 336.563 2225.51 336.563 Q2229.14 336.563 2230.95 333.022 Q2232.78 329.457 2232.78 322.35 Q2232.78 315.221 2230.95 311.679 Q2229.14 308.114 2225.51 308.114 M2225.51 304.411 Q2231.32 304.411 2234.37 309.017 Q2237.45 313.6 2237.45 322.35 Q2237.45 331.077 2234.37 335.684 Q2231.32 340.267 2225.51 340.267 Q2219.7 340.267 2216.62 335.684 Q2213.56 331.077 2213.56 322.35 Q2213.56 313.6 2216.62 309.017 Q2219.7 304.411 2225.51 304.411 Z" fill="#000000" fill-rule="evenodd" fill-opacity="1" /></svg>
