<?xml version="1.0" encoding="utf-8"?>
<svg xmlns="http://www.w3.org/2000/svg" xmlns:xlink="http://www.w3.org/1999/xlink" width="300" height="200" viewBox="0 0 1200 800">
<defs>
  <clipPath id="clip080">
    <rect x="0" y="0" width="1200" height="800"/>
  </clipPath>
</defs>
<path clip-path="url(#clip080)" d="
M0 800 L1200 800 L1200 0 L0 0  Z
  " fill="#ffffff" fill-rule="evenodd" fill-opacity="1"/>
<defs>
  <clipPath id="clip081">
    <rect x="240" y="0" width="841" height="800"/>
  </clipPath>
</defs>
<path clip-path="url(#clip080)" d="
M238.028 631.18 L1152.76 631.18 L1152.76 123.472 L238.028 123.472  Z
  " fill="#ffffff" fill-rule="evenodd" fill-opacity="1"/>
<defs>
  <clipPath id="clip082">
    <rect x="238" y="123" width="916" height="509"/>
  </clipPath>
</defs>
<polyline clip-path="url(#clip082)" style="stroke:#000000; stroke-linecap:butt; stroke-linejoin:round; stroke-width:2; stroke-opacity:0.1; fill:none" points="
  353.187,631.18 353.187,123.472 
  "/>
<polyline clip-path="url(#clip082)" style="stroke:#000000; stroke-linecap:butt; stroke-linejoin:round; stroke-width:2; stroke-opacity:0.1; fill:none" points="
  472.215,631.18 472.215,123.472 
  "/>
<polyline clip-path="url(#clip082)" style="stroke:#000000; stroke-linecap:butt; stroke-linejoin:round; stroke-width:2; stroke-opacity:0.1; fill:none" points="
  591.243,631.18 591.243,123.472 
  "/>
<polyline clip-path="url(#clip082)" style="stroke:#000000; stroke-linecap:butt; stroke-linejoin:round; stroke-width:2; stroke-opacity:0.1; fill:none" points="
  710.27,631.18 710.27,123.472 
  "/>
<polyline clip-path="url(#clip082)" style="stroke:#000000; stroke-linecap:butt; stroke-linejoin:round; stroke-width:2; stroke-opacity:0.1; fill:none" points="
  829.298,631.18 829.298,123.472 
  "/>
<polyline clip-path="url(#clip082)" style="stroke:#000000; stroke-linecap:butt; stroke-linejoin:round; stroke-width:2; stroke-opacity:0.1; fill:none" points="
  948.326,631.18 948.326,123.472 
  "/>
<polyline clip-path="url(#clip082)" style="stroke:#000000; stroke-linecap:butt; stroke-linejoin:round; stroke-width:2; stroke-opacity:0.1; fill:none" points="
  1067.35,631.18 1067.35,123.472 
  "/>
<polyline clip-path="url(#clip080)" style="stroke:#000000; stroke-linecap:butt; stroke-linejoin:round; stroke-width:4; stroke-opacity:1; fill:none" points="
  238.028,631.18 1152.76,631.18 
  "/>
<polyline clip-path="url(#clip080)" style="stroke:#000000; stroke-linecap:butt; stroke-linejoin:round; stroke-width:4; stroke-opacity:1; fill:none" points="
  353.187,631.18 353.187,612.282 
  "/>
<polyline clip-path="url(#clip080)" style="stroke:#000000; stroke-linecap:butt; stroke-linejoin:round; stroke-width:4; stroke-opacity:1; fill:none" points="
  472.215,631.18 472.215,612.282 
  "/>
<polyline clip-path="url(#clip080)" style="stroke:#000000; stroke-linecap:butt; stroke-linejoin:round; stroke-width:4; stroke-opacity:1; fill:none" points="
  591.243,631.18 591.243,612.282 
  "/>
<polyline clip-path="url(#clip080)" style="stroke:#000000; stroke-linecap:butt; stroke-linejoin:round; stroke-width:4; stroke-opacity:1; fill:none" points="
  710.27,631.18 710.27,612.282 
  "/>
<polyline clip-path="url(#clip080)" style="stroke:#000000; stroke-linecap:butt; stroke-linejoin:round; stroke-width:4; stroke-opacity:1; fill:none" points="
  829.298,631.18 829.298,612.282 
  "/>
<polyline clip-path="url(#clip080)" style="stroke:#000000; stroke-linecap:butt; stroke-linejoin:round; stroke-width:4; stroke-opacity:1; fill:none" points="
  948.326,631.18 948.326,612.282 
  "/>
<polyline clip-path="url(#clip080)" style="stroke:#000000; stroke-linecap:butt; stroke-linejoin:round; stroke-width:4; stroke-opacity:1; fill:none" points="
  1067.35,631.18 1067.35,612.282 
  "/>
<path clip-path="url(#clip080)" d="M316.88 680.045 L333.199 680.045 L333.199 683.98 L311.255 683.98 L311.255 680.045 Q313.917 677.29 318.5 672.66 Q323.107 668.008 324.287 666.665 Q326.532 664.142 327.412 662.406 Q328.315 660.647 328.315 658.957 Q328.315 656.202 326.37 654.466 Q324.449 652.73 321.347 652.73 Q319.148 652.73 316.695 653.494 Q314.264 654.258 311.486 655.809 L311.486 651.087 Q314.31 649.952 316.764 649.374 Q319.218 648.795 321.255 648.795 Q326.625 648.795 329.819 651.48 Q333.014 654.165 333.014 658.656 Q333.014 660.786 332.204 662.707 Q331.417 664.605 329.31 667.198 Q328.732 667.869 325.63 671.086 Q322.528 674.281 316.88 680.045 Z" fill="#000000" fill-rule="evenodd" fill-opacity="1" /><path clip-path="url(#clip080)" d="M353.014 652.499 Q349.403 652.499 347.574 656.063 Q345.768 659.605 345.768 666.735 Q345.768 673.841 347.574 677.406 Q349.403 680.947 353.014 680.947 Q356.648 680.947 358.454 677.406 Q360.282 673.841 360.282 666.735 Q360.282 659.605 358.454 656.063 Q356.648 652.499 353.014 652.499 M353.014 648.795 Q358.824 648.795 361.88 653.401 Q364.958 657.985 364.958 666.735 Q364.958 675.461 361.88 680.068 Q358.824 684.651 353.014 684.651 Q347.204 684.651 344.125 680.068 Q341.069 675.461 341.069 666.735 Q341.069 657.985 344.125 653.401 Q347.204 648.795 353.014 648.795 Z" fill="#000000" fill-rule="evenodd" fill-opacity="1" /><path clip-path="url(#clip080)" d="M383.176 652.499 Q379.565 652.499 377.736 656.063 Q375.93 659.605 375.93 666.735 Q375.93 673.841 377.736 677.406 Q379.565 680.947 383.176 680.947 Q386.81 680.947 388.615 677.406 Q390.444 673.841 390.444 666.735 Q390.444 659.605 388.615 656.063 Q386.81 652.499 383.176 652.499 M383.176 648.795 Q388.986 648.795 392.041 653.401 Q395.12 657.985 395.12 666.735 Q395.12 675.461 392.041 680.068 Q388.986 684.651 383.176 684.651 Q377.366 684.651 374.287 680.068 Q371.231 675.461 371.231 666.735 Q371.231 657.985 374.287 653.401 Q377.366 648.795 383.176 648.795 Z" fill="#000000" fill-rule="evenodd" fill-opacity="1" /><path clip-path="url(#clip080)" d="M445.306 653.494 L433.5 671.943 L445.306 671.943 L445.306 653.494 M444.079 649.42 L449.958 649.42 L449.958 671.943 L454.889 671.943 L454.889 675.832 L449.958 675.832 L449.958 683.98 L445.306 683.98 L445.306 675.832 L429.704 675.832 L429.704 671.318 L444.079 649.42 Z" fill="#000000" fill-rule="evenodd" fill-opacity="1" /><path clip-path="url(#clip080)" d="M472.62 652.499 Q469.009 652.499 467.18 656.063 Q465.375 659.605 465.375 666.735 Q465.375 673.841 467.18 677.406 Q469.009 680.947 472.62 680.947 Q476.254 680.947 478.06 677.406 Q479.889 673.841 479.889 666.735 Q479.889 659.605 478.06 656.063 Q476.254 652.499 472.62 652.499 M472.62 648.795 Q478.43 648.795 481.486 653.401 Q484.565 657.985 484.565 666.735 Q484.565 675.461 481.486 680.068 Q478.43 684.651 472.62 684.651 Q466.81 684.651 463.731 680.068 Q460.676 675.461 460.676 666.735 Q460.676 657.985 463.731 653.401 Q466.81 648.795 472.62 648.795 Z" fill="#000000" fill-rule="evenodd" fill-opacity="1" /><path clip-path="url(#clip080)" d="M502.782 652.499 Q499.171 652.499 497.342 656.063 Q495.537 659.605 495.537 666.735 Q495.537 673.841 497.342 677.406 Q499.171 680.947 502.782 680.947 Q506.416 680.947 508.222 677.406 Q510.051 673.841 510.051 666.735 Q510.051 659.605 508.222 656.063 Q506.416 652.499 502.782 652.499 M502.782 648.795 Q508.592 648.795 511.648 653.401 Q514.726 657.985 514.726 666.735 Q514.726 675.461 511.648 680.068 Q508.592 684.651 502.782 684.651 Q496.972 684.651 493.893 680.068 Q490.838 675.461 490.838 666.735 Q490.838 657.985 493.893 653.401 Q496.972 648.795 502.782 648.795 Z" fill="#000000" fill-rule="evenodd" fill-opacity="1" /><path clip-path="url(#clip080)" d="M561.567 664.836 Q558.419 664.836 556.567 666.989 Q554.738 669.142 554.738 672.892 Q554.738 676.619 556.567 678.795 Q558.419 680.947 561.567 680.947 Q564.715 680.947 566.544 678.795 Q568.396 676.619 568.396 672.892 Q568.396 669.142 566.544 666.989 Q564.715 664.836 561.567 664.836 M570.849 650.184 L570.849 654.443 Q569.09 653.61 567.285 653.17 Q565.502 652.73 563.743 652.73 Q559.113 652.73 556.66 655.855 Q554.229 658.98 553.882 665.299 Q555.248 663.286 557.308 662.221 Q559.368 661.133 561.845 661.133 Q567.053 661.133 570.062 664.304 Q573.095 667.452 573.095 672.892 Q573.095 678.216 569.947 681.434 Q566.798 684.651 561.567 684.651 Q555.572 684.651 552.4 680.068 Q549.229 675.461 549.229 666.735 Q549.229 658.54 553.118 653.679 Q557.007 648.795 563.558 648.795 Q565.317 648.795 567.099 649.142 Q568.905 649.489 570.849 650.184 Z" fill="#000000" fill-rule="evenodd" fill-opacity="1" /><path clip-path="url(#clip080)" d="M591.15 652.499 Q587.539 652.499 585.71 656.063 Q583.905 659.605 583.905 666.735 Q583.905 673.841 585.71 677.406 Q587.539 680.947 591.15 680.947 Q594.784 680.947 596.59 677.406 Q598.419 673.841 598.419 666.735 Q598.419 659.605 596.59 656.063 Q594.784 652.499 591.15 652.499 M591.15 648.795 Q596.96 648.795 600.016 653.401 Q603.095 657.985 603.095 666.735 Q603.095 675.461 600.016 680.068 Q596.96 684.651 591.15 684.651 Q585.34 684.651 582.261 680.068 Q579.206 675.461 579.206 666.735 Q579.206 657.985 582.261 653.401 Q585.34 648.795 591.15 648.795 Z" fill="#000000" fill-rule="evenodd" fill-opacity="1" /><path clip-path="url(#clip080)" d="M621.312 652.499 Q617.701 652.499 615.872 656.063 Q614.067 659.605 614.067 666.735 Q614.067 673.841 615.872 677.406 Q617.701 680.947 621.312 680.947 Q624.946 680.947 626.752 677.406 Q628.581 673.841 628.581 666.735 Q628.581 659.605 626.752 656.063 Q624.946 652.499 621.312 652.499 M621.312 648.795 Q627.122 648.795 630.178 653.401 Q633.256 657.985 633.256 666.735 Q633.256 675.461 630.178 680.068 Q627.122 684.651 621.312 684.651 Q615.502 684.651 612.423 680.068 Q609.368 675.461 609.368 666.735 Q609.368 657.985 612.423 653.401 Q615.502 648.795 621.312 648.795 Z" fill="#000000" fill-rule="evenodd" fill-opacity="1" /><path clip-path="url(#clip080)" d="M680.062 667.568 Q676.729 667.568 674.808 669.35 Q672.91 671.133 672.91 674.258 Q672.91 677.383 674.808 679.165 Q676.729 680.947 680.062 680.947 Q683.396 680.947 685.317 679.165 Q687.238 677.36 687.238 674.258 Q687.238 671.133 685.317 669.35 Q683.419 667.568 680.062 667.568 M675.386 665.577 Q672.377 664.836 670.687 662.776 Q669.021 660.716 669.021 657.753 Q669.021 653.61 671.961 651.202 Q674.923 648.795 680.062 648.795 Q685.224 648.795 688.164 651.202 Q691.104 653.61 691.104 657.753 Q691.104 660.716 689.414 662.776 Q687.747 664.836 684.761 665.577 Q688.141 666.364 690.016 668.656 Q691.914 670.948 691.914 674.258 Q691.914 679.281 688.835 681.966 Q685.78 684.651 680.062 684.651 Q674.345 684.651 671.266 681.966 Q668.211 679.281 668.211 674.258 Q668.211 670.948 670.109 668.656 Q672.007 666.364 675.386 665.577 M673.673 658.193 Q673.673 660.878 675.34 662.383 Q677.03 663.887 680.062 663.887 Q683.072 663.887 684.761 662.383 Q686.474 660.878 686.474 658.193 Q686.474 655.508 684.761 654.003 Q683.072 652.499 680.062 652.499 Q677.03 652.499 675.34 654.003 Q673.673 655.508 673.673 658.193 Z" fill="#000000" fill-rule="evenodd" fill-opacity="1" /><path clip-path="url(#clip080)" d="M710.224 652.499 Q706.613 652.499 704.784 656.063 Q702.979 659.605 702.979 666.735 Q702.979 673.841 704.784 677.406 Q706.613 680.947 710.224 680.947 Q713.858 680.947 715.664 677.406 Q717.493 673.841 717.493 666.735 Q717.493 659.605 715.664 656.063 Q713.858 652.499 710.224 652.499 M710.224 648.795 Q716.034 648.795 719.09 653.401 Q722.169 657.985 722.169 666.735 Q722.169 675.461 719.09 680.068 Q716.034 684.651 710.224 684.651 Q704.414 684.651 701.335 680.068 Q698.28 675.461 698.28 666.735 Q698.28 657.985 701.335 653.401 Q704.414 648.795 710.224 648.795 Z" fill="#000000" fill-rule="evenodd" fill-opacity="1" /><path clip-path="url(#clip080)" d="M740.386 652.499 Q736.775 652.499 734.946 656.063 Q733.141 659.605 733.141 666.735 Q733.141 673.841 734.946 677.406 Q736.775 680.947 740.386 680.947 Q744.02 680.947 745.826 677.406 Q747.655 673.841 747.655 666.735 Q747.655 659.605 745.826 656.063 Q744.02 652.499 740.386 652.499 M740.386 648.795 Q746.196 648.795 749.252 653.401 Q752.33 657.985 752.33 666.735 Q752.33 675.461 749.252 680.068 Q746.196 684.651 740.386 684.651 Q734.576 684.651 731.497 680.068 Q728.442 675.461 728.442 666.735 Q728.442 657.985 731.497 653.401 Q734.576 648.795 740.386 648.795 Z" fill="#000000" fill-rule="evenodd" fill-opacity="1" /><path clip-path="url(#clip080)" d="M773.824 680.045 L781.463 680.045 L781.463 653.679 L773.153 655.346 L773.153 651.087 L781.416 649.42 L786.092 649.42 L786.092 680.045 L793.731 680.045 L793.731 683.98 L773.824 683.98 L773.824 680.045 Z" fill="#000000" fill-rule="evenodd" fill-opacity="1" /><path clip-path="url(#clip080)" d="M813.176 652.499 Q809.564 652.499 807.736 656.063 Q805.93 659.605 805.93 666.735 Q805.93 673.841 807.736 677.406 Q809.564 680.947 813.176 680.947 Q816.81 680.947 818.615 677.406 Q820.444 673.841 820.444 666.735 Q820.444 659.605 818.615 656.063 Q816.81 652.499 813.176 652.499 M813.176 648.795 Q818.986 648.795 822.041 653.401 Q825.12 657.985 825.12 666.735 Q825.12 675.461 822.041 680.068 Q818.986 684.651 813.176 684.651 Q807.365 684.651 804.287 680.068 Q801.231 675.461 801.231 666.735 Q801.231 657.985 804.287 653.401 Q807.365 648.795 813.176 648.795 Z" fill="#000000" fill-rule="evenodd" fill-opacity="1" /><path clip-path="url(#clip080)" d="M843.337 652.499 Q839.726 652.499 837.898 656.063 Q836.092 659.605 836.092 666.735 Q836.092 673.841 837.898 677.406 Q839.726 680.947 843.337 680.947 Q846.972 680.947 848.777 677.406 Q850.606 673.841 850.606 666.735 Q850.606 659.605 848.777 656.063 Q846.972 652.499 843.337 652.499 M843.337 648.795 Q849.148 648.795 852.203 653.401 Q855.282 657.985 855.282 666.735 Q855.282 675.461 852.203 680.068 Q849.148 684.651 843.337 684.651 Q837.527 684.651 834.449 680.068 Q831.393 675.461 831.393 666.735 Q831.393 657.985 834.449 653.401 Q837.527 648.795 843.337 648.795 Z" fill="#000000" fill-rule="evenodd" fill-opacity="1" /><path clip-path="url(#clip080)" d="M873.499 652.499 Q869.888 652.499 868.06 656.063 Q866.254 659.605 866.254 666.735 Q866.254 673.841 868.06 677.406 Q869.888 680.947 873.499 680.947 Q877.134 680.947 878.939 677.406 Q880.768 673.841 880.768 666.735 Q880.768 659.605 878.939 656.063 Q877.134 652.499 873.499 652.499 M873.499 648.795 Q879.309 648.795 882.365 653.401 Q885.444 657.985 885.444 666.735 Q885.444 675.461 882.365 680.068 Q879.309 684.651 873.499 684.651 Q867.689 684.651 864.61 680.068 Q861.555 675.461 861.555 666.735 Q861.555 657.985 864.61 653.401 Q867.689 648.795 873.499 648.795 Z" fill="#000000" fill-rule="evenodd" fill-opacity="1" /><path clip-path="url(#clip080)" d="M892.852 680.045 L900.49 680.045 L900.49 653.679 L892.18 655.346 L892.18 651.087 L900.444 649.42 L905.12 649.42 L905.12 680.045 L912.759 680.045 L912.759 683.98 L892.852 683.98 L892.852 680.045 Z" fill="#000000" fill-rule="evenodd" fill-opacity="1" /><path clip-path="url(#clip080)" d="M926.231 680.045 L942.55 680.045 L942.55 683.98 L920.606 683.98 L920.606 680.045 Q923.268 677.29 927.851 672.66 Q932.458 668.008 933.638 666.665 Q935.884 664.142 936.763 662.406 Q937.666 660.647 937.666 658.957 Q937.666 656.202 935.722 654.466 Q933.8 652.73 930.699 652.73 Q928.5 652.73 926.046 653.494 Q923.615 654.258 920.838 655.809 L920.838 651.087 Q923.662 649.952 926.115 649.374 Q928.569 648.795 930.606 648.795 Q935.976 648.795 939.171 651.48 Q942.365 654.165 942.365 658.656 Q942.365 660.786 941.555 662.707 Q940.768 664.605 938.662 667.198 Q938.083 667.869 934.981 671.086 Q931.879 674.281 926.231 680.045 Z" fill="#000000" fill-rule="evenodd" fill-opacity="1" /><path clip-path="url(#clip080)" d="M962.365 652.499 Q958.754 652.499 956.925 656.063 Q955.12 659.605 955.12 666.735 Q955.12 673.841 956.925 677.406 Q958.754 680.947 962.365 680.947 Q965.999 680.947 967.805 677.406 Q969.634 673.841 969.634 666.735 Q969.634 659.605 967.805 656.063 Q965.999 652.499 962.365 652.499 M962.365 648.795 Q968.175 648.795 971.231 653.401 Q974.31 657.985 974.31 666.735 Q974.31 675.461 971.231 680.068 Q968.175 684.651 962.365 684.651 Q956.555 684.651 953.476 680.068 Q950.421 675.461 950.421 666.735 Q950.421 657.985 953.476 653.401 Q956.555 648.795 962.365 648.795 Z" fill="#000000" fill-rule="evenodd" fill-opacity="1" /><path clip-path="url(#clip080)" d="M992.527 652.499 Q988.916 652.499 987.087 656.063 Q985.282 659.605 985.282 666.735 Q985.282 673.841 987.087 677.406 Q988.916 680.947 992.527 680.947 Q996.161 680.947 997.967 677.406 Q999.795 673.841 999.795 666.735 Q999.795 659.605 997.967 656.063 Q996.161 652.499 992.527 652.499 M992.527 648.795 Q998.337 648.795 1001.39 653.401 Q1004.47 657.985 1004.47 666.735 Q1004.47 675.461 1001.39 680.068 Q998.337 684.651 992.527 684.651 Q986.717 684.651 983.638 680.068 Q980.583 675.461 980.583 666.735 Q980.583 657.985 983.638 653.401 Q986.717 648.795 992.527 648.795 Z" fill="#000000" fill-rule="evenodd" fill-opacity="1" /><path clip-path="url(#clip080)" d="M1011.88 680.045 L1019.52 680.045 L1019.52 653.679 L1011.21 655.346 L1011.21 651.087 L1019.47 649.42 L1024.15 649.42 L1024.15 680.045 L1031.79 680.045 L1031.79 683.98 L1011.88 683.98 L1011.88 680.045 Z" fill="#000000" fill-rule="evenodd" fill-opacity="1" /><path clip-path="url(#clip080)" d="M1054.08 653.494 L1042.27 671.943 L1054.08 671.943 L1054.08 653.494 M1052.85 649.42 L1058.73 649.42 L1058.73 671.943 L1063.66 671.943 L1063.66 675.832 L1058.73 675.832 L1058.73 683.98 L1054.08 683.98 L1054.08 675.832 L1038.48 675.832 L1038.48 671.318 L1052.85 649.42 Z" fill="#000000" fill-rule="evenodd" fill-opacity="1" /><path clip-path="url(#clip080)" d="M1081.39 652.499 Q1077.78 652.499 1075.95 656.063 Q1074.15 659.605 1074.15 666.735 Q1074.15 673.841 1075.95 677.406 Q1077.78 680.947 1081.39 680.947 Q1085.03 680.947 1086.83 677.406 Q1088.66 673.841 1088.66 666.735 Q1088.66 659.605 1086.83 656.063 Q1085.03 652.499 1081.39 652.499 M1081.39 648.795 Q1087.2 648.795 1090.26 653.401 Q1093.34 657.985 1093.34 666.735 Q1093.34 675.461 1090.26 680.068 Q1087.2 684.651 1081.39 684.651 Q1075.58 684.651 1072.5 680.068 Q1069.45 675.461 1069.45 666.735 Q1069.45 657.985 1072.5 653.401 Q1075.58 648.795 1081.39 648.795 Z" fill="#000000" fill-rule="evenodd" fill-opacity="1" /><path clip-path="url(#clip080)" d="M1111.55 652.499 Q1107.94 652.499 1106.11 656.063 Q1104.31 659.605 1104.31 666.735 Q1104.31 673.841 1106.11 677.406 Q1107.94 680.947 1111.55 680.947 Q1115.19 680.947 1116.99 677.406 Q1118.82 673.841 1118.82 666.735 Q1118.82 659.605 1116.99 656.063 Q1115.19 652.499 1111.55 652.499 M1111.55 648.795 Q1117.36 648.795 1120.42 653.401 Q1123.5 657.985 1123.5 666.735 Q1123.5 675.461 1120.42 680.068 Q1117.36 684.651 1111.55 684.651 Q1105.74 684.651 1102.67 680.068 Q1099.61 675.461 1099.61 666.735 Q1099.61 657.985 1102.67 653.401 Q1105.74 648.795 1111.55 648.795 Z" fill="#000000" fill-rule="evenodd" fill-opacity="1" /><path clip-path="url(#clip080)" d="M710.32 736.528 L710.32 758.044 L704.463 758.044 L704.463 736.719 Q704.463 731.658 702.49 729.144 Q700.516 726.629 696.57 726.629 Q691.827 726.629 689.09 729.653 Q686.353 732.677 686.353 737.896 L686.353 758.044 L680.464 758.044 L680.464 722.396 L686.353 722.396 L686.353 727.934 Q688.453 724.719 691.286 723.128 Q694.151 721.537 697.875 721.537 Q704.018 721.537 707.169 725.356 Q710.32 729.144 710.32 736.528 Z" fill="#000000" fill-rule="evenodd" fill-opacity="1" /><polyline clip-path="url(#clip082)" style="stroke:#000000; stroke-linecap:butt; stroke-linejoin:round; stroke-width:2; stroke-opacity:0.1; fill:none" points="
  238.028,630.55 1152.76,630.55 
  "/>
<polyline clip-path="url(#clip082)" style="stroke:#000000; stroke-linecap:butt; stroke-linejoin:round; stroke-width:2; stroke-opacity:0.1; fill:none" points="
  238.028,525.126 1152.76,525.126 
  "/>
<polyline clip-path="url(#clip082)" style="stroke:#000000; stroke-linecap:butt; stroke-linejoin:round; stroke-width:2; stroke-opacity:0.1; fill:none" points="
  238.028,419.702 1152.76,419.702 
  "/>
<polyline clip-path="url(#clip082)" style="stroke:#000000; stroke-linecap:butt; stroke-linejoin:round; stroke-width:2; stroke-opacity:0.1; fill:none" points="
  238.028,314.279 1152.76,314.279 
  "/>
<polyline clip-path="url(#clip082)" style="stroke:#000000; stroke-linecap:butt; stroke-linejoin:round; stroke-width:2; stroke-opacity:0.1; fill:none" points="
  238.028,208.855 1152.76,208.855 
  "/>
<polyline clip-path="url(#clip080)" style="stroke:#000000; stroke-linecap:butt; stroke-linejoin:round; stroke-width:4; stroke-opacity:1; fill:none" points="
  238.028,631.18 238.028,123.472 
  "/>
<polyline clip-path="url(#clip080)" style="stroke:#000000; stroke-linecap:butt; stroke-linejoin:round; stroke-width:4; stroke-opacity:1; fill:none" points="
  238.028,630.55 256.926,630.55 
  "/>
<polyline clip-path="url(#clip080)" style="stroke:#000000; stroke-linecap:butt; stroke-linejoin:round; stroke-width:4; stroke-opacity:1; fill:none" points="
  238.028,525.126 256.926,525.126 
  "/>
<polyline clip-path="url(#clip080)" style="stroke:#000000; stroke-linecap:butt; stroke-linejoin:round; stroke-width:4; stroke-opacity:1; fill:none" points="
  238.028,419.702 256.926,419.702 
  "/>
<polyline clip-path="url(#clip080)" style="stroke:#000000; stroke-linecap:butt; stroke-linejoin:round; stroke-width:4; stroke-opacity:1; fill:none" points="
  238.028,314.279 256.926,314.279 
  "/>
<polyline clip-path="url(#clip080)" style="stroke:#000000; stroke-linecap:butt; stroke-linejoin:round; stroke-width:4; stroke-opacity:1; fill:none" points="
  238.028,208.855 256.926,208.855 
  "/>
<path clip-path="url(#clip080)" d="M132.691 616.349 Q129.08 616.349 127.251 619.914 Q125.445 623.455 125.445 630.585 Q125.445 637.691 127.251 641.256 Q129.08 644.798 132.691 644.798 Q136.325 644.798 138.13 641.256 Q139.959 637.691 139.959 630.585 Q139.959 623.455 138.13 619.914 Q136.325 616.349 132.691 616.349 M132.691 612.645 Q138.501 612.645 141.556 617.252 Q144.635 621.835 144.635 630.585 Q144.635 639.312 141.556 643.918 Q138.501 648.502 132.691 648.502 Q126.88 648.502 123.802 643.918 Q120.746 639.312 120.746 630.585 Q120.746 621.835 123.802 617.252 Q126.88 612.645 132.691 612.645 Z" fill="#000000" fill-rule="evenodd" fill-opacity="1" /><path clip-path="url(#clip080)" d="M152.853 641.951 L157.737 641.951 L157.737 647.83 L152.853 647.83 L152.853 641.951 Z" fill="#000000" fill-rule="evenodd" fill-opacity="1" /><path clip-path="url(#clip080)" d="M177.922 616.349 Q174.311 616.349 172.482 619.914 Q170.677 623.455 170.677 630.585 Q170.677 637.691 172.482 641.256 Q174.311 644.798 177.922 644.798 Q181.556 644.798 183.362 641.256 Q185.19 637.691 185.19 630.585 Q185.19 623.455 183.362 619.914 Q181.556 616.349 177.922 616.349 M177.922 612.645 Q183.732 612.645 186.788 617.252 Q189.866 621.835 189.866 630.585 Q189.866 639.312 186.788 643.918 Q183.732 648.502 177.922 648.502 Q172.112 648.502 169.033 643.918 Q165.978 639.312 165.978 630.585 Q165.978 621.835 169.033 617.252 Q172.112 612.645 177.922 612.645 Z" fill="#000000" fill-rule="evenodd" fill-opacity="1" /><path clip-path="url(#clip080)" d="M208.084 616.349 Q204.473 616.349 202.644 619.914 Q200.838 623.455 200.838 630.585 Q200.838 637.691 202.644 641.256 Q204.473 644.798 208.084 644.798 Q211.718 644.798 213.524 641.256 Q215.352 637.691 215.352 630.585 Q215.352 623.455 213.524 619.914 Q211.718 616.349 208.084 616.349 M208.084 612.645 Q213.894 612.645 216.949 617.252 Q220.028 621.835 220.028 630.585 Q220.028 639.312 216.949 643.918 Q213.894 648.502 208.084 648.502 Q202.274 648.502 199.195 643.918 Q196.139 639.312 196.139 630.585 Q196.139 621.835 199.195 617.252 Q202.274 612.645 208.084 612.645 Z" fill="#000000" fill-rule="evenodd" fill-opacity="1" /><path clip-path="url(#clip080)" d="M134.288 510.925 Q130.677 510.925 128.848 514.49 Q127.043 518.032 127.043 525.161 Q127.043 532.268 128.848 535.832 Q130.677 539.374 134.288 539.374 Q137.922 539.374 139.728 535.832 Q141.556 532.268 141.556 525.161 Q141.556 518.032 139.728 514.49 Q137.922 510.925 134.288 510.925 M134.288 507.221 Q140.098 507.221 143.154 511.828 Q146.232 516.411 146.232 525.161 Q146.232 533.888 143.154 538.494 Q140.098 543.078 134.288 543.078 Q128.478 543.078 125.399 538.494 Q122.343 533.888 122.343 525.161 Q122.343 516.411 125.399 511.828 Q128.478 507.221 134.288 507.221 Z" fill="#000000" fill-rule="evenodd" fill-opacity="1" /><path clip-path="url(#clip080)" d="M154.45 536.527 L159.334 536.527 L159.334 542.406 L154.45 542.406 L154.45 536.527 Z" fill="#000000" fill-rule="evenodd" fill-opacity="1" /><path clip-path="url(#clip080)" d="M179.519 510.925 Q175.908 510.925 174.079 514.49 Q172.274 518.032 172.274 525.161 Q172.274 532.268 174.079 535.832 Q175.908 539.374 179.519 539.374 Q183.153 539.374 184.959 535.832 Q186.788 532.268 186.788 525.161 Q186.788 518.032 184.959 514.49 Q183.153 510.925 179.519 510.925 M179.519 507.221 Q185.329 507.221 188.385 511.828 Q191.463 516.411 191.463 525.161 Q191.463 533.888 188.385 538.494 Q185.329 543.078 179.519 543.078 Q173.709 543.078 170.63 538.494 Q167.575 533.888 167.575 525.161 Q167.575 516.411 170.63 511.828 Q173.709 507.221 179.519 507.221 Z" fill="#000000" fill-rule="evenodd" fill-opacity="1" /><path clip-path="url(#clip080)" d="M203.709 538.471 L220.028 538.471 L220.028 542.406 L198.084 542.406 L198.084 538.471 Q200.746 535.717 205.329 531.087 Q209.936 526.434 211.116 525.092 Q213.362 522.569 214.241 520.832 Q215.144 519.073 215.144 517.383 Q215.144 514.629 213.199 512.893 Q211.278 511.157 208.176 511.157 Q205.977 511.157 203.524 511.92 Q201.093 512.684 198.315 514.235 L198.315 509.513 Q201.139 508.379 203.593 507.8 Q206.047 507.221 208.084 507.221 Q213.454 507.221 216.649 509.907 Q219.843 512.592 219.843 517.082 Q219.843 519.212 219.033 521.133 Q218.246 523.031 216.139 525.624 Q215.561 526.295 212.459 529.513 Q209.357 532.707 203.709 538.471 Z" fill="#000000" fill-rule="evenodd" fill-opacity="1" /><path clip-path="url(#clip080)" d="M132.205 405.501 Q128.593 405.501 126.765 409.066 Q124.959 412.608 124.959 419.737 Q124.959 426.844 126.765 430.408 Q128.593 433.95 132.205 433.95 Q135.839 433.95 137.644 430.408 Q139.473 426.844 139.473 419.737 Q139.473 412.608 137.644 409.066 Q135.839 405.501 132.205 405.501 M132.205 401.797 Q138.015 401.797 141.07 406.404 Q144.149 410.987 144.149 419.737 Q144.149 428.464 141.07 433.07 Q138.015 437.654 132.205 437.654 Q126.394 437.654 123.316 433.07 Q120.26 428.464 120.26 419.737 Q120.26 410.987 123.316 406.404 Q126.394 401.797 132.205 401.797 Z" fill="#000000" fill-rule="evenodd" fill-opacity="1" /><path clip-path="url(#clip080)" d="M152.366 431.103 L157.251 431.103 L157.251 436.982 L152.366 436.982 L152.366 431.103 Z" fill="#000000" fill-rule="evenodd" fill-opacity="1" /><path clip-path="url(#clip080)" d="M177.436 405.501 Q173.825 405.501 171.996 409.066 Q170.19 412.608 170.19 419.737 Q170.19 426.844 171.996 430.408 Q173.825 433.95 177.436 433.95 Q181.07 433.95 182.876 430.408 Q184.704 426.844 184.704 419.737 Q184.704 412.608 182.876 409.066 Q181.07 405.501 177.436 405.501 M177.436 401.797 Q183.246 401.797 186.301 406.404 Q189.38 410.987 189.38 419.737 Q189.38 428.464 186.301 433.07 Q183.246 437.654 177.436 437.654 Q171.626 437.654 168.547 433.07 Q165.491 428.464 165.491 419.737 Q165.491 410.987 168.547 406.404 Q171.626 401.797 177.436 401.797 Z" fill="#000000" fill-rule="evenodd" fill-opacity="1" /><path clip-path="url(#clip080)" d="M210.445 406.497 L198.639 424.945 L210.445 424.945 L210.445 406.497 M209.218 402.422 L215.098 402.422 L215.098 424.945 L220.028 424.945 L220.028 428.834 L215.098 428.834 L215.098 436.982 L210.445 436.982 L210.445 428.834 L194.843 428.834 L194.843 424.32 L209.218 402.422 Z" fill="#000000" fill-rule="evenodd" fill-opacity="1" /><path clip-path="url(#clip080)" d="M132.529 300.077 Q128.918 300.077 127.089 303.642 Q125.283 307.184 125.283 314.313 Q125.283 321.42 127.089 324.984 Q128.918 328.526 132.529 328.526 Q136.163 328.526 137.968 324.984 Q139.797 321.42 139.797 314.313 Q139.797 307.184 137.968 303.642 Q136.163 300.077 132.529 300.077 M132.529 296.374 Q138.339 296.374 141.394 300.98 Q144.473 305.563 144.473 314.313 Q144.473 323.04 141.394 327.647 Q138.339 332.23 132.529 332.23 Q126.718 332.23 123.64 327.647 Q120.584 323.04 120.584 314.313 Q120.584 305.563 123.64 300.98 Q126.718 296.374 132.529 296.374 Z" fill="#000000" fill-rule="evenodd" fill-opacity="1" /><path clip-path="url(#clip080)" d="M152.691 325.679 L157.575 325.679 L157.575 331.559 L152.691 331.559 L152.691 325.679 Z" fill="#000000" fill-rule="evenodd" fill-opacity="1" /><path clip-path="url(#clip080)" d="M177.76 300.077 Q174.149 300.077 172.32 303.642 Q170.515 307.184 170.515 314.313 Q170.515 321.42 172.32 324.984 Q174.149 328.526 177.76 328.526 Q181.394 328.526 183.2 324.984 Q185.028 321.42 185.028 314.313 Q185.028 307.184 183.2 303.642 Q181.394 300.077 177.76 300.077 M177.76 296.374 Q183.57 296.374 186.626 300.98 Q189.704 305.563 189.704 314.313 Q189.704 323.04 186.626 327.647 Q183.57 332.23 177.76 332.23 Q171.95 332.23 168.871 327.647 Q165.815 323.04 165.815 314.313 Q165.815 305.563 168.871 300.98 Q171.95 296.374 177.76 296.374 Z" fill="#000000" fill-rule="evenodd" fill-opacity="1" /><path clip-path="url(#clip080)" d="M208.5 312.415 Q205.352 312.415 203.5 314.568 Q201.672 316.721 201.672 320.471 Q201.672 324.197 203.5 326.373 Q205.352 328.526 208.5 328.526 Q211.649 328.526 213.477 326.373 Q215.329 324.197 215.329 320.471 Q215.329 316.721 213.477 314.568 Q211.649 312.415 208.5 312.415 M217.783 297.762 L217.783 302.022 Q216.024 301.188 214.218 300.749 Q212.436 300.309 210.676 300.309 Q206.047 300.309 203.593 303.434 Q201.163 306.559 200.815 312.878 Q202.181 310.864 204.241 309.799 Q206.301 308.711 208.778 308.711 Q213.987 308.711 216.996 311.883 Q220.028 315.031 220.028 320.471 Q220.028 325.795 216.88 329.012 Q213.732 332.23 208.5 332.23 Q202.505 332.23 199.334 327.647 Q196.163 323.04 196.163 314.313 Q196.163 306.119 200.051 301.258 Q203.94 296.374 210.491 296.374 Q212.25 296.374 214.033 296.721 Q215.838 297.068 217.783 297.762 Z" fill="#000000" fill-rule="evenodd" fill-opacity="1" /><path clip-path="url(#clip080)" d="M132.783 194.653 Q129.172 194.653 127.343 198.218 Q125.538 201.76 125.538 208.889 Q125.538 215.996 127.343 219.561 Q129.172 223.102 132.783 223.102 Q136.417 223.102 138.223 219.561 Q140.052 215.996 140.052 208.889 Q140.052 201.76 138.223 198.218 Q136.417 194.653 132.783 194.653 M132.783 190.95 Q138.593 190.95 141.649 195.556 Q144.728 200.139 144.728 208.889 Q144.728 217.616 141.649 222.223 Q138.593 226.806 132.783 226.806 Q126.973 226.806 123.894 222.223 Q120.839 217.616 120.839 208.889 Q120.839 200.139 123.894 195.556 Q126.973 190.95 132.783 190.95 Z" fill="#000000" fill-rule="evenodd" fill-opacity="1" /><path clip-path="url(#clip080)" d="M152.945 220.255 L157.829 220.255 L157.829 226.135 L152.945 226.135 L152.945 220.255 Z" fill="#000000" fill-rule="evenodd" fill-opacity="1" /><path clip-path="url(#clip080)" d="M178.014 194.653 Q174.403 194.653 172.575 198.218 Q170.769 201.76 170.769 208.889 Q170.769 215.996 172.575 219.561 Q174.403 223.102 178.014 223.102 Q181.649 223.102 183.454 219.561 Q185.283 215.996 185.283 208.889 Q185.283 201.76 183.454 198.218 Q181.649 194.653 178.014 194.653 M178.014 190.95 Q183.825 190.95 186.88 195.556 Q189.959 200.139 189.959 208.889 Q189.959 217.616 186.88 222.223 Q183.825 226.806 178.014 226.806 Q172.204 226.806 169.126 222.223 Q166.07 217.616 166.07 208.889 Q166.07 200.139 169.126 195.556 Q172.204 190.95 178.014 190.95 Z" fill="#000000" fill-rule="evenodd" fill-opacity="1" /><path clip-path="url(#clip080)" d="M208.176 209.723 Q204.843 209.723 202.922 211.505 Q201.024 213.287 201.024 216.412 Q201.024 219.537 202.922 221.32 Q204.843 223.102 208.176 223.102 Q211.51 223.102 213.431 221.32 Q215.352 219.514 215.352 216.412 Q215.352 213.287 213.431 211.505 Q211.533 209.723 208.176 209.723 M203.5 207.732 Q200.491 206.991 198.801 204.931 Q197.135 202.871 197.135 199.908 Q197.135 195.764 200.075 193.357 Q203.037 190.95 208.176 190.95 Q213.338 190.95 216.278 193.357 Q219.218 195.764 219.218 199.908 Q219.218 202.871 217.528 204.931 Q215.861 206.991 212.875 207.732 Q216.255 208.519 218.13 210.811 Q220.028 213.102 220.028 216.412 Q220.028 221.436 216.949 224.121 Q213.894 226.806 208.176 226.806 Q202.459 226.806 199.38 224.121 Q196.325 221.436 196.325 216.412 Q196.325 213.102 198.223 210.811 Q200.121 208.519 203.5 207.732 M201.787 200.348 Q201.787 203.033 203.454 204.537 Q205.144 206.042 208.176 206.042 Q211.186 206.042 212.875 204.537 Q214.588 203.033 214.588 200.348 Q214.588 197.663 212.875 196.158 Q211.186 194.653 208.176 194.653 Q205.144 194.653 203.454 196.158 Q201.787 197.663 201.787 200.348 Z" fill="#000000" fill-rule="evenodd" fill-opacity="1" /><path clip-path="url(#clip080)" d="M65.3104 693.304 L82.7206 693.304 L82.7206 682.991 Q82.7206 677.803 80.5881 675.321 Q78.4238 672.806 73.9996 672.806 Q69.5436 672.806 67.4429 675.321 Q65.3104 677.803 65.3104 682.991 L65.3104 693.304 M45.7677 693.304 L60.0905 693.304 L60.0905 683.787 Q60.0905 679.076 58.34 676.785 Q56.5576 674.461 52.9291 674.461 Q49.3325 674.461 47.5501 676.785 Q45.7677 679.076 45.7677 683.787 L45.7677 693.304 M40.4842 699.733 L40.4842 683.31 Q40.4842 675.957 43.5397 671.979 Q46.5952 668 52.2289 668 Q56.5894 668 59.1675 670.037 Q61.7456 672.074 62.3822 676.021 Q63.4007 671.278 66.6472 668.668 Q69.8619 666.027 74.6998 666.027 Q81.0655 666.027 84.5348 670.355 Q88.0042 674.684 88.0042 682.673 L88.0042 699.733 L40.4842 699.733 Z" fill="#000000" fill-rule="evenodd" fill-opacity="1" /><path clip-path="url(#clip080)" d="M56.4621 641.455 Q56.4621 646.166 60.1542 648.903 Q63.8145 651.64 70.212 651.64 Q76.6095 651.64 80.3017 648.935 Q83.9619 646.198 83.9619 641.455 Q83.9619 636.776 80.2698 634.039 Q76.5777 631.302 70.212 631.302 Q63.8781 631.302 60.186 634.039 Q56.4621 636.776 56.4621 641.455 M51.4968 641.455 Q51.4968 633.816 56.4621 629.456 Q61.4273 625.095 70.212 625.095 Q78.9649 625.095 83.9619 629.456 Q88.9272 633.816 88.9272 641.455 Q88.9272 649.126 83.9619 653.486 Q78.9649 657.815 70.212 657.815 Q61.4273 657.815 56.4621 653.486 Q51.4968 649.126 51.4968 641.455 Z" fill="#000000" fill-rule="evenodd" fill-opacity="1" /><path clip-path="url(#clip080)" d="M42.2347 609.595 L52.3562 609.595 L52.3562 597.532 L56.9077 597.532 L56.9077 609.595 L76.2594 609.595 Q80.6199 609.595 81.8613 608.417 Q83.1026 607.208 83.1026 603.547 L83.1026 597.532 L88.0042 597.532 L88.0042 603.547 Q88.0042 610.327 85.4897 612.905 Q82.9434 615.483 76.2594 615.483 L56.9077 615.483 L56.9077 619.78 L52.3562 619.78 L52.3562 615.483 L42.2347 615.483 L42.2347 609.595 Z" fill="#000000" fill-rule="evenodd" fill-opacity="1" /><path clip-path="url(#clip080)" d="M42.2347 584.036 L52.3562 584.036 L52.3562 571.973 L56.9077 571.973 L56.9077 584.036 L76.2594 584.036 Q80.6199 584.036 81.8613 582.859 Q83.1026 581.649 83.1026 577.989 L83.1026 571.973 L88.0042 571.973 L88.0042 577.989 Q88.0042 584.768 85.4897 587.347 Q82.9434 589.925 76.2594 589.925 L56.9077 589.925 L56.9077 594.222 L52.3562 594.222 L52.3562 589.925 L42.2347 589.925 L42.2347 584.036 Z" fill="#000000" fill-rule="evenodd" fill-opacity="1" /><path clip-path="url(#clip080)" d="M38.479 564.271 L38.479 558.414 L88.0042 558.414 L88.0042 564.271 L38.479 564.271 Z" fill="#000000" fill-rule="evenodd" fill-opacity="1" /><path clip-path="url(#clip080)" d="M68.7161 515.669 L71.5806 515.669 L71.5806 542.596 Q77.6281 542.214 80.8109 538.967 Q83.9619 535.689 83.9619 529.864 Q83.9619 526.49 83.1344 523.339 Q82.3069 520.157 80.6518 517.037 L86.1899 517.037 Q87.5267 520.188 88.227 523.499 Q88.9272 526.809 88.9272 530.214 Q88.9272 538.744 83.9619 543.741 Q78.9967 548.707 70.5303 548.707 Q61.7774 548.707 56.6531 543.996 Q51.4968 539.254 51.4968 531.233 Q51.4968 524.04 56.1438 519.87 Q60.7589 515.669 68.7161 515.669 M66.9973 521.525 Q62.1912 521.589 59.3266 524.231 Q56.4621 526.841 56.4621 531.169 Q56.4621 536.071 59.2312 539.031 Q62.0002 541.959 67.0292 542.405 L66.9973 521.525 Z" fill="#000000" fill-rule="evenodd" fill-opacity="1" /><path clip-path="url(#clip080)" d="M66.4881 476.424 L88.0042 476.424 L88.0042 482.281 L66.679 482.281 Q61.6183 482.281 59.1038 484.254 Q56.5894 486.227 56.5894 490.174 Q56.5894 494.916 59.6131 497.654 Q62.6368 500.391 67.8567 500.391 L88.0042 500.391 L88.0042 506.279 L52.3562 506.279 L52.3562 500.391 L57.8944 500.391 Q54.6797 498.29 53.0883 495.458 Q51.4968 492.593 51.4968 488.869 Q51.4968 482.726 55.3163 479.575 Q59.1038 476.424 66.4881 476.424 Z" fill="#000000" fill-rule="evenodd" fill-opacity="1" /><path clip-path="url(#clip080)" d="M68.7161 434.251 L71.5806 434.251 L71.5806 461.178 Q77.6281 460.796 80.8109 457.55 Q83.9619 454.271 83.9619 448.447 Q83.9619 445.073 83.1344 441.922 Q82.3069 438.739 80.6518 435.62 L86.1899 435.62 Q87.5267 438.771 88.227 442.081 Q88.9272 445.391 88.9272 448.797 Q88.9272 457.327 83.9619 462.324 Q78.9967 467.289 70.5303 467.289 Q61.7774 467.289 56.6531 462.579 Q51.4968 457.836 51.4968 449.815 Q51.4968 442.622 56.1438 438.453 Q60.7589 434.251 68.7161 434.251 M66.9973 440.108 Q62.1912 440.171 59.3266 442.813 Q56.4621 445.423 56.4621 449.752 Q56.4621 454.653 59.2312 457.613 Q62.0002 460.542 67.0292 460.987 L66.9973 440.108 Z" fill="#000000" fill-rule="evenodd" fill-opacity="1" /><path clip-path="url(#clip080)" d="M53.7248 398.985 L59.1993 398.985 Q57.8307 401.468 57.1623 403.982 Q56.4621 406.465 56.4621 409.011 Q56.4621 414.709 60.0905 417.86 Q63.6872 421.011 70.212 421.011 Q76.7369 421.011 80.3653 417.86 Q83.9619 414.709 83.9619 409.011 Q83.9619 406.465 83.2935 403.982 Q82.5933 401.468 81.2247 398.985 L86.6355 398.985 Q87.7814 401.436 88.3543 404.078 Q88.9272 406.688 88.9272 409.648 Q88.9272 417.7 83.8664 422.443 Q78.8057 427.185 70.212 427.185 Q61.491 427.185 56.4939 422.411 Q51.4968 417.605 51.4968 409.266 Q51.4968 406.56 52.0697 403.982 Q52.6108 401.404 53.7248 398.985 Z" fill="#000000" fill-rule="evenodd" fill-opacity="1" /><path clip-path="url(#clip080)" d="M38.479 389.023 L38.479 383.135 L67.7294 383.135 L52.3562 365.661 L52.3562 358.181 L69.0344 377.087 L88.0042 357.385 L88.0042 365.024 L70.5939 383.135 L88.0042 383.135 L88.0042 389.023 L38.479 389.023 Z" fill="#000000" fill-rule="evenodd" fill-opacity="1" /><path clip-path="url(#clip080)" d="M45.7677 323.647 L82.7206 323.647 L82.7206 315.881 Q82.7206 306.046 78.2646 301.495 Q73.8086 296.911 64.1964 296.911 Q54.6479 296.911 50.2237 301.495 Q45.7677 306.046 45.7677 315.881 L45.7677 323.647 M40.4842 330.077 L40.4842 316.868 Q40.4842 303.054 46.2451 296.593 Q51.9743 290.132 64.1964 290.132 Q76.4822 290.132 82.2432 296.625 Q88.0042 303.118 88.0042 316.868 L88.0042 330.077 L40.4842 330.077 Z" fill="#000000" fill-rule="evenodd" fill-opacity="1" /><path clip-path="url(#clip080)" d="M52.3562 280.138 L52.3562 274.281 L88.0042 274.281 L88.0042 280.138 L52.3562 280.138 M38.479 280.138 L38.479 274.281 L45.895 274.281 L45.895 280.138 L38.479 280.138 Z" fill="#000000" fill-rule="evenodd" fill-opacity="1" /><path clip-path="url(#clip080)" d="M53.4065 239.302 L58.9447 239.302 Q57.6716 241.784 57.035 244.458 Q56.3984 247.131 56.3984 249.996 Q56.3984 254.356 57.7352 256.553 Q59.072 258.717 61.7456 258.717 Q63.7826 258.717 64.9603 257.157 Q66.1061 255.598 67.1565 250.887 L67.6021 248.882 Q68.9389 242.644 71.3897 240.034 Q73.8086 237.392 78.1691 237.392 Q83.1344 237.392 86.0308 241.339 Q88.9272 245.253 88.9272 252.128 Q88.9272 254.993 88.3543 258.112 Q87.8132 261.2 86.6992 264.637 L80.6518 264.637 Q82.3387 261.391 83.198 258.24 Q84.0256 255.089 84.0256 252.001 Q84.0256 247.863 82.6251 245.635 Q81.1929 243.407 78.6147 243.407 Q76.2276 243.407 74.9545 245.031 Q73.6813 246.622 72.5037 252.065 L72.0262 254.102 Q70.8804 259.544 68.5251 261.963 Q66.138 264.382 62.0002 264.382 Q56.9713 264.382 54.2341 260.818 Q51.4968 257.253 51.4968 250.696 Q51.4968 247.45 51.9743 244.585 Q52.4517 241.721 53.4065 239.302 Z" fill="#000000" fill-rule="evenodd" fill-opacity="1" /><path clip-path="url(#clip080)" d="M42.2347 222.273 L52.3562 222.273 L52.3562 210.21 L56.9077 210.21 L56.9077 222.273 L76.2594 222.273 Q80.6199 222.273 81.8613 221.096 Q83.1026 219.886 83.1026 216.226 L83.1026 210.21 L88.0042 210.21 L88.0042 216.226 Q88.0042 223.005 85.4897 225.583 Q82.9434 228.162 76.2594 228.162 L56.9077 228.162 L56.9077 232.458 L52.3562 232.458 L52.3562 228.162 L42.2347 228.162 L42.2347 222.273 Z" fill="#000000" fill-rule="evenodd" fill-opacity="1" /><path clip-path="url(#clip080)" d="M70.0847 186.307 Q70.0847 193.405 71.7079 196.142 Q73.3312 198.879 77.2461 198.879 Q80.3653 198.879 82.2114 196.842 Q84.0256 194.773 84.0256 191.24 Q84.0256 186.371 80.5881 183.442 Q77.1188 180.482 71.3897 180.482 L70.0847 180.482 L70.0847 186.307 M67.6657 174.626 L88.0042 174.626 L88.0042 180.482 L82.5933 180.482 Q85.8398 182.488 87.3994 185.48 Q88.9272 188.471 88.9272 192.8 Q88.9272 198.275 85.8716 201.521 Q82.7843 204.736 77.6281 204.736 Q71.6125 204.736 68.5569 200.725 Q65.5014 196.683 65.5014 188.694 L65.5014 180.482 L64.9285 180.482 Q60.8862 180.482 58.6901 183.156 Q56.4621 185.798 56.4621 190.604 Q56.4621 193.659 57.1941 196.556 Q57.9262 199.452 59.3903 202.126 L53.9795 202.126 Q52.7381 198.911 52.1334 195.887 Q51.4968 192.864 51.4968 189.999 Q51.4968 182.265 55.5072 178.445 Q59.5176 174.626 67.6657 174.626 Z" fill="#000000" fill-rule="evenodd" fill-opacity="1" /><path clip-path="url(#clip080)" d="M66.4881 132.931 L88.0042 132.931 L88.0042 138.787 L66.679 138.787 Q61.6183 138.787 59.1038 140.76 Q56.5894 142.734 56.5894 146.681 Q56.5894 151.423 59.6131 154.16 Q62.6368 156.897 67.8567 156.897 L88.0042 156.897 L88.0042 162.786 L52.3562 162.786 L52.3562 156.897 L57.8944 156.897 Q54.6797 154.797 53.0883 151.964 Q51.4968 149.099 51.4968 145.376 Q51.4968 139.233 55.3163 136.082 Q59.1038 132.931 66.4881 132.931 Z" fill="#000000" fill-rule="evenodd" fill-opacity="1" /><path clip-path="url(#clip080)" d="M53.7248 95.5957 L59.1993 95.5957 Q57.8307 98.0783 57.1623 100.593 Q56.4621 103.075 56.4621 105.622 Q56.4621 111.319 60.0905 114.47 Q63.6872 117.621 70.212 117.621 Q76.7369 117.621 80.3653 114.47 Q83.9619 111.319 83.9619 105.622 Q83.9619 103.075 83.2935 100.593 Q82.5933 98.0783 81.2247 95.5957 L86.6355 95.5957 Q87.7814 98.0465 88.3543 100.688 Q88.9272 103.298 88.9272 106.258 Q88.9272 114.311 83.8664 119.053 Q78.8057 123.796 70.212 123.796 Q61.491 123.796 56.4939 119.022 Q51.4968 114.215 51.4968 105.876 Q51.4968 103.171 52.0697 100.593 Q52.6108 98.0147 53.7248 95.5957 Z" fill="#000000" fill-rule="evenodd" fill-opacity="1" /><path clip-path="url(#clip080)" d="M68.7161 54.9189 L71.5806 54.9189 L71.5806 81.8458 Q77.6281 81.4639 80.8109 78.2173 Q83.9619 74.939 83.9619 69.1144 Q83.9619 65.7406 83.1344 62.5895 Q82.3069 59.4067 80.6518 56.2875 L86.1899 56.2875 Q87.5267 59.4385 88.227 62.7487 Q88.9272 66.0588 88.9272 69.4645 Q88.9272 77.9945 83.9619 82.9916 Q78.9967 87.9569 70.5303 87.9569 Q61.7774 87.9569 56.6531 83.2463 Q51.4968 78.5038 51.4968 70.483 Q51.4968 63.2898 56.1438 59.1202 Q60.7589 54.9189 68.7161 54.9189 M66.9973 60.7753 Q62.1912 60.839 59.3266 63.4807 Q56.4621 66.0907 56.4621 70.4194 Q56.4621 75.3209 59.2312 78.281 Q62.0002 81.2092 67.0292 81.6548 L66.9973 60.7753 Z" fill="#000000" fill-rule="evenodd" fill-opacity="1" /><path clip-path="url(#clip080)" d="M536.698 34.4165 Q535.199 33.8899 533.7 33.4848 Q529.69 32.4315 525.396 32.4315 Q517.983 32.4315 513.851 36.4419 Q510.002 40.1688 509.273 47.0148 L536.698 47.0148 L536.698 52.8481 L509.273 52.8481 Q510.002 59.6941 513.851 63.421 Q517.983 67.4314 525.396 67.4314 Q530.581 67.4314 533.7 66.3781 L536.698 65.3654 L536.698 72.1304 L533.498 72.8596 Q529.285 73.7508 524.95 73.7508 Q514.094 73.7508 507.774 67.4314 Q501.414 61.1119 501.414 49.9314 Q501.414 38.7509 507.774 32.4315 Q514.094 26.1121 524.95 26.1121 Q529.042 26.1121 533.498 27.0033 Q535.118 27.3274 536.698 27.8135 L536.698 34.4165 Z" fill="#000000" fill-rule="evenodd" fill-opacity="1" /><path clip-path="url(#clip080)" d="M556.669 34.9026 L608.601 34.9026 L608.601 41.7081 L556.669 41.7081 L556.669 34.9026 M556.669 51.4303 L608.601 51.4303 L608.601 58.3168 L556.669 58.3168 L556.669 51.4303 Z" fill="#000000" fill-rule="evenodd" fill-opacity="1" /><path clip-path="url(#clip080)" d="M625.21 9.54393 L632.664 9.54393 L632.664 72.576 L625.21 72.576 L625.21 9.54393 Z" fill="#000000" fill-rule="evenodd" fill-opacity="1" /><path clip-path="url(#clip080)" d="M665.841 32.4315 Q659.845 32.4315 656.362 37.1306 Q652.878 41.7891 652.878 49.9314 Q652.878 58.0738 656.321 62.7728 Q659.805 67.4314 665.841 67.4314 Q671.796 67.4314 675.279 62.7323 Q678.763 58.0333 678.763 49.9314 Q678.763 41.8701 675.279 37.1711 Q671.796 32.4315 665.841 32.4315 M665.841 26.1121 Q675.563 26.1121 681.113 32.4315 Q686.662 38.7509 686.662 49.9314 Q686.662 61.0714 681.113 67.4314 Q675.563 73.7508 665.841 73.7508 Q656.078 73.7508 650.528 67.4314 Q645.019 61.0714 645.019 49.9314 Q645.019 38.7509 650.528 32.4315 Q656.078 26.1121 665.841 26.1121 Z" fill="#000000" fill-rule="evenodd" fill-opacity="1" /><path clip-path="url(#clip080)" d="M728.873 49.3643 Q728.873 41.2625 725.51 36.8065 Q722.189 32.3505 716.153 32.3505 Q710.158 32.3505 706.795 36.8065 Q703.474 41.2625 703.474 49.3643 Q703.474 57.4256 706.795 61.8816 Q710.158 66.3376 716.153 66.3376 Q722.189 66.3376 725.51 61.8816 Q728.873 57.4256 728.873 49.3643 M736.326 66.9452 Q736.326 78.5308 731.182 84.1616 Q726.037 89.8329 715.424 89.8329 Q711.494 89.8329 708.011 89.2252 Q704.527 88.6581 701.246 87.4428 L701.246 80.1917 Q704.527 81.9741 707.727 82.8248 Q710.927 83.6755 714.249 83.6755 Q721.581 83.6755 725.227 79.8271 Q728.873 76.0193 728.873 68.282 L728.873 64.5957 Q726.564 68.6061 722.958 70.5911 Q719.353 72.576 714.33 72.576 Q705.985 72.576 700.881 66.2161 Q695.777 59.8562 695.777 49.3643 Q695.777 38.832 700.881 32.472 Q705.985 26.1121 714.33 26.1121 Q719.353 26.1121 722.958 28.0971 Q726.564 30.082 728.873 34.0924 L728.873 27.2059 L736.326 27.2059 L736.326 66.9452 Z" fill="#000000" fill-rule="evenodd" fill-opacity="1" /><path clip-path="url(#clip080)" d="M748.601 10.2326 L753.34 10.2326 L753.34 31.0542 L767.356 20.1168 L773.352 20.1168 L758.161 31.9859 L773.959 45.516 L767.842 45.516 L753.34 33.1202 L753.34 45.516 L748.601 45.516 L748.601 10.2326 Z" fill="#000000" fill-rule="evenodd" fill-opacity="1" /><path clip-path="url(#clip080)" d="M804.908 9.62495 Q799.48 18.942 796.847 28.0566 Q794.214 37.1711 794.214 46.5287 Q794.214 55.8863 796.847 65.0818 Q799.521 74.2369 804.908 83.5134 L798.427 83.5134 Q792.35 73.9938 789.312 64.7983 Q786.315 55.6027 786.315 46.5287 Q786.315 37.4952 789.312 28.3401 Q792.31 19.1851 798.427 9.62495 L804.908 9.62495 Z" fill="#000000" fill-rule="evenodd" fill-opacity="1" /><path clip-path="url(#clip080)" d="M857.084 45.1919 L857.084 72.576 L849.63 72.576 L849.63 45.4349 Q849.63 38.994 847.119 35.7938 Q844.607 32.5936 839.584 32.5936 Q833.548 32.5936 830.064 36.4419 Q826.581 40.2903 826.581 46.9338 L826.581 72.576 L819.086 72.576 L819.086 27.2059 L826.581 27.2059 L826.581 34.2544 Q829.254 30.163 832.859 28.1376 Q836.505 26.1121 841.245 26.1121 Q849.063 26.1121 853.073 30.9732 Q857.084 35.7938 857.084 45.1919 Z" fill="#000000" fill-rule="evenodd" fill-opacity="1" /><path clip-path="url(#clip080)" d="M870.776 9.62495 L877.257 9.62495 Q883.334 19.1851 886.331 28.3401 Q889.37 37.4952 889.37 46.5287 Q889.37 55.6027 886.331 64.7983 Q883.334 73.9938 877.257 83.5134 L870.776 83.5134 Q876.164 74.2369 878.797 65.0818 Q881.47 55.8863 881.47 46.5287 Q881.47 37.1711 878.797 28.0566 Q876.164 18.942 870.776 9.62495 Z" fill="#000000" fill-rule="evenodd" fill-opacity="1" /><polyline clip-path="url(#clip082)" style="stroke:#009af9; stroke-linecap:butt; stroke-linejoin:round; stroke-width:12; stroke-opacity:1; fill:none" points="
  263.917,137.841 293.674,451.062 353.187,490.214 472.215,553.785 591.243,572.967 710.27,574.394 829.298,574.421 1126.87,582.052 
  "/>
<polyline clip-path="url(#clip082)" style="stroke:#e26f46; stroke-linecap:butt; stroke-linejoin:round; stroke-width:12; stroke-opacity:1; fill:none" points="
  263.917,316.785 293.674,481.147 353.187,532.584 472.215,573.106 591.243,601.727 710.27,591.461 829.298,593.773 1126.87,608.901 
  "/>
<polyline clip-path="url(#clip082)" style="stroke:#3da44d; stroke-linecap:butt; stroke-linejoin:round; stroke-width:12; stroke-opacity:1; fill:none" points="
  263.917,453.258 293.674,522.032 353.187,569.135 472.215,596.422 591.243,601.459 710.27,613.051 829.298,616.811 1126.87,613.682 
  "/>
<path clip-path="url(#clip080)" d="
M855.19 347.756 L1122.26 347.756 L1122.26 140.396 L855.19 140.396  Z
  " fill="#ffffff" fill-rule="evenodd" fill-opacity="1"/>
<polyline clip-path="url(#clip080)" style="stroke:#000000; stroke-linecap:butt; stroke-linejoin:round; stroke-width:4; stroke-opacity:1; fill:none" points="
  855.19,347.756 1122.26,347.756 1122.26,140.396 855.19,140.396 855.19,347.756 
  "/>
<polyline clip-path="url(#clip080)" style="stroke:#009af9; stroke-linecap:butt; stroke-linejoin:round; stroke-width:4; stroke-opacity:1; fill:none" points="
  865.353,192.236 926.335,192.236 
  "/>
<path clip-path="url(#clip080)" d="M936.499 173.497 L940.781 173.497 L940.781 194.77 L953.489 183.59 L958.929 183.59 L945.179 195.719 L959.508 209.516 L953.952 209.516 L940.781 196.854 L940.781 209.516 L936.499 209.516 L936.499 173.497 Z" fill="#000000" fill-rule="evenodd" fill-opacity="1" /><path clip-path="url(#clip080)" d="M964.67 187.988 L994.346 187.988 L994.346 191.877 L964.67 191.877 L964.67 187.988 M964.67 197.432 L994.346 197.432 L994.346 201.368 L964.67 201.368 L964.67 197.432 Z" fill="#000000" fill-rule="evenodd" fill-opacity="1" /><path clip-path="url(#clip080)" d="M1014.44 178.034 Q1010.83 178.034 1009 181.599 Q1007.19 185.141 1007.19 192.27 Q1007.19 199.377 1009 202.942 Q1010.83 206.483 1014.44 206.483 Q1018.07 206.483 1019.88 202.942 Q1021.71 199.377 1021.71 192.27 Q1021.71 185.141 1019.88 181.599 Q1018.07 178.034 1014.44 178.034 M1014.44 174.331 Q1020.25 174.331 1023.3 178.937 Q1026.38 183.52 1026.38 192.27 Q1026.38 200.997 1023.3 205.604 Q1020.25 210.187 1014.44 210.187 Q1008.63 210.187 1005.55 205.604 Q1002.49 200.997 1002.49 192.27 Q1002.49 183.52 1005.55 178.937 Q1008.63 174.331 1014.44 174.331 Z" fill="#000000" fill-rule="evenodd" fill-opacity="1" /><path clip-path="url(#clip080)" d="M1034.6 203.636 L1039.48 203.636 L1039.48 209.516 L1034.6 209.516 L1034.6 203.636 Z" fill="#000000" fill-rule="evenodd" fill-opacity="1" /><path clip-path="url(#clip080)" d="M1063.84 190.882 Q1067.19 191.599 1069.07 193.868 Q1070.97 196.136 1070.97 199.469 Q1070.97 204.585 1067.45 207.386 Q1063.93 210.187 1057.45 210.187 Q1055.27 210.187 1052.96 209.747 Q1050.66 209.331 1048.21 208.474 L1048.21 203.96 Q1050.16 205.094 1052.47 205.673 Q1054.79 206.252 1057.31 206.252 Q1061.71 206.252 1064 204.516 Q1066.31 202.78 1066.31 199.469 Q1066.31 196.414 1064.16 194.701 Q1062.03 192.965 1058.21 192.965 L1054.18 192.965 L1054.18 189.122 L1058.4 189.122 Q1061.85 189.122 1063.67 187.757 Q1065.5 186.368 1065.5 183.775 Q1065.5 181.113 1063.6 179.701 Q1061.73 178.266 1058.21 178.266 Q1056.29 178.266 1054.09 178.683 Q1051.89 179.099 1049.25 179.979 L1049.25 175.812 Q1051.91 175.071 1054.23 174.701 Q1056.57 174.331 1058.63 174.331 Q1063.95 174.331 1067.05 176.761 Q1070.16 179.169 1070.16 183.289 Q1070.16 186.159 1068.51 188.15 Q1066.87 190.118 1063.84 190.882 Z" fill="#000000" fill-rule="evenodd" fill-opacity="1" /><path clip-path="url(#clip080)" d="M1094 190.882 Q1097.35 191.599 1099.23 193.868 Q1101.13 196.136 1101.13 199.469 Q1101.13 204.585 1097.61 207.386 Q1094.09 210.187 1087.61 210.187 Q1085.43 210.187 1083.12 209.747 Q1080.83 209.331 1078.37 208.474 L1078.37 203.96 Q1080.32 205.094 1082.63 205.673 Q1084.95 206.252 1087.47 206.252 Q1091.87 206.252 1094.16 204.516 Q1096.47 202.78 1096.47 199.469 Q1096.47 196.414 1094.32 194.701 Q1092.19 192.965 1088.37 192.965 L1084.35 192.965 L1084.35 189.122 L1088.56 189.122 Q1092.01 189.122 1093.84 187.757 Q1095.66 186.368 1095.66 183.775 Q1095.66 181.113 1093.77 179.701 Q1091.89 178.266 1088.37 178.266 Q1086.45 178.266 1084.25 178.683 Q1082.05 179.099 1079.41 179.979 L1079.41 175.812 Q1082.08 175.071 1084.39 174.701 Q1086.73 174.331 1088.79 174.331 Q1094.11 174.331 1097.22 176.761 Q1100.32 179.169 1100.32 183.289 Q1100.32 186.159 1098.67 188.15 Q1097.03 190.118 1094 190.882 Z" fill="#000000" fill-rule="evenodd" fill-opacity="1" /><polyline clip-path="url(#clip080)" style="stroke:#e26f46; stroke-linecap:butt; stroke-linejoin:round; stroke-width:4; stroke-opacity:1; fill:none" points="
  865.353,244.076 926.335,244.076 
  "/>
<path clip-path="url(#clip080)" d="M936.499 225.337 L940.781 225.337 L940.781 246.61 L953.489 235.43 L958.929 235.43 L945.179 247.559 L959.508 261.356 L953.952 261.356 L940.781 248.694 L940.781 261.356 L936.499 261.356 L936.499 225.337 Z" fill="#000000" fill-rule="evenodd" fill-opacity="1" /><path clip-path="url(#clip080)" d="M964.67 239.828 L994.346 239.828 L994.346 243.717 L964.67 243.717 L964.67 239.828 M964.67 249.272 L994.346 249.272 L994.346 253.208 L964.67 253.208 L964.67 249.272 Z" fill="#000000" fill-rule="evenodd" fill-opacity="1" /><path clip-path="url(#clip080)" d="M1014.44 229.874 Q1010.83 229.874 1009 233.439 Q1007.19 236.981 1007.19 244.11 Q1007.19 251.217 1009 254.782 Q1010.83 258.323 1014.44 258.323 Q1018.07 258.323 1019.88 254.782 Q1021.71 251.217 1021.71 244.11 Q1021.71 236.981 1019.88 233.439 Q1018.07 229.874 1014.44 229.874 M1014.44 226.171 Q1020.25 226.171 1023.3 230.777 Q1026.38 235.36 1026.38 244.11 Q1026.38 252.837 1023.3 257.444 Q1020.25 262.027 1014.44 262.027 Q1008.63 262.027 1005.55 257.444 Q1002.49 252.837 1002.49 244.11 Q1002.49 235.36 1005.55 230.777 Q1008.63 226.171 1014.44 226.171 Z" fill="#000000" fill-rule="evenodd" fill-opacity="1" /><path clip-path="url(#clip080)" d="M1034.6 255.476 L1039.48 255.476 L1039.48 261.356 L1034.6 261.356 L1034.6 255.476 Z" fill="#000000" fill-rule="evenodd" fill-opacity="1" /><path clip-path="url(#clip080)" d="M1060.25 242.212 Q1057.1 242.212 1055.25 244.365 Q1053.42 246.518 1053.42 250.268 Q1053.42 253.995 1055.25 256.171 Q1057.1 258.323 1060.25 258.323 Q1063.4 258.323 1065.22 256.171 Q1067.08 253.995 1067.08 250.268 Q1067.08 246.518 1065.22 244.365 Q1063.4 242.212 1060.25 242.212 M1069.53 227.56 L1069.53 231.819 Q1067.77 230.986 1065.97 230.546 Q1064.18 230.106 1062.42 230.106 Q1057.79 230.106 1055.34 233.231 Q1052.91 236.356 1052.56 242.675 Q1053.93 240.661 1055.99 239.597 Q1058.05 238.509 1060.53 238.509 Q1065.73 238.509 1068.74 241.68 Q1071.78 244.828 1071.78 250.268 Q1071.78 255.592 1068.63 258.809 Q1065.48 262.027 1060.25 262.027 Q1054.25 262.027 1051.08 257.444 Q1047.91 252.837 1047.91 244.11 Q1047.91 235.916 1051.8 231.055 Q1055.69 226.171 1062.24 226.171 Q1064 226.171 1065.78 226.518 Q1067.59 226.865 1069.53 227.56 Z" fill="#000000" fill-rule="evenodd" fill-opacity="1" /><path clip-path="url(#clip080)" d="M1090.41 242.212 Q1087.26 242.212 1085.41 244.365 Q1083.58 246.518 1083.58 250.268 Q1083.58 253.995 1085.41 256.171 Q1087.26 258.323 1090.41 258.323 Q1093.56 258.323 1095.39 256.171 Q1097.24 253.995 1097.24 250.268 Q1097.24 246.518 1095.39 244.365 Q1093.56 242.212 1090.41 242.212 M1099.69 227.56 L1099.69 231.819 Q1097.93 230.986 1096.13 230.546 Q1094.35 230.106 1092.59 230.106 Q1087.96 230.106 1085.5 233.231 Q1083.07 236.356 1082.72 242.675 Q1084.09 240.661 1086.15 239.597 Q1088.21 238.509 1090.69 238.509 Q1095.9 238.509 1098.91 241.68 Q1101.94 244.828 1101.94 250.268 Q1101.94 255.592 1098.79 258.809 Q1095.64 262.027 1090.41 262.027 Q1084.41 262.027 1081.24 257.444 Q1078.07 252.837 1078.07 244.11 Q1078.07 235.916 1081.96 231.055 Q1085.85 226.171 1092.4 226.171 Q1094.16 226.171 1095.94 226.518 Q1097.75 226.865 1099.69 227.56 Z" fill="#000000" fill-rule="evenodd" fill-opacity="1" /><polyline clip-path="url(#clip080)" style="stroke:#3da44d; stroke-linecap:butt; stroke-linejoin:round; stroke-width:4; stroke-opacity:1; fill:none" points="
  865.353,295.916 926.335,295.916 
  "/>
<path clip-path="url(#clip080)" d="M936.499 277.177 L940.781 277.177 L940.781 298.45 L953.489 287.27 L958.929 287.27 L945.179 299.399 L959.508 313.196 L953.952 313.196 L940.781 300.534 L940.781 313.196 L936.499 313.196 L936.499 277.177 Z" fill="#000000" fill-rule="evenodd" fill-opacity="1" /><path clip-path="url(#clip080)" d="M964.67 291.668 L994.346 291.668 L994.346 295.557 L964.67 295.557 L964.67 291.668 M964.67 301.112 L994.346 301.112 L994.346 305.048 L964.67 305.048 L964.67 301.112 Z" fill="#000000" fill-rule="evenodd" fill-opacity="1" /><path clip-path="url(#clip080)" d="M1014.44 281.714 Q1010.83 281.714 1009 285.279 Q1007.19 288.821 1007.19 295.95 Q1007.19 303.057 1009 306.622 Q1010.83 310.163 1014.44 310.163 Q1018.07 310.163 1019.88 306.622 Q1021.71 303.057 1021.71 295.95 Q1021.71 288.821 1019.88 285.279 Q1018.07 281.714 1014.44 281.714 M1014.44 278.011 Q1020.25 278.011 1023.3 282.617 Q1026.38 287.2 1026.38 295.95 Q1026.38 304.677 1023.3 309.284 Q1020.25 313.867 1014.44 313.867 Q1008.63 313.867 1005.55 309.284 Q1002.49 304.677 1002.49 295.95 Q1002.49 287.2 1005.55 282.617 Q1008.63 278.011 1014.44 278.011 Z" fill="#000000" fill-rule="evenodd" fill-opacity="1" /><path clip-path="url(#clip080)" d="M1034.6 307.316 L1039.48 307.316 L1039.48 313.196 L1034.6 313.196 L1034.6 307.316 Z" fill="#000000" fill-rule="evenodd" fill-opacity="1" /><path clip-path="url(#clip080)" d="M1049.81 312.478 L1049.81 308.219 Q1051.57 309.052 1053.37 309.492 Q1055.18 309.932 1056.91 309.932 Q1061.54 309.932 1063.97 306.83 Q1066.43 303.705 1066.78 297.362 Q1065.43 299.353 1063.37 300.418 Q1061.31 301.483 1058.81 301.483 Q1053.63 301.483 1050.6 298.358 Q1047.59 295.21 1047.59 289.77 Q1047.59 284.446 1050.73 281.228 Q1053.88 278.011 1059.11 278.011 Q1065.11 278.011 1068.26 282.617 Q1071.43 287.2 1071.43 295.95 Q1071.43 304.122 1067.54 309.006 Q1063.67 313.867 1057.12 313.867 Q1055.36 313.867 1053.56 313.52 Q1051.75 313.173 1049.81 312.478 M1059.11 297.825 Q1062.26 297.825 1064.09 295.673 Q1065.94 293.52 1065.94 289.77 Q1065.94 286.043 1064.09 283.89 Q1062.26 281.714 1059.11 281.714 Q1055.97 281.714 1054.11 283.89 Q1052.29 286.043 1052.29 289.77 Q1052.29 293.52 1054.11 295.673 Q1055.97 297.825 1059.11 297.825 Z" fill="#000000" fill-rule="evenodd" fill-opacity="1" /><path clip-path="url(#clip080)" d="M1089.83 281.714 Q1086.22 281.714 1084.39 285.279 Q1082.59 288.821 1082.59 295.95 Q1082.59 303.057 1084.39 306.622 Q1086.22 310.163 1089.83 310.163 Q1093.47 310.163 1095.27 306.622 Q1097.1 303.057 1097.1 295.95 Q1097.1 288.821 1095.27 285.279 Q1093.47 281.714 1089.83 281.714 M1089.83 278.011 Q1095.64 278.011 1098.7 282.617 Q1101.78 287.2 1101.78 295.95 Q1101.78 304.677 1098.7 309.284 Q1095.64 313.867 1089.83 313.867 Q1084.02 313.867 1080.94 309.284 Q1077.89 304.677 1077.89 295.95 Q1077.89 287.2 1080.94 282.617 Q1084.02 278.011 1089.83 278.011 Z" fill="#000000" fill-rule="evenodd" fill-opacity="1" /></svg>
