<?xml version="1.0" encoding="utf-8"?>
<svg xmlns="http://www.w3.org/2000/svg" xmlns:xlink="http://www.w3.org/1999/xlink" width="300" height="200" viewBox="0 0 1200 800">
<defs>
  <clipPath id="clip650">
    <rect x="0" y="0" width="1200" height="800"/>
  </clipPath>
</defs>
<path clip-path="url(#clip650)" d="
M0 800 L1200 800 L1200 0 L0 0  Z
  " fill="#ffffff" fill-rule="evenodd" fill-opacity="1"/>
<defs>
  <clipPath id="clip651">
    <rect x="240" y="0" width="841" height="800"/>
  </clipPath>
</defs>
<path clip-path="url(#clip650)" d="
M267.704 631.18 L1152.76 631.18 L1152.76 123.472 L267.704 123.472  Z
  " fill="#ffffff" fill-rule="evenodd" fill-opacity="1"/>
<defs>
  <clipPath id="clip652">
    <rect x="267" y="123" width="886" height="509"/>
  </clipPath>
</defs>
<polyline clip-path="url(#clip652)" style="stroke:#000000; stroke-linecap:butt; stroke-linejoin:round; stroke-width:2; stroke-opacity:0.1; fill:none" points="
  271.343,631.18 271.343,123.472 
  "/>
<polyline clip-path="url(#clip652)" style="stroke:#000000; stroke-linecap:butt; stroke-linejoin:round; stroke-width:2; stroke-opacity:0.1; fill:none" points="
  449.753,631.18 449.753,123.472 
  "/>
<polyline clip-path="url(#clip652)" style="stroke:#000000; stroke-linecap:butt; stroke-linejoin:round; stroke-width:2; stroke-opacity:0.1; fill:none" points="
  628.162,631.18 628.162,123.472 
  "/>
<polyline clip-path="url(#clip652)" style="stroke:#000000; stroke-linecap:butt; stroke-linejoin:round; stroke-width:2; stroke-opacity:0.1; fill:none" points="
  806.571,631.18 806.571,123.472 
  "/>
<polyline clip-path="url(#clip652)" style="stroke:#000000; stroke-linecap:butt; stroke-linejoin:round; stroke-width:2; stroke-opacity:0.1; fill:none" points="
  984.98,631.18 984.98,123.472 
  "/>
<polyline clip-path="url(#clip650)" style="stroke:#000000; stroke-linecap:butt; stroke-linejoin:round; stroke-width:4; stroke-opacity:1; fill:none" points="
  267.704,631.18 1152.76,631.18 
  "/>
<polyline clip-path="url(#clip650)" style="stroke:#000000; stroke-linecap:butt; stroke-linejoin:round; stroke-width:4; stroke-opacity:1; fill:none" points="
  271.343,631.18 271.343,612.282 
  "/>
<polyline clip-path="url(#clip650)" style="stroke:#000000; stroke-linecap:butt; stroke-linejoin:round; stroke-width:4; stroke-opacity:1; fill:none" points="
  449.753,631.18 449.753,612.282 
  "/>
<polyline clip-path="url(#clip650)" style="stroke:#000000; stroke-linecap:butt; stroke-linejoin:round; stroke-width:4; stroke-opacity:1; fill:none" points="
  628.162,631.18 628.162,612.282 
  "/>
<polyline clip-path="url(#clip650)" style="stroke:#000000; stroke-linecap:butt; stroke-linejoin:round; stroke-width:4; stroke-opacity:1; fill:none" points="
  806.571,631.18 806.571,612.282 
  "/>
<polyline clip-path="url(#clip650)" style="stroke:#000000; stroke-linecap:butt; stroke-linejoin:round; stroke-width:4; stroke-opacity:1; fill:none" points="
  984.98,631.18 984.98,612.282 
  "/>
<path clip-path="url(#clip650)" d="M271.343 652.499 Q267.732 652.499 265.904 656.063 Q264.098 659.605 264.098 666.735 Q264.098 673.841 265.904 677.406 Q267.732 680.947 271.343 680.947 Q274.978 680.947 276.783 677.406 Q278.612 673.841 278.612 666.735 Q278.612 659.605 276.783 656.063 Q274.978 652.499 271.343 652.499 M271.343 648.795 Q277.154 648.795 280.209 653.401 Q283.288 657.985 283.288 666.735 Q283.288 675.461 280.209 680.068 Q277.154 684.651 271.343 684.651 Q265.533 684.651 262.455 680.068 Q259.399 675.461 259.399 666.735 Q259.399 657.985 262.455 653.401 Q265.533 648.795 271.343 648.795 Z" fill="#000000" fill-rule="evenodd" fill-opacity="1" /><path clip-path="url(#clip650)" d="M413.445 680.045 L429.764 680.045 L429.764 683.98 L407.82 683.98 L407.82 680.045 Q410.482 677.29 415.065 672.66 Q419.672 668.008 420.852 666.665 Q423.098 664.142 423.977 662.406 Q424.88 660.647 424.88 658.957 Q424.88 656.202 422.936 654.466 Q421.014 652.73 417.912 652.73 Q415.713 652.73 413.26 653.494 Q410.829 654.258 408.051 655.809 L408.051 651.087 Q410.875 649.952 413.329 649.374 Q415.783 648.795 417.82 648.795 Q423.19 648.795 426.385 651.48 Q429.579 654.165 429.579 658.656 Q429.579 660.786 428.769 662.707 Q427.982 664.605 425.875 667.198 Q425.297 667.869 422.195 671.086 Q419.093 674.281 413.445 680.045 Z" fill="#000000" fill-rule="evenodd" fill-opacity="1" /><path clip-path="url(#clip650)" d="M439.625 649.42 L457.982 649.42 L457.982 653.355 L443.908 653.355 L443.908 661.827 Q444.926 661.48 445.945 661.318 Q446.963 661.133 447.982 661.133 Q453.769 661.133 457.148 664.304 Q460.528 667.475 460.528 672.892 Q460.528 678.471 457.056 681.572 Q453.584 684.651 447.264 684.651 Q445.088 684.651 442.82 684.281 Q440.574 683.91 438.167 683.17 L438.167 678.471 Q440.25 679.605 442.473 680.16 Q444.695 680.716 447.172 680.716 Q451.176 680.716 453.514 678.61 Q455.852 676.503 455.852 672.892 Q455.852 669.281 453.514 667.174 Q451.176 665.068 447.172 665.068 Q445.297 665.068 443.422 665.485 Q441.57 665.901 439.625 666.781 L439.625 649.42 Z" fill="#000000" fill-rule="evenodd" fill-opacity="1" /><path clip-path="url(#clip650)" d="M479.741 652.499 Q476.13 652.499 474.301 656.063 Q472.496 659.605 472.496 666.735 Q472.496 673.841 474.301 677.406 Q476.13 680.947 479.741 680.947 Q483.375 680.947 485.181 677.406 Q487.009 673.841 487.009 666.735 Q487.009 659.605 485.181 656.063 Q483.375 652.499 479.741 652.499 M479.741 648.795 Q485.551 648.795 488.607 653.401 Q491.685 657.985 491.685 666.735 Q491.685 675.461 488.607 680.068 Q485.551 684.651 479.741 684.651 Q473.931 684.651 470.852 680.068 Q467.796 675.461 467.796 666.735 Q467.796 657.985 470.852 653.401 Q473.931 648.795 479.741 648.795 Z" fill="#000000" fill-rule="evenodd" fill-opacity="1" /><path clip-path="url(#clip650)" d="M587.78 649.42 L606.136 649.42 L606.136 653.355 L592.062 653.355 L592.062 661.827 Q593.081 661.48 594.099 661.318 Q595.118 661.133 596.136 661.133 Q601.923 661.133 605.303 664.304 Q608.683 667.475 608.683 672.892 Q608.683 678.471 605.21 681.572 Q601.738 684.651 595.419 684.651 Q593.243 684.651 590.974 684.281 Q588.729 683.91 586.322 683.17 L586.322 678.471 Q588.405 679.605 590.627 680.16 Q592.849 680.716 595.326 680.716 Q599.331 680.716 601.669 678.61 Q604.007 676.503 604.007 672.892 Q604.007 669.281 601.669 667.174 Q599.331 665.068 595.326 665.068 Q593.451 665.068 591.576 665.485 Q589.724 665.901 587.78 666.781 L587.78 649.42 Z" fill="#000000" fill-rule="evenodd" fill-opacity="1" /><path clip-path="url(#clip650)" d="M627.896 652.499 Q624.284 652.499 622.456 656.063 Q620.65 659.605 620.65 666.735 Q620.65 673.841 622.456 677.406 Q624.284 680.947 627.896 680.947 Q631.53 680.947 633.335 677.406 Q635.164 673.841 635.164 666.735 Q635.164 659.605 633.335 656.063 Q631.53 652.499 627.896 652.499 M627.896 648.795 Q633.706 648.795 636.761 653.401 Q639.84 657.985 639.84 666.735 Q639.84 675.461 636.761 680.068 Q633.706 684.651 627.896 684.651 Q622.085 684.651 619.007 680.068 Q615.951 675.461 615.951 666.735 Q615.951 657.985 619.007 653.401 Q622.085 648.795 627.896 648.795 Z" fill="#000000" fill-rule="evenodd" fill-opacity="1" /><path clip-path="url(#clip650)" d="M658.057 652.499 Q654.446 652.499 652.618 656.063 Q650.812 659.605 650.812 666.735 Q650.812 673.841 652.618 677.406 Q654.446 680.947 658.057 680.947 Q661.692 680.947 663.497 677.406 Q665.326 673.841 665.326 666.735 Q665.326 659.605 663.497 656.063 Q661.692 652.499 658.057 652.499 M658.057 648.795 Q663.868 648.795 666.923 653.401 Q670.002 657.985 670.002 666.735 Q670.002 675.461 666.923 680.068 Q663.868 684.651 658.057 684.651 Q652.247 684.651 649.169 680.068 Q646.113 675.461 646.113 666.735 Q646.113 657.985 649.169 653.401 Q652.247 648.795 658.057 648.795 Z" fill="#000000" fill-rule="evenodd" fill-opacity="1" /><path clip-path="url(#clip650)" d="M764.847 649.42 L787.069 649.42 L787.069 651.411 L774.522 683.98 L769.638 683.98 L781.444 653.355 L764.847 653.355 L764.847 649.42 Z" fill="#000000" fill-rule="evenodd" fill-opacity="1" /><path clip-path="url(#clip650)" d="M796.235 649.42 L814.592 649.42 L814.592 653.355 L800.518 653.355 L800.518 661.827 Q801.536 661.48 802.555 661.318 Q803.573 661.133 804.592 661.133 Q810.379 661.133 813.758 664.304 Q817.138 667.475 817.138 672.892 Q817.138 678.471 813.666 681.572 Q810.194 684.651 803.874 684.651 Q801.698 684.651 799.43 684.281 Q797.184 683.91 794.777 683.17 L794.777 678.471 Q796.86 679.605 799.082 680.16 Q801.305 680.716 803.781 680.716 Q807.786 680.716 810.124 678.61 Q812.462 676.503 812.462 672.892 Q812.462 669.281 810.124 667.174 Q807.786 665.068 803.781 665.068 Q801.907 665.068 800.032 665.485 Q798.18 665.901 796.235 666.781 L796.235 649.42 Z" fill="#000000" fill-rule="evenodd" fill-opacity="1" /><path clip-path="url(#clip650)" d="M836.351 652.499 Q832.74 652.499 830.911 656.063 Q829.105 659.605 829.105 666.735 Q829.105 673.841 830.911 677.406 Q832.74 680.947 836.351 680.947 Q839.985 680.947 841.791 677.406 Q843.619 673.841 843.619 666.735 Q843.619 659.605 841.791 656.063 Q839.985 652.499 836.351 652.499 M836.351 648.795 Q842.161 648.795 845.216 653.401 Q848.295 657.985 848.295 666.735 Q848.295 675.461 845.216 680.068 Q842.161 684.651 836.351 684.651 Q830.541 684.651 827.462 680.068 Q824.406 675.461 824.406 666.735 Q824.406 657.985 827.462 653.401 Q830.541 648.795 836.351 648.795 Z" fill="#000000" fill-rule="evenodd" fill-opacity="1" /><path clip-path="url(#clip650)" d="M929.506 680.045 L937.145 680.045 L937.145 653.679 L928.834 655.346 L928.834 651.087 L937.098 649.42 L941.774 649.42 L941.774 680.045 L949.413 680.045 L949.413 683.98 L929.506 683.98 L929.506 680.045 Z" fill="#000000" fill-rule="evenodd" fill-opacity="1" /><path clip-path="url(#clip650)" d="M968.857 652.499 Q965.246 652.499 963.418 656.063 Q961.612 659.605 961.612 666.735 Q961.612 673.841 963.418 677.406 Q965.246 680.947 968.857 680.947 Q972.492 680.947 974.297 677.406 Q976.126 673.841 976.126 666.735 Q976.126 659.605 974.297 656.063 Q972.492 652.499 968.857 652.499 M968.857 648.795 Q974.668 648.795 977.723 653.401 Q980.802 657.985 980.802 666.735 Q980.802 675.461 977.723 680.068 Q974.668 684.651 968.857 684.651 Q963.047 684.651 959.969 680.068 Q956.913 675.461 956.913 666.735 Q956.913 657.985 959.969 653.401 Q963.047 648.795 968.857 648.795 Z" fill="#000000" fill-rule="evenodd" fill-opacity="1" /><path clip-path="url(#clip650)" d="M999.019 652.499 Q995.408 652.499 993.579 656.063 Q991.774 659.605 991.774 666.735 Q991.774 673.841 993.579 677.406 Q995.408 680.947 999.019 680.947 Q1002.65 680.947 1004.46 677.406 Q1006.29 673.841 1006.29 666.735 Q1006.29 659.605 1004.46 656.063 Q1002.65 652.499 999.019 652.499 M999.019 648.795 Q1004.83 648.795 1007.88 653.401 Q1010.96 657.985 1010.96 666.735 Q1010.96 675.461 1007.88 680.068 Q1004.83 684.651 999.019 684.651 Q993.209 684.651 990.13 680.068 Q987.075 675.461 987.075 666.735 Q987.075 657.985 990.13 653.401 Q993.209 648.795 999.019 648.795 Z" fill="#000000" fill-rule="evenodd" fill-opacity="1" /><path clip-path="url(#clip650)" d="M1029.18 652.499 Q1025.57 652.499 1023.74 656.063 Q1021.94 659.605 1021.94 666.735 Q1021.94 673.841 1023.74 677.406 Q1025.57 680.947 1029.18 680.947 Q1032.82 680.947 1034.62 677.406 Q1036.45 673.841 1036.45 666.735 Q1036.45 659.605 1034.62 656.063 Q1032.82 652.499 1029.18 652.499 M1029.18 648.795 Q1034.99 648.795 1038.05 653.401 Q1041.13 657.985 1041.13 666.735 Q1041.13 675.461 1038.05 680.068 Q1034.99 684.651 1029.18 684.651 Q1023.37 684.651 1020.29 680.068 Q1017.24 675.461 1017.24 666.735 Q1017.24 657.985 1020.29 653.401 Q1023.37 648.795 1029.18 648.795 Z" fill="#000000" fill-rule="evenodd" fill-opacity="1" /><path clip-path="url(#clip650)" d="M725.157 736.528 L725.157 758.044 L719.301 758.044 L719.301 736.719 Q719.301 731.658 717.328 729.144 Q715.354 726.629 711.408 726.629 Q706.665 726.629 703.928 729.653 Q701.191 732.677 701.191 737.896 L701.191 758.044 L695.302 758.044 L695.302 722.396 L701.191 722.396 L701.191 727.934 Q703.291 724.719 706.124 723.128 Q708.989 721.537 712.713 721.537 Q718.855 721.537 722.006 725.356 Q725.157 729.144 725.157 736.528 Z" fill="#000000" fill-rule="evenodd" fill-opacity="1" /><polyline clip-path="url(#clip652)" style="stroke:#000000; stroke-linecap:butt; stroke-linejoin:round; stroke-width:2; stroke-opacity:0.1; fill:none" points="
  267.704,524.016 1152.76,524.016 
  "/>
<polyline clip-path="url(#clip652)" style="stroke:#000000; stroke-linecap:butt; stroke-linejoin:round; stroke-width:2; stroke-opacity:0.1; fill:none" points="
  267.704,402.865 1152.76,402.865 
  "/>
<polyline clip-path="url(#clip652)" style="stroke:#000000; stroke-linecap:butt; stroke-linejoin:round; stroke-width:2; stroke-opacity:0.1; fill:none" points="
  267.704,281.713 1152.76,281.713 
  "/>
<polyline clip-path="url(#clip652)" style="stroke:#000000; stroke-linecap:butt; stroke-linejoin:round; stroke-width:2; stroke-opacity:0.1; fill:none" points="
  267.704,160.562 1152.76,160.562 
  "/>
<polyline clip-path="url(#clip650)" style="stroke:#000000; stroke-linecap:butt; stroke-linejoin:round; stroke-width:4; stroke-opacity:1; fill:none" points="
  267.704,631.18 267.704,123.472 
  "/>
<polyline clip-path="url(#clip650)" style="stroke:#000000; stroke-linecap:butt; stroke-linejoin:round; stroke-width:4; stroke-opacity:1; fill:none" points="
  267.704,524.016 286.602,524.016 
  "/>
<polyline clip-path="url(#clip650)" style="stroke:#000000; stroke-linecap:butt; stroke-linejoin:round; stroke-width:4; stroke-opacity:1; fill:none" points="
  267.704,402.865 286.602,402.865 
  "/>
<polyline clip-path="url(#clip650)" style="stroke:#000000; stroke-linecap:butt; stroke-linejoin:round; stroke-width:4; stroke-opacity:1; fill:none" points="
  267.704,281.713 286.602,281.713 
  "/>
<polyline clip-path="url(#clip650)" style="stroke:#000000; stroke-linecap:butt; stroke-linejoin:round; stroke-width:4; stroke-opacity:1; fill:none" points="
  267.704,160.562 286.602,160.562 
  "/>
<path clip-path="url(#clip650)" d="M133.2 509.814 Q129.589 509.814 127.76 513.379 Q125.955 516.921 125.955 524.05 Q125.955 531.157 127.76 534.722 Q129.589 538.263 133.2 538.263 Q136.834 538.263 138.64 534.722 Q140.468 531.157 140.468 524.05 Q140.468 516.921 138.64 513.379 Q136.834 509.814 133.2 509.814 M133.2 506.111 Q139.01 506.111 142.066 510.717 Q145.144 515.301 145.144 524.05 Q145.144 532.777 142.066 537.384 Q139.01 541.967 133.2 541.967 Q127.39 541.967 124.311 537.384 Q121.256 532.777 121.256 524.05 Q121.256 515.301 124.311 510.717 Q127.39 506.111 133.2 506.111 Z" fill="#000000" fill-rule="evenodd" fill-opacity="1" /><path clip-path="url(#clip650)" d="M153.362 535.416 L158.246 535.416 L158.246 541.296 L153.362 541.296 L153.362 535.416 Z" fill="#000000" fill-rule="evenodd" fill-opacity="1" /><path clip-path="url(#clip650)" d="M178.431 509.814 Q174.82 509.814 172.991 513.379 Q171.186 516.921 171.186 524.05 Q171.186 531.157 172.991 534.722 Q174.82 538.263 178.431 538.263 Q182.065 538.263 183.871 534.722 Q185.7 531.157 185.7 524.05 Q185.7 516.921 183.871 513.379 Q182.065 509.814 178.431 509.814 M178.431 506.111 Q184.241 506.111 187.297 510.717 Q190.376 515.301 190.376 524.05 Q190.376 532.777 187.297 537.384 Q184.241 541.967 178.431 541.967 Q172.621 541.967 169.542 537.384 Q166.487 532.777 166.487 524.05 Q166.487 515.301 169.542 510.717 Q172.621 506.111 178.431 506.111 Z" fill="#000000" fill-rule="evenodd" fill-opacity="1" /><path clip-path="url(#clip650)" d="M208.593 509.814 Q204.982 509.814 203.153 513.379 Q201.348 516.921 201.348 524.05 Q201.348 531.157 203.153 534.722 Q204.982 538.263 208.593 538.263 Q212.227 538.263 214.033 534.722 Q215.861 531.157 215.861 524.05 Q215.861 516.921 214.033 513.379 Q212.227 509.814 208.593 509.814 M208.593 506.111 Q214.403 506.111 217.459 510.717 Q220.537 515.301 220.537 524.05 Q220.537 532.777 217.459 537.384 Q214.403 541.967 208.593 541.967 Q202.783 541.967 199.704 537.384 Q196.649 532.777 196.649 524.05 Q196.649 515.301 199.704 510.717 Q202.783 506.111 208.593 506.111 Z" fill="#000000" fill-rule="evenodd" fill-opacity="1" /><path clip-path="url(#clip650)" d="M228.801 506.736 L247.158 506.736 L247.158 510.671 L233.084 510.671 L233.084 519.143 Q234.102 518.796 235.121 518.634 Q236.139 518.449 237.158 518.449 Q242.945 518.449 246.324 521.62 Q249.704 524.791 249.704 530.208 Q249.704 535.787 246.232 538.888 Q242.76 541.967 236.44 541.967 Q234.264 541.967 231.996 541.597 Q229.75 541.226 227.343 540.486 L227.343 535.787 Q229.426 536.921 231.648 537.476 Q233.871 538.032 236.347 538.032 Q240.352 538.032 242.69 535.925 Q245.028 533.819 245.028 530.208 Q245.028 526.597 242.69 524.49 Q240.352 522.384 236.347 522.384 Q234.473 522.384 232.598 522.8 Q230.746 523.217 228.801 524.097 L228.801 506.736 Z" fill="#000000" fill-rule="evenodd" fill-opacity="1" /><path clip-path="url(#clip650)" d="M132.205 388.663 Q128.593 388.663 126.765 392.228 Q124.959 395.77 124.959 402.899 Q124.959 410.006 126.765 413.571 Q128.593 417.112 132.205 417.112 Q135.839 417.112 137.644 413.571 Q139.473 410.006 139.473 402.899 Q139.473 395.77 137.644 392.228 Q135.839 388.663 132.205 388.663 M132.205 384.96 Q138.015 384.96 141.07 389.566 Q144.149 394.149 144.149 402.899 Q144.149 411.626 141.07 416.233 Q138.015 420.816 132.205 420.816 Q126.394 420.816 123.316 416.233 Q120.26 411.626 120.26 402.899 Q120.26 394.149 123.316 389.566 Q126.394 384.96 132.205 384.96 Z" fill="#000000" fill-rule="evenodd" fill-opacity="1" /><path clip-path="url(#clip650)" d="M152.366 414.265 L157.251 414.265 L157.251 420.145 L152.366 420.145 L152.366 414.265 Z" fill="#000000" fill-rule="evenodd" fill-opacity="1" /><path clip-path="url(#clip650)" d="M177.436 388.663 Q173.825 388.663 171.996 392.228 Q170.19 395.77 170.19 402.899 Q170.19 410.006 171.996 413.571 Q173.825 417.112 177.436 417.112 Q181.07 417.112 182.876 413.571 Q184.704 410.006 184.704 402.899 Q184.704 395.77 182.876 392.228 Q181.07 388.663 177.436 388.663 M177.436 384.96 Q183.246 384.96 186.301 389.566 Q189.38 394.149 189.38 402.899 Q189.38 411.626 186.301 416.233 Q183.246 420.816 177.436 420.816 Q171.626 420.816 168.547 416.233 Q165.491 411.626 165.491 402.899 Q165.491 394.149 168.547 389.566 Q171.626 384.96 177.436 384.96 Z" fill="#000000" fill-rule="evenodd" fill-opacity="1" /><path clip-path="url(#clip650)" d="M198.408 416.209 L206.047 416.209 L206.047 389.844 L197.737 391.51 L197.737 387.251 L206 385.585 L210.676 385.585 L210.676 416.209 L218.315 416.209 L218.315 420.145 L198.408 420.145 L198.408 416.209 Z" fill="#000000" fill-rule="evenodd" fill-opacity="1" /><path clip-path="url(#clip650)" d="M237.76 388.663 Q234.148 388.663 232.32 392.228 Q230.514 395.77 230.514 402.899 Q230.514 410.006 232.32 413.571 Q234.148 417.112 237.76 417.112 Q241.394 417.112 243.199 413.571 Q245.028 410.006 245.028 402.899 Q245.028 395.77 243.199 392.228 Q241.394 388.663 237.76 388.663 M237.76 384.96 Q243.57 384.96 246.625 389.566 Q249.704 394.149 249.704 402.899 Q249.704 411.626 246.625 416.233 Q243.57 420.816 237.76 420.816 Q231.949 420.816 228.871 416.233 Q225.815 411.626 225.815 402.899 Q225.815 394.149 228.871 389.566 Q231.949 384.96 237.76 384.96 Z" fill="#000000" fill-rule="evenodd" fill-opacity="1" /><path clip-path="url(#clip650)" d="M133.2 267.512 Q129.589 267.512 127.76 271.077 Q125.955 274.619 125.955 281.748 Q125.955 288.855 127.76 292.419 Q129.589 295.961 133.2 295.961 Q136.834 295.961 138.64 292.419 Q140.468 288.855 140.468 281.748 Q140.468 274.619 138.64 271.077 Q136.834 267.512 133.2 267.512 M133.2 263.808 Q139.01 263.808 142.066 268.415 Q145.144 272.998 145.144 281.748 Q145.144 290.475 142.066 295.081 Q139.01 299.665 133.2 299.665 Q127.39 299.665 124.311 295.081 Q121.256 290.475 121.256 281.748 Q121.256 272.998 124.311 268.415 Q127.39 263.808 133.2 263.808 Z" fill="#000000" fill-rule="evenodd" fill-opacity="1" /><path clip-path="url(#clip650)" d="M153.362 293.114 L158.246 293.114 L158.246 298.993 L153.362 298.993 L153.362 293.114 Z" fill="#000000" fill-rule="evenodd" fill-opacity="1" /><path clip-path="url(#clip650)" d="M178.431 267.512 Q174.82 267.512 172.991 271.077 Q171.186 274.619 171.186 281.748 Q171.186 288.855 172.991 292.419 Q174.82 295.961 178.431 295.961 Q182.065 295.961 183.871 292.419 Q185.7 288.855 185.7 281.748 Q185.7 274.619 183.871 271.077 Q182.065 267.512 178.431 267.512 M178.431 263.808 Q184.241 263.808 187.297 268.415 Q190.376 272.998 190.376 281.748 Q190.376 290.475 187.297 295.081 Q184.241 299.665 178.431 299.665 Q172.621 299.665 169.542 295.081 Q166.487 290.475 166.487 281.748 Q166.487 272.998 169.542 268.415 Q172.621 263.808 178.431 263.808 Z" fill="#000000" fill-rule="evenodd" fill-opacity="1" /><path clip-path="url(#clip650)" d="M199.403 295.058 L207.042 295.058 L207.042 268.693 L198.732 270.359 L198.732 266.1 L206.996 264.433 L211.672 264.433 L211.672 295.058 L219.311 295.058 L219.311 298.993 L199.403 298.993 L199.403 295.058 Z" fill="#000000" fill-rule="evenodd" fill-opacity="1" /><path clip-path="url(#clip650)" d="M228.801 264.433 L247.158 264.433 L247.158 268.369 L233.084 268.369 L233.084 276.841 Q234.102 276.494 235.121 276.332 Q236.139 276.146 237.158 276.146 Q242.945 276.146 246.324 279.318 Q249.704 282.489 249.704 287.906 Q249.704 293.484 246.232 296.586 Q242.76 299.665 236.44 299.665 Q234.264 299.665 231.996 299.294 Q229.75 298.924 227.343 298.183 L227.343 293.484 Q229.426 294.618 231.648 295.174 Q233.871 295.73 236.347 295.73 Q240.352 295.73 242.69 293.623 Q245.028 291.517 245.028 287.906 Q245.028 284.294 242.69 282.188 Q240.352 280.081 236.347 280.081 Q234.473 280.081 232.598 280.498 Q230.746 280.915 228.801 281.794 L228.801 264.433 Z" fill="#000000" fill-rule="evenodd" fill-opacity="1" /><path clip-path="url(#clip650)" d="M132.205 146.361 Q128.593 146.361 126.765 149.926 Q124.959 153.467 124.959 160.597 Q124.959 167.703 126.765 171.268 Q128.593 174.81 132.205 174.81 Q135.839 174.81 137.644 171.268 Q139.473 167.703 139.473 160.597 Q139.473 153.467 137.644 149.926 Q135.839 146.361 132.205 146.361 M132.205 142.657 Q138.015 142.657 141.07 147.264 Q144.149 151.847 144.149 160.597 Q144.149 169.324 141.07 173.93 Q138.015 178.514 132.205 178.514 Q126.394 178.514 123.316 173.93 Q120.26 169.324 120.26 160.597 Q120.26 151.847 123.316 147.264 Q126.394 142.657 132.205 142.657 Z" fill="#000000" fill-rule="evenodd" fill-opacity="1" /><path clip-path="url(#clip650)" d="M152.366 171.963 L157.251 171.963 L157.251 177.842 L152.366 177.842 L152.366 171.963 Z" fill="#000000" fill-rule="evenodd" fill-opacity="1" /><path clip-path="url(#clip650)" d="M177.436 146.361 Q173.825 146.361 171.996 149.926 Q170.19 153.467 170.19 160.597 Q170.19 167.703 171.996 171.268 Q173.825 174.81 177.436 174.81 Q181.07 174.81 182.876 171.268 Q184.704 167.703 184.704 160.597 Q184.704 153.467 182.876 149.926 Q181.07 146.361 177.436 146.361 M177.436 142.657 Q183.246 142.657 186.301 147.264 Q189.38 151.847 189.38 160.597 Q189.38 169.324 186.301 173.93 Q183.246 178.514 177.436 178.514 Q171.626 178.514 168.547 173.93 Q165.491 169.324 165.491 160.597 Q165.491 151.847 168.547 147.264 Q171.626 142.657 177.436 142.657 Z" fill="#000000" fill-rule="evenodd" fill-opacity="1" /><path clip-path="url(#clip650)" d="M201.625 173.907 L217.945 173.907 L217.945 177.842 L196 177.842 L196 173.907 Q198.663 171.152 203.246 166.523 Q207.852 161.87 209.033 160.528 Q211.278 158.004 212.158 156.268 Q213.061 154.509 213.061 152.819 Q213.061 150.065 211.116 148.329 Q209.195 146.592 206.093 146.592 Q203.894 146.592 201.44 147.356 Q199.01 148.12 196.232 149.671 L196.232 144.949 Q199.056 143.815 201.51 143.236 Q203.963 142.657 206 142.657 Q211.371 142.657 214.565 145.342 Q217.76 148.028 217.76 152.518 Q217.76 154.648 216.949 156.569 Q216.162 158.467 214.056 161.06 Q213.477 161.731 210.375 164.949 Q207.274 168.143 201.625 173.907 Z" fill="#000000" fill-rule="evenodd" fill-opacity="1" /><path clip-path="url(#clip650)" d="M237.76 146.361 Q234.148 146.361 232.32 149.926 Q230.514 153.467 230.514 160.597 Q230.514 167.703 232.32 171.268 Q234.148 174.81 237.76 174.81 Q241.394 174.81 243.199 171.268 Q245.028 167.703 245.028 160.597 Q245.028 153.467 243.199 149.926 Q241.394 146.361 237.76 146.361 M237.76 142.657 Q243.57 142.657 246.625 147.264 Q249.704 151.847 249.704 160.597 Q249.704 169.324 246.625 173.93 Q243.57 178.514 237.76 178.514 Q231.949 178.514 228.871 173.93 Q225.815 169.324 225.815 160.597 Q225.815 151.847 228.871 147.264 Q231.949 142.657 237.76 142.657 Z" fill="#000000" fill-rule="evenodd" fill-opacity="1" /><path clip-path="url(#clip650)" d="M65.3104 542.07 L82.7206 542.07 L82.7206 531.758 Q82.7206 526.57 80.5881 524.087 Q78.4238 521.573 73.9996 521.573 Q69.5436 521.573 67.4429 524.087 Q65.3104 526.57 65.3104 531.758 L65.3104 542.07 M45.7677 542.07 L60.0905 542.07 L60.0905 532.554 Q60.0905 527.843 58.34 525.551 Q56.5576 523.228 52.9291 523.228 Q49.3325 523.228 47.5501 525.551 Q45.7677 527.843 45.7677 532.554 L45.7677 542.07 M40.4842 548.5 L40.4842 532.076 Q40.4842 524.724 43.5397 520.745 Q46.5952 516.767 52.2289 516.767 Q56.5894 516.767 59.1675 518.804 Q61.7456 520.841 62.3822 524.788 Q63.4007 520.045 66.6472 517.435 Q69.8619 514.793 74.6998 514.793 Q81.0655 514.793 84.5348 519.122 Q88.0042 523.451 88.0042 531.44 L88.0042 548.5 L40.4842 548.5 Z" fill="#000000" fill-rule="evenodd" fill-opacity="1" /><path clip-path="url(#clip650)" d="M56.4621 490.222 Q56.4621 494.932 60.1542 497.67 Q63.8145 500.407 70.212 500.407 Q76.6095 500.407 80.3017 497.701 Q83.9619 494.964 83.9619 490.222 Q83.9619 485.543 80.2698 482.806 Q76.5777 480.068 70.212 480.068 Q63.8781 480.068 60.186 482.806 Q56.4621 485.543 56.4621 490.222 M51.4968 490.222 Q51.4968 482.583 56.4621 478.222 Q61.4273 473.862 70.212 473.862 Q78.9649 473.862 83.9619 478.222 Q88.9272 482.583 88.9272 490.222 Q88.9272 497.892 83.9619 502.253 Q78.9649 506.582 70.212 506.582 Q61.4273 506.582 56.4621 502.253 Q51.4968 497.892 51.4968 490.222 Z" fill="#000000" fill-rule="evenodd" fill-opacity="1" /><path clip-path="url(#clip650)" d="M42.2347 458.361 L52.3562 458.361 L52.3562 446.298 L56.9077 446.298 L56.9077 458.361 L76.2594 458.361 Q80.6199 458.361 81.8613 457.184 Q83.1026 455.974 83.1026 452.314 L83.1026 446.298 L88.0042 446.298 L88.0042 452.314 Q88.0042 459.093 85.4897 461.672 Q82.9434 464.25 76.2594 464.25 L56.9077 464.25 L56.9077 468.547 L52.3562 468.547 L52.3562 464.25 L42.2347 464.25 L42.2347 458.361 Z" fill="#000000" fill-rule="evenodd" fill-opacity="1" /><path clip-path="url(#clip650)" d="M42.2347 432.803 L52.3562 432.803 L52.3562 420.74 L56.9077 420.74 L56.9077 432.803 L76.2594 432.803 Q80.6199 432.803 81.8613 431.625 Q83.1026 430.416 83.1026 426.756 L83.1026 420.74 L88.0042 420.74 L88.0042 426.756 Q88.0042 433.535 85.4897 436.113 Q82.9434 438.691 76.2594 438.691 L56.9077 438.691 L56.9077 442.988 L52.3562 442.988 L52.3562 438.691 L42.2347 438.691 L42.2347 432.803 Z" fill="#000000" fill-rule="evenodd" fill-opacity="1" /><path clip-path="url(#clip650)" d="M38.479 413.038 L38.479 407.181 L88.0042 407.181 L88.0042 413.038 L38.479 413.038 Z" fill="#000000" fill-rule="evenodd" fill-opacity="1" /><path clip-path="url(#clip650)" d="M68.7161 364.435 L71.5806 364.435 L71.5806 391.362 Q77.6281 390.98 80.8109 387.734 Q83.9619 384.456 83.9619 378.631 Q83.9619 375.257 83.1344 372.106 Q82.3069 368.923 80.6518 365.804 L86.1899 365.804 Q87.5267 368.955 88.227 372.265 Q88.9272 375.575 88.9272 378.981 Q88.9272 387.511 83.9619 392.508 Q78.9967 397.473 70.5303 397.473 Q61.7774 397.473 56.6531 392.763 Q51.4968 388.02 51.4968 380 Q51.4968 372.806 56.1438 368.637 Q60.7589 364.435 68.7161 364.435 M66.9973 370.292 Q62.1912 370.356 59.3266 372.997 Q56.4621 375.607 56.4621 379.936 Q56.4621 384.838 59.2312 387.798 Q62.0002 390.726 67.0292 391.171 L66.9973 370.292 Z" fill="#000000" fill-rule="evenodd" fill-opacity="1" /><path clip-path="url(#clip650)" d="M66.4881 325.191 L88.0042 325.191 L88.0042 331.047 L66.679 331.047 Q61.6183 331.047 59.1038 333.021 Q56.5894 334.994 56.5894 338.941 Q56.5894 343.683 59.6131 346.42 Q62.6368 349.158 67.8567 349.158 L88.0042 349.158 L88.0042 355.046 L52.3562 355.046 L52.3562 349.158 L57.8944 349.158 Q54.6797 347.057 53.0883 344.224 Q51.4968 341.36 51.4968 337.636 Q51.4968 331.493 55.3163 328.342 Q59.1038 325.191 66.4881 325.191 Z" fill="#000000" fill-rule="evenodd" fill-opacity="1" /><path clip-path="url(#clip650)" d="M68.7161 283.018 L71.5806 283.018 L71.5806 309.945 Q77.6281 309.563 80.8109 306.317 Q83.9619 303.038 83.9619 297.214 Q83.9619 293.84 83.1344 290.689 Q82.3069 287.506 80.6518 284.387 L86.1899 284.387 Q87.5267 287.538 88.227 290.848 Q88.9272 294.158 88.9272 297.564 Q88.9272 306.094 83.9619 311.091 Q78.9967 316.056 70.5303 316.056 Q61.7774 316.056 56.6531 311.345 Q51.4968 306.603 51.4968 298.582 Q51.4968 291.389 56.1438 287.219 Q60.7589 283.018 68.7161 283.018 M66.9973 288.874 Q62.1912 288.938 59.3266 291.58 Q56.4621 294.19 56.4621 298.519 Q56.4621 303.42 59.2312 306.38 Q62.0002 309.308 67.0292 309.754 L66.9973 288.874 Z" fill="#000000" fill-rule="evenodd" fill-opacity="1" /><path clip-path="url(#clip650)" d="M53.7248 247.752 L59.1993 247.752 Q57.8307 250.235 57.1623 252.749 Q56.4621 255.232 56.4621 257.778 Q56.4621 263.475 60.0905 266.626 Q63.6872 269.777 70.212 269.777 Q76.7369 269.777 80.3653 266.626 Q83.9619 263.475 83.9619 257.778 Q83.9619 255.232 83.2935 252.749 Q82.5933 250.235 81.2247 247.752 L86.6355 247.752 Q87.7814 250.203 88.3543 252.845 Q88.9272 255.455 88.9272 258.415 Q88.9272 266.467 83.8664 271.21 Q78.8057 275.952 70.212 275.952 Q61.491 275.952 56.4939 271.178 Q51.4968 266.372 51.4968 258.033 Q51.4968 255.327 52.0697 252.749 Q52.6108 250.171 53.7248 247.752 Z" fill="#000000" fill-rule="evenodd" fill-opacity="1" /><path clip-path="url(#clip650)" d="M38.479 237.79 L38.479 231.901 L67.7294 231.901 L52.3562 214.428 L52.3562 206.948 L69.0344 225.854 L88.0042 206.152 L88.0042 213.791 L70.5939 231.901 L88.0042 231.901 L88.0042 237.79 L38.479 237.79 Z" fill="#000000" fill-rule="evenodd" fill-opacity="1" /><path clip-path="url(#clip650)" d="M551.536 34.4165 Q550.037 33.8899 548.538 33.4848 Q544.528 32.4315 540.234 32.4315 Q532.821 32.4315 528.689 36.4419 Q524.84 40.1688 524.111 47.0148 L551.536 47.0148 L551.536 52.8481 L524.111 52.8481 Q524.84 59.6941 528.689 63.421 Q532.821 67.4314 540.234 67.4314 Q545.419 67.4314 548.538 66.3781 L551.536 65.3654 L551.536 72.1304 L548.336 72.8596 Q544.123 73.7508 539.788 73.7508 Q528.932 73.7508 522.612 67.4314 Q516.252 61.1119 516.252 49.9314 Q516.252 38.7509 522.612 32.4315 Q528.932 26.1121 539.788 26.1121 Q543.88 26.1121 548.336 27.0033 Q549.956 27.3274 551.536 27.8135 L551.536 34.4165 Z" fill="#000000" fill-rule="evenodd" fill-opacity="1" /><path clip-path="url(#clip650)" d="M571.507 34.9026 L623.439 34.9026 L623.439 41.7081 L571.507 41.7081 L571.507 34.9026 M571.507 51.4303 L623.439 51.4303 L623.439 58.3168 L571.507 58.3168 L571.507 51.4303 Z" fill="#000000" fill-rule="evenodd" fill-opacity="1" /><path clip-path="url(#clip650)" d="M640.048 9.54393 L647.502 9.54393 L647.502 72.576 L640.048 72.576 L640.048 9.54393 Z" fill="#000000" fill-rule="evenodd" fill-opacity="1" /><path clip-path="url(#clip650)" d="M680.679 32.4315 Q674.683 32.4315 671.199 37.1306 Q667.716 41.7891 667.716 49.9314 Q667.716 58.0738 671.159 62.7728 Q674.643 67.4314 680.679 67.4314 Q686.633 67.4314 690.117 62.7323 Q693.601 58.0333 693.601 49.9314 Q693.601 41.8701 690.117 37.1711 Q686.633 32.4315 680.679 32.4315 M680.679 26.1121 Q690.401 26.1121 695.95 32.4315 Q701.5 38.7509 701.5 49.9314 Q701.5 61.0714 695.95 67.4314 Q690.401 73.7508 680.679 73.7508 Q670.916 73.7508 665.366 67.4314 Q659.857 61.0714 659.857 49.9314 Q659.857 38.7509 665.366 32.4315 Q670.916 26.1121 680.679 26.1121 Z" fill="#000000" fill-rule="evenodd" fill-opacity="1" /><path clip-path="url(#clip650)" d="M743.711 49.3643 Q743.711 41.2625 740.348 36.8065 Q737.027 32.3505 730.991 32.3505 Q724.995 32.3505 721.633 36.8065 Q718.311 41.2625 718.311 49.3643 Q718.311 57.4256 721.633 61.8816 Q724.995 66.3376 730.991 66.3376 Q737.027 66.3376 740.348 61.8816 Q743.711 57.4256 743.711 49.3643 M751.164 66.9452 Q751.164 78.5308 746.02 84.1616 Q740.875 89.8329 730.262 89.8329 Q726.332 89.8329 722.848 89.2252 Q719.365 88.6581 716.083 87.4428 L716.083 80.1917 Q719.365 81.9741 722.565 82.8248 Q725.765 83.6755 729.087 83.6755 Q736.419 83.6755 740.065 79.8271 Q743.711 76.0193 743.711 68.282 L743.711 64.5957 Q741.402 68.6061 737.796 70.5911 Q734.191 72.576 729.168 72.576 Q720.823 72.576 715.719 66.2161 Q710.615 59.8562 710.615 49.3643 Q710.615 38.832 715.719 32.472 Q720.823 26.1121 729.168 26.1121 Q734.191 26.1121 737.796 28.0971 Q741.402 30.082 743.711 34.0924 L743.711 27.2059 L751.164 27.2059 L751.164 66.9452 Z" fill="#000000" fill-rule="evenodd" fill-opacity="1" /><path clip-path="url(#clip650)" d="M763.439 10.2326 L768.178 10.2326 L768.178 31.0542 L782.194 20.1168 L788.19 20.1168 L772.999 31.9859 L788.797 45.516 L782.68 45.516 L768.178 33.1202 L768.178 45.516 L763.439 45.516 L763.439 10.2326 Z" fill="#000000" fill-rule="evenodd" fill-opacity="1" /><path clip-path="url(#clip650)" d="M819.746 9.62495 Q814.318 18.942 811.685 28.0566 Q809.052 37.1711 809.052 46.5287 Q809.052 55.8863 811.685 65.0818 Q814.358 74.2369 819.746 83.5134 L813.265 83.5134 Q807.188 73.9938 804.15 64.7983 Q801.152 55.6027 801.152 46.5287 Q801.152 37.4952 804.15 28.3401 Q807.148 19.1851 813.265 9.62495 L819.746 9.62495 Z" fill="#000000" fill-rule="evenodd" fill-opacity="1" /><path clip-path="url(#clip650)" d="M871.922 45.1919 L871.922 72.576 L864.468 72.576 L864.468 45.4349 Q864.468 38.994 861.957 35.7938 Q859.445 32.5936 854.422 32.5936 Q848.386 32.5936 844.902 36.4419 Q841.418 40.2903 841.418 46.9338 L841.418 72.576 L833.924 72.576 L833.924 27.2059 L841.418 27.2059 L841.418 34.2544 Q844.092 30.163 847.697 28.1376 Q851.343 26.1121 856.083 26.1121 Q863.901 26.1121 867.911 30.9732 Q871.922 35.7938 871.922 45.1919 Z" fill="#000000" fill-rule="evenodd" fill-opacity="1" /><path clip-path="url(#clip650)" d="M885.614 9.62495 L892.095 9.62495 Q898.172 19.1851 901.169 28.3401 Q904.207 37.4952 904.207 46.5287 Q904.207 55.6027 901.169 64.7983 Q898.172 73.9938 892.095 83.5134 L885.614 83.5134 Q891.002 74.2369 893.635 65.0818 Q896.308 55.8863 896.308 46.5287 Q896.308 37.1711 893.635 28.0566 Q891.002 18.942 885.614 9.62495 Z" fill="#000000" fill-rule="evenodd" fill-opacity="1" /><polyline clip-path="url(#clip652)" style="stroke:#009af9; stroke-linecap:butt; stroke-linejoin:round; stroke-width:8; stroke-opacity:1; fill:none" points="
  292.753,137.841 307.025,277.314 342.707,348.132 414.071,531.715 556.798,483.932 699.525,536.394 842.253,480.359 984.98,535.302 1127.71,511.675 
  "/>
<path clip-path="url(#clip652)" d="M292.753 153.841 L281.441 149.153 L276.753 137.841 L281.441 126.529 L292.753 121.841 L304.065 126.529 L308.753 137.841 L304.065 149.153 Z" fill="#009af9" fill-rule="evenodd" fill-opacity="1" stroke="#000000" stroke-opacity="1" stroke-width="1.6"/>
<path clip-path="url(#clip652)" d="M307.025 293.314 L295.713 288.626 L291.025 277.314 L295.713 266.002 L307.025 261.314 L318.337 266.002 L323.025 277.314 L318.337 288.626 Z" fill="#009af9" fill-rule="evenodd" fill-opacity="1" stroke="#000000" stroke-opacity="1" stroke-width="1.6"/>
<path clip-path="url(#clip652)" d="M342.707 364.132 L331.395 359.444 L326.707 348.132 L331.395 336.82 L342.707 332.132 L354.019 336.82 L358.707 348.132 L354.019 359.444 Z" fill="#009af9" fill-rule="evenodd" fill-opacity="1" stroke="#000000" stroke-opacity="1" stroke-width="1.6"/>
<path clip-path="url(#clip652)" d="M414.071 547.715 L402.759 543.027 L398.071 531.715 L402.759 520.403 L414.071 515.715 L425.383 520.403 L430.071 531.715 L425.383 543.027 Z" fill="#009af9" fill-rule="evenodd" fill-opacity="1" stroke="#000000" stroke-opacity="1" stroke-width="1.6"/>
<path clip-path="url(#clip652)" d="M556.798 499.932 L545.486 495.244 L540.798 483.932 L545.486 472.62 L556.798 467.932 L568.11 472.62 L572.798 483.932 L568.11 495.244 Z" fill="#009af9" fill-rule="evenodd" fill-opacity="1" stroke="#000000" stroke-opacity="1" stroke-width="1.6"/>
<path clip-path="url(#clip652)" d="M699.525 552.394 L688.213 547.706 L683.525 536.394 L688.213 525.082 L699.525 520.394 L710.837 525.082 L715.525 536.394 L710.837 547.706 Z" fill="#009af9" fill-rule="evenodd" fill-opacity="1" stroke="#000000" stroke-opacity="1" stroke-width="1.6"/>
<path clip-path="url(#clip652)" d="M842.253 496.359 L830.941 491.671 L826.253 480.359 L830.941 469.047 L842.253 464.359 L853.565 469.047 L858.253 480.359 L853.565 491.671 Z" fill="#009af9" fill-rule="evenodd" fill-opacity="1" stroke="#000000" stroke-opacity="1" stroke-width="1.6"/>
<path clip-path="url(#clip652)" d="M984.98 551.302 L973.668 546.614 L968.98 535.302 L973.668 523.99 L984.98 519.302 L996.292 523.99 L1000.98 535.302 L996.292 546.614 Z" fill="#009af9" fill-rule="evenodd" fill-opacity="1" stroke="#000000" stroke-opacity="1" stroke-width="1.6"/>
<path clip-path="url(#clip652)" d="M1127.71 527.675 L1116.4 522.987 L1111.71 511.675 L1116.4 500.363 L1127.71 495.675 L1139.02 500.363 L1143.71 511.675 L1139.02 522.987 Z" fill="#009af9" fill-rule="evenodd" fill-opacity="1" stroke="#000000" stroke-opacity="1" stroke-width="1.6"/>
<polyline clip-path="url(#clip652)" style="stroke:#e26f46; stroke-linecap:butt; stroke-linejoin:round; stroke-width:8; stroke-opacity:1; fill:none" points="
  292.753,211.669 307.025,513.19 342.707,444.188 414.071,523.481 556.798,530.803 699.525,568.216 842.253,579.678 984.98,591.973 1127.71,563.43 
  "/>
<path clip-path="url(#clip652)" d="M292.753 227.669 L281.441 222.981 L276.753 211.669 L281.441 200.357 L292.753 195.669 L304.065 200.357 L308.753 211.669 L304.065 222.981 Z" fill="#e26f46" fill-rule="evenodd" fill-opacity="1" stroke="#000000" stroke-opacity="1" stroke-width="1.6"/>
<path clip-path="url(#clip652)" d="M307.025 529.19 L295.713 524.502 L291.025 513.19 L295.713 501.878 L307.025 497.19 L318.337 501.878 L323.025 513.19 L318.337 524.502 Z" fill="#e26f46" fill-rule="evenodd" fill-opacity="1" stroke="#000000" stroke-opacity="1" stroke-width="1.6"/>
<path clip-path="url(#clip652)" d="M342.707 460.188 L331.395 455.5 L326.707 444.188 L331.395 432.876 L342.707 428.188 L354.019 432.876 L358.707 444.188 L354.019 455.5 Z" fill="#e26f46" fill-rule="evenodd" fill-opacity="1" stroke="#000000" stroke-opacity="1" stroke-width="1.6"/>
<path clip-path="url(#clip652)" d="M414.071 539.481 L402.759 534.793 L398.071 523.481 L402.759 512.169 L414.071 507.481 L425.383 512.169 L430.071 523.481 L425.383 534.793 Z" fill="#e26f46" fill-rule="evenodd" fill-opacity="1" stroke="#000000" stroke-opacity="1" stroke-width="1.6"/>
<path clip-path="url(#clip652)" d="M556.798 546.803 L545.486 542.115 L540.798 530.803 L545.486 519.491 L556.798 514.803 L568.11 519.491 L572.798 530.803 L568.11 542.115 Z" fill="#e26f46" fill-rule="evenodd" fill-opacity="1" stroke="#000000" stroke-opacity="1" stroke-width="1.6"/>
<path clip-path="url(#clip652)" d="M699.525 584.216 L688.213 579.528 L683.525 568.216 L688.213 556.904 L699.525 552.216 L710.837 556.904 L715.525 568.216 L710.837 579.528 Z" fill="#e26f46" fill-rule="evenodd" fill-opacity="1" stroke="#000000" stroke-opacity="1" stroke-width="1.6"/>
<path clip-path="url(#clip652)" d="M842.253 595.678 L830.941 590.99 L826.253 579.678 L830.941 568.366 L842.253 563.678 L853.565 568.366 L858.253 579.678 L853.565 590.99 Z" fill="#e26f46" fill-rule="evenodd" fill-opacity="1" stroke="#000000" stroke-opacity="1" stroke-width="1.6"/>
<path clip-path="url(#clip652)" d="M984.98 607.973 L973.668 603.285 L968.98 591.973 L973.668 580.661 L984.98 575.973 L996.292 580.661 L1000.98 591.973 L996.292 603.285 Z" fill="#e26f46" fill-rule="evenodd" fill-opacity="1" stroke="#000000" stroke-opacity="1" stroke-width="1.6"/>
<path clip-path="url(#clip652)" d="M1127.71 579.43 L1116.4 574.742 L1111.71 563.43 L1116.4 552.118 L1127.71 547.43 L1139.02 552.118 L1143.71 563.43 L1139.02 574.742 Z" fill="#e26f46" fill-rule="evenodd" fill-opacity="1" stroke="#000000" stroke-opacity="1" stroke-width="1.6"/>
<polyline clip-path="url(#clip652)" style="stroke:#3da44d; stroke-linecap:butt; stroke-linejoin:round; stroke-width:8; stroke-opacity:1; fill:none" points="
  292.753,398.044 307.025,542.038 342.707,566.629 414.071,537.9 556.798,531.326 699.525,612.805 842.253,616.811 984.98,586.811 1127.71,578.704 
  "/>
<path clip-path="url(#clip652)" d="M292.753 414.044 L281.441 409.356 L276.753 398.044 L281.441 386.732 L292.753 382.044 L304.065 386.732 L308.753 398.044 L304.065 409.356 Z" fill="#3da44d" fill-rule="evenodd" fill-opacity="1" stroke="#000000" stroke-opacity="1" stroke-width="1.6"/>
<path clip-path="url(#clip652)" d="M307.025 558.038 L295.713 553.35 L291.025 542.038 L295.713 530.726 L307.025 526.038 L318.337 530.726 L323.025 542.038 L318.337 553.35 Z" fill="#3da44d" fill-rule="evenodd" fill-opacity="1" stroke="#000000" stroke-opacity="1" stroke-width="1.6"/>
<path clip-path="url(#clip652)" d="M342.707 582.629 L331.395 577.941 L326.707 566.629 L331.395 555.317 L342.707 550.629 L354.019 555.317 L358.707 566.629 L354.019 577.941 Z" fill="#3da44d" fill-rule="evenodd" fill-opacity="1" stroke="#000000" stroke-opacity="1" stroke-width="1.6"/>
<path clip-path="url(#clip652)" d="M414.071 553.9 L402.759 549.212 L398.071 537.9 L402.759 526.588 L414.071 521.9 L425.383 526.588 L430.071 537.9 L425.383 549.212 Z" fill="#3da44d" fill-rule="evenodd" fill-opacity="1" stroke="#000000" stroke-opacity="1" stroke-width="1.6"/>
<path clip-path="url(#clip652)" d="M556.798 547.326 L545.486 542.638 L540.798 531.326 L545.486 520.014 L556.798 515.326 L568.11 520.014 L572.798 531.326 L568.11 542.638 Z" fill="#3da44d" fill-rule="evenodd" fill-opacity="1" stroke="#000000" stroke-opacity="1" stroke-width="1.6"/>
<path clip-path="url(#clip652)" d="M699.525 628.805 L688.213 624.117 L683.525 612.805 L688.213 601.493 L699.525 596.805 L710.837 601.493 L715.525 612.805 L710.837 624.117 Z" fill="#3da44d" fill-rule="evenodd" fill-opacity="1" stroke="#000000" stroke-opacity="1" stroke-width="1.6"/>
<path clip-path="url(#clip652)" d="M842.253 632.811 L830.941 628.123 L826.253 616.811 L830.941 605.499 L842.253 600.811 L853.565 605.499 L858.253 616.811 L853.565 628.123 Z" fill="#3da44d" fill-rule="evenodd" fill-opacity="1" stroke="#000000" stroke-opacity="1" stroke-width="1.6"/>
<path clip-path="url(#clip652)" d="M984.98 602.811 L973.668 598.123 L968.98 586.811 L973.668 575.499 L984.98 570.811 L996.292 575.499 L1000.98 586.811 L996.292 598.123 Z" fill="#3da44d" fill-rule="evenodd" fill-opacity="1" stroke="#000000" stroke-opacity="1" stroke-width="1.6"/>
<path clip-path="url(#clip652)" d="M1127.71 594.704 L1116.4 590.016 L1111.71 578.704 L1116.4 567.392 L1127.71 562.704 L1139.02 567.392 L1143.71 578.704 L1139.02 590.016 Z" fill="#3da44d" fill-rule="evenodd" fill-opacity="1" stroke="#000000" stroke-opacity="1" stroke-width="1.6"/>
<path clip-path="url(#clip650)" d="
M859.476 347.756 L1123.25 347.756 L1123.25 140.396 L859.476 140.396  Z
  " fill="#ffffff" fill-rule="evenodd" fill-opacity="1"/>
<polyline clip-path="url(#clip650)" style="stroke:#000000; stroke-linecap:butt; stroke-linejoin:round; stroke-width:4; stroke-opacity:1; fill:none" points="
  859.476,347.756 1123.25,347.756 1123.25,140.396 859.476,140.396 859.476,347.756 
  "/>
<polyline clip-path="url(#clip650)" style="stroke:#009af9; stroke-linecap:butt; stroke-linejoin:round; stroke-width:4; stroke-opacity:1; fill:none" points="
  869.31,192.236 928.314,192.236 
  "/>
<path clip-path="url(#clip650)" d="M898.812 217.836 L880.713 210.335 L873.212 192.236 L880.713 174.137 L898.812 166.636 L916.911 174.137 L924.412 192.236 L916.911 210.335 Z" fill="#009af9" fill-rule="evenodd" fill-opacity="1" stroke="#000000" stroke-opacity="1" stroke-width="2.56"/>
<path clip-path="url(#clip650)" d="M938.147 173.497 L942.43 173.497 L942.43 194.77 L955.138 183.59 L960.578 183.59 L946.828 195.719 L961.157 209.516 L955.601 209.516 L942.43 196.854 L942.43 209.516 L938.147 209.516 L938.147 173.497 Z" fill="#000000" fill-rule="evenodd" fill-opacity="1" /><path clip-path="url(#clip650)" d="M966.319 187.988 L995.994 187.988 L995.994 191.877 L966.319 191.877 L966.319 187.988 M966.319 197.432 L995.994 197.432 L995.994 201.368 L966.319 201.368 L966.319 197.432 Z" fill="#000000" fill-rule="evenodd" fill-opacity="1" /><path clip-path="url(#clip650)" d="M1016.09 178.034 Q1012.48 178.034 1010.65 181.599 Q1008.84 185.141 1008.84 192.27 Q1008.84 199.377 1010.65 202.942 Q1012.48 206.483 1016.09 206.483 Q1019.72 206.483 1021.53 202.942 Q1023.36 199.377 1023.36 192.27 Q1023.36 185.141 1021.53 181.599 Q1019.72 178.034 1016.09 178.034 M1016.09 174.331 Q1021.9 174.331 1024.95 178.937 Q1028.03 183.52 1028.03 192.27 Q1028.03 200.997 1024.95 205.604 Q1021.9 210.187 1016.09 210.187 Q1010.28 210.187 1007.2 205.604 Q1004.14 200.997 1004.14 192.27 Q1004.14 183.52 1007.2 178.937 Q1010.28 174.331 1016.09 174.331 Z" fill="#000000" fill-rule="evenodd" fill-opacity="1" /><path clip-path="url(#clip650)" d="M1036.25 203.636 L1041.13 203.636 L1041.13 209.516 L1036.25 209.516 L1036.25 203.636 Z" fill="#000000" fill-rule="evenodd" fill-opacity="1" /><path clip-path="url(#clip650)" d="M1065.48 190.882 Q1068.84 191.599 1070.72 193.868 Q1072.61 196.136 1072.61 199.469 Q1072.61 204.585 1069.1 207.386 Q1065.58 210.187 1059.1 210.187 Q1056.92 210.187 1054.61 209.747 Q1052.31 209.331 1049.86 208.474 L1049.86 203.96 Q1051.8 205.094 1054.12 205.673 Q1056.43 206.252 1058.96 206.252 Q1063.36 206.252 1065.65 204.516 Q1067.96 202.78 1067.96 199.469 Q1067.96 196.414 1065.81 194.701 Q1063.68 192.965 1059.86 192.965 L1055.83 192.965 L1055.83 189.122 L1060.04 189.122 Q1063.49 189.122 1065.32 187.757 Q1067.15 186.368 1067.15 183.775 Q1067.15 181.113 1065.25 179.701 Q1063.38 178.266 1059.86 178.266 Q1057.94 178.266 1055.74 178.683 Q1053.54 179.099 1050.9 179.979 L1050.9 175.812 Q1053.56 175.071 1055.88 174.701 Q1058.22 174.331 1060.28 174.331 Q1065.6 174.331 1068.7 176.761 Q1071.8 179.169 1071.8 183.289 Q1071.8 186.159 1070.16 188.15 Q1068.52 190.118 1065.48 190.882 Z" fill="#000000" fill-rule="evenodd" fill-opacity="1" /><path clip-path="url(#clip650)" d="M1095.65 190.882 Q1099 191.599 1100.88 193.868 Q1102.78 196.136 1102.78 199.469 Q1102.78 204.585 1099.26 207.386 Q1095.74 210.187 1089.26 210.187 Q1087.08 210.187 1084.77 209.747 Q1082.48 209.331 1080.02 208.474 L1080.02 203.96 Q1081.97 205.094 1084.28 205.673 Q1086.6 206.252 1089.12 206.252 Q1093.52 206.252 1095.81 204.516 Q1098.12 202.78 1098.12 199.469 Q1098.12 196.414 1095.97 194.701 Q1093.84 192.965 1090.02 192.965 L1085.99 192.965 L1085.99 189.122 L1090.21 189.122 Q1093.66 189.122 1095.48 187.757 Q1097.31 186.368 1097.31 183.775 Q1097.31 181.113 1095.42 179.701 Q1093.54 178.266 1090.02 178.266 Q1088.1 178.266 1085.9 178.683 Q1083.7 179.099 1081.06 179.979 L1081.06 175.812 Q1083.73 175.071 1086.04 174.701 Q1088.38 174.331 1090.44 174.331 Q1095.76 174.331 1098.86 176.761 Q1101.97 179.169 1101.97 183.289 Q1101.97 186.159 1100.32 188.15 Q1098.68 190.118 1095.65 190.882 Z" fill="#000000" fill-rule="evenodd" fill-opacity="1" /><polyline clip-path="url(#clip650)" style="stroke:#e26f46; stroke-linecap:butt; stroke-linejoin:round; stroke-width:4; stroke-opacity:1; fill:none" points="
  869.31,244.076 928.314,244.076 
  "/>
<path clip-path="url(#clip650)" d="M898.812 269.676 L880.713 262.175 L873.212 244.076 L880.713 225.977 L898.812 218.476 L916.911 225.977 L924.412 244.076 L916.911 262.175 Z" fill="#e26f46" fill-rule="evenodd" fill-opacity="1" stroke="#000000" stroke-opacity="1" stroke-width="2.56"/>
<path clip-path="url(#clip650)" d="M938.147 225.337 L942.43 225.337 L942.43 246.61 L955.138 235.43 L960.578 235.43 L946.828 247.559 L961.157 261.356 L955.601 261.356 L942.43 248.694 L942.43 261.356 L938.147 261.356 L938.147 225.337 Z" fill="#000000" fill-rule="evenodd" fill-opacity="1" /><path clip-path="url(#clip650)" d="M966.319 239.828 L995.994 239.828 L995.994 243.717 L966.319 243.717 L966.319 239.828 M966.319 249.272 L995.994 249.272 L995.994 253.208 L966.319 253.208 L966.319 249.272 Z" fill="#000000" fill-rule="evenodd" fill-opacity="1" /><path clip-path="url(#clip650)" d="M1016.09 229.874 Q1012.48 229.874 1010.65 233.439 Q1008.84 236.981 1008.84 244.11 Q1008.84 251.217 1010.65 254.782 Q1012.48 258.323 1016.09 258.323 Q1019.72 258.323 1021.53 254.782 Q1023.36 251.217 1023.36 244.11 Q1023.36 236.981 1021.53 233.439 Q1019.72 229.874 1016.09 229.874 M1016.09 226.171 Q1021.9 226.171 1024.95 230.777 Q1028.03 235.36 1028.03 244.11 Q1028.03 252.837 1024.95 257.444 Q1021.9 262.027 1016.09 262.027 Q1010.28 262.027 1007.2 257.444 Q1004.14 252.837 1004.14 244.11 Q1004.14 235.36 1007.2 230.777 Q1010.28 226.171 1016.09 226.171 Z" fill="#000000" fill-rule="evenodd" fill-opacity="1" /><path clip-path="url(#clip650)" d="M1036.25 255.476 L1041.13 255.476 L1041.13 261.356 L1036.25 261.356 L1036.25 255.476 Z" fill="#000000" fill-rule="evenodd" fill-opacity="1" /><path clip-path="url(#clip650)" d="M1061.9 242.212 Q1058.75 242.212 1056.9 244.365 Q1055.07 246.518 1055.07 250.268 Q1055.07 253.995 1056.9 256.171 Q1058.75 258.323 1061.9 258.323 Q1065.04 258.323 1066.87 256.171 Q1068.73 253.995 1068.73 250.268 Q1068.73 246.518 1066.87 244.365 Q1065.04 242.212 1061.9 242.212 M1071.18 227.56 L1071.18 231.819 Q1069.42 230.986 1067.61 230.546 Q1065.83 230.106 1064.07 230.106 Q1059.44 230.106 1056.99 233.231 Q1054.56 236.356 1054.21 242.675 Q1055.58 240.661 1057.64 239.597 Q1059.7 238.509 1062.17 238.509 Q1067.38 238.509 1070.39 241.68 Q1073.42 244.828 1073.42 250.268 Q1073.42 255.592 1070.28 258.809 Q1067.13 262.027 1061.9 262.027 Q1055.9 262.027 1052.73 257.444 Q1049.56 252.837 1049.56 244.11 Q1049.56 235.916 1053.45 231.055 Q1057.34 226.171 1063.89 226.171 Q1065.65 226.171 1067.43 226.518 Q1069.23 226.865 1071.18 227.56 Z" fill="#000000" fill-rule="evenodd" fill-opacity="1" /><path clip-path="url(#clip650)" d="M1092.06 242.212 Q1088.91 242.212 1087.06 244.365 Q1085.23 246.518 1085.23 250.268 Q1085.23 253.995 1087.06 256.171 Q1088.91 258.323 1092.06 258.323 Q1095.21 258.323 1097.04 256.171 Q1098.89 253.995 1098.89 250.268 Q1098.89 246.518 1097.04 244.365 Q1095.21 242.212 1092.06 242.212 M1101.34 227.56 L1101.34 231.819 Q1099.58 230.986 1097.78 230.546 Q1095.99 230.106 1094.23 230.106 Q1089.6 230.106 1087.15 233.231 Q1084.72 236.356 1084.37 242.675 Q1085.74 240.661 1087.8 239.597 Q1089.86 238.509 1092.34 238.509 Q1097.54 238.509 1100.55 241.68 Q1103.59 244.828 1103.59 250.268 Q1103.59 255.592 1100.44 258.809 Q1097.29 262.027 1092.06 262.027 Q1086.06 262.027 1082.89 257.444 Q1079.72 252.837 1079.72 244.11 Q1079.72 235.916 1083.61 231.055 Q1087.5 226.171 1094.05 226.171 Q1095.81 226.171 1097.59 226.518 Q1099.4 226.865 1101.34 227.56 Z" fill="#000000" fill-rule="evenodd" fill-opacity="1" /><polyline clip-path="url(#clip650)" style="stroke:#3da44d; stroke-linecap:butt; stroke-linejoin:round; stroke-width:4; stroke-opacity:1; fill:none" points="
  869.31,295.916 928.314,295.916 
  "/>
<path clip-path="url(#clip650)" d="M898.812 321.516 L880.713 314.015 L873.212 295.916 L880.713 277.817 L898.812 270.316 L916.911 277.817 L924.412 295.916 L916.911 314.015 Z" fill="#3da44d" fill-rule="evenodd" fill-opacity="1" stroke="#000000" stroke-opacity="1" stroke-width="2.56"/>
<path clip-path="url(#clip650)" d="M938.147 277.177 L942.43 277.177 L942.43 298.45 L955.138 287.27 L960.578 287.27 L946.828 299.399 L961.157 313.196 L955.601 313.196 L942.43 300.534 L942.43 313.196 L938.147 313.196 L938.147 277.177 Z" fill="#000000" fill-rule="evenodd" fill-opacity="1" /><path clip-path="url(#clip650)" d="M966.319 291.668 L995.994 291.668 L995.994 295.557 L966.319 295.557 L966.319 291.668 M966.319 301.112 L995.994 301.112 L995.994 305.048 L966.319 305.048 L966.319 301.112 Z" fill="#000000" fill-rule="evenodd" fill-opacity="1" /><path clip-path="url(#clip650)" d="M1016.09 281.714 Q1012.48 281.714 1010.65 285.279 Q1008.84 288.821 1008.84 295.95 Q1008.84 303.057 1010.65 306.622 Q1012.48 310.163 1016.09 310.163 Q1019.72 310.163 1021.53 306.622 Q1023.36 303.057 1023.36 295.95 Q1023.36 288.821 1021.53 285.279 Q1019.72 281.714 1016.09 281.714 M1016.09 278.011 Q1021.9 278.011 1024.95 282.617 Q1028.03 287.2 1028.03 295.95 Q1028.03 304.677 1024.95 309.284 Q1021.9 313.867 1016.09 313.867 Q1010.28 313.867 1007.2 309.284 Q1004.14 304.677 1004.14 295.95 Q1004.14 287.2 1007.2 282.617 Q1010.28 278.011 1016.09 278.011 Z" fill="#000000" fill-rule="evenodd" fill-opacity="1" /><path clip-path="url(#clip650)" d="M1036.25 307.316 L1041.13 307.316 L1041.13 313.196 L1036.25 313.196 L1036.25 307.316 Z" fill="#000000" fill-rule="evenodd" fill-opacity="1" /><path clip-path="url(#clip650)" d="M1051.46 312.478 L1051.46 308.219 Q1053.22 309.052 1055.02 309.492 Q1056.83 309.932 1058.56 309.932 Q1063.19 309.932 1065.62 306.83 Q1068.08 303.705 1068.42 297.362 Q1067.08 299.353 1065.02 300.418 Q1062.96 301.483 1060.46 301.483 Q1055.28 301.483 1052.24 298.358 Q1049.23 295.21 1049.23 289.77 Q1049.23 284.446 1052.38 281.228 Q1055.53 278.011 1060.76 278.011 Q1066.76 278.011 1069.91 282.617 Q1073.08 287.2 1073.08 295.95 Q1073.08 304.122 1069.19 309.006 Q1065.32 313.867 1058.77 313.867 Q1057.01 313.867 1055.21 313.52 Q1053.4 313.173 1051.46 312.478 M1060.76 297.825 Q1063.91 297.825 1065.74 295.673 Q1067.59 293.52 1067.59 289.77 Q1067.59 286.043 1065.74 283.89 Q1063.91 281.714 1060.76 281.714 Q1057.61 281.714 1055.76 283.89 Q1053.93 286.043 1053.93 289.77 Q1053.93 293.52 1055.76 295.673 Q1057.61 297.825 1060.76 297.825 Z" fill="#000000" fill-rule="evenodd" fill-opacity="1" /><path clip-path="url(#clip650)" d="M1091.48 281.714 Q1087.87 281.714 1086.04 285.279 Q1084.23 288.821 1084.23 295.95 Q1084.23 303.057 1086.04 306.622 Q1087.87 310.163 1091.48 310.163 Q1095.11 310.163 1096.92 306.622 Q1098.75 303.057 1098.75 295.95 Q1098.75 288.821 1096.92 285.279 Q1095.11 281.714 1091.48 281.714 M1091.48 278.011 Q1097.29 278.011 1100.35 282.617 Q1103.42 287.2 1103.42 295.95 Q1103.42 304.677 1100.35 309.284 Q1097.29 313.867 1091.48 313.867 Q1085.67 313.867 1082.59 309.284 Q1079.54 304.677 1079.54 295.95 Q1079.54 287.2 1082.59 282.617 Q1085.67 278.011 1091.48 278.011 Z" fill="#000000" fill-rule="evenodd" fill-opacity="1" /></svg>
