<?xml version="1.0" encoding="utf-8"?>
<svg xmlns="http://www.w3.org/2000/svg" xmlns:xlink="http://www.w3.org/1999/xlink" width="600" height="400" viewBox="0 0 2400 1600">
<defs>
  <clipPath id="clip840">
    <rect x="0" y="0" width="2400" height="1600"/>
  </clipPath>
</defs>
<path clip-path="url(#clip840)" d="
M0 1600 L2400 1600 L2400 0 L0 0  Z
  " fill="#ffffff" fill-rule="evenodd" fill-opacity="1"/>
<defs>
  <clipPath id="clip841">
    <rect x="480" y="0" width="1681" height="1600"/>
  </clipPath>
</defs>
<path clip-path="url(#clip840)" d="
M193.936 1486.45 L2352.76 1486.45 L2352.76 47.2441 L193.936 47.2441  Z
  " fill="#ffffff" fill-rule="evenodd" fill-opacity="1"/>
<defs>
  <clipPath id="clip842">
    <rect x="193" y="47" width="2160" height="1440"/>
  </clipPath>
</defs>
<polyline clip-path="url(#clip842)" style="stroke:#000000; stroke-linecap:butt; stroke-linejoin:round; stroke-width:2; stroke-opacity:0.1; fill:none" points="
  255.035,1486.45 255.035,47.2441 
  "/>
<polyline clip-path="url(#clip842)" style="stroke:#000000; stroke-linecap:butt; stroke-linejoin:round; stroke-width:2; stroke-opacity:0.1; fill:none" points="
  764.19,1486.45 764.19,47.2441 
  "/>
<polyline clip-path="url(#clip842)" style="stroke:#000000; stroke-linecap:butt; stroke-linejoin:round; stroke-width:2; stroke-opacity:0.1; fill:none" points="
  1273.35,1486.45 1273.35,47.2441 
  "/>
<polyline clip-path="url(#clip842)" style="stroke:#000000; stroke-linecap:butt; stroke-linejoin:round; stroke-width:2; stroke-opacity:0.1; fill:none" points="
  1782.5,1486.45 1782.5,47.2441 
  "/>
<polyline clip-path="url(#clip842)" style="stroke:#000000; stroke-linecap:butt; stroke-linejoin:round; stroke-width:2; stroke-opacity:0.1; fill:none" points="
  2291.66,1486.45 2291.66,47.2441 
  "/>
<polyline clip-path="url(#clip840)" style="stroke:#000000; stroke-linecap:butt; stroke-linejoin:round; stroke-width:4; stroke-opacity:1; fill:none" points="
  193.936,1486.45 2352.76,1486.45 
  "/>
<polyline clip-path="url(#clip840)" style="stroke:#000000; stroke-linecap:butt; stroke-linejoin:round; stroke-width:4; stroke-opacity:1; fill:none" points="
  255.035,1486.45 255.035,1467.55 
  "/>
<polyline clip-path="url(#clip840)" style="stroke:#000000; stroke-linecap:butt; stroke-linejoin:round; stroke-width:4; stroke-opacity:1; fill:none" points="
  764.19,1486.45 764.19,1467.55 
  "/>
<polyline clip-path="url(#clip840)" style="stroke:#000000; stroke-linecap:butt; stroke-linejoin:round; stroke-width:4; stroke-opacity:1; fill:none" points="
  1273.35,1486.45 1273.35,1467.55 
  "/>
<polyline clip-path="url(#clip840)" style="stroke:#000000; stroke-linecap:butt; stroke-linejoin:round; stroke-width:4; stroke-opacity:1; fill:none" points="
  1782.5,1486.45 1782.5,1467.55 
  "/>
<polyline clip-path="url(#clip840)" style="stroke:#000000; stroke-linecap:butt; stroke-linejoin:round; stroke-width:4; stroke-opacity:1; fill:none" points="
  2291.66,1486.45 2291.66,1467.55 
  "/>
<path clip-path="url(#clip840)" d="M232.419 1515.64 Q228.808 1515.64 226.979 1519.2 Q225.174 1522.75 225.174 1529.87 Q225.174 1536.98 226.979 1540.55 Q228.808 1544.09 232.419 1544.09 Q236.053 1544.09 237.859 1540.55 Q239.688 1536.98 239.688 1529.87 Q239.688 1522.75 237.859 1519.2 Q236.053 1515.64 232.419 1515.64 M232.419 1511.93 Q238.229 1511.93 241.285 1516.54 Q244.363 1521.12 244.363 1529.87 Q244.363 1538.6 241.285 1543.21 Q238.229 1547.79 232.419 1547.79 Q226.609 1547.79 223.53 1543.21 Q220.475 1538.6 220.475 1529.87 Q220.475 1521.12 223.53 1516.54 Q226.609 1511.93 232.419 1511.93 Z" fill="#000000" fill-rule="evenodd" fill-opacity="1" /><path clip-path="url(#clip840)" d="M252.581 1541.24 L257.465 1541.24 L257.465 1547.12 L252.581 1547.12 L252.581 1541.24 Z" fill="#000000" fill-rule="evenodd" fill-opacity="1" /><path clip-path="url(#clip840)" d="M277.65 1515.64 Q274.039 1515.64 272.211 1519.2 Q270.405 1522.75 270.405 1529.87 Q270.405 1536.98 272.211 1540.55 Q274.039 1544.09 277.65 1544.09 Q281.285 1544.09 283.09 1540.55 Q284.919 1536.98 284.919 1529.87 Q284.919 1522.75 283.09 1519.2 Q281.285 1515.64 277.65 1515.64 M277.65 1511.93 Q283.46 1511.93 286.516 1516.54 Q289.595 1521.12 289.595 1529.87 Q289.595 1538.6 286.516 1543.21 Q283.46 1547.79 277.65 1547.79 Q271.84 1547.79 268.761 1543.21 Q265.706 1538.6 265.706 1529.87 Q265.706 1521.12 268.761 1516.54 Q271.84 1511.93 277.65 1511.93 Z" fill="#000000" fill-rule="evenodd" fill-opacity="1" /><path clip-path="url(#clip840)" d="M742.072 1515.64 Q738.461 1515.64 736.633 1519.2 Q734.827 1522.75 734.827 1529.87 Q734.827 1536.98 736.633 1540.55 Q738.461 1544.09 742.072 1544.09 Q745.707 1544.09 747.512 1540.55 Q749.341 1536.98 749.341 1529.87 Q749.341 1522.75 747.512 1519.2 Q745.707 1515.64 742.072 1515.64 M742.072 1511.93 Q747.883 1511.93 750.938 1516.54 Q754.017 1521.12 754.017 1529.87 Q754.017 1538.6 750.938 1543.21 Q747.883 1547.79 742.072 1547.79 Q736.262 1547.79 733.184 1543.21 Q730.128 1538.6 730.128 1529.87 Q730.128 1521.12 733.184 1516.54 Q736.262 1511.93 742.072 1511.93 Z" fill="#000000" fill-rule="evenodd" fill-opacity="1" /><path clip-path="url(#clip840)" d="M762.234 1541.24 L767.119 1541.24 L767.119 1547.12 L762.234 1547.12 L762.234 1541.24 Z" fill="#000000" fill-rule="evenodd" fill-opacity="1" /><path clip-path="url(#clip840)" d="M777.35 1512.56 L795.706 1512.56 L795.706 1516.5 L781.632 1516.5 L781.632 1524.97 Q782.651 1524.62 783.669 1524.46 Q784.688 1524.27 785.706 1524.27 Q791.493 1524.27 794.873 1527.44 Q798.253 1530.62 798.253 1536.03 Q798.253 1541.61 794.78 1544.71 Q791.308 1547.79 784.989 1547.79 Q782.813 1547.79 780.544 1547.42 Q778.299 1547.05 775.892 1546.31 L775.892 1541.61 Q777.975 1542.74 780.197 1543.3 Q782.419 1543.86 784.896 1543.86 Q788.901 1543.86 791.239 1541.75 Q793.577 1539.64 793.577 1536.03 Q793.577 1532.42 791.239 1530.31 Q788.901 1528.21 784.896 1528.21 Q783.021 1528.21 781.146 1528.62 Q779.294 1529.04 777.35 1529.92 L777.35 1512.56 Z" fill="#000000" fill-rule="evenodd" fill-opacity="1" /><path clip-path="url(#clip840)" d="M1240.5 1543.18 L1248.14 1543.18 L1248.14 1516.82 L1239.83 1518.49 L1239.83 1514.23 L1248.09 1512.56 L1252.77 1512.56 L1252.77 1543.18 L1260.41 1543.18 L1260.41 1547.12 L1240.5 1547.12 L1240.5 1543.18 Z" fill="#000000" fill-rule="evenodd" fill-opacity="1" /><path clip-path="url(#clip840)" d="M1269.85 1541.24 L1274.73 1541.24 L1274.73 1547.12 L1269.85 1547.12 L1269.85 1541.24 Z" fill="#000000" fill-rule="evenodd" fill-opacity="1" /><path clip-path="url(#clip840)" d="M1294.92 1515.64 Q1291.31 1515.64 1289.48 1519.2 Q1287.67 1522.75 1287.67 1529.87 Q1287.67 1536.98 1289.48 1540.55 Q1291.31 1544.09 1294.92 1544.09 Q1298.55 1544.09 1300.36 1540.55 Q1302.19 1536.98 1302.19 1529.87 Q1302.19 1522.75 1300.36 1519.2 Q1298.55 1515.64 1294.92 1515.64 M1294.92 1511.93 Q1300.73 1511.93 1303.79 1516.54 Q1306.86 1521.12 1306.86 1529.87 Q1306.86 1538.6 1303.79 1543.21 Q1300.73 1547.79 1294.92 1547.79 Q1289.11 1547.79 1286.03 1543.21 Q1282.98 1538.6 1282.98 1529.87 Q1282.98 1521.12 1286.03 1516.54 Q1289.11 1511.93 1294.92 1511.93 Z" fill="#000000" fill-rule="evenodd" fill-opacity="1" /><path clip-path="url(#clip840)" d="M1750.15 1543.18 L1757.79 1543.18 L1757.79 1516.82 L1749.48 1518.49 L1749.48 1514.23 L1757.74 1512.56 L1762.42 1512.56 L1762.42 1543.18 L1770.06 1543.18 L1770.06 1547.12 L1750.15 1547.12 L1750.15 1543.18 Z" fill="#000000" fill-rule="evenodd" fill-opacity="1" /><path clip-path="url(#clip840)" d="M1779.5 1541.24 L1784.39 1541.24 L1784.39 1547.12 L1779.5 1547.12 L1779.5 1541.24 Z" fill="#000000" fill-rule="evenodd" fill-opacity="1" /><path clip-path="url(#clip840)" d="M1794.62 1512.56 L1812.98 1512.56 L1812.98 1516.5 L1798.9 1516.5 L1798.9 1524.97 Q1799.92 1524.62 1800.94 1524.46 Q1801.96 1524.27 1802.98 1524.27 Q1808.76 1524.27 1812.14 1527.44 Q1815.52 1530.62 1815.52 1536.03 Q1815.52 1541.61 1812.05 1544.71 Q1808.58 1547.79 1802.26 1547.79 Q1800.08 1547.79 1797.81 1547.42 Q1795.57 1547.05 1793.16 1546.31 L1793.16 1541.61 Q1795.24 1542.74 1797.47 1543.3 Q1799.69 1543.86 1802.17 1543.86 Q1806.17 1543.86 1808.51 1541.75 Q1810.85 1539.64 1810.85 1536.03 Q1810.85 1532.42 1808.51 1530.31 Q1806.17 1528.21 1802.17 1528.21 Q1800.29 1528.21 1798.42 1528.62 Q1796.56 1529.04 1794.62 1529.92 L1794.62 1512.56 Z" fill="#000000" fill-rule="evenodd" fill-opacity="1" /><path clip-path="url(#clip840)" d="M2262.9 1543.18 L2279.22 1543.18 L2279.22 1547.12 L2257.27 1547.12 L2257.27 1543.18 Q2259.93 1540.43 2264.52 1535.8 Q2269.12 1531.15 2270.3 1529.81 Q2272.55 1527.28 2273.43 1525.55 Q2274.33 1523.79 2274.33 1522.1 Q2274.33 1519.34 2272.39 1517.61 Q2270.47 1515.87 2267.36 1515.87 Q2265.16 1515.87 2262.71 1516.63 Q2260.28 1517.4 2257.5 1518.95 L2257.5 1514.23 Q2260.33 1513.09 2262.78 1512.51 Q2265.23 1511.93 2267.27 1511.93 Q2272.64 1511.93 2275.84 1514.62 Q2279.03 1517.31 2279.03 1521.8 Q2279.03 1523.93 2278.22 1525.85 Q2277.43 1527.74 2275.33 1530.34 Q2274.75 1531.01 2271.65 1534.23 Q2268.54 1537.42 2262.9 1543.18 Z" fill="#000000" fill-rule="evenodd" fill-opacity="1" /><path clip-path="url(#clip840)" d="M2289.03 1541.24 L2293.91 1541.24 L2293.91 1547.12 L2289.03 1547.12 L2289.03 1541.24 Z" fill="#000000" fill-rule="evenodd" fill-opacity="1" /><path clip-path="url(#clip840)" d="M2314.1 1515.64 Q2310.49 1515.64 2308.66 1519.2 Q2306.85 1522.75 2306.85 1529.87 Q2306.85 1536.98 2308.66 1540.55 Q2310.49 1544.09 2314.1 1544.09 Q2317.73 1544.09 2319.54 1540.55 Q2321.37 1536.98 2321.37 1529.87 Q2321.37 1522.75 2319.54 1519.2 Q2317.73 1515.64 2314.1 1515.64 M2314.1 1511.93 Q2319.91 1511.93 2322.96 1516.54 Q2326.04 1521.12 2326.04 1529.87 Q2326.04 1538.6 2322.96 1543.21 Q2319.91 1547.79 2314.1 1547.79 Q2308.29 1547.79 2305.21 1543.21 Q2302.15 1538.6 2302.15 1529.87 Q2302.15 1521.12 2305.21 1516.54 Q2308.29 1511.93 2314.1 1511.93 Z" fill="#000000" fill-rule="evenodd" fill-opacity="1" /><polyline clip-path="url(#clip842)" style="stroke:#000000; stroke-linecap:butt; stroke-linejoin:round; stroke-width:2; stroke-opacity:0.1; fill:none" points="
  193.936,1308.58 2352.76,1308.58 
  "/>
<polyline clip-path="url(#clip842)" style="stroke:#000000; stroke-linecap:butt; stroke-linejoin:round; stroke-width:2; stroke-opacity:0.1; fill:none" points="
  193.936,1081.96 2352.76,1081.96 
  "/>
<polyline clip-path="url(#clip842)" style="stroke:#000000; stroke-linecap:butt; stroke-linejoin:round; stroke-width:2; stroke-opacity:0.1; fill:none" points="
  193.936,855.352 2352.76,855.352 
  "/>
<polyline clip-path="url(#clip842)" style="stroke:#000000; stroke-linecap:butt; stroke-linejoin:round; stroke-width:2; stroke-opacity:0.1; fill:none" points="
  193.936,628.74 2352.76,628.74 
  "/>
<polyline clip-path="url(#clip842)" style="stroke:#000000; stroke-linecap:butt; stroke-linejoin:round; stroke-width:2; stroke-opacity:0.1; fill:none" points="
  193.936,402.128 2352.76,402.128 
  "/>
<polyline clip-path="url(#clip842)" style="stroke:#000000; stroke-linecap:butt; stroke-linejoin:round; stroke-width:2; stroke-opacity:0.1; fill:none" points="
  193.936,175.515 2352.76,175.515 
  "/>
<polyline clip-path="url(#clip840)" style="stroke:#000000; stroke-linecap:butt; stroke-linejoin:round; stroke-width:4; stroke-opacity:1; fill:none" points="
  193.936,1486.45 193.936,47.2441 
  "/>
<polyline clip-path="url(#clip840)" style="stroke:#000000; stroke-linecap:butt; stroke-linejoin:round; stroke-width:4; stroke-opacity:1; fill:none" points="
  193.936,1308.58 212.834,1308.58 
  "/>
<polyline clip-path="url(#clip840)" style="stroke:#000000; stroke-linecap:butt; stroke-linejoin:round; stroke-width:4; stroke-opacity:1; fill:none" points="
  193.936,1081.96 212.834,1081.96 
  "/>
<polyline clip-path="url(#clip840)" style="stroke:#000000; stroke-linecap:butt; stroke-linejoin:round; stroke-width:4; stroke-opacity:1; fill:none" points="
  193.936,855.352 212.834,855.352 
  "/>
<polyline clip-path="url(#clip840)" style="stroke:#000000; stroke-linecap:butt; stroke-linejoin:round; stroke-width:4; stroke-opacity:1; fill:none" points="
  193.936,628.74 212.834,628.74 
  "/>
<polyline clip-path="url(#clip840)" style="stroke:#000000; stroke-linecap:butt; stroke-linejoin:round; stroke-width:4; stroke-opacity:1; fill:none" points="
  193.936,402.128 212.834,402.128 
  "/>
<polyline clip-path="url(#clip840)" style="stroke:#000000; stroke-linecap:butt; stroke-linejoin:round; stroke-width:4; stroke-opacity:1; fill:none" points="
  193.936,175.515 212.834,175.515 
  "/>
<path clip-path="url(#clip840)" d="M50.9921 1309.03 L80.6679 1309.03 L80.6679 1312.96 L50.9921 1312.96 L50.9921 1309.03 Z" fill="#000000" fill-rule="evenodd" fill-opacity="1" /><path clip-path="url(#clip840)" d="M94.7882 1321.92 L111.108 1321.92 L111.108 1325.86 L89.1632 1325.86 L89.1632 1321.92 Q91.8252 1319.17 96.4085 1314.54 Q101.015 1309.88 102.196 1308.54 Q104.441 1306.02 105.321 1304.28 Q106.223 1302.52 106.223 1300.83 Q106.223 1298.08 104.279 1296.34 Q102.358 1294.61 99.2558 1294.61 Q97.0567 1294.61 94.603 1295.37 Q92.1725 1296.13 89.3947 1297.69 L89.3947 1292.96 Q92.2188 1291.83 94.6724 1291.25 Q97.1261 1290.67 99.1632 1290.67 Q104.534 1290.67 107.728 1293.36 Q110.922 1296.04 110.922 1300.53 Q110.922 1302.66 110.112 1304.58 Q109.325 1306.48 107.219 1309.07 Q106.64 1309.75 103.538 1312.96 Q100.436 1316.16 94.7882 1321.92 Z" fill="#000000" fill-rule="evenodd" fill-opacity="1" /><path clip-path="url(#clip840)" d="M120.922 1319.98 L125.807 1319.98 L125.807 1325.86 L120.922 1325.86 L120.922 1319.98 Z" fill="#000000" fill-rule="evenodd" fill-opacity="1" /><path clip-path="url(#clip840)" d="M145.992 1294.38 Q142.381 1294.38 140.552 1297.94 Q138.746 1301.48 138.746 1308.61 Q138.746 1315.72 140.552 1319.28 Q142.381 1322.82 145.992 1322.82 Q149.626 1322.82 151.431 1319.28 Q153.26 1315.72 153.26 1308.61 Q153.26 1301.48 151.431 1297.94 Q149.626 1294.38 145.992 1294.38 M145.992 1290.67 Q151.802 1290.67 154.857 1295.28 Q157.936 1299.86 157.936 1308.61 Q157.936 1317.34 154.857 1321.94 Q151.802 1326.53 145.992 1326.53 Q140.181 1326.53 137.103 1321.94 Q134.047 1317.34 134.047 1308.61 Q134.047 1299.86 137.103 1295.28 Q140.181 1290.67 145.992 1290.67 Z" fill="#000000" fill-rule="evenodd" fill-opacity="1" /><path clip-path="url(#clip840)" d="M51.9875 1082.42 L81.6633 1082.42 L81.6633 1086.35 L51.9875 1086.35 L51.9875 1082.42 Z" fill="#000000" fill-rule="evenodd" fill-opacity="1" /><path clip-path="url(#clip840)" d="M92.566 1095.31 L100.205 1095.31 L100.205 1068.94 L91.8947 1070.61 L91.8947 1066.35 L100.159 1064.68 L104.834 1064.68 L104.834 1095.31 L112.473 1095.31 L112.473 1099.24 L92.566 1099.24 L92.566 1095.31 Z" fill="#000000" fill-rule="evenodd" fill-opacity="1" /><path clip-path="url(#clip840)" d="M121.918 1093.36 L126.802 1093.36 L126.802 1099.24 L121.918 1099.24 L121.918 1093.36 Z" fill="#000000" fill-rule="evenodd" fill-opacity="1" /><path clip-path="url(#clip840)" d="M137.033 1064.68 L155.39 1064.68 L155.39 1068.62 L141.316 1068.62 L141.316 1077.09 Q142.334 1076.74 143.353 1076.58 Q144.371 1076.4 145.39 1076.4 Q151.177 1076.4 154.556 1079.57 Q157.936 1082.74 157.936 1088.16 Q157.936 1093.74 154.464 1096.84 Q150.992 1099.92 144.672 1099.92 Q142.496 1099.92 140.228 1099.55 Q137.982 1099.17 135.575 1098.43 L135.575 1093.74 Q137.658 1094.87 139.881 1095.42 Q142.103 1095.98 144.58 1095.98 Q148.584 1095.98 150.922 1093.87 Q153.26 1091.77 153.26 1088.16 Q153.26 1084.55 150.922 1082.44 Q148.584 1080.33 144.58 1080.33 Q142.705 1080.33 140.83 1080.75 Q138.978 1081.17 137.033 1082.05 L137.033 1064.68 Z" fill="#000000" fill-rule="evenodd" fill-opacity="1" /><path clip-path="url(#clip840)" d="M50.9921 855.804 L80.6679 855.804 L80.6679 859.739 L50.9921 859.739 L50.9921 855.804 Z" fill="#000000" fill-rule="evenodd" fill-opacity="1" /><path clip-path="url(#clip840)" d="M91.5706 868.697 L99.2095 868.697 L99.2095 842.331 L90.8993 843.998 L90.8993 839.739 L99.1632 838.072 L103.839 838.072 L103.839 868.697 L111.478 868.697 L111.478 872.632 L91.5706 872.632 L91.5706 868.697 Z" fill="#000000" fill-rule="evenodd" fill-opacity="1" /><path clip-path="url(#clip840)" d="M120.922 866.753 L125.807 866.753 L125.807 872.632 L120.922 872.632 L120.922 866.753 Z" fill="#000000" fill-rule="evenodd" fill-opacity="1" /><path clip-path="url(#clip840)" d="M145.992 841.151 Q142.381 841.151 140.552 844.716 Q138.746 848.257 138.746 855.387 Q138.746 862.493 140.552 866.058 Q142.381 869.6 145.992 869.6 Q149.626 869.6 151.431 866.058 Q153.26 862.493 153.26 855.387 Q153.26 848.257 151.431 844.716 Q149.626 841.151 145.992 841.151 M145.992 837.447 Q151.802 837.447 154.857 842.054 Q157.936 846.637 157.936 855.387 Q157.936 864.114 154.857 868.72 Q151.802 873.303 145.992 873.303 Q140.181 873.303 137.103 868.72 Q134.047 864.114 134.047 855.387 Q134.047 846.637 137.103 842.054 Q140.181 837.447 145.992 837.447 Z" fill="#000000" fill-rule="evenodd" fill-opacity="1" /><path clip-path="url(#clip840)" d="M51.9875 629.191 L81.6633 629.191 L81.6633 633.126 L51.9875 633.126 L51.9875 629.191 Z" fill="#000000" fill-rule="evenodd" fill-opacity="1" /><path clip-path="url(#clip840)" d="M101.756 614.539 Q98.1447 614.539 96.316 618.103 Q94.5104 621.645 94.5104 628.775 Q94.5104 635.881 96.316 639.446 Q98.1447 642.987 101.756 642.987 Q105.39 642.987 107.196 639.446 Q109.024 635.881 109.024 628.775 Q109.024 621.645 107.196 618.103 Q105.39 614.539 101.756 614.539 M101.756 610.835 Q107.566 610.835 110.621 615.441 Q113.7 620.025 113.7 628.775 Q113.7 637.501 110.621 642.108 Q107.566 646.691 101.756 646.691 Q95.9456 646.691 92.8669 642.108 Q89.8114 637.501 89.8114 628.775 Q89.8114 620.025 92.8669 615.441 Q95.9456 610.835 101.756 610.835 Z" fill="#000000" fill-rule="evenodd" fill-opacity="1" /><path clip-path="url(#clip840)" d="M121.918 640.14 L126.802 640.14 L126.802 646.02 L121.918 646.02 L121.918 640.14 Z" fill="#000000" fill-rule="evenodd" fill-opacity="1" /><path clip-path="url(#clip840)" d="M137.033 611.46 L155.39 611.46 L155.39 615.395 L141.316 615.395 L141.316 623.867 Q142.334 623.52 143.353 623.358 Q144.371 623.173 145.39 623.173 Q151.177 623.173 154.556 626.344 Q157.936 629.515 157.936 634.932 Q157.936 640.511 154.464 643.612 Q150.992 646.691 144.672 646.691 Q142.496 646.691 140.228 646.321 Q137.982 645.95 135.575 645.21 L135.575 640.511 Q137.658 641.645 139.881 642.2 Q142.103 642.756 144.58 642.756 Q148.584 642.756 150.922 640.65 Q153.26 638.543 153.26 634.932 Q153.26 631.321 150.922 629.214 Q148.584 627.108 144.58 627.108 Q142.705 627.108 140.83 627.525 Q138.978 627.941 137.033 628.821 L137.033 611.46 Z" fill="#000000" fill-rule="evenodd" fill-opacity="1" /><path clip-path="url(#clip840)" d="M100.76 387.926 Q97.1493 387.926 95.3206 391.491 Q93.515 395.033 93.515 402.162 Q93.515 409.269 95.3206 412.834 Q97.1493 416.375 100.76 416.375 Q104.395 416.375 106.2 412.834 Q108.029 409.269 108.029 402.162 Q108.029 395.033 106.2 391.491 Q104.395 387.926 100.76 387.926 M100.76 384.223 Q106.571 384.223 109.626 388.829 Q112.705 393.412 112.705 402.162 Q112.705 410.889 109.626 415.496 Q106.571 420.079 100.76 420.079 Q94.9502 420.079 91.8715 415.496 Q88.816 410.889 88.816 402.162 Q88.816 393.412 91.8715 388.829 Q94.9502 384.223 100.76 384.223 Z" fill="#000000" fill-rule="evenodd" fill-opacity="1" /><path clip-path="url(#clip840)" d="M120.922 413.528 L125.807 413.528 L125.807 419.408 L120.922 419.408 L120.922 413.528 Z" fill="#000000" fill-rule="evenodd" fill-opacity="1" /><path clip-path="url(#clip840)" d="M145.992 387.926 Q142.381 387.926 140.552 391.491 Q138.746 395.033 138.746 402.162 Q138.746 409.269 140.552 412.834 Q142.381 416.375 145.992 416.375 Q149.626 416.375 151.431 412.834 Q153.26 409.269 153.26 402.162 Q153.26 395.033 151.431 391.491 Q149.626 387.926 145.992 387.926 M145.992 384.223 Q151.802 384.223 154.857 388.829 Q157.936 393.412 157.936 402.162 Q157.936 410.889 154.857 415.496 Q151.802 420.079 145.992 420.079 Q140.181 420.079 137.103 415.496 Q134.047 410.889 134.047 402.162 Q134.047 393.412 137.103 388.829 Q140.181 384.223 145.992 384.223 Z" fill="#000000" fill-rule="evenodd" fill-opacity="1" /><path clip-path="url(#clip840)" d="M101.756 161.314 Q98.1447 161.314 96.316 164.879 Q94.5104 168.42 94.5104 175.55 Q94.5104 182.656 96.316 186.221 Q98.1447 189.763 101.756 189.763 Q105.39 189.763 107.196 186.221 Q109.024 182.656 109.024 175.55 Q109.024 168.42 107.196 164.879 Q105.39 161.314 101.756 161.314 M101.756 157.61 Q107.566 157.61 110.621 162.217 Q113.7 166.8 113.7 175.55 Q113.7 184.277 110.621 188.883 Q107.566 193.467 101.756 193.467 Q95.9456 193.467 92.8669 188.883 Q89.8114 184.277 89.8114 175.55 Q89.8114 166.8 92.8669 162.217 Q95.9456 157.61 101.756 157.61 Z" fill="#000000" fill-rule="evenodd" fill-opacity="1" /><path clip-path="url(#clip840)" d="M121.918 186.916 L126.802 186.916 L126.802 192.795 L121.918 192.795 L121.918 186.916 Z" fill="#000000" fill-rule="evenodd" fill-opacity="1" /><path clip-path="url(#clip840)" d="M137.033 158.235 L155.39 158.235 L155.39 162.17 L141.316 162.17 L141.316 170.643 Q142.334 170.295 143.353 170.133 Q144.371 169.948 145.39 169.948 Q151.177 169.948 154.556 173.12 Q157.936 176.291 157.936 181.707 Q157.936 187.286 154.464 190.388 Q150.992 193.467 144.672 193.467 Q142.496 193.467 140.228 193.096 Q137.982 192.726 135.575 191.985 L135.575 187.286 Q137.658 188.42 139.881 188.976 Q142.103 189.531 144.58 189.531 Q148.584 189.531 150.922 187.425 Q153.26 185.319 153.26 181.707 Q153.26 178.096 150.922 175.99 Q148.584 173.883 144.58 173.883 Q142.705 173.883 140.83 174.3 Q138.978 174.717 137.033 175.596 L137.033 158.235 Z" fill="#000000" fill-rule="evenodd" fill-opacity="1" /><polyline clip-path="url(#clip842)" style="stroke:#009af9; stroke-linecap:butt; stroke-linejoin:round; stroke-width:4; stroke-opacity:1; fill:none" points="
  356.866,1445.72 458.697,1131.56 560.528,947.798 662.359,817.413 764.19,716.279 866.021,633.646 967.853,563.781 1069.68,503.262 1171.51,449.88 1273.35,402.128 
  1375.18,358.931 1477.01,319.495 1578.84,283.218 1680.67,249.63 1782.5,218.361 1884.33,189.11 1986.16,161.634 2087.99,135.728 2189.83,111.224 2291.66,87.9763 
  
  "/>
<path clip-path="url(#clip840)" d="
M1988.5 198.898 L2280.8 198.898 L2280.8 95.2176 L1988.5 95.2176  Z
  " fill="#ffffff" fill-rule="evenodd" fill-opacity="1"/>
<polyline clip-path="url(#clip840)" style="stroke:#000000; stroke-linecap:butt; stroke-linejoin:round; stroke-width:4; stroke-opacity:1; fill:none" points="
  1988.5,198.898 2280.8,198.898 2280.8,95.2176 1988.5,95.2176 1988.5,198.898 
  "/>
<polyline clip-path="url(#clip840)" style="stroke:#009af9; stroke-linecap:butt; stroke-linejoin:round; stroke-width:4; stroke-opacity:1; fill:none" points="
  2012.48,147.058 2156.4,147.058 
  "/>
<path clip-path="url(#clip840)" d="M2194.23 166.745 Q2192.43 171.375 2190.72 172.787 Q2189 174.199 2186.13 174.199 L2182.73 174.199 L2182.73 170.634 L2185.23 170.634 Q2186.99 170.634 2187.96 169.8 Q2188.93 168.967 2190.11 165.865 L2190.88 163.921 L2180.39 138.412 L2184.91 138.412 L2193.01 158.689 L2201.11 138.412 L2205.62 138.412 L2194.23 166.745 Z" fill="#000000" fill-rule="evenodd" fill-opacity="1" /><path clip-path="url(#clip840)" d="M2212.91 160.402 L2220.55 160.402 L2220.55 134.037 L2212.24 135.703 L2212.24 131.444 L2220.51 129.778 L2225.18 129.778 L2225.18 160.402 L2232.82 160.402 L2232.82 164.338 L2212.91 164.338 L2212.91 160.402 Z" fill="#000000" fill-rule="evenodd" fill-opacity="1" /></svg>
