<?xml version="1.0" encoding="utf-8"?>
<svg xmlns="http://www.w3.org/2000/svg" xmlns:xlink="http://www.w3.org/1999/xlink" width="400" height="300" viewBox="0 0 1600 1200">
<defs>
  <clipPath id="clip340">
    <rect x="0" y="0" width="1600" height="1200"/>
  </clipPath>
</defs>
<path clip-path="url(#clip340)" d="
M0 1200 L1600 1200 L1600 0 L0 0  Z
  " fill="#ffffff" fill-rule="evenodd" fill-opacity="1"/>
<defs>
  <clipPath id="clip341">
    <rect x="320" y="0" width="1121" height="1121"/>
  </clipPath>
</defs>
<path clip-path="url(#clip340)" d="
M201.904 1016.92 L1552.76 1016.92 L1552.76 131.032 L201.904 131.032  Z
  " fill="#ffffff" fill-rule="evenodd" fill-opacity="1"/>
<defs>
  <clipPath id="clip342">
    <rect x="201" y="131" width="1352" height="887"/>
  </clipPath>
</defs>
<polyline clip-path="url(#clip342)" style="stroke:#000000; stroke-linecap:butt; stroke-linejoin:round; stroke-width:2; stroke-opacity:0.1; fill:none" points="
  218.535,1016.92 218.535,131.032 
  "/>
<polyline clip-path="url(#clip342)" style="stroke:#000000; stroke-linecap:butt; stroke-linejoin:round; stroke-width:2; stroke-opacity:0.1; fill:none" points="
  650.532,1016.92 650.532,131.032 
  "/>
<polyline clip-path="url(#clip342)" style="stroke:#000000; stroke-linecap:butt; stroke-linejoin:round; stroke-width:2; stroke-opacity:0.1; fill:none" points="
  1082.53,1016.92 1082.53,131.032 
  "/>
<polyline clip-path="url(#clip342)" style="stroke:#000000; stroke-linecap:butt; stroke-linejoin:round; stroke-width:2; stroke-opacity:0.1; fill:none" points="
  1514.52,1016.92 1514.52,131.032 
  "/>
<polyline clip-path="url(#clip340)" style="stroke:#000000; stroke-linecap:butt; stroke-linejoin:round; stroke-width:4; stroke-opacity:1; fill:none" points="
  201.904,1016.92 1552.76,1016.92 
  "/>
<polyline clip-path="url(#clip340)" style="stroke:#000000; stroke-linecap:butt; stroke-linejoin:round; stroke-width:4; stroke-opacity:1; fill:none" points="
  218.535,1016.92 218.535,998.022 
  "/>
<polyline clip-path="url(#clip340)" style="stroke:#000000; stroke-linecap:butt; stroke-linejoin:round; stroke-width:4; stroke-opacity:1; fill:none" points="
  650.532,1016.92 650.532,998.022 
  "/>
<polyline clip-path="url(#clip340)" style="stroke:#000000; stroke-linecap:butt; stroke-linejoin:round; stroke-width:4; stroke-opacity:1; fill:none" points="
  1082.53,1016.92 1082.53,998.022 
  "/>
<polyline clip-path="url(#clip340)" style="stroke:#000000; stroke-linecap:butt; stroke-linejoin:round; stroke-width:4; stroke-opacity:1; fill:none" points="
  1514.52,1016.92 1514.52,998.022 
  "/>
<path clip-path="url(#clip340)" d="M218.535 1041.44 Q214.924 1041.44 213.096 1045 Q211.29 1048.54 211.29 1055.67 Q211.29 1062.78 213.096 1066.35 Q214.924 1069.89 218.535 1069.89 Q222.17 1069.89 223.975 1066.35 Q225.804 1062.78 225.804 1055.67 Q225.804 1048.54 223.975 1045 Q222.17 1041.44 218.535 1041.44 M218.535 1037.73 Q224.346 1037.73 227.401 1042.34 Q230.48 1046.92 230.48 1055.67 Q230.48 1064.4 227.401 1069.01 Q224.346 1073.59 218.535 1073.59 Q212.725 1073.59 209.647 1069.01 Q206.591 1064.4 206.591 1055.67 Q206.591 1046.92 209.647 1042.34 Q212.725 1037.73 218.535 1037.73 Z" fill="#000000" fill-rule="evenodd" fill-opacity="1" /><path clip-path="url(#clip340)" d="M640.914 1068.98 L648.553 1068.98 L648.553 1042.62 L640.242 1044.29 L640.242 1040.03 L648.506 1038.36 L653.182 1038.36 L653.182 1068.98 L660.821 1068.98 L660.821 1072.92 L640.914 1072.92 L640.914 1068.98 Z" fill="#000000" fill-rule="evenodd" fill-opacity="1" /><path clip-path="url(#clip340)" d="M1077.18 1068.98 L1093.5 1068.98 L1093.5 1072.92 L1071.56 1072.92 L1071.56 1068.98 Q1074.22 1066.23 1078.8 1061.6 Q1083.41 1056.95 1084.59 1055.61 Q1086.83 1053.08 1087.71 1051.35 Q1088.62 1049.59 1088.62 1047.9 Q1088.62 1045.14 1086.67 1043.41 Q1084.75 1041.67 1081.65 1041.67 Q1079.45 1041.67 1077 1042.43 Q1074.57 1043.2 1071.79 1044.75 L1071.79 1040.03 Q1074.61 1038.89 1077.07 1038.31 Q1079.52 1037.73 1081.56 1037.73 Q1086.93 1037.73 1090.12 1040.42 Q1093.31 1043.11 1093.31 1047.6 Q1093.31 1049.73 1092.5 1051.65 Q1091.72 1053.54 1089.61 1056.14 Q1089.03 1056.81 1085.93 1060.03 Q1082.83 1063.22 1077.18 1068.98 Z" fill="#000000" fill-rule="evenodd" fill-opacity="1" /><path clip-path="url(#clip340)" d="M1518.77 1054.29 Q1522.13 1055 1524 1057.27 Q1525.9 1059.54 1525.9 1062.87 Q1525.9 1067.99 1522.38 1070.79 Q1518.86 1073.59 1512.38 1073.59 Q1510.21 1073.59 1507.89 1073.15 Q1505.6 1072.73 1503.15 1071.88 L1503.15 1067.36 Q1505.09 1068.5 1507.41 1069.08 Q1509.72 1069.66 1512.24 1069.66 Q1516.64 1069.66 1518.93 1067.92 Q1521.25 1066.18 1521.25 1062.87 Q1521.25 1059.82 1519.1 1058.11 Q1516.97 1056.37 1513.15 1056.37 L1509.12 1056.37 L1509.12 1052.53 L1513.33 1052.53 Q1516.78 1052.53 1518.61 1051.16 Q1520.44 1049.77 1520.44 1047.18 Q1520.44 1044.52 1518.54 1043.11 Q1516.67 1041.67 1513.15 1041.67 Q1511.23 1041.67 1509.03 1042.09 Q1506.83 1042.5 1504.19 1043.38 L1504.19 1039.22 Q1506.85 1038.48 1509.17 1038.11 Q1511.5 1037.73 1513.56 1037.73 Q1518.89 1037.73 1521.99 1040.17 Q1525.09 1042.57 1525.09 1046.69 Q1525.09 1049.56 1523.45 1051.55 Q1521.8 1053.52 1518.77 1054.29 Z" fill="#000000" fill-rule="evenodd" fill-opacity="1" /><path clip-path="url(#clip340)" d="M891.191 1119.8 Q890.013 1119.39 888.836 1119.07 Q885.685 1118.24 882.311 1118.24 Q876.486 1118.24 873.24 1121.39 Q870.216 1124.32 869.643 1129.7 L891.191 1129.7 L891.191 1134.28 L869.643 1134.28 Q870.216 1139.66 873.24 1142.59 Q876.486 1145.74 882.311 1145.74 Q886.385 1145.74 888.836 1144.91 L891.191 1144.12 L891.191 1149.43 L888.677 1150.01 Q885.366 1150.71 881.961 1150.71 Q873.431 1150.71 868.465 1145.74 Q863.468 1140.78 863.468 1131.99 Q863.468 1123.21 868.465 1118.24 Q873.431 1113.28 881.961 1113.28 Q885.175 1113.28 888.677 1113.98 Q889.95 1114.23 891.191 1114.61 L891.191 1119.8 Z" fill="#000000" fill-rule="evenodd" fill-opacity="1" /><polyline clip-path="url(#clip342)" style="stroke:#000000; stroke-linecap:butt; stroke-linejoin:round; stroke-width:2; stroke-opacity:0.1; fill:none" points="
  201.904,995.293 1552.76,995.293 
  "/>
<polyline clip-path="url(#clip342)" style="stroke:#000000; stroke-linecap:butt; stroke-linejoin:round; stroke-width:2; stroke-opacity:0.1; fill:none" points="
  201.904,717.902 1552.76,717.902 
  "/>
<polyline clip-path="url(#clip342)" style="stroke:#000000; stroke-linecap:butt; stroke-linejoin:round; stroke-width:2; stroke-opacity:0.1; fill:none" points="
  201.904,440.51 1552.76,440.51 
  "/>
<polyline clip-path="url(#clip342)" style="stroke:#000000; stroke-linecap:butt; stroke-linejoin:round; stroke-width:2; stroke-opacity:0.1; fill:none" points="
  201.904,163.118 1552.76,163.118 
  "/>
<polyline clip-path="url(#clip340)" style="stroke:#000000; stroke-linecap:butt; stroke-linejoin:round; stroke-width:4; stroke-opacity:1; fill:none" points="
  201.904,1016.92 201.904,131.032 
  "/>
<polyline clip-path="url(#clip340)" style="stroke:#000000; stroke-linecap:butt; stroke-linejoin:round; stroke-width:4; stroke-opacity:1; fill:none" points="
  201.904,995.293 220.801,995.293 
  "/>
<polyline clip-path="url(#clip340)" style="stroke:#000000; stroke-linecap:butt; stroke-linejoin:round; stroke-width:4; stroke-opacity:1; fill:none" points="
  201.904,717.902 220.801,717.902 
  "/>
<polyline clip-path="url(#clip340)" style="stroke:#000000; stroke-linecap:butt; stroke-linejoin:round; stroke-width:4; stroke-opacity:1; fill:none" points="
  201.904,440.51 220.801,440.51 
  "/>
<polyline clip-path="url(#clip340)" style="stroke:#000000; stroke-linecap:butt; stroke-linejoin:round; stroke-width:4; stroke-opacity:1; fill:none" points="
  201.904,163.118 220.801,163.118 
  "/>
<path clip-path="url(#clip340)" d="M165.959 981.092 Q162.348 981.092 160.519 984.657 Q158.714 988.199 158.714 995.328 Q158.714 1002.43 160.519 1006 Q162.348 1009.54 165.959 1009.54 Q169.593 1009.54 171.399 1006 Q173.228 1002.43 173.228 995.328 Q173.228 988.199 171.399 984.657 Q169.593 981.092 165.959 981.092 M165.959 977.388 Q171.769 977.388 174.825 981.995 Q177.904 986.578 177.904 995.328 Q177.904 1004.06 174.825 1008.66 Q171.769 1013.24 165.959 1013.24 Q160.149 1013.24 157.07 1008.66 Q154.015 1004.06 154.015 995.328 Q154.015 986.578 157.07 981.995 Q160.149 977.388 165.959 977.388 Z" fill="#000000" fill-rule="evenodd" fill-opacity="1" /><path clip-path="url(#clip340)" d="M126.608 731.247 L134.246 731.247 L134.246 704.881 L125.936 706.548 L125.936 702.288 L134.2 700.622 L138.876 700.622 L138.876 731.247 L146.515 731.247 L146.515 735.182 L126.608 735.182 L126.608 731.247 Z" fill="#000000" fill-rule="evenodd" fill-opacity="1" /><path clip-path="url(#clip340)" d="M165.959 703.7 Q162.348 703.7 160.519 707.265 Q158.714 710.807 158.714 717.936 Q158.714 725.043 160.519 728.608 Q162.348 732.149 165.959 732.149 Q169.593 732.149 171.399 728.608 Q173.228 725.043 173.228 717.936 Q173.228 710.807 171.399 707.265 Q169.593 703.7 165.959 703.7 M165.959 699.997 Q171.769 699.997 174.825 704.603 Q177.904 709.186 177.904 717.936 Q177.904 726.663 174.825 731.27 Q171.769 735.853 165.959 735.853 Q160.149 735.853 157.07 731.27 Q154.015 726.663 154.015 717.936 Q154.015 709.186 157.07 704.603 Q160.149 699.997 165.959 699.997 Z" fill="#000000" fill-rule="evenodd" fill-opacity="1" /><path clip-path="url(#clip340)" d="M129.825 453.855 L146.144 453.855 L146.144 457.79 L124.2 457.79 L124.2 453.855 Q126.862 451.1 131.445 446.47 Q136.052 441.818 137.232 440.475 Q139.478 437.952 140.357 436.216 Q141.26 434.457 141.26 432.767 Q141.26 430.012 139.316 428.276 Q137.395 426.54 134.293 426.54 Q132.094 426.54 129.64 427.304 Q127.209 428.068 124.432 429.619 L124.432 424.897 Q127.256 423.762 129.709 423.184 Q132.163 422.605 134.2 422.605 Q139.57 422.605 142.765 425.29 Q145.959 427.975 145.959 432.466 Q145.959 434.596 145.149 436.517 Q144.362 438.415 142.256 441.008 Q141.677 441.679 138.575 444.896 Q135.473 448.091 129.825 453.855 Z" fill="#000000" fill-rule="evenodd" fill-opacity="1" /><path clip-path="url(#clip340)" d="M165.959 426.309 Q162.348 426.309 160.519 429.873 Q158.714 433.415 158.714 440.545 Q158.714 447.651 160.519 451.216 Q162.348 454.757 165.959 454.757 Q169.593 454.757 171.399 451.216 Q173.228 447.651 173.228 440.545 Q173.228 433.415 171.399 429.873 Q169.593 426.309 165.959 426.309 M165.959 422.605 Q171.769 422.605 174.825 427.211 Q177.904 431.795 177.904 440.545 Q177.904 449.271 174.825 453.878 Q171.769 458.461 165.959 458.461 Q160.149 458.461 157.07 453.878 Q154.015 449.271 154.015 440.545 Q154.015 431.795 157.07 427.211 Q160.149 422.605 165.959 422.605 Z" fill="#000000" fill-rule="evenodd" fill-opacity="1" /><path clip-path="url(#clip340)" d="M139.964 161.764 Q143.32 162.481 145.195 164.75 Q147.094 167.019 147.094 170.352 Q147.094 175.468 143.575 178.268 Q140.057 181.069 133.575 181.069 Q131.399 181.069 129.084 180.63 Q126.793 180.213 124.339 179.356 L124.339 174.843 Q126.283 175.977 128.598 176.555 Q130.913 177.134 133.436 177.134 Q137.834 177.134 140.126 175.398 Q142.441 173.662 142.441 170.352 Q142.441 167.296 140.288 165.583 Q138.158 163.847 134.339 163.847 L130.311 163.847 L130.311 160.005 L134.524 160.005 Q137.973 160.005 139.802 158.639 Q141.631 157.25 141.631 154.657 Q141.631 151.995 139.732 150.583 Q137.857 149.148 134.339 149.148 Q132.418 149.148 130.219 149.565 Q128.02 149.982 125.381 150.861 L125.381 146.695 Q128.043 145.954 130.358 145.583 Q132.695 145.213 134.756 145.213 Q140.08 145.213 143.182 147.644 Q146.283 150.051 146.283 154.171 Q146.283 157.042 144.64 159.032 Q142.996 161 139.964 161.764 Z" fill="#000000" fill-rule="evenodd" fill-opacity="1" /><path clip-path="url(#clip340)" d="M165.959 148.917 Q162.348 148.917 160.519 152.482 Q158.714 156.023 158.714 163.153 Q158.714 170.259 160.519 173.824 Q162.348 177.366 165.959 177.366 Q169.593 177.366 171.399 173.824 Q173.228 170.259 173.228 163.153 Q173.228 156.023 171.399 152.482 Q169.593 148.917 165.959 148.917 M165.959 145.213 Q171.769 145.213 174.825 149.82 Q177.904 154.403 177.904 163.153 Q177.904 171.88 174.825 176.486 Q171.769 181.069 165.959 181.069 Q160.149 181.069 157.07 176.486 Q154.015 171.88 154.015 163.153 Q154.015 154.403 157.07 149.82 Q160.149 145.213 165.959 145.213 Z" fill="#000000" fill-rule="evenodd" fill-opacity="1" /><path clip-path="url(#clip340)" d="M63.2504 889.954 L80.6606 889.954 L80.6606 879.641 Q80.6606 874.453 78.5281 871.971 Q76.3638 869.456 71.9396 869.456 Q67.4836 869.456 65.3829 871.971 Q63.2504 874.453 63.2504 879.641 L63.2504 889.954 M43.7077 889.954 L58.0305 889.954 L58.0305 880.437 Q58.0305 875.726 56.28 873.435 Q54.4976 871.111 50.8691 871.111 Q47.2725 871.111 45.4901 873.435 Q43.7077 875.726 43.7077 880.437 L43.7077 889.954 M38.4242 896.383 L38.4242 879.96 Q38.4242 872.607 41.4797 868.629 Q44.5352 864.65 50.1689 864.65 Q54.5294 864.65 57.1075 866.687 Q59.6856 868.724 60.3222 872.671 Q61.3407 867.928 64.5872 865.318 Q67.8019 862.677 72.6398 862.677 Q79.0055 862.677 82.4748 867.005 Q85.9442 871.334 85.9442 879.323 L85.9442 896.383 L38.4242 896.383 Z" fill="#000000" fill-rule="evenodd" fill-opacity="1" /><path clip-path="url(#clip340)" d="M54.4021 838.105 Q54.4021 842.816 58.0942 845.553 Q61.7545 848.29 68.152 848.29 Q74.5495 848.29 78.2417 845.585 Q81.9019 842.848 81.9019 838.105 Q81.9019 833.426 78.2098 830.689 Q74.5177 827.952 68.152 827.952 Q61.8181 827.952 58.126 830.689 Q54.4021 833.426 54.4021 838.105 M49.4368 838.105 Q49.4368 830.466 54.4021 826.106 Q59.3673 821.745 68.152 821.745 Q76.9049 821.745 81.9019 826.106 Q86.8672 830.466 86.8672 838.105 Q86.8672 845.776 81.9019 850.136 Q76.9049 854.465 68.152 854.465 Q59.3673 854.465 54.4021 850.136 Q49.4368 845.776 49.4368 838.105 Z" fill="#000000" fill-rule="evenodd" fill-opacity="1" /><path clip-path="url(#clip340)" d="M40.1747 806.245 L50.2962 806.245 L50.2962 794.182 L54.8477 794.182 L54.8477 806.245 L74.1994 806.245 Q78.5599 806.245 79.8013 805.067 Q81.0426 803.858 81.0426 800.197 L81.0426 794.182 L85.9442 794.182 L85.9442 800.197 Q85.9442 806.977 83.4297 809.555 Q80.8834 812.133 74.1994 812.133 L54.8477 812.133 L54.8477 816.43 L50.2962 816.43 L50.2962 812.133 L40.1747 812.133 L40.1747 806.245 Z" fill="#000000" fill-rule="evenodd" fill-opacity="1" /><path clip-path="url(#clip340)" d="M40.1747 780.686 L50.2962 780.686 L50.2962 768.623 L54.8477 768.623 L54.8477 780.686 L74.1994 780.686 Q78.5599 780.686 79.8013 779.509 Q81.0426 778.299 81.0426 774.639 L81.0426 768.623 L85.9442 768.623 L85.9442 774.639 Q85.9442 781.418 83.4297 783.997 Q80.8834 786.575 74.1994 786.575 L54.8477 786.575 L54.8477 790.872 L50.2962 790.872 L50.2962 786.575 L40.1747 786.575 L40.1747 780.686 Z" fill="#000000" fill-rule="evenodd" fill-opacity="1" /><path clip-path="url(#clip340)" d="M36.419 760.921 L36.419 755.064 L85.9442 755.064 L85.9442 760.921 L36.419 760.921 Z" fill="#000000" fill-rule="evenodd" fill-opacity="1" /><path clip-path="url(#clip340)" d="M66.6561 712.319 L69.5206 712.319 L69.5206 739.246 Q75.5681 738.864 78.7509 735.617 Q81.9019 732.339 81.9019 726.514 Q81.9019 723.14 81.0744 719.989 Q80.2469 716.807 78.5918 713.687 L84.1299 713.687 Q85.4667 716.838 86.167 720.149 Q86.8672 723.459 86.8672 726.864 Q86.8672 735.394 81.9019 740.391 Q76.9367 745.357 68.4703 745.357 Q59.7174 745.357 54.5931 740.646 Q49.4368 735.904 49.4368 727.883 Q49.4368 720.69 54.0838 716.52 Q58.6989 712.319 66.6561 712.319 M64.9373 718.175 Q60.1312 718.239 57.2666 720.881 Q54.4021 723.491 54.4021 727.819 Q54.4021 732.721 57.1712 735.681 Q59.9402 738.609 64.9692 739.055 L64.9373 718.175 Z" fill="#000000" fill-rule="evenodd" fill-opacity="1" /><path clip-path="url(#clip340)" d="M64.4281 673.074 L85.9442 673.074 L85.9442 678.931 L64.619 678.931 Q59.5583 678.931 57.0438 680.904 Q54.5294 682.877 54.5294 686.824 Q54.5294 691.566 57.5531 694.304 Q60.5768 697.041 65.7967 697.041 L85.9442 697.041 L85.9442 702.929 L50.2962 702.929 L50.2962 697.041 L55.8344 697.041 Q52.6197 694.94 51.0283 692.108 Q49.4368 689.243 49.4368 685.519 Q49.4368 679.376 53.2563 676.225 Q57.0438 673.074 64.4281 673.074 Z" fill="#000000" fill-rule="evenodd" fill-opacity="1" /><path clip-path="url(#clip340)" d="M66.6561 630.901 L69.5206 630.901 L69.5206 657.828 Q75.5681 657.446 78.7509 654.2 Q81.9019 650.921 81.9019 645.097 Q81.9019 641.723 81.0744 638.572 Q80.2469 635.389 78.5918 632.27 L84.1299 632.27 Q85.4667 635.421 86.167 638.731 Q86.8672 642.041 86.8672 645.447 Q86.8672 653.977 81.9019 658.974 Q76.9367 663.939 68.4703 663.939 Q59.7174 663.939 54.5931 659.229 Q49.4368 654.486 49.4368 646.465 Q49.4368 639.272 54.0838 635.103 Q58.6989 630.901 66.6561 630.901 M64.9373 636.758 Q60.1312 636.821 57.2666 639.463 Q54.4021 642.073 54.4021 646.402 Q54.4021 651.303 57.1712 654.263 Q59.9402 657.192 64.9692 657.637 L64.9373 636.758 Z" fill="#000000" fill-rule="evenodd" fill-opacity="1" /><path clip-path="url(#clip340)" d="M51.6648 595.635 L57.1393 595.635 Q55.7707 598.118 55.1023 600.632 Q54.4021 603.115 54.4021 605.661 Q54.4021 611.359 58.0305 614.51 Q61.6272 617.661 68.152 617.661 Q74.6769 617.661 78.3053 614.51 Q81.9019 611.359 81.9019 605.661 Q81.9019 603.115 81.2335 600.632 Q80.5333 598.118 79.1647 595.635 L84.5755 595.635 Q85.7214 598.086 86.2943 600.728 Q86.8672 603.338 86.8672 606.298 Q86.8672 614.35 81.8064 619.093 Q76.7457 623.835 68.152 623.835 Q59.431 623.835 54.4339 619.061 Q49.4368 614.255 49.4368 605.916 Q49.4368 603.21 50.0097 600.632 Q50.5508 598.054 51.6648 595.635 Z" fill="#000000" fill-rule="evenodd" fill-opacity="1" /><path clip-path="url(#clip340)" d="M36.419 585.673 L36.419 579.785 L65.6694 579.785 L50.2962 562.311 L50.2962 554.831 L66.9744 573.737 L85.9442 554.035 L85.9442 561.674 L68.5339 579.785 L85.9442 579.785 L85.9442 585.673 L36.419 585.673 Z" fill="#000000" fill-rule="evenodd" fill-opacity="1" /><path clip-path="url(#clip340)" d="M43.7077 520.297 L80.6606 520.297 L80.6606 512.531 Q80.6606 502.696 76.2046 498.145 Q71.7486 493.561 62.1364 493.561 Q52.5879 493.561 48.1637 498.145 Q43.7077 502.696 43.7077 512.531 L43.7077 520.297 M38.4242 526.727 L38.4242 513.518 Q38.4242 499.704 44.1851 493.243 Q49.9143 486.782 62.1364 486.782 Q74.4222 486.782 80.1832 493.275 Q85.9442 499.768 85.9442 513.518 L85.9442 526.727 L38.4242 526.727 Z" fill="#000000" fill-rule="evenodd" fill-opacity="1" /><path clip-path="url(#clip340)" d="M50.2962 476.788 L50.2962 470.931 L85.9442 470.931 L85.9442 476.788 L50.2962 476.788 M36.419 476.788 L36.419 470.931 L43.835 470.931 L43.835 476.788 L36.419 476.788 Z" fill="#000000" fill-rule="evenodd" fill-opacity="1" /><path clip-path="url(#clip340)" d="M51.3465 435.952 L56.8847 435.952 Q55.6116 438.434 54.975 441.108 Q54.3384 443.781 54.3384 446.646 Q54.3384 451.006 55.6752 453.203 Q57.012 455.367 59.6856 455.367 Q61.7226 455.367 62.9003 453.807 Q64.0461 452.248 65.0965 447.537 L65.5421 445.532 Q66.8789 439.294 69.3297 436.684 Q71.7486 434.042 76.1091 434.042 Q81.0744 434.042 83.9708 437.989 Q86.8672 441.903 86.8672 448.778 Q86.8672 451.643 86.2943 454.762 Q85.7532 457.85 84.6392 461.287 L78.5918 461.287 Q80.2787 458.041 81.138 454.89 Q81.9656 451.739 81.9656 448.651 Q81.9656 444.513 80.5651 442.285 Q79.1329 440.057 76.5547 440.057 Q74.1676 440.057 72.8945 441.681 Q71.6213 443.272 70.4437 448.715 L69.9662 450.752 Q68.8204 456.194 66.4651 458.613 Q64.078 461.032 59.9402 461.032 Q54.9113 461.032 52.1741 457.468 Q49.4368 453.903 49.4368 447.346 Q49.4368 444.1 49.9143 441.235 Q50.3917 438.371 51.3465 435.952 Z" fill="#000000" fill-rule="evenodd" fill-opacity="1" /><path clip-path="url(#clip340)" d="M40.1747 418.923 L50.2962 418.923 L50.2962 406.86 L54.8477 406.86 L54.8477 418.923 L74.1994 418.923 Q78.5599 418.923 79.8013 417.746 Q81.0426 416.536 81.0426 412.876 L81.0426 406.86 L85.9442 406.86 L85.9442 412.876 Q85.9442 419.655 83.4297 422.233 Q80.8834 424.812 74.1994 424.812 L54.8477 424.812 L54.8477 429.108 L50.2962 429.108 L50.2962 424.812 L40.1747 424.812 L40.1747 418.923 Z" fill="#000000" fill-rule="evenodd" fill-opacity="1" /><path clip-path="url(#clip340)" d="M68.0247 382.957 Q68.0247 390.055 69.6479 392.792 Q71.2712 395.529 75.1861 395.529 Q78.3053 395.529 80.1514 393.492 Q81.9656 391.423 81.9656 387.89 Q81.9656 383.021 78.5281 380.092 Q75.0588 377.132 69.3297 377.132 L68.0247 377.132 L68.0247 382.957 M65.6057 371.276 L85.9442 371.276 L85.9442 377.132 L80.5333 377.132 Q83.7798 379.138 85.3394 382.13 Q86.8672 385.121 86.8672 389.45 Q86.8672 394.925 83.8116 398.171 Q80.7243 401.386 75.5681 401.386 Q69.5525 401.386 66.4969 397.375 Q63.4414 393.333 63.4414 385.344 L63.4414 377.132 L62.8685 377.132 Q58.8262 377.132 56.6301 379.806 Q54.4021 382.448 54.4021 387.254 Q54.4021 390.309 55.1341 393.206 Q55.8662 396.102 57.3303 398.776 L51.9195 398.776 Q50.6781 395.561 50.0734 392.537 Q49.4368 389.514 49.4368 386.649 Q49.4368 378.915 53.4472 375.095 Q57.4576 371.276 65.6057 371.276 Z" fill="#000000" fill-rule="evenodd" fill-opacity="1" /><path clip-path="url(#clip340)" d="M64.4281 329.581 L85.9442 329.581 L85.9442 335.437 L64.619 335.437 Q59.5583 335.437 57.0438 337.41 Q54.5294 339.384 54.5294 343.331 Q54.5294 348.073 57.5531 350.81 Q60.5768 353.547 65.7967 353.547 L85.9442 353.547 L85.9442 359.436 L50.2962 359.436 L50.2962 353.547 L55.8344 353.547 Q52.6197 351.447 51.0283 348.614 Q49.4368 345.749 49.4368 342.026 Q49.4368 335.883 53.2563 332.732 Q57.0438 329.581 64.4281 329.581 Z" fill="#000000" fill-rule="evenodd" fill-opacity="1" /><path clip-path="url(#clip340)" d="M51.6648 292.246 L57.1393 292.246 Q55.7707 294.728 55.1023 297.243 Q54.4021 299.725 54.4021 302.272 Q54.4021 307.969 58.0305 311.12 Q61.6272 314.271 68.152 314.271 Q74.6769 314.271 78.3053 311.12 Q81.9019 307.969 81.9019 302.272 Q81.9019 299.725 81.2335 297.243 Q80.5333 294.728 79.1647 292.246 L84.5755 292.246 Q85.7214 294.697 86.2943 297.338 Q86.8672 299.948 86.8672 302.908 Q86.8672 310.961 81.8064 315.703 Q76.7457 320.446 68.152 320.446 Q59.431 320.446 54.4339 315.672 Q49.4368 310.865 49.4368 302.526 Q49.4368 299.821 50.0097 297.243 Q50.5508 294.665 51.6648 292.246 Z" fill="#000000" fill-rule="evenodd" fill-opacity="1" /><path clip-path="url(#clip340)" d="M66.6561 251.569 L69.5206 251.569 L69.5206 278.496 Q75.5681 278.114 78.7509 274.867 Q81.9019 271.589 81.9019 265.764 Q81.9019 262.391 81.0744 259.24 Q80.2469 256.057 78.5918 252.937 L84.1299 252.937 Q85.4667 256.089 86.167 259.399 Q86.8672 262.709 86.8672 266.114 Q86.8672 274.645 81.9019 279.642 Q76.9367 284.607 68.4703 284.607 Q59.7174 284.607 54.5931 279.896 Q49.4368 275.154 49.4368 267.133 Q49.4368 259.94 54.0838 255.77 Q58.6989 251.569 66.6561 251.569 M64.9373 257.425 Q60.1312 257.489 57.2666 260.131 Q54.4021 262.741 54.4021 267.069 Q54.4021 271.971 57.1712 274.931 Q59.9402 277.859 64.9692 278.305 L64.9373 257.425 Z" fill="#000000" fill-rule="evenodd" fill-opacity="1" /><path clip-path="url(#clip340)" d="M482.974 12.096 L521.215 12.096 L521.215 18.9825 L491.157 18.9825 L491.157 36.8875 L519.959 36.8875 L519.959 43.7741 L491.157 43.7741 L491.157 65.6895 L521.944 65.6895 L521.944 72.576 L482.974 72.576 L482.974 12.096 Z" fill="#000000" fill-rule="evenodd" fill-opacity="1" /><path clip-path="url(#clip340)" d="M570.393 35.9153 Q573.188 30.8922 577.077 28.5022 Q580.966 26.1121 586.232 26.1121 Q593.321 26.1121 597.169 31.0947 Q601.018 36.0368 601.018 45.1919 L601.018 72.576 L593.523 72.576 L593.523 45.4349 Q593.523 38.913 591.214 35.7533 Q588.905 32.5936 584.166 32.5936 Q578.373 32.5936 575.011 36.4419 Q571.649 40.2903 571.649 46.9338 L571.649 72.576 L564.154 72.576 L564.154 45.4349 Q564.154 38.8725 561.845 35.7533 Q559.536 32.5936 554.716 32.5936 Q549.004 32.5936 545.642 36.4824 Q542.279 40.3308 542.279 46.9338 L542.279 72.576 L534.785 72.576 L534.785 27.2059 L542.279 27.2059 L542.279 34.2544 Q544.832 30.082 548.396 28.0971 Q551.961 26.1121 556.863 26.1121 Q561.805 26.1121 565.248 28.6237 Q568.732 31.1352 570.393 35.9153 Z" fill="#000000" fill-rule="evenodd" fill-opacity="1" /><path clip-path="url(#clip340)" d="M636.503 49.7694 Q627.47 49.7694 623.986 51.8354 Q620.502 53.9013 620.502 58.8839 Q620.502 62.8538 623.095 65.2034 Q625.728 67.5124 630.225 67.5124 Q636.422 67.5124 640.149 63.1374 Q643.917 58.7219 643.917 51.4303 L643.917 49.7694 L636.503 49.7694 M651.37 46.6907 L651.37 72.576 L643.917 72.576 L643.917 65.6895 Q641.365 69.8214 637.557 71.8063 Q633.749 73.7508 628.24 73.7508 Q621.272 73.7508 617.14 69.8619 Q613.049 65.9325 613.049 59.3701 Q613.049 51.7138 618.153 47.825 Q623.298 43.9361 633.465 43.9361 L643.917 43.9361 L643.917 43.2069 Q643.917 38.0623 640.514 35.2672 Q637.152 32.4315 631.035 32.4315 Q627.146 32.4315 623.46 33.3632 Q619.773 34.295 616.37 36.1584 L616.37 29.2718 Q620.462 27.692 624.31 26.9223 Q628.159 26.1121 631.804 26.1121 Q641.648 26.1121 646.509 31.2163 Q651.37 36.3204 651.37 46.6907 Z" fill="#000000" fill-rule="evenodd" fill-opacity="1" /><path clip-path="url(#clip340)" d="M666.723 27.2059 L674.177 27.2059 L674.177 72.576 L666.723 72.576 L666.723 27.2059 M666.723 9.54393 L674.177 9.54393 L674.177 18.9825 L666.723 18.9825 L666.723 9.54393 Z" fill="#000000" fill-rule="evenodd" fill-opacity="1" /><path clip-path="url(#clip340)" d="M689.773 9.54393 L697.227 9.54393 L697.227 72.576 L689.773 72.576 L689.773 9.54393 Z" fill="#000000" fill-rule="evenodd" fill-opacity="1" /><path clip-path="url(#clip340)" d="M739.518 12.096 L777.759 12.096 L777.759 18.9825 L747.701 18.9825 L747.701 36.8875 L776.503 36.8875 L776.503 43.7741 L747.701 43.7741 L747.701 65.6895 L778.488 65.6895 L778.488 72.576 L739.518 72.576 L739.518 12.096 Z" fill="#000000" fill-rule="evenodd" fill-opacity="1" /><path clip-path="url(#clip340)" d="M790.843 54.671 L790.843 27.2059 L798.297 27.2059 L798.297 54.3874 Q798.297 60.8284 800.808 64.0691 Q803.32 67.2693 808.343 67.2693 Q814.379 67.2693 817.862 63.421 Q821.387 59.5726 821.387 52.9291 L821.387 27.2059 L828.84 27.2059 L828.84 72.576 L821.387 72.576 L821.387 65.6084 Q818.673 69.7404 815.067 71.7658 Q811.503 73.7508 806.763 73.7508 Q798.945 73.7508 794.894 68.8897 Q790.843 64.0286 790.843 54.671 M809.599 26.1121 L809.599 26.1121 Z" fill="#000000" fill-rule="evenodd" fill-opacity="1" /><path clip-path="url(#clip340)" d="M916.178 16.7545 L916.178 25.383 Q912.046 21.5346 907.347 19.6307 Q902.688 17.7268 897.422 17.7268 Q887.052 17.7268 881.543 24.0867 Q876.033 30.4061 876.033 42.3968 Q876.033 54.3469 881.543 60.7069 Q887.052 67.0263 897.422 67.0263 Q902.688 67.0263 907.347 65.1223 Q912.046 63.2184 916.178 59.3701 L916.178 67.9175 Q911.884 70.8341 907.063 72.2924 Q902.283 73.7508 896.936 73.7508 Q883.204 73.7508 875.304 65.3654 Q867.405 56.9395 867.405 42.3968 Q867.405 27.8135 875.304 19.4281 Q883.204 11.0023 896.936 11.0023 Q902.364 11.0023 907.144 12.4606 Q911.965 13.8784 916.178 16.7545 Z" fill="#000000" fill-rule="evenodd" fill-opacity="1" /><path clip-path="url(#clip340)" d="M946.074 32.4315 Q940.078 32.4315 936.594 37.1306 Q933.111 41.7891 933.111 49.9314 Q933.111 58.0738 936.554 62.7728 Q940.038 67.4314 946.074 67.4314 Q952.028 67.4314 955.512 62.7323 Q958.996 58.0333 958.996 49.9314 Q958.996 41.8701 955.512 37.1711 Q952.028 32.4315 946.074 32.4315 M946.074 26.1121 Q955.796 26.1121 961.345 32.4315 Q966.895 38.7509 966.895 49.9314 Q966.895 61.0714 961.345 67.4314 Q955.796 73.7508 946.074 73.7508 Q936.311 73.7508 930.761 67.4314 Q925.252 61.0714 925.252 49.9314 Q925.252 38.7509 930.761 32.4315 Q936.311 26.1121 946.074 26.1121 Z" fill="#000000" fill-rule="evenodd" fill-opacity="1" /><path clip-path="url(#clip340)" d="M1005.54 34.1734 Q1004.29 33.4443 1002.79 33.1202 Q1001.33 32.7556 999.546 32.7556 Q993.226 32.7556 989.823 36.8875 Q986.461 40.9789 986.461 48.6757 L986.461 72.576 L978.967 72.576 L978.967 27.2059 L986.461 27.2059 L986.461 34.2544 Q988.811 30.1225 992.578 28.1376 Q996.345 26.1121 1001.73 26.1121 Q1002.5 26.1121 1003.43 26.2337 Q1004.37 26.3147 1005.5 26.5172 L1005.54 34.1734 Z" fill="#000000" fill-rule="evenodd" fill-opacity="1" /><path clip-path="url(#clip340)" d="M1050.34 48.0275 L1050.34 51.6733 L1016.07 51.6733 Q1016.56 59.3701 1020.69 63.421 Q1024.86 67.4314 1032.28 67.4314 Q1036.57 67.4314 1040.58 66.3781 Q1044.63 65.3249 1048.6 63.2184 L1048.6 70.267 Q1044.59 71.9684 1040.38 72.8596 Q1036.17 73.7508 1031.83 73.7508 Q1020.97 73.7508 1014.61 67.4314 Q1008.3 61.1119 1008.3 50.3365 Q1008.3 39.1965 1014.29 32.6746 Q1020.33 26.1121 1030.53 26.1121 Q1039.69 26.1121 1045 32.0264 Q1050.34 37.9003 1050.34 48.0275 M1042.89 45.84 Q1042.81 39.7232 1039.45 36.0774 Q1036.13 32.4315 1030.62 32.4315 Q1024.38 32.4315 1020.61 35.9558 Q1016.88 39.4801 1016.32 45.8805 L1042.89 45.84 Z" fill="#000000" fill-rule="evenodd" fill-opacity="1" /><path clip-path="url(#clip340)" d="M1097.46 18.8205 L1097.46 65.8515 L1107.34 65.8515 Q1119.86 65.8515 1125.65 60.1802 Q1131.48 54.509 1131.48 42.2752 Q1131.48 30.1225 1125.65 24.4918 Q1119.86 18.8205 1107.34 18.8205 L1097.46 18.8205 M1089.27 12.096 L1106.08 12.096 Q1123.67 12.096 1131.89 19.4281 Q1140.11 26.7198 1140.11 42.2752 Q1140.11 57.9117 1131.85 65.2439 Q1123.58 72.576 1106.08 72.576 L1089.27 72.576 L1089.27 12.096 Z" fill="#000000" fill-rule="evenodd" fill-opacity="1" /><path clip-path="url(#clip340)" d="M1173.45 49.7694 Q1164.42 49.7694 1160.93 51.8354 Q1157.45 53.9013 1157.45 58.8839 Q1157.45 62.8538 1160.04 65.2034 Q1162.68 67.5124 1167.17 67.5124 Q1173.37 67.5124 1177.1 63.1374 Q1180.86 58.7219 1180.86 51.4303 L1180.86 49.7694 L1173.45 49.7694 M1188.32 46.6907 L1188.32 72.576 L1180.86 72.576 L1180.86 65.6895 Q1178.31 69.8214 1174.5 71.8063 Q1170.7 73.7508 1165.19 73.7508 Q1158.22 73.7508 1154.09 69.8619 Q1150 65.9325 1150 59.3701 Q1150 51.7138 1155.1 47.825 Q1160.24 43.9361 1170.41 43.9361 L1180.86 43.9361 L1180.86 43.2069 Q1180.86 38.0623 1177.46 35.2672 Q1174.1 32.4315 1167.98 32.4315 Q1164.09 32.4315 1160.41 33.3632 Q1156.72 34.295 1153.32 36.1584 L1153.32 29.2718 Q1157.41 27.692 1161.26 26.9223 Q1165.11 26.1121 1168.75 26.1121 Q1178.6 26.1121 1183.46 31.2163 Q1188.32 36.3204 1188.32 46.6907 Z" fill="#000000" fill-rule="evenodd" fill-opacity="1" /><path clip-path="url(#clip340)" d="M1211.04 14.324 L1211.04 27.2059 L1226.4 27.2059 L1226.4 32.9987 L1211.04 32.9987 L1211.04 57.6282 Q1211.04 63.1779 1212.54 64.7578 Q1214.08 66.3376 1218.74 66.3376 L1226.4 66.3376 L1226.4 72.576 L1218.74 72.576 Q1210.11 72.576 1206.83 69.3758 Q1203.55 66.1351 1203.55 57.6282 L1203.55 32.9987 L1198.08 32.9987 L1198.08 27.2059 L1203.55 27.2059 L1203.55 14.324 L1211.04 14.324 Z" fill="#000000" fill-rule="evenodd" fill-opacity="1" /><path clip-path="url(#clip340)" d="M1256.82 49.7694 Q1247.78 49.7694 1244.3 51.8354 Q1240.82 53.9013 1240.82 58.8839 Q1240.82 62.8538 1243.41 65.2034 Q1246.04 67.5124 1250.54 67.5124 Q1256.74 67.5124 1260.46 63.1374 Q1264.23 58.7219 1264.23 51.4303 L1264.23 49.7694 L1256.82 49.7694 M1271.69 46.6907 L1271.69 72.576 L1264.23 72.576 L1264.23 65.6895 Q1261.68 69.8214 1257.87 71.8063 Q1254.06 73.7508 1248.55 73.7508 Q1241.59 73.7508 1237.46 69.8619 Q1233.36 65.9325 1233.36 59.3701 Q1233.36 51.7138 1238.47 47.825 Q1243.61 43.9361 1253.78 43.9361 L1264.23 43.9361 L1264.23 43.2069 Q1264.23 38.0623 1260.83 35.2672 Q1257.47 32.4315 1251.35 32.4315 Q1247.46 32.4315 1243.77 33.3632 Q1240.09 34.295 1236.69 36.1584 L1236.69 29.2718 Q1240.78 27.692 1244.63 26.9223 Q1248.47 26.1121 1252.12 26.1121 Q1261.96 26.1121 1266.82 31.2163 Q1271.69 36.3204 1271.69 46.6907 Z" fill="#000000" fill-rule="evenodd" fill-opacity="1" /><path clip-path="url(#clip342)" d="
M240.135 189.994 L261.735 621.466 L304.935 810.563 L434.534 932.74 L564.132 959.03 L650.532 969.816 L1082.53 986.74 L1514.52 991.848 L1514.52 989.997 L1082.53 984.287 
  L650.532 962.904 L564.132 956.111 L434.534 923.45 L304.935 794.479 L261.735 592.816 L240.135 156.104  Z
  " fill="#009af9" fill-rule="evenodd" fill-opacity="0.5"/>
<polyline clip-path="url(#clip342)" style="stroke:#009af9; stroke-linecap:butt; stroke-linejoin:round; stroke-width:4; stroke-opacity:1; fill:none" points="
  240.135,173.049 261.735,607.141 304.935,802.521 434.534,928.095 564.132,957.571 650.532,966.36 1082.53,985.513 1514.52,990.922 
  "/>
<path clip-path="url(#clip342)" d="M240.135 189.049 L228.823 184.361 L224.135 173.049 L228.823 161.737 L240.135 157.049 L251.447 161.737 L256.135 173.049 L251.447 184.361 Z" fill="#009af9" fill-rule="evenodd" fill-opacity="1" stroke="#000000" stroke-opacity="1" stroke-width="2.4"/>
<path clip-path="url(#clip342)" d="M261.735 623.141 L250.423 618.453 L245.735 607.141 L250.423 595.829 L261.735 591.141 L273.047 595.829 L277.735 607.141 L273.047 618.453 Z" fill="#009af9" fill-rule="evenodd" fill-opacity="1" stroke="#000000" stroke-opacity="1" stroke-width="2.4"/>
<path clip-path="url(#clip342)" d="M304.935 818.521 L293.623 813.833 L288.935 802.521 L293.623 791.209 L304.935 786.521 L316.247 791.209 L320.935 802.521 L316.247 813.833 Z" fill="#009af9" fill-rule="evenodd" fill-opacity="1" stroke="#000000" stroke-opacity="1" stroke-width="2.4"/>
<path clip-path="url(#clip342)" d="M434.534 944.095 L423.222 939.407 L418.534 928.095 L423.222 916.783 L434.534 912.095 L445.846 916.783 L450.534 928.095 L445.846 939.407 Z" fill="#009af9" fill-rule="evenodd" fill-opacity="1" stroke="#000000" stroke-opacity="1" stroke-width="2.4"/>
<path clip-path="url(#clip342)" d="M564.132 973.571 L552.82 968.883 L548.132 957.571 L552.82 946.259 L564.132 941.571 L575.444 946.259 L580.132 957.571 L575.444 968.883 Z" fill="#009af9" fill-rule="evenodd" fill-opacity="1" stroke="#000000" stroke-opacity="1" stroke-width="2.4"/>
<path clip-path="url(#clip342)" d="M650.532 982.36 L639.22 977.672 L634.532 966.36 L639.22 955.048 L650.532 950.36 L661.844 955.048 L666.532 966.36 L661.844 977.672 Z" fill="#009af9" fill-rule="evenodd" fill-opacity="1" stroke="#000000" stroke-opacity="1" stroke-width="2.4"/>
<path clip-path="url(#clip342)" d="M1082.53 1001.51 L1071.22 996.825 L1066.53 985.513 L1071.22 974.201 L1082.53 969.513 L1093.84 974.201 L1098.53 985.513 L1093.84 996.825 Z" fill="#009af9" fill-rule="evenodd" fill-opacity="1" stroke="#000000" stroke-opacity="1" stroke-width="2.4"/>
<path clip-path="url(#clip342)" d="M1514.52 1006.92 L1503.21 1002.23 L1498.52 990.922 L1503.21 979.61 L1514.52 974.922 L1525.84 979.61 L1530.52 990.922 L1525.84 1002.23 Z" fill="#009af9" fill-rule="evenodd" fill-opacity="1" stroke="#000000" stroke-opacity="1" stroke-width="2.4"/>
<polyline clip-path="url(#clip342)" style="stroke:#ff3030; stroke-linecap:butt; stroke-linejoin:round; stroke-width:4; stroke-opacity:1; fill:none" stroke-dasharray="2, 4" points="
  1250.25,1902.81 1250.25,-754.856 
  "/>
<path clip-path="url(#clip340)" d="
M1193.61 264.242 L1507.73 264.242 L1507.73 160.562 L1193.61 160.562  Z
  " fill="#ffffff" fill-rule="evenodd" fill-opacity="1"/>
<polyline clip-path="url(#clip340)" style="stroke:#000000; stroke-linecap:butt; stroke-linejoin:round; stroke-width:4; stroke-opacity:1; fill:none" points="
  1193.61,264.242 1507.73,264.242 1507.73,160.562 1193.61,160.562 1193.61,264.242 
  "/>
<polyline clip-path="url(#clip340)" style="stroke:#ff3030; stroke-linecap:butt; stroke-linejoin:round; stroke-width:4; stroke-opacity:1; fill:none" stroke-dasharray="2, 4" points="
  1208.62,212.402 1298.67,212.402 
  "/>
<path clip-path="url(#clip340)" d="M1338.1 191.233 L1342.48 191.233 L1342.48 193.455 L1339.82 193.455 L1326.07 230.631 L1324.54 230.631 L1317.15 210.191 L1314.26 211.233 L1313.68 209.381 L1320.23 207.112 L1326.16 223.524 L1338.1 191.233 Z" fill="#000000" fill-rule="evenodd" fill-opacity="1" /><path clip-path="url(#clip340)" d="M1346.95 193.663 L1351.2 193.663 L1351.2 229.682 L1346.95 229.682 L1346.95 193.663 Z" fill="#000000" fill-rule="evenodd" fill-opacity="1" /><path clip-path="url(#clip340)" d="M1370.16 206.742 Q1366.74 206.742 1364.75 209.427 Q1362.76 212.089 1362.76 216.742 Q1362.76 221.395 1364.72 224.08 Q1366.71 226.742 1370.16 226.742 Q1373.57 226.742 1375.56 224.057 Q1377.55 221.372 1377.55 216.742 Q1377.55 212.136 1375.56 209.45 Q1373.57 206.742 1370.16 206.742 M1370.16 203.131 Q1375.72 203.131 1378.89 206.742 Q1382.06 210.353 1382.06 216.742 Q1382.06 223.108 1378.89 226.742 Q1375.72 230.353 1370.16 230.353 Q1364.58 230.353 1361.41 226.742 Q1358.26 223.108 1358.26 216.742 Q1358.26 210.353 1361.41 206.742 Q1364.58 203.131 1370.16 203.131 Z" fill="#000000" fill-rule="evenodd" fill-opacity="1" /><path clip-path="url(#clip340)" d="M1406.18 216.418 Q1406.18 211.788 1404.26 209.242 Q1402.36 206.696 1398.91 206.696 Q1395.49 206.696 1393.57 209.242 Q1391.67 211.788 1391.67 216.418 Q1391.67 221.024 1393.57 223.571 Q1395.49 226.117 1398.91 226.117 Q1402.36 226.117 1404.26 223.571 Q1406.18 221.024 1406.18 216.418 M1410.44 226.464 Q1410.44 233.084 1407.5 236.302 Q1404.56 239.543 1398.5 239.543 Q1396.25 239.543 1394.26 239.196 Q1392.27 238.871 1390.39 238.177 L1390.39 234.034 Q1392.27 235.052 1394.1 235.538 Q1395.93 236.024 1397.82 236.024 Q1402.01 236.024 1404.1 233.825 Q1406.18 231.649 1406.18 227.228 L1406.18 225.122 Q1404.86 227.413 1402.8 228.547 Q1400.74 229.682 1397.87 229.682 Q1393.1 229.682 1390.19 226.047 Q1387.27 222.413 1387.27 216.418 Q1387.27 210.399 1390.19 206.765 Q1393.1 203.131 1397.87 203.131 Q1400.74 203.131 1402.8 204.265 Q1404.86 205.399 1406.18 207.691 L1406.18 203.756 L1410.44 203.756 L1410.44 226.464 Z" fill="#000000" fill-rule="evenodd" fill-opacity="1" /><path clip-path="url(#clip340)" d="M1429.44 193.71 Q1426.34 199.034 1424.84 204.242 Q1423.33 209.45 1423.33 214.798 Q1423.33 220.145 1424.84 225.399 Q1426.37 230.631 1429.44 235.932 L1425.74 235.932 Q1422.27 230.492 1420.53 225.237 Q1418.82 219.983 1418.82 214.798 Q1418.82 209.636 1420.53 204.404 Q1422.25 199.173 1425.74 193.71 L1429.44 193.71 Z" fill="#000000" fill-rule="evenodd" fill-opacity="1" /><path clip-path="url(#clip340)" d="M1459.26 214.034 L1459.26 229.682 L1455 229.682 L1455 214.173 Q1455 210.492 1453.57 208.663 Q1452.13 206.835 1449.26 206.835 Q1445.81 206.835 1443.82 209.034 Q1441.83 211.233 1441.83 215.029 L1441.83 229.682 L1437.55 229.682 L1437.55 203.756 L1441.83 203.756 L1441.83 207.784 Q1443.36 205.446 1445.42 204.288 Q1447.5 203.131 1450.21 203.131 Q1454.68 203.131 1456.97 205.909 Q1459.26 208.663 1459.26 214.034 Z" fill="#000000" fill-rule="evenodd" fill-opacity="1" /><path clip-path="url(#clip340)" d="M1467.08 193.71 L1470.79 193.71 Q1474.26 199.173 1475.97 204.404 Q1477.71 209.636 1477.71 214.798 Q1477.71 219.983 1475.97 225.237 Q1474.26 230.492 1470.79 235.932 L1467.08 235.932 Q1470.16 230.631 1471.67 225.399 Q1473.19 220.145 1473.19 214.798 Q1473.19 209.45 1471.67 204.242 Q1470.16 199.034 1467.08 193.71 Z" fill="#000000" fill-rule="evenodd" fill-opacity="1" /></svg>
