<?xml version="1.0" encoding="utf-8"?>
<svg xmlns="http://www.w3.org/2000/svg" xmlns:xlink="http://www.w3.org/1999/xlink" width="600" height="400" viewBox="0 0 2400 1600">
<defs>
  <clipPath id="clip870">
    <rect x="0" y="0" width="2400" height="1600"/>
  </clipPath>
</defs>
<path clip-path="url(#clip870)" d="
M0 1600 L2400 1600 L2400 0 L0 0  Z
  " fill="#ffffff" fill-rule="evenodd" fill-opacity="1"/>
<defs>
  <clipPath id="clip871">
    <rect x="480" y="0" width="1681" height="1600"/>
  </clipPath>
</defs>
<path clip-path="url(#clip870)" d="
M249.542 1423.18 L2352.76 1423.18 L2352.76 123.472 L249.542 123.472  Z
  " fill="#ffffff" fill-rule="evenodd" fill-opacity="1"/>
<defs>
  <clipPath id="clip872">
    <rect x="249" y="123" width="2104" height="1301"/>
  </clipPath>
</defs>
<polyline clip-path="url(#clip872)" style="stroke:#000000; stroke-linecap:butt; stroke-linejoin:round; stroke-width:2; stroke-opacity:0.1; fill:none" points="
  268.574,1423.18 268.574,123.472 
  "/>
<polyline clip-path="url(#clip872)" style="stroke:#000000; stroke-linecap:butt; stroke-linejoin:round; stroke-width:2; stroke-opacity:0.1; fill:none" points="
  673.505,1423.18 673.505,123.472 
  "/>
<polyline clip-path="url(#clip872)" style="stroke:#000000; stroke-linecap:butt; stroke-linejoin:round; stroke-width:2; stroke-opacity:0.1; fill:none" points="
  1078.44,1423.18 1078.44,123.472 
  "/>
<polyline clip-path="url(#clip872)" style="stroke:#000000; stroke-linecap:butt; stroke-linejoin:round; stroke-width:2; stroke-opacity:0.1; fill:none" points="
  1483.37,1423.18 1483.37,123.472 
  "/>
<polyline clip-path="url(#clip872)" style="stroke:#000000; stroke-linecap:butt; stroke-linejoin:round; stroke-width:2; stroke-opacity:0.1; fill:none" points="
  1888.3,1423.18 1888.3,123.472 
  "/>
<polyline clip-path="url(#clip872)" style="stroke:#000000; stroke-linecap:butt; stroke-linejoin:round; stroke-width:2; stroke-opacity:0.1; fill:none" points="
  2293.23,1423.18 2293.23,123.472 
  "/>
<polyline clip-path="url(#clip870)" style="stroke:#000000; stroke-linecap:butt; stroke-linejoin:round; stroke-width:4; stroke-opacity:1; fill:none" points="
  249.542,1423.18 2352.76,1423.18 
  "/>
<polyline clip-path="url(#clip870)" style="stroke:#000000; stroke-linecap:butt; stroke-linejoin:round; stroke-width:4; stroke-opacity:1; fill:none" points="
  268.574,1423.18 268.574,1404.28 
  "/>
<polyline clip-path="url(#clip870)" style="stroke:#000000; stroke-linecap:butt; stroke-linejoin:round; stroke-width:4; stroke-opacity:1; fill:none" points="
  673.505,1423.18 673.505,1404.28 
  "/>
<polyline clip-path="url(#clip870)" style="stroke:#000000; stroke-linecap:butt; stroke-linejoin:round; stroke-width:4; stroke-opacity:1; fill:none" points="
  1078.44,1423.18 1078.44,1404.28 
  "/>
<polyline clip-path="url(#clip870)" style="stroke:#000000; stroke-linecap:butt; stroke-linejoin:round; stroke-width:4; stroke-opacity:1; fill:none" points="
  1483.37,1423.18 1483.37,1404.28 
  "/>
<polyline clip-path="url(#clip870)" style="stroke:#000000; stroke-linecap:butt; stroke-linejoin:round; stroke-width:4; stroke-opacity:1; fill:none" points="
  1888.3,1423.18 1888.3,1404.28 
  "/>
<polyline clip-path="url(#clip870)" style="stroke:#000000; stroke-linecap:butt; stroke-linejoin:round; stroke-width:4; stroke-opacity:1; fill:none" points="
  2293.23,1423.18 2293.23,1404.28 
  "/>
<path clip-path="url(#clip870)" d="M268.574 1454.1 Q264.963 1454.1 263.134 1457.66 Q261.328 1461.2 261.328 1468.33 Q261.328 1475.44 263.134 1479.01 Q264.963 1482.55 268.574 1482.55 Q272.208 1482.55 274.014 1479.01 Q275.842 1475.44 275.842 1468.33 Q275.842 1461.2 274.014 1457.66 Q272.208 1454.1 268.574 1454.1 M268.574 1450.39 Q274.384 1450.39 277.44 1455 Q280.518 1459.58 280.518 1468.33 Q280.518 1477.06 277.44 1481.67 Q274.384 1486.25 268.574 1486.25 Q262.764 1486.25 259.685 1481.67 Q256.629 1477.06 256.629 1468.33 Q256.629 1459.58 259.685 1455 Q262.764 1450.39 268.574 1450.39 Z" fill="#000000" fill-rule="evenodd" fill-opacity="1" /><path clip-path="url(#clip870)" d="M618.031 1481.64 L625.67 1481.64 L625.67 1455.28 L617.36 1456.95 L617.36 1452.69 L625.624 1451.02 L630.299 1451.02 L630.299 1481.64 L637.938 1481.64 L637.938 1485.58 L618.031 1485.58 L618.031 1481.64 Z" fill="#000000" fill-rule="evenodd" fill-opacity="1" /><path clip-path="url(#clip870)" d="M657.383 1454.1 Q653.772 1454.1 651.943 1457.66 Q650.137 1461.2 650.137 1468.33 Q650.137 1475.44 651.943 1479.01 Q653.772 1482.55 657.383 1482.55 Q661.017 1482.55 662.822 1479.01 Q664.651 1475.44 664.651 1468.33 Q664.651 1461.2 662.822 1457.66 Q661.017 1454.1 657.383 1454.1 M657.383 1450.39 Q663.193 1450.39 666.248 1455 Q669.327 1459.58 669.327 1468.33 Q669.327 1477.06 666.248 1481.67 Q663.193 1486.25 657.383 1486.25 Q651.572 1486.25 648.494 1481.67 Q645.438 1477.06 645.438 1468.33 Q645.438 1459.58 648.494 1455 Q651.572 1450.39 657.383 1450.39 Z" fill="#000000" fill-rule="evenodd" fill-opacity="1" /><path clip-path="url(#clip870)" d="M687.545 1454.1 Q683.933 1454.1 682.105 1457.66 Q680.299 1461.2 680.299 1468.33 Q680.299 1475.44 682.105 1479.01 Q683.933 1482.55 687.545 1482.55 Q691.179 1482.55 692.984 1479.01 Q694.813 1475.44 694.813 1468.33 Q694.813 1461.2 692.984 1457.66 Q691.179 1454.1 687.545 1454.1 M687.545 1450.39 Q693.355 1450.39 696.41 1455 Q699.489 1459.58 699.489 1468.33 Q699.489 1477.06 696.41 1481.67 Q693.355 1486.25 687.545 1486.25 Q681.734 1486.25 678.656 1481.67 Q675.6 1477.06 675.6 1468.33 Q675.6 1459.58 678.656 1455 Q681.734 1450.39 687.545 1450.39 Z" fill="#000000" fill-rule="evenodd" fill-opacity="1" /><path clip-path="url(#clip870)" d="M717.706 1454.1 Q714.095 1454.1 712.267 1457.66 Q710.461 1461.2 710.461 1468.33 Q710.461 1475.44 712.267 1479.01 Q714.095 1482.55 717.706 1482.55 Q721.341 1482.55 723.146 1479.01 Q724.975 1475.44 724.975 1468.33 Q724.975 1461.2 723.146 1457.66 Q721.341 1454.1 717.706 1454.1 M717.706 1450.39 Q723.517 1450.39 726.572 1455 Q729.651 1459.58 729.651 1468.33 Q729.651 1477.06 726.572 1481.67 Q723.517 1486.25 717.706 1486.25 Q711.896 1486.25 708.818 1481.67 Q705.762 1477.06 705.762 1468.33 Q705.762 1459.58 708.818 1455 Q711.896 1450.39 717.706 1450.39 Z" fill="#000000" fill-rule="evenodd" fill-opacity="1" /><path clip-path="url(#clip870)" d="M1027.05 1481.64 L1043.37 1481.64 L1043.37 1485.58 L1021.42 1485.58 L1021.42 1481.64 Q1024.09 1478.89 1028.67 1474.26 Q1033.27 1469.61 1034.46 1468.27 Q1036.7 1465.74 1037.58 1464.01 Q1038.48 1462.25 1038.48 1460.56 Q1038.48 1457.8 1036.54 1456.07 Q1034.62 1454.33 1031.52 1454.33 Q1029.32 1454.33 1026.86 1455.09 Q1024.43 1455.86 1021.65 1457.41 L1021.65 1452.69 Q1024.48 1451.55 1026.93 1450.97 Q1029.39 1450.39 1031.42 1450.39 Q1036.79 1450.39 1039.99 1453.08 Q1043.18 1455.77 1043.18 1460.26 Q1043.18 1462.39 1042.37 1464.31 Q1041.59 1466.2 1039.48 1468.8 Q1038.9 1469.47 1035.8 1472.69 Q1032.7 1475.88 1027.05 1481.64 Z" fill="#000000" fill-rule="evenodd" fill-opacity="1" /><path clip-path="url(#clip870)" d="M1063.18 1454.1 Q1059.57 1454.1 1057.74 1457.66 Q1055.94 1461.2 1055.94 1468.33 Q1055.94 1475.44 1057.74 1479.01 Q1059.57 1482.55 1063.18 1482.55 Q1066.82 1482.55 1068.62 1479.01 Q1070.45 1475.44 1070.45 1468.33 Q1070.45 1461.2 1068.62 1457.66 Q1066.82 1454.1 1063.18 1454.1 M1063.18 1450.39 Q1068.99 1450.39 1072.05 1455 Q1075.13 1459.58 1075.13 1468.33 Q1075.13 1477.06 1072.05 1481.67 Q1068.99 1486.25 1063.18 1486.25 Q1057.37 1486.25 1054.29 1481.67 Q1051.24 1477.06 1051.24 1468.33 Q1051.24 1459.58 1054.29 1455 Q1057.37 1450.39 1063.18 1450.39 Z" fill="#000000" fill-rule="evenodd" fill-opacity="1" /><path clip-path="url(#clip870)" d="M1093.34 1454.1 Q1089.73 1454.1 1087.9 1457.66 Q1086.1 1461.2 1086.1 1468.33 Q1086.1 1475.44 1087.9 1479.01 Q1089.73 1482.55 1093.34 1482.55 Q1096.98 1482.55 1098.78 1479.01 Q1100.61 1475.44 1100.61 1468.33 Q1100.61 1461.2 1098.78 1457.66 Q1096.98 1454.1 1093.34 1454.1 M1093.34 1450.39 Q1099.15 1450.39 1102.21 1455 Q1105.29 1459.58 1105.29 1468.33 Q1105.29 1477.06 1102.21 1481.67 Q1099.15 1486.25 1093.34 1486.25 Q1087.53 1486.25 1084.46 1481.67 Q1081.4 1477.06 1081.4 1468.33 Q1081.4 1459.58 1084.46 1455 Q1087.53 1450.39 1093.34 1450.39 Z" fill="#000000" fill-rule="evenodd" fill-opacity="1" /><path clip-path="url(#clip870)" d="M1123.51 1454.1 Q1119.89 1454.1 1118.07 1457.66 Q1116.26 1461.2 1116.26 1468.33 Q1116.26 1475.44 1118.07 1479.01 Q1119.89 1482.55 1123.51 1482.55 Q1127.14 1482.55 1128.95 1479.01 Q1130.77 1475.44 1130.77 1468.33 Q1130.77 1461.2 1128.95 1457.66 Q1127.14 1454.1 1123.51 1454.1 M1123.51 1450.39 Q1129.32 1450.39 1132.37 1455 Q1135.45 1459.58 1135.45 1468.33 Q1135.45 1477.06 1132.37 1481.67 Q1129.32 1486.25 1123.51 1486.25 Q1117.7 1486.25 1114.62 1481.67 Q1111.56 1477.06 1111.56 1468.33 Q1111.56 1459.58 1114.62 1455 Q1117.7 1450.39 1123.51 1450.39 Z" fill="#000000" fill-rule="evenodd" fill-opacity="1" /><path clip-path="url(#clip870)" d="M1442.05 1466.95 Q1445.41 1467.66 1447.28 1469.93 Q1449.18 1472.2 1449.18 1475.53 Q1449.18 1480.65 1445.66 1483.45 Q1442.14 1486.25 1435.66 1486.25 Q1433.48 1486.25 1431.17 1485.81 Q1428.88 1485.39 1426.42 1484.54 L1426.42 1480.02 Q1428.37 1481.16 1430.68 1481.74 Q1433 1482.32 1435.52 1482.32 Q1439.92 1482.32 1442.21 1480.58 Q1444.53 1478.84 1444.53 1475.53 Q1444.53 1472.48 1442.37 1470.77 Q1440.24 1469.03 1436.42 1469.03 L1432.4 1469.03 L1432.4 1465.19 L1436.61 1465.19 Q1440.06 1465.19 1441.89 1463.82 Q1443.72 1462.43 1443.72 1459.84 Q1443.72 1457.18 1441.82 1455.77 Q1439.94 1454.33 1436.42 1454.33 Q1434.5 1454.33 1432.3 1454.75 Q1430.1 1455.16 1427.47 1456.04 L1427.47 1451.88 Q1430.13 1451.14 1432.44 1450.77 Q1434.78 1450.39 1436.84 1450.39 Q1442.16 1450.39 1445.27 1452.83 Q1448.37 1455.23 1448.37 1459.35 Q1448.37 1462.22 1446.72 1464.21 Q1445.08 1466.18 1442.05 1466.95 Z" fill="#000000" fill-rule="evenodd" fill-opacity="1" /><path clip-path="url(#clip870)" d="M1468.04 1454.1 Q1464.43 1454.1 1462.6 1457.66 Q1460.8 1461.2 1460.8 1468.33 Q1460.8 1475.44 1462.6 1479.01 Q1464.43 1482.55 1468.04 1482.55 Q1471.68 1482.55 1473.48 1479.01 Q1475.31 1475.44 1475.31 1468.33 Q1475.31 1461.2 1473.48 1457.66 Q1471.68 1454.1 1468.04 1454.1 M1468.04 1450.39 Q1473.85 1450.39 1476.91 1455 Q1479.99 1459.58 1479.99 1468.33 Q1479.99 1477.06 1476.91 1481.67 Q1473.85 1486.25 1468.04 1486.25 Q1462.23 1486.25 1459.16 1481.67 Q1456.1 1477.06 1456.1 1468.33 Q1456.1 1459.58 1459.16 1455 Q1462.23 1450.39 1468.04 1450.39 Z" fill="#000000" fill-rule="evenodd" fill-opacity="1" /><path clip-path="url(#clip870)" d="M1498.21 1454.1 Q1494.59 1454.1 1492.77 1457.66 Q1490.96 1461.2 1490.96 1468.33 Q1490.96 1475.44 1492.77 1479.01 Q1494.59 1482.55 1498.21 1482.55 Q1501.84 1482.55 1503.65 1479.01 Q1505.47 1475.44 1505.47 1468.33 Q1505.47 1461.2 1503.65 1457.66 Q1501.84 1454.1 1498.21 1454.1 M1498.21 1450.39 Q1504.02 1450.39 1507.07 1455 Q1510.15 1459.58 1510.15 1468.33 Q1510.15 1477.06 1507.07 1481.67 Q1504.02 1486.25 1498.21 1486.25 Q1492.4 1486.25 1489.32 1481.67 Q1486.26 1477.06 1486.26 1468.33 Q1486.26 1459.58 1489.32 1455 Q1492.4 1450.39 1498.21 1450.39 Z" fill="#000000" fill-rule="evenodd" fill-opacity="1" /><path clip-path="url(#clip870)" d="M1528.37 1454.1 Q1524.76 1454.1 1522.93 1457.66 Q1521.12 1461.2 1521.12 1468.33 Q1521.12 1475.44 1522.93 1479.01 Q1524.76 1482.55 1528.37 1482.55 Q1532 1482.55 1533.81 1479.01 Q1535.64 1475.44 1535.64 1468.33 Q1535.64 1461.2 1533.81 1457.66 Q1532 1454.1 1528.37 1454.1 M1528.37 1450.39 Q1534.18 1450.39 1537.23 1455 Q1540.31 1459.58 1540.31 1468.33 Q1540.31 1477.06 1537.23 1481.67 Q1534.18 1486.25 1528.37 1486.25 Q1522.56 1486.25 1519.48 1481.67 Q1516.42 1477.06 1516.42 1468.33 Q1516.42 1459.58 1519.48 1455 Q1522.56 1450.39 1528.37 1450.39 Z" fill="#000000" fill-rule="evenodd" fill-opacity="1" /><path clip-path="url(#clip870)" d="M1846.31 1455.09 L1834.5 1473.54 L1846.31 1473.54 L1846.31 1455.09 M1845.08 1451.02 L1850.96 1451.02 L1850.96 1473.54 L1855.89 1473.54 L1855.89 1477.43 L1850.96 1477.43 L1850.96 1485.58 L1846.31 1485.58 L1846.31 1477.43 L1830.71 1477.43 L1830.71 1472.92 L1845.08 1451.02 Z" fill="#000000" fill-rule="evenodd" fill-opacity="1" /><path clip-path="url(#clip870)" d="M1873.62 1454.1 Q1870.01 1454.1 1868.18 1457.66 Q1866.38 1461.2 1866.38 1468.33 Q1866.38 1475.44 1868.18 1479.01 Q1870.01 1482.55 1873.62 1482.55 Q1877.26 1482.55 1879.06 1479.01 Q1880.89 1475.44 1880.89 1468.33 Q1880.89 1461.2 1879.06 1457.66 Q1877.26 1454.1 1873.62 1454.1 M1873.62 1450.39 Q1879.43 1450.39 1882.49 1455 Q1885.57 1459.58 1885.57 1468.33 Q1885.57 1477.06 1882.49 1481.67 Q1879.43 1486.25 1873.62 1486.25 Q1867.81 1486.25 1864.73 1481.67 Q1861.68 1477.06 1861.68 1468.33 Q1861.68 1459.58 1864.73 1455 Q1867.81 1450.39 1873.62 1450.39 Z" fill="#000000" fill-rule="evenodd" fill-opacity="1" /><path clip-path="url(#clip870)" d="M1903.79 1454.1 Q1900.17 1454.1 1898.35 1457.66 Q1896.54 1461.2 1896.54 1468.33 Q1896.54 1475.44 1898.35 1479.01 Q1900.17 1482.55 1903.79 1482.55 Q1907.42 1482.55 1909.23 1479.01 Q1911.05 1475.44 1911.05 1468.33 Q1911.05 1461.2 1909.23 1457.66 Q1907.42 1454.1 1903.79 1454.1 M1903.79 1450.39 Q1909.6 1450.39 1912.65 1455 Q1915.73 1459.58 1915.73 1468.33 Q1915.73 1477.06 1912.65 1481.67 Q1909.6 1486.25 1903.79 1486.25 Q1897.98 1486.25 1894.9 1481.67 Q1891.84 1477.06 1891.84 1468.33 Q1891.84 1459.58 1894.9 1455 Q1897.98 1450.39 1903.79 1450.39 Z" fill="#000000" fill-rule="evenodd" fill-opacity="1" /><path clip-path="url(#clip870)" d="M1933.95 1454.1 Q1930.34 1454.1 1928.51 1457.66 Q1926.7 1461.2 1926.7 1468.33 Q1926.7 1475.44 1928.51 1479.01 Q1930.34 1482.55 1933.95 1482.55 Q1937.58 1482.55 1939.39 1479.01 Q1941.22 1475.44 1941.22 1468.33 Q1941.22 1461.2 1939.39 1457.66 Q1937.58 1454.1 1933.95 1454.1 M1933.95 1450.39 Q1939.76 1450.39 1942.81 1455 Q1945.89 1459.58 1945.89 1468.33 Q1945.89 1477.06 1942.81 1481.67 Q1939.76 1486.25 1933.95 1486.25 Q1928.14 1486.25 1925.06 1481.67 Q1922 1477.06 1922 1468.33 Q1922 1459.58 1925.06 1455 Q1928.14 1450.39 1933.95 1450.39 Z" fill="#000000" fill-rule="evenodd" fill-opacity="1" /><path clip-path="url(#clip870)" d="M2237.77 1451.02 L2256.12 1451.02 L2256.12 1454.96 L2242.05 1454.96 L2242.05 1463.43 Q2243.07 1463.08 2244.09 1462.92 Q2245.11 1462.73 2246.12 1462.73 Q2251.91 1462.73 2255.29 1465.9 Q2258.67 1469.08 2258.67 1474.49 Q2258.67 1480.07 2255.2 1483.17 Q2251.73 1486.25 2245.41 1486.25 Q2243.23 1486.25 2240.96 1485.88 Q2238.72 1485.51 2236.31 1484.77 L2236.31 1480.07 Q2238.39 1481.2 2240.62 1481.76 Q2242.84 1482.32 2245.31 1482.32 Q2249.32 1482.32 2251.66 1480.21 Q2254 1478.1 2254 1474.49 Q2254 1470.88 2251.66 1468.77 Q2249.32 1466.67 2245.31 1466.67 Q2243.44 1466.67 2241.56 1467.08 Q2239.71 1467.5 2237.77 1468.38 L2237.77 1451.02 Z" fill="#000000" fill-rule="evenodd" fill-opacity="1" /><path clip-path="url(#clip870)" d="M2277.88 1454.1 Q2274.27 1454.1 2272.44 1457.66 Q2270.64 1461.2 2270.64 1468.33 Q2270.64 1475.44 2272.44 1479.01 Q2274.27 1482.55 2277.88 1482.55 Q2281.52 1482.55 2283.32 1479.01 Q2285.15 1475.44 2285.15 1468.33 Q2285.15 1461.2 2283.32 1457.66 Q2281.52 1454.1 2277.88 1454.1 M2277.88 1450.39 Q2283.69 1450.39 2286.75 1455 Q2289.83 1459.58 2289.83 1468.33 Q2289.83 1477.06 2286.75 1481.67 Q2283.69 1486.25 2277.88 1486.25 Q2272.07 1486.25 2269 1481.67 Q2265.94 1477.06 2265.94 1468.33 Q2265.94 1459.58 2269 1455 Q2272.07 1450.39 2277.88 1450.39 Z" fill="#000000" fill-rule="evenodd" fill-opacity="1" /><path clip-path="url(#clip870)" d="M2308.05 1454.1 Q2304.43 1454.1 2302.61 1457.66 Q2300.8 1461.2 2300.8 1468.33 Q2300.8 1475.44 2302.61 1479.01 Q2304.43 1482.55 2308.05 1482.55 Q2311.68 1482.55 2313.49 1479.01 Q2315.31 1475.44 2315.31 1468.33 Q2315.31 1461.2 2313.49 1457.66 Q2311.68 1454.1 2308.05 1454.1 M2308.05 1450.39 Q2313.86 1450.39 2316.91 1455 Q2319.99 1459.58 2319.99 1468.33 Q2319.99 1477.06 2316.91 1481.67 Q2313.86 1486.25 2308.05 1486.25 Q2302.24 1486.25 2299.16 1481.67 Q2296.1 1477.06 2296.1 1468.33 Q2296.1 1459.58 2299.16 1455 Q2302.24 1450.39 2308.05 1450.39 Z" fill="#000000" fill-rule="evenodd" fill-opacity="1" /><path clip-path="url(#clip870)" d="M2338.21 1454.1 Q2334.6 1454.1 2332.77 1457.66 Q2330.96 1461.2 2330.96 1468.33 Q2330.96 1475.44 2332.77 1479.01 Q2334.6 1482.55 2338.21 1482.55 Q2341.84 1482.55 2343.65 1479.01 Q2345.48 1475.44 2345.48 1468.33 Q2345.48 1461.2 2343.65 1457.66 Q2341.84 1454.1 2338.21 1454.1 M2338.21 1450.39 Q2344.02 1450.39 2347.07 1455 Q2350.15 1459.58 2350.15 1468.33 Q2350.15 1477.06 2347.07 1481.67 Q2344.02 1486.25 2338.21 1486.25 Q2332.4 1486.25 2329.32 1481.67 Q2326.26 1477.06 2326.26 1468.33 Q2326.26 1459.58 2329.32 1455 Q2332.4 1450.39 2338.21 1450.39 Z" fill="#000000" fill-rule="evenodd" fill-opacity="1" /><path clip-path="url(#clip870)" d="M1316.08 1546.53 L1316.08 1568.04 L1310.22 1568.04 L1310.22 1546.72 Q1310.22 1541.66 1308.25 1539.14 Q1306.27 1536.63 1302.33 1536.63 Q1297.58 1536.63 1294.85 1539.65 Q1292.11 1542.68 1292.11 1547.9 L1292.11 1568.04 L1286.22 1568.04 L1286.22 1532.4 L1292.11 1532.4 L1292.11 1537.93 Q1294.21 1534.72 1297.04 1533.13 Q1299.91 1531.54 1303.63 1531.54 Q1309.77 1531.54 1312.93 1535.36 Q1316.08 1539.14 1316.08 1546.53 Z" fill="#000000" fill-rule="evenodd" fill-opacity="1" /><polyline clip-path="url(#clip872)" style="stroke:#000000; stroke-linecap:butt; stroke-linejoin:round; stroke-width:2; stroke-opacity:0.1; fill:none" points="
  249.542,1386.4 2352.76,1386.4 
  "/>
<polyline clip-path="url(#clip872)" style="stroke:#000000; stroke-linecap:butt; stroke-linejoin:round; stroke-width:2; stroke-opacity:0.1; fill:none" points="
  249.542,1084.28 2352.76,1084.28 
  "/>
<polyline clip-path="url(#clip872)" style="stroke:#000000; stroke-linecap:butt; stroke-linejoin:round; stroke-width:2; stroke-opacity:0.1; fill:none" points="
  249.542,782.172 2352.76,782.172 
  "/>
<polyline clip-path="url(#clip872)" style="stroke:#000000; stroke-linecap:butt; stroke-linejoin:round; stroke-width:2; stroke-opacity:0.1; fill:none" points="
  249.542,480.06 2352.76,480.06 
  "/>
<polyline clip-path="url(#clip872)" style="stroke:#000000; stroke-linecap:butt; stroke-linejoin:round; stroke-width:2; stroke-opacity:0.1; fill:none" points="
  249.542,177.948 2352.76,177.948 
  "/>
<polyline clip-path="url(#clip870)" style="stroke:#000000; stroke-linecap:butt; stroke-linejoin:round; stroke-width:4; stroke-opacity:1; fill:none" points="
  249.542,1423.18 249.542,123.472 
  "/>
<polyline clip-path="url(#clip870)" style="stroke:#000000; stroke-linecap:butt; stroke-linejoin:round; stroke-width:4; stroke-opacity:1; fill:none" points="
  249.542,1386.4 268.44,1386.4 
  "/>
<polyline clip-path="url(#clip870)" style="stroke:#000000; stroke-linecap:butt; stroke-linejoin:round; stroke-width:4; stroke-opacity:1; fill:none" points="
  249.542,1084.28 268.44,1084.28 
  "/>
<polyline clip-path="url(#clip870)" style="stroke:#000000; stroke-linecap:butt; stroke-linejoin:round; stroke-width:4; stroke-opacity:1; fill:none" points="
  249.542,782.172 268.44,782.172 
  "/>
<polyline clip-path="url(#clip870)" style="stroke:#000000; stroke-linecap:butt; stroke-linejoin:round; stroke-width:4; stroke-opacity:1; fill:none" points="
  249.542,480.06 268.44,480.06 
  "/>
<polyline clip-path="url(#clip870)" style="stroke:#000000; stroke-linecap:butt; stroke-linejoin:round; stroke-width:4; stroke-opacity:1; fill:none" points="
  249.542,177.948 268.44,177.948 
  "/>
<path clip-path="url(#clip870)" d="M126.205 1372.19 Q122.593 1372.19 120.765 1375.76 Q118.959 1379.3 118.959 1386.43 Q118.959 1393.54 120.765 1397.1 Q122.593 1400.64 126.205 1400.64 Q129.839 1400.64 131.644 1397.1 Q133.473 1393.54 133.473 1386.43 Q133.473 1379.3 131.644 1375.76 Q129.839 1372.19 126.205 1372.19 M126.205 1368.49 Q132.015 1368.49 135.07 1373.1 Q138.149 1377.68 138.149 1386.43 Q138.149 1395.16 135.07 1399.76 Q132.015 1404.35 126.205 1404.35 Q120.394 1404.35 117.316 1399.76 Q114.26 1395.16 114.26 1386.43 Q114.26 1377.68 117.316 1373.1 Q120.394 1368.49 126.205 1368.49 Z" fill="#000000" fill-rule="evenodd" fill-opacity="1" /><path clip-path="url(#clip870)" d="M146.366 1397.8 L151.251 1397.8 L151.251 1403.68 L146.366 1403.68 L146.366 1397.8 Z" fill="#000000" fill-rule="evenodd" fill-opacity="1" /><path clip-path="url(#clip870)" d="M171.436 1372.19 Q167.825 1372.19 165.996 1375.76 Q164.19 1379.3 164.19 1386.43 Q164.19 1393.54 165.996 1397.1 Q167.825 1400.64 171.436 1400.64 Q175.07 1400.64 176.876 1397.1 Q178.704 1393.54 178.704 1386.43 Q178.704 1379.3 176.876 1375.76 Q175.07 1372.19 171.436 1372.19 M171.436 1368.49 Q177.246 1368.49 180.301 1373.1 Q183.38 1377.68 183.38 1386.43 Q183.38 1395.16 180.301 1399.76 Q177.246 1404.35 171.436 1404.35 Q165.626 1404.35 162.547 1399.76 Q159.491 1395.16 159.491 1386.43 Q159.491 1377.68 162.547 1373.1 Q165.626 1368.49 171.436 1368.49 Z" fill="#000000" fill-rule="evenodd" fill-opacity="1" /><path clip-path="url(#clip870)" d="M201.598 1372.19 Q197.987 1372.19 196.158 1375.76 Q194.352 1379.3 194.352 1386.43 Q194.352 1393.54 196.158 1397.1 Q197.987 1400.64 201.598 1400.64 Q205.232 1400.64 207.037 1397.1 Q208.866 1393.54 208.866 1386.43 Q208.866 1379.3 207.037 1375.76 Q205.232 1372.19 201.598 1372.19 M201.598 1368.49 Q207.408 1368.49 210.463 1373.1 Q213.542 1377.68 213.542 1386.43 Q213.542 1395.16 210.463 1399.76 Q207.408 1404.35 201.598 1404.35 Q195.787 1404.35 192.709 1399.76 Q189.653 1395.16 189.653 1386.43 Q189.653 1377.68 192.709 1373.1 Q195.787 1368.49 201.598 1368.49 Z" fill="#000000" fill-rule="evenodd" fill-opacity="1" /><path clip-path="url(#clip870)" d="M127.2 1070.08 Q123.589 1070.08 121.76 1073.65 Q119.955 1077.19 119.955 1084.32 Q119.955 1091.42 121.76 1094.99 Q123.589 1098.53 127.2 1098.53 Q130.834 1098.53 132.64 1094.99 Q134.468 1091.42 134.468 1084.32 Q134.468 1077.19 132.64 1073.65 Q130.834 1070.08 127.2 1070.08 M127.2 1066.38 Q133.01 1066.38 136.066 1070.99 Q139.144 1075.57 139.144 1084.32 Q139.144 1093.05 136.066 1097.65 Q133.01 1102.23 127.2 1102.23 Q121.39 1102.23 118.311 1097.65 Q115.256 1093.05 115.256 1084.32 Q115.256 1075.57 118.311 1070.99 Q121.39 1066.38 127.2 1066.38 Z" fill="#000000" fill-rule="evenodd" fill-opacity="1" /><path clip-path="url(#clip870)" d="M147.362 1095.68 L152.246 1095.68 L152.246 1101.56 L147.362 1101.56 L147.362 1095.68 Z" fill="#000000" fill-rule="evenodd" fill-opacity="1" /><path clip-path="url(#clip870)" d="M172.431 1070.08 Q168.82 1070.08 166.991 1073.65 Q165.186 1077.19 165.186 1084.32 Q165.186 1091.42 166.991 1094.99 Q168.82 1098.53 172.431 1098.53 Q176.065 1098.53 177.871 1094.99 Q179.7 1091.42 179.7 1084.32 Q179.7 1077.19 177.871 1073.65 Q176.065 1070.08 172.431 1070.08 M172.431 1066.38 Q178.241 1066.38 181.297 1070.99 Q184.376 1075.57 184.376 1084.32 Q184.376 1093.05 181.297 1097.65 Q178.241 1102.23 172.431 1102.23 Q166.621 1102.23 163.542 1097.65 Q160.487 1093.05 160.487 1084.32 Q160.487 1075.57 163.542 1070.99 Q166.621 1066.38 172.431 1066.38 Z" fill="#000000" fill-rule="evenodd" fill-opacity="1" /><path clip-path="url(#clip870)" d="M192.639 1067 L210.996 1067 L210.996 1070.94 L196.922 1070.94 L196.922 1079.41 Q197.94 1079.06 198.959 1078.9 Q199.977 1078.72 200.996 1078.72 Q206.783 1078.72 210.162 1081.89 Q213.542 1085.06 213.542 1090.48 Q213.542 1096.05 210.07 1099.16 Q206.598 1102.23 200.278 1102.23 Q198.102 1102.23 195.834 1101.86 Q193.588 1101.49 191.181 1100.75 L191.181 1096.05 Q193.264 1097.19 195.487 1097.74 Q197.709 1098.3 200.186 1098.3 Q204.19 1098.3 206.528 1096.19 Q208.866 1094.09 208.866 1090.48 Q208.866 1086.86 206.528 1084.76 Q204.19 1082.65 200.186 1082.65 Q198.311 1082.65 196.436 1083.07 Q194.584 1083.49 192.639 1084.36 L192.639 1067 Z" fill="#000000" fill-rule="evenodd" fill-opacity="1" /><path clip-path="url(#clip870)" d="M126.205 767.97 Q122.593 767.97 120.765 771.535 Q118.959 775.077 118.959 782.206 Q118.959 789.313 120.765 792.878 Q122.593 796.419 126.205 796.419 Q129.839 796.419 131.644 792.878 Q133.473 789.313 133.473 782.206 Q133.473 775.077 131.644 771.535 Q129.839 767.97 126.205 767.97 M126.205 764.267 Q132.015 764.267 135.07 768.873 Q138.149 773.456 138.149 782.206 Q138.149 790.933 135.07 795.54 Q132.015 800.123 126.205 800.123 Q120.394 800.123 117.316 795.54 Q114.26 790.933 114.26 782.206 Q114.26 773.456 117.316 768.873 Q120.394 764.267 126.205 764.267 Z" fill="#000000" fill-rule="evenodd" fill-opacity="1" /><path clip-path="url(#clip870)" d="M146.366 793.572 L151.251 793.572 L151.251 799.452 L146.366 799.452 L146.366 793.572 Z" fill="#000000" fill-rule="evenodd" fill-opacity="1" /><path clip-path="url(#clip870)" d="M162.246 795.516 L169.885 795.516 L169.885 769.151 L161.575 770.818 L161.575 766.558 L169.839 764.892 L174.514 764.892 L174.514 795.516 L182.153 795.516 L182.153 799.452 L162.246 799.452 L162.246 795.516 Z" fill="#000000" fill-rule="evenodd" fill-opacity="1" /><path clip-path="url(#clip870)" d="M201.598 767.97 Q197.987 767.97 196.158 771.535 Q194.352 775.077 194.352 782.206 Q194.352 789.313 196.158 792.878 Q197.987 796.419 201.598 796.419 Q205.232 796.419 207.037 792.878 Q208.866 789.313 208.866 782.206 Q208.866 775.077 207.037 771.535 Q205.232 767.97 201.598 767.97 M201.598 764.267 Q207.408 764.267 210.463 768.873 Q213.542 773.456 213.542 782.206 Q213.542 790.933 210.463 795.54 Q207.408 800.123 201.598 800.123 Q195.787 800.123 192.709 795.54 Q189.653 790.933 189.653 782.206 Q189.653 773.456 192.709 768.873 Q195.787 764.267 201.598 764.267 Z" fill="#000000" fill-rule="evenodd" fill-opacity="1" /><path clip-path="url(#clip870)" d="M127.2 465.858 Q123.589 465.858 121.76 469.423 Q119.955 472.965 119.955 480.094 Q119.955 487.201 121.76 490.766 Q123.589 494.307 127.2 494.307 Q130.834 494.307 132.64 490.766 Q134.468 487.201 134.468 480.094 Q134.468 472.965 132.64 469.423 Q130.834 465.858 127.2 465.858 M127.2 462.155 Q133.01 462.155 136.066 466.761 Q139.144 471.344 139.144 480.094 Q139.144 488.821 136.066 493.428 Q133.01 498.011 127.2 498.011 Q121.39 498.011 118.311 493.428 Q115.256 488.821 115.256 480.094 Q115.256 471.344 118.311 466.761 Q121.39 462.155 127.2 462.155 Z" fill="#000000" fill-rule="evenodd" fill-opacity="1" /><path clip-path="url(#clip870)" d="M147.362 491.46 L152.246 491.46 L152.246 497.34 L147.362 497.34 L147.362 491.46 Z" fill="#000000" fill-rule="evenodd" fill-opacity="1" /><path clip-path="url(#clip870)" d="M163.241 493.404 L170.88 493.404 L170.88 467.039 L162.57 468.706 L162.57 464.446 L170.834 462.78 L175.51 462.78 L175.51 493.404 L183.149 493.404 L183.149 497.34 L163.241 497.34 L163.241 493.404 Z" fill="#000000" fill-rule="evenodd" fill-opacity="1" /><path clip-path="url(#clip870)" d="M192.639 462.78 L210.996 462.78 L210.996 466.715 L196.922 466.715 L196.922 475.187 Q197.94 474.84 198.959 474.678 Q199.977 474.493 200.996 474.493 Q206.783 474.493 210.162 477.664 Q213.542 480.835 213.542 486.252 Q213.542 491.83 210.07 494.932 Q206.598 498.011 200.278 498.011 Q198.102 498.011 195.834 497.641 Q193.588 497.27 191.181 496.529 L191.181 491.83 Q193.264 492.965 195.487 493.52 Q197.709 494.076 200.186 494.076 Q204.19 494.076 206.528 491.969 Q208.866 489.863 208.866 486.252 Q208.866 482.641 206.528 480.534 Q204.19 478.428 200.186 478.428 Q198.311 478.428 196.436 478.844 Q194.584 479.261 192.639 480.141 L192.639 462.78 Z" fill="#000000" fill-rule="evenodd" fill-opacity="1" /><path clip-path="url(#clip870)" d="M126.205 163.746 Q122.593 163.746 120.765 167.311 Q118.959 170.853 118.959 177.982 Q118.959 185.089 120.765 188.654 Q122.593 192.195 126.205 192.195 Q129.839 192.195 131.644 188.654 Q133.473 185.089 133.473 177.982 Q133.473 170.853 131.644 167.311 Q129.839 163.746 126.205 163.746 M126.205 160.043 Q132.015 160.043 135.07 164.649 Q138.149 169.232 138.149 177.982 Q138.149 186.709 135.07 191.316 Q132.015 195.899 126.205 195.899 Q120.394 195.899 117.316 191.316 Q114.26 186.709 114.26 177.982 Q114.26 169.232 117.316 164.649 Q120.394 160.043 126.205 160.043 Z" fill="#000000" fill-rule="evenodd" fill-opacity="1" /><path clip-path="url(#clip870)" d="M146.366 189.348 L151.251 189.348 L151.251 195.228 L146.366 195.228 L146.366 189.348 Z" fill="#000000" fill-rule="evenodd" fill-opacity="1" /><path clip-path="url(#clip870)" d="M165.464 191.292 L181.783 191.292 L181.783 195.228 L159.839 195.228 L159.839 191.292 Q162.501 188.538 167.084 183.908 Q171.69 179.255 172.871 177.913 Q175.116 175.39 175.996 173.654 Q176.899 171.894 176.899 170.205 Q176.899 167.45 174.954 165.714 Q173.033 163.978 169.931 163.978 Q167.732 163.978 165.278 164.742 Q162.848 165.506 160.07 167.056 L160.07 162.334 Q162.894 161.2 165.348 160.621 Q167.802 160.043 169.839 160.043 Q175.209 160.043 178.403 162.728 Q181.598 165.413 181.598 169.904 Q181.598 172.033 180.788 173.955 Q180.001 175.853 177.894 178.445 Q177.315 179.117 174.214 182.334 Q171.112 185.529 165.464 191.292 Z" fill="#000000" fill-rule="evenodd" fill-opacity="1" /><path clip-path="url(#clip870)" d="M201.598 163.746 Q197.987 163.746 196.158 167.311 Q194.352 170.853 194.352 177.982 Q194.352 185.089 196.158 188.654 Q197.987 192.195 201.598 192.195 Q205.232 192.195 207.037 188.654 Q208.866 185.089 208.866 177.982 Q208.866 170.853 207.037 167.311 Q205.232 163.746 201.598 163.746 M201.598 160.043 Q207.408 160.043 210.463 164.649 Q213.542 169.232 213.542 177.982 Q213.542 186.709 210.463 191.316 Q207.408 195.899 201.598 195.899 Q195.787 195.899 192.709 191.316 Q189.653 186.709 189.653 177.982 Q189.653 169.232 192.709 164.649 Q195.787 160.043 201.598 160.043 Z" fill="#000000" fill-rule="evenodd" fill-opacity="1" /><path clip-path="url(#clip870)" d="M41.3104 1089.3 L58.7206 1089.3 L58.7206 1078.99 Q58.7206 1073.8 56.5881 1071.32 Q54.4238 1068.81 49.9996 1068.81 Q45.5436 1068.81 43.4429 1071.32 Q41.3104 1073.8 41.3104 1078.99 L41.3104 1089.3 M21.7677 1089.3 L36.0905 1089.3 L36.0905 1079.79 Q36.0905 1075.08 34.34 1072.78 Q32.5576 1070.46 28.9291 1070.46 Q25.3325 1070.46 23.5501 1072.78 Q21.7677 1075.08 21.7677 1079.79 L21.7677 1089.3 M16.4842 1095.73 L16.4842 1079.31 Q16.4842 1071.96 19.5397 1067.98 Q22.5952 1064 28.2289 1064 Q32.5894 1064 35.1675 1066.04 Q37.7456 1068.07 38.3822 1072.02 Q39.4007 1067.28 42.6472 1064.67 Q45.8619 1062.03 50.6998 1062.03 Q57.0655 1062.03 60.5348 1066.36 Q64.0042 1070.68 64.0042 1078.67 L64.0042 1095.73 L16.4842 1095.73 Z" fill="#000000" fill-rule="evenodd" fill-opacity="1" /><path clip-path="url(#clip870)" d="M32.4621 1037.46 Q32.4621 1042.17 36.1542 1044.9 Q39.8145 1047.64 46.212 1047.64 Q52.6095 1047.64 56.3017 1044.93 Q59.9619 1042.2 59.9619 1037.46 Q59.9619 1032.78 56.2698 1030.04 Q52.5777 1027.3 46.212 1027.3 Q39.8781 1027.3 36.186 1030.04 Q32.4621 1032.78 32.4621 1037.46 M27.4968 1037.46 Q27.4968 1029.82 32.4621 1025.46 Q37.4273 1021.1 46.212 1021.1 Q54.9649 1021.1 59.9619 1025.46 Q64.9272 1029.82 64.9272 1037.46 Q64.9272 1045.13 59.9619 1049.49 Q54.9649 1053.81 46.212 1053.81 Q37.4273 1053.81 32.4621 1049.49 Q27.4968 1045.13 27.4968 1037.46 Z" fill="#000000" fill-rule="evenodd" fill-opacity="1" /><path clip-path="url(#clip870)" d="M18.2347 1005.59 L28.3562 1005.59 L28.3562 993.532 L32.9077 993.532 L32.9077 1005.59 L52.2594 1005.59 Q56.6199 1005.59 57.8613 1004.42 Q59.1026 1003.21 59.1026 999.547 L59.1026 993.532 L64.0042 993.532 L64.0042 999.547 Q64.0042 1006.33 61.4897 1008.9 Q58.9434 1011.48 52.2594 1011.48 L32.9077 1011.48 L32.9077 1015.78 L28.3562 1015.78 L28.3562 1011.48 L18.2347 1011.48 L18.2347 1005.59 Z" fill="#000000" fill-rule="evenodd" fill-opacity="1" /><path clip-path="url(#clip870)" d="M18.2347 980.036 L28.3562 980.036 L28.3562 967.973 L32.9077 967.973 L32.9077 980.036 L52.2594 980.036 Q56.6199 980.036 57.8613 978.859 Q59.1026 977.649 59.1026 973.989 L59.1026 967.973 L64.0042 967.973 L64.0042 973.989 Q64.0042 980.768 61.4897 983.347 Q58.9434 985.925 52.2594 985.925 L32.9077 985.925 L32.9077 990.222 L28.3562 990.222 L28.3562 985.925 L18.2347 985.925 L18.2347 980.036 Z" fill="#000000" fill-rule="evenodd" fill-opacity="1" /><path clip-path="url(#clip870)" d="M14.479 960.271 L14.479 954.414 L64.0042 954.414 L64.0042 960.271 L14.479 960.271 Z" fill="#000000" fill-rule="evenodd" fill-opacity="1" /><path clip-path="url(#clip870)" d="M44.7161 911.669 L47.5806 911.669 L47.5806 938.596 Q53.6281 938.214 56.8109 934.967 Q59.9619 931.689 59.9619 925.864 Q59.9619 922.49 59.1344 919.339 Q58.3069 916.157 56.6518 913.037 L62.1899 913.037 Q63.5267 916.188 64.227 919.499 Q64.9272 922.809 64.9272 926.214 Q64.9272 934.744 59.9619 939.741 Q54.9967 944.707 46.5303 944.707 Q37.7774 944.707 32.6531 939.996 Q27.4968 935.254 27.4968 927.233 Q27.4968 920.04 32.1438 915.87 Q36.7589 911.669 44.7161 911.669 M42.9973 917.525 Q38.1912 917.589 35.3266 920.231 Q32.4621 922.841 32.4621 927.169 Q32.4621 932.071 35.2312 935.031 Q38.0002 937.959 43.0292 938.405 L42.9973 917.525 Z" fill="#000000" fill-rule="evenodd" fill-opacity="1" /><path clip-path="url(#clip870)" d="M42.4881 872.424 L64.0042 872.424 L64.0042 878.281 L42.679 878.281 Q37.6183 878.281 35.1038 880.254 Q32.5894 882.227 32.5894 886.174 Q32.5894 890.916 35.6131 893.654 Q38.6368 896.391 43.8567 896.391 L64.0042 896.391 L64.0042 902.279 L28.3562 902.279 L28.3562 896.391 L33.8944 896.391 Q30.6797 894.29 29.0883 891.458 Q27.4968 888.593 27.4968 884.869 Q27.4968 878.726 31.3163 875.575 Q35.1038 872.424 42.4881 872.424 Z" fill="#000000" fill-rule="evenodd" fill-opacity="1" /><path clip-path="url(#clip870)" d="M44.7161 830.251 L47.5806 830.251 L47.5806 857.178 Q53.6281 856.796 56.8109 853.55 Q59.9619 850.271 59.9619 844.447 Q59.9619 841.073 59.1344 837.922 Q58.3069 834.739 56.6518 831.62 L62.1899 831.62 Q63.5267 834.771 64.227 838.081 Q64.9272 841.391 64.9272 844.797 Q64.9272 853.327 59.9619 858.324 Q54.9967 863.289 46.5303 863.289 Q37.7774 863.289 32.6531 858.579 Q27.4968 853.836 27.4968 845.815 Q27.4968 838.622 32.1438 834.453 Q36.7589 830.251 44.7161 830.251 M42.9973 836.108 Q38.1912 836.171 35.3266 838.813 Q32.4621 841.423 32.4621 845.752 Q32.4621 850.653 35.2312 853.613 Q38.0002 856.542 43.0292 856.987 L42.9973 836.108 Z" fill="#000000" fill-rule="evenodd" fill-opacity="1" /><path clip-path="url(#clip870)" d="M29.7248 794.985 L35.1993 794.985 Q33.8307 797.468 33.1623 799.982 Q32.4621 802.465 32.4621 805.011 Q32.4621 810.709 36.0905 813.86 Q39.6872 817.011 46.212 817.011 Q52.7369 817.011 56.3653 813.86 Q59.9619 810.709 59.9619 805.011 Q59.9619 802.465 59.2935 799.982 Q58.5933 797.468 57.2247 794.985 L62.6355 794.985 Q63.7814 797.436 64.3543 800.078 Q64.9272 802.688 64.9272 805.648 Q64.9272 813.7 59.8664 818.443 Q54.8057 823.185 46.212 823.185 Q37.491 823.185 32.4939 818.411 Q27.4968 813.605 27.4968 805.266 Q27.4968 802.56 28.0697 799.982 Q28.6108 797.404 29.7248 794.985 Z" fill="#000000" fill-rule="evenodd" fill-opacity="1" /><path clip-path="url(#clip870)" d="M14.479 785.023 L14.479 779.135 L43.7294 779.135 L28.3562 761.661 L28.3562 754.181 L45.0344 773.087 L64.0042 753.385 L64.0042 761.024 L46.5939 779.135 L64.0042 779.135 L64.0042 785.023 L14.479 785.023 Z" fill="#000000" fill-rule="evenodd" fill-opacity="1" /><path clip-path="url(#clip870)" d="M21.7677 719.647 L58.7206 719.647 L58.7206 711.881 Q58.7206 702.046 54.2646 697.495 Q49.8086 692.911 40.1964 692.911 Q30.6479 692.911 26.2237 697.495 Q21.7677 702.046 21.7677 711.881 L21.7677 719.647 M16.4842 726.077 L16.4842 712.868 Q16.4842 699.054 22.2451 692.593 Q27.9743 686.132 40.1964 686.132 Q52.4822 686.132 58.2432 692.625 Q64.0042 699.118 64.0042 712.868 L64.0042 726.077 L16.4842 726.077 Z" fill="#000000" fill-rule="evenodd" fill-opacity="1" /><path clip-path="url(#clip870)" d="M28.3562 676.138 L28.3562 670.281 L64.0042 670.281 L64.0042 676.138 L28.3562 676.138 M14.479 676.138 L14.479 670.281 L21.895 670.281 L21.895 676.138 L14.479 676.138 Z" fill="#000000" fill-rule="evenodd" fill-opacity="1" /><path clip-path="url(#clip870)" d="M29.4065 635.302 L34.9447 635.302 Q33.6716 637.784 33.035 640.458 Q32.3984 643.131 32.3984 645.996 Q32.3984 650.356 33.7352 652.553 Q35.072 654.717 37.7456 654.717 Q39.7826 654.717 40.9603 653.157 Q42.1061 651.598 43.1565 646.887 L43.6021 644.882 Q44.9389 638.644 47.3897 636.034 Q49.8086 633.392 54.1691 633.392 Q59.1344 633.392 62.0308 637.339 Q64.9272 641.253 64.9272 648.128 Q64.9272 650.993 64.3543 654.112 Q63.8132 657.2 62.6992 660.637 L56.6518 660.637 Q58.3387 657.391 59.198 654.24 Q60.0256 651.089 60.0256 648.001 Q60.0256 643.863 58.6251 641.635 Q57.1929 639.407 54.6147 639.407 Q52.2276 639.407 50.9545 641.031 Q49.6813 642.622 48.5037 648.065 L48.0262 650.102 Q46.8804 655.544 44.5251 657.963 Q42.138 660.382 38.0002 660.382 Q32.9713 660.382 30.2341 656.818 Q27.4968 653.253 27.4968 646.696 Q27.4968 643.45 27.9743 640.585 Q28.4517 637.721 29.4065 635.302 Z" fill="#000000" fill-rule="evenodd" fill-opacity="1" /><path clip-path="url(#clip870)" d="M18.2347 618.273 L28.3562 618.273 L28.3562 606.21 L32.9077 606.21 L32.9077 618.273 L52.2594 618.273 Q56.6199 618.273 57.8613 617.096 Q59.1026 615.886 59.1026 612.226 L59.1026 606.21 L64.0042 606.21 L64.0042 612.226 Q64.0042 619.005 61.4897 621.583 Q58.9434 624.162 52.2594 624.162 L32.9077 624.162 L32.9077 628.458 L28.3562 628.458 L28.3562 624.162 L18.2347 624.162 L18.2347 618.273 Z" fill="#000000" fill-rule="evenodd" fill-opacity="1" /><path clip-path="url(#clip870)" d="M46.0847 582.307 Q46.0847 589.405 47.7079 592.142 Q49.3312 594.879 53.2461 594.879 Q56.3653 594.879 58.2114 592.842 Q60.0256 590.773 60.0256 587.24 Q60.0256 582.371 56.5881 579.442 Q53.1188 576.482 47.3897 576.482 L46.0847 576.482 L46.0847 582.307 M43.6657 570.626 L64.0042 570.626 L64.0042 576.482 L58.5933 576.482 Q61.8398 578.488 63.3994 581.48 Q64.9272 584.471 64.9272 588.8 Q64.9272 594.275 61.8716 597.521 Q58.7843 600.736 53.6281 600.736 Q47.6125 600.736 44.5569 596.725 Q41.5014 592.683 41.5014 584.694 L41.5014 576.482 L40.9285 576.482 Q36.8862 576.482 34.6901 579.156 Q32.4621 581.798 32.4621 586.604 Q32.4621 589.659 33.1941 592.556 Q33.9262 595.452 35.3903 598.126 L29.9795 598.126 Q28.7381 594.911 28.1334 591.887 Q27.4968 588.864 27.4968 585.999 Q27.4968 578.265 31.5072 574.445 Q35.5176 570.626 43.6657 570.626 Z" fill="#000000" fill-rule="evenodd" fill-opacity="1" /><path clip-path="url(#clip870)" d="M42.4881 528.931 L64.0042 528.931 L64.0042 534.787 L42.679 534.787 Q37.6183 534.787 35.1038 536.76 Q32.5894 538.734 32.5894 542.681 Q32.5894 547.423 35.6131 550.16 Q38.6368 552.897 43.8567 552.897 L64.0042 552.897 L64.0042 558.786 L28.3562 558.786 L28.3562 552.897 L33.8944 552.897 Q30.6797 550.797 29.0883 547.964 Q27.4968 545.099 27.4968 541.376 Q27.4968 535.233 31.3163 532.082 Q35.1038 528.931 42.4881 528.931 Z" fill="#000000" fill-rule="evenodd" fill-opacity="1" /><path clip-path="url(#clip870)" d="M29.7248 491.596 L35.1993 491.596 Q33.8307 494.078 33.1623 496.593 Q32.4621 499.075 32.4621 501.622 Q32.4621 507.319 36.0905 510.47 Q39.6872 513.621 46.212 513.621 Q52.7369 513.621 56.3653 510.47 Q59.9619 507.319 59.9619 501.622 Q59.9619 499.075 59.2935 496.593 Q58.5933 494.078 57.2247 491.596 L62.6355 491.596 Q63.7814 494.047 64.3543 496.688 Q64.9272 499.298 64.9272 502.258 Q64.9272 510.311 59.8664 515.053 Q54.8057 519.796 46.212 519.796 Q37.491 519.796 32.4939 515.022 Q27.4968 510.215 27.4968 501.876 Q27.4968 499.171 28.0697 496.593 Q28.6108 494.015 29.7248 491.596 Z" fill="#000000" fill-rule="evenodd" fill-opacity="1" /><path clip-path="url(#clip870)" d="M44.7161 450.919 L47.5806 450.919 L47.5806 477.846 Q53.6281 477.464 56.8109 474.217 Q59.9619 470.939 59.9619 465.114 Q59.9619 461.741 59.1344 458.59 Q58.3069 455.407 56.6518 452.287 L62.1899 452.287 Q63.5267 455.439 64.227 458.749 Q64.9272 462.059 64.9272 465.464 Q64.9272 473.995 59.9619 478.992 Q54.9967 483.957 46.5303 483.957 Q37.7774 483.957 32.6531 479.246 Q27.4968 474.504 27.4968 466.483 Q27.4968 459.29 32.1438 455.12 Q36.7589 450.919 44.7161 450.919 M42.9973 456.775 Q38.1912 456.839 35.3266 459.481 Q32.4621 462.091 32.4621 466.419 Q32.4621 471.321 35.2312 474.281 Q38.0002 477.209 43.0292 477.655 L42.9973 456.775 Z" fill="#000000" fill-rule="evenodd" fill-opacity="1" /><path clip-path="url(#clip870)" d="M1142.45 34.4165 Q1140.96 33.8899 1139.46 33.4848 Q1135.45 32.4315 1131.15 32.4315 Q1123.74 32.4315 1119.61 36.4419 Q1115.76 40.1688 1115.03 47.0148 L1142.45 47.0148 L1142.45 52.8481 L1115.03 52.8481 Q1115.76 59.6941 1119.61 63.421 Q1123.74 67.4314 1131.15 67.4314 Q1136.34 67.4314 1139.46 66.3781 L1142.45 65.3654 L1142.45 72.1304 L1139.25 72.8596 Q1135.04 73.7508 1130.71 73.7508 Q1119.85 73.7508 1113.53 67.4314 Q1107.17 61.1119 1107.17 49.9314 Q1107.17 38.7509 1113.53 32.4315 Q1119.85 26.1121 1130.71 26.1121 Q1134.8 26.1121 1139.25 27.0033 Q1140.87 27.3274 1142.45 27.8135 L1142.45 34.4165 Z" fill="#000000" fill-rule="evenodd" fill-opacity="1" /><path clip-path="url(#clip870)" d="M1162.43 34.9026 L1214.36 34.9026 L1214.36 41.7081 L1162.43 41.7081 L1162.43 34.9026 M1162.43 51.4303 L1214.36 51.4303 L1214.36 58.3168 L1162.43 58.3168 L1162.43 51.4303 Z" fill="#000000" fill-rule="evenodd" fill-opacity="1" /><path clip-path="url(#clip870)" d="M1230.97 9.54393 L1238.42 9.54393 L1238.42 72.576 L1230.97 72.576 L1230.97 9.54393 Z" fill="#000000" fill-rule="evenodd" fill-opacity="1" /><path clip-path="url(#clip870)" d="M1271.6 32.4315 Q1265.6 32.4315 1262.12 37.1306 Q1258.63 41.7891 1258.63 49.9314 Q1258.63 58.0738 1262.08 62.7728 Q1265.56 67.4314 1271.6 67.4314 Q1277.55 67.4314 1281.04 62.7323 Q1284.52 58.0333 1284.52 49.9314 Q1284.52 41.8701 1281.04 37.1711 Q1277.55 32.4315 1271.6 32.4315 M1271.6 26.1121 Q1281.32 26.1121 1286.87 32.4315 Q1292.42 38.7509 1292.42 49.9314 Q1292.42 61.0714 1286.87 67.4314 Q1281.32 73.7508 1271.6 73.7508 Q1261.83 73.7508 1256.29 67.4314 Q1250.78 61.0714 1250.78 49.9314 Q1250.78 38.7509 1256.29 32.4315 Q1261.83 26.1121 1271.6 26.1121 Z" fill="#000000" fill-rule="evenodd" fill-opacity="1" /><path clip-path="url(#clip870)" d="M1334.63 49.3643 Q1334.63 41.2625 1331.27 36.8065 Q1327.95 32.3505 1321.91 32.3505 Q1315.91 32.3505 1312.55 36.8065 Q1309.23 41.2625 1309.23 49.3643 Q1309.23 57.4256 1312.55 61.8816 Q1315.91 66.3376 1321.91 66.3376 Q1327.95 66.3376 1331.27 61.8816 Q1334.63 57.4256 1334.63 49.3643 M1342.08 66.9452 Q1342.08 78.5308 1336.94 84.1616 Q1331.79 89.8329 1321.18 89.8329 Q1317.25 89.8329 1313.77 89.2252 Q1310.28 88.6581 1307 87.4428 L1307 80.1917 Q1310.28 81.9741 1313.48 82.8248 Q1316.68 83.6755 1320.01 83.6755 Q1327.34 83.6755 1330.98 79.8271 Q1334.63 76.0193 1334.63 68.282 L1334.63 64.5957 Q1332.32 68.6061 1328.72 70.5911 Q1325.11 72.576 1320.09 72.576 Q1311.74 72.576 1306.64 66.2161 Q1301.53 59.8562 1301.53 49.3643 Q1301.53 38.832 1306.64 32.472 Q1311.74 26.1121 1320.09 26.1121 Q1325.11 26.1121 1328.72 28.0971 Q1332.32 30.082 1334.63 34.0924 L1334.63 27.2059 L1342.08 27.2059 L1342.08 66.9452 Z" fill="#000000" fill-rule="evenodd" fill-opacity="1" /><path clip-path="url(#clip870)" d="M1354.36 10.2326 L1359.1 10.2326 L1359.1 31.0542 L1373.11 20.1168 L1379.11 20.1168 L1363.92 31.9859 L1379.72 45.516 L1373.6 45.516 L1359.1 33.1202 L1359.1 45.516 L1354.36 45.516 L1354.36 10.2326 Z" fill="#000000" fill-rule="evenodd" fill-opacity="1" /><path clip-path="url(#clip870)" d="M1410.67 9.62495 Q1405.24 18.942 1402.6 28.0566 Q1399.97 37.1711 1399.97 46.5287 Q1399.97 55.8863 1402.6 65.0818 Q1405.28 74.2369 1410.67 83.5134 L1404.18 83.5134 Q1398.11 73.9938 1395.07 64.7983 Q1392.07 55.6027 1392.07 46.5287 Q1392.07 37.4952 1395.07 28.3401 Q1398.07 19.1851 1404.18 9.62495 L1410.67 9.62495 Z" fill="#000000" fill-rule="evenodd" fill-opacity="1" /><path clip-path="url(#clip870)" d="M1462.84 45.1919 L1462.84 72.576 L1455.39 72.576 L1455.39 45.4349 Q1455.39 38.994 1452.88 35.7938 Q1450.36 32.5936 1445.34 32.5936 Q1439.31 32.5936 1435.82 36.4419 Q1432.34 40.2903 1432.34 46.9338 L1432.34 72.576 L1424.84 72.576 L1424.84 27.2059 L1432.34 27.2059 L1432.34 34.2544 Q1435.01 30.163 1438.62 28.1376 Q1442.26 26.1121 1447 26.1121 Q1454.82 26.1121 1458.83 30.9732 Q1462.84 35.7938 1462.84 45.1919 Z" fill="#000000" fill-rule="evenodd" fill-opacity="1" /><path clip-path="url(#clip870)" d="M1476.53 9.62495 L1483.01 9.62495 Q1489.09 19.1851 1492.09 28.3401 Q1495.13 37.4952 1495.13 46.5287 Q1495.13 55.6027 1492.09 64.7983 Q1489.09 73.9938 1483.01 83.5134 L1476.53 83.5134 Q1481.92 74.2369 1484.55 65.0818 Q1487.23 55.8863 1487.23 46.5287 Q1487.23 37.1711 1484.55 28.0566 Q1481.92 18.942 1476.53 9.62495 Z" fill="#000000" fill-rule="evenodd" fill-opacity="1" /><polyline clip-path="url(#clip872)" style="stroke:#009af9; stroke-linecap:butt; stroke-linejoin:round; stroke-width:12; stroke-opacity:1; fill:none" points="
  309.067,160.256 471.04,1014.87 673.505,930.494 1078.44,786.328 2293.23,1386.4 
  "/>
<path clip-path="url(#clip872)" d="M309.067 176.256 L297.755 171.568 L293.067 160.256 L297.755 148.944 L309.067 144.256 L320.379 148.944 L325.067 160.256 L320.379 171.568 Z" fill="#009af9" fill-rule="evenodd" fill-opacity="1" stroke="#000000" stroke-opacity="1" stroke-width="3.2"/>
<path clip-path="url(#clip872)" d="M471.04 1030.87 L459.728 1026.19 L455.04 1014.87 L459.728 1003.56 L471.04 998.874 L482.352 1003.56 L487.04 1014.87 L482.352 1026.19 Z" fill="#009af9" fill-rule="evenodd" fill-opacity="1" stroke="#000000" stroke-opacity="1" stroke-width="3.2"/>
<path clip-path="url(#clip872)" d="M673.505 946.494 L662.193 941.806 L657.505 930.494 L662.193 919.182 L673.505 914.494 L684.817 919.182 L689.505 930.494 L684.817 941.806 Z" fill="#009af9" fill-rule="evenodd" fill-opacity="1" stroke="#000000" stroke-opacity="1" stroke-width="3.2"/>
<path clip-path="url(#clip872)" d="M1078.44 802.328 L1067.12 797.64 L1062.44 786.328 L1067.12 775.016 L1078.44 770.328 L1089.75 775.016 L1094.44 786.328 L1089.75 797.64 Z" fill="#009af9" fill-rule="evenodd" fill-opacity="1" stroke="#000000" stroke-opacity="1" stroke-width="3.2"/>
<path clip-path="url(#clip872)" d="M2293.23 1402.4 L2281.92 1397.71 L2277.23 1386.4 L2281.92 1375.08 L2293.23 1370.4 L2304.54 1375.08 L2309.23 1386.4 L2304.54 1397.71 Z" fill="#009af9" fill-rule="evenodd" fill-opacity="1" stroke="#000000" stroke-opacity="1" stroke-width="3.2"/>
<polyline clip-path="url(#clip872)" style="stroke:#e26f46; stroke-linecap:butt; stroke-linejoin:round; stroke-width:12; stroke-opacity:1; fill:none" points="
  309.067,518.181 471.04,989.018 673.505,910.821 1078.44,1235.67 2293.23,1386.4 
  "/>
<path clip-path="url(#clip872)" d="M309.067 534.181 L297.755 529.493 L293.067 518.181 L297.755 506.869 L309.067 502.181 L320.379 506.869 L325.067 518.181 L320.379 529.493 Z" fill="#e26f46" fill-rule="evenodd" fill-opacity="1" stroke="#000000" stroke-opacity="1" stroke-width="3.2"/>
<path clip-path="url(#clip872)" d="M471.04 1005.02 L459.728 1000.33 L455.04 989.018 L459.728 977.706 L471.04 973.018 L482.352 977.706 L487.04 989.018 L482.352 1000.33 Z" fill="#e26f46" fill-rule="evenodd" fill-opacity="1" stroke="#000000" stroke-opacity="1" stroke-width="3.2"/>
<path clip-path="url(#clip872)" d="M673.505 926.821 L662.193 922.133 L657.505 910.821 L662.193 899.509 L673.505 894.821 L684.817 899.509 L689.505 910.821 L684.817 922.133 Z" fill="#e26f46" fill-rule="evenodd" fill-opacity="1" stroke="#000000" stroke-opacity="1" stroke-width="3.2"/>
<path clip-path="url(#clip872)" d="M1078.44 1251.67 L1067.12 1246.98 L1062.44 1235.67 L1067.12 1224.35 L1078.44 1219.67 L1089.75 1224.35 L1094.44 1235.67 L1089.75 1246.98 Z" fill="#e26f46" fill-rule="evenodd" fill-opacity="1" stroke="#000000" stroke-opacity="1" stroke-width="3.2"/>
<path clip-path="url(#clip872)" d="M2293.23 1402.4 L2281.92 1397.71 L2277.23 1386.4 L2281.92 1375.08 L2293.23 1370.4 L2304.54 1375.08 L2309.23 1386.4 L2304.54 1397.71 Z" fill="#e26f46" fill-rule="evenodd" fill-opacity="1" stroke="#000000" stroke-opacity="1" stroke-width="3.2"/>
<path clip-path="url(#clip870)" d="
M1883.68 322.316 L2282.65 322.316 L2282.65 166.796 L1883.68 166.796  Z
  " fill="#ffffff" fill-rule="evenodd" fill-opacity="1"/>
<polyline clip-path="url(#clip870)" style="stroke:#000000; stroke-linecap:butt; stroke-linejoin:round; stroke-width:4; stroke-opacity:1; fill:none" points="
  1883.68,322.316 2282.65,322.316 2282.65,166.796 1883.68,166.796 1883.68,322.316 
  "/>
<polyline clip-path="url(#clip870)" style="stroke:#009af9; stroke-linecap:butt; stroke-linejoin:round; stroke-width:4; stroke-opacity:1; fill:none" points="
  1907.05,218.636 2047.26,218.636 
  "/>
<path clip-path="url(#clip870)" d="M1977.16 244.236 L1959.06 236.735 L1951.56 218.636 L1959.06 200.537 L1977.16 193.036 L1995.26 200.537 L2002.76 218.636 L1995.26 236.735 Z" fill="#009af9" fill-rule="evenodd" fill-opacity="1" stroke="#000000" stroke-opacity="1" stroke-width="5.12"/>
<path clip-path="url(#clip870)" d="M2070.63 199.897 L2074.92 199.897 L2074.92 221.17 L2087.62 209.99 L2093.06 209.99 L2079.31 222.119 L2093.64 235.916 L2088.09 235.916 L2074.92 223.254 L2074.92 235.916 L2070.63 235.916 L2070.63 199.897 Z" fill="#000000" fill-rule="evenodd" fill-opacity="1" /><path clip-path="url(#clip870)" d="M2098.8 214.388 L2128.48 214.388 L2128.48 218.277 L2098.8 218.277 L2098.8 214.388 M2098.8 223.832 L2128.48 223.832 L2128.48 227.768 L2098.8 227.768 L2098.8 223.832 Z" fill="#000000" fill-rule="evenodd" fill-opacity="1" /><path clip-path="url(#clip870)" d="M2148.57 204.434 Q2144.96 204.434 2143.13 207.999 Q2141.33 211.541 2141.33 218.67 Q2141.33 225.777 2143.13 229.342 Q2144.96 232.883 2148.57 232.883 Q2152.21 232.883 2154.01 229.342 Q2155.84 225.777 2155.84 218.67 Q2155.84 211.541 2154.01 207.999 Q2152.21 204.434 2148.57 204.434 M2148.57 200.731 Q2154.38 200.731 2157.44 205.337 Q2160.52 209.92 2160.52 218.67 Q2160.52 227.397 2157.44 232.004 Q2154.38 236.587 2148.57 236.587 Q2142.76 236.587 2139.68 232.004 Q2136.63 227.397 2136.63 218.67 Q2136.63 209.92 2139.68 205.337 Q2142.76 200.731 2148.57 200.731 Z" fill="#000000" fill-rule="evenodd" fill-opacity="1" /><path clip-path="url(#clip870)" d="M2168.74 230.036 L2173.62 230.036 L2173.62 235.916 L2168.74 235.916 L2168.74 230.036 Z" fill="#000000" fill-rule="evenodd" fill-opacity="1" /><path clip-path="url(#clip870)" d="M2183.85 201.356 L2202.21 201.356 L2202.21 205.291 L2188.13 205.291 L2188.13 213.763 Q2189.15 213.416 2190.17 213.254 Q2191.19 213.069 2192.21 213.069 Q2197.99 213.069 2201.37 216.24 Q2204.75 219.411 2204.75 224.828 Q2204.75 230.406 2201.28 233.508 Q2197.81 236.587 2191.49 236.587 Q2189.31 236.587 2187.05 236.217 Q2184.8 235.846 2182.39 235.106 L2182.39 230.406 Q2184.48 231.541 2186.7 232.096 Q2188.92 232.652 2191.4 232.652 Q2195.4 232.652 2197.74 230.545 Q2200.08 228.439 2200.08 224.828 Q2200.08 221.217 2197.74 219.11 Q2195.4 217.004 2191.4 217.004 Q2189.52 217.004 2187.65 217.42 Q2185.8 217.837 2183.85 218.717 L2183.85 201.356 Z" fill="#000000" fill-rule="evenodd" fill-opacity="1" /><polyline clip-path="url(#clip870)" style="stroke:#e26f46; stroke-linecap:butt; stroke-linejoin:round; stroke-width:4; stroke-opacity:1; fill:none" points="
  1907.05,270.476 2047.26,270.476 
  "/>
<path clip-path="url(#clip870)" d="M1977.16 296.076 L1959.06 288.575 L1951.56 270.476 L1959.06 252.377 L1977.16 244.876 L1995.26 252.377 L2002.76 270.476 L1995.26 288.575 Z" fill="#e26f46" fill-rule="evenodd" fill-opacity="1" stroke="#000000" stroke-opacity="1" stroke-width="5.12"/>
<path clip-path="url(#clip870)" d="M2070.63 251.737 L2074.92 251.737 L2074.92 273.01 L2087.62 261.83 L2093.06 261.83 L2079.31 273.959 L2093.64 287.756 L2088.09 287.756 L2074.92 275.094 L2074.92 287.756 L2070.63 287.756 L2070.63 251.737 Z" fill="#000000" fill-rule="evenodd" fill-opacity="1" /><path clip-path="url(#clip870)" d="M2098.8 266.228 L2128.48 266.228 L2128.48 270.117 L2098.8 270.117 L2098.8 266.228 M2098.8 275.672 L2128.48 275.672 L2128.48 279.608 L2098.8 279.608 L2098.8 275.672 Z" fill="#000000" fill-rule="evenodd" fill-opacity="1" /><path clip-path="url(#clip870)" d="M2139.38 283.821 L2147.02 283.821 L2147.02 257.455 L2138.71 259.122 L2138.71 254.862 L2146.98 253.196 L2151.65 253.196 L2151.65 283.821 L2159.29 283.821 L2159.29 287.756 L2139.38 287.756 L2139.38 283.821 Z" fill="#000000" fill-rule="evenodd" fill-opacity="1" /><path clip-path="url(#clip870)" d="M2168.74 281.876 L2173.62 281.876 L2173.62 287.756 L2168.74 287.756 L2168.74 281.876 Z" fill="#000000" fill-rule="evenodd" fill-opacity="1" /><path clip-path="url(#clip870)" d="M2193.8 256.274 Q2190.19 256.274 2188.36 259.839 Q2186.56 263.381 2186.56 270.51 Q2186.56 277.617 2188.36 281.182 Q2190.19 284.723 2193.8 284.723 Q2197.44 284.723 2199.24 281.182 Q2201.07 277.617 2201.07 270.51 Q2201.07 263.381 2199.24 259.839 Q2197.44 256.274 2193.8 256.274 M2193.8 252.571 Q2199.61 252.571 2202.67 257.177 Q2205.75 261.76 2205.75 270.51 Q2205.75 279.237 2202.67 283.844 Q2199.61 288.427 2193.8 288.427 Q2187.99 288.427 2184.92 283.844 Q2181.86 279.237 2181.86 270.51 Q2181.86 261.76 2184.92 257.177 Q2187.99 252.571 2193.8 252.571 Z" fill="#000000" fill-rule="evenodd" fill-opacity="1" /><path clip-path="url(#clip870)" d="M2223.97 256.274 Q2220.36 256.274 2218.53 259.839 Q2216.72 263.381 2216.72 270.51 Q2216.72 277.617 2218.53 281.182 Q2220.36 284.723 2223.97 284.723 Q2227.6 284.723 2229.41 281.182 Q2231.23 277.617 2231.23 270.51 Q2231.23 263.381 2229.41 259.839 Q2227.6 256.274 2223.97 256.274 M2223.97 252.571 Q2229.78 252.571 2232.83 257.177 Q2235.91 261.76 2235.91 270.51 Q2235.91 279.237 2232.83 283.844 Q2229.78 288.427 2223.97 288.427 Q2218.16 288.427 2215.08 283.844 Q2212.02 279.237 2212.02 270.51 Q2212.02 261.76 2215.08 257.177 Q2218.16 252.571 2223.97 252.571 Z" fill="#000000" fill-rule="evenodd" fill-opacity="1" /></svg>
