<?xml version="1.0" encoding="utf-8"?>
<svg xmlns="http://www.w3.org/2000/svg" xmlns:xlink="http://www.w3.org/1999/xlink" width="600" height="400" viewBox="0 0 2400 1600">
<defs>
  <clipPath id="clip420">
    <rect x="0" y="0" width="2400" height="1600"/>
  </clipPath>
</defs>
<path clip-path="url(#clip420)" d="
M0 1600 L2400 1600 L2400 0 L0 0  Z
  " fill="#ffffff" fill-rule="evenodd" fill-opacity="1"/>
<defs>
  <clipPath id="clip421">
    <rect x="480" y="0" width="1681" height="1600"/>
  </clipPath>
</defs>
<path clip-path="url(#clip420)" d="
M156.598 1486.45 L2352.76 1486.45 L2352.76 123.472 L156.598 123.472  Z
  " fill="#ffffff" fill-rule="evenodd" fill-opacity="1"/>
<defs>
  <clipPath id="clip422">
    <rect x="156" y="123" width="2197" height="1364"/>
  </clipPath>
</defs>
<polyline clip-path="url(#clip422)" style="stroke:#000000; stroke-linecap:butt; stroke-linejoin:round; stroke-width:2; stroke-opacity:0.1; fill:none" points="
  176.471,1486.45 176.471,123.472 
  "/>
<polyline clip-path="url(#clip422)" style="stroke:#000000; stroke-linecap:butt; stroke-linejoin:round; stroke-width:2; stroke-opacity:0.1; fill:none" points="
  599.297,1486.45 599.297,123.472 
  "/>
<polyline clip-path="url(#clip422)" style="stroke:#000000; stroke-linecap:butt; stroke-linejoin:round; stroke-width:2; stroke-opacity:0.1; fill:none" points="
  1022.12,1486.45 1022.12,123.472 
  "/>
<polyline clip-path="url(#clip422)" style="stroke:#000000; stroke-linecap:butt; stroke-linejoin:round; stroke-width:2; stroke-opacity:0.1; fill:none" points="
  1444.95,1486.45 1444.95,123.472 
  "/>
<polyline clip-path="url(#clip422)" style="stroke:#000000; stroke-linecap:butt; stroke-linejoin:round; stroke-width:2; stroke-opacity:0.1; fill:none" points="
  1867.77,1486.45 1867.77,123.472 
  "/>
<polyline clip-path="url(#clip422)" style="stroke:#000000; stroke-linecap:butt; stroke-linejoin:round; stroke-width:2; stroke-opacity:0.1; fill:none" points="
  2290.6,1486.45 2290.6,123.472 
  "/>
<polyline clip-path="url(#clip420)" style="stroke:#000000; stroke-linecap:butt; stroke-linejoin:round; stroke-width:4; stroke-opacity:1; fill:none" points="
  156.598,1486.45 2352.76,1486.45 
  "/>
<polyline clip-path="url(#clip420)" style="stroke:#000000; stroke-linecap:butt; stroke-linejoin:round; stroke-width:4; stroke-opacity:1; fill:none" points="
  176.471,1486.45 176.471,1467.55 
  "/>
<polyline clip-path="url(#clip420)" style="stroke:#000000; stroke-linecap:butt; stroke-linejoin:round; stroke-width:4; stroke-opacity:1; fill:none" points="
  599.297,1486.45 599.297,1467.55 
  "/>
<polyline clip-path="url(#clip420)" style="stroke:#000000; stroke-linecap:butt; stroke-linejoin:round; stroke-width:4; stroke-opacity:1; fill:none" points="
  1022.12,1486.45 1022.12,1467.55 
  "/>
<polyline clip-path="url(#clip420)" style="stroke:#000000; stroke-linecap:butt; stroke-linejoin:round; stroke-width:4; stroke-opacity:1; fill:none" points="
  1444.95,1486.45 1444.95,1467.55 
  "/>
<polyline clip-path="url(#clip420)" style="stroke:#000000; stroke-linecap:butt; stroke-linejoin:round; stroke-width:4; stroke-opacity:1; fill:none" points="
  1867.77,1486.45 1867.77,1467.55 
  "/>
<polyline clip-path="url(#clip420)" style="stroke:#000000; stroke-linecap:butt; stroke-linejoin:round; stroke-width:4; stroke-opacity:1; fill:none" points="
  2290.6,1486.45 2290.6,1467.55 
  "/>
<path clip-path="url(#clip420)" d="M176.471 1517.37 Q172.86 1517.37 171.031 1520.93 Q169.226 1524.47 169.226 1531.6 Q169.226 1538.71 171.031 1542.27 Q172.86 1545.82 176.471 1545.82 Q180.105 1545.82 181.911 1542.27 Q183.74 1538.71 183.74 1531.6 Q183.74 1524.47 181.911 1520.93 Q180.105 1517.37 176.471 1517.37 M176.471 1513.66 Q182.281 1513.66 185.337 1518.27 Q188.415 1522.85 188.415 1531.6 Q188.415 1540.33 185.337 1544.94 Q182.281 1549.52 176.471 1549.52 Q170.661 1549.52 167.582 1544.94 Q164.527 1540.33 164.527 1531.6 Q164.527 1522.85 167.582 1518.27 Q170.661 1513.66 176.471 1513.66 Z" fill="#000000" fill-rule="evenodd" fill-opacity="1" /><path clip-path="url(#clip420)" d="M543.823 1544.91 L551.462 1544.91 L551.462 1518.55 L543.151 1520.21 L543.151 1515.95 L551.415 1514.29 L556.091 1514.29 L556.091 1544.91 L563.73 1544.91 L563.73 1548.85 L543.823 1548.85 L543.823 1544.91 Z" fill="#000000" fill-rule="evenodd" fill-opacity="1" /><path clip-path="url(#clip420)" d="M583.174 1517.37 Q579.563 1517.37 577.735 1520.93 Q575.929 1524.47 575.929 1531.6 Q575.929 1538.71 577.735 1542.27 Q579.563 1545.82 583.174 1545.82 Q586.809 1545.82 588.614 1542.27 Q590.443 1538.71 590.443 1531.6 Q590.443 1524.47 588.614 1520.93 Q586.809 1517.37 583.174 1517.37 M583.174 1513.66 Q588.984 1513.66 592.04 1518.27 Q595.119 1522.85 595.119 1531.6 Q595.119 1540.33 592.04 1544.94 Q588.984 1549.52 583.174 1549.52 Q577.364 1549.52 574.286 1544.94 Q571.23 1540.33 571.23 1531.6 Q571.23 1522.85 574.286 1518.27 Q577.364 1513.66 583.174 1513.66 Z" fill="#000000" fill-rule="evenodd" fill-opacity="1" /><path clip-path="url(#clip420)" d="M613.336 1517.37 Q609.725 1517.37 607.896 1520.93 Q606.091 1524.47 606.091 1531.6 Q606.091 1538.71 607.896 1542.27 Q609.725 1545.82 613.336 1545.82 Q616.97 1545.82 618.776 1542.27 Q620.605 1538.71 620.605 1531.6 Q620.605 1524.47 618.776 1520.93 Q616.97 1517.37 613.336 1517.37 M613.336 1513.66 Q619.146 1513.66 622.202 1518.27 Q625.281 1522.85 625.281 1531.6 Q625.281 1540.33 622.202 1544.94 Q619.146 1549.52 613.336 1549.52 Q607.526 1549.52 604.447 1544.94 Q601.392 1540.33 601.392 1531.6 Q601.392 1522.85 604.447 1518.27 Q607.526 1513.66 613.336 1513.66 Z" fill="#000000" fill-rule="evenodd" fill-opacity="1" /><path clip-path="url(#clip420)" d="M643.498 1517.37 Q639.887 1517.37 638.058 1520.93 Q636.253 1524.47 636.253 1531.6 Q636.253 1538.71 638.058 1542.27 Q639.887 1545.82 643.498 1545.82 Q647.132 1545.82 648.938 1542.27 Q650.767 1538.71 650.767 1531.6 Q650.767 1524.47 648.938 1520.93 Q647.132 1517.37 643.498 1517.37 M643.498 1513.66 Q649.308 1513.66 652.364 1518.27 Q655.442 1522.85 655.442 1531.6 Q655.442 1540.33 652.364 1544.94 Q649.308 1549.52 643.498 1549.52 Q637.688 1549.52 634.609 1544.94 Q631.554 1540.33 631.554 1531.6 Q631.554 1522.85 634.609 1518.27 Q637.688 1513.66 643.498 1513.66 Z" fill="#000000" fill-rule="evenodd" fill-opacity="1" /><path clip-path="url(#clip420)" d="M970.734 1544.91 L987.054 1544.91 L987.054 1548.85 L965.109 1548.85 L965.109 1544.91 Q967.771 1542.16 972.355 1537.53 Q976.961 1532.88 978.142 1531.53 Q980.387 1529.01 981.267 1527.27 Q982.169 1525.51 982.169 1523.82 Q982.169 1521.07 980.225 1519.33 Q978.304 1517.6 975.202 1517.6 Q973.003 1517.6 970.549 1518.36 Q968.118 1519.13 965.341 1520.68 L965.341 1515.95 Q968.165 1514.82 970.618 1514.24 Q973.072 1513.66 975.109 1513.66 Q980.48 1513.66 983.674 1516.35 Q986.868 1519.03 986.868 1523.52 Q986.868 1525.65 986.058 1527.57 Q985.271 1529.47 983.165 1532.07 Q982.586 1532.74 979.484 1535.95 Q976.382 1539.15 970.734 1544.91 Z" fill="#000000" fill-rule="evenodd" fill-opacity="1" /><path clip-path="url(#clip420)" d="M1006.87 1517.37 Q1003.26 1517.37 1001.43 1520.93 Q999.623 1524.47 999.623 1531.6 Q999.623 1538.71 1001.43 1542.27 Q1003.26 1545.82 1006.87 1545.82 Q1010.5 1545.82 1012.31 1542.27 Q1014.14 1538.71 1014.14 1531.6 Q1014.14 1524.47 1012.31 1520.93 Q1010.5 1517.37 1006.87 1517.37 M1006.87 1513.66 Q1012.68 1513.66 1015.73 1518.27 Q1018.81 1522.85 1018.81 1531.6 Q1018.81 1540.33 1015.73 1544.94 Q1012.68 1549.52 1006.87 1549.52 Q1001.06 1549.52 997.979 1544.94 Q994.924 1540.33 994.924 1531.6 Q994.924 1522.85 997.979 1518.27 Q1001.06 1513.66 1006.87 1513.66 Z" fill="#000000" fill-rule="evenodd" fill-opacity="1" /><path clip-path="url(#clip420)" d="M1037.03 1517.37 Q1033.42 1517.37 1031.59 1520.93 Q1029.78 1524.47 1029.78 1531.6 Q1029.78 1538.71 1031.59 1542.27 Q1033.42 1545.82 1037.03 1545.82 Q1040.66 1545.82 1042.47 1542.27 Q1044.3 1538.71 1044.3 1531.6 Q1044.3 1524.47 1042.47 1520.93 Q1040.66 1517.37 1037.03 1517.37 M1037.03 1513.66 Q1042.84 1513.66 1045.9 1518.27 Q1048.97 1522.85 1048.97 1531.6 Q1048.97 1540.33 1045.9 1544.94 Q1042.84 1549.52 1037.03 1549.52 Q1031.22 1549.52 1028.14 1544.94 Q1025.09 1540.33 1025.09 1531.6 Q1025.09 1522.85 1028.14 1518.27 Q1031.22 1513.66 1037.03 1513.66 Z" fill="#000000" fill-rule="evenodd" fill-opacity="1" /><path clip-path="url(#clip420)" d="M1067.19 1517.37 Q1063.58 1517.37 1061.75 1520.93 Q1059.95 1524.47 1059.95 1531.6 Q1059.95 1538.71 1061.75 1542.27 Q1063.58 1545.82 1067.19 1545.82 Q1070.83 1545.82 1072.63 1542.27 Q1074.46 1538.71 1074.46 1531.6 Q1074.46 1524.47 1072.63 1520.93 Q1070.83 1517.37 1067.19 1517.37 M1067.19 1513.66 Q1073 1513.66 1076.06 1518.27 Q1079.14 1522.85 1079.14 1531.6 Q1079.14 1540.33 1076.06 1544.94 Q1073 1549.52 1067.19 1549.52 Q1061.38 1549.52 1058.3 1544.94 Q1055.25 1540.33 1055.25 1531.6 Q1055.25 1522.85 1058.3 1518.27 Q1061.38 1513.66 1067.19 1513.66 Z" fill="#000000" fill-rule="evenodd" fill-opacity="1" /><path clip-path="url(#clip420)" d="M1403.63 1530.21 Q1406.99 1530.93 1408.86 1533.2 Q1410.76 1535.47 1410.76 1538.8 Q1410.76 1543.92 1407.24 1546.72 Q1403.72 1549.52 1397.24 1549.52 Q1395.06 1549.52 1392.75 1549.08 Q1390.46 1548.66 1388 1547.81 L1388 1543.29 Q1389.95 1544.43 1392.26 1545.01 Q1394.58 1545.58 1397.1 1545.58 Q1401.5 1545.58 1403.79 1543.85 Q1406.11 1542.11 1406.11 1538.8 Q1406.11 1535.75 1403.95 1534.03 Q1401.82 1532.3 1398 1532.3 L1393.98 1532.3 L1393.98 1528.45 L1398.19 1528.45 Q1401.64 1528.45 1403.47 1527.09 Q1405.3 1525.7 1405.3 1523.11 Q1405.3 1520.45 1403.4 1519.03 Q1401.52 1517.6 1398 1517.6 Q1396.08 1517.6 1393.88 1518.01 Q1391.69 1518.43 1389.05 1519.31 L1389.05 1515.14 Q1391.71 1514.4 1394.02 1514.03 Q1396.36 1513.66 1398.42 1513.66 Q1403.75 1513.66 1406.85 1516.09 Q1409.95 1518.5 1409.95 1522.62 Q1409.95 1525.49 1408.31 1527.48 Q1406.66 1529.45 1403.63 1530.21 Z" fill="#000000" fill-rule="evenodd" fill-opacity="1" /><path clip-path="url(#clip420)" d="M1429.62 1517.37 Q1426.01 1517.37 1424.18 1520.93 Q1422.38 1524.47 1422.38 1531.6 Q1422.38 1538.71 1424.18 1542.27 Q1426.01 1545.82 1429.62 1545.82 Q1433.26 1545.82 1435.06 1542.27 Q1436.89 1538.71 1436.89 1531.6 Q1436.89 1524.47 1435.06 1520.93 Q1433.26 1517.37 1429.62 1517.37 M1429.62 1513.66 Q1435.43 1513.66 1438.49 1518.27 Q1441.57 1522.85 1441.57 1531.6 Q1441.57 1540.33 1438.49 1544.94 Q1435.43 1549.52 1429.62 1549.52 Q1423.81 1549.52 1420.74 1544.94 Q1417.68 1540.33 1417.68 1531.6 Q1417.68 1522.85 1420.74 1518.27 Q1423.81 1513.66 1429.62 1513.66 Z" fill="#000000" fill-rule="evenodd" fill-opacity="1" /><path clip-path="url(#clip420)" d="M1459.79 1517.37 Q1456.18 1517.37 1454.35 1520.93 Q1452.54 1524.47 1452.54 1531.6 Q1452.54 1538.71 1454.35 1542.27 Q1456.18 1545.82 1459.79 1545.82 Q1463.42 1545.82 1465.23 1542.27 Q1467.06 1538.71 1467.06 1531.6 Q1467.06 1524.47 1465.23 1520.93 Q1463.42 1517.37 1459.79 1517.37 M1459.79 1513.66 Q1465.6 1513.66 1468.65 1518.27 Q1471.73 1522.85 1471.73 1531.6 Q1471.73 1540.33 1468.65 1544.94 Q1465.6 1549.52 1459.79 1549.52 Q1453.98 1549.52 1450.9 1544.94 Q1447.84 1540.33 1447.84 1531.6 Q1447.84 1522.85 1450.9 1518.27 Q1453.98 1513.66 1459.79 1513.66 Z" fill="#000000" fill-rule="evenodd" fill-opacity="1" /><path clip-path="url(#clip420)" d="M1489.95 1517.37 Q1486.34 1517.37 1484.51 1520.93 Q1482.7 1524.47 1482.7 1531.6 Q1482.7 1538.71 1484.51 1542.27 Q1486.34 1545.82 1489.95 1545.82 Q1493.58 1545.82 1495.39 1542.27 Q1497.22 1538.71 1497.22 1531.6 Q1497.22 1524.47 1495.39 1520.93 Q1493.58 1517.37 1489.95 1517.37 M1489.95 1513.66 Q1495.76 1513.66 1498.81 1518.27 Q1501.89 1522.85 1501.89 1531.6 Q1501.89 1540.33 1498.81 1544.94 Q1495.76 1549.52 1489.95 1549.52 Q1484.14 1549.52 1481.06 1544.94 Q1478 1540.33 1478 1531.6 Q1478 1522.85 1481.06 1518.27 Q1484.14 1513.66 1489.95 1513.66 Z" fill="#000000" fill-rule="evenodd" fill-opacity="1" /><path clip-path="url(#clip420)" d="M1825.78 1518.36 L1813.98 1536.81 L1825.78 1536.81 L1825.78 1518.36 M1824.56 1514.29 L1830.44 1514.29 L1830.44 1536.81 L1835.37 1536.81 L1835.37 1540.7 L1830.44 1540.7 L1830.44 1548.85 L1825.78 1548.85 L1825.78 1540.7 L1810.18 1540.7 L1810.18 1536.19 L1824.56 1514.29 Z" fill="#000000" fill-rule="evenodd" fill-opacity="1" /><path clip-path="url(#clip420)" d="M1853.1 1517.37 Q1849.49 1517.37 1847.66 1520.93 Q1845.85 1524.47 1845.85 1531.6 Q1845.85 1538.71 1847.66 1542.27 Q1849.49 1545.82 1853.1 1545.82 Q1856.73 1545.82 1858.54 1542.27 Q1860.37 1538.71 1860.37 1531.6 Q1860.37 1524.47 1858.54 1520.93 Q1856.73 1517.37 1853.1 1517.37 M1853.1 1513.66 Q1858.91 1513.66 1861.96 1518.27 Q1865.04 1522.85 1865.04 1531.6 Q1865.04 1540.33 1861.96 1544.94 Q1858.91 1549.52 1853.1 1549.52 Q1847.29 1549.52 1844.21 1544.94 Q1841.15 1540.33 1841.15 1531.6 Q1841.15 1522.85 1844.21 1518.27 Q1847.29 1513.66 1853.1 1513.66 Z" fill="#000000" fill-rule="evenodd" fill-opacity="1" /><path clip-path="url(#clip420)" d="M1883.26 1517.37 Q1879.65 1517.37 1877.82 1520.93 Q1876.02 1524.47 1876.02 1531.6 Q1876.02 1538.71 1877.82 1542.27 Q1879.65 1545.82 1883.26 1545.82 Q1886.89 1545.82 1888.7 1542.27 Q1890.53 1538.71 1890.53 1531.6 Q1890.53 1524.47 1888.7 1520.93 Q1886.89 1517.37 1883.26 1517.37 M1883.26 1513.66 Q1889.07 1513.66 1892.13 1518.27 Q1895.21 1522.85 1895.21 1531.6 Q1895.21 1540.33 1892.13 1544.94 Q1889.07 1549.52 1883.26 1549.52 Q1877.45 1549.52 1874.37 1544.94 Q1871.32 1540.33 1871.32 1531.6 Q1871.32 1522.85 1874.37 1518.27 Q1877.45 1513.66 1883.26 1513.66 Z" fill="#000000" fill-rule="evenodd" fill-opacity="1" /><path clip-path="url(#clip420)" d="M1913.42 1517.37 Q1909.81 1517.37 1907.98 1520.93 Q1906.18 1524.47 1906.18 1531.6 Q1906.18 1538.71 1907.98 1542.27 Q1909.81 1545.82 1913.42 1545.82 Q1917.06 1545.82 1918.86 1542.27 Q1920.69 1538.71 1920.69 1531.6 Q1920.69 1524.47 1918.86 1520.93 Q1917.06 1517.37 1913.42 1517.37 M1913.42 1513.66 Q1919.23 1513.66 1922.29 1518.27 Q1925.37 1522.85 1925.37 1531.6 Q1925.37 1540.33 1922.29 1544.94 Q1919.23 1549.52 1913.42 1549.52 Q1907.61 1549.52 1904.53 1544.94 Q1901.48 1540.33 1901.48 1531.6 Q1901.48 1522.85 1904.53 1518.27 Q1907.61 1513.66 1913.42 1513.66 Z" fill="#000000" fill-rule="evenodd" fill-opacity="1" /><path clip-path="url(#clip420)" d="M2235.14 1514.29 L2253.49 1514.29 L2253.49 1518.22 L2239.42 1518.22 L2239.42 1526.7 Q2240.44 1526.35 2241.46 1526.19 Q2242.48 1526 2243.49 1526 Q2249.28 1526 2252.66 1529.17 Q2256.04 1532.34 2256.04 1537.76 Q2256.04 1543.34 2252.57 1546.44 Q2249.1 1549.52 2242.78 1549.52 Q2240.6 1549.52 2238.33 1549.15 Q2236.09 1548.78 2233.68 1548.04 L2233.68 1543.34 Q2235.76 1544.47 2237.99 1545.03 Q2240.21 1545.58 2242.68 1545.58 Q2246.69 1545.58 2249.03 1543.48 Q2251.36 1541.37 2251.36 1537.76 Q2251.36 1534.15 2249.03 1532.04 Q2246.69 1529.94 2242.68 1529.94 Q2240.81 1529.94 2238.93 1530.35 Q2237.08 1530.77 2235.14 1531.65 L2235.14 1514.29 Z" fill="#000000" fill-rule="evenodd" fill-opacity="1" /><path clip-path="url(#clip420)" d="M2275.25 1517.37 Q2271.64 1517.37 2269.81 1520.93 Q2268.01 1524.47 2268.01 1531.6 Q2268.01 1538.71 2269.81 1542.27 Q2271.64 1545.82 2275.25 1545.82 Q2278.89 1545.82 2280.69 1542.27 Q2282.52 1538.71 2282.52 1531.6 Q2282.52 1524.47 2280.69 1520.93 Q2278.89 1517.37 2275.25 1517.37 M2275.25 1513.66 Q2281.06 1513.66 2284.12 1518.27 Q2287.2 1522.85 2287.2 1531.6 Q2287.2 1540.33 2284.12 1544.94 Q2281.06 1549.52 2275.25 1549.52 Q2269.44 1549.52 2266.36 1544.94 Q2263.31 1540.33 2263.31 1531.6 Q2263.31 1522.85 2266.36 1518.27 Q2269.44 1513.66 2275.25 1513.66 Z" fill="#000000" fill-rule="evenodd" fill-opacity="1" /><path clip-path="url(#clip420)" d="M2305.42 1517.37 Q2301.8 1517.37 2299.98 1520.93 Q2298.17 1524.47 2298.17 1531.6 Q2298.17 1538.71 2299.98 1542.27 Q2301.8 1545.82 2305.42 1545.82 Q2309.05 1545.82 2310.86 1542.27 Q2312.68 1538.71 2312.68 1531.6 Q2312.68 1524.47 2310.86 1520.93 Q2309.05 1517.37 2305.42 1517.37 M2305.42 1513.66 Q2311.23 1513.66 2314.28 1518.27 Q2317.36 1522.85 2317.36 1531.6 Q2317.36 1540.33 2314.28 1544.94 Q2311.23 1549.52 2305.42 1549.52 Q2299.61 1549.52 2296.53 1544.94 Q2293.47 1540.33 2293.47 1531.6 Q2293.47 1522.85 2296.53 1518.27 Q2299.61 1513.66 2305.42 1513.66 Z" fill="#000000" fill-rule="evenodd" fill-opacity="1" /><path clip-path="url(#clip420)" d="M2335.58 1517.37 Q2331.97 1517.37 2330.14 1520.93 Q2328.33 1524.47 2328.33 1531.6 Q2328.33 1538.71 2330.14 1542.27 Q2331.97 1545.82 2335.58 1545.82 Q2339.21 1545.82 2341.02 1542.27 Q2342.85 1538.71 2342.85 1531.6 Q2342.85 1524.47 2341.02 1520.93 Q2339.21 1517.37 2335.58 1517.37 M2335.58 1513.66 Q2341.39 1513.66 2344.44 1518.27 Q2347.52 1522.85 2347.52 1531.6 Q2347.52 1540.33 2344.44 1544.94 Q2341.39 1549.52 2335.58 1549.52 Q2329.77 1549.52 2326.69 1544.94 Q2323.63 1540.33 2323.63 1531.6 Q2323.63 1522.85 2326.69 1518.27 Q2329.77 1513.66 2335.58 1513.66 Z" fill="#000000" fill-rule="evenodd" fill-opacity="1" /><polyline clip-path="url(#clip422)" style="stroke:#000000; stroke-linecap:butt; stroke-linejoin:round; stroke-width:2; stroke-opacity:0.1; fill:none" points="
  156.598,1486.45 2352.76,1486.45 
  "/>
<polyline clip-path="url(#clip422)" style="stroke:#000000; stroke-linecap:butt; stroke-linejoin:round; stroke-width:2; stroke-opacity:0.1; fill:none" points="
  156.598,1213.85 2352.76,1213.85 
  "/>
<polyline clip-path="url(#clip422)" style="stroke:#000000; stroke-linecap:butt; stroke-linejoin:round; stroke-width:2; stroke-opacity:0.1; fill:none" points="
  156.598,941.258 2352.76,941.258 
  "/>
<polyline clip-path="url(#clip422)" style="stroke:#000000; stroke-linecap:butt; stroke-linejoin:round; stroke-width:2; stroke-opacity:0.1; fill:none" points="
  156.598,668.662 2352.76,668.662 
  "/>
<polyline clip-path="url(#clip422)" style="stroke:#000000; stroke-linecap:butt; stroke-linejoin:round; stroke-width:2; stroke-opacity:0.1; fill:none" points="
  156.598,396.067 2352.76,396.067 
  "/>
<polyline clip-path="url(#clip422)" style="stroke:#000000; stroke-linecap:butt; stroke-linejoin:round; stroke-width:2; stroke-opacity:0.1; fill:none" points="
  156.598,123.472 2352.76,123.472 
  "/>
<polyline clip-path="url(#clip420)" style="stroke:#000000; stroke-linecap:butt; stroke-linejoin:round; stroke-width:4; stroke-opacity:1; fill:none" points="
  156.598,1486.45 156.598,123.472 
  "/>
<polyline clip-path="url(#clip420)" style="stroke:#000000; stroke-linecap:butt; stroke-linejoin:round; stroke-width:4; stroke-opacity:1; fill:none" points="
  156.598,1486.45 175.496,1486.45 
  "/>
<polyline clip-path="url(#clip420)" style="stroke:#000000; stroke-linecap:butt; stroke-linejoin:round; stroke-width:4; stroke-opacity:1; fill:none" points="
  156.598,1213.85 175.496,1213.85 
  "/>
<polyline clip-path="url(#clip420)" style="stroke:#000000; stroke-linecap:butt; stroke-linejoin:round; stroke-width:4; stroke-opacity:1; fill:none" points="
  156.598,941.258 175.496,941.258 
  "/>
<polyline clip-path="url(#clip420)" style="stroke:#000000; stroke-linecap:butt; stroke-linejoin:round; stroke-width:4; stroke-opacity:1; fill:none" points="
  156.598,668.662 175.496,668.662 
  "/>
<polyline clip-path="url(#clip420)" style="stroke:#000000; stroke-linecap:butt; stroke-linejoin:round; stroke-width:4; stroke-opacity:1; fill:none" points="
  156.598,396.067 175.496,396.067 
  "/>
<polyline clip-path="url(#clip420)" style="stroke:#000000; stroke-linecap:butt; stroke-linejoin:round; stroke-width:4; stroke-opacity:1; fill:none" points="
  156.598,123.472 175.496,123.472 
  "/>
<path clip-path="url(#clip420)" d="M63.4226 1472.25 Q59.8115 1472.25 57.9828 1475.81 Q56.1773 1479.35 56.1773 1486.48 Q56.1773 1493.59 57.9828 1497.15 Q59.8115 1500.7 63.4226 1500.7 Q67.0569 1500.7 68.8624 1497.15 Q70.6911 1493.59 70.6911 1486.48 Q70.6911 1479.35 68.8624 1475.81 Q67.0569 1472.25 63.4226 1472.25 M63.4226 1468.54 Q69.2328 1468.54 72.2883 1473.15 Q75.367 1477.73 75.367 1486.48 Q75.367 1495.21 72.2883 1499.82 Q69.2328 1504.4 63.4226 1504.4 Q57.6125 1504.4 54.5338 1499.82 Q51.4782 1495.21 51.4782 1486.48 Q51.4782 1477.73 54.5338 1473.15 Q57.6125 1468.54 63.4226 1468.54 Z" fill="#000000" fill-rule="evenodd" fill-opacity="1" /><path clip-path="url(#clip420)" d="M83.5845 1497.85 L88.4688 1497.85 L88.4688 1503.73 L83.5845 1503.73 L83.5845 1497.85 Z" fill="#000000" fill-rule="evenodd" fill-opacity="1" /><path clip-path="url(#clip420)" d="M108.654 1472.25 Q105.043 1472.25 103.214 1475.81 Q101.409 1479.35 101.409 1486.48 Q101.409 1493.59 103.214 1497.15 Q105.043 1500.7 108.654 1500.7 Q112.288 1500.7 114.094 1497.15 Q115.922 1493.59 115.922 1486.48 Q115.922 1479.35 114.094 1475.81 Q112.288 1472.25 108.654 1472.25 M108.654 1468.54 Q114.464 1468.54 117.52 1473.15 Q120.598 1477.73 120.598 1486.48 Q120.598 1495.21 117.52 1499.82 Q114.464 1504.4 108.654 1504.4 Q102.844 1504.4 99.765 1499.82 Q96.7095 1495.21 96.7095 1486.48 Q96.7095 1477.73 99.765 1473.15 Q102.844 1468.54 108.654 1468.54 Z" fill="#000000" fill-rule="evenodd" fill-opacity="1" /><path clip-path="url(#clip420)" d="M65.0198 1199.65 Q61.4087 1199.65 59.58 1203.22 Q57.7745 1206.76 57.7745 1213.89 Q57.7745 1220.99 59.58 1224.56 Q61.4087 1228.1 65.0198 1228.1 Q68.6541 1228.1 70.4596 1224.56 Q72.2883 1220.99 72.2883 1213.89 Q72.2883 1206.76 70.4596 1203.22 Q68.6541 1199.65 65.0198 1199.65 M65.0198 1195.95 Q70.83 1195.95 73.8855 1200.55 Q76.9642 1205.14 76.9642 1213.89 Q76.9642 1222.61 73.8855 1227.22 Q70.83 1231.8 65.0198 1231.8 Q59.2097 1231.8 56.131 1227.22 Q53.0754 1222.61 53.0754 1213.89 Q53.0754 1205.14 56.131 1200.55 Q59.2097 1195.95 65.0198 1195.95 Z" fill="#000000" fill-rule="evenodd" fill-opacity="1" /><path clip-path="url(#clip420)" d="M85.1818 1225.25 L90.066 1225.25 L90.066 1231.13 L85.1818 1231.13 L85.1818 1225.25 Z" fill="#000000" fill-rule="evenodd" fill-opacity="1" /><path clip-path="url(#clip420)" d="M104.279 1227.2 L120.598 1227.2 L120.598 1231.13 L98.6539 1231.13 L98.6539 1227.2 Q101.316 1224.44 105.899 1219.81 Q110.506 1215.16 111.686 1213.82 Q113.932 1211.29 114.811 1209.56 Q115.714 1207.8 115.714 1206.11 Q115.714 1203.36 113.77 1201.62 Q111.848 1199.88 108.746 1199.88 Q106.547 1199.88 104.094 1200.65 Q101.663 1201.41 98.8854 1202.96 L98.8854 1198.24 Q101.709 1197.11 104.163 1196.53 Q106.617 1195.95 108.654 1195.95 Q114.024 1195.95 117.219 1198.63 Q120.413 1201.32 120.413 1205.81 Q120.413 1207.94 119.603 1209.86 Q118.816 1211.76 116.709 1214.35 Q116.131 1215.02 113.029 1218.24 Q109.927 1221.43 104.279 1227.2 Z" fill="#000000" fill-rule="evenodd" fill-opacity="1" /><path clip-path="url(#clip420)" d="M62.9365 927.056 Q59.3254 927.056 57.4967 930.621 Q55.6912 934.163 55.6912 941.292 Q55.6912 948.399 57.4967 951.964 Q59.3254 955.505 62.9365 955.505 Q66.5707 955.505 68.3763 951.964 Q70.205 948.399 70.205 941.292 Q70.205 934.163 68.3763 930.621 Q66.5707 927.056 62.9365 927.056 M62.9365 923.353 Q68.7467 923.353 71.8022 927.959 Q74.8809 932.542 74.8809 941.292 Q74.8809 950.019 71.8022 954.626 Q68.7467 959.209 62.9365 959.209 Q57.1264 959.209 54.0477 954.626 Q50.9921 950.019 50.9921 941.292 Q50.9921 932.542 54.0477 927.959 Q57.1264 923.353 62.9365 923.353 Z" fill="#000000" fill-rule="evenodd" fill-opacity="1" /><path clip-path="url(#clip420)" d="M83.0984 952.658 L87.9827 952.658 L87.9827 958.538 L83.0984 958.538 L83.0984 952.658 Z" fill="#000000" fill-rule="evenodd" fill-opacity="1" /><path clip-path="url(#clip420)" d="M111.015 928.052 L99.2095 946.501 L111.015 946.501 L111.015 928.052 M109.788 923.978 L115.668 923.978 L115.668 946.501 L120.598 946.501 L120.598 950.389 L115.668 950.389 L115.668 958.538 L111.015 958.538 L111.015 950.389 L95.4132 950.389 L95.4132 945.876 L109.788 923.978 Z" fill="#000000" fill-rule="evenodd" fill-opacity="1" /><path clip-path="url(#clip420)" d="M63.2606 654.461 Q59.6495 654.461 57.8208 658.026 Q56.0152 661.568 56.0152 668.697 Q56.0152 675.804 57.8208 679.368 Q59.6495 682.91 63.2606 682.91 Q66.8948 682.91 68.7004 679.368 Q70.5291 675.804 70.5291 668.697 Q70.5291 661.568 68.7004 658.026 Q66.8948 654.461 63.2606 654.461 M63.2606 650.757 Q69.0707 650.757 72.1263 655.364 Q75.205 659.947 75.205 668.697 Q75.205 677.424 72.1263 682.03 Q69.0707 686.614 63.2606 686.614 Q57.4504 686.614 54.3717 682.03 Q51.3162 677.424 51.3162 668.697 Q51.3162 659.947 54.3717 655.364 Q57.4504 650.757 63.2606 650.757 Z" fill="#000000" fill-rule="evenodd" fill-opacity="1" /><path clip-path="url(#clip420)" d="M83.4225 680.063 L88.3067 680.063 L88.3067 685.942 L83.4225 685.942 L83.4225 680.063 Z" fill="#000000" fill-rule="evenodd" fill-opacity="1" /><path clip-path="url(#clip420)" d="M109.071 666.799 Q105.922 666.799 104.071 668.952 Q102.242 671.105 102.242 674.855 Q102.242 678.581 104.071 680.757 Q105.922 682.91 109.071 682.91 Q112.219 682.91 114.047 680.757 Q115.899 678.581 115.899 674.855 Q115.899 671.105 114.047 668.952 Q112.219 666.799 109.071 666.799 M118.353 652.146 L118.353 656.406 Q116.594 655.572 114.788 655.132 Q113.006 654.693 111.246 654.693 Q106.617 654.693 104.163 657.818 Q101.733 660.943 101.385 667.262 Q102.751 665.248 104.811 664.183 Q106.871 663.095 109.348 663.095 Q114.557 663.095 117.566 666.267 Q120.598 669.415 120.598 674.855 Q120.598 680.179 117.45 683.396 Q114.302 686.614 109.071 686.614 Q103.075 686.614 99.9039 682.03 Q96.7326 677.424 96.7326 668.697 Q96.7326 660.503 100.621 655.642 Q104.51 650.757 111.061 650.757 Q112.82 650.757 114.603 651.105 Q116.408 651.452 118.353 652.146 Z" fill="#000000" fill-rule="evenodd" fill-opacity="1" /><path clip-path="url(#clip420)" d="M63.5152 381.866 Q59.9041 381.866 58.0754 385.431 Q56.2699 388.972 56.2699 396.102 Q56.2699 403.208 58.0754 406.773 Q59.9041 410.315 63.5152 410.315 Q67.1494 410.315 68.955 406.773 Q70.7837 403.208 70.7837 396.102 Q70.7837 388.972 68.955 385.431 Q67.1494 381.866 63.5152 381.866 M63.5152 378.162 Q69.3254 378.162 72.3809 382.769 Q75.4596 387.352 75.4596 396.102 Q75.4596 404.829 72.3809 409.435 Q69.3254 414.019 63.5152 414.019 Q57.7051 414.019 54.6264 409.435 Q51.5708 404.829 51.5708 396.102 Q51.5708 387.352 54.6264 382.769 Q57.7051 378.162 63.5152 378.162 Z" fill="#000000" fill-rule="evenodd" fill-opacity="1" /><path clip-path="url(#clip420)" d="M83.6771 407.468 L88.5614 407.468 L88.5614 413.347 L83.6771 413.347 L83.6771 407.468 Z" fill="#000000" fill-rule="evenodd" fill-opacity="1" /><path clip-path="url(#clip420)" d="M108.746 396.935 Q105.413 396.935 103.492 398.718 Q101.594 400.5 101.594 403.625 Q101.594 406.75 103.492 408.532 Q105.413 410.315 108.746 410.315 Q112.08 410.315 114.001 408.532 Q115.922 406.727 115.922 403.625 Q115.922 400.5 114.001 398.718 Q112.103 396.935 108.746 396.935 M104.071 394.945 Q101.061 394.204 99.3715 392.144 Q97.7048 390.084 97.7048 387.121 Q97.7048 382.977 100.645 380.57 Q103.608 378.162 108.746 378.162 Q113.908 378.162 116.848 380.57 Q119.788 382.977 119.788 387.121 Q119.788 390.084 118.098 392.144 Q116.432 394.204 113.445 394.945 Q116.825 395.732 118.7 398.023 Q120.598 400.315 120.598 403.625 Q120.598 408.648 117.52 411.333 Q114.464 414.019 108.746 414.019 Q103.029 414.019 99.9502 411.333 Q96.8947 408.648 96.8947 403.625 Q96.8947 400.315 98.7928 398.023 Q100.691 395.732 104.071 394.945 M102.358 387.56 Q102.358 390.246 104.024 391.75 Q105.714 393.255 108.746 393.255 Q111.756 393.255 113.445 391.75 Q115.158 390.246 115.158 387.56 Q115.158 384.875 113.445 383.371 Q111.756 381.866 108.746 381.866 Q105.714 381.866 104.024 383.371 Q102.358 384.875 102.358 387.56 Z" fill="#000000" fill-rule="evenodd" fill-opacity="1" /><path clip-path="url(#clip420)" d="M54.2328 136.817 L61.8717 136.817 L61.8717 110.451 L53.5616 112.118 L53.5616 107.859 L61.8254 106.192 L66.5013 106.192 L66.5013 136.817 L74.1402 136.817 L74.1402 140.752 L54.2328 140.752 L54.2328 136.817 Z" fill="#000000" fill-rule="evenodd" fill-opacity="1" /><path clip-path="url(#clip420)" d="M83.5845 134.873 L88.4688 134.873 L88.4688 140.752 L83.5845 140.752 L83.5845 134.873 Z" fill="#000000" fill-rule="evenodd" fill-opacity="1" /><path clip-path="url(#clip420)" d="M108.654 109.271 Q105.043 109.271 103.214 112.836 Q101.409 116.377 101.409 123.507 Q101.409 130.613 103.214 134.178 Q105.043 137.72 108.654 137.72 Q112.288 137.72 114.094 134.178 Q115.922 130.613 115.922 123.507 Q115.922 116.377 114.094 112.836 Q112.288 109.271 108.654 109.271 M108.654 105.567 Q114.464 105.567 117.52 110.174 Q120.598 114.757 120.598 123.507 Q120.598 132.234 117.52 136.84 Q114.464 141.423 108.654 141.423 Q102.844 141.423 99.765 136.84 Q96.7095 132.234 96.7095 123.507 Q96.7095 114.757 99.765 110.174 Q102.844 105.567 108.654 105.567 Z" fill="#000000" fill-rule="evenodd" fill-opacity="1" /><path clip-path="url(#clip420)" d="M813.331 34.4165 Q811.832 33.8899 810.333 33.4848 Q806.323 32.4315 802.029 32.4315 Q794.616 32.4315 790.484 36.4419 Q786.636 40.1688 785.906 47.0148 L813.331 47.0148 L813.331 52.8481 L785.906 52.8481 Q786.636 59.6941 790.484 63.421 Q794.616 67.4314 802.029 67.4314 Q807.214 67.4314 810.333 66.3781 L813.331 65.3654 L813.331 72.1304 L810.131 72.8596 Q805.918 73.7508 801.583 73.7508 Q790.727 73.7508 784.408 67.4314 Q778.048 61.1119 778.048 49.9314 Q778.048 38.7509 784.408 32.4315 Q790.727 26.1121 801.583 26.1121 Q805.675 26.1121 810.131 27.0033 Q811.751 27.3274 813.331 27.8135 L813.331 34.4165 Z" fill="#000000" fill-rule="evenodd" fill-opacity="1" /><path clip-path="url(#clip420)" d="M896.415 45.1919 L896.415 72.576 L888.961 72.576 L888.961 45.4349 Q888.961 38.994 886.45 35.7938 Q883.938 32.5936 878.915 32.5936 Q872.879 32.5936 869.396 36.4419 Q865.912 40.2903 865.912 46.9338 L865.912 72.576 L858.418 72.576 L858.418 27.2059 L865.912 27.2059 L865.912 34.2544 Q868.585 30.163 872.191 28.1376 Q875.837 26.1121 880.576 26.1121 Q888.394 26.1121 892.405 30.9732 Q896.415 35.7938 896.415 45.1919 Z" fill="#000000" fill-rule="evenodd" fill-opacity="1" /><path clip-path="url(#clip420)" d="M928.863 32.4315 Q922.868 32.4315 919.384 37.1306 Q915.9 41.7891 915.9 49.9314 Q915.9 58.0738 919.343 62.7728 Q922.827 67.4314 928.863 67.4314 Q934.818 67.4314 938.301 62.7323 Q941.785 58.0333 941.785 49.9314 Q941.785 41.8701 938.301 37.1711 Q934.818 32.4315 928.863 32.4315 M928.863 26.1121 Q938.585 26.1121 944.135 32.4315 Q949.684 38.7509 949.684 49.9314 Q949.684 61.0714 944.135 67.4314 Q938.585 73.7508 928.863 73.7508 Q919.1 73.7508 913.55 67.4314 Q908.041 61.0714 908.041 49.9314 Q908.041 38.7509 913.55 32.4315 Q919.1 26.1121 928.863 26.1121 Z" fill="#000000" fill-rule="evenodd" fill-opacity="1" /><path clip-path="url(#clip420)" d="M969.412 14.324 L969.412 27.2059 L984.765 27.2059 L984.765 32.9987 L969.412 32.9987 L969.412 57.6282 Q969.412 63.1779 970.911 64.7578 Q972.451 66.3376 977.109 66.3376 L984.765 66.3376 L984.765 72.576 L977.109 72.576 Q968.481 72.576 965.199 69.3758 Q961.918 66.1351 961.918 57.6282 L961.918 32.9987 L956.45 32.9987 L956.45 27.2059 L961.918 27.2059 L961.918 14.324 L969.412 14.324 Z" fill="#000000" fill-rule="evenodd" fill-opacity="1" /><path clip-path="url(#clip420)" d="M1028.15 65.7705 L1028.15 89.8329 L1020.66 89.8329 L1020.66 27.2059 L1028.15 27.2059 L1028.15 34.0924 Q1030.5 30.0415 1034.06 28.0971 Q1037.67 26.1121 1042.65 26.1121 Q1050.92 26.1121 1056.06 32.6746 Q1061.25 39.2371 1061.25 49.9314 Q1061.25 60.6258 1056.06 67.1883 Q1050.92 73.7508 1042.65 73.7508 Q1037.67 73.7508 1034.06 71.8063 Q1030.5 69.8214 1028.15 65.7705 M1053.51 49.9314 Q1053.51 41.7081 1050.11 37.0496 Q1046.74 32.3505 1040.83 32.3505 Q1034.92 32.3505 1031.51 37.0496 Q1028.15 41.7081 1028.15 49.9314 Q1028.15 58.1548 1031.51 62.8538 Q1034.92 67.5124 1040.83 67.5124 Q1046.74 67.5124 1050.11 62.8538 Q1053.51 58.1548 1053.51 49.9314 Z" fill="#000000" fill-rule="evenodd" fill-opacity="1" /><path clip-path="url(#clip420)" d="M1072.83 54.671 L1072.83 27.2059 L1080.29 27.2059 L1080.29 54.3874 Q1080.29 60.8284 1082.8 64.0691 Q1085.31 67.2693 1090.33 67.2693 Q1096.37 67.2693 1099.85 63.421 Q1103.38 59.5726 1103.38 52.9291 L1103.38 27.2059 L1110.83 27.2059 L1110.83 72.576 L1103.38 72.576 L1103.38 65.6084 Q1100.66 69.7404 1097.06 71.7658 Q1093.49 73.7508 1088.75 73.7508 Q1080.93 73.7508 1076.88 68.8897 Q1072.83 64.0286 1072.83 54.671 M1091.59 26.1121 L1091.59 26.1121 Z" fill="#000000" fill-rule="evenodd" fill-opacity="1" /><path clip-path="url(#clip420)" d="M1158.75 49.9314 Q1158.75 41.7081 1155.35 37.0496 Q1151.99 32.3505 1146.07 32.3505 Q1140.16 32.3505 1136.76 37.0496 Q1133.39 41.7081 1133.39 49.9314 Q1133.39 58.1548 1136.76 62.8538 Q1140.16 67.5124 1146.07 67.5124 Q1151.99 67.5124 1155.35 62.8538 Q1158.75 58.1548 1158.75 49.9314 M1133.39 34.0924 Q1135.74 30.0415 1139.31 28.0971 Q1142.91 26.1121 1147.9 26.1121 Q1156.16 26.1121 1161.3 32.6746 Q1166.49 39.2371 1166.49 49.9314 Q1166.49 60.6258 1161.3 67.1883 Q1156.16 73.7508 1147.9 73.7508 Q1142.91 73.7508 1139.31 71.8063 Q1135.74 69.8214 1133.39 65.7705 L1133.39 72.576 L1125.9 72.576 L1125.9 9.54393 L1133.39 9.54393 L1133.39 34.0924 Z" fill="#000000" fill-rule="evenodd" fill-opacity="1" /><path clip-path="url(#clip420)" d="M1178.84 9.54393 L1186.3 9.54393 L1186.3 72.576 L1178.84 72.576 L1178.84 9.54393 Z" fill="#000000" fill-rule="evenodd" fill-opacity="1" /><path clip-path="url(#clip420)" d="M1201.89 27.2059 L1209.35 27.2059 L1209.35 72.576 L1201.89 72.576 L1201.89 27.2059 M1201.89 9.54393 L1209.35 9.54393 L1209.35 18.9825 L1201.89 18.9825 L1201.89 9.54393 Z" fill="#000000" fill-rule="evenodd" fill-opacity="1" /><path clip-path="url(#clip420)" d="M1257.59 28.9478 L1257.59 35.9153 Q1254.43 34.1734 1251.23 33.3227 Q1248.07 32.4315 1244.83 32.4315 Q1237.58 32.4315 1233.57 37.0496 Q1229.56 41.6271 1229.56 49.9314 Q1229.56 58.2358 1233.57 62.8538 Q1237.58 67.4314 1244.83 67.4314 Q1248.07 67.4314 1251.23 66.5807 Q1254.43 65.6895 1257.59 63.9476 L1257.59 70.8341 Q1254.47 72.2924 1251.11 73.0216 Q1247.79 73.7508 1244.02 73.7508 Q1233.77 73.7508 1227.74 67.3098 Q1221.7 60.8689 1221.7 49.9314 Q1221.7 38.832 1227.78 32.472 Q1233.9 26.1121 1244.51 26.1121 Q1247.95 26.1121 1251.23 26.8413 Q1254.52 27.5299 1257.59 28.9478 Z" fill="#000000" fill-rule="evenodd" fill-opacity="1" /><path clip-path="url(#clip420)" d="M1270.56 9.54393 L1278.01 9.54393 L1278.01 72.576 L1270.56 72.576 L1270.56 9.54393 Z" fill="#000000" fill-rule="evenodd" fill-opacity="1" /><path clip-path="url(#clip420)" d="M1312.48 76.7889 Q1309.32 84.8907 1306.33 87.3618 Q1303.33 89.8329 1298.31 89.8329 L1292.35 89.8329 L1292.35 83.5945 L1296.73 83.5945 Q1299.8 83.5945 1301.51 82.1361 Q1303.21 80.6778 1305.27 75.2496 L1306.61 71.8468 L1288.26 27.2059 L1296.16 27.2059 L1310.34 62.6918 L1324.51 27.2059 L1332.41 27.2059 L1312.48 76.7889 Z" fill="#000000" fill-rule="evenodd" fill-opacity="1" /><path clip-path="url(#clip420)" d="M1389.69 49.7694 Q1380.66 49.7694 1377.18 51.8354 Q1373.69 53.9013 1373.69 58.8839 Q1373.69 62.8538 1376.29 65.2034 Q1378.92 67.5124 1383.41 67.5124 Q1389.61 67.5124 1393.34 63.1374 Q1397.11 58.7219 1397.11 51.4303 L1397.11 49.7694 L1389.69 49.7694 M1404.56 46.6907 L1404.56 72.576 L1397.11 72.576 L1397.11 65.6895 Q1394.55 69.8214 1390.75 71.8063 Q1386.94 73.7508 1381.43 73.7508 Q1374.46 73.7508 1370.33 69.8619 Q1366.24 65.9325 1366.24 59.3701 Q1366.24 51.7138 1371.34 47.825 Q1376.49 43.9361 1386.66 43.9361 L1397.11 43.9361 L1397.11 43.2069 Q1397.11 38.0623 1393.7 35.2672 Q1390.34 32.4315 1384.22 32.4315 Q1380.34 32.4315 1376.65 33.3632 Q1372.96 34.295 1369.56 36.1584 L1369.56 29.2718 Q1373.65 27.692 1377.5 26.9223 Q1381.35 26.1121 1384.99 26.1121 Q1394.84 26.1121 1399.7 31.2163 Q1404.56 36.3204 1404.56 46.6907 Z" fill="#000000" fill-rule="evenodd" fill-opacity="1" /><path clip-path="url(#clip420)" d="M1414.57 27.2059 L1422.47 27.2059 L1436.64 65.2844 L1450.82 27.2059 L1458.72 27.2059 L1441.71 72.576 L1431.58 72.576 L1414.57 27.2059 Z" fill="#000000" fill-rule="evenodd" fill-opacity="1" /><path clip-path="url(#clip420)" d="M1489.63 49.7694 Q1480.6 49.7694 1477.11 51.8354 Q1473.63 53.9013 1473.63 58.8839 Q1473.63 62.8538 1476.22 65.2034 Q1478.85 67.5124 1483.35 67.5124 Q1489.55 67.5124 1493.28 63.1374 Q1497.04 58.7219 1497.04 51.4303 L1497.04 49.7694 L1489.63 49.7694 M1504.5 46.6907 L1504.5 72.576 L1497.04 72.576 L1497.04 65.6895 Q1494.49 69.8214 1490.68 71.8063 Q1486.87 73.7508 1481.37 73.7508 Q1474.4 73.7508 1470.27 69.8619 Q1466.17 65.9325 1466.17 59.3701 Q1466.17 51.7138 1471.28 47.825 Q1476.42 43.9361 1486.59 43.9361 L1497.04 43.9361 L1497.04 43.2069 Q1497.04 38.0623 1493.64 35.2672 Q1490.28 32.4315 1484.16 32.4315 Q1480.27 32.4315 1476.59 33.3632 Q1472.9 34.295 1469.5 36.1584 L1469.5 29.2718 Q1473.59 27.692 1477.44 26.9223 Q1481.28 26.1121 1484.93 26.1121 Q1494.77 26.1121 1499.64 31.2163 Q1504.5 36.3204 1504.5 46.6907 Z" fill="#000000" fill-rule="evenodd" fill-opacity="1" /><path clip-path="url(#clip420)" d="M1519.85 27.2059 L1527.3 27.2059 L1527.3 72.576 L1519.85 72.576 L1519.85 27.2059 M1519.85 9.54393 L1527.3 9.54393 L1527.3 18.9825 L1519.85 18.9825 L1519.85 9.54393 Z" fill="#000000" fill-rule="evenodd" fill-opacity="1" /><path clip-path="url(#clip420)" d="M1542.9 9.54393 L1550.35 9.54393 L1550.35 72.576 L1542.9 72.576 L1542.9 9.54393 Z" fill="#000000" fill-rule="evenodd" fill-opacity="1" /><path clip-path="url(#clip420)" d="M1586.57 49.7694 Q1577.53 49.7694 1574.05 51.8354 Q1570.57 53.9013 1570.57 58.8839 Q1570.57 62.8538 1573.16 65.2034 Q1575.79 67.5124 1580.29 67.5124 Q1586.49 67.5124 1590.21 63.1374 Q1593.98 58.7219 1593.98 51.4303 L1593.98 49.7694 L1586.57 49.7694 M1601.43 46.6907 L1601.43 72.576 L1593.98 72.576 L1593.98 65.6895 Q1591.43 69.8214 1587.62 71.8063 Q1583.81 73.7508 1578.3 73.7508 Q1571.34 73.7508 1567.2 69.8619 Q1563.11 65.9325 1563.11 59.3701 Q1563.11 51.7138 1568.22 47.825 Q1573.36 43.9361 1583.53 43.9361 L1593.98 43.9361 L1593.98 43.2069 Q1593.98 38.0623 1590.58 35.2672 Q1587.22 32.4315 1581.1 32.4315 Q1577.21 32.4315 1573.52 33.3632 Q1569.84 34.295 1566.43 36.1584 L1566.43 29.2718 Q1570.53 27.692 1574.37 26.9223 Q1578.22 26.1121 1581.87 26.1121 Q1591.71 26.1121 1596.57 31.2163 Q1601.43 36.3204 1601.43 46.6907 Z" fill="#000000" fill-rule="evenodd" fill-opacity="1" /><path clip-path="url(#clip420)" d="M1649.36 49.9314 Q1649.36 41.7081 1645.95 37.0496 Q1642.59 32.3505 1636.68 32.3505 Q1630.76 32.3505 1627.36 37.0496 Q1624 41.7081 1624 49.9314 Q1624 58.1548 1627.36 62.8538 Q1630.76 67.5124 1636.68 67.5124 Q1642.59 67.5124 1645.95 62.8538 Q1649.36 58.1548 1649.36 49.9314 M1624 34.0924 Q1626.35 30.0415 1629.91 28.0971 Q1633.52 26.1121 1638.5 26.1121 Q1646.76 26.1121 1651.91 32.6746 Q1657.09 39.2371 1657.09 49.9314 Q1657.09 60.6258 1651.91 67.1883 Q1646.76 73.7508 1638.5 73.7508 Q1633.52 73.7508 1629.91 71.8063 Q1626.35 69.8214 1624 65.7705 L1624 72.576 L1616.5 72.576 L1616.5 9.54393 L1624 9.54393 L1624 34.0924 Z" fill="#000000" fill-rule="evenodd" fill-opacity="1" /><path clip-path="url(#clip420)" d="M1669.45 9.54393 L1676.9 9.54393 L1676.9 72.576 L1669.45 72.576 L1669.45 9.54393 Z" fill="#000000" fill-rule="evenodd" fill-opacity="1" /><path clip-path="url(#clip420)" d="M1731.31 48.0275 L1731.31 51.6733 L1697.04 51.6733 Q1697.52 59.3701 1701.65 63.421 Q1705.83 67.4314 1713.24 67.4314 Q1717.53 67.4314 1721.54 66.3781 Q1725.59 65.3249 1729.56 63.2184 L1729.56 70.267 Q1725.55 71.9684 1721.34 72.8596 Q1717.13 73.7508 1712.79 73.7508 Q1701.94 73.7508 1695.58 67.4314 Q1689.26 61.1119 1689.26 50.3365 Q1689.26 39.1965 1695.25 32.6746 Q1701.29 26.1121 1711.5 26.1121 Q1720.65 26.1121 1725.96 32.0264 Q1731.31 37.9003 1731.31 48.0275 M1723.85 45.84 Q1723.77 39.7232 1720.41 36.0774 Q1717.09 32.4315 1711.58 32.4315 Q1705.34 32.4315 1701.57 35.9558 Q1697.85 39.4801 1697.28 45.8805 L1723.85 45.84 Z" fill="#000000" fill-rule="evenodd" fill-opacity="1" /><polyline clip-path="url(#clip422)" style="stroke:#009af9; stroke-linecap:butt; stroke-linejoin:round; stroke-width:12; stroke-opacity:1; fill:none" points="
  218.754,113.226 261.036,778.366 387.884,736.117 599.297,646.932 1022.12,608.837 2290.6,831.854 
  "/>
<path clip-path="url(#clip422)" d="M261.036 794.366 L249.724 789.678 L245.036 778.366 L249.724 767.054 L261.036 762.366 L272.348 767.054 L277.036 778.366 L272.348 789.678 Z" fill="#009af9" fill-rule="evenodd" fill-opacity="1" stroke="#000000" stroke-opacity="1" stroke-width="3.2"/>
<path clip-path="url(#clip422)" d="M387.884 752.117 L376.572 747.429 L371.884 736.117 L376.572 724.805 L387.884 720.117 L399.196 724.805 L403.884 736.117 L399.196 747.429 Z" fill="#009af9" fill-rule="evenodd" fill-opacity="1" stroke="#000000" stroke-opacity="1" stroke-width="3.2"/>
<path clip-path="url(#clip422)" d="M599.297 662.932 L587.985 658.244 L583.297 646.932 L587.985 635.62 L599.297 630.932 L610.609 635.62 L615.297 646.932 L610.609 658.244 Z" fill="#009af9" fill-rule="evenodd" fill-opacity="1" stroke="#000000" stroke-opacity="1" stroke-width="3.2"/>
<path clip-path="url(#clip422)" d="M1022.12 624.837 L1010.81 620.149 L1006.12 608.837 L1010.81 597.525 L1022.12 592.837 L1033.43 597.525 L1038.12 608.837 L1033.43 620.149 Z" fill="#009af9" fill-rule="evenodd" fill-opacity="1" stroke="#000000" stroke-opacity="1" stroke-width="3.2"/>
<path clip-path="url(#clip422)" d="M2290.6 847.854 L2279.29 843.166 L2274.6 831.854 L2279.29 820.542 L2290.6 815.854 L2301.91 820.542 L2306.6 831.854 L2301.91 843.166 Z" fill="#009af9" fill-rule="evenodd" fill-opacity="1" stroke="#000000" stroke-opacity="1" stroke-width="3.2"/>
<polyline clip-path="url(#clip422)" style="stroke:#e26f46; stroke-linecap:butt; stroke-linejoin:round; stroke-width:12; stroke-opacity:1; fill:none" points="
  218.754,816.367 261.036,725.863 387.884,1047.31 599.297,1066.95 1022.12,1151.34 2290.6,1278.76 
  "/>
<path clip-path="url(#clip422)" d="M218.754 832.367 L207.442 827.679 L202.754 816.367 L207.442 805.055 L218.754 800.367 L230.066 805.055 L234.754 816.367 L230.066 827.679 Z" fill="#e26f46" fill-rule="evenodd" fill-opacity="1" stroke="#000000" stroke-opacity="1" stroke-width="3.2"/>
<path clip-path="url(#clip422)" d="M261.036 741.863 L249.724 737.175 L245.036 725.863 L249.724 714.551 L261.036 709.863 L272.348 714.551 L277.036 725.863 L272.348 737.175 Z" fill="#e26f46" fill-rule="evenodd" fill-opacity="1" stroke="#000000" stroke-opacity="1" stroke-width="3.2"/>
<path clip-path="url(#clip422)" d="M387.884 1063.31 L376.572 1058.62 L371.884 1047.31 L376.572 1036 L387.884 1031.31 L399.196 1036 L403.884 1047.31 L399.196 1058.62 Z" fill="#e26f46" fill-rule="evenodd" fill-opacity="1" stroke="#000000" stroke-opacity="1" stroke-width="3.2"/>
<path clip-path="url(#clip422)" d="M599.297 1082.95 L587.985 1078.27 L583.297 1066.95 L587.985 1055.64 L599.297 1050.95 L610.609 1055.64 L615.297 1066.95 L610.609 1078.27 Z" fill="#e26f46" fill-rule="evenodd" fill-opacity="1" stroke="#000000" stroke-opacity="1" stroke-width="3.2"/>
<path clip-path="url(#clip422)" d="M1022.12 1167.34 L1010.81 1162.65 L1006.12 1151.34 L1010.81 1140.03 L1022.12 1135.34 L1033.43 1140.03 L1038.12 1151.34 L1033.43 1162.65 Z" fill="#e26f46" fill-rule="evenodd" fill-opacity="1" stroke="#000000" stroke-opacity="1" stroke-width="3.2"/>
<path clip-path="url(#clip422)" d="M2290.6 1294.76 L2279.29 1290.07 L2274.6 1278.76 L2279.29 1267.45 L2290.6 1262.76 L2301.91 1267.45 L2306.6 1278.76 L2301.91 1290.07 Z" fill="#e26f46" fill-rule="evenodd" fill-opacity="1" stroke="#000000" stroke-opacity="1" stroke-width="3.2"/>
<path clip-path="url(#clip420)" d="
M1912.08 324.425 L2279.55 324.425 L2279.55 168.905 L1912.08 168.905  Z
  " fill="#ffffff" fill-rule="evenodd" fill-opacity="1"/>
<polyline clip-path="url(#clip420)" style="stroke:#000000; stroke-linecap:butt; stroke-linejoin:round; stroke-width:4; stroke-opacity:1; fill:none" points="
  1912.08,324.425 2279.55,324.425 2279.55,168.905 1912.08,168.905 1912.08,324.425 
  "/>
<polyline clip-path="url(#clip420)" style="stroke:#009af9; stroke-linecap:butt; stroke-linejoin:round; stroke-width:4; stroke-opacity:1; fill:none" points="
  1936.49,220.745 2082.9,220.745 
  "/>
<path clip-path="url(#clip420)" d="M2009.69 246.345 L1991.59 238.844 L1984.09 220.745 L1991.59 202.645 L2009.69 195.145 L2027.79 202.645 L2035.29 220.745 L2027.79 238.844 Z" fill="#009af9" fill-rule="evenodd" fill-opacity="1" stroke="#000000" stroke-opacity="1" stroke-width="5.12"/>
<path clip-path="url(#clip420)" d="M2127.46 216.219 Q2126.6 215.918 2125.75 215.687 Q2123.46 215.085 2121 215.085 Q2116.77 215.085 2114.41 217.377 Q2112.21 219.506 2111.79 223.418 L2127.46 223.418 L2127.46 226.752 L2111.79 226.752 Q2112.21 230.664 2114.41 232.793 Q2116.77 235.085 2121 235.085 Q2123.97 235.085 2125.75 234.483 L2127.46 233.904 L2127.46 237.77 L2125.63 238.187 Q2123.22 238.696 2120.75 238.696 Q2114.54 238.696 2110.93 235.085 Q2107.3 231.474 2107.3 225.085 Q2107.3 218.696 2110.93 215.085 Q2114.54 211.474 2120.75 211.474 Q2123.09 211.474 2125.63 211.983 Q2126.56 212.168 2127.46 212.446 L2127.46 216.219 Z" fill="#000000" fill-rule="evenodd" fill-opacity="1" /><path clip-path="url(#clip420)" d="M2138.87 216.497 L2168.55 216.497 L2168.55 220.386 L2138.87 220.386 L2138.87 216.497 M2138.87 225.941 L2168.55 225.941 L2168.55 229.877 L2138.87 229.877 L2138.87 225.941 Z" fill="#000000" fill-rule="evenodd" fill-opacity="1" /><path clip-path="url(#clip420)" d="M2179.45 234.089 L2187.09 234.089 L2187.09 207.724 L2178.78 209.391 L2178.78 205.131 L2187.04 203.465 L2191.72 203.465 L2191.72 234.089 L2199.36 234.089 L2199.36 238.025 L2179.45 238.025 L2179.45 234.089 Z" fill="#000000" fill-rule="evenodd" fill-opacity="1" /><polyline clip-path="url(#clip420)" style="stroke:#e26f46; stroke-linecap:butt; stroke-linejoin:round; stroke-width:4; stroke-opacity:1; fill:none" points="
  1936.49,272.585 2082.9,272.585 
  "/>
<path clip-path="url(#clip420)" d="M2009.69 298.185 L1991.59 290.684 L1984.09 272.585 L1991.59 254.485 L2009.69 246.985 L2027.79 254.485 L2035.29 272.585 L2027.79 290.684 Z" fill="#e26f46" fill-rule="evenodd" fill-opacity="1" stroke="#000000" stroke-opacity="1" stroke-width="5.12"/>
<path clip-path="url(#clip420)" d="M2127.46 268.059 Q2126.6 267.758 2125.75 267.527 Q2123.46 266.925 2121 266.925 Q2116.77 266.925 2114.41 269.217 Q2112.21 271.346 2111.79 275.258 L2127.46 275.258 L2127.46 278.592 L2111.79 278.592 Q2112.21 282.504 2114.41 284.633 Q2116.77 286.925 2121 286.925 Q2123.97 286.925 2125.75 286.323 L2127.46 285.744 L2127.46 289.61 L2125.63 290.027 Q2123.22 290.536 2120.75 290.536 Q2114.54 290.536 2110.93 286.925 Q2107.3 283.314 2107.3 276.925 Q2107.3 270.536 2110.93 266.925 Q2114.54 263.314 2120.75 263.314 Q2123.09 263.314 2125.63 263.823 Q2126.56 264.008 2127.46 264.286 L2127.46 268.059 Z" fill="#000000" fill-rule="evenodd" fill-opacity="1" /><path clip-path="url(#clip420)" d="M2138.87 268.337 L2168.55 268.337 L2168.55 272.226 L2138.87 272.226 L2138.87 268.337 M2138.87 277.781 L2168.55 277.781 L2168.55 281.717 L2138.87 281.717 L2138.87 277.781 Z" fill="#000000" fill-rule="evenodd" fill-opacity="1" /><path clip-path="url(#clip420)" d="M2179.45 285.929 L2187.09 285.929 L2187.09 259.564 L2178.78 261.231 L2178.78 256.971 L2187.04 255.305 L2191.72 255.305 L2191.72 285.929 L2199.36 285.929 L2199.36 289.865 L2179.45 289.865 L2179.45 285.929 Z" fill="#000000" fill-rule="evenodd" fill-opacity="1" /><path clip-path="url(#clip420)" d="M2218.8 258.383 Q2215.19 258.383 2213.36 261.948 Q2211.56 265.49 2211.56 272.619 Q2211.56 279.726 2213.36 283.291 Q2215.19 286.832 2218.8 286.832 Q2222.44 286.832 2224.24 283.291 Q2226.07 279.726 2226.07 272.619 Q2226.07 265.49 2224.24 261.948 Q2222.44 258.383 2218.8 258.383 M2218.8 254.68 Q2224.61 254.68 2227.67 259.286 Q2230.75 263.869 2230.75 272.619 Q2230.75 281.346 2227.67 285.953 Q2224.61 290.536 2218.8 290.536 Q2212.99 290.536 2209.91 285.953 Q2206.86 281.346 2206.86 272.619 Q2206.86 263.869 2209.91 259.286 Q2212.99 254.68 2218.8 254.68 Z" fill="#000000" fill-rule="evenodd" fill-opacity="1" /></svg>
