<?xml version="1.0" encoding="utf-8"?>
<svg xmlns="http://www.w3.org/2000/svg" xmlns:xlink="http://www.w3.org/1999/xlink" width="800" height="400" viewBox="0 0 3200 1600">
<defs>
  <clipPath id="clip580">
    <rect x="0" y="0" width="3200" height="1600"/>
  </clipPath>
</defs>
<path clip-path="url(#clip580)" d="
M0 1600 L3200 1600 L3200 0 L0 0  Z
  " fill="#ffffff" fill-rule="evenodd" fill-opacity="1"/>
<defs>
  <clipPath id="clip581">
    <rect x="640" y="0" width="2241" height="1600"/>
  </clipPath>
</defs>
<path clip-path="url(#clip580)" d="
M164.112 1495.09 L1552.76 1495.09 L1552.76 108.352 L164.112 108.352  Z
  " fill="#ffffff" fill-rule="evenodd" fill-opacity="1"/>
<defs>
  <clipPath id="clip582">
    <rect x="164" y="108" width="1390" height="1388"/>
  </clipPath>
</defs>
<polyline clip-path="url(#clip582)" style="stroke:#000000; stroke-linecap:butt; stroke-linejoin:round; stroke-width:2; stroke-opacity:0.1; fill:none" points="
  479.212,1495.09 479.212,108.352 
  "/>
<polyline clip-path="url(#clip582)" style="stroke:#000000; stroke-linecap:butt; stroke-linejoin:round; stroke-width:2; stroke-opacity:0.1; fill:none" points="
  823.959,1495.09 823.959,108.352 
  "/>
<polyline clip-path="url(#clip582)" style="stroke:#000000; stroke-linecap:butt; stroke-linejoin:round; stroke-width:2; stroke-opacity:0.1; fill:none" points="
  1168.71,1495.09 1168.71,108.352 
  "/>
<polyline clip-path="url(#clip582)" style="stroke:#000000; stroke-linecap:butt; stroke-linejoin:round; stroke-width:2; stroke-opacity:0.1; fill:none" points="
  1513.45,1495.09 1513.45,108.352 
  "/>
<polyline clip-path="url(#clip580)" style="stroke:#000000; stroke-linecap:butt; stroke-linejoin:round; stroke-width:4; stroke-opacity:1; fill:none" points="
  164.112,1495.09 1552.76,1495.09 
  "/>
<polyline clip-path="url(#clip580)" style="stroke:#000000; stroke-linecap:butt; stroke-linejoin:round; stroke-width:4; stroke-opacity:1; fill:none" points="
  479.212,1495.09 479.212,1476.19 
  "/>
<polyline clip-path="url(#clip580)" style="stroke:#000000; stroke-linecap:butt; stroke-linejoin:round; stroke-width:4; stroke-opacity:1; fill:none" points="
  823.959,1495.09 823.959,1476.19 
  "/>
<polyline clip-path="url(#clip580)" style="stroke:#000000; stroke-linecap:butt; stroke-linejoin:round; stroke-width:4; stroke-opacity:1; fill:none" points="
  1168.71,1495.09 1168.71,1476.19 
  "/>
<polyline clip-path="url(#clip580)" style="stroke:#000000; stroke-linecap:butt; stroke-linejoin:round; stroke-width:4; stroke-opacity:1; fill:none" points="
  1513.45,1495.09 1513.45,1476.19 
  "/>
<path clip-path="url(#clip580)" d="M438.83 1529.33 L457.186 1529.33 L457.186 1533.26 L443.112 1533.26 L443.112 1541.74 Q444.131 1541.39 445.149 1541.23 Q446.168 1541.04 447.186 1541.04 Q452.973 1541.04 456.353 1544.21 Q459.732 1547.38 459.732 1552.8 Q459.732 1558.38 456.26 1561.48 Q452.788 1564.56 446.469 1564.56 Q444.293 1564.56 442.024 1564.19 Q439.779 1563.82 437.371 1563.08 L437.371 1558.38 Q439.455 1559.51 441.677 1560.07 Q443.899 1560.62 446.376 1560.62 Q450.381 1560.62 452.719 1558.52 Q455.057 1556.41 455.057 1552.8 Q455.057 1549.19 452.719 1547.08 Q450.381 1544.98 446.376 1544.98 Q444.501 1544.98 442.626 1545.39 Q440.774 1545.81 438.83 1546.69 L438.83 1529.33 Z" fill="#000000" fill-rule="evenodd" fill-opacity="1" /><path clip-path="url(#clip580)" d="M478.945 1532.41 Q475.334 1532.41 473.506 1535.97 Q471.7 1539.51 471.7 1546.64 Q471.7 1553.75 473.506 1557.31 Q475.334 1560.86 478.945 1560.86 Q482.58 1560.86 484.385 1557.31 Q486.214 1553.75 486.214 1546.64 Q486.214 1539.51 484.385 1535.97 Q482.58 1532.41 478.945 1532.41 M478.945 1528.7 Q484.755 1528.7 487.811 1533.31 Q490.89 1537.89 490.89 1546.64 Q490.89 1555.37 487.811 1559.98 Q484.755 1564.56 478.945 1564.56 Q473.135 1564.56 470.056 1559.98 Q467.001 1555.37 467.001 1546.64 Q467.001 1537.89 470.056 1533.31 Q473.135 1528.7 478.945 1528.7 Z" fill="#000000" fill-rule="evenodd" fill-opacity="1" /><path clip-path="url(#clip580)" d="M509.107 1532.41 Q505.496 1532.41 503.667 1535.97 Q501.862 1539.51 501.862 1546.64 Q501.862 1553.75 503.667 1557.31 Q505.496 1560.86 509.107 1560.86 Q512.741 1560.86 514.547 1557.31 Q516.376 1553.75 516.376 1546.64 Q516.376 1539.51 514.547 1535.97 Q512.741 1532.41 509.107 1532.41 M509.107 1528.7 Q514.917 1528.7 517.973 1533.31 Q521.052 1537.89 521.052 1546.64 Q521.052 1555.37 517.973 1559.98 Q514.917 1564.56 509.107 1564.56 Q503.297 1564.56 500.218 1559.98 Q497.163 1555.37 497.163 1546.64 Q497.163 1537.89 500.218 1533.31 Q503.297 1528.7 509.107 1528.7 Z" fill="#000000" fill-rule="evenodd" fill-opacity="1" /><path clip-path="url(#clip580)" d="M768.485 1559.95 L776.124 1559.95 L776.124 1533.59 L767.814 1535.25 L767.814 1530.99 L776.078 1529.33 L780.753 1529.33 L780.753 1559.95 L788.392 1559.95 L788.392 1563.89 L768.485 1563.89 L768.485 1559.95 Z" fill="#000000" fill-rule="evenodd" fill-opacity="1" /><path clip-path="url(#clip580)" d="M807.837 1532.41 Q804.226 1532.41 802.397 1535.97 Q800.591 1539.51 800.591 1546.64 Q800.591 1553.75 802.397 1557.31 Q804.226 1560.86 807.837 1560.86 Q811.471 1560.86 813.276 1557.31 Q815.105 1553.75 815.105 1546.64 Q815.105 1539.51 813.276 1535.97 Q811.471 1532.41 807.837 1532.41 M807.837 1528.7 Q813.647 1528.7 816.702 1533.31 Q819.781 1537.89 819.781 1546.64 Q819.781 1555.37 816.702 1559.98 Q813.647 1564.56 807.837 1564.56 Q802.026 1564.56 798.948 1559.98 Q795.892 1555.37 795.892 1546.64 Q795.892 1537.89 798.948 1533.31 Q802.026 1528.7 807.837 1528.7 Z" fill="#000000" fill-rule="evenodd" fill-opacity="1" /><path clip-path="url(#clip580)" d="M837.999 1532.41 Q834.387 1532.41 832.559 1535.97 Q830.753 1539.51 830.753 1546.64 Q830.753 1553.75 832.559 1557.31 Q834.387 1560.86 837.999 1560.86 Q841.633 1560.86 843.438 1557.31 Q845.267 1553.75 845.267 1546.64 Q845.267 1539.51 843.438 1535.97 Q841.633 1532.41 837.999 1532.41 M837.999 1528.7 Q843.809 1528.7 846.864 1533.31 Q849.943 1537.89 849.943 1546.64 Q849.943 1555.37 846.864 1559.98 Q843.809 1564.56 837.999 1564.56 Q832.188 1564.56 829.11 1559.98 Q826.054 1555.37 826.054 1546.64 Q826.054 1537.89 829.11 1533.31 Q832.188 1528.7 837.999 1528.7 Z" fill="#000000" fill-rule="evenodd" fill-opacity="1" /><path clip-path="url(#clip580)" d="M868.16 1532.41 Q864.549 1532.41 862.721 1535.97 Q860.915 1539.51 860.915 1546.64 Q860.915 1553.75 862.721 1557.31 Q864.549 1560.86 868.16 1560.86 Q871.795 1560.86 873.6 1557.31 Q875.429 1553.75 875.429 1546.64 Q875.429 1539.51 873.6 1535.97 Q871.795 1532.41 868.16 1532.41 M868.16 1528.7 Q873.971 1528.7 877.026 1533.31 Q880.105 1537.89 880.105 1546.64 Q880.105 1555.37 877.026 1559.98 Q873.971 1564.56 868.16 1564.56 Q862.35 1564.56 859.272 1559.98 Q856.216 1555.37 856.216 1546.64 Q856.216 1537.89 859.272 1533.31 Q862.35 1528.7 868.16 1528.7 Z" fill="#000000" fill-rule="evenodd" fill-opacity="1" /><path clip-path="url(#clip580)" d="M1113.23 1559.95 L1120.87 1559.95 L1120.87 1533.59 L1112.56 1535.25 L1112.56 1530.99 L1120.83 1529.33 L1125.5 1529.33 L1125.5 1559.95 L1133.14 1559.95 L1133.14 1563.89 L1113.23 1563.89 L1113.23 1559.95 Z" fill="#000000" fill-rule="evenodd" fill-opacity="1" /><path clip-path="url(#clip580)" d="M1142.63 1529.33 L1160.99 1529.33 L1160.99 1533.26 L1146.91 1533.26 L1146.91 1541.74 Q1147.93 1541.39 1148.95 1541.23 Q1149.97 1541.04 1150.99 1541.04 Q1156.77 1541.04 1160.15 1544.21 Q1163.53 1547.38 1163.53 1552.8 Q1163.53 1558.38 1160.06 1561.48 Q1156.59 1564.56 1150.27 1564.56 Q1148.09 1564.56 1145.83 1564.19 Q1143.58 1563.82 1141.17 1563.08 L1141.17 1558.38 Q1143.26 1559.51 1145.48 1560.07 Q1147.7 1560.62 1150.18 1560.62 Q1154.18 1560.62 1156.52 1558.52 Q1158.86 1556.41 1158.86 1552.8 Q1158.86 1549.19 1156.52 1547.08 Q1154.18 1544.98 1150.18 1544.98 Q1148.3 1544.98 1146.43 1545.39 Q1144.58 1545.81 1142.63 1546.69 L1142.63 1529.33 Z" fill="#000000" fill-rule="evenodd" fill-opacity="1" /><path clip-path="url(#clip580)" d="M1182.75 1532.41 Q1179.14 1532.41 1177.31 1535.97 Q1175.5 1539.51 1175.5 1546.64 Q1175.5 1553.75 1177.31 1557.31 Q1179.14 1560.86 1182.75 1560.86 Q1186.38 1560.86 1188.19 1557.31 Q1190.01 1553.75 1190.01 1546.64 Q1190.01 1539.51 1188.19 1535.97 Q1186.38 1532.41 1182.75 1532.41 M1182.75 1528.7 Q1188.56 1528.7 1191.61 1533.31 Q1194.69 1537.89 1194.69 1546.64 Q1194.69 1555.37 1191.61 1559.98 Q1188.56 1564.56 1182.75 1564.56 Q1176.94 1564.56 1173.86 1559.98 Q1170.8 1555.37 1170.8 1546.64 Q1170.8 1537.89 1173.86 1533.31 Q1176.94 1528.7 1182.75 1528.7 Z" fill="#000000" fill-rule="evenodd" fill-opacity="1" /><path clip-path="url(#clip580)" d="M1212.91 1532.41 Q1209.3 1532.41 1207.47 1535.97 Q1205.66 1539.51 1205.66 1546.64 Q1205.66 1553.75 1207.47 1557.31 Q1209.3 1560.86 1212.91 1560.86 Q1216.54 1560.86 1218.35 1557.31 Q1220.18 1553.75 1220.18 1546.64 Q1220.18 1539.51 1218.35 1535.97 Q1216.54 1532.41 1212.91 1532.41 M1212.91 1528.7 Q1218.72 1528.7 1221.77 1533.31 Q1224.85 1537.89 1224.85 1546.64 Q1224.85 1555.37 1221.77 1559.98 Q1218.72 1564.56 1212.91 1564.56 Q1207.1 1564.56 1204.02 1559.98 Q1200.96 1555.37 1200.96 1546.64 Q1200.96 1537.89 1204.02 1533.31 Q1207.1 1528.7 1212.91 1528.7 Z" fill="#000000" fill-rule="evenodd" fill-opacity="1" /><path clip-path="url(#clip580)" d="M1462.07 1559.95 L1478.39 1559.95 L1478.39 1563.89 L1456.44 1563.89 L1456.44 1559.95 Q1459.1 1557.2 1463.69 1552.57 Q1468.29 1547.92 1469.47 1546.57 Q1471.72 1544.05 1472.6 1542.31 Q1473.5 1540.55 1473.5 1538.86 Q1473.5 1536.11 1471.56 1534.37 Q1469.64 1532.64 1466.53 1532.64 Q1464.33 1532.64 1461.88 1533.4 Q1459.45 1534.17 1456.67 1535.72 L1456.67 1530.99 Q1459.5 1529.86 1461.95 1529.28 Q1464.4 1528.7 1466.44 1528.7 Q1471.81 1528.7 1475.01 1531.39 Q1478.2 1534.07 1478.2 1538.56 Q1478.2 1540.69 1477.39 1542.61 Q1476.6 1544.51 1474.5 1547.11 Q1473.92 1547.78 1470.82 1550.99 Q1467.71 1554.19 1462.07 1559.95 Z" fill="#000000" fill-rule="evenodd" fill-opacity="1" /><path clip-path="url(#clip580)" d="M1498.2 1532.41 Q1494.59 1532.41 1492.76 1535.97 Q1490.95 1539.51 1490.95 1546.64 Q1490.95 1553.75 1492.76 1557.31 Q1494.59 1560.86 1498.2 1560.86 Q1501.83 1560.86 1503.64 1557.31 Q1505.47 1553.75 1505.47 1546.64 Q1505.47 1539.51 1503.64 1535.97 Q1501.83 1532.41 1498.2 1532.41 M1498.2 1528.7 Q1504.01 1528.7 1507.07 1533.31 Q1510.14 1537.89 1510.14 1546.64 Q1510.14 1555.37 1507.07 1559.98 Q1504.01 1564.56 1498.2 1564.56 Q1492.39 1564.56 1489.31 1559.98 Q1486.26 1555.37 1486.26 1546.64 Q1486.26 1537.89 1489.31 1533.31 Q1492.39 1528.7 1498.2 1528.7 Z" fill="#000000" fill-rule="evenodd" fill-opacity="1" /><path clip-path="url(#clip580)" d="M1528.36 1532.41 Q1524.75 1532.41 1522.92 1535.97 Q1521.12 1539.51 1521.12 1546.64 Q1521.12 1553.75 1522.92 1557.31 Q1524.75 1560.86 1528.36 1560.86 Q1532 1560.86 1533.8 1557.31 Q1535.63 1553.75 1535.63 1546.64 Q1535.63 1539.51 1533.8 1535.97 Q1532 1532.41 1528.36 1532.41 M1528.36 1528.7 Q1534.17 1528.7 1537.23 1533.31 Q1540.31 1537.89 1540.31 1546.64 Q1540.31 1555.37 1537.23 1559.98 Q1534.17 1564.56 1528.36 1564.56 Q1522.55 1564.56 1519.47 1559.98 Q1516.42 1555.37 1516.42 1546.64 Q1516.42 1537.89 1519.47 1533.31 Q1522.55 1528.7 1528.36 1528.7 Z" fill="#000000" fill-rule="evenodd" fill-opacity="1" /><path clip-path="url(#clip580)" d="M1558.52 1532.41 Q1554.91 1532.41 1553.08 1535.97 Q1551.28 1539.51 1551.28 1546.64 Q1551.28 1553.75 1553.08 1557.31 Q1554.91 1560.86 1558.52 1560.86 Q1562.16 1560.86 1563.96 1557.31 Q1565.79 1553.75 1565.79 1546.64 Q1565.79 1539.51 1563.96 1535.97 Q1562.16 1532.41 1558.52 1532.41 M1558.52 1528.7 Q1564.33 1528.7 1567.39 1533.31 Q1570.47 1537.89 1570.47 1546.64 Q1570.47 1555.37 1567.39 1559.98 Q1564.33 1564.56 1558.52 1564.56 Q1552.71 1564.56 1549.64 1559.98 Q1546.58 1555.37 1546.58 1546.64 Q1546.58 1537.89 1549.64 1533.31 Q1552.71 1528.7 1558.52 1528.7 Z" fill="#000000" fill-rule="evenodd" fill-opacity="1" /><polyline clip-path="url(#clip582)" style="stroke:#000000; stroke-linecap:butt; stroke-linejoin:round; stroke-width:2; stroke-opacity:0.1; fill:none" points="
  164.112,1495.09 1552.76,1495.09 
  "/>
<polyline clip-path="url(#clip582)" style="stroke:#000000; stroke-linecap:butt; stroke-linejoin:round; stroke-width:2; stroke-opacity:0.1; fill:none" points="
  164.112,1032.84 1552.76,1032.84 
  "/>
<polyline clip-path="url(#clip582)" style="stroke:#000000; stroke-linecap:butt; stroke-linejoin:round; stroke-width:2; stroke-opacity:0.1; fill:none" points="
  164.112,570.597 1552.76,570.597 
  "/>
<polyline clip-path="url(#clip582)" style="stroke:#000000; stroke-linecap:butt; stroke-linejoin:round; stroke-width:2; stroke-opacity:0.1; fill:none" points="
  164.112,108.352 1552.76,108.352 
  "/>
<polyline clip-path="url(#clip580)" style="stroke:#000000; stroke-linecap:butt; stroke-linejoin:round; stroke-width:4; stroke-opacity:1; fill:none" points="
  164.112,1495.09 164.112,108.352 
  "/>
<polyline clip-path="url(#clip580)" style="stroke:#000000; stroke-linecap:butt; stroke-linejoin:round; stroke-width:4; stroke-opacity:1; fill:none" points="
  164.112,1495.09 183.01,1495.09 
  "/>
<polyline clip-path="url(#clip580)" style="stroke:#000000; stroke-linecap:butt; stroke-linejoin:round; stroke-width:4; stroke-opacity:1; fill:none" points="
  164.112,1032.84 183.01,1032.84 
  "/>
<polyline clip-path="url(#clip580)" style="stroke:#000000; stroke-linecap:butt; stroke-linejoin:round; stroke-width:4; stroke-opacity:1; fill:none" points="
  164.112,570.597 183.01,570.597 
  "/>
<polyline clip-path="url(#clip580)" style="stroke:#000000; stroke-linecap:butt; stroke-linejoin:round; stroke-width:4; stroke-opacity:1; fill:none" points="
  164.112,108.352 183.01,108.352 
  "/>
<path clip-path="url(#clip580)" d="M58.9365 1480.89 Q55.3254 1480.89 53.4967 1484.45 Q51.6912 1487.99 51.6912 1495.12 Q51.6912 1502.23 53.4967 1505.79 Q55.3254 1509.34 58.9365 1509.34 Q62.5707 1509.34 64.3763 1505.79 Q66.205 1502.23 66.205 1495.12 Q66.205 1487.99 64.3763 1484.45 Q62.5707 1480.89 58.9365 1480.89 M58.9365 1477.18 Q64.7467 1477.18 67.8022 1481.79 Q70.8809 1486.37 70.8809 1495.12 Q70.8809 1503.85 67.8022 1508.46 Q64.7467 1513.04 58.9365 1513.04 Q53.1264 1513.04 50.0477 1508.46 Q46.9921 1503.85 46.9921 1495.12 Q46.9921 1486.37 50.0477 1481.79 Q53.1264 1477.18 58.9365 1477.18 Z" fill="#000000" fill-rule="evenodd" fill-opacity="1" /><path clip-path="url(#clip580)" d="M79.0984 1506.49 L83.9827 1506.49 L83.9827 1512.37 L79.0984 1512.37 L79.0984 1506.49 Z" fill="#000000" fill-rule="evenodd" fill-opacity="1" /><path clip-path="url(#clip580)" d="M104.168 1480.89 Q100.557 1480.89 98.728 1484.45 Q96.9224 1487.99 96.9224 1495.12 Q96.9224 1502.23 98.728 1505.79 Q100.557 1509.34 104.168 1509.34 Q107.802 1509.34 109.608 1505.79 Q111.436 1502.23 111.436 1495.12 Q111.436 1487.99 109.608 1484.45 Q107.802 1480.89 104.168 1480.89 M104.168 1477.18 Q109.978 1477.18 113.033 1481.79 Q116.112 1486.37 116.112 1495.12 Q116.112 1503.85 113.033 1508.46 Q109.978 1513.04 104.168 1513.04 Q98.3576 1513.04 95.2789 1508.46 Q92.2234 1503.85 92.2234 1495.12 Q92.2234 1486.37 95.2789 1481.79 Q98.3576 1477.18 104.168 1477.18 Z" fill="#000000" fill-rule="evenodd" fill-opacity="1" /><path clip-path="url(#clip580)" d="M59.9319 1018.64 Q56.3208 1018.64 54.4921 1022.21 Q52.6865 1025.75 52.6865 1032.88 Q52.6865 1039.98 54.4921 1043.55 Q56.3208 1047.09 59.9319 1047.09 Q63.5661 1047.09 65.3717 1043.55 Q67.2004 1039.98 67.2004 1032.88 Q67.2004 1025.75 65.3717 1022.21 Q63.5661 1018.64 59.9319 1018.64 M59.9319 1014.94 Q65.742 1014.94 68.7976 1019.54 Q71.8763 1024.13 71.8763 1032.88 Q71.8763 1041.6 68.7976 1046.21 Q65.742 1050.79 59.9319 1050.79 Q54.1217 1050.79 51.043 1046.21 Q47.9875 1041.6 47.9875 1032.88 Q47.9875 1024.13 51.043 1019.54 Q54.1217 1014.94 59.9319 1014.94 Z" fill="#000000" fill-rule="evenodd" fill-opacity="1" /><path clip-path="url(#clip580)" d="M80.0938 1044.24 L84.978 1044.24 L84.978 1050.12 L80.0938 1050.12 L80.0938 1044.24 Z" fill="#000000" fill-rule="evenodd" fill-opacity="1" /><path clip-path="url(#clip580)" d="M95.2095 1015.56 L113.566 1015.56 L113.566 1019.5 L99.4918 1019.5 L99.4918 1027.97 Q100.51 1027.62 101.529 1027.46 Q102.547 1027.28 103.566 1027.28 Q109.353 1027.28 112.733 1030.45 Q116.112 1033.62 116.112 1039.03 Q116.112 1044.61 112.64 1047.72 Q109.168 1050.79 102.848 1050.79 Q100.672 1050.79 98.4039 1050.42 Q96.1585 1050.05 93.7511 1049.31 L93.7511 1044.61 Q95.8345 1045.75 98.0567 1046.3 Q100.279 1046.86 102.756 1046.86 Q106.76 1046.86 109.098 1044.75 Q111.436 1042.65 111.436 1039.03 Q111.436 1035.42 109.098 1033.32 Q106.76 1031.21 102.756 1031.21 Q100.881 1031.21 99.0057 1031.63 Q97.1539 1032.04 95.2095 1032.92 L95.2095 1015.56 Z" fill="#000000" fill-rule="evenodd" fill-opacity="1" /><path clip-path="url(#clip580)" d="M49.7467 583.942 L57.3856 583.942 L57.3856 557.577 L49.0754 559.243 L49.0754 554.984 L57.3393 553.317 L62.0152 553.317 L62.0152 583.942 L69.654 583.942 L69.654 587.877 L49.7467 587.877 L49.7467 583.942 Z" fill="#000000" fill-rule="evenodd" fill-opacity="1" /><path clip-path="url(#clip580)" d="M79.0984 581.998 L83.9827 581.998 L83.9827 587.877 L79.0984 587.877 L79.0984 581.998 Z" fill="#000000" fill-rule="evenodd" fill-opacity="1" /><path clip-path="url(#clip580)" d="M104.168 556.396 Q100.557 556.396 98.728 559.961 Q96.9224 563.503 96.9224 570.632 Q96.9224 577.739 98.728 581.303 Q100.557 584.845 104.168 584.845 Q107.802 584.845 109.608 581.303 Q111.436 577.739 111.436 570.632 Q111.436 563.503 109.608 559.961 Q107.802 556.396 104.168 556.396 M104.168 552.692 Q109.978 552.692 113.033 557.299 Q116.112 561.882 116.112 570.632 Q116.112 579.359 113.033 583.965 Q109.978 588.549 104.168 588.549 Q98.3576 588.549 95.2789 583.965 Q92.2234 579.359 92.2234 570.632 Q92.2234 561.882 95.2789 557.299 Q98.3576 552.692 104.168 552.692 Z" fill="#000000" fill-rule="evenodd" fill-opacity="1" /><path clip-path="url(#clip580)" d="M50.7421 121.697 L58.381 121.697 L58.381 95.3314 L50.0708 96.998 L50.0708 92.7388 L58.3347 91.0721 L63.0106 91.0721 L63.0106 121.697 L70.6494 121.697 L70.6494 125.632 L50.7421 125.632 L50.7421 121.697 Z" fill="#000000" fill-rule="evenodd" fill-opacity="1" /><path clip-path="url(#clip580)" d="M80.0938 119.753 L84.978 119.753 L84.978 125.632 L80.0938 125.632 L80.0938 119.753 Z" fill="#000000" fill-rule="evenodd" fill-opacity="1" /><path clip-path="url(#clip580)" d="M95.2095 91.0721 L113.566 91.0721 L113.566 95.0073 L99.4918 95.0073 L99.4918 103.479 Q100.51 103.132 101.529 102.97 Q102.547 102.785 103.566 102.785 Q109.353 102.785 112.733 105.956 Q116.112 109.128 116.112 114.544 Q116.112 120.123 112.64 123.225 Q109.168 126.303 102.848 126.303 Q100.672 126.303 98.4039 125.933 Q96.1585 125.563 93.7511 124.822 L93.7511 120.123 Q95.8345 121.257 98.0567 121.813 Q100.279 122.368 102.756 122.368 Q106.76 122.368 109.098 120.262 Q111.436 118.155 111.436 114.544 Q111.436 110.933 109.098 108.827 Q106.76 106.72 102.756 106.72 Q100.881 106.72 99.0057 107.137 Q97.1539 107.554 95.2095 108.433 L95.2095 91.0721 Z" fill="#000000" fill-rule="evenodd" fill-opacity="1" /><path clip-path="url(#clip580)" d="M498.207 34.4165 Q496.709 33.8899 495.21 33.4848 Q491.199 32.4315 486.905 32.4315 Q479.492 32.4315 475.36 36.4419 Q471.512 40.1688 470.783 47.0148 L498.207 47.0148 L498.207 52.8481 L470.783 52.8481 Q471.512 59.6941 475.36 63.421 Q479.492 67.4314 486.905 67.4314 Q492.09 67.4314 495.21 66.3781 L498.207 65.3654 L498.207 72.1304 L495.007 72.8596 Q490.794 73.7508 486.46 73.7508 Q475.603 73.7508 469.284 67.4314 Q462.924 61.1119 462.924 49.9314 Q462.924 38.7509 469.284 32.4315 Q475.603 26.1121 486.46 26.1121 Q490.551 26.1121 495.007 27.0033 Q496.628 27.3274 498.207 27.8135 L498.207 34.4165 Z" fill="#000000" fill-rule="evenodd" fill-opacity="1" /><path clip-path="url(#clip580)" d="M550.788 65.7705 L550.788 89.8329 L543.294 89.8329 L543.294 27.2059 L550.788 27.2059 L550.788 34.0924 Q553.138 30.0415 556.702 28.0971 Q560.308 26.1121 565.29 26.1121 Q573.554 26.1121 578.699 32.6746 Q583.884 39.2371 583.884 49.9314 Q583.884 60.6258 578.699 67.1883 Q573.554 73.7508 565.29 73.7508 Q560.308 73.7508 556.702 71.8063 Q553.138 69.8214 550.788 65.7705 M576.147 49.9314 Q576.147 41.7081 572.744 37.0496 Q569.382 32.3505 563.467 32.3505 Q557.553 32.3505 554.15 37.0496 Q550.788 41.7081 550.788 49.9314 Q550.788 58.1548 554.15 62.8538 Q557.553 67.5124 563.467 67.5124 Q569.382 67.5124 572.744 62.8538 Q576.147 58.1548 576.147 49.9314 Z" fill="#000000" fill-rule="evenodd" fill-opacity="1" /><path clip-path="url(#clip580)" d="M595.47 54.671 L595.47 27.2059 L602.923 27.2059 L602.923 54.3874 Q602.923 60.8284 605.435 64.0691 Q607.946 67.2693 612.969 67.2693 Q619.005 67.2693 622.489 63.421 Q626.013 59.5726 626.013 52.9291 L626.013 27.2059 L633.467 27.2059 L633.467 72.576 L626.013 72.576 L626.013 65.6084 Q623.299 69.7404 619.694 71.7658 Q616.129 73.7508 611.39 73.7508 Q603.571 73.7508 599.52 68.8897 Q595.47 64.0286 595.47 54.671 M614.225 26.1121 L614.225 26.1121 Z" fill="#000000" fill-rule="evenodd" fill-opacity="1" /><path clip-path="url(#clip580)" d="M681.389 49.9314 Q681.389 41.7081 677.986 37.0496 Q674.624 32.3505 668.71 32.3505 Q662.796 32.3505 659.393 37.0496 Q656.031 41.7081 656.031 49.9314 Q656.031 58.1548 659.393 62.8538 Q662.796 67.5124 668.71 67.5124 Q674.624 67.5124 677.986 62.8538 Q681.389 58.1548 681.389 49.9314 M656.031 34.0924 Q658.38 30.0415 661.945 28.0971 Q665.55 26.1121 670.533 26.1121 Q678.797 26.1121 683.941 32.6746 Q689.126 39.2371 689.126 49.9314 Q689.126 60.6258 683.941 67.1883 Q678.797 73.7508 670.533 73.7508 Q665.55 73.7508 661.945 71.8063 Q658.38 69.8214 656.031 65.7705 L656.031 72.576 L648.536 72.576 L648.536 9.54393 L656.031 9.54393 L656.031 34.0924 Z" fill="#000000" fill-rule="evenodd" fill-opacity="1" /><path clip-path="url(#clip580)" d="M701.482 9.54393 L708.935 9.54393 L708.935 72.576 L701.482 72.576 L701.482 9.54393 Z" fill="#000000" fill-rule="evenodd" fill-opacity="1" /><path clip-path="url(#clip580)" d="M724.531 27.2059 L731.985 27.2059 L731.985 72.576 L724.531 72.576 L724.531 27.2059 M724.531 9.54393 L731.985 9.54393 L731.985 18.9825 L724.531 18.9825 L724.531 9.54393 Z" fill="#000000" fill-rule="evenodd" fill-opacity="1" /><path clip-path="url(#clip580)" d="M780.231 28.9478 L780.231 35.9153 Q777.072 34.1734 773.871 33.3227 Q770.712 32.4315 767.471 32.4315 Q760.22 32.4315 756.209 37.0496 Q752.199 41.6271 752.199 49.9314 Q752.199 58.2358 756.209 62.8538 Q760.22 67.4314 767.471 67.4314 Q770.712 67.4314 773.871 66.5807 Q777.072 65.6895 780.231 63.9476 L780.231 70.8341 Q777.112 72.2924 773.75 73.0216 Q770.428 73.7508 766.661 73.7508 Q756.412 73.7508 750.376 67.3098 Q744.34 60.8689 744.34 49.9314 Q744.34 38.832 750.417 32.472 Q756.534 26.1121 767.147 26.1121 Q770.59 26.1121 773.871 26.8413 Q777.153 27.5299 780.231 28.9478 Z" fill="#000000" fill-rule="evenodd" fill-opacity="1" /><path clip-path="url(#clip580)" d="M793.194 9.54393 L800.648 9.54393 L800.648 72.576 L793.194 72.576 L793.194 9.54393 Z" fill="#000000" fill-rule="evenodd" fill-opacity="1" /><path clip-path="url(#clip580)" d="M835.121 76.7889 Q831.961 84.8907 828.964 87.3618 Q825.966 89.8329 820.943 89.8329 L814.988 89.8329 L814.988 83.5945 L819.363 83.5945 Q822.442 83.5945 824.143 82.1361 Q825.844 80.6778 827.91 75.2496 L829.247 71.8468 L810.897 27.2059 L818.796 27.2059 L832.974 62.6918 L847.152 27.2059 L855.052 27.2059 L835.121 76.7889 Z" fill="#000000" fill-rule="evenodd" fill-opacity="1" /><path clip-path="url(#clip580)" d="M912.331 49.7694 Q903.298 49.7694 899.814 51.8354 Q896.33 53.9013 896.33 58.8839 Q896.33 62.8538 898.923 65.2034 Q901.556 67.5124 906.052 67.5124 Q912.25 67.5124 915.977 63.1374 Q919.744 58.7219 919.744 51.4303 L919.744 49.7694 L912.331 49.7694 M927.198 46.6907 L927.198 72.576 L919.744 72.576 L919.744 65.6895 Q917.192 69.8214 913.385 71.8063 Q909.577 73.7508 904.067 73.7508 Q897.1 73.7508 892.968 69.8619 Q888.877 65.9325 888.877 59.3701 Q888.877 51.7138 893.981 47.825 Q899.125 43.9361 909.293 43.9361 L919.744 43.9361 L919.744 43.2069 Q919.744 38.0623 916.342 35.2672 Q912.979 32.4315 906.863 32.4315 Q902.974 32.4315 899.287 33.3632 Q895.601 34.295 892.198 36.1584 L892.198 29.2718 Q896.29 27.692 900.138 26.9223 Q903.986 26.1121 907.632 26.1121 Q917.476 26.1121 922.337 31.2163 Q927.198 36.3204 927.198 46.6907 Z" fill="#000000" fill-rule="evenodd" fill-opacity="1" /><path clip-path="url(#clip580)" d="M937.204 27.2059 L945.103 27.2059 L959.281 65.2844 L973.459 27.2059 L981.359 27.2059 L964.345 72.576 L954.218 72.576 L937.204 27.2059 Z" fill="#000000" fill-rule="evenodd" fill-opacity="1" /><path clip-path="url(#clip580)" d="M1012.27 49.7694 Q1003.23 49.7694 999.75 51.8354 Q996.266 53.9013 996.266 58.8839 Q996.266 62.8538 998.859 65.2034 Q1001.49 67.5124 1005.99 67.5124 Q1012.19 67.5124 1015.91 63.1374 Q1019.68 58.7219 1019.68 51.4303 L1019.68 49.7694 L1012.27 49.7694 M1027.13 46.6907 L1027.13 72.576 L1019.68 72.576 L1019.68 65.6895 Q1017.13 69.8214 1013.32 71.8063 Q1009.51 73.7508 1004 73.7508 Q997.036 73.7508 992.904 69.8619 Q988.812 65.9325 988.812 59.3701 Q988.812 51.7138 993.917 47.825 Q999.061 43.9361 1009.23 43.9361 L1019.68 43.9361 L1019.68 43.2069 Q1019.68 38.0623 1016.28 35.2672 Q1012.92 32.4315 1006.8 32.4315 Q1002.91 32.4315 999.223 33.3632 Q995.537 34.295 992.134 36.1584 L992.134 29.2718 Q996.226 27.692 1000.07 26.9223 Q1003.92 26.1121 1007.57 26.1121 Q1017.41 26.1121 1022.27 31.2163 Q1027.13 36.3204 1027.13 46.6907 Z" fill="#000000" fill-rule="evenodd" fill-opacity="1" /><path clip-path="url(#clip580)" d="M1042.49 27.2059 L1049.94 27.2059 L1049.94 72.576 L1042.49 72.576 L1042.49 27.2059 M1042.49 9.54393 L1049.94 9.54393 L1049.94 18.9825 L1042.49 18.9825 L1042.49 9.54393 Z" fill="#000000" fill-rule="evenodd" fill-opacity="1" /><path clip-path="url(#clip580)" d="M1065.54 9.54393 L1072.99 9.54393 L1072.99 72.576 L1065.54 72.576 L1065.54 9.54393 Z" fill="#000000" fill-rule="evenodd" fill-opacity="1" /><path clip-path="url(#clip580)" d="M1109.21 49.7694 Q1100.17 49.7694 1096.69 51.8354 Q1093.2 53.9013 1093.2 58.8839 Q1093.2 62.8538 1095.8 65.2034 Q1098.43 67.5124 1102.93 67.5124 Q1109.12 67.5124 1112.85 63.1374 Q1116.62 58.7219 1116.62 51.4303 L1116.62 49.7694 L1109.21 49.7694 M1124.07 46.6907 L1124.07 72.576 L1116.62 72.576 L1116.62 65.6895 Q1114.07 69.8214 1110.26 71.8063 Q1106.45 73.7508 1100.94 73.7508 Q1093.97 73.7508 1089.84 69.8619 Q1085.75 65.9325 1085.75 59.3701 Q1085.75 51.7138 1090.85 47.825 Q1096 43.9361 1106.17 43.9361 L1116.62 43.9361 L1116.62 43.2069 Q1116.62 38.0623 1113.22 35.2672 Q1109.85 32.4315 1103.74 32.4315 Q1099.85 32.4315 1096.16 33.3632 Q1092.48 34.295 1089.07 36.1584 L1089.07 29.2718 Q1093.16 27.692 1097.01 26.9223 Q1100.86 26.1121 1104.51 26.1121 Q1114.35 26.1121 1119.21 31.2163 Q1124.07 36.3204 1124.07 46.6907 Z" fill="#000000" fill-rule="evenodd" fill-opacity="1" /><path clip-path="url(#clip580)" d="M1171.99 49.9314 Q1171.99 41.7081 1168.59 37.0496 Q1165.23 32.3505 1159.31 32.3505 Q1153.4 32.3505 1150 37.0496 Q1146.64 41.7081 1146.64 49.9314 Q1146.64 58.1548 1150 62.8538 Q1153.4 67.5124 1159.31 67.5124 Q1165.23 67.5124 1168.59 62.8538 Q1171.99 58.1548 1171.99 49.9314 M1146.64 34.0924 Q1148.99 30.0415 1152.55 28.0971 Q1156.16 26.1121 1161.14 26.1121 Q1169.4 26.1121 1174.55 32.6746 Q1179.73 39.2371 1179.73 49.9314 Q1179.73 60.6258 1174.55 67.1883 Q1169.4 73.7508 1161.14 73.7508 Q1156.16 73.7508 1152.55 71.8063 Q1148.99 69.8214 1146.64 65.7705 L1146.64 72.576 L1139.14 72.576 L1139.14 9.54393 L1146.64 9.54393 L1146.64 34.0924 Z" fill="#000000" fill-rule="evenodd" fill-opacity="1" /><path clip-path="url(#clip580)" d="M1192.09 9.54393 L1199.54 9.54393 L1199.54 72.576 L1192.09 72.576 L1192.09 9.54393 Z" fill="#000000" fill-rule="evenodd" fill-opacity="1" /><path clip-path="url(#clip580)" d="M1253.94 48.0275 L1253.94 51.6733 L1219.67 51.6733 Q1220.16 59.3701 1224.29 63.421 Q1228.46 67.4314 1235.88 67.4314 Q1240.17 67.4314 1244.18 66.3781 Q1248.23 65.3249 1252.2 63.2184 L1252.2 70.267 Q1248.19 71.9684 1243.98 72.8596 Q1239.77 73.7508 1235.43 73.7508 Q1224.57 73.7508 1218.22 67.4314 Q1211.9 61.1119 1211.9 50.3365 Q1211.9 39.1965 1217.89 32.6746 Q1223.93 26.1121 1234.14 26.1121 Q1243.29 26.1121 1248.6 32.0264 Q1253.94 37.9003 1253.94 48.0275 M1246.49 45.84 Q1246.41 39.7232 1243.05 36.0774 Q1239.73 32.4315 1234.22 32.4315 Q1227.98 32.4315 1224.21 35.9558 Q1220.48 39.4801 1219.92 45.8805 L1246.49 45.84 Z" fill="#000000" fill-rule="evenodd" fill-opacity="1" /><polyline clip-path="url(#clip582)" style="stroke:#009af9; stroke-linecap:butt; stroke-linejoin:round; stroke-width:12; stroke-opacity:1; fill:none" points="
  203.413,1072.48 272.363,1085.65 410.262,1193.04 686.06,1262 823.959,1242.11 1513.45,1346.41 
  "/>
<path clip-path="url(#clip582)" d="M203.413 1088.48 L192.101 1083.79 L187.413 1072.48 L192.101 1061.17 L203.413 1056.48 L214.725 1061.17 L219.413 1072.48 L214.725 1083.79 Z" fill="#009af9" fill-rule="evenodd" fill-opacity="1" stroke="#000000" stroke-opacity="1" stroke-width="3.2"/>
<path clip-path="url(#clip582)" d="M272.363 1101.65 L261.051 1096.96 L256.363 1085.65 L261.051 1074.34 L272.363 1069.65 L283.675 1074.34 L288.363 1085.65 L283.675 1096.96 Z" fill="#009af9" fill-rule="evenodd" fill-opacity="1" stroke="#000000" stroke-opacity="1" stroke-width="3.2"/>
<path clip-path="url(#clip582)" d="M410.262 1209.04 L398.95 1204.35 L394.262 1193.04 L398.95 1181.73 L410.262 1177.04 L421.574 1181.73 L426.262 1193.04 L421.574 1204.35 Z" fill="#009af9" fill-rule="evenodd" fill-opacity="1" stroke="#000000" stroke-opacity="1" stroke-width="3.2"/>
<path clip-path="url(#clip582)" d="M686.06 1278 L674.748 1273.31 L670.06 1262 L674.748 1250.68 L686.06 1246 L697.372 1250.68 L702.06 1262 L697.372 1273.31 Z" fill="#009af9" fill-rule="evenodd" fill-opacity="1" stroke="#000000" stroke-opacity="1" stroke-width="3.2"/>
<path clip-path="url(#clip582)" d="M823.959 1258.11 L812.647 1253.42 L807.959 1242.11 L812.647 1230.8 L823.959 1226.11 L835.271 1230.8 L839.959 1242.11 L835.271 1253.42 Z" fill="#009af9" fill-rule="evenodd" fill-opacity="1" stroke="#000000" stroke-opacity="1" stroke-width="3.2"/>
<path clip-path="url(#clip582)" d="M1513.45 1362.41 L1502.14 1357.73 L1497.45 1346.41 L1502.14 1335.1 L1513.45 1330.41 L1524.77 1335.1 L1529.45 1346.41 L1524.77 1357.73 Z" fill="#009af9" fill-rule="evenodd" fill-opacity="1" stroke="#000000" stroke-opacity="1" stroke-width="3.2"/>
<polyline clip-path="url(#clip582)" style="stroke:#e26f46; stroke-linecap:butt; stroke-linejoin:round; stroke-width:12; stroke-opacity:1; fill:none" points="
  203.413,1110.89 272.363,1162.37 410.262,1241.32 686.06,1326.42 823.959,1316.49 1513.45,1378.24 
  "/>
<path clip-path="url(#clip582)" d="M203.413 1126.89 L192.101 1122.2 L187.413 1110.89 L192.101 1099.57 L203.413 1094.89 L214.725 1099.57 L219.413 1110.89 L214.725 1122.2 Z" fill="#e26f46" fill-rule="evenodd" fill-opacity="1" stroke="#000000" stroke-opacity="1" stroke-width="3.2"/>
<path clip-path="url(#clip582)" d="M272.363 1178.37 L261.051 1173.68 L256.363 1162.37 L261.051 1151.05 L272.363 1146.37 L283.675 1151.05 L288.363 1162.37 L283.675 1173.68 Z" fill="#e26f46" fill-rule="evenodd" fill-opacity="1" stroke="#000000" stroke-opacity="1" stroke-width="3.2"/>
<path clip-path="url(#clip582)" d="M410.262 1257.32 L398.95 1252.63 L394.262 1241.32 L398.95 1230.01 L410.262 1225.32 L421.574 1230.01 L426.262 1241.32 L421.574 1252.63 Z" fill="#e26f46" fill-rule="evenodd" fill-opacity="1" stroke="#000000" stroke-opacity="1" stroke-width="3.2"/>
<path clip-path="url(#clip582)" d="M686.06 1342.42 L674.748 1337.73 L670.06 1326.42 L674.748 1315.1 L686.06 1310.42 L697.372 1315.1 L702.06 1326.42 L697.372 1337.73 Z" fill="#e26f46" fill-rule="evenodd" fill-opacity="1" stroke="#000000" stroke-opacity="1" stroke-width="3.2"/>
<path clip-path="url(#clip582)" d="M823.959 1332.49 L812.647 1327.8 L807.959 1316.49 L812.647 1305.18 L823.959 1300.49 L835.271 1305.18 L839.959 1316.49 L835.271 1327.8 Z" fill="#e26f46" fill-rule="evenodd" fill-opacity="1" stroke="#000000" stroke-opacity="1" stroke-width="3.2"/>
<path clip-path="url(#clip582)" d="M1513.45 1394.24 L1502.14 1389.55 L1497.45 1378.24 L1502.14 1366.93 L1513.45 1362.24 L1524.77 1366.93 L1529.45 1378.24 L1524.77 1389.55 Z" fill="#e26f46" fill-rule="evenodd" fill-opacity="1" stroke="#000000" stroke-opacity="1" stroke-width="3.2"/>
<polyline clip-path="url(#clip582)" style="stroke:#3da44d; stroke-linecap:butt; stroke-linejoin:round; stroke-width:12; stroke-opacity:1; fill:none" points="
  203.413,1302.64 272.363,1333.2 410.262,1374.82 686.06,1429.07 823.959,1446.31 1513.45,1444.48 
  "/>
<path clip-path="url(#clip582)" d="M203.413 1318.64 L192.101 1313.95 L187.413 1302.64 L192.101 1291.33 L203.413 1286.64 L214.725 1291.33 L219.413 1302.64 L214.725 1313.95 Z" fill="#3da44d" fill-rule="evenodd" fill-opacity="1" stroke="#000000" stroke-opacity="1" stroke-width="3.2"/>
<path clip-path="url(#clip582)" d="M272.363 1349.2 L261.051 1344.51 L256.363 1333.2 L261.051 1321.89 L272.363 1317.2 L283.675 1321.89 L288.363 1333.2 L283.675 1344.51 Z" fill="#3da44d" fill-rule="evenodd" fill-opacity="1" stroke="#000000" stroke-opacity="1" stroke-width="3.2"/>
<path clip-path="url(#clip582)" d="M410.262 1390.82 L398.95 1386.13 L394.262 1374.82 L398.95 1363.51 L410.262 1358.82 L421.574 1363.51 L426.262 1374.82 L421.574 1386.13 Z" fill="#3da44d" fill-rule="evenodd" fill-opacity="1" stroke="#000000" stroke-opacity="1" stroke-width="3.2"/>
<path clip-path="url(#clip582)" d="M686.06 1445.07 L674.748 1440.38 L670.06 1429.07 L674.748 1417.76 L686.06 1413.07 L697.372 1417.76 L702.06 1429.07 L697.372 1440.38 Z" fill="#3da44d" fill-rule="evenodd" fill-opacity="1" stroke="#000000" stroke-opacity="1" stroke-width="3.2"/>
<path clip-path="url(#clip582)" d="M823.959 1462.31 L812.647 1457.62 L807.959 1446.31 L812.647 1435 L823.959 1430.31 L835.271 1435 L839.959 1446.31 L835.271 1457.62 Z" fill="#3da44d" fill-rule="evenodd" fill-opacity="1" stroke="#000000" stroke-opacity="1" stroke-width="3.2"/>
<path clip-path="url(#clip582)" d="M1513.45 1460.48 L1502.14 1455.79 L1497.45 1444.48 L1502.14 1433.16 L1513.45 1428.48 L1524.77 1433.16 L1529.45 1444.48 L1524.77 1455.79 Z" fill="#3da44d" fill-rule="evenodd" fill-opacity="1" stroke="#000000" stroke-opacity="1" stroke-width="3.2"/>
<path clip-path="url(#clip580)" d="
M1263.29 361.937 L1506.47 361.937 L1506.47 154.577 L1263.29 154.577  Z
  " fill="#ffffff" fill-rule="evenodd" fill-opacity="1"/>
<polyline clip-path="url(#clip580)" style="stroke:#000000; stroke-linecap:butt; stroke-linejoin:round; stroke-width:4; stroke-opacity:1; fill:none" points="
  1263.29,361.937 1506.47,361.937 1506.47,154.577 1263.29,154.577 1263.29,361.937 
  "/>
<polyline clip-path="url(#clip580)" style="stroke:#009af9; stroke-linecap:butt; stroke-linejoin:round; stroke-width:4; stroke-opacity:1; fill:none" points="
  1278.71,206.417 1371.29,206.417 
  "/>
<path clip-path="url(#clip580)" d="M1325 232.017 L1306.9 224.516 L1299.4 206.417 L1306.9 188.317 L1325 180.817 L1343.1 188.317 L1350.6 206.417 L1343.1 224.516 Z" fill="#009af9" fill-rule="evenodd" fill-opacity="1" stroke="#000000" stroke-opacity="1" stroke-width="5.12"/>
<path clip-path="url(#clip580)" d="M1386.72 187.678 L1391 187.678 L1391 208.951 L1403.71 197.771 L1409.15 197.771 L1395.4 209.9 L1409.73 223.697 L1404.17 223.697 L1391 211.035 L1391 223.697 L1386.72 223.697 L1386.72 187.678 Z" fill="#000000" fill-rule="evenodd" fill-opacity="1" /><path clip-path="url(#clip580)" d="M1414.89 202.169 L1444.57 202.169 L1444.57 206.058 L1414.89 206.058 L1414.89 202.169 M1414.89 211.613 L1444.57 211.613 L1444.57 215.549 L1414.89 215.549 L1414.89 211.613 Z" fill="#000000" fill-rule="evenodd" fill-opacity="1" /><path clip-path="url(#clip580)" d="M1455.47 219.761 L1463.11 219.761 L1463.11 193.396 L1454.8 195.063 L1454.8 190.803 L1463.06 189.137 L1467.74 189.137 L1467.74 219.761 L1475.38 219.761 L1475.38 223.697 L1455.47 223.697 L1455.47 219.761 Z" fill="#000000" fill-rule="evenodd" fill-opacity="1" /><polyline clip-path="url(#clip580)" style="stroke:#e26f46; stroke-linecap:butt; stroke-linejoin:round; stroke-width:4; stroke-opacity:1; fill:none" points="
  1278.71,258.257 1371.29,258.257 
  "/>
<path clip-path="url(#clip580)" d="M1325 283.857 L1306.9 276.356 L1299.4 258.257 L1306.9 240.157 L1325 232.657 L1343.1 240.157 L1350.6 258.257 L1343.1 276.356 Z" fill="#e26f46" fill-rule="evenodd" fill-opacity="1" stroke="#000000" stroke-opacity="1" stroke-width="5.12"/>
<path clip-path="url(#clip580)" d="M1386.72 239.518 L1391 239.518 L1391 260.791 L1403.71 249.611 L1409.15 249.611 L1395.4 261.74 L1409.73 275.537 L1404.17 275.537 L1391 262.875 L1391 275.537 L1386.72 275.537 L1386.72 239.518 Z" fill="#000000" fill-rule="evenodd" fill-opacity="1" /><path clip-path="url(#clip580)" d="M1414.89 254.009 L1444.57 254.009 L1444.57 257.898 L1414.89 257.898 L1414.89 254.009 M1414.89 263.453 L1444.57 263.453 L1444.57 267.389 L1414.89 267.389 L1414.89 263.453 Z" fill="#000000" fill-rule="evenodd" fill-opacity="1" /><path clip-path="url(#clip580)" d="M1458.69 271.601 L1475.01 271.601 L1475.01 275.537 L1453.06 275.537 L1453.06 271.601 Q1455.72 268.847 1460.31 264.217 Q1464.91 259.565 1466.1 258.222 Q1468.34 255.699 1469.22 253.963 Q1470.12 252.203 1470.12 250.514 Q1470.12 247.759 1468.18 246.023 Q1466.26 244.287 1463.16 244.287 Q1460.96 244.287 1458.5 245.051 Q1456.07 245.815 1453.29 247.366 L1453.29 242.643 Q1456.12 241.509 1458.57 240.93 Q1461.03 240.352 1463.06 240.352 Q1468.43 240.352 1471.63 243.037 Q1474.82 245.722 1474.82 250.213 Q1474.82 252.342 1474.01 254.264 Q1473.22 256.162 1471.12 258.754 Q1470.54 259.426 1467.44 262.643 Q1464.34 265.838 1458.69 271.601 Z" fill="#000000" fill-rule="evenodd" fill-opacity="1" /><polyline clip-path="url(#clip580)" style="stroke:#3da44d; stroke-linecap:butt; stroke-linejoin:round; stroke-width:4; stroke-opacity:1; fill:none" points="
  1278.71,310.097 1371.29,310.097 
  "/>
<path clip-path="url(#clip580)" d="M1325 335.697 L1306.9 328.196 L1299.4 310.097 L1306.9 291.997 L1325 284.497 L1343.1 291.997 L1350.6 310.097 L1343.1 328.196 Z" fill="#3da44d" fill-rule="evenodd" fill-opacity="1" stroke="#000000" stroke-opacity="1" stroke-width="5.12"/>
<path clip-path="url(#clip580)" d="M1386.72 291.358 L1391 291.358 L1391 312.631 L1403.71 301.451 L1409.15 301.451 L1395.4 313.58 L1409.73 327.377 L1404.17 327.377 L1391 314.715 L1391 327.377 L1386.72 327.377 L1386.72 291.358 Z" fill="#000000" fill-rule="evenodd" fill-opacity="1" /><path clip-path="url(#clip580)" d="M1414.89 305.849 L1444.57 305.849 L1444.57 309.738 L1414.89 309.738 L1414.89 305.849 M1414.89 315.293 L1444.57 315.293 L1444.57 319.229 L1414.89 319.229 L1414.89 315.293 Z" fill="#000000" fill-rule="evenodd" fill-opacity="1" /><path clip-path="url(#clip580)" d="M1454.71 292.817 L1473.06 292.817 L1473.06 296.752 L1458.99 296.752 L1458.99 305.224 Q1460.01 304.877 1461.03 304.715 Q1462.04 304.53 1463.06 304.53 Q1468.85 304.53 1472.23 307.701 Q1475.61 310.872 1475.61 316.289 Q1475.61 321.867 1472.14 324.969 Q1468.66 328.048 1462.35 328.048 Q1460.17 328.048 1457.9 327.678 Q1455.66 327.307 1453.25 326.566 L1453.25 321.867 Q1455.33 323.002 1457.55 323.557 Q1459.78 324.113 1462.25 324.113 Q1466.26 324.113 1468.6 322.006 Q1470.93 319.9 1470.93 316.289 Q1470.93 312.678 1468.6 310.571 Q1466.26 308.465 1462.25 308.465 Q1460.38 308.465 1458.5 308.881 Q1456.65 309.298 1454.71 310.178 L1454.71 292.817 Z" fill="#000000" fill-rule="evenodd" fill-opacity="1" /><path clip-path="url(#clip580)" d="
M1764.11 1495.09 L3152.76 1495.09 L3152.76 108.352 L1764.11 108.352  Z
  " fill="#ffffff" fill-rule="evenodd" fill-opacity="1"/>
<defs>
  <clipPath id="clip583">
    <rect x="1764" y="108" width="1390" height="1388"/>
  </clipPath>
</defs>
<polyline clip-path="url(#clip583)" style="stroke:#000000; stroke-linecap:butt; stroke-linejoin:round; stroke-width:2; stroke-opacity:0.1; fill:none" points="
  2079.21,1495.09 2079.21,108.352 
  "/>
<polyline clip-path="url(#clip583)" style="stroke:#000000; stroke-linecap:butt; stroke-linejoin:round; stroke-width:2; stroke-opacity:0.1; fill:none" points="
  2423.96,1495.09 2423.96,108.352 
  "/>
<polyline clip-path="url(#clip583)" style="stroke:#000000; stroke-linecap:butt; stroke-linejoin:round; stroke-width:2; stroke-opacity:0.1; fill:none" points="
  2768.71,1495.09 2768.71,108.352 
  "/>
<polyline clip-path="url(#clip583)" style="stroke:#000000; stroke-linecap:butt; stroke-linejoin:round; stroke-width:2; stroke-opacity:0.1; fill:none" points="
  3113.45,1495.09 3113.45,108.352 
  "/>
<polyline clip-path="url(#clip580)" style="stroke:#000000; stroke-linecap:butt; stroke-linejoin:round; stroke-width:4; stroke-opacity:1; fill:none" points="
  1764.11,1495.09 3152.76,1495.09 
  "/>
<polyline clip-path="url(#clip580)" style="stroke:#000000; stroke-linecap:butt; stroke-linejoin:round; stroke-width:4; stroke-opacity:1; fill:none" points="
  2079.21,1495.09 2079.21,1476.19 
  "/>
<polyline clip-path="url(#clip580)" style="stroke:#000000; stroke-linecap:butt; stroke-linejoin:round; stroke-width:4; stroke-opacity:1; fill:none" points="
  2423.96,1495.09 2423.96,1476.19 
  "/>
<polyline clip-path="url(#clip580)" style="stroke:#000000; stroke-linecap:butt; stroke-linejoin:round; stroke-width:4; stroke-opacity:1; fill:none" points="
  2768.71,1495.09 2768.71,1476.19 
  "/>
<polyline clip-path="url(#clip580)" style="stroke:#000000; stroke-linecap:butt; stroke-linejoin:round; stroke-width:4; stroke-opacity:1; fill:none" points="
  3113.45,1495.09 3113.45,1476.19 
  "/>
<path clip-path="url(#clip580)" d="M2038.83 1529.33 L2057.19 1529.33 L2057.19 1533.26 L2043.11 1533.26 L2043.11 1541.74 Q2044.13 1541.39 2045.15 1541.23 Q2046.17 1541.04 2047.19 1541.04 Q2052.97 1541.04 2056.35 1544.21 Q2059.73 1547.38 2059.73 1552.8 Q2059.73 1558.38 2056.26 1561.48 Q2052.79 1564.56 2046.47 1564.56 Q2044.29 1564.56 2042.02 1564.19 Q2039.78 1563.82 2037.37 1563.08 L2037.37 1558.38 Q2039.45 1559.51 2041.68 1560.07 Q2043.9 1560.62 2046.38 1560.62 Q2050.38 1560.62 2052.72 1558.52 Q2055.06 1556.41 2055.06 1552.8 Q2055.06 1549.19 2052.72 1547.08 Q2050.38 1544.98 2046.38 1544.98 Q2044.5 1544.98 2042.63 1545.39 Q2040.77 1545.81 2038.83 1546.69 L2038.83 1529.33 Z" fill="#000000" fill-rule="evenodd" fill-opacity="1" /><path clip-path="url(#clip580)" d="M2078.95 1532.41 Q2075.33 1532.41 2073.51 1535.97 Q2071.7 1539.51 2071.7 1546.64 Q2071.7 1553.75 2073.51 1557.31 Q2075.33 1560.86 2078.95 1560.86 Q2082.58 1560.86 2084.39 1557.31 Q2086.21 1553.75 2086.21 1546.64 Q2086.21 1539.51 2084.39 1535.97 Q2082.58 1532.41 2078.95 1532.41 M2078.95 1528.7 Q2084.76 1528.7 2087.81 1533.31 Q2090.89 1537.89 2090.89 1546.64 Q2090.89 1555.37 2087.81 1559.98 Q2084.76 1564.56 2078.95 1564.56 Q2073.14 1564.56 2070.06 1559.98 Q2067 1555.37 2067 1546.64 Q2067 1537.89 2070.06 1533.31 Q2073.14 1528.7 2078.95 1528.7 Z" fill="#000000" fill-rule="evenodd" fill-opacity="1" /><path clip-path="url(#clip580)" d="M2109.11 1532.41 Q2105.5 1532.41 2103.67 1535.97 Q2101.86 1539.51 2101.86 1546.64 Q2101.86 1553.75 2103.67 1557.31 Q2105.5 1560.86 2109.11 1560.86 Q2112.74 1560.86 2114.55 1557.31 Q2116.38 1553.75 2116.38 1546.64 Q2116.38 1539.51 2114.55 1535.97 Q2112.74 1532.41 2109.11 1532.41 M2109.11 1528.7 Q2114.92 1528.7 2117.97 1533.31 Q2121.05 1537.89 2121.05 1546.64 Q2121.05 1555.37 2117.97 1559.98 Q2114.92 1564.56 2109.11 1564.56 Q2103.3 1564.56 2100.22 1559.98 Q2097.16 1555.37 2097.16 1546.64 Q2097.16 1537.89 2100.22 1533.31 Q2103.3 1528.7 2109.11 1528.7 Z" fill="#000000" fill-rule="evenodd" fill-opacity="1" /><path clip-path="url(#clip580)" d="M2368.49 1559.95 L2376.12 1559.95 L2376.12 1533.59 L2367.81 1535.25 L2367.81 1530.99 L2376.08 1529.33 L2380.75 1529.33 L2380.75 1559.95 L2388.39 1559.95 L2388.39 1563.89 L2368.49 1563.89 L2368.49 1559.95 Z" fill="#000000" fill-rule="evenodd" fill-opacity="1" /><path clip-path="url(#clip580)" d="M2407.84 1532.41 Q2404.23 1532.41 2402.4 1535.97 Q2400.59 1539.51 2400.59 1546.64 Q2400.59 1553.75 2402.4 1557.31 Q2404.23 1560.86 2407.84 1560.86 Q2411.47 1560.86 2413.28 1557.31 Q2415.11 1553.75 2415.11 1546.64 Q2415.11 1539.51 2413.28 1535.97 Q2411.47 1532.41 2407.84 1532.41 M2407.84 1528.7 Q2413.65 1528.7 2416.7 1533.31 Q2419.78 1537.89 2419.78 1546.64 Q2419.78 1555.37 2416.7 1559.98 Q2413.65 1564.56 2407.84 1564.56 Q2402.03 1564.56 2398.95 1559.98 Q2395.89 1555.37 2395.89 1546.64 Q2395.89 1537.89 2398.95 1533.31 Q2402.03 1528.7 2407.84 1528.7 Z" fill="#000000" fill-rule="evenodd" fill-opacity="1" /><path clip-path="url(#clip580)" d="M2438 1532.41 Q2434.39 1532.41 2432.56 1535.97 Q2430.75 1539.51 2430.75 1546.64 Q2430.75 1553.75 2432.56 1557.31 Q2434.39 1560.86 2438 1560.86 Q2441.63 1560.86 2443.44 1557.31 Q2445.27 1553.75 2445.27 1546.64 Q2445.27 1539.51 2443.44 1535.97 Q2441.63 1532.41 2438 1532.41 M2438 1528.7 Q2443.81 1528.7 2446.86 1533.31 Q2449.94 1537.89 2449.94 1546.64 Q2449.94 1555.37 2446.86 1559.98 Q2443.81 1564.56 2438 1564.56 Q2432.19 1564.56 2429.11 1559.98 Q2426.05 1555.37 2426.05 1546.64 Q2426.05 1537.89 2429.11 1533.31 Q2432.19 1528.7 2438 1528.7 Z" fill="#000000" fill-rule="evenodd" fill-opacity="1" /><path clip-path="url(#clip580)" d="M2468.16 1532.41 Q2464.55 1532.41 2462.72 1535.97 Q2460.92 1539.51 2460.92 1546.64 Q2460.92 1553.75 2462.72 1557.31 Q2464.55 1560.86 2468.16 1560.86 Q2471.79 1560.86 2473.6 1557.31 Q2475.43 1553.75 2475.43 1546.64 Q2475.43 1539.51 2473.6 1535.97 Q2471.79 1532.41 2468.16 1532.41 M2468.16 1528.7 Q2473.97 1528.7 2477.03 1533.31 Q2480.1 1537.89 2480.1 1546.64 Q2480.1 1555.37 2477.03 1559.98 Q2473.97 1564.56 2468.16 1564.56 Q2462.35 1564.56 2459.27 1559.98 Q2456.22 1555.37 2456.22 1546.64 Q2456.22 1537.89 2459.27 1533.31 Q2462.35 1528.7 2468.16 1528.7 Z" fill="#000000" fill-rule="evenodd" fill-opacity="1" /><path clip-path="url(#clip580)" d="M2713.23 1559.95 L2720.87 1559.95 L2720.87 1533.59 L2712.56 1535.25 L2712.56 1530.99 L2720.83 1529.33 L2725.5 1529.33 L2725.5 1559.95 L2733.14 1559.95 L2733.14 1563.89 L2713.23 1563.89 L2713.23 1559.95 Z" fill="#000000" fill-rule="evenodd" fill-opacity="1" /><path clip-path="url(#clip580)" d="M2742.63 1529.33 L2760.99 1529.33 L2760.99 1533.26 L2746.91 1533.26 L2746.91 1541.74 Q2747.93 1541.39 2748.95 1541.23 Q2749.97 1541.04 2750.99 1541.04 Q2756.77 1541.04 2760.15 1544.21 Q2763.53 1547.38 2763.53 1552.8 Q2763.53 1558.38 2760.06 1561.48 Q2756.59 1564.56 2750.27 1564.56 Q2748.09 1564.56 2745.83 1564.19 Q2743.58 1563.82 2741.17 1563.08 L2741.17 1558.38 Q2743.26 1559.51 2745.48 1560.07 Q2747.7 1560.62 2750.18 1560.62 Q2754.18 1560.62 2756.52 1558.52 Q2758.86 1556.41 2758.86 1552.8 Q2758.86 1549.19 2756.52 1547.08 Q2754.18 1544.98 2750.18 1544.98 Q2748.3 1544.98 2746.43 1545.39 Q2744.58 1545.81 2742.63 1546.69 L2742.63 1529.33 Z" fill="#000000" fill-rule="evenodd" fill-opacity="1" /><path clip-path="url(#clip580)" d="M2782.75 1532.41 Q2779.14 1532.41 2777.31 1535.97 Q2775.5 1539.51 2775.5 1546.64 Q2775.5 1553.75 2777.31 1557.31 Q2779.14 1560.86 2782.75 1560.86 Q2786.38 1560.86 2788.19 1557.31 Q2790.01 1553.75 2790.01 1546.64 Q2790.01 1539.51 2788.19 1535.97 Q2786.38 1532.41 2782.75 1532.41 M2782.75 1528.7 Q2788.56 1528.7 2791.61 1533.31 Q2794.69 1537.89 2794.69 1546.64 Q2794.69 1555.37 2791.61 1559.98 Q2788.56 1564.56 2782.75 1564.56 Q2776.94 1564.56 2773.86 1559.98 Q2770.8 1555.37 2770.8 1546.64 Q2770.8 1537.89 2773.86 1533.31 Q2776.94 1528.7 2782.75 1528.7 Z" fill="#000000" fill-rule="evenodd" fill-opacity="1" /><path clip-path="url(#clip580)" d="M2812.91 1532.41 Q2809.3 1532.41 2807.47 1535.97 Q2805.66 1539.51 2805.66 1546.64 Q2805.66 1553.75 2807.47 1557.31 Q2809.3 1560.86 2812.91 1560.86 Q2816.54 1560.86 2818.35 1557.31 Q2820.18 1553.75 2820.18 1546.64 Q2820.18 1539.51 2818.35 1535.97 Q2816.54 1532.41 2812.91 1532.41 M2812.91 1528.7 Q2818.72 1528.7 2821.77 1533.31 Q2824.85 1537.89 2824.85 1546.64 Q2824.85 1555.37 2821.77 1559.98 Q2818.72 1564.56 2812.91 1564.56 Q2807.1 1564.56 2804.02 1559.98 Q2800.96 1555.37 2800.96 1546.64 Q2800.96 1537.89 2804.02 1533.31 Q2807.1 1528.7 2812.91 1528.7 Z" fill="#000000" fill-rule="evenodd" fill-opacity="1" /><path clip-path="url(#clip580)" d="M3062.07 1559.95 L3078.39 1559.95 L3078.39 1563.89 L3056.44 1563.89 L3056.44 1559.95 Q3059.1 1557.2 3063.69 1552.57 Q3068.29 1547.92 3069.47 1546.57 Q3071.72 1544.05 3072.6 1542.31 Q3073.5 1540.55 3073.5 1538.86 Q3073.5 1536.11 3071.56 1534.37 Q3069.64 1532.64 3066.53 1532.64 Q3064.33 1532.64 3061.88 1533.4 Q3059.45 1534.17 3056.67 1535.72 L3056.67 1530.99 Q3059.5 1529.86 3061.95 1529.28 Q3064.4 1528.7 3066.44 1528.7 Q3071.81 1528.7 3075.01 1531.39 Q3078.2 1534.07 3078.2 1538.56 Q3078.2 1540.69 3077.39 1542.61 Q3076.6 1544.51 3074.5 1547.11 Q3073.92 1547.78 3070.82 1550.99 Q3067.71 1554.19 3062.07 1559.95 Z" fill="#000000" fill-rule="evenodd" fill-opacity="1" /><path clip-path="url(#clip580)" d="M3098.2 1532.41 Q3094.59 1532.41 3092.76 1535.97 Q3090.95 1539.51 3090.95 1546.64 Q3090.95 1553.75 3092.76 1557.31 Q3094.59 1560.86 3098.2 1560.86 Q3101.83 1560.86 3103.64 1557.31 Q3105.47 1553.75 3105.47 1546.64 Q3105.47 1539.51 3103.64 1535.97 Q3101.83 1532.41 3098.2 1532.41 M3098.2 1528.7 Q3104.01 1528.7 3107.07 1533.31 Q3110.14 1537.89 3110.14 1546.64 Q3110.14 1555.37 3107.07 1559.98 Q3104.01 1564.56 3098.2 1564.56 Q3092.39 1564.56 3089.31 1559.98 Q3086.26 1555.37 3086.26 1546.64 Q3086.26 1537.89 3089.31 1533.31 Q3092.39 1528.7 3098.2 1528.7 Z" fill="#000000" fill-rule="evenodd" fill-opacity="1" /><path clip-path="url(#clip580)" d="M3128.36 1532.41 Q3124.75 1532.41 3122.92 1535.97 Q3121.12 1539.51 3121.12 1546.64 Q3121.12 1553.75 3122.92 1557.31 Q3124.75 1560.86 3128.36 1560.86 Q3132 1560.86 3133.8 1557.31 Q3135.63 1553.75 3135.63 1546.64 Q3135.63 1539.51 3133.8 1535.97 Q3132 1532.41 3128.36 1532.41 M3128.36 1528.7 Q3134.17 1528.7 3137.23 1533.31 Q3140.31 1537.89 3140.31 1546.64 Q3140.31 1555.37 3137.23 1559.98 Q3134.17 1564.56 3128.36 1564.56 Q3122.55 1564.56 3119.47 1559.98 Q3116.42 1555.37 3116.42 1546.64 Q3116.42 1537.89 3119.47 1533.31 Q3122.55 1528.7 3128.36 1528.7 Z" fill="#000000" fill-rule="evenodd" fill-opacity="1" /><path clip-path="url(#clip580)" d="M3158.52 1532.41 Q3154.91 1532.41 3153.08 1535.97 Q3151.28 1539.51 3151.28 1546.64 Q3151.28 1553.75 3153.08 1557.31 Q3154.91 1560.86 3158.52 1560.86 Q3162.16 1560.86 3163.96 1557.31 Q3165.79 1553.75 3165.79 1546.64 Q3165.79 1539.51 3163.96 1535.97 Q3162.16 1532.41 3158.52 1532.41 M3158.52 1528.7 Q3164.33 1528.7 3167.39 1533.31 Q3170.47 1537.89 3170.47 1546.64 Q3170.47 1555.37 3167.39 1559.98 Q3164.33 1564.56 3158.52 1564.56 Q3152.71 1564.56 3149.64 1559.98 Q3146.58 1555.37 3146.58 1546.64 Q3146.58 1537.89 3149.64 1533.31 Q3152.71 1528.7 3158.52 1528.7 Z" fill="#000000" fill-rule="evenodd" fill-opacity="1" /><polyline clip-path="url(#clip583)" style="stroke:#000000; stroke-linecap:butt; stroke-linejoin:round; stroke-width:2; stroke-opacity:0.1; fill:none" points="
  1764.11,1495.09 3152.76,1495.09 
  "/>
<polyline clip-path="url(#clip583)" style="stroke:#000000; stroke-linecap:butt; stroke-linejoin:round; stroke-width:2; stroke-opacity:0.1; fill:none" points="
  1764.11,1032.84 3152.76,1032.84 
  "/>
<polyline clip-path="url(#clip583)" style="stroke:#000000; stroke-linecap:butt; stroke-linejoin:round; stroke-width:2; stroke-opacity:0.1; fill:none" points="
  1764.11,570.597 3152.76,570.597 
  "/>
<polyline clip-path="url(#clip583)" style="stroke:#000000; stroke-linecap:butt; stroke-linejoin:round; stroke-width:2; stroke-opacity:0.1; fill:none" points="
  1764.11,108.352 3152.76,108.352 
  "/>
<polyline clip-path="url(#clip580)" style="stroke:#000000; stroke-linecap:butt; stroke-linejoin:round; stroke-width:4; stroke-opacity:1; fill:none" points="
  1764.11,1495.09 1764.11,108.352 
  "/>
<polyline clip-path="url(#clip580)" style="stroke:#000000; stroke-linecap:butt; stroke-linejoin:round; stroke-width:4; stroke-opacity:1; fill:none" points="
  1764.11,1495.09 1783.01,1495.09 
  "/>
<polyline clip-path="url(#clip580)" style="stroke:#000000; stroke-linecap:butt; stroke-linejoin:round; stroke-width:4; stroke-opacity:1; fill:none" points="
  1764.11,1032.84 1783.01,1032.84 
  "/>
<polyline clip-path="url(#clip580)" style="stroke:#000000; stroke-linecap:butt; stroke-linejoin:round; stroke-width:4; stroke-opacity:1; fill:none" points="
  1764.11,570.597 1783.01,570.597 
  "/>
<polyline clip-path="url(#clip580)" style="stroke:#000000; stroke-linecap:butt; stroke-linejoin:round; stroke-width:4; stroke-opacity:1; fill:none" points="
  1764.11,108.352 1783.01,108.352 
  "/>
<path clip-path="url(#clip580)" d="M1658.94 1480.89 Q1655.33 1480.89 1653.5 1484.45 Q1651.69 1487.99 1651.69 1495.12 Q1651.69 1502.23 1653.5 1505.79 Q1655.33 1509.34 1658.94 1509.34 Q1662.57 1509.34 1664.38 1505.79 Q1666.2 1502.23 1666.2 1495.12 Q1666.2 1487.99 1664.38 1484.45 Q1662.57 1480.89 1658.94 1480.89 M1658.94 1477.18 Q1664.75 1477.18 1667.8 1481.79 Q1670.88 1486.37 1670.88 1495.12 Q1670.88 1503.85 1667.8 1508.46 Q1664.75 1513.04 1658.94 1513.04 Q1653.13 1513.04 1650.05 1508.46 Q1646.99 1503.85 1646.99 1495.12 Q1646.99 1486.37 1650.05 1481.79 Q1653.13 1477.18 1658.94 1477.18 Z" fill="#000000" fill-rule="evenodd" fill-opacity="1" /><path clip-path="url(#clip580)" d="M1679.1 1506.49 L1683.98 1506.49 L1683.98 1512.37 L1679.1 1512.37 L1679.1 1506.49 Z" fill="#000000" fill-rule="evenodd" fill-opacity="1" /><path clip-path="url(#clip580)" d="M1704.17 1480.89 Q1700.56 1480.89 1698.73 1484.45 Q1696.92 1487.99 1696.92 1495.12 Q1696.92 1502.23 1698.73 1505.79 Q1700.56 1509.34 1704.17 1509.34 Q1707.8 1509.34 1709.61 1505.79 Q1711.44 1502.23 1711.44 1495.12 Q1711.44 1487.99 1709.61 1484.45 Q1707.8 1480.89 1704.17 1480.89 M1704.17 1477.18 Q1709.98 1477.18 1713.03 1481.79 Q1716.11 1486.37 1716.11 1495.12 Q1716.11 1503.85 1713.03 1508.46 Q1709.98 1513.04 1704.17 1513.04 Q1698.36 1513.04 1695.28 1508.46 Q1692.22 1503.85 1692.22 1495.12 Q1692.22 1486.37 1695.28 1481.79 Q1698.36 1477.18 1704.17 1477.18 Z" fill="#000000" fill-rule="evenodd" fill-opacity="1" /><path clip-path="url(#clip580)" d="M1659.93 1018.64 Q1656.32 1018.64 1654.49 1022.21 Q1652.69 1025.75 1652.69 1032.88 Q1652.69 1039.98 1654.49 1043.55 Q1656.32 1047.09 1659.93 1047.09 Q1663.57 1047.09 1665.37 1043.55 Q1667.2 1039.98 1667.2 1032.88 Q1667.2 1025.75 1665.37 1022.21 Q1663.57 1018.64 1659.93 1018.64 M1659.93 1014.94 Q1665.74 1014.94 1668.8 1019.54 Q1671.88 1024.13 1671.88 1032.88 Q1671.88 1041.6 1668.8 1046.21 Q1665.74 1050.79 1659.93 1050.79 Q1654.12 1050.79 1651.04 1046.21 Q1647.99 1041.6 1647.99 1032.88 Q1647.99 1024.13 1651.04 1019.54 Q1654.12 1014.94 1659.93 1014.94 Z" fill="#000000" fill-rule="evenodd" fill-opacity="1" /><path clip-path="url(#clip580)" d="M1680.09 1044.24 L1684.98 1044.24 L1684.98 1050.12 L1680.09 1050.12 L1680.09 1044.24 Z" fill="#000000" fill-rule="evenodd" fill-opacity="1" /><path clip-path="url(#clip580)" d="M1695.21 1015.56 L1713.57 1015.56 L1713.57 1019.5 L1699.49 1019.5 L1699.49 1027.97 Q1700.51 1027.62 1701.53 1027.46 Q1702.55 1027.28 1703.57 1027.28 Q1709.35 1027.28 1712.73 1030.45 Q1716.11 1033.62 1716.11 1039.03 Q1716.11 1044.61 1712.64 1047.72 Q1709.17 1050.79 1702.85 1050.79 Q1700.67 1050.79 1698.4 1050.42 Q1696.16 1050.05 1693.75 1049.31 L1693.75 1044.61 Q1695.83 1045.75 1698.06 1046.3 Q1700.28 1046.86 1702.76 1046.86 Q1706.76 1046.86 1709.1 1044.75 Q1711.44 1042.65 1711.44 1039.03 Q1711.44 1035.42 1709.1 1033.32 Q1706.76 1031.21 1702.76 1031.21 Q1700.88 1031.21 1699.01 1031.63 Q1697.15 1032.04 1695.21 1032.92 L1695.21 1015.56 Z" fill="#000000" fill-rule="evenodd" fill-opacity="1" /><path clip-path="url(#clip580)" d="M1649.75 583.942 L1657.39 583.942 L1657.39 557.577 L1649.08 559.243 L1649.08 554.984 L1657.34 553.317 L1662.02 553.317 L1662.02 583.942 L1669.65 583.942 L1669.65 587.877 L1649.75 587.877 L1649.75 583.942 Z" fill="#000000" fill-rule="evenodd" fill-opacity="1" /><path clip-path="url(#clip580)" d="M1679.1 581.998 L1683.98 581.998 L1683.98 587.877 L1679.1 587.877 L1679.1 581.998 Z" fill="#000000" fill-rule="evenodd" fill-opacity="1" /><path clip-path="url(#clip580)" d="M1704.17 556.396 Q1700.56 556.396 1698.73 559.961 Q1696.92 563.503 1696.92 570.632 Q1696.92 577.739 1698.73 581.303 Q1700.56 584.845 1704.17 584.845 Q1707.8 584.845 1709.61 581.303 Q1711.44 577.739 1711.44 570.632 Q1711.44 563.503 1709.61 559.961 Q1707.8 556.396 1704.17 556.396 M1704.17 552.692 Q1709.98 552.692 1713.03 557.299 Q1716.11 561.882 1716.11 570.632 Q1716.11 579.359 1713.03 583.965 Q1709.98 588.549 1704.17 588.549 Q1698.36 588.549 1695.28 583.965 Q1692.22 579.359 1692.22 570.632 Q1692.22 561.882 1695.28 557.299 Q1698.36 552.692 1704.17 552.692 Z" fill="#000000" fill-rule="evenodd" fill-opacity="1" /><path clip-path="url(#clip580)" d="M1650.74 121.697 L1658.38 121.697 L1658.38 95.3314 L1650.07 96.998 L1650.07 92.7388 L1658.33 91.0721 L1663.01 91.0721 L1663.01 121.697 L1670.65 121.697 L1670.65 125.632 L1650.74 125.632 L1650.74 121.697 Z" fill="#000000" fill-rule="evenodd" fill-opacity="1" /><path clip-path="url(#clip580)" d="M1680.09 119.753 L1684.98 119.753 L1684.98 125.632 L1680.09 125.632 L1680.09 119.753 Z" fill="#000000" fill-rule="evenodd" fill-opacity="1" /><path clip-path="url(#clip580)" d="M1695.21 91.0721 L1713.57 91.0721 L1713.57 95.0073 L1699.49 95.0073 L1699.49 103.479 Q1700.51 103.132 1701.53 102.97 Q1702.55 102.785 1703.57 102.785 Q1709.35 102.785 1712.73 105.956 Q1716.11 109.128 1716.11 114.544 Q1716.11 120.123 1712.64 123.225 Q1709.17 126.303 1702.85 126.303 Q1700.67 126.303 1698.4 125.933 Q1696.16 125.563 1693.75 124.822 L1693.75 120.123 Q1695.83 121.257 1698.06 121.813 Q1700.28 122.368 1702.76 122.368 Q1706.76 122.368 1709.1 120.262 Q1711.44 118.155 1711.44 114.544 Q1711.44 110.933 1709.1 108.827 Q1706.76 106.72 1702.76 106.72 Q1700.88 106.72 1699.01 107.137 Q1697.15 107.554 1695.21 108.433 L1695.21 91.0721 Z" fill="#000000" fill-rule="evenodd" fill-opacity="1" /><path clip-path="url(#clip580)" d="M2017.09 34.4165 Q2015.59 33.8899 2014.09 33.4848 Q2010.08 32.4315 2005.79 32.4315 Q1998.37 32.4315 1994.24 36.4419 Q1990.39 40.1688 1989.66 47.0148 L2017.09 47.0148 L2017.09 52.8481 L1989.66 52.8481 Q1990.39 59.6941 1994.24 63.421 Q1998.37 67.4314 2005.79 67.4314 Q2010.97 67.4314 2014.09 66.3781 L2017.09 65.3654 L2017.09 72.1304 L2013.89 72.8596 Q2009.67 73.7508 2005.34 73.7508 Q1994.48 73.7508 1988.16 67.4314 Q1981.8 61.1119 1981.8 49.9314 Q1981.8 38.7509 1988.16 32.4315 Q1994.48 26.1121 2005.34 26.1121 Q2009.43 26.1121 2013.89 27.0033 Q2015.51 27.3274 2017.09 27.8135 L2017.09 34.4165 Z" fill="#000000" fill-rule="evenodd" fill-opacity="1" /><path clip-path="url(#clip580)" d="M2100.17 45.1919 L2100.17 72.576 L2092.72 72.576 L2092.72 45.4349 Q2092.72 38.994 2090.21 35.7938 Q2087.7 32.5936 2082.67 32.5936 Q2076.64 32.5936 2073.15 36.4419 Q2069.67 40.2903 2069.67 46.9338 L2069.67 72.576 L2062.17 72.576 L2062.17 27.2059 L2069.67 27.2059 L2069.67 34.2544 Q2072.34 30.163 2075.95 28.1376 Q2079.59 26.1121 2084.33 26.1121 Q2092.15 26.1121 2096.16 30.9732 Q2100.17 35.7938 2100.17 45.1919 Z" fill="#000000" fill-rule="evenodd" fill-opacity="1" /><path clip-path="url(#clip580)" d="M2132.62 32.4315 Q2126.62 32.4315 2123.14 37.1306 Q2119.66 41.7891 2119.66 49.9314 Q2119.66 58.0738 2123.1 62.7728 Q2126.58 67.4314 2132.62 67.4314 Q2138.57 67.4314 2142.06 62.7323 Q2145.54 58.0333 2145.54 49.9314 Q2145.54 41.8701 2142.06 37.1711 Q2138.57 32.4315 2132.62 32.4315 M2132.62 26.1121 Q2142.34 26.1121 2147.89 32.4315 Q2153.44 38.7509 2153.44 49.9314 Q2153.44 61.0714 2147.89 67.4314 Q2142.34 73.7508 2132.62 73.7508 Q2122.86 73.7508 2117.31 67.4314 Q2111.8 61.0714 2111.8 49.9314 Q2111.8 38.7509 2117.31 32.4315 Q2122.86 26.1121 2132.62 26.1121 Z" fill="#000000" fill-rule="evenodd" fill-opacity="1" /><path clip-path="url(#clip580)" d="M2173.17 14.324 L2173.17 27.2059 L2188.52 27.2059 L2188.52 32.9987 L2173.17 32.9987 L2173.17 57.6282 Q2173.17 63.1779 2174.67 64.7578 Q2176.21 66.3376 2180.87 66.3376 L2188.52 66.3376 L2188.52 72.576 L2180.87 72.576 Q2172.24 72.576 2168.96 69.3758 Q2165.68 66.1351 2165.68 57.6282 L2165.68 32.9987 L2160.21 32.9987 L2160.21 27.2059 L2165.68 27.2059 L2165.68 14.324 L2173.17 14.324 Z" fill="#000000" fill-rule="evenodd" fill-opacity="1" /><path clip-path="url(#clip580)" d="M2231.91 65.7705 L2231.91 89.8329 L2224.41 89.8329 L2224.41 27.2059 L2231.91 27.2059 L2231.91 34.0924 Q2234.26 30.0415 2237.82 28.0971 Q2241.43 26.1121 2246.41 26.1121 Q2254.67 26.1121 2259.82 32.6746 Q2265 39.2371 2265 49.9314 Q2265 60.6258 2259.82 67.1883 Q2254.67 73.7508 2246.41 73.7508 Q2241.43 73.7508 2237.82 71.8063 Q2234.26 69.8214 2231.91 65.7705 M2257.27 49.9314 Q2257.27 41.7081 2253.86 37.0496 Q2250.5 32.3505 2244.59 32.3505 Q2238.67 32.3505 2235.27 37.0496 Q2231.91 41.7081 2231.91 49.9314 Q2231.91 58.1548 2235.27 62.8538 Q2238.67 67.5124 2244.59 67.5124 Q2250.5 67.5124 2253.86 62.8538 Q2257.27 58.1548 2257.27 49.9314 Z" fill="#000000" fill-rule="evenodd" fill-opacity="1" /><path clip-path="url(#clip580)" d="M2276.59 54.671 L2276.59 27.2059 L2284.04 27.2059 L2284.04 54.3874 Q2284.04 60.8284 2286.55 64.0691 Q2289.07 67.2693 2294.09 67.2693 Q2300.12 67.2693 2303.61 63.421 Q2307.13 59.5726 2307.13 52.9291 L2307.13 27.2059 L2314.59 27.2059 L2314.59 72.576 L2307.13 72.576 L2307.13 65.6084 Q2304.42 69.7404 2300.81 71.7658 Q2297.25 73.7508 2292.51 73.7508 Q2284.69 73.7508 2280.64 68.8897 Q2276.59 64.0286 2276.59 54.671 M2295.34 26.1121 L2295.34 26.1121 Z" fill="#000000" fill-rule="evenodd" fill-opacity="1" /><path clip-path="url(#clip580)" d="M2362.51 49.9314 Q2362.51 41.7081 2359.11 37.0496 Q2355.74 32.3505 2349.83 32.3505 Q2343.91 32.3505 2340.51 37.0496 Q2337.15 41.7081 2337.15 49.9314 Q2337.15 58.1548 2340.51 62.8538 Q2343.91 67.5124 2349.83 67.5124 Q2355.74 67.5124 2359.11 62.8538 Q2362.51 58.1548 2362.51 49.9314 M2337.15 34.0924 Q2339.5 30.0415 2343.06 28.0971 Q2346.67 26.1121 2351.65 26.1121 Q2359.92 26.1121 2365.06 32.6746 Q2370.25 39.2371 2370.25 49.9314 Q2370.25 60.6258 2365.06 67.1883 Q2359.92 73.7508 2351.65 73.7508 Q2346.67 73.7508 2343.06 71.8063 Q2339.5 69.8214 2337.15 65.7705 L2337.15 72.576 L2329.66 72.576 L2329.66 9.54393 L2337.15 9.54393 L2337.15 34.0924 Z" fill="#000000" fill-rule="evenodd" fill-opacity="1" /><path clip-path="url(#clip580)" d="M2382.6 9.54393 L2390.05 9.54393 L2390.05 72.576 L2382.6 72.576 L2382.6 9.54393 Z" fill="#000000" fill-rule="evenodd" fill-opacity="1" /><path clip-path="url(#clip580)" d="M2405.65 27.2059 L2413.1 27.2059 L2413.1 72.576 L2405.65 72.576 L2405.65 27.2059 M2405.65 9.54393 L2413.1 9.54393 L2413.1 18.9825 L2405.65 18.9825 L2405.65 9.54393 Z" fill="#000000" fill-rule="evenodd" fill-opacity="1" /><path clip-path="url(#clip580)" d="M2461.35 28.9478 L2461.35 35.9153 Q2458.19 34.1734 2454.99 33.3227 Q2451.83 32.4315 2448.59 32.4315 Q2441.34 32.4315 2437.33 37.0496 Q2433.32 41.6271 2433.32 49.9314 Q2433.32 58.2358 2437.33 62.8538 Q2441.34 67.4314 2448.59 67.4314 Q2451.83 67.4314 2454.99 66.5807 Q2458.19 65.6895 2461.35 63.9476 L2461.35 70.8341 Q2458.23 72.2924 2454.87 73.0216 Q2451.55 73.7508 2447.78 73.7508 Q2437.53 73.7508 2431.5 67.3098 Q2425.46 60.8689 2425.46 49.9314 Q2425.46 38.832 2431.54 32.472 Q2437.65 26.1121 2448.27 26.1121 Q2451.71 26.1121 2454.99 26.8413 Q2458.27 27.5299 2461.35 28.9478 Z" fill="#000000" fill-rule="evenodd" fill-opacity="1" /><path clip-path="url(#clip580)" d="M2474.31 9.54393 L2481.77 9.54393 L2481.77 72.576 L2474.31 72.576 L2474.31 9.54393 Z" fill="#000000" fill-rule="evenodd" fill-opacity="1" /><path clip-path="url(#clip580)" d="M2516.24 76.7889 Q2513.08 84.8907 2510.08 87.3618 Q2507.09 89.8329 2502.06 89.8329 L2496.11 89.8329 L2496.11 83.5945 L2500.48 83.5945 Q2503.56 83.5945 2505.26 82.1361 Q2506.96 80.6778 2509.03 75.2496 L2510.37 71.8468 L2492.02 27.2059 L2499.92 27.2059 L2514.09 62.6918 L2528.27 27.2059 L2536.17 27.2059 L2516.24 76.7889 Z" fill="#000000" fill-rule="evenodd" fill-opacity="1" /><path clip-path="url(#clip580)" d="M2593.45 49.7694 Q2584.42 49.7694 2580.93 51.8354 Q2577.45 53.9013 2577.45 58.8839 Q2577.45 62.8538 2580.04 65.2034 Q2582.68 67.5124 2587.17 67.5124 Q2593.37 67.5124 2597.1 63.1374 Q2600.86 58.7219 2600.86 51.4303 L2600.86 49.7694 L2593.45 49.7694 M2608.32 46.6907 L2608.32 72.576 L2600.86 72.576 L2600.86 65.6895 Q2598.31 69.8214 2594.5 71.8063 Q2590.7 73.7508 2585.19 73.7508 Q2578.22 73.7508 2574.09 69.8619 Q2570 65.9325 2570 59.3701 Q2570 51.7138 2575.1 47.825 Q2580.24 43.9361 2590.41 43.9361 L2600.86 43.9361 L2600.86 43.2069 Q2600.86 38.0623 2597.46 35.2672 Q2594.1 32.4315 2587.98 32.4315 Q2584.09 32.4315 2580.41 33.3632 Q2576.72 34.295 2573.32 36.1584 L2573.32 29.2718 Q2577.41 27.692 2581.26 26.9223 Q2585.11 26.1121 2588.75 26.1121 Q2598.6 26.1121 2603.46 31.2163 Q2608.32 36.3204 2608.32 46.6907 Z" fill="#000000" fill-rule="evenodd" fill-opacity="1" /><path clip-path="url(#clip580)" d="M2618.32 27.2059 L2626.22 27.2059 L2640.4 65.2844 L2654.58 27.2059 L2662.48 27.2059 L2645.46 72.576 L2635.34 72.576 L2618.32 27.2059 Z" fill="#000000" fill-rule="evenodd" fill-opacity="1" /><path clip-path="url(#clip580)" d="M2693.39 49.7694 Q2684.35 49.7694 2680.87 51.8354 Q2677.39 53.9013 2677.39 58.8839 Q2677.39 62.8538 2679.98 65.2034 Q2682.61 67.5124 2687.11 67.5124 Q2693.31 67.5124 2697.03 63.1374 Q2700.8 58.7219 2700.8 51.4303 L2700.8 49.7694 L2693.39 49.7694 M2708.25 46.6907 L2708.25 72.576 L2700.8 72.576 L2700.8 65.6895 Q2698.25 69.8214 2694.44 71.8063 Q2690.63 73.7508 2685.12 73.7508 Q2678.16 73.7508 2674.02 69.8619 Q2669.93 65.9325 2669.93 59.3701 Q2669.93 51.7138 2675.04 47.825 Q2680.18 43.9361 2690.35 43.9361 L2700.8 43.9361 L2700.8 43.2069 Q2700.8 38.0623 2697.4 35.2672 Q2694.03 32.4315 2687.92 32.4315 Q2684.03 32.4315 2680.34 33.3632 Q2676.66 34.295 2673.25 36.1584 L2673.25 29.2718 Q2677.34 27.692 2681.19 26.9223 Q2685.04 26.1121 2688.69 26.1121 Q2698.53 26.1121 2703.39 31.2163 Q2708.25 36.3204 2708.25 46.6907 Z" fill="#000000" fill-rule="evenodd" fill-opacity="1" /><path clip-path="url(#clip580)" d="M2723.61 27.2059 L2731.06 27.2059 L2731.06 72.576 L2723.61 72.576 L2723.61 27.2059 M2723.61 9.54393 L2731.06 9.54393 L2731.06 18.9825 L2723.61 18.9825 L2723.61 9.54393 Z" fill="#000000" fill-rule="evenodd" fill-opacity="1" /><path clip-path="url(#clip580)" d="M2746.66 9.54393 L2754.11 9.54393 L2754.11 72.576 L2746.66 72.576 L2746.66 9.54393 Z" fill="#000000" fill-rule="evenodd" fill-opacity="1" /><path clip-path="url(#clip580)" d="M2790.32 49.7694 Q2781.29 49.7694 2777.81 51.8354 Q2774.32 53.9013 2774.32 58.8839 Q2774.32 62.8538 2776.92 65.2034 Q2779.55 67.5124 2784.05 67.5124 Q2790.24 67.5124 2793.97 63.1374 Q2797.74 58.7219 2797.74 51.4303 L2797.74 49.7694 L2790.32 49.7694 M2805.19 46.6907 L2805.19 72.576 L2797.74 72.576 L2797.74 65.6895 Q2795.19 69.8214 2791.38 71.8063 Q2787.57 73.7508 2782.06 73.7508 Q2775.09 73.7508 2770.96 69.8619 Q2766.87 65.9325 2766.87 59.3701 Q2766.87 51.7138 2771.97 47.825 Q2777.12 43.9361 2787.29 43.9361 L2797.74 43.9361 L2797.74 43.2069 Q2797.74 38.0623 2794.33 35.2672 Q2790.97 32.4315 2784.86 32.4315 Q2780.97 32.4315 2777.28 33.3632 Q2773.59 34.295 2770.19 36.1584 L2770.19 29.2718 Q2774.28 27.692 2778.13 26.9223 Q2781.98 26.1121 2785.63 26.1121 Q2795.47 26.1121 2800.33 31.2163 Q2805.19 36.3204 2805.19 46.6907 Z" fill="#000000" fill-rule="evenodd" fill-opacity="1" /><path clip-path="url(#clip580)" d="M2853.11 49.9314 Q2853.11 41.7081 2849.71 37.0496 Q2846.35 32.3505 2840.43 32.3505 Q2834.52 32.3505 2831.12 37.0496 Q2827.75 41.7081 2827.75 49.9314 Q2827.75 58.1548 2831.12 62.8538 Q2834.52 67.5124 2840.43 67.5124 Q2846.35 67.5124 2849.71 62.8538 Q2853.11 58.1548 2853.11 49.9314 M2827.75 34.0924 Q2830.1 30.0415 2833.67 28.0971 Q2837.27 26.1121 2842.26 26.1121 Q2850.52 26.1121 2855.67 32.6746 Q2860.85 39.2371 2860.85 49.9314 Q2860.85 60.6258 2855.67 67.1883 Q2850.52 73.7508 2842.26 73.7508 Q2837.27 73.7508 2833.67 71.8063 Q2830.1 69.8214 2827.75 65.7705 L2827.75 72.576 L2820.26 72.576 L2820.26 9.54393 L2827.75 9.54393 L2827.75 34.0924 Z" fill="#000000" fill-rule="evenodd" fill-opacity="1" /><path clip-path="url(#clip580)" d="M2873.21 9.54393 L2880.66 9.54393 L2880.66 72.576 L2873.21 72.576 L2873.21 9.54393 Z" fill="#000000" fill-rule="evenodd" fill-opacity="1" /><path clip-path="url(#clip580)" d="M2935.06 48.0275 L2935.06 51.6733 L2900.79 51.6733 Q2901.28 59.3701 2905.41 63.421 Q2909.58 67.4314 2917 67.4314 Q2921.29 67.4314 2925.3 66.3781 Q2929.35 65.3249 2933.32 63.2184 L2933.32 70.267 Q2929.31 71.9684 2925.1 72.8596 Q2920.89 73.7508 2916.55 73.7508 Q2905.69 73.7508 2899.33 67.4314 Q2893.02 61.1119 2893.02 50.3365 Q2893.02 39.1965 2899.01 32.6746 Q2905.05 26.1121 2915.25 26.1121 Q2924.41 26.1121 2929.72 32.0264 Q2935.06 37.9003 2935.06 48.0275 M2927.61 45.84 Q2927.53 39.7232 2924.17 36.0774 Q2920.84 32.4315 2915.34 32.4315 Q2909.1 32.4315 2905.33 35.9558 Q2901.6 39.4801 2901.04 45.8805 L2927.61 45.84 Z" fill="#000000" fill-rule="evenodd" fill-opacity="1" /><polyline clip-path="url(#clip583)" style="stroke:#009af9; stroke-linecap:butt; stroke-linejoin:round; stroke-width:12; stroke-opacity:1; fill:none" points="
  1803.41,465.473 1872.36,1042.39 2010.26,882.829 2286.06,1030.28 2423.96,1060.94 3113.45,1091.82 
  "/>
<path clip-path="url(#clip583)" d="M1803.41 481.473 L1792.1 476.785 L1787.41 465.473 L1792.1 454.161 L1803.41 449.473 L1814.73 454.161 L1819.41 465.473 L1814.73 476.785 Z" fill="#009af9" fill-rule="evenodd" fill-opacity="1" stroke="#000000" stroke-opacity="1" stroke-width="3.2"/>
<path clip-path="url(#clip583)" d="M1872.36 1058.39 L1861.05 1053.7 L1856.36 1042.39 L1861.05 1031.07 L1872.36 1026.39 L1883.67 1031.07 L1888.36 1042.39 L1883.67 1053.7 Z" fill="#009af9" fill-rule="evenodd" fill-opacity="1" stroke="#000000" stroke-opacity="1" stroke-width="3.2"/>
<path clip-path="url(#clip583)" d="M2010.26 898.829 L1998.95 894.141 L1994.26 882.829 L1998.95 871.517 L2010.26 866.829 L2021.57 871.517 L2026.26 882.829 L2021.57 894.141 Z" fill="#009af9" fill-rule="evenodd" fill-opacity="1" stroke="#000000" stroke-opacity="1" stroke-width="3.2"/>
<path clip-path="url(#clip583)" d="M2286.06 1046.28 L2274.75 1041.59 L2270.06 1030.28 L2274.75 1018.97 L2286.06 1014.28 L2297.37 1018.97 L2302.06 1030.28 L2297.37 1041.59 Z" fill="#009af9" fill-rule="evenodd" fill-opacity="1" stroke="#000000" stroke-opacity="1" stroke-width="3.2"/>
<path clip-path="url(#clip583)" d="M2423.96 1076.94 L2412.65 1072.25 L2407.96 1060.94 L2412.65 1049.63 L2423.96 1044.94 L2435.27 1049.63 L2439.96 1060.94 L2435.27 1072.25 Z" fill="#009af9" fill-rule="evenodd" fill-opacity="1" stroke="#000000" stroke-opacity="1" stroke-width="3.2"/>
<path clip-path="url(#clip583)" d="M3113.45 1107.82 L3102.14 1103.13 L3097.45 1091.82 L3102.14 1080.5 L3113.45 1075.82 L3124.77 1080.5 L3129.45 1091.82 L3124.77 1103.13 Z" fill="#009af9" fill-rule="evenodd" fill-opacity="1" stroke="#000000" stroke-opacity="1" stroke-width="3.2"/>
<polyline clip-path="url(#clip583)" style="stroke:#e26f46; stroke-linecap:butt; stroke-linejoin:round; stroke-width:12; stroke-opacity:1; fill:none" points="
  1803.41,687.352 1872.36,981.956 2010.26,1030.03 2286.06,1074.5 2423.96,1106.18 3113.45,1082.39 
  "/>
<path clip-path="url(#clip583)" d="M1803.41 703.352 L1792.1 698.664 L1787.41 687.352 L1792.1 676.04 L1803.41 671.352 L1814.73 676.04 L1819.41 687.352 L1814.73 698.664 Z" fill="#e26f46" fill-rule="evenodd" fill-opacity="1" stroke="#000000" stroke-opacity="1" stroke-width="3.2"/>
<path clip-path="url(#clip583)" d="M1872.36 997.956 L1861.05 993.268 L1856.36 981.956 L1861.05 970.644 L1872.36 965.956 L1883.67 970.644 L1888.36 981.956 L1883.67 993.268 Z" fill="#e26f46" fill-rule="evenodd" fill-opacity="1" stroke="#000000" stroke-opacity="1" stroke-width="3.2"/>
<path clip-path="url(#clip583)" d="M2010.26 1046.03 L1998.95 1041.34 L1994.26 1030.03 L1998.95 1018.72 L2010.26 1014.03 L2021.57 1018.72 L2026.26 1030.03 L2021.57 1041.34 Z" fill="#e26f46" fill-rule="evenodd" fill-opacity="1" stroke="#000000" stroke-opacity="1" stroke-width="3.2"/>
<path clip-path="url(#clip583)" d="M2286.06 1090.5 L2274.75 1085.82 L2270.06 1074.5 L2274.75 1063.19 L2286.06 1058.5 L2297.37 1063.19 L2302.06 1074.5 L2297.37 1085.82 Z" fill="#e26f46" fill-rule="evenodd" fill-opacity="1" stroke="#000000" stroke-opacity="1" stroke-width="3.2"/>
<path clip-path="url(#clip583)" d="M2423.96 1122.18 L2412.65 1117.5 L2407.96 1106.18 L2412.65 1094.87 L2423.96 1090.18 L2435.27 1094.87 L2439.96 1106.18 L2435.27 1117.5 Z" fill="#e26f46" fill-rule="evenodd" fill-opacity="1" stroke="#000000" stroke-opacity="1" stroke-width="3.2"/>
<path clip-path="url(#clip583)" d="M3113.45 1098.39 L3102.14 1093.7 L3097.45 1082.39 L3102.14 1071.08 L3113.45 1066.39 L3124.77 1071.08 L3129.45 1082.39 L3124.77 1093.7 Z" fill="#e26f46" fill-rule="evenodd" fill-opacity="1" stroke="#000000" stroke-opacity="1" stroke-width="3.2"/>
<polyline clip-path="url(#clip583)" style="stroke:#3da44d; stroke-linecap:butt; stroke-linejoin:round; stroke-width:12; stroke-opacity:1; fill:none" points="
  1803.41,575.196 1872.36,994.731 2010.26,1129.01 2286.06,908.802 2423.96,1117.58 3113.45,1186.68 
  "/>
<path clip-path="url(#clip583)" d="M1803.41 591.196 L1792.1 586.508 L1787.41 575.196 L1792.1 563.884 L1803.41 559.196 L1814.73 563.884 L1819.41 575.196 L1814.73 586.508 Z" fill="#3da44d" fill-rule="evenodd" fill-opacity="1" stroke="#000000" stroke-opacity="1" stroke-width="3.2"/>
<path clip-path="url(#clip583)" d="M1872.36 1010.73 L1861.05 1006.04 L1856.36 994.731 L1861.05 983.419 L1872.36 978.731 L1883.67 983.419 L1888.36 994.731 L1883.67 1006.04 Z" fill="#3da44d" fill-rule="evenodd" fill-opacity="1" stroke="#000000" stroke-opacity="1" stroke-width="3.2"/>
<path clip-path="url(#clip583)" d="M2010.26 1145.01 L1998.95 1140.32 L1994.26 1129.01 L1998.95 1117.7 L2010.26 1113.01 L2021.57 1117.7 L2026.26 1129.01 L2021.57 1140.32 Z" fill="#3da44d" fill-rule="evenodd" fill-opacity="1" stroke="#000000" stroke-opacity="1" stroke-width="3.2"/>
<path clip-path="url(#clip583)" d="M2286.06 924.802 L2274.75 920.114 L2270.06 908.802 L2274.75 897.49 L2286.06 892.802 L2297.37 897.49 L2302.06 908.802 L2297.37 920.114 Z" fill="#3da44d" fill-rule="evenodd" fill-opacity="1" stroke="#000000" stroke-opacity="1" stroke-width="3.2"/>
<path clip-path="url(#clip583)" d="M2423.96 1133.58 L2412.65 1128.89 L2407.96 1117.58 L2412.65 1106.27 L2423.96 1101.58 L2435.27 1106.27 L2439.96 1117.58 L2435.27 1128.89 Z" fill="#3da44d" fill-rule="evenodd" fill-opacity="1" stroke="#000000" stroke-opacity="1" stroke-width="3.2"/>
<path clip-path="url(#clip583)" d="M3113.45 1202.68 L3102.14 1197.99 L3097.45 1186.68 L3102.14 1175.36 L3113.45 1170.68 L3124.77 1175.36 L3129.45 1186.68 L3124.77 1197.99 Z" fill="#3da44d" fill-rule="evenodd" fill-opacity="1" stroke="#000000" stroke-opacity="1" stroke-width="3.2"/>
<path clip-path="url(#clip580)" d="
M2859.88 361.937 L3106.47 361.937 L3106.47 154.577 L2859.88 154.577  Z
  " fill="#ffffff" fill-rule="evenodd" fill-opacity="1"/>
<polyline clip-path="url(#clip580)" style="stroke:#000000; stroke-linecap:butt; stroke-linejoin:round; stroke-width:4; stroke-opacity:1; fill:none" points="
  2859.88,361.937 3106.47,361.937 3106.47,154.577 2859.88,154.577 2859.88,361.937 
  "/>
<polyline clip-path="url(#clip580)" style="stroke:#009af9; stroke-linecap:butt; stroke-linejoin:round; stroke-width:4; stroke-opacity:1; fill:none" points="
  2875.31,206.417 2967.89,206.417 
  "/>
<path clip-path="url(#clip580)" d="M2921.6 232.017 L2903.5 224.516 L2896 206.417 L2903.5 188.317 L2921.6 180.817 L2939.7 188.317 L2947.2 206.417 L2939.7 224.516 Z" fill="#009af9" fill-rule="evenodd" fill-opacity="1" stroke="#000000" stroke-opacity="1" stroke-width="5.12"/>
<path clip-path="url(#clip580)" d="M3003.48 201.891 Q3002.62 201.59 3001.77 201.359 Q2999.48 200.757 2997.02 200.757 Q2992.79 200.757 2990.42 203.049 Q2988.23 205.178 2987.81 209.09 L3003.48 209.09 L3003.48 212.424 L2987.81 212.424 Q2988.23 216.336 2990.42 218.465 Q2992.79 220.757 2997.02 220.757 Q2999.98 220.757 3001.77 220.155 L3003.48 219.576 L3003.48 223.442 L3001.65 223.859 Q2999.24 224.368 2996.77 224.368 Q2990.56 224.368 2986.95 220.757 Q2983.32 217.146 2983.32 210.757 Q2983.32 204.368 2986.95 200.757 Q2990.56 197.146 2996.77 197.146 Q2999.1 197.146 3001.65 197.655 Q3002.58 197.84 3003.48 198.118 L3003.48 201.891 Z" fill="#000000" fill-rule="evenodd" fill-opacity="1" /><path clip-path="url(#clip580)" d="M3014.89 202.169 L3044.57 202.169 L3044.57 206.058 L3014.89 206.058 L3014.89 202.169 M3014.89 211.613 L3044.57 211.613 L3044.57 215.549 L3014.89 215.549 L3014.89 211.613 Z" fill="#000000" fill-rule="evenodd" fill-opacity="1" /><path clip-path="url(#clip580)" d="M3055.47 219.761 L3063.11 219.761 L3063.11 193.396 L3054.8 195.063 L3054.8 190.803 L3063.06 189.137 L3067.74 189.137 L3067.74 219.761 L3075.38 219.761 L3075.38 223.697 L3055.47 223.697 L3055.47 219.761 Z" fill="#000000" fill-rule="evenodd" fill-opacity="1" /><polyline clip-path="url(#clip580)" style="stroke:#e26f46; stroke-linecap:butt; stroke-linejoin:round; stroke-width:4; stroke-opacity:1; fill:none" points="
  2875.31,258.257 2967.89,258.257 
  "/>
<path clip-path="url(#clip580)" d="M2921.6 283.857 L2903.5 276.356 L2896 258.257 L2903.5 240.157 L2921.6 232.657 L2939.7 240.157 L2947.2 258.257 L2939.7 276.356 Z" fill="#e26f46" fill-rule="evenodd" fill-opacity="1" stroke="#000000" stroke-opacity="1" stroke-width="5.12"/>
<path clip-path="url(#clip580)" d="M3003.48 253.731 Q3002.62 253.43 3001.77 253.199 Q2999.48 252.597 2997.02 252.597 Q2992.79 252.597 2990.42 254.889 Q2988.23 257.018 2987.81 260.93 L3003.48 260.93 L3003.48 264.264 L2987.81 264.264 Q2988.23 268.176 2990.42 270.305 Q2992.79 272.597 2997.02 272.597 Q2999.98 272.597 3001.77 271.995 L3003.48 271.416 L3003.48 275.282 L3001.65 275.699 Q2999.24 276.208 2996.77 276.208 Q2990.56 276.208 2986.95 272.597 Q2983.32 268.986 2983.32 262.597 Q2983.32 256.208 2986.95 252.597 Q2990.56 248.986 2996.77 248.986 Q2999.1 248.986 3001.65 249.495 Q3002.58 249.68 3003.48 249.958 L3003.48 253.731 Z" fill="#000000" fill-rule="evenodd" fill-opacity="1" /><path clip-path="url(#clip580)" d="M3014.89 254.009 L3044.57 254.009 L3044.57 257.898 L3014.89 257.898 L3014.89 254.009 M3014.89 263.453 L3044.57 263.453 L3044.57 267.389 L3014.89 267.389 L3014.89 263.453 Z" fill="#000000" fill-rule="evenodd" fill-opacity="1" /><path clip-path="url(#clip580)" d="M3058.69 271.601 L3075.01 271.601 L3075.01 275.537 L3053.06 275.537 L3053.06 271.601 Q3055.72 268.847 3060.31 264.217 Q3064.91 259.565 3066.1 258.222 Q3068.34 255.699 3069.22 253.963 Q3070.12 252.203 3070.12 250.514 Q3070.12 247.759 3068.18 246.023 Q3066.26 244.287 3063.16 244.287 Q3060.96 244.287 3058.5 245.051 Q3056.07 245.815 3053.29 247.366 L3053.29 242.643 Q3056.12 241.509 3058.57 240.93 Q3061.03 240.352 3063.06 240.352 Q3068.43 240.352 3071.63 243.037 Q3074.82 245.722 3074.82 250.213 Q3074.82 252.342 3074.01 254.264 Q3073.22 256.162 3071.12 258.754 Q3070.54 259.426 3067.44 262.643 Q3064.34 265.838 3058.69 271.601 Z" fill="#000000" fill-rule="evenodd" fill-opacity="1" /><polyline clip-path="url(#clip580)" style="stroke:#3da44d; stroke-linecap:butt; stroke-linejoin:round; stroke-width:4; stroke-opacity:1; fill:none" points="
  2875.31,310.097 2967.89,310.097 
  "/>
<path clip-path="url(#clip580)" d="M2921.6 335.697 L2903.5 328.196 L2896 310.097 L2903.5 291.997 L2921.6 284.497 L2939.7 291.997 L2947.2 310.097 L2939.7 328.196 Z" fill="#3da44d" fill-rule="evenodd" fill-opacity="1" stroke="#000000" stroke-opacity="1" stroke-width="5.12"/>
<path clip-path="url(#clip580)" d="M3003.48 305.571 Q3002.62 305.27 3001.77 305.039 Q2999.48 304.437 2997.02 304.437 Q2992.79 304.437 2990.42 306.729 Q2988.23 308.858 2987.81 312.77 L3003.48 312.77 L3003.48 316.104 L2987.81 316.104 Q2988.23 320.016 2990.42 322.145 Q2992.79 324.437 2997.02 324.437 Q2999.98 324.437 3001.77 323.835 L3003.48 323.256 L3003.48 327.122 L3001.65 327.539 Q2999.24 328.048 2996.77 328.048 Q2990.56 328.048 2986.95 324.437 Q2983.32 320.826 2983.32 314.437 Q2983.32 308.048 2986.95 304.437 Q2990.56 300.826 2996.77 300.826 Q2999.1 300.826 3001.65 301.335 Q3002.58 301.52 3003.48 301.798 L3003.48 305.571 Z" fill="#000000" fill-rule="evenodd" fill-opacity="1" /><path clip-path="url(#clip580)" d="M3014.89 305.849 L3044.57 305.849 L3044.57 309.738 L3014.89 309.738 L3014.89 305.849 M3014.89 315.293 L3044.57 315.293 L3044.57 319.229 L3014.89 319.229 L3014.89 315.293 Z" fill="#000000" fill-rule="evenodd" fill-opacity="1" /><path clip-path="url(#clip580)" d="M3054.71 292.817 L3073.06 292.817 L3073.06 296.752 L3058.99 296.752 L3058.99 305.224 Q3060.01 304.877 3061.03 304.715 Q3062.04 304.53 3063.06 304.53 Q3068.85 304.53 3072.23 307.701 Q3075.61 310.872 3075.61 316.289 Q3075.61 321.867 3072.14 324.969 Q3068.66 328.048 3062.35 328.048 Q3060.17 328.048 3057.9 327.678 Q3055.66 327.307 3053.25 326.566 L3053.25 321.867 Q3055.33 323.002 3057.55 323.557 Q3059.78 324.113 3062.25 324.113 Q3066.26 324.113 3068.6 322.006 Q3070.93 319.9 3070.93 316.289 Q3070.93 312.678 3068.6 310.571 Q3066.26 308.465 3062.25 308.465 Q3060.38 308.465 3058.5 308.881 Q3056.65 309.298 3054.71 310.178 L3054.71 292.817 Z" fill="#000000" fill-rule="evenodd" fill-opacity="1" /></svg>
