<?xml version="1.0" encoding="utf-8"?>
<svg xmlns="http://www.w3.org/2000/svg" xmlns:xlink="http://www.w3.org/1999/xlink" width="600" height="400" viewBox="0 0 2400 1600">
<defs>
  <clipPath id="clip500">
    <rect x="0" y="0" width="2400" height="1600"/>
  </clipPath>
</defs>
<path clip-path="url(#clip500)" d="
M0 1600 L2400 1600 L2400 0 L0 0  Z
  " fill="#ffffff" fill-rule="evenodd" fill-opacity="1"/>
<defs>
  <clipPath id="clip501">
    <rect x="480" y="0" width="1681" height="1600"/>
  </clipPath>
</defs>
<path clip-path="url(#clip500)" d="
M219.38 1423.18 L2352.76 1423.18 L2352.76 123.472 L219.38 123.472  Z
  " fill="#ffffff" fill-rule="evenodd" fill-opacity="1"/>
<defs>
  <clipPath id="clip502">
    <rect x="219" y="123" width="2134" height="1301"/>
  </clipPath>
</defs>
<polyline clip-path="url(#clip502)" style="stroke:#000000; stroke-linecap:butt; stroke-linejoin:round; stroke-width:2; stroke-opacity:0.1; fill:none" points="
  228.153,1423.18 228.153,123.472 
  "/>
<polyline clip-path="url(#clip502)" style="stroke:#000000; stroke-linecap:butt; stroke-linejoin:round; stroke-width:2; stroke-opacity:0.1; fill:none" points="
  744.209,1423.18 744.209,123.472 
  "/>
<polyline clip-path="url(#clip502)" style="stroke:#000000; stroke-linecap:butt; stroke-linejoin:round; stroke-width:2; stroke-opacity:0.1; fill:none" points="
  1260.27,1423.18 1260.27,123.472 
  "/>
<polyline clip-path="url(#clip502)" style="stroke:#000000; stroke-linecap:butt; stroke-linejoin:round; stroke-width:2; stroke-opacity:0.1; fill:none" points="
  1776.32,1423.18 1776.32,123.472 
  "/>
<polyline clip-path="url(#clip502)" style="stroke:#000000; stroke-linecap:butt; stroke-linejoin:round; stroke-width:2; stroke-opacity:0.1; fill:none" points="
  2292.38,1423.18 2292.38,123.472 
  "/>
<polyline clip-path="url(#clip500)" style="stroke:#000000; stroke-linecap:butt; stroke-linejoin:round; stroke-width:4; stroke-opacity:1; fill:none" points="
  219.38,1423.18 2352.76,1423.18 
  "/>
<polyline clip-path="url(#clip500)" style="stroke:#000000; stroke-linecap:butt; stroke-linejoin:round; stroke-width:4; stroke-opacity:1; fill:none" points="
  228.153,1423.18 228.153,1404.28 
  "/>
<polyline clip-path="url(#clip500)" style="stroke:#000000; stroke-linecap:butt; stroke-linejoin:round; stroke-width:4; stroke-opacity:1; fill:none" points="
  744.209,1423.18 744.209,1404.28 
  "/>
<polyline clip-path="url(#clip500)" style="stroke:#000000; stroke-linecap:butt; stroke-linejoin:round; stroke-width:4; stroke-opacity:1; fill:none" points="
  1260.27,1423.18 1260.27,1404.28 
  "/>
<polyline clip-path="url(#clip500)" style="stroke:#000000; stroke-linecap:butt; stroke-linejoin:round; stroke-width:4; stroke-opacity:1; fill:none" points="
  1776.32,1423.18 1776.32,1404.28 
  "/>
<polyline clip-path="url(#clip500)" style="stroke:#000000; stroke-linecap:butt; stroke-linejoin:round; stroke-width:4; stroke-opacity:1; fill:none" points="
  2292.38,1423.18 2292.38,1404.28 
  "/>
<path clip-path="url(#clip500)" d="M228.153 1454.1 Q224.542 1454.1 222.713 1457.66 Q220.908 1461.2 220.908 1468.33 Q220.908 1475.44 222.713 1479.01 Q224.542 1482.55 228.153 1482.55 Q231.787 1482.55 233.593 1479.01 Q235.422 1475.44 235.422 1468.33 Q235.422 1461.2 233.593 1457.66 Q231.787 1454.1 228.153 1454.1 M228.153 1450.39 Q233.963 1450.39 237.019 1455 Q240.097 1459.58 240.097 1468.33 Q240.097 1477.06 237.019 1481.67 Q233.963 1486.25 228.153 1486.25 Q222.343 1486.25 219.264 1481.67 Q216.209 1477.06 216.209 1468.33 Q216.209 1459.58 219.264 1455 Q222.343 1450.39 228.153 1450.39 Z" fill="#000000" fill-rule="evenodd" fill-opacity="1" /><path clip-path="url(#clip500)" d="M707.901 1481.64 L724.221 1481.64 L724.221 1485.58 L702.277 1485.58 L702.277 1481.64 Q704.939 1478.89 709.522 1474.26 Q714.128 1469.61 715.309 1468.27 Q717.554 1465.74 718.434 1464.01 Q719.337 1462.25 719.337 1460.56 Q719.337 1457.8 717.392 1456.07 Q715.471 1454.33 712.369 1454.33 Q710.17 1454.33 707.716 1455.09 Q705.286 1455.86 702.508 1457.41 L702.508 1452.69 Q705.332 1451.55 707.786 1450.97 Q710.239 1450.39 712.276 1450.39 Q717.647 1450.39 720.841 1453.08 Q724.036 1455.77 724.036 1460.26 Q724.036 1462.39 723.225 1464.31 Q722.438 1466.2 720.332 1468.8 Q719.753 1469.47 716.651 1472.69 Q713.55 1475.88 707.901 1481.64 Z" fill="#000000" fill-rule="evenodd" fill-opacity="1" /><path clip-path="url(#clip500)" d="M744.036 1454.1 Q740.424 1454.1 738.596 1457.66 Q736.79 1461.2 736.79 1468.33 Q736.79 1475.44 738.596 1479.01 Q740.424 1482.55 744.036 1482.55 Q747.67 1482.55 749.475 1479.01 Q751.304 1475.44 751.304 1468.33 Q751.304 1461.2 749.475 1457.66 Q747.67 1454.1 744.036 1454.1 M744.036 1450.39 Q749.846 1450.39 752.901 1455 Q755.98 1459.58 755.98 1468.33 Q755.98 1477.06 752.901 1481.67 Q749.846 1486.25 744.036 1486.25 Q738.225 1486.25 735.147 1481.67 Q732.091 1477.06 732.091 1468.33 Q732.091 1459.58 735.147 1455 Q738.225 1450.39 744.036 1450.39 Z" fill="#000000" fill-rule="evenodd" fill-opacity="1" /><path clip-path="url(#clip500)" d="M774.197 1454.1 Q770.586 1454.1 768.758 1457.66 Q766.952 1461.2 766.952 1468.33 Q766.952 1475.44 768.758 1479.01 Q770.586 1482.55 774.197 1482.55 Q777.832 1482.55 779.637 1479.01 Q781.466 1475.44 781.466 1468.33 Q781.466 1461.2 779.637 1457.66 Q777.832 1454.1 774.197 1454.1 M774.197 1450.39 Q780.008 1450.39 783.063 1455 Q786.142 1459.58 786.142 1468.33 Q786.142 1477.06 783.063 1481.67 Q780.008 1486.25 774.197 1486.25 Q768.387 1486.25 765.309 1481.67 Q762.253 1477.06 762.253 1468.33 Q762.253 1459.58 765.309 1455 Q768.387 1450.39 774.197 1450.39 Z" fill="#000000" fill-rule="evenodd" fill-opacity="1" /><path clip-path="url(#clip500)" d="M1233.36 1455.09 L1221.55 1473.54 L1233.36 1473.54 L1233.36 1455.09 M1232.13 1451.02 L1238.01 1451.02 L1238.01 1473.54 L1242.94 1473.54 L1242.94 1477.43 L1238.01 1477.43 L1238.01 1485.58 L1233.36 1485.58 L1233.36 1477.43 L1217.75 1477.43 L1217.75 1472.92 L1232.13 1451.02 Z" fill="#000000" fill-rule="evenodd" fill-opacity="1" /><path clip-path="url(#clip500)" d="M1260.67 1454.1 Q1257.06 1454.1 1255.23 1457.66 Q1253.42 1461.2 1253.42 1468.33 Q1253.42 1475.44 1255.23 1479.01 Q1257.06 1482.55 1260.67 1482.55 Q1264.3 1482.55 1266.11 1479.01 Q1267.94 1475.44 1267.94 1468.33 Q1267.94 1461.2 1266.11 1457.66 Q1264.3 1454.1 1260.67 1454.1 M1260.67 1450.39 Q1266.48 1450.39 1269.54 1455 Q1272.61 1459.58 1272.61 1468.33 Q1272.61 1477.06 1269.54 1481.67 Q1266.48 1486.25 1260.67 1486.25 Q1254.86 1486.25 1251.78 1481.67 Q1248.73 1477.06 1248.73 1468.33 Q1248.73 1459.58 1251.78 1455 Q1254.86 1450.39 1260.67 1450.39 Z" fill="#000000" fill-rule="evenodd" fill-opacity="1" /><path clip-path="url(#clip500)" d="M1290.83 1454.1 Q1287.22 1454.1 1285.39 1457.66 Q1283.59 1461.2 1283.59 1468.33 Q1283.59 1475.44 1285.39 1479.01 Q1287.22 1482.55 1290.83 1482.55 Q1294.47 1482.55 1296.27 1479.01 Q1298.1 1475.44 1298.1 1468.33 Q1298.1 1461.2 1296.27 1457.66 Q1294.47 1454.1 1290.83 1454.1 M1290.83 1450.39 Q1296.64 1450.39 1299.7 1455 Q1302.78 1459.58 1302.78 1468.33 Q1302.78 1477.06 1299.7 1481.67 Q1296.64 1486.25 1290.83 1486.25 Q1285.02 1486.25 1281.94 1481.67 Q1278.89 1477.06 1278.89 1468.33 Q1278.89 1459.58 1281.94 1455 Q1285.02 1450.39 1290.83 1450.39 Z" fill="#000000" fill-rule="evenodd" fill-opacity="1" /><path clip-path="url(#clip500)" d="M1746.65 1466.44 Q1743.5 1466.44 1741.65 1468.59 Q1739.82 1470.74 1739.82 1474.49 Q1739.82 1478.22 1741.65 1480.39 Q1743.5 1482.55 1746.65 1482.55 Q1749.79 1482.55 1751.62 1480.39 Q1753.47 1478.22 1753.47 1474.49 Q1753.47 1470.74 1751.62 1468.59 Q1749.79 1466.44 1746.65 1466.44 M1755.93 1451.78 L1755.93 1456.04 Q1754.17 1455.21 1752.36 1454.77 Q1750.58 1454.33 1748.82 1454.33 Q1744.19 1454.33 1741.74 1457.45 Q1739.31 1460.58 1738.96 1466.9 Q1740.33 1464.89 1742.39 1463.82 Q1744.45 1462.73 1746.92 1462.73 Q1752.13 1462.73 1755.14 1465.9 Q1758.17 1469.05 1758.17 1474.49 Q1758.17 1479.82 1755.03 1483.03 Q1751.88 1486.25 1746.65 1486.25 Q1740.65 1486.25 1737.48 1481.67 Q1734.31 1477.06 1734.31 1468.33 Q1734.31 1460.14 1738.2 1455.28 Q1742.09 1450.39 1748.64 1450.39 Q1750.4 1450.39 1752.18 1450.74 Q1753.98 1451.09 1755.93 1451.78 Z" fill="#000000" fill-rule="evenodd" fill-opacity="1" /><path clip-path="url(#clip500)" d="M1776.23 1454.1 Q1772.62 1454.1 1770.79 1457.66 Q1768.98 1461.2 1768.98 1468.33 Q1768.98 1475.44 1770.79 1479.01 Q1772.62 1482.55 1776.23 1482.55 Q1779.86 1482.55 1781.67 1479.01 Q1783.5 1475.44 1783.5 1468.33 Q1783.5 1461.2 1781.67 1457.66 Q1779.86 1454.1 1776.23 1454.1 M1776.23 1450.39 Q1782.04 1450.39 1785.09 1455 Q1788.17 1459.58 1788.17 1468.33 Q1788.17 1477.06 1785.09 1481.67 Q1782.04 1486.25 1776.23 1486.25 Q1770.42 1486.25 1767.34 1481.67 Q1764.28 1477.06 1764.28 1468.33 Q1764.28 1459.58 1767.34 1455 Q1770.42 1450.39 1776.23 1450.39 Z" fill="#000000" fill-rule="evenodd" fill-opacity="1" /><path clip-path="url(#clip500)" d="M1806.39 1454.1 Q1802.78 1454.1 1800.95 1457.66 Q1799.15 1461.2 1799.15 1468.33 Q1799.15 1475.44 1800.95 1479.01 Q1802.78 1482.55 1806.39 1482.55 Q1810.02 1482.55 1811.83 1479.01 Q1813.66 1475.44 1813.66 1468.33 Q1813.66 1461.2 1811.83 1457.66 Q1810.02 1454.1 1806.39 1454.1 M1806.39 1450.39 Q1812.2 1450.39 1815.26 1455 Q1818.33 1459.58 1818.33 1468.33 Q1818.33 1477.06 1815.26 1481.67 Q1812.2 1486.25 1806.39 1486.25 Q1800.58 1486.25 1797.5 1481.67 Q1794.45 1477.06 1794.45 1468.33 Q1794.45 1459.58 1797.5 1455 Q1800.58 1450.39 1806.39 1450.39 Z" fill="#000000" fill-rule="evenodd" fill-opacity="1" /><path clip-path="url(#clip500)" d="M2262.17 1469.17 Q2258.84 1469.17 2256.91 1470.95 Q2255.02 1472.73 2255.02 1475.86 Q2255.02 1478.98 2256.91 1480.77 Q2258.84 1482.55 2262.17 1482.55 Q2265.5 1482.55 2267.42 1480.77 Q2269.35 1478.96 2269.35 1475.86 Q2269.35 1472.73 2267.42 1470.95 Q2265.53 1469.17 2262.17 1469.17 M2257.49 1467.18 Q2254.48 1466.44 2252.79 1464.38 Q2251.13 1462.32 2251.13 1459.35 Q2251.13 1455.21 2254.07 1452.8 Q2257.03 1450.39 2262.17 1450.39 Q2267.33 1450.39 2270.27 1452.8 Q2273.21 1455.21 2273.21 1459.35 Q2273.21 1462.32 2271.52 1464.38 Q2269.85 1466.44 2266.87 1467.18 Q2270.25 1467.96 2272.12 1470.26 Q2274.02 1472.55 2274.02 1475.86 Q2274.02 1480.88 2270.94 1483.57 Q2267.89 1486.25 2262.17 1486.25 Q2256.45 1486.25 2253.37 1483.57 Q2250.32 1480.88 2250.32 1475.86 Q2250.32 1472.55 2252.22 1470.26 Q2254.11 1467.96 2257.49 1467.18 M2255.78 1459.79 Q2255.78 1462.48 2257.45 1463.98 Q2259.14 1465.49 2262.17 1465.49 Q2265.18 1465.49 2266.87 1463.98 Q2268.58 1462.48 2268.58 1459.79 Q2268.58 1457.11 2266.87 1455.6 Q2265.18 1454.1 2262.17 1454.1 Q2259.14 1454.1 2257.45 1455.6 Q2255.78 1457.11 2255.78 1459.79 Z" fill="#000000" fill-rule="evenodd" fill-opacity="1" /><path clip-path="url(#clip500)" d="M2292.33 1454.1 Q2288.72 1454.1 2286.89 1457.66 Q2285.09 1461.2 2285.09 1468.33 Q2285.09 1475.44 2286.89 1479.01 Q2288.72 1482.55 2292.33 1482.55 Q2295.97 1482.55 2297.77 1479.01 Q2299.6 1475.44 2299.6 1468.33 Q2299.6 1461.2 2297.77 1457.66 Q2295.97 1454.1 2292.33 1454.1 M2292.33 1450.39 Q2298.14 1450.39 2301.2 1455 Q2304.28 1459.58 2304.28 1468.33 Q2304.28 1477.06 2301.2 1481.67 Q2298.14 1486.25 2292.33 1486.25 Q2286.52 1486.25 2283.44 1481.67 Q2280.39 1477.06 2280.39 1468.33 Q2280.39 1459.58 2283.44 1455 Q2286.52 1450.39 2292.33 1450.39 Z" fill="#000000" fill-rule="evenodd" fill-opacity="1" /><path clip-path="url(#clip500)" d="M2322.49 1454.1 Q2318.88 1454.1 2317.05 1457.66 Q2315.25 1461.2 2315.25 1468.33 Q2315.25 1475.44 2317.05 1479.01 Q2318.88 1482.55 2322.49 1482.55 Q2326.13 1482.55 2327.93 1479.01 Q2329.76 1475.44 2329.76 1468.33 Q2329.76 1461.2 2327.93 1457.66 Q2326.13 1454.1 2322.49 1454.1 M2322.49 1450.39 Q2328.3 1450.39 2331.36 1455 Q2334.44 1459.58 2334.44 1468.33 Q2334.44 1477.06 2331.36 1481.67 Q2328.3 1486.25 2322.49 1486.25 Q2316.68 1486.25 2313.6 1481.67 Q2310.55 1477.06 2310.55 1468.33 Q2310.55 1459.58 2313.6 1455 Q2316.68 1450.39 2322.49 1450.39 Z" fill="#000000" fill-rule="evenodd" fill-opacity="1" /><path clip-path="url(#clip500)" d="M1301 1546.53 L1301 1568.04 L1295.14 1568.04 L1295.14 1546.72 Q1295.14 1541.66 1293.17 1539.14 Q1291.19 1536.63 1287.25 1536.63 Q1282.5 1536.63 1279.77 1539.65 Q1277.03 1542.68 1277.03 1547.9 L1277.03 1568.04 L1271.14 1568.04 L1271.14 1532.4 L1277.03 1532.4 L1277.03 1537.93 Q1279.13 1534.72 1281.96 1533.13 Q1284.83 1531.54 1288.55 1531.54 Q1294.69 1531.54 1297.84 1535.36 Q1301 1539.14 1301 1546.53 Z" fill="#000000" fill-rule="evenodd" fill-opacity="1" /><polyline clip-path="url(#clip502)" style="stroke:#000000; stroke-linecap:butt; stroke-linejoin:round; stroke-width:2; stroke-opacity:0.1; fill:none" points="
  219.38,1421.95 2352.76,1421.95 
  "/>
<polyline clip-path="url(#clip502)" style="stroke:#000000; stroke-linecap:butt; stroke-linejoin:round; stroke-width:2; stroke-opacity:0.1; fill:none" points="
  219.38,1088.36 2352.76,1088.36 
  "/>
<polyline clip-path="url(#clip502)" style="stroke:#000000; stroke-linecap:butt; stroke-linejoin:round; stroke-width:2; stroke-opacity:0.1; fill:none" points="
  219.38,754.768 2352.76,754.768 
  "/>
<polyline clip-path="url(#clip502)" style="stroke:#000000; stroke-linecap:butt; stroke-linejoin:round; stroke-width:2; stroke-opacity:0.1; fill:none" points="
  219.38,421.18 2352.76,421.18 
  "/>
<polyline clip-path="url(#clip500)" style="stroke:#000000; stroke-linecap:butt; stroke-linejoin:round; stroke-width:4; stroke-opacity:1; fill:none" points="
  219.38,1423.18 219.38,123.472 
  "/>
<polyline clip-path="url(#clip500)" style="stroke:#000000; stroke-linecap:butt; stroke-linejoin:round; stroke-width:4; stroke-opacity:1; fill:none" points="
  219.38,1421.95 238.278,1421.95 
  "/>
<polyline clip-path="url(#clip500)" style="stroke:#000000; stroke-linecap:butt; stroke-linejoin:round; stroke-width:4; stroke-opacity:1; fill:none" points="
  219.38,1088.36 238.278,1088.36 
  "/>
<polyline clip-path="url(#clip500)" style="stroke:#000000; stroke-linecap:butt; stroke-linejoin:round; stroke-width:4; stroke-opacity:1; fill:none" points="
  219.38,754.768 238.278,754.768 
  "/>
<polyline clip-path="url(#clip500)" style="stroke:#000000; stroke-linecap:butt; stroke-linejoin:round; stroke-width:4; stroke-opacity:1; fill:none" points="
  219.38,421.18 238.278,421.18 
  "/>
<path clip-path="url(#clip500)" d="M126.205 1407.74 Q122.593 1407.74 120.765 1411.31 Q118.959 1414.85 118.959 1421.98 Q118.959 1429.09 120.765 1432.65 Q122.593 1436.19 126.205 1436.19 Q129.839 1436.19 131.644 1432.65 Q133.473 1429.09 133.473 1421.98 Q133.473 1414.85 131.644 1411.31 Q129.839 1407.74 126.205 1407.74 M126.205 1404.04 Q132.015 1404.04 135.07 1408.65 Q138.149 1413.23 138.149 1421.98 Q138.149 1430.71 135.07 1435.31 Q132.015 1439.9 126.205 1439.9 Q120.394 1439.9 117.316 1435.31 Q114.26 1430.71 114.26 1421.98 Q114.26 1413.23 117.316 1408.65 Q120.394 1404.04 126.205 1404.04 Z" fill="#000000" fill-rule="evenodd" fill-opacity="1" /><path clip-path="url(#clip500)" d="M146.366 1433.35 L151.251 1433.35 L151.251 1439.23 L146.366 1439.23 L146.366 1433.35 Z" fill="#000000" fill-rule="evenodd" fill-opacity="1" /><path clip-path="url(#clip500)" d="M171.436 1407.74 Q167.825 1407.74 165.996 1411.31 Q164.19 1414.85 164.19 1421.98 Q164.19 1429.09 165.996 1432.65 Q167.825 1436.19 171.436 1436.19 Q175.07 1436.19 176.876 1432.65 Q178.704 1429.09 178.704 1421.98 Q178.704 1414.85 176.876 1411.31 Q175.07 1407.74 171.436 1407.74 M171.436 1404.04 Q177.246 1404.04 180.301 1408.65 Q183.38 1413.23 183.38 1421.98 Q183.38 1430.71 180.301 1435.31 Q177.246 1439.9 171.436 1439.9 Q165.626 1439.9 162.547 1435.31 Q159.491 1430.71 159.491 1421.98 Q159.491 1413.23 162.547 1408.65 Q165.626 1404.04 171.436 1404.04 Z" fill="#000000" fill-rule="evenodd" fill-opacity="1" /><path clip-path="url(#clip500)" d="M127.431 1074.16 Q123.82 1074.16 121.992 1077.72 Q120.186 1081.26 120.186 1088.39 Q120.186 1095.5 121.992 1099.06 Q123.82 1102.6 127.431 1102.6 Q131.066 1102.6 132.871 1099.06 Q134.7 1095.5 134.7 1088.39 Q134.7 1081.26 132.871 1077.72 Q131.066 1074.16 127.431 1074.16 M127.431 1070.45 Q133.242 1070.45 136.297 1075.06 Q139.376 1079.64 139.376 1088.39 Q139.376 1097.12 136.297 1101.73 Q133.242 1106.31 127.431 1106.31 Q121.621 1106.31 118.543 1101.73 Q115.487 1097.12 115.487 1088.39 Q115.487 1079.64 118.543 1075.06 Q121.621 1070.45 127.431 1070.45 Z" fill="#000000" fill-rule="evenodd" fill-opacity="1" /><path clip-path="url(#clip500)" d="M147.593 1099.76 L152.478 1099.76 L152.478 1105.64 L147.593 1105.64 L147.593 1099.76 Z" fill="#000000" fill-rule="evenodd" fill-opacity="1" /><path clip-path="url(#clip500)" d="M163.473 1101.7 L171.112 1101.7 L171.112 1075.34 L162.802 1077 L162.802 1072.74 L171.065 1071.08 L175.741 1071.08 L175.741 1101.7 L183.38 1101.7 L183.38 1105.64 L163.473 1105.64 L163.473 1101.7 Z" fill="#000000" fill-rule="evenodd" fill-opacity="1" /><path clip-path="url(#clip500)" d="M127.802 740.567 Q124.191 740.567 122.362 744.132 Q120.556 747.674 120.556 754.803 Q120.556 761.91 122.362 765.474 Q124.191 769.016 127.802 769.016 Q131.436 769.016 133.242 765.474 Q135.07 761.91 135.07 754.803 Q135.07 747.674 133.242 744.132 Q131.436 740.567 127.802 740.567 M127.802 736.863 Q133.612 736.863 136.667 741.47 Q139.746 746.053 139.746 754.803 Q139.746 763.53 136.667 768.136 Q133.612 772.72 127.802 772.72 Q121.992 772.72 118.913 768.136 Q115.857 763.53 115.857 754.803 Q115.857 746.053 118.913 741.47 Q121.992 736.863 127.802 736.863 Z" fill="#000000" fill-rule="evenodd" fill-opacity="1" /><path clip-path="url(#clip500)" d="M147.964 766.169 L152.848 766.169 L152.848 772.048 L147.964 772.048 L147.964 766.169 Z" fill="#000000" fill-rule="evenodd" fill-opacity="1" /><path clip-path="url(#clip500)" d="M167.061 768.113 L183.38 768.113 L183.38 772.048 L161.436 772.048 L161.436 768.113 Q164.098 765.359 168.681 760.729 Q173.288 756.076 174.468 754.734 Q176.714 752.211 177.593 750.474 Q178.496 748.715 178.496 747.025 Q178.496 744.271 176.551 742.535 Q174.63 740.799 171.528 740.799 Q169.329 740.799 166.876 741.562 Q164.445 742.326 161.667 743.877 L161.667 739.155 Q164.491 738.021 166.945 737.442 Q169.399 736.863 171.436 736.863 Q176.806 736.863 180.001 739.549 Q183.195 742.234 183.195 746.724 Q183.195 748.854 182.385 750.775 Q181.598 752.673 179.491 755.266 Q178.913 755.937 175.811 759.155 Q172.709 762.349 167.061 768.113 Z" fill="#000000" fill-rule="evenodd" fill-opacity="1" /><path clip-path="url(#clip500)" d="M126.853 406.978 Q123.242 406.978 121.413 410.543 Q119.607 414.085 119.607 421.214 Q119.607 428.321 121.413 431.886 Q123.242 435.427 126.853 435.427 Q130.487 435.427 132.292 431.886 Q134.121 428.321 134.121 421.214 Q134.121 414.085 132.292 410.543 Q130.487 406.978 126.853 406.978 M126.853 403.275 Q132.663 403.275 135.718 407.881 Q138.797 412.464 138.797 421.214 Q138.797 429.941 135.718 434.548 Q132.663 439.131 126.853 439.131 Q121.043 439.131 117.964 434.548 Q114.908 429.941 114.908 421.214 Q114.908 412.464 117.964 407.881 Q121.043 403.275 126.853 403.275 Z" fill="#000000" fill-rule="evenodd" fill-opacity="1" /><path clip-path="url(#clip500)" d="M147.015 432.58 L151.899 432.58 L151.899 438.46 L147.015 438.46 L147.015 432.58 Z" fill="#000000" fill-rule="evenodd" fill-opacity="1" /><path clip-path="url(#clip500)" d="M176.251 419.825 Q179.607 420.543 181.482 422.812 Q183.38 425.08 183.38 428.413 Q183.38 433.529 179.862 436.33 Q176.343 439.131 169.862 439.131 Q167.686 439.131 165.371 438.691 Q163.079 438.274 160.626 437.418 L160.626 432.904 Q162.57 434.038 164.885 434.617 Q167.2 435.196 169.723 435.196 Q174.121 435.196 176.413 433.46 Q178.727 431.724 178.727 428.413 Q178.727 425.358 176.575 423.645 Q174.445 421.909 170.626 421.909 L166.598 421.909 L166.598 418.066 L170.811 418.066 Q174.26 418.066 176.089 416.7 Q177.917 415.312 177.917 412.719 Q177.917 410.057 176.019 408.645 Q174.144 407.21 170.626 407.21 Q168.704 407.21 166.505 407.626 Q164.306 408.043 161.667 408.923 L161.667 404.756 Q164.329 404.015 166.644 403.645 Q168.982 403.275 171.042 403.275 Q176.366 403.275 179.468 405.705 Q182.57 408.113 182.57 412.233 Q182.57 415.103 180.926 417.094 Q179.283 419.062 176.251 419.825 Z" fill="#000000" fill-rule="evenodd" fill-opacity="1" /><path clip-path="url(#clip500)" d="M41.3104 1089.3 L58.7206 1089.3 L58.7206 1078.99 Q58.7206 1073.8 56.5881 1071.32 Q54.4238 1068.81 49.9996 1068.81 Q45.5436 1068.81 43.4429 1071.32 Q41.3104 1073.8 41.3104 1078.99 L41.3104 1089.3 M21.7677 1089.3 L36.0905 1089.3 L36.0905 1079.79 Q36.0905 1075.08 34.34 1072.78 Q32.5576 1070.46 28.9291 1070.46 Q25.3325 1070.46 23.5501 1072.78 Q21.7677 1075.08 21.7677 1079.79 L21.7677 1089.3 M16.4842 1095.73 L16.4842 1079.31 Q16.4842 1071.96 19.5397 1067.98 Q22.5952 1064 28.2289 1064 Q32.5894 1064 35.1675 1066.04 Q37.7456 1068.07 38.3822 1072.02 Q39.4007 1067.28 42.6472 1064.67 Q45.8619 1062.03 50.6998 1062.03 Q57.0655 1062.03 60.5348 1066.36 Q64.0042 1070.68 64.0042 1078.67 L64.0042 1095.73 L16.4842 1095.73 Z" fill="#000000" fill-rule="evenodd" fill-opacity="1" /><path clip-path="url(#clip500)" d="M32.4621 1037.46 Q32.4621 1042.17 36.1542 1044.9 Q39.8145 1047.64 46.212 1047.64 Q52.6095 1047.64 56.3017 1044.93 Q59.9619 1042.2 59.9619 1037.46 Q59.9619 1032.78 56.2698 1030.04 Q52.5777 1027.3 46.212 1027.3 Q39.8781 1027.3 36.186 1030.04 Q32.4621 1032.78 32.4621 1037.46 M27.4968 1037.46 Q27.4968 1029.82 32.4621 1025.46 Q37.4273 1021.1 46.212 1021.1 Q54.9649 1021.1 59.9619 1025.46 Q64.9272 1029.82 64.9272 1037.46 Q64.9272 1045.13 59.9619 1049.49 Q54.9649 1053.81 46.212 1053.81 Q37.4273 1053.81 32.4621 1049.49 Q27.4968 1045.13 27.4968 1037.46 Z" fill="#000000" fill-rule="evenodd" fill-opacity="1" /><path clip-path="url(#clip500)" d="M18.2347 1005.59 L28.3562 1005.59 L28.3562 993.532 L32.9077 993.532 L32.9077 1005.59 L52.2594 1005.59 Q56.6199 1005.59 57.8613 1004.42 Q59.1026 1003.21 59.1026 999.547 L59.1026 993.532 L64.0042 993.532 L64.0042 999.547 Q64.0042 1006.33 61.4897 1008.9 Q58.9434 1011.48 52.2594 1011.48 L32.9077 1011.48 L32.9077 1015.78 L28.3562 1015.78 L28.3562 1011.48 L18.2347 1011.48 L18.2347 1005.59 Z" fill="#000000" fill-rule="evenodd" fill-opacity="1" /><path clip-path="url(#clip500)" d="M18.2347 980.036 L28.3562 980.036 L28.3562 967.973 L32.9077 967.973 L32.9077 980.036 L52.2594 980.036 Q56.6199 980.036 57.8613 978.859 Q59.1026 977.649 59.1026 973.989 L59.1026 967.973 L64.0042 967.973 L64.0042 973.989 Q64.0042 980.768 61.4897 983.347 Q58.9434 985.925 52.2594 985.925 L32.9077 985.925 L32.9077 990.222 L28.3562 990.222 L28.3562 985.925 L18.2347 985.925 L18.2347 980.036 Z" fill="#000000" fill-rule="evenodd" fill-opacity="1" /><path clip-path="url(#clip500)" d="M14.479 960.271 L14.479 954.414 L64.0042 954.414 L64.0042 960.271 L14.479 960.271 Z" fill="#000000" fill-rule="evenodd" fill-opacity="1" /><path clip-path="url(#clip500)" d="M44.7161 911.669 L47.5806 911.669 L47.5806 938.596 Q53.6281 938.214 56.8109 934.967 Q59.9619 931.689 59.9619 925.864 Q59.9619 922.49 59.1344 919.339 Q58.3069 916.157 56.6518 913.037 L62.1899 913.037 Q63.5267 916.188 64.227 919.499 Q64.9272 922.809 64.9272 926.214 Q64.9272 934.744 59.9619 939.741 Q54.9967 944.707 46.5303 944.707 Q37.7774 944.707 32.6531 939.996 Q27.4968 935.254 27.4968 927.233 Q27.4968 920.04 32.1438 915.87 Q36.7589 911.669 44.7161 911.669 M42.9973 917.525 Q38.1912 917.589 35.3266 920.231 Q32.4621 922.841 32.4621 927.169 Q32.4621 932.071 35.2312 935.031 Q38.0002 937.959 43.0292 938.405 L42.9973 917.525 Z" fill="#000000" fill-rule="evenodd" fill-opacity="1" /><path clip-path="url(#clip500)" d="M42.4881 872.424 L64.0042 872.424 L64.0042 878.281 L42.679 878.281 Q37.6183 878.281 35.1038 880.254 Q32.5894 882.227 32.5894 886.174 Q32.5894 890.916 35.6131 893.654 Q38.6368 896.391 43.8567 896.391 L64.0042 896.391 L64.0042 902.279 L28.3562 902.279 L28.3562 896.391 L33.8944 896.391 Q30.6797 894.29 29.0883 891.458 Q27.4968 888.593 27.4968 884.869 Q27.4968 878.726 31.3163 875.575 Q35.1038 872.424 42.4881 872.424 Z" fill="#000000" fill-rule="evenodd" fill-opacity="1" /><path clip-path="url(#clip500)" d="M44.7161 830.251 L47.5806 830.251 L47.5806 857.178 Q53.6281 856.796 56.8109 853.55 Q59.9619 850.271 59.9619 844.447 Q59.9619 841.073 59.1344 837.922 Q58.3069 834.739 56.6518 831.62 L62.1899 831.62 Q63.5267 834.771 64.227 838.081 Q64.9272 841.391 64.9272 844.797 Q64.9272 853.327 59.9619 858.324 Q54.9967 863.289 46.5303 863.289 Q37.7774 863.289 32.6531 858.579 Q27.4968 853.836 27.4968 845.815 Q27.4968 838.622 32.1438 834.453 Q36.7589 830.251 44.7161 830.251 M42.9973 836.108 Q38.1912 836.171 35.3266 838.813 Q32.4621 841.423 32.4621 845.752 Q32.4621 850.653 35.2312 853.613 Q38.0002 856.542 43.0292 856.987 L42.9973 836.108 Z" fill="#000000" fill-rule="evenodd" fill-opacity="1" /><path clip-path="url(#clip500)" d="M29.7248 794.985 L35.1993 794.985 Q33.8307 797.468 33.1623 799.982 Q32.4621 802.465 32.4621 805.011 Q32.4621 810.709 36.0905 813.86 Q39.6872 817.011 46.212 817.011 Q52.7369 817.011 56.3653 813.86 Q59.9619 810.709 59.9619 805.011 Q59.9619 802.465 59.2935 799.982 Q58.5933 797.468 57.2247 794.985 L62.6355 794.985 Q63.7814 797.436 64.3543 800.078 Q64.9272 802.688 64.9272 805.648 Q64.9272 813.7 59.8664 818.443 Q54.8057 823.185 46.212 823.185 Q37.491 823.185 32.4939 818.411 Q27.4968 813.605 27.4968 805.266 Q27.4968 802.56 28.0697 799.982 Q28.6108 797.404 29.7248 794.985 Z" fill="#000000" fill-rule="evenodd" fill-opacity="1" /><path clip-path="url(#clip500)" d="M14.479 785.023 L14.479 779.135 L43.7294 779.135 L28.3562 761.661 L28.3562 754.181 L45.0344 773.087 L64.0042 753.385 L64.0042 761.024 L46.5939 779.135 L64.0042 779.135 L64.0042 785.023 L14.479 785.023 Z" fill="#000000" fill-rule="evenodd" fill-opacity="1" /><path clip-path="url(#clip500)" d="M21.7677 719.647 L58.7206 719.647 L58.7206 711.881 Q58.7206 702.046 54.2646 697.495 Q49.8086 692.911 40.1964 692.911 Q30.6479 692.911 26.2237 697.495 Q21.7677 702.046 21.7677 711.881 L21.7677 719.647 M16.4842 726.077 L16.4842 712.868 Q16.4842 699.054 22.2451 692.593 Q27.9743 686.132 40.1964 686.132 Q52.4822 686.132 58.2432 692.625 Q64.0042 699.118 64.0042 712.868 L64.0042 726.077 L16.4842 726.077 Z" fill="#000000" fill-rule="evenodd" fill-opacity="1" /><path clip-path="url(#clip500)" d="M28.3562 676.138 L28.3562 670.281 L64.0042 670.281 L64.0042 676.138 L28.3562 676.138 M14.479 676.138 L14.479 670.281 L21.895 670.281 L21.895 676.138 L14.479 676.138 Z" fill="#000000" fill-rule="evenodd" fill-opacity="1" /><path clip-path="url(#clip500)" d="M29.4065 635.302 L34.9447 635.302 Q33.6716 637.784 33.035 640.458 Q32.3984 643.131 32.3984 645.996 Q32.3984 650.356 33.7352 652.553 Q35.072 654.717 37.7456 654.717 Q39.7826 654.717 40.9603 653.157 Q42.1061 651.598 43.1565 646.887 L43.6021 644.882 Q44.9389 638.644 47.3897 636.034 Q49.8086 633.392 54.1691 633.392 Q59.1344 633.392 62.0308 637.339 Q64.9272 641.253 64.9272 648.128 Q64.9272 650.993 64.3543 654.112 Q63.8132 657.2 62.6992 660.637 L56.6518 660.637 Q58.3387 657.391 59.198 654.24 Q60.0256 651.089 60.0256 648.001 Q60.0256 643.863 58.6251 641.635 Q57.1929 639.407 54.6147 639.407 Q52.2276 639.407 50.9545 641.031 Q49.6813 642.622 48.5037 648.065 L48.0262 650.102 Q46.8804 655.544 44.5251 657.963 Q42.138 660.382 38.0002 660.382 Q32.9713 660.382 30.2341 656.818 Q27.4968 653.253 27.4968 646.696 Q27.4968 643.45 27.9743 640.585 Q28.4517 637.721 29.4065 635.302 Z" fill="#000000" fill-rule="evenodd" fill-opacity="1" /><path clip-path="url(#clip500)" d="M18.2347 618.273 L28.3562 618.273 L28.3562 606.21 L32.9077 606.21 L32.9077 618.273 L52.2594 618.273 Q56.6199 618.273 57.8613 617.096 Q59.1026 615.886 59.1026 612.226 L59.1026 606.21 L64.0042 606.21 L64.0042 612.226 Q64.0042 619.005 61.4897 621.583 Q58.9434 624.162 52.2594 624.162 L32.9077 624.162 L32.9077 628.458 L28.3562 628.458 L28.3562 624.162 L18.2347 624.162 L18.2347 618.273 Z" fill="#000000" fill-rule="evenodd" fill-opacity="1" /><path clip-path="url(#clip500)" d="M46.0847 582.307 Q46.0847 589.405 47.7079 592.142 Q49.3312 594.879 53.2461 594.879 Q56.3653 594.879 58.2114 592.842 Q60.0256 590.773 60.0256 587.24 Q60.0256 582.371 56.5881 579.442 Q53.1188 576.482 47.3897 576.482 L46.0847 576.482 L46.0847 582.307 M43.6657 570.626 L64.0042 570.626 L64.0042 576.482 L58.5933 576.482 Q61.8398 578.488 63.3994 581.48 Q64.9272 584.471 64.9272 588.8 Q64.9272 594.275 61.8716 597.521 Q58.7843 600.736 53.6281 600.736 Q47.6125 600.736 44.5569 596.725 Q41.5014 592.683 41.5014 584.694 L41.5014 576.482 L40.9285 576.482 Q36.8862 576.482 34.6901 579.156 Q32.4621 581.798 32.4621 586.604 Q32.4621 589.659 33.1941 592.556 Q33.9262 595.452 35.3903 598.126 L29.9795 598.126 Q28.7381 594.911 28.1334 591.887 Q27.4968 588.864 27.4968 585.999 Q27.4968 578.265 31.5072 574.445 Q35.5176 570.626 43.6657 570.626 Z" fill="#000000" fill-rule="evenodd" fill-opacity="1" /><path clip-path="url(#clip500)" d="M42.4881 528.931 L64.0042 528.931 L64.0042 534.787 L42.679 534.787 Q37.6183 534.787 35.1038 536.76 Q32.5894 538.734 32.5894 542.681 Q32.5894 547.423 35.6131 550.16 Q38.6368 552.897 43.8567 552.897 L64.0042 552.897 L64.0042 558.786 L28.3562 558.786 L28.3562 552.897 L33.8944 552.897 Q30.6797 550.797 29.0883 547.964 Q27.4968 545.099 27.4968 541.376 Q27.4968 535.233 31.3163 532.082 Q35.1038 528.931 42.4881 528.931 Z" fill="#000000" fill-rule="evenodd" fill-opacity="1" /><path clip-path="url(#clip500)" d="M29.7248 491.596 L35.1993 491.596 Q33.8307 494.078 33.1623 496.593 Q32.4621 499.075 32.4621 501.622 Q32.4621 507.319 36.0905 510.47 Q39.6872 513.621 46.212 513.621 Q52.7369 513.621 56.3653 510.47 Q59.9619 507.319 59.9619 501.622 Q59.9619 499.075 59.2935 496.593 Q58.5933 494.078 57.2247 491.596 L62.6355 491.596 Q63.7814 494.047 64.3543 496.688 Q64.9272 499.298 64.9272 502.258 Q64.9272 510.311 59.8664 515.053 Q54.8057 519.796 46.212 519.796 Q37.491 519.796 32.4939 515.022 Q27.4968 510.215 27.4968 501.876 Q27.4968 499.171 28.0697 496.593 Q28.6108 494.015 29.7248 491.596 Z" fill="#000000" fill-rule="evenodd" fill-opacity="1" /><path clip-path="url(#clip500)" d="M44.7161 450.919 L47.5806 450.919 L47.5806 477.846 Q53.6281 477.464 56.8109 474.217 Q59.9619 470.939 59.9619 465.114 Q59.9619 461.741 59.1344 458.59 Q58.3069 455.407 56.6518 452.287 L62.1899 452.287 Q63.5267 455.439 64.227 458.749 Q64.9272 462.059 64.9272 465.464 Q64.9272 473.995 59.9619 478.992 Q54.9967 483.957 46.5303 483.957 Q37.7774 483.957 32.6531 479.246 Q27.4968 474.504 27.4968 466.483 Q27.4968 459.29 32.1438 455.12 Q36.7589 450.919 44.7161 450.919 M42.9973 456.775 Q38.1912 456.839 35.3266 459.481 Q32.4621 462.091 32.4621 466.419 Q32.4621 471.321 35.2312 474.281 Q38.0002 477.209 43.0292 477.655 L42.9973 456.775 Z" fill="#000000" fill-rule="evenodd" fill-opacity="1" /><path clip-path="url(#clip500)" d="M925.841 34.4165 Q924.343 33.8899 922.844 33.4848 Q918.833 32.4315 914.539 32.4315 Q907.126 32.4315 902.994 36.4419 Q899.146 40.1688 898.417 47.0148 L925.841 47.0148 L925.841 52.8481 L898.417 52.8481 Q899.146 59.6941 902.994 63.421 Q907.126 67.4314 914.539 67.4314 Q919.725 67.4314 922.844 66.3781 L925.841 65.3654 L925.841 72.1304 L922.641 72.8596 Q918.428 73.7508 914.094 73.7508 Q903.237 73.7508 896.918 67.4314 Q890.558 61.1119 890.558 49.9314 Q890.558 38.7509 896.918 32.4315 Q903.237 26.1121 914.094 26.1121 Q918.185 26.1121 922.641 27.0033 Q924.262 27.3274 925.841 27.8135 L925.841 34.4165 Z" fill="#000000" fill-rule="evenodd" fill-opacity="1" /><path clip-path="url(#clip500)" d="M978.422 65.7705 L978.422 89.8329 L970.928 89.8329 L970.928 27.2059 L978.422 27.2059 L978.422 34.0924 Q980.772 30.0415 984.336 28.0971 Q987.942 26.1121 992.924 26.1121 Q1001.19 26.1121 1006.33 32.6746 Q1011.52 39.2371 1011.52 49.9314 Q1011.52 60.6258 1006.33 67.1883 Q1001.19 73.7508 992.924 73.7508 Q987.942 73.7508 984.336 71.8063 Q980.772 69.8214 978.422 65.7705 M1003.78 49.9314 Q1003.78 41.7081 1000.38 37.0496 Q997.016 32.3505 991.101 32.3505 Q985.187 32.3505 981.784 37.0496 Q978.422 41.7081 978.422 49.9314 Q978.422 58.1548 981.784 62.8538 Q985.187 67.5124 991.101 67.5124 Q997.016 67.5124 1000.38 62.8538 Q1003.78 58.1548 1003.78 49.9314 Z" fill="#000000" fill-rule="evenodd" fill-opacity="1" /><path clip-path="url(#clip500)" d="M1023.1 54.671 L1023.1 27.2059 L1030.56 27.2059 L1030.56 54.3874 Q1030.56 60.8284 1033.07 64.0691 Q1035.58 67.2693 1040.6 67.2693 Q1046.64 67.2693 1050.12 63.421 Q1053.65 59.5726 1053.65 52.9291 L1053.65 27.2059 L1061.1 27.2059 L1061.1 72.576 L1053.65 72.576 L1053.65 65.6084 Q1050.93 69.7404 1047.33 71.7658 Q1043.76 73.7508 1039.02 73.7508 Q1031.21 73.7508 1027.15 68.8897 Q1023.1 64.0286 1023.1 54.671 M1041.86 26.1121 L1041.86 26.1121 Z" fill="#000000" fill-rule="evenodd" fill-opacity="1" /><path clip-path="url(#clip500)" d="M1109.02 49.9314 Q1109.02 41.7081 1105.62 37.0496 Q1102.26 32.3505 1096.34 32.3505 Q1090.43 32.3505 1087.03 37.0496 Q1083.66 41.7081 1083.66 49.9314 Q1083.66 58.1548 1087.03 62.8538 Q1090.43 67.5124 1096.34 67.5124 Q1102.26 67.5124 1105.62 62.8538 Q1109.02 58.1548 1109.02 49.9314 M1083.66 34.0924 Q1086.01 30.0415 1089.58 28.0971 Q1093.18 26.1121 1098.17 26.1121 Q1106.43 26.1121 1111.58 32.6746 Q1116.76 39.2371 1116.76 49.9314 Q1116.76 60.6258 1111.58 67.1883 Q1106.43 73.7508 1098.17 73.7508 Q1093.18 73.7508 1089.58 71.8063 Q1086.01 69.8214 1083.66 65.7705 L1083.66 72.576 L1076.17 72.576 L1076.17 9.54393 L1083.66 9.54393 L1083.66 34.0924 Z" fill="#000000" fill-rule="evenodd" fill-opacity="1" /><path clip-path="url(#clip500)" d="M1129.12 9.54393 L1136.57 9.54393 L1136.57 72.576 L1129.12 72.576 L1129.12 9.54393 Z" fill="#000000" fill-rule="evenodd" fill-opacity="1" /><path clip-path="url(#clip500)" d="M1152.17 27.2059 L1159.62 27.2059 L1159.62 72.576 L1152.17 72.576 L1152.17 27.2059 M1152.17 9.54393 L1159.62 9.54393 L1159.62 18.9825 L1152.17 18.9825 L1152.17 9.54393 Z" fill="#000000" fill-rule="evenodd" fill-opacity="1" /><path clip-path="url(#clip500)" d="M1207.87 28.9478 L1207.87 35.9153 Q1204.71 34.1734 1201.51 33.3227 Q1198.35 32.4315 1195.1 32.4315 Q1187.85 32.4315 1183.84 37.0496 Q1179.83 41.6271 1179.83 49.9314 Q1179.83 58.2358 1183.84 62.8538 Q1187.85 67.4314 1195.1 67.4314 Q1198.35 67.4314 1201.51 66.5807 Q1204.71 65.6895 1207.87 63.9476 L1207.87 70.8341 Q1204.75 72.2924 1201.38 73.0216 Q1198.06 73.7508 1194.29 73.7508 Q1184.05 73.7508 1178.01 67.3098 Q1171.97 60.8689 1171.97 49.9314 Q1171.97 38.832 1178.05 32.472 Q1184.17 26.1121 1194.78 26.1121 Q1198.22 26.1121 1201.51 26.8413 Q1204.79 27.5299 1207.87 28.9478 Z" fill="#000000" fill-rule="evenodd" fill-opacity="1" /><path clip-path="url(#clip500)" d="M1220.83 9.54393 L1228.28 9.54393 L1228.28 72.576 L1220.83 72.576 L1220.83 9.54393 Z" fill="#000000" fill-rule="evenodd" fill-opacity="1" /><path clip-path="url(#clip500)" d="M1262.76 76.7889 Q1259.6 84.8907 1256.6 87.3618 Q1253.6 89.8329 1248.58 89.8329 L1242.62 89.8329 L1242.62 83.5945 L1247 83.5945 Q1250.08 83.5945 1251.78 82.1361 Q1253.48 80.6778 1255.54 75.2496 L1256.88 71.8468 L1238.53 27.2059 L1246.43 27.2059 L1260.61 62.6918 L1274.79 27.2059 L1282.69 27.2059 L1262.76 76.7889 Z" fill="#000000" fill-rule="evenodd" fill-opacity="1" /><path clip-path="url(#clip500)" d="M1339.97 49.7694 Q1330.93 49.7694 1327.45 51.8354 Q1323.96 53.9013 1323.96 58.8839 Q1323.96 62.8538 1326.56 65.2034 Q1329.19 67.5124 1333.69 67.5124 Q1339.88 67.5124 1343.61 63.1374 Q1347.38 58.7219 1347.38 51.4303 L1347.38 49.7694 L1339.97 49.7694 M1354.83 46.6907 L1354.83 72.576 L1347.38 72.576 L1347.38 65.6895 Q1344.83 69.8214 1341.02 71.8063 Q1337.21 73.7508 1331.7 73.7508 Q1324.73 73.7508 1320.6 69.8619 Q1316.51 65.9325 1316.51 59.3701 Q1316.51 51.7138 1321.61 47.825 Q1326.76 43.9361 1336.93 43.9361 L1347.38 43.9361 L1347.38 43.2069 Q1347.38 38.0623 1343.98 35.2672 Q1340.61 32.4315 1334.5 32.4315 Q1330.61 32.4315 1326.92 33.3632 Q1323.24 34.295 1319.83 36.1584 L1319.83 29.2718 Q1323.92 27.692 1327.77 26.9223 Q1331.62 26.1121 1335.27 26.1121 Q1345.11 26.1121 1349.97 31.2163 Q1354.83 36.3204 1354.83 46.6907 Z" fill="#000000" fill-rule="evenodd" fill-opacity="1" /><path clip-path="url(#clip500)" d="M1364.84 27.2059 L1372.74 27.2059 L1386.92 65.2844 L1401.09 27.2059 L1408.99 27.2059 L1391.98 72.576 L1381.85 72.576 L1364.84 27.2059 Z" fill="#000000" fill-rule="evenodd" fill-opacity="1" /><path clip-path="url(#clip500)" d="M1439.9 49.7694 Q1430.87 49.7694 1427.38 51.8354 Q1423.9 53.9013 1423.9 58.8839 Q1423.9 62.8538 1426.49 65.2034 Q1429.13 67.5124 1433.62 67.5124 Q1439.82 67.5124 1443.55 63.1374 Q1447.31 58.7219 1447.31 51.4303 L1447.31 49.7694 L1439.9 49.7694 M1454.77 46.6907 L1454.77 72.576 L1447.31 72.576 L1447.31 65.6895 Q1444.76 69.8214 1440.95 71.8063 Q1437.15 73.7508 1431.64 73.7508 Q1424.67 73.7508 1420.54 69.8619 Q1416.45 65.9325 1416.45 59.3701 Q1416.45 51.7138 1421.55 47.825 Q1426.7 43.9361 1436.86 43.9361 L1447.31 43.9361 L1447.31 43.2069 Q1447.31 38.0623 1443.91 35.2672 Q1440.55 32.4315 1434.43 32.4315 Q1430.54 32.4315 1426.86 33.3632 Q1423.17 34.295 1419.77 36.1584 L1419.77 29.2718 Q1423.86 27.692 1427.71 26.9223 Q1431.56 26.1121 1435.2 26.1121 Q1445.05 26.1121 1449.91 31.2163 Q1454.77 36.3204 1454.77 46.6907 Z" fill="#000000" fill-rule="evenodd" fill-opacity="1" /><path clip-path="url(#clip500)" d="M1470.12 27.2059 L1477.57 27.2059 L1477.57 72.576 L1470.12 72.576 L1470.12 27.2059 M1470.12 9.54393 L1477.57 9.54393 L1477.57 18.9825 L1470.12 18.9825 L1470.12 9.54393 Z" fill="#000000" fill-rule="evenodd" fill-opacity="1" /><path clip-path="url(#clip500)" d="M1493.17 9.54393 L1500.62 9.54393 L1500.62 72.576 L1493.17 72.576 L1493.17 9.54393 Z" fill="#000000" fill-rule="evenodd" fill-opacity="1" /><path clip-path="url(#clip500)" d="M1536.84 49.7694 Q1527.81 49.7694 1524.32 51.8354 Q1520.84 53.9013 1520.84 58.8839 Q1520.84 62.8538 1523.43 65.2034 Q1526.06 67.5124 1530.56 67.5124 Q1536.76 67.5124 1540.49 63.1374 Q1544.25 58.7219 1544.25 51.4303 L1544.25 49.7694 L1536.84 49.7694 M1551.71 46.6907 L1551.71 72.576 L1544.25 72.576 L1544.25 65.6895 Q1541.7 69.8214 1537.89 71.8063 Q1534.08 73.7508 1528.58 73.7508 Q1521.61 73.7508 1517.48 69.8619 Q1513.38 65.9325 1513.38 59.3701 Q1513.38 51.7138 1518.49 47.825 Q1523.63 43.9361 1533.8 43.9361 L1544.25 43.9361 L1544.25 43.2069 Q1544.25 38.0623 1540.85 35.2672 Q1537.49 32.4315 1531.37 32.4315 Q1527.48 32.4315 1523.8 33.3632 Q1520.11 34.295 1516.71 36.1584 L1516.71 29.2718 Q1520.8 27.692 1524.65 26.9223 Q1528.49 26.1121 1532.14 26.1121 Q1541.98 26.1121 1546.84 31.2163 Q1551.71 36.3204 1551.71 46.6907 Z" fill="#000000" fill-rule="evenodd" fill-opacity="1" /><path clip-path="url(#clip500)" d="M1599.63 49.9314 Q1599.63 41.7081 1596.23 37.0496 Q1592.86 32.3505 1586.95 32.3505 Q1581.03 32.3505 1577.63 37.0496 Q1574.27 41.7081 1574.27 49.9314 Q1574.27 58.1548 1577.63 62.8538 Q1581.03 67.5124 1586.95 67.5124 Q1592.86 67.5124 1596.23 62.8538 Q1599.63 58.1548 1599.63 49.9314 M1574.27 34.0924 Q1576.62 30.0415 1580.18 28.0971 Q1583.79 26.1121 1588.77 26.1121 Q1597.04 26.1121 1602.18 32.6746 Q1607.37 39.2371 1607.37 49.9314 Q1607.37 60.6258 1602.18 67.1883 Q1597.04 73.7508 1588.77 73.7508 Q1583.79 73.7508 1580.18 71.8063 Q1576.62 69.8214 1574.27 65.7705 L1574.27 72.576 L1566.78 72.576 L1566.78 9.54393 L1574.27 9.54393 L1574.27 34.0924 Z" fill="#000000" fill-rule="evenodd" fill-opacity="1" /><path clip-path="url(#clip500)" d="M1619.72 9.54393 L1627.17 9.54393 L1627.17 72.576 L1619.72 72.576 L1619.72 9.54393 Z" fill="#000000" fill-rule="evenodd" fill-opacity="1" /><path clip-path="url(#clip500)" d="M1681.58 48.0275 L1681.58 51.6733 L1647.31 51.6733 Q1647.79 59.3701 1651.93 63.421 Q1656.1 67.4314 1663.51 67.4314 Q1667.8 67.4314 1671.82 66.3781 Q1675.87 65.3249 1679.84 63.2184 L1679.84 70.267 Q1675.83 71.9684 1671.61 72.8596 Q1667.4 73.7508 1663.07 73.7508 Q1652.21 73.7508 1645.85 67.4314 Q1639.53 61.1119 1639.53 50.3365 Q1639.53 39.1965 1645.53 32.6746 Q1651.56 26.1121 1661.77 26.1121 Q1670.92 26.1121 1676.23 32.0264 Q1681.58 37.9003 1681.58 48.0275 M1674.12 45.84 Q1674.04 39.7232 1670.68 36.0774 Q1667.36 32.4315 1661.85 32.4315 Q1655.61 32.4315 1651.84 35.9558 Q1648.12 39.4801 1647.55 45.8805 L1674.12 45.84 Z" fill="#000000" fill-rule="evenodd" fill-opacity="1" /><polyline clip-path="url(#clip502)" style="stroke:#009af9; stroke-linecap:butt; stroke-linejoin:round; stroke-width:12; stroke-opacity:1; fill:none" points="
  279.759,160.256 331.364,550.795 382.97,814.795 434.576,993.565 486.181,1021.98 744.209,1011.08 1260.27,1206.76 1776.32,1273.32 2292.38,1293.15 
  "/>
<path clip-path="url(#clip502)" d="M279.759 176.256 L268.447 171.568 L263.759 160.256 L268.447 148.944 L279.759 144.256 L291.071 148.944 L295.759 160.256 L291.071 171.568 Z" fill="#009af9" fill-rule="evenodd" fill-opacity="1" stroke="#000000" stroke-opacity="1" stroke-width="3.2"/>
<path clip-path="url(#clip502)" d="M331.364 566.795 L320.052 562.107 L315.364 550.795 L320.052 539.483 L331.364 534.795 L342.676 539.483 L347.364 550.795 L342.676 562.107 Z" fill="#009af9" fill-rule="evenodd" fill-opacity="1" stroke="#000000" stroke-opacity="1" stroke-width="3.2"/>
<path clip-path="url(#clip502)" d="M382.97 830.795 L371.658 826.107 L366.97 814.795 L371.658 803.483 L382.97 798.795 L394.282 803.483 L398.97 814.795 L394.282 826.107 Z" fill="#009af9" fill-rule="evenodd" fill-opacity="1" stroke="#000000" stroke-opacity="1" stroke-width="3.2"/>
<path clip-path="url(#clip502)" d="M434.576 1009.57 L423.264 1004.88 L418.576 993.565 L423.264 982.253 L434.576 977.565 L445.888 982.253 L450.576 993.565 L445.888 1004.88 Z" fill="#009af9" fill-rule="evenodd" fill-opacity="1" stroke="#000000" stroke-opacity="1" stroke-width="3.2"/>
<path clip-path="url(#clip502)" d="M486.181 1037.98 L474.869 1033.29 L470.181 1021.98 L474.869 1010.66 L486.181 1005.98 L497.493 1010.66 L502.181 1021.98 L497.493 1033.29 Z" fill="#009af9" fill-rule="evenodd" fill-opacity="1" stroke="#000000" stroke-opacity="1" stroke-width="3.2"/>
<path clip-path="url(#clip502)" d="M744.209 1027.08 L732.897 1022.4 L728.209 1011.08 L732.897 999.772 L744.209 995.084 L755.521 999.772 L760.209 1011.08 L755.521 1022.4 Z" fill="#009af9" fill-rule="evenodd" fill-opacity="1" stroke="#000000" stroke-opacity="1" stroke-width="3.2"/>
<path clip-path="url(#clip502)" d="M1260.27 1222.76 L1248.95 1218.07 L1244.27 1206.76 L1248.95 1195.45 L1260.27 1190.76 L1271.58 1195.45 L1276.27 1206.76 L1271.58 1218.07 Z" fill="#009af9" fill-rule="evenodd" fill-opacity="1" stroke="#000000" stroke-opacity="1" stroke-width="3.2"/>
<path clip-path="url(#clip502)" d="M1776.32 1289.32 L1765.01 1284.64 L1760.32 1273.32 L1765.01 1262.01 L1776.32 1257.32 L1787.63 1262.01 L1792.32 1273.32 L1787.63 1284.64 Z" fill="#009af9" fill-rule="evenodd" fill-opacity="1" stroke="#000000" stroke-opacity="1" stroke-width="3.2"/>
<path clip-path="url(#clip502)" d="M2292.38 1309.15 L2281.07 1304.46 L2276.38 1293.15 L2281.07 1281.84 L2292.38 1277.15 L2303.69 1281.84 L2308.38 1293.15 L2303.69 1304.46 Z" fill="#009af9" fill-rule="evenodd" fill-opacity="1" stroke="#000000" stroke-opacity="1" stroke-width="3.2"/>
<polyline clip-path="url(#clip502)" style="stroke:#e26f46; stroke-linecap:butt; stroke-linejoin:round; stroke-width:12; stroke-opacity:1; fill:none" points="
  279.759,464.653 331.364,888.583 382.97,1076.43 434.576,1069.19 486.181,1078.67 744.209,1183.82 1260.27,1299.61 1776.32,1340.16 2292.38,1341.6 
  "/>
<path clip-path="url(#clip502)" d="M279.759 480.653 L268.447 475.965 L263.759 464.653 L268.447 453.341 L279.759 448.653 L291.071 453.341 L295.759 464.653 L291.071 475.965 Z" fill="#e26f46" fill-rule="evenodd" fill-opacity="1" stroke="#000000" stroke-opacity="1" stroke-width="3.2"/>
<path clip-path="url(#clip502)" d="M331.364 904.583 L320.052 899.895 L315.364 888.583 L320.052 877.271 L331.364 872.583 L342.676 877.271 L347.364 888.583 L342.676 899.895 Z" fill="#e26f46" fill-rule="evenodd" fill-opacity="1" stroke="#000000" stroke-opacity="1" stroke-width="3.2"/>
<path clip-path="url(#clip502)" d="M382.97 1092.43 L371.658 1087.75 L366.97 1076.43 L371.658 1065.12 L382.97 1060.43 L394.282 1065.12 L398.97 1076.43 L394.282 1087.75 Z" fill="#e26f46" fill-rule="evenodd" fill-opacity="1" stroke="#000000" stroke-opacity="1" stroke-width="3.2"/>
<path clip-path="url(#clip502)" d="M434.576 1085.19 L423.264 1080.5 L418.576 1069.19 L423.264 1057.87 L434.576 1053.19 L445.888 1057.87 L450.576 1069.19 L445.888 1080.5 Z" fill="#e26f46" fill-rule="evenodd" fill-opacity="1" stroke="#000000" stroke-opacity="1" stroke-width="3.2"/>
<path clip-path="url(#clip502)" d="M486.181 1094.67 L474.869 1089.99 L470.181 1078.67 L474.869 1067.36 L486.181 1062.67 L497.493 1067.36 L502.181 1078.67 L497.493 1089.99 Z" fill="#e26f46" fill-rule="evenodd" fill-opacity="1" stroke="#000000" stroke-opacity="1" stroke-width="3.2"/>
<path clip-path="url(#clip502)" d="M744.209 1199.82 L732.897 1195.13 L728.209 1183.82 L732.897 1172.51 L744.209 1167.82 L755.521 1172.51 L760.209 1183.82 L755.521 1195.13 Z" fill="#e26f46" fill-rule="evenodd" fill-opacity="1" stroke="#000000" stroke-opacity="1" stroke-width="3.2"/>
<path clip-path="url(#clip502)" d="M1260.27 1315.61 L1248.95 1310.92 L1244.27 1299.61 L1248.95 1288.3 L1260.27 1283.61 L1271.58 1288.3 L1276.27 1299.61 L1271.58 1310.92 Z" fill="#e26f46" fill-rule="evenodd" fill-opacity="1" stroke="#000000" stroke-opacity="1" stroke-width="3.2"/>
<path clip-path="url(#clip502)" d="M1776.32 1356.16 L1765.01 1351.47 L1760.32 1340.16 L1765.01 1328.85 L1776.32 1324.16 L1787.63 1328.85 L1792.32 1340.16 L1787.63 1351.47 Z" fill="#e26f46" fill-rule="evenodd" fill-opacity="1" stroke="#000000" stroke-opacity="1" stroke-width="3.2"/>
<path clip-path="url(#clip502)" d="M2292.38 1357.6 L2281.07 1352.91 L2276.38 1341.6 L2281.07 1330.29 L2292.38 1325.6 L2303.69 1330.29 L2308.38 1341.6 L2303.69 1352.91 Z" fill="#e26f46" fill-rule="evenodd" fill-opacity="1" stroke="#000000" stroke-opacity="1" stroke-width="3.2"/>
<polyline clip-path="url(#clip502)" style="stroke:#3da44d; stroke-linecap:butt; stroke-linejoin:round; stroke-width:12; stroke-opacity:1; fill:none" points="
  279.759,729.974 331.364,1087.6 382.97,1174.2 434.576,1188.26 486.181,1199.54 744.209,1305.91 1260.27,1364.64 1776.32,1376.9 2292.38,1386.4 
  "/>
<path clip-path="url(#clip502)" d="M279.759 745.974 L268.447 741.286 L263.759 729.974 L268.447 718.662 L279.759 713.974 L291.071 718.662 L295.759 729.974 L291.071 741.286 Z" fill="#3da44d" fill-rule="evenodd" fill-opacity="1" stroke="#000000" stroke-opacity="1" stroke-width="3.2"/>
<path clip-path="url(#clip502)" d="M331.364 1103.6 L320.052 1098.92 L315.364 1087.6 L320.052 1076.29 L331.364 1071.6 L342.676 1076.29 L347.364 1087.6 L342.676 1098.92 Z" fill="#3da44d" fill-rule="evenodd" fill-opacity="1" stroke="#000000" stroke-opacity="1" stroke-width="3.2"/>
<path clip-path="url(#clip502)" d="M382.97 1190.2 L371.658 1185.51 L366.97 1174.2 L371.658 1162.88 L382.97 1158.2 L394.282 1162.88 L398.97 1174.2 L394.282 1185.51 Z" fill="#3da44d" fill-rule="evenodd" fill-opacity="1" stroke="#000000" stroke-opacity="1" stroke-width="3.2"/>
<path clip-path="url(#clip502)" d="M434.576 1204.26 L423.264 1199.57 L418.576 1188.26 L423.264 1176.95 L434.576 1172.26 L445.888 1176.95 L450.576 1188.26 L445.888 1199.57 Z" fill="#3da44d" fill-rule="evenodd" fill-opacity="1" stroke="#000000" stroke-opacity="1" stroke-width="3.2"/>
<path clip-path="url(#clip502)" d="M486.181 1215.54 L474.869 1210.85 L470.181 1199.54 L474.869 1188.23 L486.181 1183.54 L497.493 1188.23 L502.181 1199.54 L497.493 1210.85 Z" fill="#3da44d" fill-rule="evenodd" fill-opacity="1" stroke="#000000" stroke-opacity="1" stroke-width="3.2"/>
<path clip-path="url(#clip502)" d="M744.209 1321.91 L732.897 1317.22 L728.209 1305.91 L732.897 1294.59 L744.209 1289.91 L755.521 1294.59 L760.209 1305.91 L755.521 1317.22 Z" fill="#3da44d" fill-rule="evenodd" fill-opacity="1" stroke="#000000" stroke-opacity="1" stroke-width="3.2"/>
<path clip-path="url(#clip502)" d="M1260.27 1380.64 L1248.95 1375.95 L1244.27 1364.64 L1248.95 1353.33 L1260.27 1348.64 L1271.58 1353.33 L1276.27 1364.64 L1271.58 1375.95 Z" fill="#3da44d" fill-rule="evenodd" fill-opacity="1" stroke="#000000" stroke-opacity="1" stroke-width="3.2"/>
<path clip-path="url(#clip502)" d="M1776.32 1392.9 L1765.01 1388.21 L1760.32 1376.9 L1765.01 1365.59 L1776.32 1360.9 L1787.63 1365.59 L1792.32 1376.9 L1787.63 1388.21 Z" fill="#3da44d" fill-rule="evenodd" fill-opacity="1" stroke="#000000" stroke-opacity="1" stroke-width="3.2"/>
<path clip-path="url(#clip502)" d="M2292.38 1402.4 L2281.07 1397.71 L2276.38 1386.4 L2281.07 1375.08 L2292.38 1370.4 L2303.69 1375.08 L2308.38 1386.4 L2303.69 1397.71 Z" fill="#3da44d" fill-rule="evenodd" fill-opacity="1" stroke="#000000" stroke-opacity="1" stroke-width="3.2"/>
<path clip-path="url(#clip500)" d="
M1879.16 374.156 L2281.64 374.156 L2281.64 166.796 L1879.16 166.796  Z
  " fill="#ffffff" fill-rule="evenodd" fill-opacity="1"/>
<polyline clip-path="url(#clip500)" style="stroke:#000000; stroke-linecap:butt; stroke-linejoin:round; stroke-width:4; stroke-opacity:1; fill:none" points="
  1879.16,374.156 2281.64,374.156 2281.64,166.796 1879.16,166.796 1879.16,374.156 
  "/>
<polyline clip-path="url(#clip500)" style="stroke:#009af9; stroke-linecap:butt; stroke-linejoin:round; stroke-width:4; stroke-opacity:1; fill:none" points="
  1902.87,218.636 2045.09,218.636 
  "/>
<path clip-path="url(#clip500)" d="M1973.98 244.236 L1955.88 236.735 L1948.38 218.636 L1955.88 200.537 L1973.98 193.036 L1992.08 200.537 L1999.58 218.636 L1992.08 236.735 Z" fill="#009af9" fill-rule="evenodd" fill-opacity="1" stroke="#000000" stroke-opacity="1" stroke-width="5.12"/>
<path clip-path="url(#clip500)" d="M2068.8 199.897 L2073.08 199.897 L2073.08 221.17 L2085.79 209.99 L2091.23 209.99 L2077.48 222.119 L2091.81 235.916 L2086.25 235.916 L2073.08 223.254 L2073.08 235.916 L2068.8 235.916 L2068.8 199.897 Z" fill="#000000" fill-rule="evenodd" fill-opacity="1" /><path clip-path="url(#clip500)" d="M2096.97 214.388 L2126.64 214.388 L2126.64 218.277 L2096.97 218.277 L2096.97 214.388 M2096.97 223.832 L2126.64 223.832 L2126.64 227.768 L2096.97 227.768 L2096.97 223.832 Z" fill="#000000" fill-rule="evenodd" fill-opacity="1" /><path clip-path="url(#clip500)" d="M2146.74 204.434 Q2143.12 204.434 2141.3 207.999 Q2139.49 211.541 2139.49 218.67 Q2139.49 225.777 2141.3 229.342 Q2143.12 232.883 2146.74 232.883 Q2150.37 232.883 2152.18 229.342 Q2154 225.777 2154 218.67 Q2154 211.541 2152.18 207.999 Q2150.37 204.434 2146.74 204.434 M2146.74 200.731 Q2152.55 200.731 2155.6 205.337 Q2158.68 209.92 2158.68 218.67 Q2158.68 227.397 2155.6 232.004 Q2152.55 236.587 2146.74 236.587 Q2140.93 236.587 2137.85 232.004 Q2134.79 227.397 2134.79 218.67 Q2134.79 209.92 2137.85 205.337 Q2140.93 200.731 2146.74 200.731 Z" fill="#000000" fill-rule="evenodd" fill-opacity="1" /><path clip-path="url(#clip500)" d="M2166.9 230.036 L2171.78 230.036 L2171.78 235.916 L2166.9 235.916 L2166.9 230.036 Z" fill="#000000" fill-rule="evenodd" fill-opacity="1" /><path clip-path="url(#clip500)" d="M2196.13 217.282 Q2199.49 217.999 2201.36 220.268 Q2203.26 222.536 2203.26 225.869 Q2203.26 230.985 2199.74 233.786 Q2196.23 236.587 2189.74 236.587 Q2187.57 236.587 2185.25 236.147 Q2182.96 235.731 2180.51 234.874 L2180.51 230.36 Q2182.45 231.494 2184.77 232.073 Q2187.08 232.652 2189.61 232.652 Q2194 232.652 2196.3 230.916 Q2198.61 229.18 2198.61 225.869 Q2198.61 222.814 2196.46 221.101 Q2194.33 219.365 2190.51 219.365 L2186.48 219.365 L2186.48 215.522 L2190.69 215.522 Q2194.14 215.522 2195.97 214.157 Q2197.8 212.768 2197.8 210.175 Q2197.8 207.513 2195.9 206.101 Q2194.03 204.666 2190.51 204.666 Q2188.59 204.666 2186.39 205.083 Q2184.19 205.499 2181.55 206.379 L2181.55 202.212 Q2184.21 201.471 2186.53 201.101 Q2188.86 200.731 2190.93 200.731 Q2196.25 200.731 2199.35 203.161 Q2202.45 205.569 2202.45 209.689 Q2202.45 212.559 2200.81 214.55 Q2199.17 216.518 2196.13 217.282 Z" fill="#000000" fill-rule="evenodd" fill-opacity="1" /><path clip-path="url(#clip500)" d="M2226.3 217.282 Q2229.65 217.999 2231.53 220.268 Q2233.42 222.536 2233.42 225.869 Q2233.42 230.985 2229.91 233.786 Q2226.39 236.587 2219.91 236.587 Q2217.73 236.587 2215.42 236.147 Q2213.12 235.731 2210.67 234.874 L2210.67 230.36 Q2212.61 231.494 2214.93 232.073 Q2217.24 232.652 2219.77 232.652 Q2224.17 232.652 2226.46 230.916 Q2228.77 229.18 2228.77 225.869 Q2228.77 222.814 2226.62 221.101 Q2224.49 219.365 2220.67 219.365 L2216.64 219.365 L2216.64 215.522 L2220.86 215.522 Q2224.3 215.522 2226.13 214.157 Q2227.96 212.768 2227.96 210.175 Q2227.96 207.513 2226.06 206.101 Q2224.19 204.666 2220.67 204.666 Q2218.75 204.666 2216.55 205.083 Q2214.35 205.499 2211.71 206.379 L2211.71 202.212 Q2214.37 201.471 2216.69 201.101 Q2219.03 200.731 2221.09 200.731 Q2226.41 200.731 2229.51 203.161 Q2232.61 205.569 2232.61 209.689 Q2232.61 212.559 2230.97 214.55 Q2229.33 216.518 2226.3 217.282 Z" fill="#000000" fill-rule="evenodd" fill-opacity="1" /><polyline clip-path="url(#clip500)" style="stroke:#e26f46; stroke-linecap:butt; stroke-linejoin:round; stroke-width:4; stroke-opacity:1; fill:none" points="
  1902.87,270.476 2045.09,270.476 
  "/>
<path clip-path="url(#clip500)" d="M1973.98 296.076 L1955.88 288.575 L1948.38 270.476 L1955.88 252.377 L1973.98 244.876 L1992.08 252.377 L1999.58 270.476 L1992.08 288.575 Z" fill="#e26f46" fill-rule="evenodd" fill-opacity="1" stroke="#000000" stroke-opacity="1" stroke-width="5.12"/>
<path clip-path="url(#clip500)" d="M2068.8 251.737 L2073.08 251.737 L2073.08 273.01 L2085.79 261.83 L2091.23 261.83 L2077.48 273.959 L2091.81 287.756 L2086.25 287.756 L2073.08 275.094 L2073.08 287.756 L2068.8 287.756 L2068.8 251.737 Z" fill="#000000" fill-rule="evenodd" fill-opacity="1" /><path clip-path="url(#clip500)" d="M2096.97 266.228 L2126.64 266.228 L2126.64 270.117 L2096.97 270.117 L2096.97 266.228 M2096.97 275.672 L2126.64 275.672 L2126.64 279.608 L2096.97 279.608 L2096.97 275.672 Z" fill="#000000" fill-rule="evenodd" fill-opacity="1" /><path clip-path="url(#clip500)" d="M2146.74 256.274 Q2143.12 256.274 2141.3 259.839 Q2139.49 263.381 2139.49 270.51 Q2139.49 277.617 2141.3 281.182 Q2143.12 284.723 2146.74 284.723 Q2150.37 284.723 2152.18 281.182 Q2154 277.617 2154 270.51 Q2154 263.381 2152.18 259.839 Q2150.37 256.274 2146.74 256.274 M2146.74 252.571 Q2152.55 252.571 2155.6 257.177 Q2158.68 261.76 2158.68 270.51 Q2158.68 279.237 2155.6 283.844 Q2152.55 288.427 2146.74 288.427 Q2140.93 288.427 2137.85 283.844 Q2134.79 279.237 2134.79 270.51 Q2134.79 261.76 2137.85 257.177 Q2140.93 252.571 2146.74 252.571 Z" fill="#000000" fill-rule="evenodd" fill-opacity="1" /><path clip-path="url(#clip500)" d="M2166.9 281.876 L2171.78 281.876 L2171.78 287.756 L2166.9 287.756 L2166.9 281.876 Z" fill="#000000" fill-rule="evenodd" fill-opacity="1" /><path clip-path="url(#clip500)" d="M2192.55 268.612 Q2189.4 268.612 2187.55 270.765 Q2185.72 272.918 2185.72 276.668 Q2185.72 280.395 2187.55 282.571 Q2189.4 284.723 2192.55 284.723 Q2195.69 284.723 2197.52 282.571 Q2199.37 280.395 2199.37 276.668 Q2199.37 272.918 2197.52 270.765 Q2195.69 268.612 2192.55 268.612 M2201.83 253.96 L2201.83 258.219 Q2200.07 257.386 2198.26 256.946 Q2196.48 256.506 2194.72 256.506 Q2190.09 256.506 2187.64 259.631 Q2185.21 262.756 2184.86 269.075 Q2186.23 267.061 2188.29 265.997 Q2190.35 264.909 2192.82 264.909 Q2198.03 264.909 2201.04 268.08 Q2204.07 271.228 2204.07 276.668 Q2204.07 281.992 2200.93 285.209 Q2197.78 288.427 2192.55 288.427 Q2186.55 288.427 2183.38 283.844 Q2180.21 279.237 2180.21 270.51 Q2180.21 262.316 2184.1 257.455 Q2187.99 252.571 2194.54 252.571 Q2196.3 252.571 2198.08 252.918 Q2199.88 253.265 2201.83 253.96 Z" fill="#000000" fill-rule="evenodd" fill-opacity="1" /><path clip-path="url(#clip500)" d="M2222.71 268.612 Q2219.56 268.612 2217.71 270.765 Q2215.88 272.918 2215.88 276.668 Q2215.88 280.395 2217.71 282.571 Q2219.56 284.723 2222.71 284.723 Q2225.86 284.723 2227.68 282.571 Q2229.54 280.395 2229.54 276.668 Q2229.54 272.918 2227.68 270.765 Q2225.86 268.612 2222.71 268.612 M2231.99 253.96 L2231.99 258.219 Q2230.23 257.386 2228.42 256.946 Q2226.64 256.506 2224.88 256.506 Q2220.25 256.506 2217.8 259.631 Q2215.37 262.756 2215.02 269.075 Q2216.39 267.061 2218.45 265.997 Q2220.51 264.909 2222.99 264.909 Q2228.19 264.909 2231.2 268.08 Q2234.24 271.228 2234.24 276.668 Q2234.24 281.992 2231.09 285.209 Q2227.94 288.427 2222.71 288.427 Q2216.71 288.427 2213.54 283.844 Q2210.37 279.237 2210.37 270.51 Q2210.37 262.316 2214.26 257.455 Q2218.15 252.571 2224.7 252.571 Q2226.46 252.571 2228.24 252.918 Q2230.05 253.265 2231.99 253.96 Z" fill="#000000" fill-rule="evenodd" fill-opacity="1" /><polyline clip-path="url(#clip500)" style="stroke:#3da44d; stroke-linecap:butt; stroke-linejoin:round; stroke-width:4; stroke-opacity:1; fill:none" points="
  1902.87,322.316 2045.09,322.316 
  "/>
<path clip-path="url(#clip500)" d="M1973.98 347.916 L1955.88 340.415 L1948.38 322.316 L1955.88 304.217 L1973.98 296.716 L1992.08 304.217 L1999.58 322.316 L1992.08 340.415 Z" fill="#3da44d" fill-rule="evenodd" fill-opacity="1" stroke="#000000" stroke-opacity="1" stroke-width="5.12"/>
<path clip-path="url(#clip500)" d="M2068.8 303.577 L2073.08 303.577 L2073.08 324.85 L2085.79 313.67 L2091.23 313.67 L2077.48 325.799 L2091.81 339.596 L2086.25 339.596 L2073.08 326.934 L2073.08 339.596 L2068.8 339.596 L2068.8 303.577 Z" fill="#000000" fill-rule="evenodd" fill-opacity="1" /><path clip-path="url(#clip500)" d="M2096.97 318.068 L2126.64 318.068 L2126.64 321.957 L2096.97 321.957 L2096.97 318.068 M2096.97 327.512 L2126.64 327.512 L2126.64 331.448 L2096.97 331.448 L2096.97 327.512 Z" fill="#000000" fill-rule="evenodd" fill-opacity="1" /><path clip-path="url(#clip500)" d="M2146.74 308.114 Q2143.12 308.114 2141.3 311.679 Q2139.49 315.221 2139.49 322.35 Q2139.49 329.457 2141.3 333.022 Q2143.12 336.563 2146.74 336.563 Q2150.37 336.563 2152.18 333.022 Q2154 329.457 2154 322.35 Q2154 315.221 2152.18 311.679 Q2150.37 308.114 2146.74 308.114 M2146.74 304.411 Q2152.55 304.411 2155.6 309.017 Q2158.68 313.6 2158.68 322.35 Q2158.68 331.077 2155.6 335.684 Q2152.55 340.267 2146.74 340.267 Q2140.93 340.267 2137.85 335.684 Q2134.79 331.077 2134.79 322.35 Q2134.79 313.6 2137.85 309.017 Q2140.93 304.411 2146.74 304.411 Z" fill="#000000" fill-rule="evenodd" fill-opacity="1" /><path clip-path="url(#clip500)" d="M2166.9 333.716 L2171.78 333.716 L2171.78 339.596 L2166.9 339.596 L2166.9 333.716 Z" fill="#000000" fill-rule="evenodd" fill-opacity="1" /><path clip-path="url(#clip500)" d="M2182.11 338.878 L2182.11 334.619 Q2183.86 335.452 2185.67 335.892 Q2187.48 336.332 2189.21 336.332 Q2193.84 336.332 2196.27 333.23 Q2198.73 330.105 2199.07 323.762 Q2197.73 325.753 2195.67 326.818 Q2193.61 327.883 2191.11 327.883 Q2185.93 327.883 2182.89 324.758 Q2179.88 321.61 2179.88 316.17 Q2179.88 310.846 2183.03 307.628 Q2186.18 304.411 2191.41 304.411 Q2197.41 304.411 2200.55 309.017 Q2203.73 313.6 2203.73 322.35 Q2203.73 330.522 2199.84 335.406 Q2195.97 340.267 2189.42 340.267 Q2187.66 340.267 2185.86 339.92 Q2184.05 339.573 2182.11 338.878 M2191.41 324.225 Q2194.56 324.225 2196.39 322.073 Q2198.24 319.92 2198.24 316.17 Q2198.24 312.443 2196.39 310.29 Q2194.56 308.114 2191.41 308.114 Q2188.26 308.114 2186.41 310.29 Q2184.58 312.443 2184.58 316.17 Q2184.58 319.92 2186.41 322.073 Q2188.26 324.225 2191.41 324.225 Z" fill="#000000" fill-rule="evenodd" fill-opacity="1" /><path clip-path="url(#clip500)" d="M2222.13 308.114 Q2218.52 308.114 2216.69 311.679 Q2214.88 315.221 2214.88 322.35 Q2214.88 329.457 2216.69 333.022 Q2218.52 336.563 2222.13 336.563 Q2225.76 336.563 2227.57 333.022 Q2229.4 329.457 2229.4 322.35 Q2229.4 315.221 2227.57 311.679 Q2225.76 308.114 2222.13 308.114 M2222.13 304.411 Q2227.94 304.411 2230.99 309.017 Q2234.07 313.6 2234.07 322.35 Q2234.07 331.077 2230.99 335.684 Q2227.94 340.267 2222.13 340.267 Q2216.32 340.267 2213.24 335.684 Q2210.18 331.077 2210.18 322.35 Q2210.18 313.6 2213.24 309.017 Q2216.32 304.411 2222.13 304.411 Z" fill="#000000" fill-rule="evenodd" fill-opacity="1" /></svg>
