<?xml version="1.0" encoding="utf-8"?>
<svg xmlns="http://www.w3.org/2000/svg" xmlns:xlink="http://www.w3.org/1999/xlink" width="600" height="400" viewBox="0 0 2400 1600">
<defs>
  <clipPath id="clip530">
    <rect x="0" y="0" width="2400" height="1600"/>
  </clipPath>
</defs>
<path clip-path="url(#clip530)" d="
M0 1600 L2400 1600 L2400 0 L0 0  Z
  " fill="#ffffff" fill-rule="evenodd" fill-opacity="1"/>
<defs>
  <clipPath id="clip531">
    <rect x="480" y="0" width="1681" height="1600"/>
  </clipPath>
</defs>
<path clip-path="url(#clip530)" d="
M249.542 1423.18 L2352.76 1423.18 L2352.76 123.472 L249.542 123.472  Z
  " fill="#ffffff" fill-rule="evenodd" fill-opacity="1"/>
<defs>
  <clipPath id="clip532">
    <rect x="249" y="123" width="2104" height="1301"/>
  </clipPath>
</defs>
<polyline clip-path="url(#clip532)" style="stroke:#000000; stroke-linecap:butt; stroke-linejoin:round; stroke-width:2; stroke-opacity:0.1; fill:none" points="
  258.191,1423.18 258.191,123.472 
  "/>
<polyline clip-path="url(#clip532)" style="stroke:#000000; stroke-linecap:butt; stroke-linejoin:round; stroke-width:2; stroke-opacity:0.1; fill:none" points="
  766.951,1423.18 766.951,123.472 
  "/>
<polyline clip-path="url(#clip532)" style="stroke:#000000; stroke-linecap:butt; stroke-linejoin:round; stroke-width:2; stroke-opacity:0.1; fill:none" points="
  1275.71,1423.18 1275.71,123.472 
  "/>
<polyline clip-path="url(#clip532)" style="stroke:#000000; stroke-linecap:butt; stroke-linejoin:round; stroke-width:2; stroke-opacity:0.1; fill:none" points="
  1784.47,1423.18 1784.47,123.472 
  "/>
<polyline clip-path="url(#clip532)" style="stroke:#000000; stroke-linecap:butt; stroke-linejoin:round; stroke-width:2; stroke-opacity:0.1; fill:none" points="
  2293.23,1423.18 2293.23,123.472 
  "/>
<polyline clip-path="url(#clip530)" style="stroke:#000000; stroke-linecap:butt; stroke-linejoin:round; stroke-width:4; stroke-opacity:1; fill:none" points="
  249.542,1423.18 2352.76,1423.18 
  "/>
<polyline clip-path="url(#clip530)" style="stroke:#000000; stroke-linecap:butt; stroke-linejoin:round; stroke-width:4; stroke-opacity:1; fill:none" points="
  258.191,1423.18 258.191,1404.28 
  "/>
<polyline clip-path="url(#clip530)" style="stroke:#000000; stroke-linecap:butt; stroke-linejoin:round; stroke-width:4; stroke-opacity:1; fill:none" points="
  766.951,1423.18 766.951,1404.28 
  "/>
<polyline clip-path="url(#clip530)" style="stroke:#000000; stroke-linecap:butt; stroke-linejoin:round; stroke-width:4; stroke-opacity:1; fill:none" points="
  1275.71,1423.18 1275.71,1404.28 
  "/>
<polyline clip-path="url(#clip530)" style="stroke:#000000; stroke-linecap:butt; stroke-linejoin:round; stroke-width:4; stroke-opacity:1; fill:none" points="
  1784.47,1423.18 1784.47,1404.28 
  "/>
<polyline clip-path="url(#clip530)" style="stroke:#000000; stroke-linecap:butt; stroke-linejoin:round; stroke-width:4; stroke-opacity:1; fill:none" points="
  2293.23,1423.18 2293.23,1404.28 
  "/>
<path clip-path="url(#clip530)" d="M258.191 1454.1 Q254.58 1454.1 252.751 1457.66 Q250.946 1461.2 250.946 1468.33 Q250.946 1475.44 252.751 1479.01 Q254.58 1482.55 258.191 1482.55 Q261.825 1482.55 263.631 1479.01 Q265.459 1475.44 265.459 1468.33 Q265.459 1461.2 263.631 1457.66 Q261.825 1454.1 258.191 1454.1 M258.191 1450.39 Q264.001 1450.39 267.057 1455 Q270.135 1459.58 270.135 1468.33 Q270.135 1477.06 267.057 1481.67 Q264.001 1486.25 258.191 1486.25 Q252.381 1486.25 249.302 1481.67 Q246.247 1477.06 246.247 1468.33 Q246.247 1459.58 249.302 1455 Q252.381 1450.39 258.191 1450.39 Z" fill="#000000" fill-rule="evenodd" fill-opacity="1" /><path clip-path="url(#clip530)" d="M730.643 1481.64 L746.963 1481.64 L746.963 1485.58 L725.018 1485.58 L725.018 1481.64 Q727.68 1478.89 732.264 1474.26 Q736.87 1469.61 738.051 1468.27 Q740.296 1465.74 741.176 1464.01 Q742.078 1462.25 742.078 1460.56 Q742.078 1457.8 740.134 1456.07 Q738.213 1454.33 735.111 1454.33 Q732.912 1454.33 730.458 1455.09 Q728.028 1455.86 725.25 1457.41 L725.25 1452.69 Q728.074 1451.55 730.528 1450.97 Q732.981 1450.39 735.018 1450.39 Q740.389 1450.39 743.583 1453.08 Q746.777 1455.77 746.777 1460.26 Q746.777 1462.39 745.967 1464.31 Q745.18 1466.2 743.074 1468.8 Q742.495 1469.47 739.393 1472.69 Q736.291 1475.88 730.643 1481.64 Z" fill="#000000" fill-rule="evenodd" fill-opacity="1" /><path clip-path="url(#clip530)" d="M766.777 1454.1 Q763.166 1454.1 761.338 1457.66 Q759.532 1461.2 759.532 1468.33 Q759.532 1475.44 761.338 1479.01 Q763.166 1482.55 766.777 1482.55 Q770.412 1482.55 772.217 1479.01 Q774.046 1475.44 774.046 1468.33 Q774.046 1461.2 772.217 1457.66 Q770.412 1454.1 766.777 1454.1 M766.777 1450.39 Q772.588 1450.39 775.643 1455 Q778.722 1459.58 778.722 1468.33 Q778.722 1477.06 775.643 1481.67 Q772.588 1486.25 766.777 1486.25 Q760.967 1486.25 757.889 1481.67 Q754.833 1477.06 754.833 1468.33 Q754.833 1459.58 757.889 1455 Q760.967 1450.39 766.777 1450.39 Z" fill="#000000" fill-rule="evenodd" fill-opacity="1" /><path clip-path="url(#clip530)" d="M796.939 1454.1 Q793.328 1454.1 791.499 1457.66 Q789.694 1461.2 789.694 1468.33 Q789.694 1475.44 791.499 1479.01 Q793.328 1482.55 796.939 1482.55 Q800.573 1482.55 802.379 1479.01 Q804.208 1475.44 804.208 1468.33 Q804.208 1461.2 802.379 1457.66 Q800.573 1454.1 796.939 1454.1 M796.939 1450.39 Q802.749 1450.39 805.805 1455 Q808.884 1459.58 808.884 1468.33 Q808.884 1477.06 805.805 1481.67 Q802.749 1486.25 796.939 1486.25 Q791.129 1486.25 788.05 1481.67 Q784.995 1477.06 784.995 1468.33 Q784.995 1459.58 788.05 1455 Q791.129 1450.39 796.939 1450.39 Z" fill="#000000" fill-rule="evenodd" fill-opacity="1" /><path clip-path="url(#clip530)" d="M1248.8 1455.09 L1237 1473.54 L1248.8 1473.54 L1248.8 1455.09 M1247.57 1451.02 L1253.45 1451.02 L1253.45 1473.54 L1258.38 1473.54 L1258.38 1477.43 L1253.45 1477.43 L1253.45 1485.58 L1248.8 1485.58 L1248.8 1477.43 L1233.2 1477.43 L1233.2 1472.92 L1247.57 1451.02 Z" fill="#000000" fill-rule="evenodd" fill-opacity="1" /><path clip-path="url(#clip530)" d="M1276.12 1454.1 Q1272.5 1454.1 1270.68 1457.66 Q1268.87 1461.2 1268.87 1468.33 Q1268.87 1475.44 1270.68 1479.01 Q1272.5 1482.55 1276.12 1482.55 Q1279.75 1482.55 1281.56 1479.01 Q1283.38 1475.44 1283.38 1468.33 Q1283.38 1461.2 1281.56 1457.66 Q1279.75 1454.1 1276.12 1454.1 M1276.12 1450.39 Q1281.93 1450.39 1284.98 1455 Q1288.06 1459.58 1288.06 1468.33 Q1288.06 1477.06 1284.98 1481.67 Q1281.93 1486.25 1276.12 1486.25 Q1270.31 1486.25 1267.23 1481.67 Q1264.17 1477.06 1264.17 1468.33 Q1264.17 1459.58 1267.23 1455 Q1270.31 1450.39 1276.12 1450.39 Z" fill="#000000" fill-rule="evenodd" fill-opacity="1" /><path clip-path="url(#clip530)" d="M1306.28 1454.1 Q1302.67 1454.1 1300.84 1457.66 Q1299.03 1461.2 1299.03 1468.33 Q1299.03 1475.44 1300.84 1479.01 Q1302.67 1482.55 1306.28 1482.55 Q1309.91 1482.55 1311.72 1479.01 Q1313.55 1475.44 1313.55 1468.33 Q1313.55 1461.2 1311.72 1457.66 Q1309.91 1454.1 1306.28 1454.1 M1306.28 1450.39 Q1312.09 1450.39 1315.14 1455 Q1318.22 1459.58 1318.22 1468.33 Q1318.22 1477.06 1315.14 1481.67 Q1312.09 1486.25 1306.28 1486.25 Q1300.47 1486.25 1297.39 1481.67 Q1294.33 1477.06 1294.33 1468.33 Q1294.33 1459.58 1297.39 1455 Q1300.47 1450.39 1306.28 1450.39 Z" fill="#000000" fill-rule="evenodd" fill-opacity="1" /><path clip-path="url(#clip530)" d="M1754.8 1466.44 Q1751.65 1466.44 1749.8 1468.59 Q1747.97 1470.74 1747.97 1474.49 Q1747.97 1478.22 1749.8 1480.39 Q1751.65 1482.55 1754.8 1482.55 Q1757.94 1482.55 1759.77 1480.39 Q1761.62 1478.22 1761.62 1474.49 Q1761.62 1470.74 1759.77 1468.59 Q1757.94 1466.44 1754.8 1466.44 M1764.08 1451.78 L1764.08 1456.04 Q1762.32 1455.21 1760.51 1454.77 Q1758.73 1454.33 1756.97 1454.33 Q1752.34 1454.33 1749.89 1457.45 Q1747.46 1460.58 1747.11 1466.9 Q1748.48 1464.89 1750.54 1463.82 Q1752.6 1462.73 1755.07 1462.73 Q1760.28 1462.73 1763.29 1465.9 Q1766.32 1469.05 1766.32 1474.49 Q1766.32 1479.82 1763.17 1483.03 Q1760.03 1486.25 1754.8 1486.25 Q1748.8 1486.25 1745.63 1481.67 Q1742.46 1477.06 1742.46 1468.33 Q1742.46 1460.14 1746.35 1455.28 Q1750.24 1450.39 1756.79 1450.39 Q1758.55 1450.39 1760.33 1450.74 Q1762.13 1451.09 1764.08 1451.78 Z" fill="#000000" fill-rule="evenodd" fill-opacity="1" /><path clip-path="url(#clip530)" d="M1784.38 1454.1 Q1780.77 1454.1 1778.94 1457.66 Q1777.13 1461.2 1777.13 1468.33 Q1777.13 1475.44 1778.94 1479.01 Q1780.77 1482.55 1784.38 1482.55 Q1788.01 1482.55 1789.82 1479.01 Q1791.65 1475.44 1791.65 1468.33 Q1791.65 1461.2 1789.82 1457.66 Q1788.01 1454.1 1784.38 1454.1 M1784.38 1450.39 Q1790.19 1450.39 1793.24 1455 Q1796.32 1459.58 1796.32 1468.33 Q1796.32 1477.06 1793.24 1481.67 Q1790.19 1486.25 1784.38 1486.25 Q1778.57 1486.25 1775.49 1481.67 Q1772.43 1477.06 1772.43 1468.33 Q1772.43 1459.58 1775.49 1455 Q1778.57 1450.39 1784.38 1450.39 Z" fill="#000000" fill-rule="evenodd" fill-opacity="1" /><path clip-path="url(#clip530)" d="M1814.54 1454.1 Q1810.93 1454.1 1809.1 1457.66 Q1807.29 1461.2 1807.29 1468.33 Q1807.29 1475.44 1809.1 1479.01 Q1810.93 1482.55 1814.54 1482.55 Q1818.17 1482.55 1819.98 1479.01 Q1821.81 1475.44 1821.81 1468.33 Q1821.81 1461.2 1819.98 1457.66 Q1818.17 1454.1 1814.54 1454.1 M1814.54 1450.39 Q1820.35 1450.39 1823.41 1455 Q1826.48 1459.58 1826.48 1468.33 Q1826.48 1477.06 1823.41 1481.67 Q1820.35 1486.25 1814.54 1486.25 Q1808.73 1486.25 1805.65 1481.67 Q1802.6 1477.06 1802.6 1468.33 Q1802.6 1459.58 1805.65 1455 Q1808.73 1450.39 1814.54 1450.39 Z" fill="#000000" fill-rule="evenodd" fill-opacity="1" /><path clip-path="url(#clip530)" d="M2263.02 1469.17 Q2259.69 1469.17 2257.77 1470.95 Q2255.87 1472.73 2255.87 1475.86 Q2255.87 1478.98 2257.77 1480.77 Q2259.69 1482.55 2263.02 1482.55 Q2266.36 1482.55 2268.28 1480.77 Q2270.2 1478.96 2270.2 1475.86 Q2270.2 1472.73 2268.28 1470.95 Q2266.38 1469.17 2263.02 1469.17 M2258.35 1467.18 Q2255.34 1466.44 2253.65 1464.38 Q2251.98 1462.32 2251.98 1459.35 Q2251.98 1455.21 2254.92 1452.8 Q2257.88 1450.39 2263.02 1450.39 Q2268.18 1450.39 2271.12 1452.8 Q2274.06 1455.21 2274.06 1459.35 Q2274.06 1462.32 2272.37 1464.38 Q2270.71 1466.44 2267.72 1467.18 Q2271.1 1467.96 2272.98 1470.26 Q2274.87 1472.55 2274.87 1475.86 Q2274.87 1480.88 2271.8 1483.57 Q2268.74 1486.25 2263.02 1486.25 Q2257.31 1486.25 2254.23 1483.57 Q2251.17 1480.88 2251.17 1475.86 Q2251.17 1472.55 2253.07 1470.26 Q2254.97 1467.96 2258.35 1467.18 M2256.63 1459.79 Q2256.63 1462.48 2258.3 1463.98 Q2259.99 1465.49 2263.02 1465.49 Q2266.03 1465.49 2267.72 1463.98 Q2269.43 1462.48 2269.43 1459.79 Q2269.43 1457.11 2267.72 1455.6 Q2266.03 1454.1 2263.02 1454.1 Q2259.99 1454.1 2258.3 1455.6 Q2256.63 1457.11 2256.63 1459.79 Z" fill="#000000" fill-rule="evenodd" fill-opacity="1" /><path clip-path="url(#clip530)" d="M2293.18 1454.1 Q2289.57 1454.1 2287.74 1457.66 Q2285.94 1461.2 2285.94 1468.33 Q2285.94 1475.44 2287.74 1479.01 Q2289.57 1482.55 2293.18 1482.55 Q2296.82 1482.55 2298.62 1479.01 Q2300.45 1475.44 2300.45 1468.33 Q2300.45 1461.2 2298.62 1457.66 Q2296.82 1454.1 2293.18 1454.1 M2293.18 1450.39 Q2298.99 1450.39 2302.05 1455 Q2305.13 1459.58 2305.13 1468.33 Q2305.13 1477.06 2302.05 1481.67 Q2298.99 1486.25 2293.18 1486.25 Q2287.37 1486.25 2284.3 1481.67 Q2281.24 1477.06 2281.24 1468.33 Q2281.24 1459.58 2284.3 1455 Q2287.37 1450.39 2293.18 1450.39 Z" fill="#000000" fill-rule="evenodd" fill-opacity="1" /><path clip-path="url(#clip530)" d="M2323.35 1454.1 Q2319.74 1454.1 2317.91 1457.66 Q2316.1 1461.2 2316.1 1468.33 Q2316.1 1475.44 2317.91 1479.01 Q2319.74 1482.55 2323.35 1482.55 Q2326.98 1482.55 2328.79 1479.01 Q2330.62 1475.44 2330.62 1468.33 Q2330.62 1461.2 2328.79 1457.66 Q2326.98 1454.1 2323.35 1454.1 M2323.35 1450.39 Q2329.16 1450.39 2332.21 1455 Q2335.29 1459.58 2335.29 1468.33 Q2335.29 1477.06 2332.21 1481.67 Q2329.16 1486.25 2323.35 1486.25 Q2317.54 1486.25 2314.46 1481.67 Q2311.4 1477.06 2311.4 1468.33 Q2311.4 1459.58 2314.46 1455 Q2317.54 1450.39 2323.35 1450.39 Z" fill="#000000" fill-rule="evenodd" fill-opacity="1" /><path clip-path="url(#clip530)" d="M1316.08 1546.53 L1316.08 1568.04 L1310.22 1568.04 L1310.22 1546.72 Q1310.22 1541.66 1308.25 1539.14 Q1306.27 1536.63 1302.33 1536.63 Q1297.58 1536.63 1294.85 1539.65 Q1292.11 1542.68 1292.11 1547.9 L1292.11 1568.04 L1286.22 1568.04 L1286.22 1532.4 L1292.11 1532.4 L1292.11 1537.93 Q1294.21 1534.72 1297.04 1533.13 Q1299.91 1531.54 1303.63 1531.54 Q1309.77 1531.54 1312.93 1535.36 Q1316.08 1539.14 1316.08 1546.53 Z" fill="#000000" fill-rule="evenodd" fill-opacity="1" /><polyline clip-path="url(#clip532)" style="stroke:#000000; stroke-linecap:butt; stroke-linejoin:round; stroke-width:2; stroke-opacity:0.1; fill:none" points="
  249.542,1270.09 2352.76,1270.09 
  "/>
<polyline clip-path="url(#clip532)" style="stroke:#000000; stroke-linecap:butt; stroke-linejoin:round; stroke-width:2; stroke-opacity:0.1; fill:none" points="
  249.542,1084.72 2352.76,1084.72 
  "/>
<polyline clip-path="url(#clip532)" style="stroke:#000000; stroke-linecap:butt; stroke-linejoin:round; stroke-width:2; stroke-opacity:0.1; fill:none" points="
  249.542,899.347 2352.76,899.347 
  "/>
<polyline clip-path="url(#clip532)" style="stroke:#000000; stroke-linecap:butt; stroke-linejoin:round; stroke-width:2; stroke-opacity:0.1; fill:none" points="
  249.542,713.974 2352.76,713.974 
  "/>
<polyline clip-path="url(#clip532)" style="stroke:#000000; stroke-linecap:butt; stroke-linejoin:round; stroke-width:2; stroke-opacity:0.1; fill:none" points="
  249.542,528.602 2352.76,528.602 
  "/>
<polyline clip-path="url(#clip532)" style="stroke:#000000; stroke-linecap:butt; stroke-linejoin:round; stroke-width:2; stroke-opacity:0.1; fill:none" points="
  249.542,343.229 2352.76,343.229 
  "/>
<polyline clip-path="url(#clip532)" style="stroke:#000000; stroke-linecap:butt; stroke-linejoin:round; stroke-width:2; stroke-opacity:0.1; fill:none" points="
  249.542,157.857 2352.76,157.857 
  "/>
<polyline clip-path="url(#clip530)" style="stroke:#000000; stroke-linecap:butt; stroke-linejoin:round; stroke-width:4; stroke-opacity:1; fill:none" points="
  249.542,1423.18 249.542,123.472 
  "/>
<polyline clip-path="url(#clip530)" style="stroke:#000000; stroke-linecap:butt; stroke-linejoin:round; stroke-width:4; stroke-opacity:1; fill:none" points="
  249.542,1270.09 268.44,1270.09 
  "/>
<polyline clip-path="url(#clip530)" style="stroke:#000000; stroke-linecap:butt; stroke-linejoin:round; stroke-width:4; stroke-opacity:1; fill:none" points="
  249.542,1084.72 268.44,1084.72 
  "/>
<polyline clip-path="url(#clip530)" style="stroke:#000000; stroke-linecap:butt; stroke-linejoin:round; stroke-width:4; stroke-opacity:1; fill:none" points="
  249.542,899.347 268.44,899.347 
  "/>
<polyline clip-path="url(#clip530)" style="stroke:#000000; stroke-linecap:butt; stroke-linejoin:round; stroke-width:4; stroke-opacity:1; fill:none" points="
  249.542,713.974 268.44,713.974 
  "/>
<polyline clip-path="url(#clip530)" style="stroke:#000000; stroke-linecap:butt; stroke-linejoin:round; stroke-width:4; stroke-opacity:1; fill:none" points="
  249.542,528.602 268.44,528.602 
  "/>
<polyline clip-path="url(#clip530)" style="stroke:#000000; stroke-linecap:butt; stroke-linejoin:round; stroke-width:4; stroke-opacity:1; fill:none" points="
  249.542,343.229 268.44,343.229 
  "/>
<polyline clip-path="url(#clip530)" style="stroke:#000000; stroke-linecap:butt; stroke-linejoin:round; stroke-width:4; stroke-opacity:1; fill:none" points="
  249.542,157.857 268.44,157.857 
  "/>
<path clip-path="url(#clip530)" d="M127.2 1255.89 Q123.589 1255.89 121.76 1259.46 Q119.955 1263 119.955 1270.13 Q119.955 1277.23 121.76 1280.8 Q123.589 1284.34 127.2 1284.34 Q130.834 1284.34 132.64 1280.8 Q134.468 1277.23 134.468 1270.13 Q134.468 1263 132.64 1259.46 Q130.834 1255.89 127.2 1255.89 M127.2 1252.19 Q133.01 1252.19 136.066 1256.79 Q139.144 1261.38 139.144 1270.13 Q139.144 1278.85 136.066 1283.46 Q133.01 1288.04 127.2 1288.04 Q121.39 1288.04 118.311 1283.46 Q115.256 1278.85 115.256 1270.13 Q115.256 1261.38 118.311 1256.79 Q121.39 1252.19 127.2 1252.19 Z" fill="#000000" fill-rule="evenodd" fill-opacity="1" /><path clip-path="url(#clip530)" d="M147.362 1281.49 L152.246 1281.49 L152.246 1287.37 L147.362 1287.37 L147.362 1281.49 Z" fill="#000000" fill-rule="evenodd" fill-opacity="1" /><path clip-path="url(#clip530)" d="M163.241 1283.44 L170.88 1283.44 L170.88 1257.07 L162.57 1258.74 L162.57 1254.48 L170.834 1252.81 L175.51 1252.81 L175.51 1283.44 L183.149 1283.44 L183.149 1287.37 L163.241 1287.37 L163.241 1283.44 Z" fill="#000000" fill-rule="evenodd" fill-opacity="1" /><path clip-path="url(#clip530)" d="M192.639 1252.81 L210.996 1252.81 L210.996 1256.75 L196.922 1256.75 L196.922 1265.22 Q197.94 1264.87 198.959 1264.71 Q199.977 1264.53 200.996 1264.53 Q206.783 1264.53 210.162 1267.7 Q213.542 1270.87 213.542 1276.28 Q213.542 1281.86 210.07 1284.96 Q206.598 1288.04 200.278 1288.04 Q198.102 1288.04 195.834 1287.67 Q193.588 1287.3 191.181 1286.56 L191.181 1281.86 Q193.264 1283 195.487 1283.55 Q197.709 1284.11 200.186 1284.11 Q204.19 1284.11 206.528 1282 Q208.866 1279.9 208.866 1276.28 Q208.866 1272.67 206.528 1270.57 Q204.19 1268.46 200.186 1268.46 Q198.311 1268.46 196.436 1268.88 Q194.584 1269.29 192.639 1270.17 L192.639 1252.81 Z" fill="#000000" fill-rule="evenodd" fill-opacity="1" /><path clip-path="url(#clip530)" d="M126.205 1070.52 Q122.593 1070.52 120.765 1074.08 Q118.959 1077.62 118.959 1084.75 Q118.959 1091.86 120.765 1095.43 Q122.593 1098.97 126.205 1098.97 Q129.839 1098.97 131.644 1095.43 Q133.473 1091.86 133.473 1084.75 Q133.473 1077.62 131.644 1074.08 Q129.839 1070.52 126.205 1070.52 M126.205 1066.81 Q132.015 1066.81 135.07 1071.42 Q138.149 1076 138.149 1084.75 Q138.149 1093.48 135.07 1098.09 Q132.015 1102.67 126.205 1102.67 Q120.394 1102.67 117.316 1098.09 Q114.26 1093.48 114.26 1084.75 Q114.26 1076 117.316 1071.42 Q120.394 1066.81 126.205 1066.81 Z" fill="#000000" fill-rule="evenodd" fill-opacity="1" /><path clip-path="url(#clip530)" d="M146.366 1096.12 L151.251 1096.12 L151.251 1102 L146.366 1102 L146.366 1096.12 Z" fill="#000000" fill-rule="evenodd" fill-opacity="1" /><path clip-path="url(#clip530)" d="M165.464 1098.06 L181.783 1098.06 L181.783 1102 L159.839 1102 L159.839 1098.06 Q162.501 1095.31 167.084 1090.68 Q171.69 1086.03 172.871 1084.68 Q175.116 1082.16 175.996 1080.43 Q176.899 1078.67 176.899 1076.98 Q176.899 1074.22 174.954 1072.49 Q173.033 1070.75 169.931 1070.75 Q167.732 1070.75 165.278 1071.51 Q162.848 1072.28 160.07 1073.83 L160.07 1069.11 Q162.894 1067.97 165.348 1067.39 Q167.802 1066.81 169.839 1066.81 Q175.209 1066.81 178.403 1069.5 Q181.598 1072.18 181.598 1076.68 Q181.598 1078.81 180.788 1080.73 Q180.001 1082.62 177.894 1085.22 Q177.315 1085.89 174.214 1089.11 Q171.112 1092.3 165.464 1098.06 Z" fill="#000000" fill-rule="evenodd" fill-opacity="1" /><path clip-path="url(#clip530)" d="M201.598 1070.52 Q197.987 1070.52 196.158 1074.08 Q194.352 1077.62 194.352 1084.75 Q194.352 1091.86 196.158 1095.43 Q197.987 1098.97 201.598 1098.97 Q205.232 1098.97 207.037 1095.43 Q208.866 1091.86 208.866 1084.75 Q208.866 1077.62 207.037 1074.08 Q205.232 1070.52 201.598 1070.52 M201.598 1066.81 Q207.408 1066.81 210.463 1071.42 Q213.542 1076 213.542 1084.75 Q213.542 1093.48 210.463 1098.09 Q207.408 1102.67 201.598 1102.67 Q195.787 1102.67 192.709 1098.09 Q189.653 1093.48 189.653 1084.75 Q189.653 1076 192.709 1071.42 Q195.787 1066.81 201.598 1066.81 Z" fill="#000000" fill-rule="evenodd" fill-opacity="1" /><path clip-path="url(#clip530)" d="M127.2 885.146 Q123.589 885.146 121.76 888.71 Q119.955 892.252 119.955 899.382 Q119.955 906.488 121.76 910.053 Q123.589 913.595 127.2 913.595 Q130.834 913.595 132.64 910.053 Q134.468 906.488 134.468 899.382 Q134.468 892.252 132.64 888.71 Q130.834 885.146 127.2 885.146 M127.2 881.442 Q133.01 881.442 136.066 886.048 Q139.144 890.632 139.144 899.382 Q139.144 908.109 136.066 912.715 Q133.01 917.298 127.2 917.298 Q121.39 917.298 118.311 912.715 Q115.256 908.109 115.256 899.382 Q115.256 890.632 118.311 886.048 Q121.39 881.442 127.2 881.442 Z" fill="#000000" fill-rule="evenodd" fill-opacity="1" /><path clip-path="url(#clip530)" d="M147.362 910.747 L152.246 910.747 L152.246 916.627 L147.362 916.627 L147.362 910.747 Z" fill="#000000" fill-rule="evenodd" fill-opacity="1" /><path clip-path="url(#clip530)" d="M166.459 912.692 L182.778 912.692 L182.778 916.627 L160.834 916.627 L160.834 912.692 Q163.496 909.937 168.079 905.308 Q172.686 900.655 173.866 899.312 Q176.112 896.789 176.991 895.053 Q177.894 893.294 177.894 891.604 Q177.894 888.849 175.95 887.113 Q174.028 885.377 170.927 885.377 Q168.727 885.377 166.274 886.141 Q163.843 886.905 161.065 888.456 L161.065 883.734 Q163.89 882.599 166.343 882.021 Q168.797 881.442 170.834 881.442 Q176.204 881.442 179.399 884.127 Q182.593 886.812 182.593 891.303 Q182.593 893.433 181.783 895.354 Q180.996 897.252 178.889 899.845 Q178.311 900.516 175.209 903.734 Q172.107 906.928 166.459 912.692 Z" fill="#000000" fill-rule="evenodd" fill-opacity="1" /><path clip-path="url(#clip530)" d="M192.639 882.067 L210.996 882.067 L210.996 886.002 L196.922 886.002 L196.922 894.474 Q197.94 894.127 198.959 893.965 Q199.977 893.78 200.996 893.78 Q206.783 893.78 210.162 896.951 Q213.542 900.122 213.542 905.539 Q213.542 911.118 210.07 914.22 Q206.598 917.298 200.278 917.298 Q198.102 917.298 195.834 916.928 Q193.588 916.558 191.181 915.817 L191.181 911.118 Q193.264 912.252 195.487 912.808 Q197.709 913.363 200.186 913.363 Q204.19 913.363 206.528 911.257 Q208.866 909.15 208.866 905.539 Q208.866 901.928 206.528 899.822 Q204.19 897.715 200.186 897.715 Q198.311 897.715 196.436 898.132 Q194.584 898.548 192.639 899.428 L192.639 882.067 Z" fill="#000000" fill-rule="evenodd" fill-opacity="1" /><path clip-path="url(#clip530)" d="M126.205 699.773 Q122.593 699.773 120.765 703.338 Q118.959 706.88 118.959 714.009 Q118.959 721.116 120.765 724.68 Q122.593 728.222 126.205 728.222 Q129.839 728.222 131.644 724.68 Q133.473 721.116 133.473 714.009 Q133.473 706.88 131.644 703.338 Q129.839 699.773 126.205 699.773 M126.205 696.069 Q132.015 696.069 135.07 700.676 Q138.149 705.259 138.149 714.009 Q138.149 722.736 135.07 727.342 Q132.015 731.926 126.205 731.926 Q120.394 731.926 117.316 727.342 Q114.26 722.736 114.26 714.009 Q114.26 705.259 117.316 700.676 Q120.394 696.069 126.205 696.069 Z" fill="#000000" fill-rule="evenodd" fill-opacity="1" /><path clip-path="url(#clip530)" d="M146.366 725.375 L151.251 725.375 L151.251 731.254 L146.366 731.254 L146.366 725.375 Z" fill="#000000" fill-rule="evenodd" fill-opacity="1" /><path clip-path="url(#clip530)" d="M175.602 712.62 Q178.959 713.338 180.834 715.606 Q182.732 717.875 182.732 721.208 Q182.732 726.324 179.214 729.125 Q175.695 731.926 169.214 731.926 Q167.038 731.926 164.723 731.486 Q162.431 731.069 159.978 730.213 L159.978 725.699 Q161.922 726.833 164.237 727.412 Q166.552 727.991 169.075 727.991 Q173.473 727.991 175.764 726.254 Q178.079 724.518 178.079 721.208 Q178.079 718.153 175.926 716.44 Q173.797 714.704 169.977 714.704 L165.95 714.704 L165.95 710.861 L170.163 710.861 Q173.612 710.861 175.44 709.495 Q177.269 708.106 177.269 705.514 Q177.269 702.852 175.371 701.44 Q173.496 700.005 169.977 700.005 Q168.056 700.005 165.857 700.421 Q163.658 700.838 161.019 701.718 L161.019 697.551 Q163.681 696.81 165.996 696.44 Q168.334 696.069 170.394 696.069 Q175.718 696.069 178.82 698.5 Q181.922 700.907 181.922 705.028 Q181.922 707.898 180.278 709.889 Q178.635 711.856 175.602 712.62 Z" fill="#000000" fill-rule="evenodd" fill-opacity="1" /><path clip-path="url(#clip530)" d="M201.598 699.773 Q197.987 699.773 196.158 703.338 Q194.352 706.88 194.352 714.009 Q194.352 721.116 196.158 724.68 Q197.987 728.222 201.598 728.222 Q205.232 728.222 207.037 724.68 Q208.866 721.116 208.866 714.009 Q208.866 706.88 207.037 703.338 Q205.232 699.773 201.598 699.773 M201.598 696.069 Q207.408 696.069 210.463 700.676 Q213.542 705.259 213.542 714.009 Q213.542 722.736 210.463 727.342 Q207.408 731.926 201.598 731.926 Q195.787 731.926 192.709 727.342 Q189.653 722.736 189.653 714.009 Q189.653 705.259 192.709 700.676 Q195.787 696.069 201.598 696.069 Z" fill="#000000" fill-rule="evenodd" fill-opacity="1" /><path clip-path="url(#clip530)" d="M127.2 514.4 Q123.589 514.4 121.76 517.965 Q119.955 521.507 119.955 528.636 Q119.955 535.743 121.76 539.308 Q123.589 542.849 127.2 542.849 Q130.834 542.849 132.64 539.308 Q134.468 535.743 134.468 528.636 Q134.468 521.507 132.64 517.965 Q130.834 514.4 127.2 514.4 M127.2 510.697 Q133.01 510.697 136.066 515.303 Q139.144 519.887 139.144 528.636 Q139.144 537.363 136.066 541.97 Q133.01 546.553 127.2 546.553 Q121.39 546.553 118.311 541.97 Q115.256 537.363 115.256 528.636 Q115.256 519.887 118.311 515.303 Q121.39 510.697 127.2 510.697 Z" fill="#000000" fill-rule="evenodd" fill-opacity="1" /><path clip-path="url(#clip530)" d="M147.362 540.002 L152.246 540.002 L152.246 545.882 L147.362 545.882 L147.362 540.002 Z" fill="#000000" fill-rule="evenodd" fill-opacity="1" /><path clip-path="url(#clip530)" d="M176.598 527.248 Q179.954 527.965 181.829 530.234 Q183.727 532.502 183.727 535.836 Q183.727 540.951 180.209 543.752 Q176.69 546.553 170.209 546.553 Q168.033 546.553 165.718 546.113 Q163.427 545.697 160.973 544.84 L160.973 540.326 Q162.917 541.461 165.232 542.039 Q167.547 542.618 170.07 542.618 Q174.468 542.618 176.76 540.882 Q179.075 539.146 179.075 535.836 Q179.075 532.78 176.922 531.067 Q174.792 529.331 170.973 529.331 L166.945 529.331 L166.945 525.488 L171.158 525.488 Q174.607 525.488 176.436 524.123 Q178.264 522.734 178.264 520.141 Q178.264 517.479 176.366 516.067 Q174.491 514.632 170.973 514.632 Q169.052 514.632 166.852 515.049 Q164.653 515.465 162.015 516.345 L162.015 512.178 Q164.677 511.438 166.991 511.067 Q169.329 510.697 171.389 510.697 Q176.714 510.697 179.815 513.127 Q182.917 515.535 182.917 519.655 Q182.917 522.525 181.274 524.516 Q179.63 526.484 176.598 527.248 Z" fill="#000000" fill-rule="evenodd" fill-opacity="1" /><path clip-path="url(#clip530)" d="M192.639 511.322 L210.996 511.322 L210.996 515.257 L196.922 515.257 L196.922 523.729 Q197.94 523.382 198.959 523.22 Q199.977 523.035 200.996 523.035 Q206.783 523.035 210.162 526.206 Q213.542 529.377 213.542 534.794 Q213.542 540.373 210.07 543.474 Q206.598 546.553 200.278 546.553 Q198.102 546.553 195.834 546.183 Q193.588 545.812 191.181 545.072 L191.181 540.373 Q193.264 541.507 195.487 542.062 Q197.709 542.618 200.186 542.618 Q204.19 542.618 206.528 540.511 Q208.866 538.405 208.866 534.794 Q208.866 531.183 206.528 529.076 Q204.19 526.97 200.186 526.97 Q198.311 526.97 196.436 527.387 Q194.584 527.803 192.639 528.683 L192.639 511.322 Z" fill="#000000" fill-rule="evenodd" fill-opacity="1" /><path clip-path="url(#clip530)" d="M126.205 329.028 Q122.593 329.028 120.765 332.593 Q118.959 336.134 118.959 343.264 Q118.959 350.37 120.765 353.935 Q122.593 357.477 126.205 357.477 Q129.839 357.477 131.644 353.935 Q133.473 350.37 133.473 343.264 Q133.473 336.134 131.644 332.593 Q129.839 329.028 126.205 329.028 M126.205 325.324 Q132.015 325.324 135.07 329.931 Q138.149 334.514 138.149 343.264 Q138.149 351.991 135.07 356.597 Q132.015 361.18 126.205 361.18 Q120.394 361.18 117.316 356.597 Q114.26 351.991 114.26 343.264 Q114.26 334.514 117.316 329.931 Q120.394 325.324 126.205 325.324 Z" fill="#000000" fill-rule="evenodd" fill-opacity="1" /><path clip-path="url(#clip530)" d="M146.366 354.63 L151.251 354.63 L151.251 360.509 L146.366 360.509 L146.366 354.63 Z" fill="#000000" fill-rule="evenodd" fill-opacity="1" /><path clip-path="url(#clip530)" d="M174.283 330.023 L162.477 348.472 L174.283 348.472 L174.283 330.023 M173.056 325.949 L178.936 325.949 L178.936 348.472 L183.866 348.472 L183.866 352.361 L178.936 352.361 L178.936 360.509 L174.283 360.509 L174.283 352.361 L158.681 352.361 L158.681 347.847 L173.056 325.949 Z" fill="#000000" fill-rule="evenodd" fill-opacity="1" /><path clip-path="url(#clip530)" d="M201.598 329.028 Q197.987 329.028 196.158 332.593 Q194.352 336.134 194.352 343.264 Q194.352 350.37 196.158 353.935 Q197.987 357.477 201.598 357.477 Q205.232 357.477 207.037 353.935 Q208.866 350.37 208.866 343.264 Q208.866 336.134 207.037 332.593 Q205.232 329.028 201.598 329.028 M201.598 325.324 Q207.408 325.324 210.463 329.931 Q213.542 334.514 213.542 343.264 Q213.542 351.991 210.463 356.597 Q207.408 361.18 201.598 361.18 Q195.787 361.18 192.709 356.597 Q189.653 351.991 189.653 343.264 Q189.653 334.514 192.709 329.931 Q195.787 325.324 201.598 325.324 Z" fill="#000000" fill-rule="evenodd" fill-opacity="1" /><path clip-path="url(#clip530)" d="M127.2 143.655 Q123.589 143.655 121.76 147.22 Q119.955 150.762 119.955 157.891 Q119.955 164.998 121.76 168.563 Q123.589 172.104 127.2 172.104 Q130.834 172.104 132.64 168.563 Q134.468 164.998 134.468 157.891 Q134.468 150.762 132.64 147.22 Q130.834 143.655 127.2 143.655 M127.2 139.952 Q133.01 139.952 136.066 144.558 Q139.144 149.141 139.144 157.891 Q139.144 166.618 136.066 171.225 Q133.01 175.808 127.2 175.808 Q121.39 175.808 118.311 171.225 Q115.256 166.618 115.256 157.891 Q115.256 149.141 118.311 144.558 Q121.39 139.952 127.2 139.952 Z" fill="#000000" fill-rule="evenodd" fill-opacity="1" /><path clip-path="url(#clip530)" d="M147.362 169.257 L152.246 169.257 L152.246 175.137 L147.362 175.137 L147.362 169.257 Z" fill="#000000" fill-rule="evenodd" fill-opacity="1" /><path clip-path="url(#clip530)" d="M175.278 144.651 L163.473 163.1 L175.278 163.1 L175.278 144.651 M174.052 140.577 L179.931 140.577 L179.931 163.1 L184.862 163.1 L184.862 166.988 L179.931 166.988 L179.931 175.137 L175.278 175.137 L175.278 166.988 L159.677 166.988 L159.677 162.475 L174.052 140.577 Z" fill="#000000" fill-rule="evenodd" fill-opacity="1" /><path clip-path="url(#clip530)" d="M192.639 140.577 L210.996 140.577 L210.996 144.512 L196.922 144.512 L196.922 152.984 Q197.94 152.637 198.959 152.475 Q199.977 152.289 200.996 152.289 Q206.783 152.289 210.162 155.461 Q213.542 158.632 213.542 164.049 Q213.542 169.627 210.07 172.729 Q206.598 175.808 200.278 175.808 Q198.102 175.808 195.834 175.437 Q193.588 175.067 191.181 174.326 L191.181 169.627 Q193.264 170.762 195.487 171.317 Q197.709 171.873 200.186 171.873 Q204.19 171.873 206.528 169.766 Q208.866 167.66 208.866 164.049 Q208.866 160.438 206.528 158.331 Q204.19 156.225 200.186 156.225 Q198.311 156.225 196.436 156.641 Q194.584 157.058 192.639 157.938 L192.639 140.577 Z" fill="#000000" fill-rule="evenodd" fill-opacity="1" /><path clip-path="url(#clip530)" d="M41.3104 1089.3 L58.7206 1089.3 L58.7206 1078.99 Q58.7206 1073.8 56.5881 1071.32 Q54.4238 1068.81 49.9996 1068.81 Q45.5436 1068.81 43.4429 1071.32 Q41.3104 1073.8 41.3104 1078.99 L41.3104 1089.3 M21.7677 1089.3 L36.0905 1089.3 L36.0905 1079.79 Q36.0905 1075.08 34.34 1072.78 Q32.5576 1070.46 28.9291 1070.46 Q25.3325 1070.46 23.5501 1072.78 Q21.7677 1075.08 21.7677 1079.79 L21.7677 1089.3 M16.4842 1095.73 L16.4842 1079.31 Q16.4842 1071.96 19.5397 1067.98 Q22.5952 1064 28.2289 1064 Q32.5894 1064 35.1675 1066.04 Q37.7456 1068.07 38.3822 1072.02 Q39.4007 1067.28 42.6472 1064.67 Q45.8619 1062.03 50.6998 1062.03 Q57.0655 1062.03 60.5348 1066.36 Q64.0042 1070.68 64.0042 1078.67 L64.0042 1095.73 L16.4842 1095.73 Z" fill="#000000" fill-rule="evenodd" fill-opacity="1" /><path clip-path="url(#clip530)" d="M32.4621 1037.46 Q32.4621 1042.17 36.1542 1044.9 Q39.8145 1047.64 46.212 1047.64 Q52.6095 1047.64 56.3017 1044.93 Q59.9619 1042.2 59.9619 1037.46 Q59.9619 1032.78 56.2698 1030.04 Q52.5777 1027.3 46.212 1027.3 Q39.8781 1027.3 36.186 1030.04 Q32.4621 1032.78 32.4621 1037.46 M27.4968 1037.46 Q27.4968 1029.82 32.4621 1025.46 Q37.4273 1021.1 46.212 1021.1 Q54.9649 1021.1 59.9619 1025.46 Q64.9272 1029.82 64.9272 1037.46 Q64.9272 1045.13 59.9619 1049.49 Q54.9649 1053.81 46.212 1053.81 Q37.4273 1053.81 32.4621 1049.49 Q27.4968 1045.13 27.4968 1037.46 Z" fill="#000000" fill-rule="evenodd" fill-opacity="1" /><path clip-path="url(#clip530)" d="M18.2347 1005.59 L28.3562 1005.59 L28.3562 993.532 L32.9077 993.532 L32.9077 1005.59 L52.2594 1005.59 Q56.6199 1005.59 57.8613 1004.42 Q59.1026 1003.21 59.1026 999.547 L59.1026 993.532 L64.0042 993.532 L64.0042 999.547 Q64.0042 1006.33 61.4897 1008.9 Q58.9434 1011.48 52.2594 1011.48 L32.9077 1011.48 L32.9077 1015.78 L28.3562 1015.78 L28.3562 1011.48 L18.2347 1011.48 L18.2347 1005.59 Z" fill="#000000" fill-rule="evenodd" fill-opacity="1" /><path clip-path="url(#clip530)" d="M18.2347 980.036 L28.3562 980.036 L28.3562 967.973 L32.9077 967.973 L32.9077 980.036 L52.2594 980.036 Q56.6199 980.036 57.8613 978.859 Q59.1026 977.649 59.1026 973.989 L59.1026 967.973 L64.0042 967.973 L64.0042 973.989 Q64.0042 980.768 61.4897 983.347 Q58.9434 985.925 52.2594 985.925 L32.9077 985.925 L32.9077 990.222 L28.3562 990.222 L28.3562 985.925 L18.2347 985.925 L18.2347 980.036 Z" fill="#000000" fill-rule="evenodd" fill-opacity="1" /><path clip-path="url(#clip530)" d="M14.479 960.271 L14.479 954.414 L64.0042 954.414 L64.0042 960.271 L14.479 960.271 Z" fill="#000000" fill-rule="evenodd" fill-opacity="1" /><path clip-path="url(#clip530)" d="M44.7161 911.669 L47.5806 911.669 L47.5806 938.596 Q53.6281 938.214 56.8109 934.967 Q59.9619 931.689 59.9619 925.864 Q59.9619 922.49 59.1344 919.339 Q58.3069 916.157 56.6518 913.037 L62.1899 913.037 Q63.5267 916.188 64.227 919.499 Q64.9272 922.809 64.9272 926.214 Q64.9272 934.744 59.9619 939.741 Q54.9967 944.707 46.5303 944.707 Q37.7774 944.707 32.6531 939.996 Q27.4968 935.254 27.4968 927.233 Q27.4968 920.04 32.1438 915.87 Q36.7589 911.669 44.7161 911.669 M42.9973 917.525 Q38.1912 917.589 35.3266 920.231 Q32.4621 922.841 32.4621 927.169 Q32.4621 932.071 35.2312 935.031 Q38.0002 937.959 43.0292 938.405 L42.9973 917.525 Z" fill="#000000" fill-rule="evenodd" fill-opacity="1" /><path clip-path="url(#clip530)" d="M42.4881 872.424 L64.0042 872.424 L64.0042 878.281 L42.679 878.281 Q37.6183 878.281 35.1038 880.254 Q32.5894 882.227 32.5894 886.174 Q32.5894 890.916 35.6131 893.654 Q38.6368 896.391 43.8567 896.391 L64.0042 896.391 L64.0042 902.279 L28.3562 902.279 L28.3562 896.391 L33.8944 896.391 Q30.6797 894.29 29.0883 891.458 Q27.4968 888.593 27.4968 884.869 Q27.4968 878.726 31.3163 875.575 Q35.1038 872.424 42.4881 872.424 Z" fill="#000000" fill-rule="evenodd" fill-opacity="1" /><path clip-path="url(#clip530)" d="M44.7161 830.251 L47.5806 830.251 L47.5806 857.178 Q53.6281 856.796 56.8109 853.55 Q59.9619 850.271 59.9619 844.447 Q59.9619 841.073 59.1344 837.922 Q58.3069 834.739 56.6518 831.62 L62.1899 831.62 Q63.5267 834.771 64.227 838.081 Q64.9272 841.391 64.9272 844.797 Q64.9272 853.327 59.9619 858.324 Q54.9967 863.289 46.5303 863.289 Q37.7774 863.289 32.6531 858.579 Q27.4968 853.836 27.4968 845.815 Q27.4968 838.622 32.1438 834.453 Q36.7589 830.251 44.7161 830.251 M42.9973 836.108 Q38.1912 836.171 35.3266 838.813 Q32.4621 841.423 32.4621 845.752 Q32.4621 850.653 35.2312 853.613 Q38.0002 856.542 43.0292 856.987 L42.9973 836.108 Z" fill="#000000" fill-rule="evenodd" fill-opacity="1" /><path clip-path="url(#clip530)" d="M29.7248 794.985 L35.1993 794.985 Q33.8307 797.468 33.1623 799.982 Q32.4621 802.465 32.4621 805.011 Q32.4621 810.709 36.0905 813.86 Q39.6872 817.011 46.212 817.011 Q52.7369 817.011 56.3653 813.86 Q59.9619 810.709 59.9619 805.011 Q59.9619 802.465 59.2935 799.982 Q58.5933 797.468 57.2247 794.985 L62.6355 794.985 Q63.7814 797.436 64.3543 800.078 Q64.9272 802.688 64.9272 805.648 Q64.9272 813.7 59.8664 818.443 Q54.8057 823.185 46.212 823.185 Q37.491 823.185 32.4939 818.411 Q27.4968 813.605 27.4968 805.266 Q27.4968 802.56 28.0697 799.982 Q28.6108 797.404 29.7248 794.985 Z" fill="#000000" fill-rule="evenodd" fill-opacity="1" /><path clip-path="url(#clip530)" d="M14.479 785.023 L14.479 779.135 L43.7294 779.135 L28.3562 761.661 L28.3562 754.181 L45.0344 773.087 L64.0042 753.385 L64.0042 761.024 L46.5939 779.135 L64.0042 779.135 L64.0042 785.023 L14.479 785.023 Z" fill="#000000" fill-rule="evenodd" fill-opacity="1" /><path clip-path="url(#clip530)" d="M21.7677 719.647 L58.7206 719.647 L58.7206 711.881 Q58.7206 702.046 54.2646 697.495 Q49.8086 692.911 40.1964 692.911 Q30.6479 692.911 26.2237 697.495 Q21.7677 702.046 21.7677 711.881 L21.7677 719.647 M16.4842 726.077 L16.4842 712.868 Q16.4842 699.054 22.2451 692.593 Q27.9743 686.132 40.1964 686.132 Q52.4822 686.132 58.2432 692.625 Q64.0042 699.118 64.0042 712.868 L64.0042 726.077 L16.4842 726.077 Z" fill="#000000" fill-rule="evenodd" fill-opacity="1" /><path clip-path="url(#clip530)" d="M28.3562 676.138 L28.3562 670.281 L64.0042 670.281 L64.0042 676.138 L28.3562 676.138 M14.479 676.138 L14.479 670.281 L21.895 670.281 L21.895 676.138 L14.479 676.138 Z" fill="#000000" fill-rule="evenodd" fill-opacity="1" /><path clip-path="url(#clip530)" d="M29.4065 635.302 L34.9447 635.302 Q33.6716 637.784 33.035 640.458 Q32.3984 643.131 32.3984 645.996 Q32.3984 650.356 33.7352 652.553 Q35.072 654.717 37.7456 654.717 Q39.7826 654.717 40.9603 653.157 Q42.1061 651.598 43.1565 646.887 L43.6021 644.882 Q44.9389 638.644 47.3897 636.034 Q49.8086 633.392 54.1691 633.392 Q59.1344 633.392 62.0308 637.339 Q64.9272 641.253 64.9272 648.128 Q64.9272 650.993 64.3543 654.112 Q63.8132 657.2 62.6992 660.637 L56.6518 660.637 Q58.3387 657.391 59.198 654.24 Q60.0256 651.089 60.0256 648.001 Q60.0256 643.863 58.6251 641.635 Q57.1929 639.407 54.6147 639.407 Q52.2276 639.407 50.9545 641.031 Q49.6813 642.622 48.5037 648.065 L48.0262 650.102 Q46.8804 655.544 44.5251 657.963 Q42.138 660.382 38.0002 660.382 Q32.9713 660.382 30.2341 656.818 Q27.4968 653.253 27.4968 646.696 Q27.4968 643.45 27.9743 640.585 Q28.4517 637.721 29.4065 635.302 Z" fill="#000000" fill-rule="evenodd" fill-opacity="1" /><path clip-path="url(#clip530)" d="M18.2347 618.273 L28.3562 618.273 L28.3562 606.21 L32.9077 606.21 L32.9077 618.273 L52.2594 618.273 Q56.6199 618.273 57.8613 617.096 Q59.1026 615.886 59.1026 612.226 L59.1026 606.21 L64.0042 606.21 L64.0042 612.226 Q64.0042 619.005 61.4897 621.583 Q58.9434 624.162 52.2594 624.162 L32.9077 624.162 L32.9077 628.458 L28.3562 628.458 L28.3562 624.162 L18.2347 624.162 L18.2347 618.273 Z" fill="#000000" fill-rule="evenodd" fill-opacity="1" /><path clip-path="url(#clip530)" d="M46.0847 582.307 Q46.0847 589.405 47.7079 592.142 Q49.3312 594.879 53.2461 594.879 Q56.3653 594.879 58.2114 592.842 Q60.0256 590.773 60.0256 587.24 Q60.0256 582.371 56.5881 579.442 Q53.1188 576.482 47.3897 576.482 L46.0847 576.482 L46.0847 582.307 M43.6657 570.626 L64.0042 570.626 L64.0042 576.482 L58.5933 576.482 Q61.8398 578.488 63.3994 581.48 Q64.9272 584.471 64.9272 588.8 Q64.9272 594.275 61.8716 597.521 Q58.7843 600.736 53.6281 600.736 Q47.6125 600.736 44.5569 596.725 Q41.5014 592.683 41.5014 584.694 L41.5014 576.482 L40.9285 576.482 Q36.8862 576.482 34.6901 579.156 Q32.4621 581.798 32.4621 586.604 Q32.4621 589.659 33.1941 592.556 Q33.9262 595.452 35.3903 598.126 L29.9795 598.126 Q28.7381 594.911 28.1334 591.887 Q27.4968 588.864 27.4968 585.999 Q27.4968 578.265 31.5072 574.445 Q35.5176 570.626 43.6657 570.626 Z" fill="#000000" fill-rule="evenodd" fill-opacity="1" /><path clip-path="url(#clip530)" d="M42.4881 528.931 L64.0042 528.931 L64.0042 534.787 L42.679 534.787 Q37.6183 534.787 35.1038 536.76 Q32.5894 538.734 32.5894 542.681 Q32.5894 547.423 35.6131 550.16 Q38.6368 552.897 43.8567 552.897 L64.0042 552.897 L64.0042 558.786 L28.3562 558.786 L28.3562 552.897 L33.8944 552.897 Q30.6797 550.797 29.0883 547.964 Q27.4968 545.099 27.4968 541.376 Q27.4968 535.233 31.3163 532.082 Q35.1038 528.931 42.4881 528.931 Z" fill="#000000" fill-rule="evenodd" fill-opacity="1" /><path clip-path="url(#clip530)" d="M29.7248 491.596 L35.1993 491.596 Q33.8307 494.078 33.1623 496.593 Q32.4621 499.075 32.4621 501.622 Q32.4621 507.319 36.0905 510.47 Q39.6872 513.621 46.212 513.621 Q52.7369 513.621 56.3653 510.47 Q59.9619 507.319 59.9619 501.622 Q59.9619 499.075 59.2935 496.593 Q58.5933 494.078 57.2247 491.596 L62.6355 491.596 Q63.7814 494.047 64.3543 496.688 Q64.9272 499.298 64.9272 502.258 Q64.9272 510.311 59.8664 515.053 Q54.8057 519.796 46.212 519.796 Q37.491 519.796 32.4939 515.022 Q27.4968 510.215 27.4968 501.876 Q27.4968 499.171 28.0697 496.593 Q28.6108 494.015 29.7248 491.596 Z" fill="#000000" fill-rule="evenodd" fill-opacity="1" /><path clip-path="url(#clip530)" d="M44.7161 450.919 L47.5806 450.919 L47.5806 477.846 Q53.6281 477.464 56.8109 474.217 Q59.9619 470.939 59.9619 465.114 Q59.9619 461.741 59.1344 458.59 Q58.3069 455.407 56.6518 452.287 L62.1899 452.287 Q63.5267 455.439 64.227 458.749 Q64.9272 462.059 64.9272 465.464 Q64.9272 473.995 59.9619 478.992 Q54.9967 483.957 46.5303 483.957 Q37.7774 483.957 32.6531 479.246 Q27.4968 474.504 27.4968 466.483 Q27.4968 459.29 32.1438 455.12 Q36.7589 450.919 44.7161 450.919 M42.9973 456.775 Q38.1912 456.839 35.3266 459.481 Q32.4621 462.091 32.4621 466.419 Q32.4621 471.321 35.2312 474.281 Q38.0002 477.209 43.0292 477.655 L42.9973 456.775 Z" fill="#000000" fill-rule="evenodd" fill-opacity="1" /><path clip-path="url(#clip530)" d="M859.803 34.4165 Q858.304 33.8899 856.805 33.4848 Q852.795 32.4315 848.501 32.4315 Q841.088 32.4315 836.956 36.4419 Q833.107 40.1688 832.378 47.0148 L859.803 47.0148 L859.803 52.8481 L832.378 52.8481 Q833.107 59.6941 836.956 63.421 Q841.088 67.4314 848.501 67.4314 Q853.686 67.4314 856.805 66.3781 L859.803 65.3654 L859.803 72.1304 L856.603 72.8596 Q852.39 73.7508 848.055 73.7508 Q837.199 73.7508 830.879 67.4314 Q824.52 61.1119 824.52 49.9314 Q824.52 38.7509 830.879 32.4315 Q837.199 26.1121 848.055 26.1121 Q852.147 26.1121 856.603 27.0033 Q858.223 27.3274 859.803 27.8135 L859.803 34.4165 Z" fill="#000000" fill-rule="evenodd" fill-opacity="1" /><path clip-path="url(#clip530)" d="M942.887 45.1919 L942.887 72.576 L935.433 72.576 L935.433 45.4349 Q935.433 38.994 932.922 35.7938 Q930.41 32.5936 925.387 32.5936 Q919.351 32.5936 915.867 36.4419 Q912.384 40.2903 912.384 46.9338 L912.384 72.576 L904.89 72.576 L904.89 27.2059 L912.384 27.2059 L912.384 34.2544 Q915.057 30.163 918.663 28.1376 Q922.308 26.1121 927.048 26.1121 Q934.866 26.1121 938.877 30.9732 Q942.887 35.7938 942.887 45.1919 Z" fill="#000000" fill-rule="evenodd" fill-opacity="1" /><path clip-path="url(#clip530)" d="M975.335 32.4315 Q969.339 32.4315 965.856 37.1306 Q962.372 41.7891 962.372 49.9314 Q962.372 58.0738 965.815 62.7728 Q969.299 67.4314 975.335 67.4314 Q981.29 67.4314 984.773 62.7323 Q988.257 58.0333 988.257 49.9314 Q988.257 41.8701 984.773 37.1711 Q981.29 32.4315 975.335 32.4315 M975.335 26.1121 Q985.057 26.1121 990.607 32.4315 Q996.156 38.7509 996.156 49.9314 Q996.156 61.0714 990.607 67.4314 Q985.057 73.7508 975.335 73.7508 Q965.572 73.7508 960.022 67.4314 Q954.513 61.0714 954.513 49.9314 Q954.513 38.7509 960.022 32.4315 Q965.572 26.1121 975.335 26.1121 Z" fill="#000000" fill-rule="evenodd" fill-opacity="1" /><path clip-path="url(#clip530)" d="M1015.88 14.324 L1015.88 27.2059 L1031.24 27.2059 L1031.24 32.9987 L1015.88 32.9987 L1015.88 57.6282 Q1015.88 63.1779 1017.38 64.7578 Q1018.92 66.3376 1023.58 66.3376 L1031.24 66.3376 L1031.24 72.576 L1023.58 72.576 Q1014.95 72.576 1011.67 69.3758 Q1008.39 66.1351 1008.39 57.6282 L1008.39 32.9987 L1002.92 32.9987 L1002.92 27.2059 L1008.39 27.2059 L1008.39 14.324 L1015.88 14.324 Z" fill="#000000" fill-rule="evenodd" fill-opacity="1" /><path clip-path="url(#clip530)" d="M1074.62 65.7705 L1074.62 89.8329 L1067.13 89.8329 L1067.13 27.2059 L1074.62 27.2059 L1074.62 34.0924 Q1076.97 30.0415 1080.54 28.0971 Q1084.14 26.1121 1089.12 26.1121 Q1097.39 26.1121 1102.53 32.6746 Q1107.72 39.2371 1107.72 49.9314 Q1107.72 60.6258 1102.53 67.1883 Q1097.39 73.7508 1089.12 73.7508 Q1084.14 73.7508 1080.54 71.8063 Q1076.97 69.8214 1074.62 65.7705 M1099.98 49.9314 Q1099.98 41.7081 1096.58 37.0496 Q1093.22 32.3505 1087.3 32.3505 Q1081.39 32.3505 1077.98 37.0496 Q1074.62 41.7081 1074.62 49.9314 Q1074.62 58.1548 1077.98 62.8538 Q1081.39 67.5124 1087.3 67.5124 Q1093.22 67.5124 1096.58 62.8538 Q1099.98 58.1548 1099.98 49.9314 Z" fill="#000000" fill-rule="evenodd" fill-opacity="1" /><path clip-path="url(#clip530)" d="M1119.3 54.671 L1119.3 27.2059 L1126.76 27.2059 L1126.76 54.3874 Q1126.76 60.8284 1129.27 64.0691 Q1131.78 67.2693 1136.8 67.2693 Q1142.84 67.2693 1146.32 63.421 Q1149.85 59.5726 1149.85 52.9291 L1149.85 27.2059 L1157.3 27.2059 L1157.3 72.576 L1149.85 72.576 L1149.85 65.6084 Q1147.13 69.7404 1143.53 71.7658 Q1139.96 73.7508 1135.22 73.7508 Q1127.41 73.7508 1123.35 68.8897 Q1119.3 64.0286 1119.3 54.671 M1138.06 26.1121 L1138.06 26.1121 Z" fill="#000000" fill-rule="evenodd" fill-opacity="1" /><path clip-path="url(#clip530)" d="M1205.22 49.9314 Q1205.22 41.7081 1201.82 37.0496 Q1198.46 32.3505 1192.54 32.3505 Q1186.63 32.3505 1183.23 37.0496 Q1179.86 41.7081 1179.86 49.9314 Q1179.86 58.1548 1183.23 62.8538 Q1186.63 67.5124 1192.54 67.5124 Q1198.46 67.5124 1201.82 62.8538 Q1205.22 58.1548 1205.22 49.9314 M1179.86 34.0924 Q1182.21 30.0415 1185.78 28.0971 Q1189.38 26.1121 1194.37 26.1121 Q1202.63 26.1121 1207.78 32.6746 Q1212.96 39.2371 1212.96 49.9314 Q1212.96 60.6258 1207.78 67.1883 Q1202.63 73.7508 1194.37 73.7508 Q1189.38 73.7508 1185.78 71.8063 Q1182.21 69.8214 1179.86 65.7705 L1179.86 72.576 L1172.37 72.576 L1172.37 9.54393 L1179.86 9.54393 L1179.86 34.0924 Z" fill="#000000" fill-rule="evenodd" fill-opacity="1" /><path clip-path="url(#clip530)" d="M1225.32 9.54393 L1232.77 9.54393 L1232.77 72.576 L1225.32 72.576 L1225.32 9.54393 Z" fill="#000000" fill-rule="evenodd" fill-opacity="1" /><path clip-path="url(#clip530)" d="M1248.37 27.2059 L1255.82 27.2059 L1255.82 72.576 L1248.37 72.576 L1248.37 27.2059 M1248.37 9.54393 L1255.82 9.54393 L1255.82 18.9825 L1248.37 18.9825 L1248.37 9.54393 Z" fill="#000000" fill-rule="evenodd" fill-opacity="1" /><path clip-path="url(#clip530)" d="M1304.07 28.9478 L1304.07 35.9153 Q1300.91 34.1734 1297.71 33.3227 Q1294.55 32.4315 1291.31 32.4315 Q1284.05 32.4315 1280.04 37.0496 Q1276.03 41.6271 1276.03 49.9314 Q1276.03 58.2358 1280.04 62.8538 Q1284.05 67.4314 1291.31 67.4314 Q1294.55 67.4314 1297.71 66.5807 Q1300.91 65.6895 1304.07 63.9476 L1304.07 70.8341 Q1300.95 72.2924 1297.58 73.0216 Q1294.26 73.7508 1290.5 73.7508 Q1280.25 73.7508 1274.21 67.3098 Q1268.17 60.8689 1268.17 49.9314 Q1268.17 38.832 1274.25 32.472 Q1280.37 26.1121 1290.98 26.1121 Q1294.42 26.1121 1297.71 26.8413 Q1300.99 27.5299 1304.07 28.9478 Z" fill="#000000" fill-rule="evenodd" fill-opacity="1" /><path clip-path="url(#clip530)" d="M1317.03 9.54393 L1324.48 9.54393 L1324.48 72.576 L1317.03 72.576 L1317.03 9.54393 Z" fill="#000000" fill-rule="evenodd" fill-opacity="1" /><path clip-path="url(#clip530)" d="M1358.96 76.7889 Q1355.8 84.8907 1352.8 87.3618 Q1349.8 89.8329 1344.78 89.8329 L1338.82 89.8329 L1338.82 83.5945 L1343.2 83.5945 Q1346.28 83.5945 1347.98 82.1361 Q1349.68 80.6778 1351.74 75.2496 L1353.08 71.8468 L1334.73 27.2059 L1342.63 27.2059 L1356.81 62.6918 L1370.99 27.2059 L1378.89 27.2059 L1358.96 76.7889 Z" fill="#000000" fill-rule="evenodd" fill-opacity="1" /><path clip-path="url(#clip530)" d="M1436.17 49.7694 Q1427.13 49.7694 1423.65 51.8354 Q1420.16 53.9013 1420.16 58.8839 Q1420.16 62.8538 1422.76 65.2034 Q1425.39 67.5124 1429.89 67.5124 Q1436.08 67.5124 1439.81 63.1374 Q1443.58 58.7219 1443.58 51.4303 L1443.58 49.7694 L1436.17 49.7694 M1451.03 46.6907 L1451.03 72.576 L1443.58 72.576 L1443.58 65.6895 Q1441.03 69.8214 1437.22 71.8063 Q1433.41 73.7508 1427.9 73.7508 Q1420.93 73.7508 1416.8 69.8619 Q1412.71 65.9325 1412.71 59.3701 Q1412.71 51.7138 1417.82 47.825 Q1422.96 43.9361 1433.13 43.9361 L1443.58 43.9361 L1443.58 43.2069 Q1443.58 38.0623 1440.18 35.2672 Q1436.81 32.4315 1430.7 32.4315 Q1426.81 32.4315 1423.12 33.3632 Q1419.44 34.295 1416.03 36.1584 L1416.03 29.2718 Q1420.12 27.692 1423.97 26.9223 Q1427.82 26.1121 1431.47 26.1121 Q1441.31 26.1121 1446.17 31.2163 Q1451.03 36.3204 1451.03 46.6907 Z" fill="#000000" fill-rule="evenodd" fill-opacity="1" /><path clip-path="url(#clip530)" d="M1461.04 27.2059 L1468.94 27.2059 L1483.12 65.2844 L1497.29 27.2059 L1505.19 27.2059 L1488.18 72.576 L1478.05 72.576 L1461.04 27.2059 Z" fill="#000000" fill-rule="evenodd" fill-opacity="1" /><path clip-path="url(#clip530)" d="M1536.1 49.7694 Q1527.07 49.7694 1523.58 51.8354 Q1520.1 53.9013 1520.1 58.8839 Q1520.1 62.8538 1522.69 65.2034 Q1525.33 67.5124 1529.82 67.5124 Q1536.02 67.5124 1539.75 63.1374 Q1543.51 58.7219 1543.51 51.4303 L1543.51 49.7694 L1536.1 49.7694 M1550.97 46.6907 L1550.97 72.576 L1543.51 72.576 L1543.51 65.6895 Q1540.96 69.8214 1537.15 71.8063 Q1533.35 73.7508 1527.84 73.7508 Q1520.87 73.7508 1516.74 69.8619 Q1512.65 65.9325 1512.65 59.3701 Q1512.65 51.7138 1517.75 47.825 Q1522.9 43.9361 1533.06 43.9361 L1543.51 43.9361 L1543.51 43.2069 Q1543.51 38.0623 1540.11 35.2672 Q1536.75 32.4315 1530.63 32.4315 Q1526.74 32.4315 1523.06 33.3632 Q1519.37 34.295 1515.97 36.1584 L1515.97 29.2718 Q1520.06 27.692 1523.91 26.9223 Q1527.76 26.1121 1531.4 26.1121 Q1541.25 26.1121 1546.11 31.2163 Q1550.97 36.3204 1550.97 46.6907 Z" fill="#000000" fill-rule="evenodd" fill-opacity="1" /><path clip-path="url(#clip530)" d="M1566.32 27.2059 L1573.77 27.2059 L1573.77 72.576 L1566.32 72.576 L1566.32 27.2059 M1566.32 9.54393 L1573.77 9.54393 L1573.77 18.9825 L1566.32 18.9825 L1566.32 9.54393 Z" fill="#000000" fill-rule="evenodd" fill-opacity="1" /><path clip-path="url(#clip530)" d="M1589.37 9.54393 L1596.82 9.54393 L1596.82 72.576 L1589.37 72.576 L1589.37 9.54393 Z" fill="#000000" fill-rule="evenodd" fill-opacity="1" /><path clip-path="url(#clip530)" d="M1633.04 49.7694 Q1624.01 49.7694 1620.52 51.8354 Q1617.04 53.9013 1617.04 58.8839 Q1617.04 62.8538 1619.63 65.2034 Q1622.26 67.5124 1626.76 67.5124 Q1632.96 67.5124 1636.69 63.1374 Q1640.45 58.7219 1640.45 51.4303 L1640.45 49.7694 L1633.04 49.7694 M1647.91 46.6907 L1647.91 72.576 L1640.45 72.576 L1640.45 65.6895 Q1637.9 69.8214 1634.09 71.8063 Q1630.28 73.7508 1624.78 73.7508 Q1617.81 73.7508 1613.68 69.8619 Q1609.58 65.9325 1609.58 59.3701 Q1609.58 51.7138 1614.69 47.825 Q1619.83 43.9361 1630 43.9361 L1640.45 43.9361 L1640.45 43.2069 Q1640.45 38.0623 1637.05 35.2672 Q1633.69 32.4315 1627.57 32.4315 Q1623.68 32.4315 1620 33.3632 Q1616.31 34.295 1612.91 36.1584 L1612.91 29.2718 Q1617 27.692 1620.85 26.9223 Q1624.69 26.1121 1628.34 26.1121 Q1638.18 26.1121 1643.05 31.2163 Q1647.91 36.3204 1647.91 46.6907 Z" fill="#000000" fill-rule="evenodd" fill-opacity="1" /><path clip-path="url(#clip530)" d="M1695.83 49.9314 Q1695.83 41.7081 1692.43 37.0496 Q1689.06 32.3505 1683.15 32.3505 Q1677.23 32.3505 1673.83 37.0496 Q1670.47 41.7081 1670.47 49.9314 Q1670.47 58.1548 1673.83 62.8538 Q1677.23 67.5124 1683.15 67.5124 Q1689.06 67.5124 1692.43 62.8538 Q1695.83 58.1548 1695.83 49.9314 M1670.47 34.0924 Q1672.82 30.0415 1676.38 28.0971 Q1679.99 26.1121 1684.97 26.1121 Q1693.24 26.1121 1698.38 32.6746 Q1703.57 39.2371 1703.57 49.9314 Q1703.57 60.6258 1698.38 67.1883 Q1693.24 73.7508 1684.97 73.7508 Q1679.99 73.7508 1676.38 71.8063 Q1672.82 69.8214 1670.47 65.7705 L1670.47 72.576 L1662.98 72.576 L1662.98 9.54393 L1670.47 9.54393 L1670.47 34.0924 Z" fill="#000000" fill-rule="evenodd" fill-opacity="1" /><path clip-path="url(#clip530)" d="M1715.92 9.54393 L1723.37 9.54393 L1723.37 72.576 L1715.92 72.576 L1715.92 9.54393 Z" fill="#000000" fill-rule="evenodd" fill-opacity="1" /><path clip-path="url(#clip530)" d="M1777.78 48.0275 L1777.78 51.6733 L1743.51 51.6733 Q1743.99 59.3701 1748.13 63.421 Q1752.3 67.4314 1759.71 67.4314 Q1764.01 67.4314 1768.02 66.3781 Q1772.07 65.3249 1776.04 63.2184 L1776.04 70.267 Q1772.03 71.9684 1767.81 72.8596 Q1763.6 73.7508 1759.27 73.7508 Q1748.41 73.7508 1742.05 67.4314 Q1735.73 61.1119 1735.73 50.3365 Q1735.73 39.1965 1741.73 32.6746 Q1747.76 26.1121 1757.97 26.1121 Q1767.12 26.1121 1772.43 32.0264 Q1777.78 37.9003 1777.78 48.0275 M1770.32 45.84 Q1770.24 39.7232 1766.88 36.0774 Q1763.56 32.4315 1758.05 32.4315 Q1751.81 32.4315 1748.04 35.9558 Q1744.32 39.4801 1743.75 45.8805 L1770.32 45.84 Z" fill="#000000" fill-rule="evenodd" fill-opacity="1" /><polyline clip-path="url(#clip532)" style="stroke:#009af9; stroke-linecap:butt; stroke-linejoin:round; stroke-width:12; stroke-opacity:1; fill:none" points="
  309.067,160.256 359.943,259.848 410.819,409.44 461.695,586.63 512.571,441.855 766.951,232.14 1275.71,528.65 1784.47,604.577 2293.23,674.821 
  "/>
<path clip-path="url(#clip532)" d="M309.067 176.256 L297.755 171.568 L293.067 160.256 L297.755 148.944 L309.067 144.256 L320.379 148.944 L325.067 160.256 L320.379 171.568 Z" fill="#009af9" fill-rule="evenodd" fill-opacity="1" stroke="#000000" stroke-opacity="1" stroke-width="3.2"/>
<path clip-path="url(#clip532)" d="M359.943 275.848 L348.631 271.16 L343.943 259.848 L348.631 248.536 L359.943 243.848 L371.255 248.536 L375.943 259.848 L371.255 271.16 Z" fill="#009af9" fill-rule="evenodd" fill-opacity="1" stroke="#000000" stroke-opacity="1" stroke-width="3.2"/>
<path clip-path="url(#clip532)" d="M410.819 425.44 L399.507 420.752 L394.819 409.44 L399.507 398.128 L410.819 393.44 L422.131 398.128 L426.819 409.44 L422.131 420.752 Z" fill="#009af9" fill-rule="evenodd" fill-opacity="1" stroke="#000000" stroke-opacity="1" stroke-width="3.2"/>
<path clip-path="url(#clip532)" d="M461.695 602.63 L450.383 597.942 L445.695 586.63 L450.383 575.318 L461.695 570.63 L473.007 575.318 L477.695 586.63 L473.007 597.942 Z" fill="#009af9" fill-rule="evenodd" fill-opacity="1" stroke="#000000" stroke-opacity="1" stroke-width="3.2"/>
<path clip-path="url(#clip532)" d="M512.571 457.855 L501.259 453.167 L496.571 441.855 L501.259 430.543 L512.571 425.855 L523.883 430.543 L528.571 441.855 L523.883 453.167 Z" fill="#009af9" fill-rule="evenodd" fill-opacity="1" stroke="#000000" stroke-opacity="1" stroke-width="3.2"/>
<path clip-path="url(#clip532)" d="M766.951 248.14 L755.639 243.452 L750.951 232.14 L755.639 220.828 L766.951 216.14 L778.263 220.828 L782.951 232.14 L778.263 243.452 Z" fill="#009af9" fill-rule="evenodd" fill-opacity="1" stroke="#000000" stroke-opacity="1" stroke-width="3.2"/>
<path clip-path="url(#clip532)" d="M1275.71 544.65 L1264.4 539.962 L1259.71 528.65 L1264.4 517.338 L1275.71 512.65 L1287.02 517.338 L1291.71 528.65 L1287.02 539.962 Z" fill="#009af9" fill-rule="evenodd" fill-opacity="1" stroke="#000000" stroke-opacity="1" stroke-width="3.2"/>
<path clip-path="url(#clip532)" d="M1784.47 620.577 L1773.16 615.889 L1768.47 604.577 L1773.16 593.265 L1784.47 588.577 L1795.78 593.265 L1800.47 604.577 L1795.78 615.889 Z" fill="#009af9" fill-rule="evenodd" fill-opacity="1" stroke="#000000" stroke-opacity="1" stroke-width="3.2"/>
<path clip-path="url(#clip532)" d="M2293.23 690.821 L2281.92 686.133 L2277.23 674.821 L2281.92 663.509 L2293.23 658.821 L2304.54 663.509 L2309.23 674.821 L2304.54 686.133 Z" fill="#009af9" fill-rule="evenodd" fill-opacity="1" stroke="#000000" stroke-opacity="1" stroke-width="3.2"/>
<polyline clip-path="url(#clip532)" style="stroke:#e26f46; stroke-linecap:butt; stroke-linejoin:round; stroke-width:12; stroke-opacity:1; fill:none" points="
  309.067,245.644 359.943,528.173 410.819,723.394 461.695,671.605 512.571,790.162 766.951,595.909 1275.71,931.578 1784.47,908.721 2293.23,930.189 
  "/>
<path clip-path="url(#clip532)" d="M309.067 261.644 L297.755 256.956 L293.067 245.644 L297.755 234.332 L309.067 229.644 L320.379 234.332 L325.067 245.644 L320.379 256.956 Z" fill="#e26f46" fill-rule="evenodd" fill-opacity="1" stroke="#000000" stroke-opacity="1" stroke-width="3.2"/>
<path clip-path="url(#clip532)" d="M359.943 544.173 L348.631 539.485 L343.943 528.173 L348.631 516.861 L359.943 512.173 L371.255 516.861 L375.943 528.173 L371.255 539.485 Z" fill="#e26f46" fill-rule="evenodd" fill-opacity="1" stroke="#000000" stroke-opacity="1" stroke-width="3.2"/>
<path clip-path="url(#clip532)" d="M410.819 739.394 L399.507 734.706 L394.819 723.394 L399.507 712.082 L410.819 707.394 L422.131 712.082 L426.819 723.394 L422.131 734.706 Z" fill="#e26f46" fill-rule="evenodd" fill-opacity="1" stroke="#000000" stroke-opacity="1" stroke-width="3.2"/>
<path clip-path="url(#clip532)" d="M461.695 687.605 L450.383 682.917 L445.695 671.605 L450.383 660.293 L461.695 655.605 L473.007 660.293 L477.695 671.605 L473.007 682.917 Z" fill="#e26f46" fill-rule="evenodd" fill-opacity="1" stroke="#000000" stroke-opacity="1" stroke-width="3.2"/>
<path clip-path="url(#clip532)" d="M512.571 806.162 L501.259 801.474 L496.571 790.162 L501.259 778.85 L512.571 774.162 L523.883 778.85 L528.571 790.162 L523.883 801.474 Z" fill="#e26f46" fill-rule="evenodd" fill-opacity="1" stroke="#000000" stroke-opacity="1" stroke-width="3.2"/>
<path clip-path="url(#clip532)" d="M766.951 611.909 L755.639 607.221 L750.951 595.909 L755.639 584.597 L766.951 579.909 L778.263 584.597 L782.951 595.909 L778.263 607.221 Z" fill="#e26f46" fill-rule="evenodd" fill-opacity="1" stroke="#000000" stroke-opacity="1" stroke-width="3.2"/>
<path clip-path="url(#clip532)" d="M1275.71 947.578 L1264.4 942.89 L1259.71 931.578 L1264.4 920.266 L1275.71 915.578 L1287.02 920.266 L1291.71 931.578 L1287.02 942.89 Z" fill="#e26f46" fill-rule="evenodd" fill-opacity="1" stroke="#000000" stroke-opacity="1" stroke-width="3.2"/>
<path clip-path="url(#clip532)" d="M1784.47 924.721 L1773.16 920.033 L1768.47 908.721 L1773.16 897.409 L1784.47 892.721 L1795.78 897.409 L1800.47 908.721 L1795.78 920.033 Z" fill="#e26f46" fill-rule="evenodd" fill-opacity="1" stroke="#000000" stroke-opacity="1" stroke-width="3.2"/>
<path clip-path="url(#clip532)" d="M2293.23 946.189 L2281.92 941.501 L2277.23 930.189 L2281.92 918.877 L2293.23 914.189 L2304.54 918.877 L2309.23 930.189 L2304.54 941.501 Z" fill="#e26f46" fill-rule="evenodd" fill-opacity="1" stroke="#000000" stroke-opacity="1" stroke-width="3.2"/>
<polyline clip-path="url(#clip532)" style="stroke:#3da44d; stroke-linecap:butt; stroke-linejoin:round; stroke-width:12; stroke-opacity:1; fill:none" points="
  309.067,419.39 359.943,658.923 410.819,1026.09 461.695,961.198 512.571,1030.74 766.951,1214.58 1275.71,1386.4 1784.47,1367.16 2293.23,1358.69 
  "/>
<path clip-path="url(#clip532)" d="M309.067 435.39 L297.755 430.702 L293.067 419.39 L297.755 408.078 L309.067 403.39 L320.379 408.078 L325.067 419.39 L320.379 430.702 Z" fill="#3da44d" fill-rule="evenodd" fill-opacity="1" stroke="#000000" stroke-opacity="1" stroke-width="3.2"/>
<path clip-path="url(#clip532)" d="M359.943 674.923 L348.631 670.235 L343.943 658.923 L348.631 647.611 L359.943 642.923 L371.255 647.611 L375.943 658.923 L371.255 670.235 Z" fill="#3da44d" fill-rule="evenodd" fill-opacity="1" stroke="#000000" stroke-opacity="1" stroke-width="3.2"/>
<path clip-path="url(#clip532)" d="M410.819 1042.09 L399.507 1037.4 L394.819 1026.09 L399.507 1014.78 L410.819 1010.09 L422.131 1014.78 L426.819 1026.09 L422.131 1037.4 Z" fill="#3da44d" fill-rule="evenodd" fill-opacity="1" stroke="#000000" stroke-opacity="1" stroke-width="3.2"/>
<path clip-path="url(#clip532)" d="M461.695 977.198 L450.383 972.51 L445.695 961.198 L450.383 949.886 L461.695 945.198 L473.007 949.886 L477.695 961.198 L473.007 972.51 Z" fill="#3da44d" fill-rule="evenodd" fill-opacity="1" stroke="#000000" stroke-opacity="1" stroke-width="3.2"/>
<path clip-path="url(#clip532)" d="M512.571 1046.74 L501.259 1042.05 L496.571 1030.74 L501.259 1019.43 L512.571 1014.74 L523.883 1019.43 L528.571 1030.74 L523.883 1042.05 Z" fill="#3da44d" fill-rule="evenodd" fill-opacity="1" stroke="#000000" stroke-opacity="1" stroke-width="3.2"/>
<path clip-path="url(#clip532)" d="M766.951 1230.58 L755.639 1225.89 L750.951 1214.58 L755.639 1203.27 L766.951 1198.58 L778.263 1203.27 L782.951 1214.58 L778.263 1225.89 Z" fill="#3da44d" fill-rule="evenodd" fill-opacity="1" stroke="#000000" stroke-opacity="1" stroke-width="3.2"/>
<path clip-path="url(#clip532)" d="M1275.71 1402.4 L1264.4 1397.71 L1259.71 1386.4 L1264.4 1375.08 L1275.71 1370.4 L1287.02 1375.08 L1291.71 1386.4 L1287.02 1397.71 Z" fill="#3da44d" fill-rule="evenodd" fill-opacity="1" stroke="#000000" stroke-opacity="1" stroke-width="3.2"/>
<path clip-path="url(#clip532)" d="M1784.47 1383.16 L1773.16 1378.47 L1768.47 1367.16 L1773.16 1355.85 L1784.47 1351.16 L1795.78 1355.85 L1800.47 1367.16 L1795.78 1378.47 Z" fill="#3da44d" fill-rule="evenodd" fill-opacity="1" stroke="#000000" stroke-opacity="1" stroke-width="3.2"/>
<path clip-path="url(#clip532)" d="M2293.23 1374.69 L2281.92 1370.01 L2277.23 1358.69 L2281.92 1347.38 L2293.23 1342.69 L2304.54 1347.38 L2309.23 1358.69 L2304.54 1370.01 Z" fill="#3da44d" fill-rule="evenodd" fill-opacity="1" stroke="#000000" stroke-opacity="1" stroke-width="3.2"/>
<path clip-path="url(#clip530)" d="
M1883.52 374.156 L2282.65 374.156 L2282.65 166.796 L1883.52 166.796  Z
  " fill="#ffffff" fill-rule="evenodd" fill-opacity="1"/>
<polyline clip-path="url(#clip530)" style="stroke:#000000; stroke-linecap:butt; stroke-linejoin:round; stroke-width:4; stroke-opacity:1; fill:none" points="
  1883.52,374.156 2282.65,374.156 2282.65,166.796 1883.52,166.796 1883.52,374.156 
  "/>
<polyline clip-path="url(#clip530)" style="stroke:#009af9; stroke-linecap:butt; stroke-linejoin:round; stroke-width:4; stroke-opacity:1; fill:none" points="
  1906.89,218.636 2047.1,218.636 
  "/>
<path clip-path="url(#clip530)" d="M1977 244.236 L1958.9 236.735 L1951.4 218.636 L1958.9 200.537 L1977 193.036 L1995.09 200.537 L2002.6 218.636 L1995.09 236.735 Z" fill="#009af9" fill-rule="evenodd" fill-opacity="1" stroke="#000000" stroke-opacity="1" stroke-width="5.12"/>
<path clip-path="url(#clip530)" d="M2070.47 199.897 L2074.75 199.897 L2074.75 221.17 L2087.46 209.99 L2092.9 209.99 L2079.15 222.119 L2093.48 235.916 L2087.93 235.916 L2074.75 223.254 L2074.75 235.916 L2070.47 235.916 L2070.47 199.897 Z" fill="#000000" fill-rule="evenodd" fill-opacity="1" /><path clip-path="url(#clip530)" d="M2098.64 214.388 L2128.32 214.388 L2128.32 218.277 L2098.64 218.277 L2098.64 214.388 M2098.64 223.832 L2128.32 223.832 L2128.32 227.768 L2098.64 227.768 L2098.64 223.832 Z" fill="#000000" fill-rule="evenodd" fill-opacity="1" /><path clip-path="url(#clip530)" d="M2148.41 204.434 Q2144.8 204.434 2142.97 207.999 Q2141.17 211.541 2141.17 218.67 Q2141.17 225.777 2142.97 229.342 Q2144.8 232.883 2148.41 232.883 Q2152.05 232.883 2153.85 229.342 Q2155.68 225.777 2155.68 218.67 Q2155.68 211.541 2153.85 207.999 Q2152.05 204.434 2148.41 204.434 M2148.41 200.731 Q2154.22 200.731 2157.28 205.337 Q2160.36 209.92 2160.36 218.67 Q2160.36 227.397 2157.28 232.004 Q2154.22 236.587 2148.41 236.587 Q2142.6 236.587 2139.52 232.004 Q2136.47 227.397 2136.47 218.67 Q2136.47 209.92 2139.52 205.337 Q2142.6 200.731 2148.41 200.731 Z" fill="#000000" fill-rule="evenodd" fill-opacity="1" /><path clip-path="url(#clip530)" d="M2168.57 230.036 L2173.46 230.036 L2173.46 235.916 L2168.57 235.916 L2168.57 230.036 Z" fill="#000000" fill-rule="evenodd" fill-opacity="1" /><path clip-path="url(#clip530)" d="M2197.81 217.282 Q2201.17 217.999 2203.04 220.268 Q2204.94 222.536 2204.94 225.869 Q2204.94 230.985 2201.42 233.786 Q2197.9 236.587 2191.42 236.587 Q2189.24 236.587 2186.93 236.147 Q2184.64 235.731 2182.18 234.874 L2182.18 230.36 Q2184.13 231.494 2186.44 232.073 Q2188.76 232.652 2191.28 232.652 Q2195.68 232.652 2197.97 230.916 Q2200.29 229.18 2200.29 225.869 Q2200.29 222.814 2198.13 221.101 Q2196 219.365 2192.18 219.365 L2188.16 219.365 L2188.16 215.522 L2192.37 215.522 Q2195.82 215.522 2197.65 214.157 Q2199.48 212.768 2199.48 210.175 Q2199.48 207.513 2197.58 206.101 Q2195.7 204.666 2192.18 204.666 Q2190.26 204.666 2188.06 205.083 Q2185.86 205.499 2183.23 206.379 L2183.23 202.212 Q2185.89 201.471 2188.2 201.101 Q2190.54 200.731 2192.6 200.731 Q2197.92 200.731 2201.03 203.161 Q2204.13 205.569 2204.13 209.689 Q2204.13 212.559 2202.48 214.55 Q2200.84 216.518 2197.81 217.282 Z" fill="#000000" fill-rule="evenodd" fill-opacity="1" /><path clip-path="url(#clip530)" d="M2227.97 217.282 Q2231.33 217.999 2233.2 220.268 Q2235.1 222.536 2235.1 225.869 Q2235.1 230.985 2231.58 233.786 Q2228.06 236.587 2221.58 236.587 Q2219.41 236.587 2217.09 236.147 Q2214.8 235.731 2212.35 234.874 L2212.35 230.36 Q2214.29 231.494 2216.61 232.073 Q2218.92 232.652 2221.44 232.652 Q2225.84 232.652 2228.13 230.916 Q2230.45 229.18 2230.45 225.869 Q2230.45 222.814 2228.29 221.101 Q2226.17 219.365 2222.35 219.365 L2218.32 219.365 L2218.32 215.522 L2222.53 215.522 Q2225.98 215.522 2227.81 214.157 Q2229.64 212.768 2229.64 210.175 Q2229.64 207.513 2227.74 206.101 Q2225.86 204.666 2222.35 204.666 Q2220.42 204.666 2218.23 205.083 Q2216.03 205.499 2213.39 206.379 L2213.39 202.212 Q2216.05 201.471 2218.36 201.101 Q2220.7 200.731 2222.76 200.731 Q2228.09 200.731 2231.19 203.161 Q2234.29 205.569 2234.29 209.689 Q2234.29 212.559 2232.65 214.55 Q2231 216.518 2227.97 217.282 Z" fill="#000000" fill-rule="evenodd" fill-opacity="1" /><polyline clip-path="url(#clip530)" style="stroke:#e26f46; stroke-linecap:butt; stroke-linejoin:round; stroke-width:4; stroke-opacity:1; fill:none" points="
  1906.89,270.476 2047.1,270.476 
  "/>
<path clip-path="url(#clip530)" d="M1977 296.076 L1958.9 288.575 L1951.4 270.476 L1958.9 252.377 L1977 244.876 L1995.09 252.377 L2002.6 270.476 L1995.09 288.575 Z" fill="#e26f46" fill-rule="evenodd" fill-opacity="1" stroke="#000000" stroke-opacity="1" stroke-width="5.12"/>
<path clip-path="url(#clip530)" d="M2070.47 251.737 L2074.75 251.737 L2074.75 273.01 L2087.46 261.83 L2092.9 261.83 L2079.15 273.959 L2093.48 287.756 L2087.93 287.756 L2074.75 275.094 L2074.75 287.756 L2070.47 287.756 L2070.47 251.737 Z" fill="#000000" fill-rule="evenodd" fill-opacity="1" /><path clip-path="url(#clip530)" d="M2098.64 266.228 L2128.32 266.228 L2128.32 270.117 L2098.64 270.117 L2098.64 266.228 M2098.64 275.672 L2128.32 275.672 L2128.32 279.608 L2098.64 279.608 L2098.64 275.672 Z" fill="#000000" fill-rule="evenodd" fill-opacity="1" /><path clip-path="url(#clip530)" d="M2148.41 256.274 Q2144.8 256.274 2142.97 259.839 Q2141.17 263.381 2141.17 270.51 Q2141.17 277.617 2142.97 281.182 Q2144.8 284.723 2148.41 284.723 Q2152.05 284.723 2153.85 281.182 Q2155.68 277.617 2155.68 270.51 Q2155.68 263.381 2153.85 259.839 Q2152.05 256.274 2148.41 256.274 M2148.41 252.571 Q2154.22 252.571 2157.28 257.177 Q2160.36 261.76 2160.36 270.51 Q2160.36 279.237 2157.28 283.844 Q2154.22 288.427 2148.41 288.427 Q2142.6 288.427 2139.52 283.844 Q2136.47 279.237 2136.47 270.51 Q2136.47 261.76 2139.52 257.177 Q2142.6 252.571 2148.41 252.571 Z" fill="#000000" fill-rule="evenodd" fill-opacity="1" /><path clip-path="url(#clip530)" d="M2168.57 281.876 L2173.46 281.876 L2173.46 287.756 L2168.57 287.756 L2168.57 281.876 Z" fill="#000000" fill-rule="evenodd" fill-opacity="1" /><path clip-path="url(#clip530)" d="M2194.22 268.612 Q2191.07 268.612 2189.22 270.765 Q2187.39 272.918 2187.39 276.668 Q2187.39 280.395 2189.22 282.571 Q2191.07 284.723 2194.22 284.723 Q2197.37 284.723 2199.2 282.571 Q2201.05 280.395 2201.05 276.668 Q2201.05 272.918 2199.2 270.765 Q2197.37 268.612 2194.22 268.612 M2203.5 253.96 L2203.5 258.219 Q2201.74 257.386 2199.94 256.946 Q2198.16 256.506 2196.4 256.506 Q2191.77 256.506 2189.31 259.631 Q2186.88 262.756 2186.54 269.075 Q2187.9 267.061 2189.96 265.997 Q2192.02 264.909 2194.5 264.909 Q2199.71 264.909 2202.72 268.08 Q2205.75 271.228 2205.75 276.668 Q2205.75 281.992 2202.6 285.209 Q2199.45 288.427 2194.22 288.427 Q2188.23 288.427 2185.05 283.844 Q2181.88 279.237 2181.88 270.51 Q2181.88 262.316 2185.77 257.455 Q2189.66 252.571 2196.21 252.571 Q2197.97 252.571 2199.75 252.918 Q2201.56 253.265 2203.5 253.96 Z" fill="#000000" fill-rule="evenodd" fill-opacity="1" /><path clip-path="url(#clip530)" d="M2224.38 268.612 Q2221.23 268.612 2219.38 270.765 Q2217.55 272.918 2217.55 276.668 Q2217.55 280.395 2219.38 282.571 Q2221.23 284.723 2224.38 284.723 Q2227.53 284.723 2229.36 282.571 Q2231.21 280.395 2231.21 276.668 Q2231.21 272.918 2229.36 270.765 Q2227.53 268.612 2224.38 268.612 M2233.67 253.96 L2233.67 258.219 Q2231.91 257.386 2230.1 256.946 Q2228.32 256.506 2226.56 256.506 Q2221.93 256.506 2219.48 259.631 Q2217.05 262.756 2216.7 269.075 Q2218.06 267.061 2220.12 265.997 Q2222.18 264.909 2224.66 264.909 Q2229.87 264.909 2232.88 268.08 Q2235.91 271.228 2235.91 276.668 Q2235.91 281.992 2232.76 285.209 Q2229.61 288.427 2224.38 288.427 Q2218.39 288.427 2215.22 283.844 Q2212.05 279.237 2212.05 270.51 Q2212.05 262.316 2215.93 257.455 Q2219.82 252.571 2226.37 252.571 Q2228.13 252.571 2229.92 252.918 Q2231.72 253.265 2233.67 253.96 Z" fill="#000000" fill-rule="evenodd" fill-opacity="1" /><polyline clip-path="url(#clip530)" style="stroke:#3da44d; stroke-linecap:butt; stroke-linejoin:round; stroke-width:4; stroke-opacity:1; fill:none" points="
  1906.89,322.316 2047.1,322.316 
  "/>
<path clip-path="url(#clip530)" d="M1977 347.916 L1958.9 340.415 L1951.4 322.316 L1958.9 304.217 L1977 296.716 L1995.09 304.217 L2002.6 322.316 L1995.09 340.415 Z" fill="#3da44d" fill-rule="evenodd" fill-opacity="1" stroke="#000000" stroke-opacity="1" stroke-width="5.12"/>
<path clip-path="url(#clip530)" d="M2070.47 303.577 L2074.75 303.577 L2074.75 324.85 L2087.46 313.67 L2092.9 313.67 L2079.15 325.799 L2093.48 339.596 L2087.93 339.596 L2074.75 326.934 L2074.75 339.596 L2070.47 339.596 L2070.47 303.577 Z" fill="#000000" fill-rule="evenodd" fill-opacity="1" /><path clip-path="url(#clip530)" d="M2098.64 318.068 L2128.32 318.068 L2128.32 321.957 L2098.64 321.957 L2098.64 318.068 M2098.64 327.512 L2128.32 327.512 L2128.32 331.448 L2098.64 331.448 L2098.64 327.512 Z" fill="#000000" fill-rule="evenodd" fill-opacity="1" /><path clip-path="url(#clip530)" d="M2148.41 308.114 Q2144.8 308.114 2142.97 311.679 Q2141.17 315.221 2141.17 322.35 Q2141.17 329.457 2142.97 333.022 Q2144.8 336.563 2148.41 336.563 Q2152.05 336.563 2153.85 333.022 Q2155.68 329.457 2155.68 322.35 Q2155.68 315.221 2153.85 311.679 Q2152.05 308.114 2148.41 308.114 M2148.41 304.411 Q2154.22 304.411 2157.28 309.017 Q2160.36 313.6 2160.36 322.35 Q2160.36 331.077 2157.28 335.684 Q2154.22 340.267 2148.41 340.267 Q2142.6 340.267 2139.52 335.684 Q2136.47 331.077 2136.47 322.35 Q2136.47 313.6 2139.52 309.017 Q2142.6 304.411 2148.41 304.411 Z" fill="#000000" fill-rule="evenodd" fill-opacity="1" /><path clip-path="url(#clip530)" d="M2168.57 333.716 L2173.46 333.716 L2173.46 339.596 L2168.57 339.596 L2168.57 333.716 Z" fill="#000000" fill-rule="evenodd" fill-opacity="1" /><path clip-path="url(#clip530)" d="M2183.78 338.878 L2183.78 334.619 Q2185.54 335.452 2187.35 335.892 Q2189.15 336.332 2190.89 336.332 Q2195.52 336.332 2197.95 333.23 Q2200.4 330.105 2200.75 323.762 Q2199.41 325.753 2197.35 326.818 Q2195.29 327.883 2192.79 327.883 Q2187.6 327.883 2184.57 324.758 Q2181.56 321.61 2181.56 316.17 Q2181.56 310.846 2184.71 307.628 Q2187.86 304.411 2193.09 304.411 Q2199.08 304.411 2202.23 309.017 Q2205.4 313.6 2205.4 322.35 Q2205.4 330.522 2201.51 335.406 Q2197.65 340.267 2191.1 340.267 Q2189.34 340.267 2187.53 339.92 Q2185.73 339.573 2183.78 338.878 M2193.09 324.225 Q2196.23 324.225 2198.06 322.073 Q2199.92 319.92 2199.92 316.17 Q2199.92 312.443 2198.06 310.29 Q2196.23 308.114 2193.09 308.114 Q2189.94 308.114 2188.09 310.29 Q2186.26 312.443 2186.26 316.17 Q2186.26 319.92 2188.09 322.073 Q2189.94 324.225 2193.09 324.225 Z" fill="#000000" fill-rule="evenodd" fill-opacity="1" /><path clip-path="url(#clip530)" d="M2223.8 308.114 Q2220.19 308.114 2218.36 311.679 Q2216.56 315.221 2216.56 322.35 Q2216.56 329.457 2218.36 333.022 Q2220.19 336.563 2223.8 336.563 Q2227.44 336.563 2229.24 333.022 Q2231.07 329.457 2231.07 322.35 Q2231.07 315.221 2229.24 311.679 Q2227.44 308.114 2223.8 308.114 M2223.8 304.411 Q2229.61 304.411 2232.67 309.017 Q2235.75 313.6 2235.75 322.35 Q2235.75 331.077 2232.67 335.684 Q2229.61 340.267 2223.8 340.267 Q2217.99 340.267 2214.92 335.684 Q2211.86 331.077 2211.86 322.35 Q2211.86 313.6 2214.92 309.017 Q2217.99 304.411 2223.8 304.411 Z" fill="#000000" fill-rule="evenodd" fill-opacity="1" /></svg>
