<?xml version="1.0" encoding="utf-8"?>
<svg xmlns="http://www.w3.org/2000/svg" xmlns:xlink="http://www.w3.org/1999/xlink" width="330" height="200" viewBox="0 0 1320 800">
<defs>
  <clipPath id="clip810">
    <rect x="0" y="0" width="1320" height="800"/>
  </clipPath>
</defs>
<path clip-path="url(#clip810)" d="
M0 800 L1320 800 L1320 0 L0 0  Z
  " fill="#ffffff" fill-rule="evenodd" fill-opacity="1"/>
<defs>
  <clipPath id="clip811">
    <rect x="264" y="0" width="925" height="800"/>
  </clipPath>
</defs>
<path clip-path="url(#clip810)" d="
M265.07 638.642 L1272.76 638.642 L1272.76 117.974 L265.07 117.974  Z
  " fill="#ffffff" fill-rule="evenodd" fill-opacity="1"/>
<defs>
  <clipPath id="clip812">
    <rect x="265" y="117" width="1009" height="522"/>
  </clipPath>
</defs>
<polyline clip-path="url(#clip812)" style="stroke:#000000; stroke-linecap:butt; stroke-linejoin:round; stroke-width:2; stroke-opacity:0.1; fill:none" points="
  493.726,638.642 493.726,117.974 
  "/>
<polyline clip-path="url(#clip812)" style="stroke:#000000; stroke-linecap:butt; stroke-linejoin:round; stroke-width:2; stroke-opacity:0.1; fill:none" points="
  743.896,638.642 743.896,117.974 
  "/>
<polyline clip-path="url(#clip812)" style="stroke:#000000; stroke-linecap:butt; stroke-linejoin:round; stroke-width:2; stroke-opacity:0.1; fill:none" points="
  994.066,638.642 994.066,117.974 
  "/>
<polyline clip-path="url(#clip812)" style="stroke:#000000; stroke-linecap:butt; stroke-linejoin:round; stroke-width:2; stroke-opacity:0.1; fill:none" points="
  1244.24,638.642 1244.24,117.974 
  "/>
<polyline clip-path="url(#clip810)" style="stroke:#000000; stroke-linecap:butt; stroke-linejoin:round; stroke-width:4; stroke-opacity:1; fill:none" points="
  265.07,638.642 1272.76,638.642 
  "/>
<polyline clip-path="url(#clip810)" style="stroke:#000000; stroke-linecap:butt; stroke-linejoin:round; stroke-width:4; stroke-opacity:1; fill:none" points="
  493.726,638.642 493.726,619.744 
  "/>
<polyline clip-path="url(#clip810)" style="stroke:#000000; stroke-linecap:butt; stroke-linejoin:round; stroke-width:4; stroke-opacity:1; fill:none" points="
  743.896,638.642 743.896,619.744 
  "/>
<polyline clip-path="url(#clip810)" style="stroke:#000000; stroke-linecap:butt; stroke-linejoin:round; stroke-width:4; stroke-opacity:1; fill:none" points="
  994.066,638.642 994.066,619.744 
  "/>
<polyline clip-path="url(#clip810)" style="stroke:#000000; stroke-linecap:butt; stroke-linejoin:round; stroke-width:4; stroke-opacity:1; fill:none" points="
  1244.24,638.642 1244.24,619.744 
  "/>
<path clip-path="url(#clip810)" d="M453.344 657.842 L471.7 657.842 L471.7 661.777 L457.626 661.777 L457.626 670.249 Q458.645 669.902 459.663 669.74 Q460.682 669.555 461.7 669.555 Q467.487 669.555 470.867 672.726 Q474.247 675.897 474.247 681.314 Q474.247 686.892 470.774 689.994 Q467.302 693.073 460.983 693.073 Q458.807 693.073 456.538 692.703 Q454.293 692.332 451.886 691.591 L451.886 686.892 Q453.969 688.027 456.191 688.582 Q458.413 689.138 460.89 689.138 Q464.895 689.138 467.233 687.031 Q469.571 684.925 469.571 681.314 Q469.571 677.703 467.233 675.596 Q464.895 673.49 460.89 673.49 Q459.015 673.49 457.14 673.906 Q455.288 674.323 453.344 675.203 L453.344 657.842 Z" fill="#000000" fill-rule="evenodd" fill-opacity="1" /><path clip-path="url(#clip810)" d="M493.459 660.92 Q489.848 660.92 488.02 664.485 Q486.214 668.027 486.214 675.156 Q486.214 682.263 488.02 685.828 Q489.848 689.369 493.459 689.369 Q497.094 689.369 498.899 685.828 Q500.728 682.263 500.728 675.156 Q500.728 668.027 498.899 664.485 Q497.094 660.92 493.459 660.92 M493.459 657.217 Q499.27 657.217 502.325 661.823 Q505.404 666.406 505.404 675.156 Q505.404 683.883 502.325 688.49 Q499.27 693.073 493.459 693.073 Q487.649 693.073 484.571 688.49 Q481.515 683.883 481.515 675.156 Q481.515 666.406 484.571 661.823 Q487.649 657.217 493.459 657.217 Z" fill="#000000" fill-rule="evenodd" fill-opacity="1" /><path clip-path="url(#clip810)" d="M523.621 660.92 Q520.01 660.92 518.182 664.485 Q516.376 668.027 516.376 675.156 Q516.376 682.263 518.182 685.828 Q520.01 689.369 523.621 689.369 Q527.256 689.369 529.061 685.828 Q530.89 682.263 530.89 675.156 Q530.89 668.027 529.061 664.485 Q527.256 660.92 523.621 660.92 M523.621 657.217 Q529.431 657.217 532.487 661.823 Q535.566 666.406 535.566 675.156 Q535.566 683.883 532.487 688.49 Q529.431 693.073 523.621 693.073 Q517.811 693.073 514.732 688.49 Q511.677 683.883 511.677 675.156 Q511.677 666.406 514.732 661.823 Q517.811 657.217 523.621 657.217 Z" fill="#000000" fill-rule="evenodd" fill-opacity="1" /><path clip-path="url(#clip810)" d="M688.422 688.466 L696.061 688.466 L696.061 662.101 L687.75 663.768 L687.75 659.508 L696.014 657.842 L700.69 657.842 L700.69 688.466 L708.329 688.466 L708.329 692.402 L688.422 692.402 L688.422 688.466 Z" fill="#000000" fill-rule="evenodd" fill-opacity="1" /><path clip-path="url(#clip810)" d="M727.773 660.92 Q724.162 660.92 722.334 664.485 Q720.528 668.027 720.528 675.156 Q720.528 682.263 722.334 685.828 Q724.162 689.369 727.773 689.369 Q731.408 689.369 733.213 685.828 Q735.042 682.263 735.042 675.156 Q735.042 668.027 733.213 664.485 Q731.408 660.92 727.773 660.92 M727.773 657.217 Q733.583 657.217 736.639 661.823 Q739.718 666.406 739.718 675.156 Q739.718 683.883 736.639 688.49 Q733.583 693.073 727.773 693.073 Q721.963 693.073 718.884 688.49 Q715.829 683.883 715.829 675.156 Q715.829 666.406 718.884 661.823 Q721.963 657.217 727.773 657.217 Z" fill="#000000" fill-rule="evenodd" fill-opacity="1" /><path clip-path="url(#clip810)" d="M757.935 660.92 Q754.324 660.92 752.495 664.485 Q750.69 668.027 750.69 675.156 Q750.69 682.263 752.495 685.828 Q754.324 689.369 757.935 689.369 Q761.569 689.369 763.375 685.828 Q765.204 682.263 765.204 675.156 Q765.204 668.027 763.375 664.485 Q761.569 660.92 757.935 660.92 M757.935 657.217 Q763.745 657.217 766.801 661.823 Q769.88 666.406 769.88 675.156 Q769.88 683.883 766.801 688.49 Q763.745 693.073 757.935 693.073 Q752.125 693.073 749.046 688.49 Q745.991 683.883 745.991 675.156 Q745.991 666.406 749.046 661.823 Q752.125 657.217 757.935 657.217 Z" fill="#000000" fill-rule="evenodd" fill-opacity="1" /><path clip-path="url(#clip810)" d="M788.097 660.92 Q784.486 660.92 782.657 664.485 Q780.852 668.027 780.852 675.156 Q780.852 682.263 782.657 685.828 Q784.486 689.369 788.097 689.369 Q791.731 689.369 793.537 685.828 Q795.366 682.263 795.366 675.156 Q795.366 668.027 793.537 664.485 Q791.731 660.92 788.097 660.92 M788.097 657.217 Q793.907 657.217 796.963 661.823 Q800.041 666.406 800.041 675.156 Q800.041 683.883 796.963 688.49 Q793.907 693.073 788.097 693.073 Q782.287 693.073 779.208 688.49 Q776.153 683.883 776.153 675.156 Q776.153 666.406 779.208 661.823 Q782.287 657.217 788.097 657.217 Z" fill="#000000" fill-rule="evenodd" fill-opacity="1" /><path clip-path="url(#clip810)" d="M938.592 688.466 L946.231 688.466 L946.231 662.101 L937.921 663.768 L937.921 659.508 L946.185 657.842 L950.86 657.842 L950.86 688.466 L958.499 688.466 L958.499 692.402 L938.592 692.402 L938.592 688.466 Z" fill="#000000" fill-rule="evenodd" fill-opacity="1" /><path clip-path="url(#clip810)" d="M967.99 657.842 L986.346 657.842 L986.346 661.777 L972.272 661.777 L972.272 670.249 Q973.291 669.902 974.309 669.74 Q975.328 669.555 976.346 669.555 Q982.133 669.555 985.513 672.726 Q988.893 675.897 988.893 681.314 Q988.893 686.892 985.42 689.994 Q981.948 693.073 975.629 693.073 Q973.453 693.073 971.184 692.703 Q968.939 692.332 966.532 691.591 L966.532 686.892 Q968.615 688.027 970.837 688.582 Q973.059 689.138 975.536 689.138 Q979.541 689.138 981.879 687.031 Q984.217 684.925 984.217 681.314 Q984.217 677.703 981.879 675.596 Q979.541 673.49 975.536 673.49 Q973.661 673.49 971.786 673.906 Q969.934 674.323 967.99 675.203 L967.99 657.842 Z" fill="#000000" fill-rule="evenodd" fill-opacity="1" /><path clip-path="url(#clip810)" d="M1008.11 660.92 Q1004.49 660.92 1002.67 664.485 Q1000.86 668.027 1000.86 675.156 Q1000.86 682.263 1002.67 685.828 Q1004.49 689.369 1008.11 689.369 Q1011.74 689.369 1013.55 685.828 Q1015.37 682.263 1015.37 675.156 Q1015.37 668.027 1013.55 664.485 Q1011.74 660.92 1008.11 660.92 M1008.11 657.217 Q1013.92 657.217 1016.97 661.823 Q1020.05 666.406 1020.05 675.156 Q1020.05 683.883 1016.97 688.49 Q1013.92 693.073 1008.11 693.073 Q1002.3 693.073 999.217 688.49 Q996.161 683.883 996.161 675.156 Q996.161 666.406 999.217 661.823 Q1002.3 657.217 1008.11 657.217 Z" fill="#000000" fill-rule="evenodd" fill-opacity="1" /><path clip-path="url(#clip810)" d="M1038.27 660.92 Q1034.66 660.92 1032.83 664.485 Q1031.02 668.027 1031.02 675.156 Q1031.02 682.263 1032.83 685.828 Q1034.66 689.369 1038.27 689.369 Q1041.9 689.369 1043.71 685.828 Q1045.54 682.263 1045.54 675.156 Q1045.54 668.027 1043.71 664.485 Q1041.9 660.92 1038.27 660.92 M1038.27 657.217 Q1044.08 657.217 1047.13 661.823 Q1050.21 666.406 1050.21 675.156 Q1050.21 683.883 1047.13 688.49 Q1044.08 693.073 1038.27 693.073 Q1032.46 693.073 1029.38 688.49 Q1026.32 683.883 1026.32 675.156 Q1026.32 666.406 1029.38 661.823 Q1032.46 657.217 1038.27 657.217 Z" fill="#000000" fill-rule="evenodd" fill-opacity="1" /><path clip-path="url(#clip810)" d="M1192.85 688.466 L1209.17 688.466 L1209.17 692.402 L1187.22 692.402 L1187.22 688.466 Q1189.88 685.712 1194.47 681.082 Q1199.07 676.43 1200.26 675.087 Q1202.5 672.564 1203.38 670.828 Q1204.28 669.068 1204.28 667.379 Q1204.28 664.624 1202.34 662.888 Q1200.42 661.152 1197.32 661.152 Q1195.12 661.152 1192.66 661.916 Q1190.23 662.68 1187.45 664.231 L1187.45 659.508 Q1190.28 658.374 1192.73 657.795 Q1195.19 657.217 1197.22 657.217 Q1202.59 657.217 1205.79 659.902 Q1208.98 662.587 1208.98 667.078 Q1208.98 669.207 1208.17 671.129 Q1207.38 673.027 1205.28 675.619 Q1204.7 676.291 1201.6 679.508 Q1198.5 682.703 1192.85 688.466 Z" fill="#000000" fill-rule="evenodd" fill-opacity="1" /><path clip-path="url(#clip810)" d="M1228.98 660.92 Q1225.37 660.92 1223.54 664.485 Q1221.74 668.027 1221.74 675.156 Q1221.74 682.263 1223.54 685.828 Q1225.37 689.369 1228.98 689.369 Q1232.62 689.369 1234.42 685.828 Q1236.25 682.263 1236.25 675.156 Q1236.25 668.027 1234.42 664.485 Q1232.62 660.92 1228.98 660.92 M1228.98 657.217 Q1234.79 657.217 1237.85 661.823 Q1240.93 666.406 1240.93 675.156 Q1240.93 683.883 1237.85 688.49 Q1234.79 693.073 1228.98 693.073 Q1223.17 693.073 1220.09 688.49 Q1217.04 683.883 1217.04 675.156 Q1217.04 666.406 1220.09 661.823 Q1223.17 657.217 1228.98 657.217 Z" fill="#000000" fill-rule="evenodd" fill-opacity="1" /><path clip-path="url(#clip810)" d="M1259.14 660.92 Q1255.53 660.92 1253.7 664.485 Q1251.9 668.027 1251.9 675.156 Q1251.9 682.263 1253.7 685.828 Q1255.53 689.369 1259.14 689.369 Q1262.78 689.369 1264.58 685.828 Q1266.41 682.263 1266.41 675.156 Q1266.41 668.027 1264.58 664.485 Q1262.78 660.92 1259.14 660.92 M1259.14 657.217 Q1264.95 657.217 1268.01 661.823 Q1271.09 666.406 1271.09 675.156 Q1271.09 683.883 1268.01 688.49 Q1264.95 693.073 1259.14 693.073 Q1253.33 693.073 1250.25 688.49 Q1247.2 683.883 1247.2 675.156 Q1247.2 666.406 1250.25 661.823 Q1253.33 657.217 1259.14 657.217 Z" fill="#000000" fill-rule="evenodd" fill-opacity="1" /><path clip-path="url(#clip810)" d="M1289.31 660.92 Q1285.69 660.92 1283.87 664.485 Q1282.06 668.027 1282.06 675.156 Q1282.06 682.263 1283.87 685.828 Q1285.69 689.369 1289.31 689.369 Q1292.94 689.369 1294.75 685.828 Q1296.57 682.263 1296.57 675.156 Q1296.57 668.027 1294.75 664.485 Q1292.94 660.92 1289.31 660.92 M1289.31 657.217 Q1295.12 657.217 1298.17 661.823 Q1301.25 666.406 1301.25 675.156 Q1301.25 683.883 1298.17 688.49 Q1295.12 693.073 1289.31 693.073 Q1283.5 693.073 1280.42 688.49 Q1277.36 683.883 1277.36 675.156 Q1277.36 666.406 1280.42 661.823 Q1283.5 657.217 1289.31 657.217 Z" fill="#000000" fill-rule="evenodd" fill-opacity="1" /><path clip-path="url(#clip810)" d="M783.841 745.79 L783.841 767.306 L777.984 767.306 L777.984 745.981 Q777.984 740.92 776.011 738.405 Q774.037 735.891 770.091 735.891 Q765.348 735.891 762.611 738.915 Q759.874 741.938 759.874 747.158 L759.874 767.306 L753.985 767.306 L753.985 731.658 L759.874 731.658 L759.874 737.196 Q761.974 733.981 764.807 732.39 Q767.672 730.798 771.396 730.798 Q777.538 730.798 780.69 734.618 Q783.841 738.405 783.841 745.79 Z" fill="#000000" fill-rule="evenodd" fill-opacity="1" /><polyline clip-path="url(#clip812)" style="stroke:#000000; stroke-linecap:butt; stroke-linejoin:round; stroke-width:2; stroke-opacity:0.1; fill:none" points="
  265.07,623.906 1272.76,623.906 
  "/>
<polyline clip-path="url(#clip812)" style="stroke:#000000; stroke-linecap:butt; stroke-linejoin:round; stroke-width:2; stroke-opacity:0.1; fill:none" points="
  265.07,529.427 1272.76,529.427 
  "/>
<polyline clip-path="url(#clip812)" style="stroke:#000000; stroke-linecap:butt; stroke-linejoin:round; stroke-width:2; stroke-opacity:0.1; fill:none" points="
  265.07,434.947 1272.76,434.947 
  "/>
<polyline clip-path="url(#clip812)" style="stroke:#000000; stroke-linecap:butt; stroke-linejoin:round; stroke-width:2; stroke-opacity:0.1; fill:none" points="
  265.07,340.468 1272.76,340.468 
  "/>
<polyline clip-path="url(#clip812)" style="stroke:#000000; stroke-linecap:butt; stroke-linejoin:round; stroke-width:2; stroke-opacity:0.1; fill:none" points="
  265.07,245.988 1272.76,245.988 
  "/>
<polyline clip-path="url(#clip812)" style="stroke:#000000; stroke-linecap:butt; stroke-linejoin:round; stroke-width:2; stroke-opacity:0.1; fill:none" points="
  265.07,151.509 1272.76,151.509 
  "/>
<polyline clip-path="url(#clip810)" style="stroke:#000000; stroke-linecap:butt; stroke-linejoin:round; stroke-width:4; stroke-opacity:1; fill:none" points="
  265.07,638.642 265.07,117.974 
  "/>
<polyline clip-path="url(#clip810)" style="stroke:#000000; stroke-linecap:butt; stroke-linejoin:round; stroke-width:4; stroke-opacity:1; fill:none" points="
  265.07,623.906 283.968,623.906 
  "/>
<polyline clip-path="url(#clip810)" style="stroke:#000000; stroke-linecap:butt; stroke-linejoin:round; stroke-width:4; stroke-opacity:1; fill:none" points="
  265.07,529.427 283.968,529.427 
  "/>
<polyline clip-path="url(#clip810)" style="stroke:#000000; stroke-linecap:butt; stroke-linejoin:round; stroke-width:4; stroke-opacity:1; fill:none" points="
  265.07,434.947 283.968,434.947 
  "/>
<polyline clip-path="url(#clip810)" style="stroke:#000000; stroke-linecap:butt; stroke-linejoin:round; stroke-width:4; stroke-opacity:1; fill:none" points="
  265.07,340.468 283.968,340.468 
  "/>
<polyline clip-path="url(#clip810)" style="stroke:#000000; stroke-linecap:butt; stroke-linejoin:round; stroke-width:4; stroke-opacity:1; fill:none" points="
  265.07,245.988 283.968,245.988 
  "/>
<polyline clip-path="url(#clip810)" style="stroke:#000000; stroke-linecap:butt; stroke-linejoin:round; stroke-width:4; stroke-opacity:1; fill:none" points="
  265.07,151.509 283.968,151.509 
  "/>
<path clip-path="url(#clip810)" d="M127.771 609.705 Q124.16 609.705 122.331 613.269 Q120.525 616.811 120.525 623.941 Q120.525 631.047 122.331 634.612 Q124.16 638.153 127.771 638.153 Q131.405 638.153 133.21 634.612 Q135.039 631.047 135.039 623.941 Q135.039 616.811 133.21 613.269 Q131.405 609.705 127.771 609.705 M127.771 606.001 Q133.581 606.001 136.636 610.607 Q139.715 615.191 139.715 623.941 Q139.715 632.667 136.636 637.274 Q133.581 641.857 127.771 641.857 Q121.96 641.857 118.882 637.274 Q115.826 632.667 115.826 623.941 Q115.826 615.191 118.882 610.607 Q121.96 606.001 127.771 606.001 Z" fill="#000000" fill-rule="evenodd" fill-opacity="1" /><path clip-path="url(#clip810)" d="M147.933 635.306 L152.817 635.306 L152.817 641.186 L147.933 641.186 L147.933 635.306 Z" fill="#000000" fill-rule="evenodd" fill-opacity="1" /><path clip-path="url(#clip810)" d="M173.002 609.705 Q169.391 609.705 167.562 613.269 Q165.757 616.811 165.757 623.941 Q165.757 631.047 167.562 634.612 Q169.391 638.153 173.002 638.153 Q176.636 638.153 178.442 634.612 Q180.27 631.047 180.27 623.941 Q180.27 616.811 178.442 613.269 Q176.636 609.705 173.002 609.705 M173.002 606.001 Q178.812 606.001 181.868 610.607 Q184.946 615.191 184.946 623.941 Q184.946 632.667 181.868 637.274 Q178.812 641.857 173.002 641.857 Q167.192 641.857 164.113 637.274 Q161.058 632.667 161.058 623.941 Q161.058 615.191 164.113 610.607 Q167.192 606.001 173.002 606.001 Z" fill="#000000" fill-rule="evenodd" fill-opacity="1" /><path clip-path="url(#clip810)" d="M203.164 609.705 Q199.553 609.705 197.724 613.269 Q195.918 616.811 195.918 623.941 Q195.918 631.047 197.724 634.612 Q199.553 638.153 203.164 638.153 Q206.798 638.153 208.604 634.612 Q210.432 631.047 210.432 623.941 Q210.432 616.811 208.604 613.269 Q206.798 609.705 203.164 609.705 M203.164 606.001 Q208.974 606.001 212.029 610.607 Q215.108 615.191 215.108 623.941 Q215.108 632.667 212.029 637.274 Q208.974 641.857 203.164 641.857 Q197.354 641.857 194.275 637.274 Q191.219 632.667 191.219 623.941 Q191.219 615.191 194.275 610.607 Q197.354 606.001 203.164 606.001 Z" fill="#000000" fill-rule="evenodd" fill-opacity="1" /><path clip-path="url(#clip810)" d="M233.326 609.705 Q229.715 609.705 227.886 613.269 Q226.08 616.811 226.08 623.941 Q226.08 631.047 227.886 634.612 Q229.715 638.153 233.326 638.153 Q236.96 638.153 238.765 634.612 Q240.594 631.047 240.594 623.941 Q240.594 616.811 238.765 613.269 Q236.96 609.705 233.326 609.705 M233.326 606.001 Q239.136 606.001 242.191 610.607 Q245.27 615.191 245.27 623.941 Q245.27 632.667 242.191 637.274 Q239.136 641.857 233.326 641.857 Q227.515 641.857 224.437 637.274 Q221.381 632.667 221.381 623.941 Q221.381 615.191 224.437 610.607 Q227.515 606.001 233.326 606.001 Z" fill="#000000" fill-rule="evenodd" fill-opacity="1" /><path clip-path="url(#clip810)" d="M128.997 515.225 Q125.386 515.225 123.558 518.79 Q121.752 522.332 121.752 529.461 Q121.752 536.568 123.558 540.132 Q125.386 543.674 128.997 543.674 Q132.632 543.674 134.437 540.132 Q136.266 536.568 136.266 529.461 Q136.266 522.332 134.437 518.79 Q132.632 515.225 128.997 515.225 M128.997 511.522 Q134.808 511.522 137.863 516.128 Q140.942 520.711 140.942 529.461 Q140.942 538.188 137.863 542.794 Q134.808 547.378 128.997 547.378 Q123.187 547.378 120.109 542.794 Q117.053 538.188 117.053 529.461 Q117.053 520.711 120.109 516.128 Q123.187 511.522 128.997 511.522 Z" fill="#000000" fill-rule="evenodd" fill-opacity="1" /><path clip-path="url(#clip810)" d="M149.159 540.827 L154.044 540.827 L154.044 546.707 L149.159 546.707 L149.159 540.827 Z" fill="#000000" fill-rule="evenodd" fill-opacity="1" /><path clip-path="url(#clip810)" d="M174.229 515.225 Q170.618 515.225 168.789 518.79 Q166.983 522.332 166.983 529.461 Q166.983 536.568 168.789 540.132 Q170.618 543.674 174.229 543.674 Q177.863 543.674 179.669 540.132 Q181.497 536.568 181.497 529.461 Q181.497 522.332 179.669 518.79 Q177.863 515.225 174.229 515.225 M174.229 511.522 Q180.039 511.522 183.094 516.128 Q186.173 520.711 186.173 529.461 Q186.173 538.188 183.094 542.794 Q180.039 547.378 174.229 547.378 Q168.419 547.378 165.34 542.794 Q162.284 538.188 162.284 529.461 Q162.284 520.711 165.34 516.128 Q168.419 511.522 174.229 511.522 Z" fill="#000000" fill-rule="evenodd" fill-opacity="1" /><path clip-path="url(#clip810)" d="M204.391 515.225 Q200.78 515.225 198.951 518.79 Q197.145 522.332 197.145 529.461 Q197.145 536.568 198.951 540.132 Q200.78 543.674 204.391 543.674 Q208.025 543.674 209.83 540.132 Q211.659 536.568 211.659 529.461 Q211.659 522.332 209.83 518.79 Q208.025 515.225 204.391 515.225 M204.391 511.522 Q210.201 511.522 213.256 516.128 Q216.335 520.711 216.335 529.461 Q216.335 538.188 213.256 542.794 Q210.201 547.378 204.391 547.378 Q198.58 547.378 195.502 542.794 Q192.446 538.188 192.446 529.461 Q192.446 520.711 195.502 516.128 Q198.58 511.522 204.391 511.522 Z" fill="#000000" fill-rule="evenodd" fill-opacity="1" /><path clip-path="url(#clip810)" d="M225.363 542.771 L233.002 542.771 L233.002 516.406 L224.691 518.072 L224.691 513.813 L232.955 512.147 L237.631 512.147 L237.631 542.771 L245.27 542.771 L245.27 546.707 L225.363 546.707 L225.363 542.771 Z" fill="#000000" fill-rule="evenodd" fill-opacity="1" /><path clip-path="url(#clip810)" d="M129.368 420.746 Q125.757 420.746 123.928 424.311 Q122.123 427.852 122.123 434.982 Q122.123 442.088 123.928 445.653 Q125.757 449.195 129.368 449.195 Q133.002 449.195 134.808 445.653 Q136.636 442.088 136.636 434.982 Q136.636 427.852 134.808 424.311 Q133.002 420.746 129.368 420.746 M129.368 417.042 Q135.178 417.042 138.234 421.649 Q141.312 426.232 141.312 434.982 Q141.312 443.709 138.234 448.315 Q135.178 452.898 129.368 452.898 Q123.558 452.898 120.479 448.315 Q117.423 443.709 117.423 434.982 Q117.423 426.232 120.479 421.649 Q123.558 417.042 129.368 417.042 Z" fill="#000000" fill-rule="evenodd" fill-opacity="1" /><path clip-path="url(#clip810)" d="M149.53 446.348 L154.414 446.348 L154.414 452.227 L149.53 452.227 L149.53 446.348 Z" fill="#000000" fill-rule="evenodd" fill-opacity="1" /><path clip-path="url(#clip810)" d="M174.599 420.746 Q170.988 420.746 169.159 424.311 Q167.354 427.852 167.354 434.982 Q167.354 442.088 169.159 445.653 Q170.988 449.195 174.599 449.195 Q178.233 449.195 180.039 445.653 Q181.868 442.088 181.868 434.982 Q181.868 427.852 180.039 424.311 Q178.233 420.746 174.599 420.746 M174.599 417.042 Q180.409 417.042 183.465 421.649 Q186.543 426.232 186.543 434.982 Q186.543 443.709 183.465 448.315 Q180.409 452.898 174.599 452.898 Q168.789 452.898 165.71 448.315 Q162.655 443.709 162.655 434.982 Q162.655 426.232 165.71 421.649 Q168.789 417.042 174.599 417.042 Z" fill="#000000" fill-rule="evenodd" fill-opacity="1" /><path clip-path="url(#clip810)" d="M204.761 420.746 Q201.15 420.746 199.321 424.311 Q197.516 427.852 197.516 434.982 Q197.516 442.088 199.321 445.653 Q201.15 449.195 204.761 449.195 Q208.395 449.195 210.201 445.653 Q212.029 442.088 212.029 434.982 Q212.029 427.852 210.201 424.311 Q208.395 420.746 204.761 420.746 M204.761 417.042 Q210.571 417.042 213.627 421.649 Q216.705 426.232 216.705 434.982 Q216.705 443.709 213.627 448.315 Q210.571 452.898 204.761 452.898 Q198.951 452.898 195.872 448.315 Q192.817 443.709 192.817 434.982 Q192.817 426.232 195.872 421.649 Q198.951 417.042 204.761 417.042 Z" fill="#000000" fill-rule="evenodd" fill-opacity="1" /><path clip-path="url(#clip810)" d="M228.951 448.292 L245.27 448.292 L245.27 452.227 L223.326 452.227 L223.326 448.292 Q225.988 445.537 230.571 440.908 Q235.177 436.255 236.358 434.912 Q238.603 432.389 239.483 430.653 Q240.386 428.894 240.386 427.204 Q240.386 424.45 238.441 422.713 Q236.52 420.977 233.418 420.977 Q231.219 420.977 228.765 421.741 Q226.335 422.505 223.557 424.056 L223.557 419.334 Q226.381 418.2 228.835 417.621 Q231.289 417.042 233.326 417.042 Q238.696 417.042 241.89 419.727 Q245.085 422.413 245.085 426.903 Q245.085 429.033 244.275 430.954 Q243.488 432.852 241.381 435.445 Q240.802 436.116 237.701 439.334 Q234.599 442.528 228.951 448.292 Z" fill="#000000" fill-rule="evenodd" fill-opacity="1" /><path clip-path="url(#clip810)" d="M128.419 326.267 Q124.808 326.267 122.979 329.831 Q121.173 333.373 121.173 340.503 Q121.173 347.609 122.979 351.174 Q124.808 354.715 128.419 354.715 Q132.053 354.715 133.859 351.174 Q135.687 347.609 135.687 340.503 Q135.687 333.373 133.859 329.831 Q132.053 326.267 128.419 326.267 M128.419 322.563 Q134.229 322.563 137.284 327.169 Q140.363 331.753 140.363 340.503 Q140.363 349.229 137.284 353.836 Q134.229 358.419 128.419 358.419 Q122.609 358.419 119.53 353.836 Q116.474 349.229 116.474 340.503 Q116.474 331.753 119.53 327.169 Q122.609 322.563 128.419 322.563 Z" fill="#000000" fill-rule="evenodd" fill-opacity="1" /><path clip-path="url(#clip810)" d="M148.581 351.868 L153.465 351.868 L153.465 357.748 L148.581 357.748 L148.581 351.868 Z" fill="#000000" fill-rule="evenodd" fill-opacity="1" /><path clip-path="url(#clip810)" d="M173.65 326.267 Q170.039 326.267 168.21 329.831 Q166.405 333.373 166.405 340.503 Q166.405 347.609 168.21 351.174 Q170.039 354.715 173.65 354.715 Q177.284 354.715 179.09 351.174 Q180.919 347.609 180.919 340.503 Q180.919 333.373 179.09 329.831 Q177.284 326.267 173.65 326.267 M173.65 322.563 Q179.46 322.563 182.516 327.169 Q185.594 331.753 185.594 340.503 Q185.594 349.229 182.516 353.836 Q179.46 358.419 173.65 358.419 Q167.84 358.419 164.761 353.836 Q161.706 349.229 161.706 340.503 Q161.706 331.753 164.761 327.169 Q167.84 322.563 173.65 322.563 Z" fill="#000000" fill-rule="evenodd" fill-opacity="1" /><path clip-path="url(#clip810)" d="M203.812 326.267 Q200.201 326.267 198.372 329.831 Q196.567 333.373 196.567 340.503 Q196.567 347.609 198.372 351.174 Q200.201 354.715 203.812 354.715 Q207.446 354.715 209.252 351.174 Q211.08 347.609 211.08 340.503 Q211.08 333.373 209.252 329.831 Q207.446 326.267 203.812 326.267 M203.812 322.563 Q209.622 322.563 212.678 327.169 Q215.756 331.753 215.756 340.503 Q215.756 349.229 212.678 353.836 Q209.622 358.419 203.812 358.419 Q198.002 358.419 194.923 353.836 Q191.868 349.229 191.868 340.503 Q191.868 331.753 194.923 327.169 Q198.002 322.563 203.812 322.563 Z" fill="#000000" fill-rule="evenodd" fill-opacity="1" /><path clip-path="url(#clip810)" d="M238.14 339.114 Q241.497 339.831 243.372 342.1 Q245.27 344.368 245.27 347.702 Q245.27 352.817 241.752 355.618 Q238.233 358.419 231.752 358.419 Q229.576 358.419 227.261 357.979 Q224.969 357.563 222.516 356.706 L222.516 352.192 Q224.46 353.327 226.775 353.905 Q229.09 354.484 231.613 354.484 Q236.011 354.484 238.302 352.748 Q240.617 351.012 240.617 347.702 Q240.617 344.646 238.464 342.933 Q236.335 341.197 232.515 341.197 L228.488 341.197 L228.488 337.354 L232.701 337.354 Q236.15 337.354 237.978 335.989 Q239.807 334.6 239.807 332.007 Q239.807 329.345 237.909 327.933 Q236.034 326.498 232.515 326.498 Q230.594 326.498 228.395 326.915 Q226.196 327.331 223.557 328.211 L223.557 324.044 Q226.219 323.304 228.534 322.933 Q230.872 322.563 232.932 322.563 Q238.256 322.563 241.358 324.993 Q244.46 327.401 244.46 331.521 Q244.46 334.391 242.816 336.382 Q241.173 338.35 238.14 339.114 Z" fill="#000000" fill-rule="evenodd" fill-opacity="1" /><path clip-path="url(#clip810)" d="M127.285 231.787 Q123.673 231.787 121.845 235.352 Q120.039 238.894 120.039 246.023 Q120.039 253.13 121.845 256.694 Q123.673 260.236 127.285 260.236 Q130.919 260.236 132.724 256.694 Q134.553 253.13 134.553 246.023 Q134.553 238.894 132.724 235.352 Q130.919 231.787 127.285 231.787 M127.285 228.083 Q133.095 228.083 136.15 232.69 Q139.229 237.273 139.229 246.023 Q139.229 254.75 136.15 259.356 Q133.095 263.94 127.285 263.94 Q121.474 263.94 118.396 259.356 Q115.34 254.75 115.34 246.023 Q115.34 237.273 118.396 232.69 Q121.474 228.083 127.285 228.083 Z" fill="#000000" fill-rule="evenodd" fill-opacity="1" /><path clip-path="url(#clip810)" d="M147.446 257.389 L152.331 257.389 L152.331 263.268 L147.446 263.268 L147.446 257.389 Z" fill="#000000" fill-rule="evenodd" fill-opacity="1" /><path clip-path="url(#clip810)" d="M172.516 231.787 Q168.905 231.787 167.076 235.352 Q165.27 238.894 165.27 246.023 Q165.27 253.13 167.076 256.694 Q168.905 260.236 172.516 260.236 Q176.15 260.236 177.956 256.694 Q179.784 253.13 179.784 246.023 Q179.784 238.894 177.956 235.352 Q176.15 231.787 172.516 231.787 M172.516 228.083 Q178.326 228.083 181.381 232.69 Q184.46 237.273 184.46 246.023 Q184.46 254.75 181.381 259.356 Q178.326 263.94 172.516 263.94 Q166.706 263.94 163.627 259.356 Q160.571 254.75 160.571 246.023 Q160.571 237.273 163.627 232.69 Q166.706 228.083 172.516 228.083 Z" fill="#000000" fill-rule="evenodd" fill-opacity="1" /><path clip-path="url(#clip810)" d="M202.678 231.787 Q199.067 231.787 197.238 235.352 Q195.432 238.894 195.432 246.023 Q195.432 253.13 197.238 256.694 Q199.067 260.236 202.678 260.236 Q206.312 260.236 208.117 256.694 Q209.946 253.13 209.946 246.023 Q209.946 238.894 208.117 235.352 Q206.312 231.787 202.678 231.787 M202.678 228.083 Q208.488 228.083 211.543 232.69 Q214.622 237.273 214.622 246.023 Q214.622 254.75 211.543 259.356 Q208.488 263.94 202.678 263.94 Q196.867 263.94 193.789 259.356 Q190.733 254.75 190.733 246.023 Q190.733 237.273 193.789 232.69 Q196.867 228.083 202.678 228.083 Z" fill="#000000" fill-rule="evenodd" fill-opacity="1" /><path clip-path="url(#clip810)" d="M235.687 232.783 L223.881 251.232 L235.687 251.232 L235.687 232.783 M234.46 228.708 L240.339 228.708 L240.339 251.232 L245.27 251.232 L245.27 255.12 L240.339 255.12 L240.339 263.268 L235.687 263.268 L235.687 255.12 L220.085 255.12 L220.085 250.607 L234.46 228.708 Z" fill="#000000" fill-rule="evenodd" fill-opacity="1" /><path clip-path="url(#clip810)" d="M128.766 137.308 Q125.155 137.308 123.326 140.873 Q121.521 144.414 121.521 151.544 Q121.521 158.65 123.326 162.215 Q125.155 165.757 128.766 165.757 Q132.4 165.757 134.206 162.215 Q136.034 158.65 136.034 151.544 Q136.034 144.414 134.206 140.873 Q132.4 137.308 128.766 137.308 M128.766 133.604 Q134.576 133.604 137.632 138.211 Q140.71 142.794 140.71 151.544 Q140.71 160.271 137.632 164.877 Q134.576 169.46 128.766 169.46 Q122.956 169.46 119.877 164.877 Q116.822 160.271 116.822 151.544 Q116.822 142.794 119.877 138.211 Q122.956 133.604 128.766 133.604 Z" fill="#000000" fill-rule="evenodd" fill-opacity="1" /><path clip-path="url(#clip810)" d="M148.928 162.91 L153.812 162.91 L153.812 168.789 L148.928 168.789 L148.928 162.91 Z" fill="#000000" fill-rule="evenodd" fill-opacity="1" /><path clip-path="url(#clip810)" d="M173.997 137.308 Q170.386 137.308 168.557 140.873 Q166.752 144.414 166.752 151.544 Q166.752 158.65 168.557 162.215 Q170.386 165.757 173.997 165.757 Q177.631 165.757 179.437 162.215 Q181.266 158.65 181.266 151.544 Q181.266 144.414 179.437 140.873 Q177.631 137.308 173.997 137.308 M173.997 133.604 Q179.807 133.604 182.863 138.211 Q185.942 142.794 185.942 151.544 Q185.942 160.271 182.863 164.877 Q179.807 169.46 173.997 169.46 Q168.187 169.46 165.108 164.877 Q162.053 160.271 162.053 151.544 Q162.053 142.794 165.108 138.211 Q168.187 133.604 173.997 133.604 Z" fill="#000000" fill-rule="evenodd" fill-opacity="1" /><path clip-path="url(#clip810)" d="M204.159 137.308 Q200.548 137.308 198.719 140.873 Q196.914 144.414 196.914 151.544 Q196.914 158.65 198.719 162.215 Q200.548 165.757 204.159 165.757 Q207.793 165.757 209.599 162.215 Q211.428 158.65 211.428 151.544 Q211.428 144.414 209.599 140.873 Q207.793 137.308 204.159 137.308 M204.159 133.604 Q209.969 133.604 213.025 138.211 Q216.104 142.794 216.104 151.544 Q216.104 160.271 213.025 164.877 Q209.969 169.46 204.159 169.46 Q198.349 169.46 195.27 164.877 Q192.215 160.271 192.215 151.544 Q192.215 142.794 195.27 138.211 Q198.349 133.604 204.159 133.604 Z" fill="#000000" fill-rule="evenodd" fill-opacity="1" /><path clip-path="url(#clip810)" d="M224.367 134.229 L242.724 134.229 L242.724 138.164 L228.65 138.164 L228.65 146.636 Q229.668 146.289 230.687 146.127 Q231.705 145.942 232.724 145.942 Q238.511 145.942 241.89 149.113 Q245.27 152.285 245.27 157.701 Q245.27 163.28 241.798 166.382 Q238.326 169.46 232.006 169.46 Q229.83 169.46 227.562 169.09 Q225.316 168.72 222.909 167.979 L222.909 163.28 Q224.992 164.414 227.215 164.97 Q229.437 165.525 231.914 165.525 Q235.918 165.525 238.256 163.419 Q240.594 161.312 240.594 157.701 Q240.594 154.09 238.256 151.984 Q235.918 149.877 231.914 149.877 Q230.039 149.877 228.164 150.294 Q226.312 150.711 224.367 151.59 L224.367 134.229 Z" fill="#000000" fill-rule="evenodd" fill-opacity="1" /><path clip-path="url(#clip810)" d="M58.5904 694.286 L76.0006 694.286 L76.0006 683.973 Q76.0006 678.785 73.8681 676.302 Q71.7038 673.788 67.2796 673.788 Q62.8236 673.788 60.7229 676.302 Q58.5904 678.785 58.5904 683.973 L58.5904 694.286 M39.0477 694.286 L53.3705 694.286 L53.3705 684.769 Q53.3705 680.058 51.62 677.767 Q49.8376 675.443 46.2091 675.443 Q42.6125 675.443 40.8301 677.767 Q39.0477 680.058 39.0477 684.769 L39.0477 694.286 M33.7642 700.715 L33.7642 684.291 Q33.7642 676.939 36.8197 672.96 Q39.8752 668.982 45.5089 668.982 Q49.8694 668.982 52.4475 671.019 Q55.0256 673.056 55.6622 677.003 Q56.6807 672.26 59.9272 669.65 Q63.1419 667.009 67.9798 667.009 Q74.3455 667.009 77.8148 671.337 Q81.2842 675.666 81.2842 683.655 L81.2842 700.715 L33.7642 700.715 Z" fill="#000000" fill-rule="evenodd" fill-opacity="1" /><path clip-path="url(#clip810)" d="M49.7421 642.437 Q49.7421 647.148 53.4342 649.885 Q57.0945 652.622 63.492 652.622 Q69.8895 652.622 73.5817 649.917 Q77.2419 647.179 77.2419 642.437 Q77.2419 637.758 73.5498 635.021 Q69.8577 632.284 63.492 632.284 Q57.1581 632.284 53.466 635.021 Q49.7421 637.758 49.7421 642.437 M44.7768 642.437 Q44.7768 634.798 49.7421 630.438 Q54.7073 626.077 63.492 626.077 Q72.2449 626.077 77.2419 630.438 Q82.2072 634.798 82.2072 642.437 Q82.2072 650.108 77.2419 654.468 Q72.2449 658.797 63.492 658.797 Q54.7073 658.797 49.7421 654.468 Q44.7768 650.108 44.7768 642.437 Z" fill="#000000" fill-rule="evenodd" fill-opacity="1" /><path clip-path="url(#clip810)" d="M35.5147 610.577 L45.6362 610.577 L45.6362 598.514 L50.1877 598.514 L50.1877 610.577 L69.5394 610.577 Q73.8999 610.577 75.1413 609.399 Q76.3826 608.189 76.3826 604.529 L76.3826 598.514 L81.2842 598.514 L81.2842 604.529 Q81.2842 611.309 78.7697 613.887 Q76.2234 616.465 69.5394 616.465 L50.1877 616.465 L50.1877 620.762 L45.6362 620.762 L45.6362 616.465 L35.5147 616.465 L35.5147 610.577 Z" fill="#000000" fill-rule="evenodd" fill-opacity="1" /><path clip-path="url(#clip810)" d="M35.5147 585.018 L45.6362 585.018 L45.6362 572.955 L50.1877 572.955 L50.1877 585.018 L69.5394 585.018 Q73.8999 585.018 75.1413 583.841 Q76.3826 582.631 76.3826 578.971 L76.3826 572.955 L81.2842 572.955 L81.2842 578.971 Q81.2842 585.75 78.7697 588.328 Q76.2234 590.906 69.5394 590.906 L50.1877 590.906 L50.1877 595.203 L45.6362 595.203 L45.6362 590.906 L35.5147 590.906 L35.5147 585.018 Z" fill="#000000" fill-rule="evenodd" fill-opacity="1" /><path clip-path="url(#clip810)" d="M31.759 565.253 L31.759 559.396 L81.2842 559.396 L81.2842 565.253 L31.759 565.253 Z" fill="#000000" fill-rule="evenodd" fill-opacity="1" /><path clip-path="url(#clip810)" d="M61.9961 516.651 L64.8606 516.651 L64.8606 543.577 Q70.9081 543.196 74.0909 539.949 Q77.2419 536.671 77.2419 530.846 Q77.2419 527.472 76.4144 524.321 Q75.5869 521.138 73.9318 518.019 L79.4699 518.019 Q80.8067 521.17 81.507 524.48 Q82.2072 527.791 82.2072 531.196 Q82.2072 539.726 77.2419 544.723 Q72.2767 549.689 63.8103 549.689 Q55.0574 549.689 49.9331 544.978 Q44.7768 540.235 44.7768 532.215 Q44.7768 525.021 49.4238 520.852 Q54.0389 516.651 61.9961 516.651 M60.2773 522.507 Q55.4712 522.571 52.6066 525.212 Q49.7421 527.822 49.7421 532.151 Q49.7421 537.053 52.5112 540.013 Q55.2802 542.941 60.3092 543.386 L60.2773 522.507 Z" fill="#000000" fill-rule="evenodd" fill-opacity="1" /><path clip-path="url(#clip810)" d="M59.7681 477.406 L81.2842 477.406 L81.2842 483.262 L59.959 483.262 Q54.8983 483.262 52.3838 485.236 Q49.8694 487.209 49.8694 491.156 Q49.8694 495.898 52.8931 498.636 Q55.9168 501.373 61.1367 501.373 L81.2842 501.373 L81.2842 507.261 L45.6362 507.261 L45.6362 501.373 L51.1744 501.373 Q47.9597 499.272 46.3683 496.439 Q44.7768 493.575 44.7768 489.851 Q44.7768 483.708 48.5963 480.557 Q52.3838 477.406 59.7681 477.406 Z" fill="#000000" fill-rule="evenodd" fill-opacity="1" /><path clip-path="url(#clip810)" d="M61.9961 435.233 L64.8606 435.233 L64.8606 462.16 Q70.9081 461.778 74.0909 458.532 Q77.2419 455.253 77.2419 449.429 Q77.2419 446.055 76.4144 442.904 Q75.5869 439.721 73.9318 436.602 L79.4699 436.602 Q80.8067 439.753 81.507 443.063 Q82.2072 446.373 82.2072 449.779 Q82.2072 458.309 77.2419 463.306 Q72.2767 468.271 63.8103 468.271 Q55.0574 468.271 49.9331 463.561 Q44.7768 458.818 44.7768 450.797 Q44.7768 443.604 49.4238 439.435 Q54.0389 435.233 61.9961 435.233 M60.2773 441.09 Q55.4712 441.153 52.6066 443.795 Q49.7421 446.405 49.7421 450.734 Q49.7421 455.635 52.5112 458.595 Q55.2802 461.524 60.3092 461.969 L60.2773 441.09 Z" fill="#000000" fill-rule="evenodd" fill-opacity="1" /><path clip-path="url(#clip810)" d="M47.0048 399.967 L52.4793 399.967 Q51.1107 402.45 50.4423 404.964 Q49.7421 407.447 49.7421 409.993 Q49.7421 415.69 53.3705 418.841 Q56.9672 421.992 63.492 421.992 Q70.0169 421.992 73.6453 418.841 Q77.2419 415.69 77.2419 409.993 Q77.2419 407.447 76.5735 404.964 Q75.8733 402.45 74.5047 399.967 L79.9155 399.967 Q81.0614 402.418 81.6343 405.06 Q82.2072 407.67 82.2072 410.63 Q82.2072 418.682 77.1464 423.425 Q72.0857 428.167 63.492 428.167 Q54.771 428.167 49.7739 423.393 Q44.7768 418.587 44.7768 410.248 Q44.7768 407.542 45.3497 404.964 Q45.8908 402.386 47.0048 399.967 Z" fill="#000000" fill-rule="evenodd" fill-opacity="1" /><path clip-path="url(#clip810)" d="M31.759 390.005 L31.759 384.117 L61.0094 384.117 L45.6362 366.643 L45.6362 359.163 L62.3144 378.069 L81.2842 358.367 L81.2842 366.006 L63.8739 384.117 L81.2842 384.117 L81.2842 390.005 L31.759 390.005 Z" fill="#000000" fill-rule="evenodd" fill-opacity="1" /><path clip-path="url(#clip810)" d="M39.0477 324.629 L76.0006 324.629 L76.0006 316.863 Q76.0006 307.028 71.5446 302.476 Q67.0886 297.893 57.4764 297.893 Q47.9279 297.893 43.5037 302.476 Q39.0477 307.028 39.0477 316.863 L39.0477 324.629 M33.7642 331.058 L33.7642 317.85 Q33.7642 304.036 39.5251 297.575 Q45.2543 291.114 57.4764 291.114 Q69.7622 291.114 75.5232 297.607 Q81.2842 304.1 81.2842 317.85 L81.2842 331.058 L33.7642 331.058 Z" fill="#000000" fill-rule="evenodd" fill-opacity="1" /><path clip-path="url(#clip810)" d="M45.6362 281.119 L45.6362 275.263 L81.2842 275.263 L81.2842 281.119 L45.6362 281.119 M31.759 281.119 L31.759 275.263 L39.175 275.263 L39.175 281.119 L31.759 281.119 Z" fill="#000000" fill-rule="evenodd" fill-opacity="1" /><path clip-path="url(#clip810)" d="M46.6865 240.283 L52.2247 240.283 Q50.9516 242.766 50.315 245.44 Q49.6784 248.113 49.6784 250.978 Q49.6784 255.338 51.0152 257.534 Q52.352 259.699 55.0256 259.699 Q57.0626 259.699 58.2403 258.139 Q59.3861 256.58 60.4365 251.869 L60.8821 249.864 Q62.2189 243.625 64.6697 241.015 Q67.0886 238.374 71.4491 238.374 Q76.4144 238.374 79.3108 242.32 Q82.2072 246.235 82.2072 253.11 Q82.2072 255.975 81.6343 259.094 Q81.0932 262.181 79.9792 265.619 L73.9318 265.619 Q75.6187 262.372 76.478 259.221 Q77.3056 256.07 77.3056 252.983 Q77.3056 248.845 75.9051 246.617 Q74.4729 244.389 71.8947 244.389 Q69.5076 244.389 68.2345 246.013 Q66.9613 247.604 65.7837 253.047 L65.3062 255.084 Q64.1604 260.526 61.8051 262.945 Q59.418 265.364 55.2802 265.364 Q50.2513 265.364 47.5141 261.799 Q44.7768 258.235 44.7768 251.678 Q44.7768 248.431 45.2543 245.567 Q45.7317 242.702 46.6865 240.283 Z" fill="#000000" fill-rule="evenodd" fill-opacity="1" /><path clip-path="url(#clip810)" d="M35.5147 223.255 L45.6362 223.255 L45.6362 211.192 L50.1877 211.192 L50.1877 223.255 L69.5394 223.255 Q73.8999 223.255 75.1413 222.077 Q76.3826 220.868 76.3826 217.208 L76.3826 211.192 L81.2842 211.192 L81.2842 217.208 Q81.2842 223.987 78.7697 226.565 Q76.2234 229.143 69.5394 229.143 L50.1877 229.143 L50.1877 233.44 L45.6362 233.44 L45.6362 229.143 L35.5147 229.143 L35.5147 223.255 Z" fill="#000000" fill-rule="evenodd" fill-opacity="1" /><path clip-path="url(#clip810)" d="M63.3647 187.289 Q63.3647 194.387 64.9879 197.124 Q66.6112 199.861 70.5261 199.861 Q73.6453 199.861 75.4914 197.824 Q77.3056 195.755 77.3056 192.222 Q77.3056 187.353 73.8681 184.424 Q70.3988 181.464 64.6697 181.464 L63.3647 181.464 L63.3647 187.289 M60.9457 175.608 L81.2842 175.608 L81.2842 181.464 L75.8733 181.464 Q79.1198 183.469 80.6794 186.461 Q82.2072 189.453 82.2072 193.782 Q82.2072 199.256 79.1516 202.503 Q76.0643 205.718 70.9081 205.718 Q64.8925 205.718 61.8369 201.707 Q58.7814 197.665 58.7814 189.676 L58.7814 181.464 L58.2085 181.464 Q54.1662 181.464 51.9701 184.138 Q49.7421 186.78 49.7421 191.586 Q49.7421 194.641 50.4741 197.538 Q51.2062 200.434 52.6703 203.108 L47.2595 203.108 Q46.0181 199.893 45.4134 196.869 Q44.7768 193.846 44.7768 190.981 Q44.7768 183.247 48.7872 179.427 Q52.7976 175.608 60.9457 175.608 Z" fill="#000000" fill-rule="evenodd" fill-opacity="1" /><path clip-path="url(#clip810)" d="M59.7681 133.912 L81.2842 133.912 L81.2842 139.769 L59.959 139.769 Q54.8983 139.769 52.3838 141.742 Q49.8694 143.716 49.8694 147.662 Q49.8694 152.405 52.8931 155.142 Q55.9168 157.879 61.1367 157.879 L81.2842 157.879 L81.2842 163.768 L45.6362 163.768 L45.6362 157.879 L51.1744 157.879 Q47.9597 155.779 46.3683 152.946 Q44.7768 150.081 44.7768 146.357 Q44.7768 140.214 48.5963 137.063 Q52.3838 133.912 59.7681 133.912 Z" fill="#000000" fill-rule="evenodd" fill-opacity="1" /><path clip-path="url(#clip810)" d="M47.0048 96.5775 L52.4793 96.5775 Q51.1107 99.0602 50.4423 101.575 Q49.7421 104.057 49.7421 106.604 Q49.7421 112.301 53.3705 115.452 Q56.9672 118.603 63.492 118.603 Q70.0169 118.603 73.6453 115.452 Q77.2419 112.301 77.2419 106.604 Q77.2419 104.057 76.5735 101.575 Q75.8733 99.0602 74.5047 96.5775 L79.9155 96.5775 Q81.0614 99.0283 81.6343 101.67 Q82.2072 104.28 82.2072 107.24 Q82.2072 115.293 77.1464 120.035 Q72.0857 124.778 63.492 124.778 Q54.771 124.778 49.7739 120.003 Q44.7768 115.197 44.7768 106.858 Q44.7768 104.153 45.3497 101.575 Q45.8908 98.9965 47.0048 96.5775 Z" fill="#000000" fill-rule="evenodd" fill-opacity="1" /><path clip-path="url(#clip810)" d="M61.9961 55.9007 L64.8606 55.9007 L64.8606 82.8276 Q70.9081 82.4457 74.0909 79.1992 Q77.2419 75.9208 77.2419 70.0962 Q77.2419 66.7224 76.4144 63.5714 Q75.5869 60.3885 73.9318 57.2693 L79.4699 57.2693 Q80.8067 60.4203 81.507 63.7305 Q82.2072 67.0407 82.2072 70.4463 Q82.2072 78.9764 77.2419 83.9734 Q72.2767 88.9387 63.8103 88.9387 Q55.0574 88.9387 49.9331 84.2281 Q44.7768 79.4856 44.7768 71.4648 Q44.7768 64.2716 49.4238 60.102 Q54.0389 55.9007 61.9961 55.9007 M60.2773 61.7571 Q55.4712 61.8208 52.6066 64.4626 Q49.7421 67.0725 49.7421 71.4012 Q49.7421 76.3028 52.5112 79.2628 Q55.2802 82.191 60.3092 82.6366 L60.2773 61.7571 Z" fill="#000000" fill-rule="evenodd" fill-opacity="1" /><path clip-path="url(#clip810)" d="M610.219 34.4165 Q608.72 33.8899 607.221 33.4848 Q603.211 32.4315 598.917 32.4315 Q591.504 32.4315 587.372 36.4419 Q583.523 40.1688 582.794 47.0148 L610.219 47.0148 L610.219 52.8481 L582.794 52.8481 Q583.523 59.6941 587.372 63.421 Q591.504 67.4314 598.917 67.4314 Q604.102 67.4314 607.221 66.3781 L610.219 65.3654 L610.219 72.1304 L607.019 72.8596 Q602.806 73.7508 598.471 73.7508 Q587.615 73.7508 581.295 67.4314 Q574.935 61.1119 574.935 49.9314 Q574.935 38.7509 581.295 32.4315 Q587.615 26.1121 598.471 26.1121 Q602.563 26.1121 607.019 27.0033 Q608.639 27.3274 610.219 27.8135 L610.219 34.4165 Z" fill="#000000" fill-rule="evenodd" fill-opacity="1" /><path clip-path="url(#clip810)" d="M630.19 34.9026 L682.122 34.9026 L682.122 41.7081 L630.19 41.7081 L630.19 34.9026 M630.19 51.4303 L682.122 51.4303 L682.122 58.3168 L630.19 58.3168 L630.19 51.4303 Z" fill="#000000" fill-rule="evenodd" fill-opacity="1" /><path clip-path="url(#clip810)" d="M698.731 9.54393 L706.185 9.54393 L706.185 72.576 L698.731 72.576 L698.731 9.54393 Z" fill="#000000" fill-rule="evenodd" fill-opacity="1" /><path clip-path="url(#clip810)" d="M739.362 32.4315 Q733.366 32.4315 729.882 37.1306 Q726.399 41.7891 726.399 49.9314 Q726.399 58.0738 729.842 62.7728 Q733.326 67.4314 739.362 67.4314 Q745.316 67.4314 748.8 62.7323 Q752.284 58.0333 752.284 49.9314 Q752.284 41.8701 748.8 37.1711 Q745.316 32.4315 739.362 32.4315 M739.362 26.1121 Q749.084 26.1121 754.634 32.4315 Q760.183 38.7509 760.183 49.9314 Q760.183 61.0714 754.634 67.4314 Q749.084 73.7508 739.362 73.7508 Q729.599 73.7508 724.049 67.4314 Q718.54 61.0714 718.54 49.9314 Q718.54 38.7509 724.049 32.4315 Q729.599 26.1121 739.362 26.1121 Z" fill="#000000" fill-rule="evenodd" fill-opacity="1" /><path clip-path="url(#clip810)" d="M802.394 49.3643 Q802.394 41.2625 799.031 36.8065 Q795.71 32.3505 789.674 32.3505 Q783.679 32.3505 780.316 36.8065 Q776.995 41.2625 776.995 49.3643 Q776.995 57.4256 780.316 61.8816 Q783.679 66.3376 789.674 66.3376 Q795.71 66.3376 799.031 61.8816 Q802.394 57.4256 802.394 49.3643 M809.847 66.9452 Q809.847 78.5308 804.703 84.1616 Q799.558 89.8329 788.945 89.8329 Q785.015 89.8329 781.532 89.2252 Q778.048 88.6581 774.767 87.4428 L774.767 80.1917 Q778.048 81.9741 781.248 82.8248 Q784.448 83.6755 787.77 83.6755 Q795.102 83.6755 798.748 79.8271 Q802.394 76.0193 802.394 68.282 L802.394 64.5957 Q800.085 68.6061 796.479 70.5911 Q792.874 72.576 787.851 72.576 Q779.506 72.576 774.402 66.2161 Q769.298 59.8562 769.298 49.3643 Q769.298 38.832 774.402 32.472 Q779.506 26.1121 787.851 26.1121 Q792.874 26.1121 796.479 28.0971 Q800.085 30.082 802.394 34.0924 L802.394 27.2059 L809.847 27.2059 L809.847 66.9452 Z" fill="#000000" fill-rule="evenodd" fill-opacity="1" /><path clip-path="url(#clip810)" d="M822.122 10.2326 L826.861 10.2326 L826.861 31.0542 L840.877 20.1168 L846.873 20.1168 L831.682 31.9859 L847.48 45.516 L841.363 45.516 L826.861 33.1202 L826.861 45.516 L822.122 45.516 L822.122 10.2326 Z" fill="#000000" fill-rule="evenodd" fill-opacity="1" /><path clip-path="url(#clip810)" d="M878.429 9.62495 Q873.001 18.942 870.368 28.0566 Q867.735 37.1711 867.735 46.5287 Q867.735 55.8863 870.368 65.0818 Q873.041 74.2369 878.429 83.5134 L871.948 83.5134 Q865.871 73.9938 862.833 64.7983 Q859.836 55.6027 859.836 46.5287 Q859.836 37.4952 862.833 28.3401 Q865.831 19.1851 871.948 9.62495 L878.429 9.62495 Z" fill="#000000" fill-rule="evenodd" fill-opacity="1" /><path clip-path="url(#clip810)" d="M930.605 45.1919 L930.605 72.576 L923.151 72.576 L923.151 45.4349 Q923.151 38.994 920.64 35.7938 Q918.128 32.5936 913.105 32.5936 Q907.069 32.5936 903.585 36.4419 Q900.101 40.2903 900.101 46.9338 L900.101 72.576 L892.607 72.576 L892.607 27.2059 L900.101 27.2059 L900.101 34.2544 Q902.775 30.163 906.38 28.1376 Q910.026 26.1121 914.766 26.1121 Q922.584 26.1121 926.594 30.9732 Q930.605 35.7938 930.605 45.1919 Z" fill="#000000" fill-rule="evenodd" fill-opacity="1" /><path clip-path="url(#clip810)" d="M944.297 9.62495 L950.778 9.62495 Q956.855 19.1851 959.852 28.3401 Q962.891 37.4952 962.891 46.5287 Q962.891 55.6027 959.852 64.7983 Q956.855 73.9938 950.778 83.5134 L944.297 83.5134 Q949.685 74.2369 952.318 65.0818 Q954.991 55.8863 954.991 46.5287 Q954.991 37.1711 952.318 28.0566 Q949.685 18.942 944.297 9.62495 Z" fill="#000000" fill-rule="evenodd" fill-opacity="1" /><polyline clip-path="url(#clip812)" style="stroke:#009af9; stroke-linecap:butt; stroke-linejoin:round; stroke-width:12; stroke-opacity:1; fill:none" points="
  293.589,132.71 343.623,437.058 443.692,370.702 543.76,534.688 643.828,545.624 743.896,539.662 1244.24,579.617 
  "/>
<path clip-path="url(#clip812)" d="M293.589 148.71 L282.277 144.022 L277.589 132.71 L282.277 121.398 L293.589 116.71 L304.901 121.398 L309.589 132.71 L304.901 144.022 Z" fill="#009af9" fill-rule="evenodd" fill-opacity="1" stroke="#000000" stroke-opacity="1" stroke-width="1.6"/>
<path clip-path="url(#clip812)" d="M343.623 453.058 L332.311 448.37 L327.623 437.058 L332.311 425.746 L343.623 421.058 L354.935 425.746 L359.623 437.058 L354.935 448.37 Z" fill="#009af9" fill-rule="evenodd" fill-opacity="1" stroke="#000000" stroke-opacity="1" stroke-width="1.6"/>
<path clip-path="url(#clip812)" d="M443.692 386.702 L432.38 382.014 L427.692 370.702 L432.38 359.39 L443.692 354.702 L455.004 359.39 L459.692 370.702 L455.004 382.014 Z" fill="#009af9" fill-rule="evenodd" fill-opacity="1" stroke="#000000" stroke-opacity="1" stroke-width="1.6"/>
<path clip-path="url(#clip812)" d="M543.76 550.688 L532.448 546 L527.76 534.688 L532.448 523.376 L543.76 518.688 L555.072 523.376 L559.76 534.688 L555.072 546 Z" fill="#009af9" fill-rule="evenodd" fill-opacity="1" stroke="#000000" stroke-opacity="1" stroke-width="1.6"/>
<path clip-path="url(#clip812)" d="M643.828 561.624 L632.516 556.936 L627.828 545.624 L632.516 534.312 L643.828 529.624 L655.14 534.312 L659.828 545.624 L655.14 556.936 Z" fill="#009af9" fill-rule="evenodd" fill-opacity="1" stroke="#000000" stroke-opacity="1" stroke-width="1.6"/>
<path clip-path="url(#clip812)" d="M743.896 555.662 L732.584 550.974 L727.896 539.662 L732.584 528.35 L743.896 523.662 L755.208 528.35 L759.896 539.662 L755.208 550.974 Z" fill="#009af9" fill-rule="evenodd" fill-opacity="1" stroke="#000000" stroke-opacity="1" stroke-width="1.6"/>
<path clip-path="url(#clip812)" d="M1244.24 595.617 L1232.92 590.929 L1228.24 579.617 L1232.92 568.305 L1244.24 563.617 L1255.55 568.305 L1260.24 579.617 L1255.55 590.929 Z" fill="#009af9" fill-rule="evenodd" fill-opacity="1" stroke="#000000" stroke-opacity="1" stroke-width="1.6"/>
<polyline clip-path="url(#clip812)" style="stroke:#e26f46; stroke-linecap:butt; stroke-linejoin:round; stroke-width:12; stroke-opacity:1; fill:none" points="
  293.589,461.17 343.623,359.375 443.692,574.256 543.76,595.294 643.828,598.772 743.896,604.939 1244.24,606.643 
  "/>
<path clip-path="url(#clip812)" d="M293.589 477.17 L282.277 472.482 L277.589 461.17 L282.277 449.858 L293.589 445.17 L304.901 449.858 L309.589 461.17 L304.901 472.482 Z" fill="#e26f46" fill-rule="evenodd" fill-opacity="1" stroke="#000000" stroke-opacity="1" stroke-width="1.6"/>
<path clip-path="url(#clip812)" d="M343.623 375.375 L332.311 370.687 L327.623 359.375 L332.311 348.063 L343.623 343.375 L354.935 348.063 L359.623 359.375 L354.935 370.687 Z" fill="#e26f46" fill-rule="evenodd" fill-opacity="1" stroke="#000000" stroke-opacity="1" stroke-width="1.6"/>
<path clip-path="url(#clip812)" d="M443.692 590.256 L432.38 585.568 L427.692 574.256 L432.38 562.944 L443.692 558.256 L455.004 562.944 L459.692 574.256 L455.004 585.568 Z" fill="#e26f46" fill-rule="evenodd" fill-opacity="1" stroke="#000000" stroke-opacity="1" stroke-width="1.6"/>
<path clip-path="url(#clip812)" d="M543.76 611.294 L532.448 606.606 L527.76 595.294 L532.448 583.982 L543.76 579.294 L555.072 583.982 L559.76 595.294 L555.072 606.606 Z" fill="#e26f46" fill-rule="evenodd" fill-opacity="1" stroke="#000000" stroke-opacity="1" stroke-width="1.6"/>
<path clip-path="url(#clip812)" d="M643.828 614.772 L632.516 610.084 L627.828 598.772 L632.516 587.46 L643.828 582.772 L655.14 587.46 L659.828 598.772 L655.14 610.084 Z" fill="#e26f46" fill-rule="evenodd" fill-opacity="1" stroke="#000000" stroke-opacity="1" stroke-width="1.6"/>
<path clip-path="url(#clip812)" d="M743.896 620.939 L732.584 616.251 L727.896 604.939 L732.584 593.627 L743.896 588.939 L755.208 593.627 L759.896 604.939 L755.208 616.251 Z" fill="#e26f46" fill-rule="evenodd" fill-opacity="1" stroke="#000000" stroke-opacity="1" stroke-width="1.6"/>
<path clip-path="url(#clip812)" d="M1244.24 622.643 L1232.92 617.955 L1228.24 606.643 L1232.92 595.331 L1244.24 590.643 L1255.55 595.331 L1260.24 606.643 L1255.55 617.955 Z" fill="#e26f46" fill-rule="evenodd" fill-opacity="1" stroke="#000000" stroke-opacity="1" stroke-width="1.6"/>
<polyline clip-path="url(#clip812)" style="stroke:#3da44d; stroke-linecap:butt; stroke-linejoin:round; stroke-width:12; stroke-opacity:1; fill:none" points="
  293.589,623.658 343.623,623.874 443.692,623.901 543.76,623.904 643.828,623.905 743.896,623.905 1244.24,623.906 
  "/>
<path clip-path="url(#clip812)" d="M293.589 639.658 L282.277 634.97 L277.589 623.658 L282.277 612.346 L293.589 607.658 L304.901 612.346 L309.589 623.658 L304.901 634.97 Z" fill="#3da44d" fill-rule="evenodd" fill-opacity="1" stroke="#000000" stroke-opacity="1" stroke-width="1.6"/>
<path clip-path="url(#clip812)" d="M343.623 639.874 L332.311 635.186 L327.623 623.874 L332.311 612.562 L343.623 607.874 L354.935 612.562 L359.623 623.874 L354.935 635.186 Z" fill="#3da44d" fill-rule="evenodd" fill-opacity="1" stroke="#000000" stroke-opacity="1" stroke-width="1.6"/>
<path clip-path="url(#clip812)" d="M443.692 639.901 L432.38 635.213 L427.692 623.901 L432.38 612.589 L443.692 607.901 L455.004 612.589 L459.692 623.901 L455.004 635.213 Z" fill="#3da44d" fill-rule="evenodd" fill-opacity="1" stroke="#000000" stroke-opacity="1" stroke-width="1.6"/>
<path clip-path="url(#clip812)" d="M543.76 639.904 L532.448 635.216 L527.76 623.904 L532.448 612.592 L543.76 607.904 L555.072 612.592 L559.76 623.904 L555.072 635.216 Z" fill="#3da44d" fill-rule="evenodd" fill-opacity="1" stroke="#000000" stroke-opacity="1" stroke-width="1.6"/>
<path clip-path="url(#clip812)" d="M643.828 639.905 L632.516 635.217 L627.828 623.905 L632.516 612.593 L643.828 607.905 L655.14 612.593 L659.828 623.905 L655.14 635.217 Z" fill="#3da44d" fill-rule="evenodd" fill-opacity="1" stroke="#000000" stroke-opacity="1" stroke-width="1.6"/>
<path clip-path="url(#clip812)" d="M743.896 639.905 L732.584 635.217 L727.896 623.905 L732.584 612.593 L743.896 607.905 L755.208 612.593 L759.896 623.905 L755.208 635.217 Z" fill="#3da44d" fill-rule="evenodd" fill-opacity="1" stroke="#000000" stroke-opacity="1" stroke-width="1.6"/>
<path clip-path="url(#clip812)" d="M1244.24 639.906 L1232.92 635.218 L1228.24 623.906 L1232.92 612.594 L1244.24 607.906 L1255.55 612.594 L1260.24 623.906 L1255.55 635.218 Z" fill="#3da44d" fill-rule="evenodd" fill-opacity="1" stroke="#000000" stroke-opacity="1" stroke-width="1.6"/>
<path clip-path="url(#clip810)" d="
M961.762 342.69 L1239.17 342.69 L1239.17 135.33 L961.762 135.33  Z
  " fill="#ffffff" fill-rule="evenodd" fill-opacity="1"/>
<polyline clip-path="url(#clip810)" style="stroke:#000000; stroke-linecap:butt; stroke-linejoin:round; stroke-width:4; stroke-opacity:1; fill:none" points="
  961.762,342.69 1239.17,342.69 1239.17,135.33 961.762,135.33 961.762,342.69 
  "/>
<polyline clip-path="url(#clip810)" style="stroke:#009af9; stroke-linecap:butt; stroke-linejoin:round; stroke-width:4; stroke-opacity:1; fill:none" points="
  972.959,187.17 1040.14,187.17 
  "/>
<path clip-path="url(#clip810)" d="M1006.55 212.77 L988.449 205.269 L980.948 187.17 L988.449 169.07 L1006.55 161.57 L1024.65 169.07 L1032.15 187.17 L1024.65 205.269 Z" fill="#009af9" fill-rule="evenodd" fill-opacity="1" stroke="#000000" stroke-opacity="1" stroke-width="2.56"/>
<path clip-path="url(#clip810)" d="M1051.33 168.431 L1055.62 168.431 L1055.62 189.704 L1068.33 178.524 L1073.76 178.524 L1060.01 190.653 L1074.34 204.45 L1068.79 204.45 L1055.62 191.788 L1055.62 204.45 L1051.33 204.45 L1051.33 168.431 Z" fill="#000000" fill-rule="evenodd" fill-opacity="1" /><path clip-path="url(#clip810)" d="M1079.51 182.922 L1109.18 182.922 L1109.18 186.811 L1079.51 186.811 L1079.51 182.922 M1079.51 192.366 L1109.18 192.366 L1109.18 196.301 L1079.51 196.301 L1079.51 192.366 Z" fill="#000000" fill-rule="evenodd" fill-opacity="1" /><path clip-path="url(#clip810)" d="M1129.27 172.968 Q1125.66 172.968 1123.83 176.533 Q1122.03 180.075 1122.03 187.204 Q1122.03 194.311 1123.83 197.875 Q1125.66 201.417 1129.27 201.417 Q1132.91 201.417 1134.71 197.875 Q1136.54 194.311 1136.54 187.204 Q1136.54 180.075 1134.71 176.533 Q1132.91 172.968 1129.27 172.968 M1129.27 169.265 Q1135.08 169.265 1138.14 173.871 Q1141.22 178.454 1141.22 187.204 Q1141.22 195.931 1138.14 200.538 Q1135.08 205.121 1129.27 205.121 Q1123.46 205.121 1120.38 200.538 Q1117.33 195.931 1117.33 187.204 Q1117.33 178.454 1120.38 173.871 Q1123.46 169.265 1129.27 169.265 Z" fill="#000000" fill-rule="evenodd" fill-opacity="1" /><path clip-path="url(#clip810)" d="M1149.44 198.57 L1154.32 198.57 L1154.32 204.45 L1149.44 204.45 L1149.44 198.57 Z" fill="#000000" fill-rule="evenodd" fill-opacity="1" /><path clip-path="url(#clip810)" d="M1175.08 185.306 Q1171.94 185.306 1170.08 187.459 Q1168.26 189.612 1168.26 193.362 Q1168.26 197.088 1170.08 199.264 Q1171.94 201.417 1175.08 201.417 Q1178.23 201.417 1180.06 199.264 Q1181.91 197.088 1181.91 193.362 Q1181.91 189.612 1180.06 187.459 Q1178.23 185.306 1175.08 185.306 M1184.37 170.653 L1184.37 174.913 Q1182.61 174.079 1180.8 173.64 Q1179.02 173.2 1177.26 173.2 Q1172.63 173.2 1170.18 176.325 Q1167.75 179.45 1167.4 185.769 Q1168.76 183.755 1170.82 182.69 Q1172.88 181.602 1175.36 181.602 Q1180.57 181.602 1183.58 184.774 Q1186.61 187.922 1186.61 193.362 Q1186.61 198.686 1183.46 201.903 Q1180.32 205.121 1175.08 205.121 Q1169.09 205.121 1165.92 200.538 Q1162.75 195.931 1162.75 187.204 Q1162.75 179.01 1166.63 174.149 Q1170.52 169.265 1177.07 169.265 Q1178.83 169.265 1180.62 169.612 Q1182.42 169.959 1184.37 170.653 Z" fill="#000000" fill-rule="evenodd" fill-opacity="1" /><path clip-path="url(#clip810)" d="M1205.25 185.306 Q1202.1 185.306 1200.25 187.459 Q1198.42 189.612 1198.42 193.362 Q1198.42 197.088 1200.25 199.264 Q1202.1 201.417 1205.25 201.417 Q1208.39 201.417 1210.22 199.264 Q1212.07 197.088 1212.07 193.362 Q1212.07 189.612 1210.22 187.459 Q1208.39 185.306 1205.25 185.306 M1214.53 170.653 L1214.53 174.913 Q1212.77 174.079 1210.96 173.64 Q1209.18 173.2 1207.42 173.2 Q1202.79 173.2 1200.34 176.325 Q1197.91 179.45 1197.56 185.769 Q1198.93 183.755 1200.99 182.69 Q1203.05 181.602 1205.52 181.602 Q1210.73 181.602 1213.74 184.774 Q1216.77 187.922 1216.77 193.362 Q1216.77 198.686 1213.63 201.903 Q1210.48 205.121 1205.25 205.121 Q1199.25 205.121 1196.08 200.538 Q1192.91 195.931 1192.91 187.204 Q1192.91 179.01 1196.8 174.149 Q1200.69 169.265 1207.24 169.265 Q1209 169.265 1210.78 169.612 Q1212.58 169.959 1214.53 170.653 Z" fill="#000000" fill-rule="evenodd" fill-opacity="1" /><polyline clip-path="url(#clip810)" style="stroke:#e26f46; stroke-linecap:butt; stroke-linejoin:round; stroke-width:4; stroke-opacity:1; fill:none" points="
  972.959,239.01 1040.14,239.01 
  "/>
<path clip-path="url(#clip810)" d="M1006.55 264.61 L988.449 257.109 L980.948 239.01 L988.449 220.91 L1006.55 213.41 L1024.65 220.91 L1032.15 239.01 L1024.65 257.109 Z" fill="#e26f46" fill-rule="evenodd" fill-opacity="1" stroke="#000000" stroke-opacity="1" stroke-width="2.56"/>
<path clip-path="url(#clip810)" d="M1051.33 220.271 L1055.62 220.271 L1055.62 241.544 L1068.33 230.364 L1073.76 230.364 L1060.01 242.493 L1074.34 256.29 L1068.79 256.29 L1055.62 243.628 L1055.62 256.29 L1051.33 256.29 L1051.33 220.271 Z" fill="#000000" fill-rule="evenodd" fill-opacity="1" /><path clip-path="url(#clip810)" d="M1079.51 234.762 L1109.18 234.762 L1109.18 238.651 L1079.51 238.651 L1079.51 234.762 M1079.51 244.206 L1109.18 244.206 L1109.18 248.141 L1079.51 248.141 L1079.51 244.206 Z" fill="#000000" fill-rule="evenodd" fill-opacity="1" /><path clip-path="url(#clip810)" d="M1129.27 224.808 Q1125.66 224.808 1123.83 228.373 Q1122.03 231.915 1122.03 239.044 Q1122.03 246.151 1123.83 249.715 Q1125.66 253.257 1129.27 253.257 Q1132.91 253.257 1134.71 249.715 Q1136.54 246.151 1136.54 239.044 Q1136.54 231.915 1134.71 228.373 Q1132.91 224.808 1129.27 224.808 M1129.27 221.105 Q1135.08 221.105 1138.14 225.711 Q1141.22 230.294 1141.22 239.044 Q1141.22 247.771 1138.14 252.378 Q1135.08 256.961 1129.27 256.961 Q1123.46 256.961 1120.38 252.378 Q1117.33 247.771 1117.33 239.044 Q1117.33 230.294 1120.38 225.711 Q1123.46 221.105 1129.27 221.105 Z" fill="#000000" fill-rule="evenodd" fill-opacity="1" /><path clip-path="url(#clip810)" d="M1149.44 250.41 L1154.32 250.41 L1154.32 256.29 L1149.44 256.29 L1149.44 250.41 Z" fill="#000000" fill-rule="evenodd" fill-opacity="1" /><path clip-path="url(#clip810)" d="M1163.32 221.73 L1185.55 221.73 L1185.55 223.72 L1173 256.29 L1168.12 256.29 L1179.92 225.665 L1163.32 225.665 L1163.32 221.73 Z" fill="#000000" fill-rule="evenodd" fill-opacity="1" /><path clip-path="url(#clip810)" d="M1194.71 221.73 L1213.07 221.73 L1213.07 225.665 L1199 225.665 L1199 234.137 Q1200.01 233.79 1201.03 233.628 Q1202.05 233.442 1203.07 233.442 Q1208.86 233.442 1212.24 236.614 Q1215.62 239.785 1215.62 245.202 Q1215.62 250.78 1212.14 253.882 Q1208.67 256.961 1202.35 256.961 Q1200.18 256.961 1197.91 256.59 Q1195.66 256.22 1193.25 255.479 L1193.25 250.78 Q1195.34 251.915 1197.56 252.47 Q1199.78 253.026 1202.26 253.026 Q1206.26 253.026 1208.6 250.919 Q1210.94 248.813 1210.94 245.202 Q1210.94 241.591 1208.6 239.484 Q1206.26 237.378 1202.26 237.378 Q1200.38 237.378 1198.51 237.794 Q1196.66 238.211 1194.71 239.091 L1194.71 221.73 Z" fill="#000000" fill-rule="evenodd" fill-opacity="1" /><polyline clip-path="url(#clip810)" style="stroke:#3da44d; stroke-linecap:butt; stroke-linejoin:round; stroke-width:4; stroke-opacity:1; fill:none" points="
  972.959,290.85 1040.14,290.85 
  "/>
<path clip-path="url(#clip810)" d="M1006.55 316.45 L988.449 308.949 L980.948 290.85 L988.449 272.75 L1006.55 265.25 L1024.65 272.75 L1032.15 290.85 L1024.65 308.949 Z" fill="#3da44d" fill-rule="evenodd" fill-opacity="1" stroke="#000000" stroke-opacity="1" stroke-width="2.56"/>
<path clip-path="url(#clip810)" d="M1051.33 272.111 L1055.62 272.111 L1055.62 293.384 L1068.33 282.204 L1073.76 282.204 L1060.01 294.333 L1074.34 308.13 L1068.79 308.13 L1055.62 295.468 L1055.62 308.13 L1051.33 308.13 L1051.33 272.111 Z" fill="#000000" fill-rule="evenodd" fill-opacity="1" /><path clip-path="url(#clip810)" d="M1079.51 286.602 L1109.18 286.602 L1109.18 290.491 L1079.51 290.491 L1079.51 286.602 M1079.51 296.046 L1109.18 296.046 L1109.18 299.981 L1079.51 299.981 L1079.51 296.046 Z" fill="#000000" fill-rule="evenodd" fill-opacity="1" /><path clip-path="url(#clip810)" d="M1120.08 304.194 L1127.72 304.194 L1127.72 277.829 L1119.41 279.495 L1119.41 275.236 L1127.68 273.57 L1132.35 273.57 L1132.35 304.194 L1139.99 304.194 L1139.99 308.13 L1120.08 308.13 L1120.08 304.194 Z" fill="#000000" fill-rule="evenodd" fill-opacity="1" /><path clip-path="url(#clip810)" d="M1149.44 302.25 L1154.32 302.25 L1154.32 308.13 L1149.44 308.13 L1149.44 302.25 Z" fill="#000000" fill-rule="evenodd" fill-opacity="1" /><path clip-path="url(#clip810)" d="M1174.51 276.648 Q1170.89 276.648 1169.07 280.213 Q1167.26 283.755 1167.26 290.884 Q1167.26 297.991 1169.07 301.555 Q1170.89 305.097 1174.51 305.097 Q1178.14 305.097 1179.94 301.555 Q1181.77 297.991 1181.77 290.884 Q1181.77 283.755 1179.94 280.213 Q1178.14 276.648 1174.51 276.648 M1174.51 272.945 Q1180.32 272.945 1183.37 277.551 Q1186.45 282.134 1186.45 290.884 Q1186.45 299.611 1183.37 304.218 Q1180.32 308.801 1174.51 308.801 Q1168.69 308.801 1165.62 304.218 Q1162.56 299.611 1162.56 290.884 Q1162.56 282.134 1165.62 277.551 Q1168.69 272.945 1174.51 272.945 Z" fill="#000000" fill-rule="evenodd" fill-opacity="1" /><path clip-path="url(#clip810)" d="M1204.67 276.648 Q1201.06 276.648 1199.23 280.213 Q1197.42 283.755 1197.42 290.884 Q1197.42 297.991 1199.23 301.555 Q1201.06 305.097 1204.67 305.097 Q1208.3 305.097 1210.11 301.555 Q1211.94 297.991 1211.94 290.884 Q1211.94 283.755 1210.11 280.213 Q1208.3 276.648 1204.67 276.648 M1204.67 272.945 Q1210.48 272.945 1213.53 277.551 Q1216.61 282.134 1216.61 290.884 Q1216.61 299.611 1213.53 304.218 Q1210.48 308.801 1204.67 308.801 Q1198.86 308.801 1195.78 304.218 Q1192.72 299.611 1192.72 290.884 Q1192.72 282.134 1195.78 277.551 Q1198.86 272.945 1204.67 272.945 Z" fill="#000000" fill-rule="evenodd" fill-opacity="1" /></svg>
